<?xml version="1.0" encoding="UTF-8"?><svg id="a" xmlns="http://www.w3.org/2000/svg" viewBox="0 0 720 720"><defs><style>.b{fill:#fff;}.c{fill:#983b29;}</style></defs><circle class="c" cx="360" cy="360" r="356.41"/><g><path class="b" d="M88.91,183.81l-1.44,2.26-6.04-3.86c-.69-.44-1.33-.87-1.91-1.29,.11,.24,.23,.57,.35,.99l.4,1.58-2.21,.51-1.27-5.1,1.29-2.02,10.83,6.92Z"/><path class="b" d="M89.25,180.81c-.87-.58-1.02-1.29-.45-2.14,.27-.4,.58-.63,.95-.69,.37-.06,.76,.04,1.18,.32,.42,.28,.67,.61,.75,.98,.08,.37-.01,.75-.27,1.14-.26,.39-.58,.62-.96,.7-.38,.08-.78-.02-1.19-.3Z"/><path class="b" d="M89.32,164.36c-.4,.56-.38,1.2,.06,1.94,.44,.74,1.18,1.49,2.22,2.23,1.12,.81,2.08,1.26,2.88,1.37,.8,.11,1.4-.13,1.82-.72,.23-.32,.4-.68,.5-1.06,.1-.39,.18-.79,.23-1.21l1.99,1.43c-.09,.89-.44,1.75-1.03,2.58-.87,1.21-2,1.8-3.39,1.79-1.39-.02-2.95-.64-4.66-1.87-1.05-.75-1.88-1.57-2.47-2.46-.59-.88-.91-1.77-.96-2.67-.05-.9,.21-1.75,.79-2.55,.63-.88,1.45-1.53,2.45-1.96l1.39,1.93c-.38,.13-.71,.29-1.01,.48-.3,.19-.56,.44-.79,.75Z"/><path class="b" d="M95.46,152.56l6.81,5.21c1.17,.9,1.84,1.85,2.01,2.87,.17,1.02-.16,2.06-.98,3.13-.8,1.05-1.71,1.63-2.71,1.75-1.01,.12-2.1-.27-3.28-1.17l-6.85-5.24,1.66-2.17,6.76,5.17c.61,.47,1.11,.7,1.51,.7,.4,0,.73-.17,1-.53,.29-.38,.38-.76,.27-1.13-.11-.37-.48-.8-1.1-1.27l-6.75-5.16,1.65-2.16Z"/><path class="b" d="M107.18,158.47l-9.98-8.1,1.72-2.13,8.15,6.61,2.13-2.63,1.83,1.49-3.86,4.75Z"/><path class="b" d="M114.36,149.8l-1.75,2.06-7.98-6.78-1.54,1.81-1.81-1.54,4.8-5.65,1.81,1.54-1.52,1.78,7.98,6.78Z"/><path class="b" d="M112.95,132.04l6.36,5.74c1.1,.99,1.69,2,1.77,3.03,.08,1.03-.33,2.04-1.23,3.04-.88,.98-1.83,1.49-2.85,1.53-1.01,.04-2.07-.44-3.18-1.44l-6.4-5.77,1.83-2.03,6.32,5.7c.57,.51,1.05,.79,1.45,.82s.74-.11,1.04-.44c.32-.36,.44-.73,.36-1.11-.08-.38-.41-.83-.99-1.36l-6.31-5.69,1.82-2.02Z"/><path class="b" d="M117.09,127.67c2-2.08,3.91-2.26,5.72-.52,1.11,1.06,1.53,2.29,1.26,3.68l5.9,2-2.08,2.17-4.99-1.93-.4,.42,3.56,3.42-1.9,1.97-9.27-8.91,2.21-2.3Zm1.65,1.61l-.3,.31,2.49,2.39,.31-.32c.71-.73,.61-1.53-.28-2.39-.77-.74-1.51-.74-2.23,0Z"/><path class="b" d="M135.31,127.58l-4.25,4.18-9.01-9.16,4.25-4.18,1.63,1.66-2.3,2.26,1.89,1.93,2.13-2.1,1.64,1.67-2.13,2.1,2.2,2.23,2.3-2.26,1.65,1.68Z"/><path class="b" d="M143.73,119.76l-2.34-1.69-2.09,1.9,1.47,2.48-2.18,1.99-6.34-11.61,2.65-2.41,10.99,7.38-2.16,1.96Zm-4.23-3.16l-2.6-1.92c-.36-.29-.7-.56-1.02-.83-.32-.26-.61-.5-.88-.73,.19,.27,.4,.57,.64,.92,.23,.35,.46,.72,.69,1.11l1.69,2.79,1.48-1.34Z"/><path class="b" d="M149.64,109.54c.51,.59,.83,1.23,.98,1.9,.15,.67,.11,1.33-.11,1.96-.22,.64-.63,1.21-1.23,1.73-.42,.36-.85,.66-1.29,.9-.44,.24-.96,.41-1.53,.53l-1.81-2.12c.58-.07,1.12-.2,1.62-.4,.5-.2,.93-.45,1.26-.74,.32-.27,.49-.56,.5-.87,.02-.3-.09-.59-.32-.85-.15-.17-.31-.31-.5-.4-.18-.09-.44-.14-.75-.15-.32,0-.75,.04-1.29,.12-.58,.1-1.11,.14-1.61,.13-.49-.01-.96-.13-1.4-.34-.44-.21-.89-.58-1.33-1.1-.73-.84-1.07-1.73-1.01-2.68,.06-.94,.55-1.8,1.47-2.57,.8-.69,1.78-1.14,2.93-1.37l.99,2.32c-.97,.14-1.71,.42-2.23,.86-.29,.25-.44,.51-.44,.78,0,.27,.09,.52,.29,.75,.18,.21,.36,.36,.55,.44,.18,.09,.44,.12,.75,.1,.32-.02,.75-.08,1.32-.18,.91-.14,1.69-.13,2.37,.02,.67,.16,1.29,.56,1.84,1.21Z"/><path class="b" d="M158.46,107.32l-2.14,1.7-8-10.06,4.63-3.69,1.45,1.82-2.49,1.98,1.97,2.48,2.32-1.85,1.45,1.82-2.32,1.85,3.14,3.94Z"/><path class="b" d="M165.82,93.58c1.26,1.68,1.92,3.22,1.99,4.62,.07,1.4-.53,2.57-1.79,3.51-1.25,.94-2.54,1.17-3.88,.71-1.34-.46-2.63-1.53-3.88-3.2-1.29-1.72-1.95-3.27-1.98-4.65-.03-1.38,.57-2.53,1.8-3.45,1.26-.94,2.55-1.19,3.87-.74,1.32,.45,2.61,1.52,3.87,3.2Zm-5.27,3.95c1.68,2.25,3.02,3,4.02,2.25,.51-.38,.68-.94,.52-1.67-.17-.73-.68-1.67-1.54-2.82-.86-1.15-1.63-1.91-2.3-2.28-.67-.37-1.25-.37-1.75,0-1,.75-.65,2.26,1.05,4.52Z"/><path class="b" d="M170.72,82.31l4.91,7.02c.85,1.21,1.19,2.33,1.04,3.35-.15,1.02-.78,1.92-1.88,2.68-1.08,.76-2.12,1.04-3.12,.85-1-.19-1.92-.9-2.77-2.11l-4.94-7.07,2.24-1.57,4.88,6.98c.44,.63,.85,1.01,1.23,1.13,.38,.12,.75,.06,1.11-.2,.39-.27,.59-.61,.6-1,0-.39-.22-.91-.66-1.55l-4.87-6.96,2.23-1.56Z"/><path class="b" d="M187.83,86.51l-2.71,1.71-7.57-5.29-.06,.04c.39,.53,.74,1.01,1.04,1.44,.3,.43,.55,.8,.75,1.11l2.89,4.56-2.16,1.37-6.88-10.86,2.69-1.71,7.44,5.13,.06-.04c-.36-.51-.69-.97-.98-1.38-.29-.41-.53-.78-.73-1.09l-2.84-4.49,2.17-1.38,6.88,10.86Z"/><path class="b" d="M193.74,75.05c1.11,1.84,1.57,3.49,1.37,4.95-.19,1.46-1.01,2.63-2.46,3.5l-2.7,1.63-6.63-11.01,2.87-1.73c1.4-.84,2.75-1.04,4.05-.59,1.3,.45,2.47,1.53,3.5,3.25Zm-2.36,1.57c-.72-1.19-1.4-1.95-2.05-2.27-.65-.32-1.3-.29-1.95,.1l-.49,.3,4.17,6.92,.34-.2c.73-.44,1.09-1.05,1.09-1.84,0-.79-.37-1.79-1.1-3Z"/><path class="b" d="M203.91,76.98l-1.9-2.17-2.46,1.38,.88,2.75-2.57,1.44-3.57-12.73,3.12-1.75,9.05,9.66-2.54,1.43Zm-3.42-4.03l-2.1-2.45c-.29-.36-.55-.71-.81-1.03s-.48-.63-.7-.91c.13,.3,.27,.65,.42,1.04,.15,.39,.29,.8,.43,1.24l1.02,3.1,1.74-.98Z"/><path class="b" d="M210.89,73.24l-2.39,1.26-4.88-9.27-2.1,1.11-1.11-2.1,6.56-3.46,1.11,2.1-2.07,1.09,4.88,9.27Z"/><path class="b" d="M218.79,69.25l-4.59,2.28-.66-1.32,.83-1.04-3.91-7.87-1.33,.04-.66-1.32,4.59-2.28,.66,1.32-.82,1.03,3.91,7.86,1.31-.03,.66,1.32Z"/><path class="b" d="M225.77,58.85c.88,1.9,1.21,3.55,.99,4.93-.22,1.38-1.05,2.4-2.48,3.06-1.41,.66-2.73,.62-3.94-.11-1.21-.73-2.26-2.04-3.14-3.93-.91-1.95-1.23-3.6-.97-4.96,.26-1.36,1.08-2.36,2.47-3.01,1.43-.66,2.74-.64,3.94,.08,1.2,.71,2.24,2.02,3.12,3.93Zm-5.98,2.77c1.18,2.55,2.34,3.56,3.47,3.03,.58-.27,.86-.78,.85-1.53-.01-.75-.32-1.78-.93-3.08-.61-1.31-1.2-2.21-1.77-2.71-.58-.5-1.15-.62-1.71-.35-1.13,.53-1.1,2.07,.09,4.64Z"/><path class="b" d="M238.92,60.25l-2.95,1.25-6.59-6.46-.07,.03c.3,.59,.56,1.12,.79,1.59,.23,.47,.41,.88,.55,1.22l2.1,4.98-2.35,.99-5-11.84,2.94-1.24,6.5,6.28,.07-.03c-.28-.56-.52-1.07-.74-1.52-.22-.45-.4-.85-.54-1.2l-2.06-4.89,2.37-1,5,11.84Z"/><path class="b" d="M246.78,58.99c-.19-.17-.38-.39-.57-.66-.19-.26-.36-.55-.51-.85-.16-.3-.29-.59-.4-.87-.27-.73-.45-1.49-.54-2.29-.09-.8-.08-1.59,.01-2.38,.1-.79,.29-1.54,.58-2.26l.66-.25c-.25,.76-.41,1.53-.5,2.32s-.09,1.57,0,2.34c.08,.78,.26,1.52,.53,2.24,.16,.44,.36,.87,.6,1.3,.24,.43,.49,.8,.76,1.11l-.63,.24Z"/><path class="b" d="M248.25,56.67l-1.07-7.59,.79-.29,.96,6.82,1.73-.63,.12,.76-2.53,.92Z"/><path class="b" d="M253.09,55.04c-.34,.12-.64,.08-.91-.11-.27-.19-.48-.53-.65-1-.1-.3-.19-.63-.26-1.01-.07-.38-.11-.76-.13-1.16-.01-.4,.01-.78,.08-1.13,.07-.36,.18-.67,.35-.93,.17-.26,.4-.45,.7-.55,.46-.16,.85,0,1.15,.47h.03l-.02-.76,.65-.23,.72,5.71-.61,.21-.2-.77h-.02c-.08,.33-.19,.6-.33,.82-.14,.22-.32,.37-.56,.45Zm.01-.76c.22-.08,.39-.23,.48-.47,.1-.23,.15-.51,.17-.82,.02-.32,0-.63-.02-.95-.03-.35-.07-.65-.12-.92-.05-.27-.11-.51-.19-.73-.09-.25-.2-.43-.35-.53-.15-.1-.31-.12-.48-.06-.18,.06-.32,.19-.42,.4-.1,.2-.17,.44-.2,.73-.03,.28-.04,.58-.01,.9,.02,.32,.06,.64,.12,.94,.06,.31,.13,.58,.22,.83,.2,.58,.47,.81,.8,.69Z"/><path class="b" d="M256.16,53.86l-.64-5.72,.63-.21,.14,.75h.03c.12-.65,.42-1.06,.9-1.22,.27-.09,.53-.09,.76,.01,.24,.1,.41,.32,.53,.68,.05,.14,.08,.3,.12,.49,.03,.19,.06,.38,.08,.56l.41,3.67-.77,.25-.41-3.55c-.02-.17-.04-.35-.07-.53-.03-.18-.06-.33-.11-.47-.1-.31-.3-.42-.58-.33-.3,.1-.49,.34-.57,.72s-.09,.9-.02,1.55l.35,3.07-.78,.26Z"/><path class="b" d="M262.14,54.54c-.22,.07-.44,.1-.66,.1-.22,0-.41-.02-.57-.06l-.24-.75c.16,.05,.35,.09,.59,.1,.24,.02,.47,0,.68-.08,.35-.11,.59-.31,.72-.61,.13-.29,.18-.68,.14-1.16l-.03-.39c-.02-.19-.04-.45-.04-.77h-.02c-.18,.65-.49,1.04-.95,1.19-.33,.1-.62,.06-.87-.14-.26-.19-.46-.53-.61-1-.1-.3-.17-.64-.23-1.02-.06-.38-.09-.77-.09-1.18,0-.4,.03-.78,.11-1.14,.08-.36,.2-.67,.38-.92,.18-.26,.41-.43,.71-.53,.25-.08,.46-.07,.64,.02,.18,.09,.35,.25,.49,.48h.03v-.75l.65-.21,.61,6.09c.08,.78,0,1.38-.24,1.81-.23,.43-.63,.74-1.2,.91Zm-.3-3.19c.19-.06,.34-.2,.45-.42,.11-.22,.18-.48,.21-.79,.03-.31,.04-.63,.02-.97-.02-.34-.05-.66-.11-.97-.05-.31-.11-.57-.18-.79-.07-.23-.18-.4-.32-.49-.14-.09-.3-.12-.47-.06-.19,.06-.33,.19-.44,.4-.1,.2-.17,.45-.21,.74-.04,.29-.05,.59-.03,.92,.02,.33,.05,.64,.1,.94,.05,.3,.11,.57,.19,.79,.18,.57,.44,.81,.78,.7Z"/><path class="b" d="M266.16,50.76c-.32,.1-.58,.08-.8-.06-.22-.13-.38-.36-.48-.7-.04-.12-.07-.27-.09-.43-.03-.17-.05-.33-.06-.48l-.31-3.8,.77-.23,.31,3.68c.02,.33,.06,.62,.14,.86,.05,.15,.12,.27,.21,.34,.09,.07,.21,.08,.36,.04,.29-.09,.49-.33,.6-.72,.1-.39,.13-.9,.07-1.55l-.26-3.08,.77-.23,.49,5.73-.62,.19-.15-.7h-.03c-.16,.63-.46,1-.92,1.14Z"/><path class="b" d="M270.63,49.44c-.34,.1-.64,.04-.9-.16-.26-.21-.45-.55-.59-1.04-.09-.3-.15-.64-.2-1.02s-.07-.77-.06-1.17c0-.4,.06-.78,.14-1.13,.09-.35,.22-.65,.4-.91,.18-.25,.43-.42,.73-.51,.47-.13,.85,.04,1.12,.53h.03l.03-.76,.67-.19,.39,5.74-.63,.18-.16-.78h-.02c-.1,.32-.22,.59-.37,.8-.15,.21-.34,.35-.58,.42Zm.06-.76c.23-.07,.4-.21,.51-.44,.11-.23,.18-.5,.22-.81,.03-.31,.04-.63,.04-.95-.01-.35-.03-.65-.07-.92-.03-.27-.08-.52-.15-.74-.07-.26-.18-.44-.32-.55-.14-.11-.3-.14-.47-.09-.18,.05-.33,.18-.44,.37-.11,.19-.19,.43-.24,.71-.05,.28-.07,.58-.06,.9,0,.32,.03,.64,.07,.95,.04,.31,.1,.59,.17,.84,.17,.59,.42,.83,.76,.73Z"/><path class="b" d="M275.35,50.61c-.22,.06-.44,.09-.66,.08-.22-.01-.41-.04-.57-.08l-.2-.76c.15,.06,.35,.1,.59,.13,.24,.03,.47,.01,.68-.05,.35-.09,.6-.29,.74-.58,.14-.29,.21-.67,.19-1.16l-.02-.39c-.02-.19-.02-.45-.01-.77h-.02c-.21,.64-.54,1.02-1,1.14-.33,.09-.62,.03-.87-.17-.25-.2-.44-.55-.56-1.03-.08-.3-.14-.65-.19-1.03-.04-.38-.05-.78-.04-1.18,.01-.4,.07-.78,.16-1.14,.09-.35,.23-.66,.42-.91,.19-.25,.43-.42,.74-.5,.25-.07,.46-.05,.64,.04,.18,.1,.34,.27,.47,.5h.03l.02-.75,.67-.18,.34,6.11c.04,.78-.06,1.38-.31,1.8-.25,.42-.67,.71-1.24,.86Zm-.17-3.2c.2-.05,.35-.19,.47-.4,.12-.21,.2-.47,.25-.78,.05-.31,.07-.63,.06-.97,0-.34-.03-.67-.06-.98-.04-.31-.09-.58-.14-.79-.06-.24-.16-.41-.3-.51-.14-.1-.29-.13-.47-.08-.19,.05-.34,.18-.45,.38-.11,.2-.19,.44-.24,.73-.05,.28-.07,.59-.07,.92,0,.33,.02,.64,.06,.95,.04,.31,.09,.57,.15,.8,.16,.58,.41,.83,.75,.73Z"/><path class="b" d="M279.96,46.9c-.45,.11-.83,.06-1.16-.17-.32-.22-.55-.6-.69-1.14-.14-.55-.21-1.08-.22-1.59,0-.51,.05-.98,.17-1.4,.12-.42,.3-.77,.53-1.05,.24-.28,.52-.46,.86-.55,.33-.08,.62-.06,.87,.08,.25,.14,.42,.4,.52,.77,.15,.6,.05,1.14-.3,1.61-.36,.47-.93,.81-1.73,1.01l-.07,.02c.01,.28,.06,.56,.12,.81,.1,.38,.24,.64,.42,.78,.18,.14,.42,.18,.69,.1,.18-.05,.35-.12,.49-.21,.14-.09,.3-.21,.47-.37l.17,.66c-.15,.16-.32,.29-.51,.39-.2,.1-.41,.18-.64,.24Zm-1.25-3.05h.03c.6-.16,1.01-.39,1.22-.7,.21-.31,.26-.67,.16-1.07-.04-.16-.11-.27-.21-.34-.1-.07-.23-.09-.39-.05-.26,.07-.47,.3-.61,.7-.14,.4-.21,.89-.2,1.46Z"/><path class="b" d="M282.26,47.64c.04-.25,.08-.54,.13-.86,.05-.32,.09-.64,.12-.97,.04-.33,.06-.62,.07-.88l.83-.2,.06,.09c-.06,.45-.14,.9-.24,1.36-.1,.46-.22,.9-.35,1.32l-.61,.15Z"/><path class="b" d="M286.65,45.15l-.11-7.66,1.11-.25c.55-.12,.99-.07,1.34,.15,.35,.23,.58,.58,.69,1.07,.12,.55,.14,1.06,.04,1.53-.09,.47-.29,.88-.6,1.21-.31,.33-.72,.56-1.24,.67l-.46,.1,.04,2.99-.82,.18Zm.77-3.95l.3-.07c.53-.12,.88-.39,1.07-.83,.19-.43,.21-.95,.07-1.55-.14-.64-.54-.89-1.17-.75l-.31,.07,.04,3.12Z"/><path class="b" d="M291.01,44.17l-.02-5.75,.62-.13,.08,.93h.03c.17-.74,.5-1.17,1.01-1.27,.12-.03,.26-.03,.4-.02l-.06,.89c-.11-.03-.24-.02-.38,0-.24,.05-.42,.19-.55,.42-.13,.23-.22,.51-.27,.82-.05,.31-.08,.63-.07,.93v3.01l-.78,.17Z"/><path class="b" d="M295.34,43.36c-.35,.07-.64,0-.88-.23-.24-.23-.41-.59-.51-1.08-.06-.31-.1-.65-.12-1.03-.02-.38,0-.77,.03-1.17s.12-.77,.23-1.11c.11-.34,.27-.63,.47-.87s.46-.39,.77-.45c.48-.1,.84,.11,1.08,.62h.03l.09-.75,.68-.14-.06,5.75-.64,.13-.1-.79h-.02c-.12,.32-.27,.57-.44,.77-.17,.2-.37,.32-.61,.37Zm.12-.75c.23-.05,.41-.18,.54-.4,.13-.22,.22-.48,.28-.79,.06-.31,.1-.63,.11-.94,.02-.35,.02-.65,0-.92-.01-.27-.04-.52-.09-.75-.05-.26-.14-.45-.28-.57-.13-.12-.29-.16-.46-.13-.19,.04-.34,.15-.47,.34-.13,.19-.23,.42-.29,.69-.07,.27-.12,.57-.14,.89-.02,.32-.02,.64,0,.95,.02,.31,.05,.59,.1,.85,.12,.6,.35,.86,.7,.79Z"/><path class="b" d="M300.18,42.41c-.43,.08-.78,0-1.06-.24-.28-.24-.47-.63-.57-1.18-.06-.32-.1-.68-.11-1.06-.01-.38,0-.76,.06-1.15,.05-.38,.15-.73,.28-1.06,.13-.32,.32-.6,.54-.82s.52-.37,.86-.43c.36-.07,.69-.05,.96,.06l-.2,.72c-.21-.1-.42-.12-.65-.08-.27,.05-.48,.2-.64,.46-.15,.25-.27,.56-.33,.92-.07,.36-.1,.74-.09,1.13,0,.39,.04,.75,.1,1.07,.13,.7,.43,1.01,.89,.92,.23-.04,.49-.19,.78-.45l.13,.7c-.12,.11-.27,.21-.43,.29-.17,.09-.34,.15-.54,.19Z"/><path class="b" d="M303.15,41.87c-.28,.05-.5,0-.66-.14-.16-.14-.26-.36-.31-.65-.04-.2-.05-.45-.04-.75l.12-3.42-.5,.09v-.47l.56-.32,.22-1.35,.58-.1-.04,1.31,.79-.14-.02,.71-.79,.14-.12,3.48c0,.11,0,.21,0,.31s0,.18,.02,.25c.04,.24,.17,.33,.37,.3,.06-.01,.13-.03,.21-.06,.08-.03,.15-.07,.23-.11l.12,.65c-.11,.07-.23,.13-.36,.18-.13,.05-.25,.09-.36,.11Z"/><path class="b" d="M304.75,41.48l.24-5.75,.8-.13-.24,5.75-.8,.13Zm.71-6.79c-.26,.04-.42-.07-.46-.34-.03-.18-.01-.36,.06-.53,.07-.17,.2-.28,.4-.31,.26-.04,.4,.06,.45,.32,.04,.21,.02,.4-.06,.57-.08,.17-.21,.26-.39,.3Z"/><path class="b" d="M308.6,40.95c-.43,.07-.78-.02-1.05-.27s-.46-.65-.54-1.2c-.05-.32-.08-.68-.08-1.06,0-.38,.03-.76,.09-1.14,.06-.38,.17-.73,.31-1.05,.14-.32,.33-.59,.57-.81,.23-.22,.52-.35,.87-.41,.37-.06,.69-.03,.96,.09l-.22,.71c-.21-.1-.42-.13-.64-.1-.27,.04-.49,.19-.65,.44-.16,.25-.28,.55-.36,.91-.08,.36-.12,.74-.12,1.13,0,.39,.02,.75,.07,1.07,.11,.71,.4,1.02,.86,.95,.24-.04,.5-.18,.79-.43l.11,.71c-.12,.11-.27,.2-.44,.28-.17,.08-.35,.14-.54,.17Z"/><path class="b" d="M312.23,40.39c-.46,.07-.84-.03-1.14-.28-.3-.26-.49-.66-.57-1.21-.08-.56-.1-1.1-.05-1.61,.05-.51,.15-.97,.32-1.37,.16-.41,.38-.74,.64-.99s.57-.41,.91-.46c.34-.05,.63,0,.86,.17,.23,.16,.38,.44,.43,.82,.09,.62-.06,1.14-.47,1.57-.4,.43-1.01,.71-1.82,.83h-.07c-.01,.29,0,.57,.04,.83,.06,.39,.17,.66,.34,.82,.17,.16,.4,.22,.68,.18,.19-.03,.36-.08,.51-.15,.15-.08,.32-.18,.5-.32l.1,.67c-.16,.14-.35,.26-.55,.34s-.42,.14-.66,.17Zm-.94-3.16h.03c.62-.09,1.04-.28,1.29-.57,.24-.29,.33-.63,.27-1.04-.02-.16-.08-.28-.17-.36-.09-.08-.22-.11-.38-.09-.27,.04-.5,.25-.68,.64-.18,.38-.3,.86-.35,1.43Z"/><path class="b" d="M315.76,39.88c-.24,.03-.47,.04-.68,.02-.21-.02-.38-.06-.51-.12l-.11-.82c.14,.08,.31,.14,.52,.19,.21,.04,.41,.06,.6,.03,.28-.04,.49-.15,.62-.32,.14-.18,.19-.42,.15-.71-.03-.2-.09-.37-.19-.52-.1-.14-.28-.32-.55-.53-.26-.2-.46-.4-.61-.6-.15-.2-.24-.45-.28-.75-.06-.44,.03-.84,.27-1.18,.24-.34,.6-.55,1.1-.61,.26-.04,.51-.04,.73,0,.22,.04,.42,.1,.59,.19l-.27,.69c-.3-.18-.61-.25-.94-.2-.24,.03-.42,.13-.54,.29-.12,.16-.16,.36-.13,.59,.03,.19,.08,.35,.17,.48,.09,.14,.25,.3,.49,.47,.21,.17,.38,.32,.52,.45,.14,.13,.24,.27,.32,.43,.07,.16,.13,.35,.16,.58,.07,.52-.02,.96-.26,1.31-.25,.35-.63,.56-1.16,.63Z"/><path class="b" d="M317.92,40.88c.07-.25,.14-.53,.23-.84,.08-.31,.16-.63,.23-.95s.13-.61,.17-.87l.84-.11,.04,.1c-.11,.44-.24,.88-.39,1.32-.16,.44-.32,.87-.5,1.27l-.63,.08Z"/><path class="b" d="M324.63,38.78c-1.11,.12-1.76-.62-1.93-2.22-.05-.42-.05-.87-.02-1.36,.03-.49,.11-.97,.23-1.45,.12-.48,.29-.93,.5-1.33,.22-.41,.48-.75,.8-1.01,.32-.27,.69-.42,1.13-.47,.24-.03,.46-.02,.67,.02,.21,.04,.41,.11,.58,.23l-.36,.73c-.24-.17-.52-.24-.81-.21-.32,.04-.59,.17-.82,.41-.23,.24-.42,.54-.57,.9-.15,.36-.27,.75-.34,1.16-.08,.41-.13,.82-.14,1.2-.02,.39-.01,.73,.02,1.01,.07,.6,.19,1.03,.38,1.28,.19,.26,.45,.37,.8,.33,.15-.02,.31-.06,.47-.12,.16-.07,.33-.15,.49-.23l.08,.76c-.19,.1-.38,.19-.57,.25-.19,.06-.39,.1-.58,.12Z"/><path class="b" d="M328.54,38.38c-.46,.04-.83-.07-1.12-.34-.29-.27-.46-.68-.51-1.23-.05-.56-.04-1.1,.03-1.61,.07-.51,.2-.96,.39-1.36,.18-.4,.41-.72,.69-.96,.28-.24,.59-.38,.94-.41,.34-.03,.62,.04,.85,.21,.22,.17,.36,.45,.39,.84,.06,.62-.12,1.14-.55,1.55-.43,.41-1.04,.65-1.86,.73h-.07c-.03,.29-.03,.57,0,.83,.04,.39,.14,.67,.3,.84,.16,.17,.38,.24,.67,.21,.19-.02,.36-.06,.52-.13,.15-.07,.33-.17,.52-.3l.07,.68c-.17,.14-.36,.24-.57,.31-.21,.07-.43,.12-.67,.14Zm-.77-3.21h.03c.62-.06,1.06-.23,1.31-.5,.26-.27,.36-.62,.32-1.03-.02-.16-.07-.28-.15-.37-.09-.09-.21-.12-.38-.11-.27,.03-.51,.23-.71,.6-.2,.38-.34,.84-.42,1.41Z"/><path class="b" d="M331.03,38.04l.71-5.71,.63-.05-.04,.93h.03c.26-.71,.64-1.09,1.16-1.13,.12-.01,.26,0,.4,.03l-.17,.88c-.11-.04-.24-.05-.38-.04-.24,.02-.45,.14-.6,.35-.16,.21-.28,.47-.37,.78-.09,.31-.15,.61-.19,.92l-.37,2.98-.81,.07Z"/><path class="b" d="M335.82,37.76c-.46,.03-.83-.09-1.11-.37-.28-.28-.44-.69-.48-1.24-.04-.57-.02-1.1,.07-1.61s.22-.95,.42-1.35,.43-.71,.71-.94,.6-.37,.95-.39c.34-.02,.62,.05,.84,.23,.22,.18,.34,.46,.37,.85,.05,.62-.15,1.13-.58,1.53-.43,.4-1.06,.63-1.88,.69h-.07c-.04,.29-.04,.56-.02,.83,.03,.39,.12,.67,.28,.84,.16,.17,.38,.25,.66,.23,.19-.01,.36-.05,.52-.12,.16-.06,.33-.16,.53-.29l.05,.68c-.17,.13-.36,.23-.57,.29-.21,.06-.43,.11-.67,.12Zm-.7-3.22h.03c.62-.05,1.06-.2,1.32-.47,.26-.27,.38-.61,.35-1.02-.01-.16-.06-.28-.14-.37s-.21-.13-.38-.11c-.27,.02-.51,.21-.73,.58-.21,.37-.36,.84-.46,1.4Z"/><path class="b" d="M338.29,37.46l.88-5.69,.66-.04-.06,.74h.03c.28-.58,.68-.88,1.18-.91,.52-.03,.85,.19,.98,.67h.02c.14-.24,.31-.43,.51-.57,.2-.14,.42-.21,.68-.23,.3-.02,.54,.06,.72,.23,.18,.17,.28,.43,.3,.78,0,.11,0,.22,0,.35,0,.13-.03,.25-.05,.38l-.61,3.98-.81,.05,.58-3.82c.02-.13,.04-.25,.05-.37,0-.12,.01-.22,0-.3-.02-.37-.18-.55-.48-.53-.19,.01-.35,.09-.48,.23-.13,.14-.24,.32-.32,.53-.08,.22-.13,.43-.16,.65l-.57,3.68-.81,.05,.6-3.9c.02-.11,.03-.22,.04-.33,0-.11,0-.19,0-.26-.02-.36-.18-.54-.47-.52-.24,.01-.43,.11-.58,.31-.15,.19-.26,.44-.35,.74-.08,.3-.15,.62-.19,.96l-.48,3.1-.82,.05Z"/><path class="b" d="M346.57,37.14c-.43,.02-.76-.12-1.01-.4-.25-.28-.38-.7-.4-1.25-.01-.29,0-.61,.04-.97,.04-.36,.11-.73,.21-1.11,.1-.38,.24-.72,.42-1.04,.17-.32,.39-.58,.65-.78,.26-.2,.57-.31,.93-.33,.42-.02,.75,.12,1,.41,.25,.29,.38,.71,.4,1.26,.01,.34,0,.71-.05,1.09-.05,.38-.13,.76-.23,1.12-.11,.36-.25,.69-.43,.99-.18,.3-.4,.54-.65,.72-.25,.18-.54,.28-.87,.29Zm.06-.72c.19,0,.36-.09,.51-.25,.15-.16,.28-.36,.39-.62,.11-.26,.2-.54,.27-.84,.07-.3,.12-.61,.15-.92,.03-.31,.04-.59,.03-.85-.01-.31-.07-.56-.18-.73-.11-.17-.26-.25-.47-.25-.2,0-.38,.1-.54,.27-.15,.17-.29,.39-.39,.66-.11,.27-.2,.56-.26,.87-.06,.31-.11,.62-.14,.91s-.04,.56-.03,.78c.03,.65,.24,.97,.65,.95Z"/><path class="b" d="M349.43,36.92l1.05-5.66,.66-.02-.09,.76h.03c.3-.58,.71-.88,1.22-.89,.29,0,.53,.07,.73,.23,.2,.16,.3,.43,.31,.8,0,.15,0,.32-.03,.5-.03,.19-.05,.38-.09,.56l-.67,3.63-.81,.02,.65-3.51c.03-.17,.06-.34,.09-.52,.03-.18,.04-.34,.04-.48,0-.33-.16-.49-.46-.48-.32,0-.57,.18-.76,.52-.19,.34-.35,.83-.47,1.47l-.56,3.04-.82,.02Z"/><path class="b" d="M353.99,36.81l1.11-5.65h.81l-1.11,5.63h-.81Zm1.74-6.59c-.27,0-.4-.13-.4-.4,0-.18,.04-.35,.14-.52,.1-.16,.25-.24,.45-.25,.26,0,.39,.12,.39,.38,0,.22-.05,.4-.15,.55-.1,.15-.25,.23-.43,.23Z"/><path class="b" d="M357.95,36.87c-.46,0-.82-.15-1.08-.44s-.39-.72-.39-1.27c0-.57,.06-1.1,.18-1.6,.12-.5,.29-.94,.51-1.32,.22-.38,.48-.68,.77-.89,.3-.22,.62-.32,.97-.33,.34,0,.62,.1,.83,.29,.21,.2,.31,.49,.31,.87,0,.62-.23,1.12-.69,1.49-.46,.37-1.1,.56-1.92,.56h-.07c-.05,.28-.08,.55-.08,.82,0,.39,.07,.68,.22,.86,.14,.18,.36,.27,.65,.27,.19,0,.36-.03,.52-.08,.16-.05,.34-.14,.54-.25v.68c-.18,.12-.38,.2-.59,.25-.21,.05-.44,.08-.68,.08Zm-.48-3.26h.03c.62,0,1.07-.13,1.35-.38,.28-.25,.42-.58,.42-.99,0-.16-.04-.29-.12-.38-.08-.09-.2-.14-.37-.14-.27,0-.53,.18-.76,.53s-.42,.81-.55,1.36Z"/><path class="b" d="M361.52,36.87c-.25,0-.47-.03-.68-.08-.21-.05-.37-.11-.49-.19v-.83c.13,.1,.29,.19,.5,.26,.2,.08,.4,.11,.59,.11,.28,0,.5-.07,.66-.23,.16-.16,.24-.39,.25-.69,0-.2-.04-.38-.11-.54-.08-.15-.23-.36-.47-.6-.23-.23-.4-.46-.52-.68-.12-.22-.17-.48-.17-.78,0-.45,.15-.82,.43-1.13,.29-.31,.68-.46,1.17-.45,.27,0,.51,.04,.72,.1,.22,.07,.4,.16,.55,.27l-.36,.65c-.27-.22-.57-.33-.9-.33-.25,0-.44,.07-.58,.21-.14,.14-.21,.33-.21,.57,0,.19,.03,.36,.1,.5,.07,.15,.21,.33,.42,.54,.18,.2,.33,.37,.45,.52,.12,.15,.2,.3,.25,.47,.05,.17,.08,.37,.07,.6,0,.52-.15,.94-.44,1.26-.29,.31-.71,.47-1.24,.46Z"/><path class="b" d="M363.53,38.17c.1-.24,.22-.5,.34-.8,.13-.3,.25-.6,.37-.91,.12-.31,.21-.58,.29-.83h.85l.03,.12c-.17,.42-.36,.83-.58,1.25-.22,.42-.44,.81-.67,1.19h-.63Z"/><path class="b" d="M368.4,36.87l1.83-7.44,.84,.03-.91,3.7,.61-.87,2.07-2.77,.91,.03-2.48,3.35,.73,4.09-.91-.03-.56-3.44-.6,.57-.69,2.81-.84-.03Z"/><path class="b" d="M372.85,37.02l1.46-5.57,.66,.03-.14,.75h.03c.34-.56,.77-.82,1.28-.8,.29,.01,.52,.11,.71,.29,.18,.18,.27,.45,.25,.82,0,.15-.03,.31-.07,.5-.04,.19-.08,.37-.13,.55l-.94,3.57-.81-.04,.9-3.46c.04-.17,.08-.34,.12-.51s.06-.33,.07-.47c.01-.33-.13-.5-.43-.51-.31-.01-.58,.14-.79,.47-.22,.33-.41,.8-.58,1.43l-.78,2.99-.82-.04Z"/><path class="b" d="M379,37.44c-.43-.03-.75-.19-.96-.5-.22-.3-.31-.73-.27-1.28,.02-.29,.06-.61,.14-.96,.08-.36,.18-.72,.32-1.08,.14-.36,.31-.69,.52-.99,.2-.3,.45-.54,.73-.71,.28-.18,.6-.25,.96-.23,.42,.03,.74,.19,.95,.51,.22,.31,.31,.74,.27,1.29-.02,.34-.08,.7-.16,1.08-.09,.38-.2,.74-.34,1.09-.14,.35-.32,.66-.53,.94s-.45,.49-.72,.65c-.27,.16-.57,.22-.9,.2Zm.13-.71c.19,.01,.37-.05,.53-.19,.17-.14,.32-.33,.45-.58,.13-.24,.25-.51,.35-.81s.18-.6,.24-.9c.06-.3,.1-.59,.12-.85,.02-.31-.02-.56-.11-.74-.09-.18-.24-.28-.44-.29-.2-.01-.39,.06-.56,.21-.17,.15-.32,.36-.46,.62-.13,.26-.25,.54-.34,.84-.1,.3-.17,.6-.23,.9-.06,.29-.09,.55-.11,.78-.04,.65,.14,.99,.55,1.01Z"/><path class="b" d="M382.4,37.54l.54-5.6,.79,.06-.34,3.2c-.02,.21-.05,.41-.08,.61-.03,.19-.06,.38-.08,.55h.02c.07-.17,.14-.35,.23-.53,.08-.18,.15-.35,.22-.49l1.55-3.22,.91,.07-.35,3.16c-.02,.19-.05,.39-.08,.6-.03,.21-.06,.42-.08,.63h.02c.09-.22,.19-.44,.28-.66,.09-.21,.2-.43,.3-.66l1.41-2.97,.82,.06-2.68,5.44-.94-.07,.4-3.46c.04-.34,.09-.68,.14-1.02h-.02c-.05,.13-.11,.27-.16,.4-.06,.13-.12,.26-.18,.4l-1.7,3.58-.92-.07Z"/><path class="b" d="M387.74,37.97l2.41-7.8,.81,.07-2.41,7.8-.8-.07Z"/><path class="b" d="M391.68,38.44c-.46-.04-.8-.23-1.03-.55-.23-.32-.32-.76-.26-1.31,.06-.56,.17-1.09,.34-1.57,.17-.48,.39-.9,.64-1.25s.54-.62,.86-.81,.65-.26,1-.22c.34,.03,.61,.16,.79,.37,.19,.22,.26,.52,.22,.9-.06,.62-.34,1.09-.84,1.41-.5,.32-1.15,.44-1.97,.36h-.07c-.08,.27-.14,.53-.16,.8-.04,.39,0,.68,.13,.88,.12,.2,.33,.31,.62,.34,.19,.02,.36,0,.53-.03,.17-.04,.35-.1,.57-.19l-.07,.68c-.19,.1-.4,.17-.62,.19-.22,.03-.44,.03-.68,0Zm-.14-3.29h.03c.62,.06,1.08-.01,1.39-.23,.3-.22,.47-.54,.52-.95,.02-.16,0-.29-.08-.39-.07-.1-.18-.16-.35-.18-.27-.03-.54,.12-.81,.45-.27,.33-.5,.76-.69,1.3Z"/><path class="b" d="M395.49,38.84c-.34-.04-.59-.2-.75-.49-.16-.29-.21-.68-.15-1.18,.03-.31,.1-.64,.2-1.01s.23-.74,.39-1.1c.16-.37,.35-.7,.56-.99,.21-.3,.45-.53,.71-.69,.26-.16,.54-.23,.84-.2,.24,.03,.44,.12,.6,.27,.16,.15,.25,.35,.27,.6h.03c.05-.17,.1-.34,.15-.51,.05-.17,.1-.33,.15-.48l.64-1.94,.8,.09-2.58,7.74-.65-.07,.15-.76h-.02c-.23,.25-.45,.45-.66,.58-.21,.13-.45,.18-.7,.15Zm.36-.67c.22,.03,.43-.04,.62-.2s.37-.38,.52-.65c.15-.27,.29-.57,.41-.89,.12-.32,.21-.62,.28-.92,.07-.29,.12-.54,.14-.73,.06-.53-.1-.83-.49-.87-.19-.02-.38,.04-.56,.19-.18,.15-.34,.34-.5,.59-.15,.25-.29,.53-.41,.83-.12,.3-.22,.6-.29,.9-.08,.3-.13,.57-.16,.81-.07,.6,.07,.92,.42,.96Z"/><path class="b" d="M399.41,41.73c-.23-.03-.44-.09-.64-.18-.2-.09-.36-.19-.49-.29l.1-.78c.12,.11,.28,.23,.5,.34,.21,.12,.43,.19,.65,.22,.36,.05,.66-.04,.91-.25,.24-.21,.45-.54,.62-1l.13-.36c.06-.18,.15-.42,.28-.72h-.02c-.43,.51-.88,.73-1.36,.67-.34-.04-.59-.21-.74-.49-.15-.28-.19-.67-.13-1.16,.04-.31,.11-.65,.22-1.03,.11-.37,.25-.74,.41-1.11,.17-.37,.36-.7,.58-.99,.22-.29,.46-.52,.73-.68,.27-.16,.56-.22,.87-.18,.26,.03,.45,.13,.58,.29,.13,.16,.21,.37,.25,.65h.03l.3-.68,.69,.09-2.01,5.78c-.26,.74-.58,1.25-.97,1.54-.39,.29-.89,.4-1.48,.33Zm1.06-3.02c.2,.03,.4-.04,.58-.19,.19-.15,.36-.36,.53-.63,.16-.27,.3-.56,.43-.87,.12-.32,.23-.63,.31-.93,.08-.3,.14-.57,.17-.79,.03-.24,0-.44-.08-.58-.09-.15-.22-.23-.4-.25-.2-.03-.38,.03-.56,.18-.18,.14-.35,.34-.5,.58-.15,.25-.29,.52-.42,.82-.12,.3-.23,.6-.31,.9-.08,.3-.14,.56-.17,.8-.08,.6,.06,.92,.42,.96Z"/><path class="b" d="M405.1,40.05c-.46-.07-.79-.26-1.01-.59-.21-.33-.28-.77-.21-1.32,.08-.56,.22-1.08,.41-1.55,.19-.48,.42-.88,.69-1.23s.57-.6,.89-.77c.32-.17,.66-.23,1.01-.18,.34,.05,.6,.18,.77,.41,.18,.22,.24,.53,.18,.91-.09,.62-.39,1.07-.89,1.37-.51,.3-1.17,.39-1.98,.28h-.07c-.1,.26-.16,.53-.2,.79-.05,.39-.02,.68,.09,.88,.12,.2,.32,.32,.6,.36,.19,.03,.36,.03,.53,0,.17-.03,.36-.09,.58-.17l-.1,.68c-.2,.09-.41,.15-.62,.17-.22,.02-.45,.01-.68-.02Zm0-3.3h.03c.62,.09,1.08,.03,1.39-.17,.31-.21,.5-.52,.55-.92,.02-.16,0-.29-.06-.39-.06-.1-.18-.17-.34-.19-.27-.04-.55,.1-.83,.42-.29,.32-.53,.74-.74,1.27Z"/><path class="b" d="M406.94,41.6c.13-.22,.28-.47,.45-.75,.17-.28,.33-.56,.49-.85,.16-.29,.29-.55,.4-.79l.84,.13,.02,.11c-.22,.39-.47,.78-.74,1.16-.27,.38-.54,.75-.82,1.08l-.62-.09Z"/><path class="b" d="M411.95,40.98l2.81-7.13,.83,.14-2.53,6.41,1.81,.3-.27,.72-2.65-.45Z"/><path class="b" d="M416.98,41.95c-.35-.06-.6-.25-.73-.54-.14-.3-.16-.7-.07-1.19,.06-.31,.15-.65,.27-1.01,.12-.36,.28-.72,.46-1.07,.19-.35,.39-.67,.63-.95,.23-.28,.49-.49,.76-.64,.28-.15,.57-.19,.88-.13,.48,.09,.74,.41,.77,.97h.03l.36-.66,.68,.12-2.18,5.32-.64-.12,.21-.77h-.02c-.23,.24-.46,.42-.69,.54s-.46,.16-.7,.12Zm.39-.66c.23,.04,.45-.01,.65-.17,.2-.16,.38-.37,.55-.64,.17-.27,.32-.55,.45-.83,.14-.32,.26-.6,.35-.86,.09-.25,.15-.5,.2-.73,.05-.26,.03-.47-.04-.63-.08-.16-.21-.26-.38-.29-.19-.03-.37,.01-.56,.14-.19,.13-.36,.3-.53,.53-.17,.23-.32,.49-.46,.78-.14,.29-.26,.58-.36,.88-.1,.3-.17,.57-.22,.82-.11,.6,0,.93,.35,.99Z"/><path class="b" d="M420.25,42.44l2.26-5.29,.65,.13-.25,.72h.03c.42-.5,.88-.7,1.38-.6,.28,.05,.5,.18,.66,.38,.16,.2,.2,.49,.13,.85-.03,.14-.08,.31-.14,.49-.07,.18-.14,.35-.21,.53l-1.45,3.4-.79-.16,1.39-3.29c.07-.16,.13-.32,.2-.49,.07-.17,.11-.32,.14-.46,.06-.32-.05-.51-.35-.57-.31-.06-.59,.05-.85,.35-.26,.29-.52,.74-.78,1.33l-1.21,2.84-.8-.16Z"/><path class="b" d="M425.97,43.69c-.34-.07-.57-.26-.7-.56s-.14-.7-.04-1.19c.06-.3,.16-.63,.29-.99,.13-.36,.3-.71,.49-1.06,.19-.35,.41-.66,.65-.94,.24-.27,.5-.48,.77-.62,.28-.14,.56-.18,.86-.11,.24,.05,.43,.16,.57,.32,.14,.17,.21,.37,.22,.63h.03c.06-.16,.13-.32,.2-.49,.07-.16,.13-.32,.19-.46l.82-1.87,.79,.17-3.3,7.46-.64-.13,.22-.75h-.02c-.25,.23-.49,.4-.71,.51-.22,.11-.46,.14-.72,.08Zm.42-.63c.22,.05,.43,0,.64-.14,.21-.14,.4-.34,.58-.6,.18-.26,.34-.54,.49-.85,.15-.31,.27-.6,.37-.89,.1-.29,.17-.53,.21-.72,.11-.53-.02-.83-.41-.91-.19-.04-.38,0-.58,.13-.19,.13-.38,.31-.55,.54-.17,.24-.33,.5-.48,.78-.15,.29-.27,.58-.38,.87-.11,.29-.18,.56-.23,.79-.12,.59-.02,.92,.33,.99Z"/><path class="b" d="M432.53,45.12c-.35-.08-.58-.27-.71-.58-.12-.3-.13-.7-.01-1.19,.07-.31,.18-.64,.32-.99,.14-.35,.31-.7,.51-1.05,.2-.34,.43-.65,.67-.92,.25-.27,.51-.46,.79-.6,.28-.13,.58-.16,.88-.09,.48,.11,.72,.45,.72,1.01h.03l.39-.64,.67,.16-2.44,5.21-.63-.15,.24-.76h-.02c-.24,.23-.48,.4-.71,.51-.23,.11-.47,.14-.71,.08Zm.42-.64c.23,.05,.45,0,.66-.14,.21-.15,.4-.35,.58-.61,.18-.26,.35-.53,.49-.81,.16-.31,.29-.59,.39-.84,.1-.25,.18-.49,.23-.72,.06-.26,.06-.47-.01-.63-.07-.16-.19-.27-.37-.31-.18-.04-.37,0-.57,.11-.19,.12-.38,.29-.55,.51-.18,.22-.34,.47-.49,.76-.15,.28-.29,.57-.4,.86-.11,.29-.2,.56-.26,.81-.14,.59-.04,.93,.3,1.01Z"/><path class="b" d="M435.75,45.77l2.51-5.18,.64,.16-.28,.71h.03c.44-.47,.91-.65,1.41-.53,.28,.07,.49,.21,.64,.42,.15,.21,.17,.49,.09,.86-.04,.14-.09,.3-.17,.48-.08,.18-.15,.35-.23,.52l-1.61,3.32-.78-.19,1.55-3.22c.07-.15,.15-.31,.22-.48,.07-.17,.13-.32,.16-.45,.08-.32-.03-.52-.32-.59-.31-.08-.6,.03-.87,.3s-.56,.71-.84,1.29l-1.35,2.78-.79-.2Z"/><path class="b" d="M441.43,47.3c-.33-.09-.55-.28-.67-.59-.11-.31-.11-.71,.02-1.19,.08-.3,.19-.62,.34-.97,.15-.35,.33-.7,.54-1.04s.45-.64,.7-.9c.25-.26,.52-.46,.8-.58,.28-.12,.57-.15,.86-.07,.24,.06,.42,.18,.55,.35,.13,.17,.19,.38,.19,.63h.03c.07-.15,.15-.32,.22-.48,.08-.16,.15-.31,.22-.45l.91-1.82,.78,.21-3.66,7.29-.63-.17,.26-.74h-.02c-.26,.22-.51,.38-.73,.48-.23,.1-.47,.12-.72,.05Zm.45-.61c.22,.06,.43,.02,.65-.11s.42-.32,.61-.57c.19-.25,.37-.52,.53-.82,.16-.3,.3-.59,.41-.87,.11-.28,.19-.52,.24-.71,.14-.52,.02-.83-.36-.93-.19-.05-.38-.02-.58,.1-.2,.12-.39,.29-.58,.52-.19,.23-.36,.48-.52,.76-.16,.28-.3,.56-.42,.85s-.21,.55-.27,.78c-.15,.58-.06,.92,.28,1.01Z"/><path class="b" d="M447.53,48.84l2.01-7.22,.83,.24-1.33,4.52c-.07,.24-.14,.48-.22,.73s-.18,.53-.3,.84h.02c.21-.34,.5-.76,.88-1.24l3.3-4.18,.87,.25-5.12,6.34-.93-.26Z"/><path class="b" d="M451.99,50.23c-.34-.1-.57-.31-.67-.62-.1-.31-.08-.71,.06-1.19,.09-.3,.22-.63,.38-.97,.16-.35,.35-.69,.58-1.02,.22-.33,.46-.62,.73-.87,.26-.25,.54-.43,.83-.55,.29-.11,.58-.13,.89-.04,.47,.14,.69,.49,.66,1.05h.03l.43-.61,.66,.2-2.76,5.05-.62-.19,.29-.75h-.02c-.25,.21-.5,.37-.74,.46s-.48,.11-.71,.04Zm.46-.61c.23,.07,.45,.04,.66-.1,.22-.13,.42-.32,.62-.57,.2-.25,.38-.51,.54-.78,.18-.3,.32-.57,.44-.81,.12-.24,.21-.48,.28-.71,.08-.25,.08-.46,.03-.63-.06-.17-.18-.28-.35-.33-.18-.05-.37-.03-.57,.08-.2,.1-.39,.26-.58,.47-.19,.21-.37,.45-.54,.73-.17,.27-.32,.55-.45,.83-.13,.28-.23,.55-.31,.8-.17,.58-.09,.93,.24,1.02Z"/><path class="b" d="M455.18,51.08l3.99-7.12,.77,.24-3.99,7.12-.77-.24Z"/><path class="b" d="M458.49,52.23c-.31-.1-.52-.27-.63-.5-.11-.23-.1-.52,0-.85,.04-.12,.09-.26,.17-.41,.07-.15,.15-.29,.22-.43l1.9-3.3,.77,.25-1.84,3.2c-.17,.28-.3,.54-.38,.78-.05,.15-.05,.29-.02,.4,.04,.11,.13,.19,.28,.24,.29,.1,.59,.01,.9-.25,.31-.26,.62-.67,.94-1.23l1.54-2.68,.77,.25-2.85,4.99-.62-.2,.28-.66h-.03c-.48,.41-.95,.55-1.4,.4Z"/><path class="b" d="M463.25,53.79c-.44-.15-.73-.4-.88-.77-.15-.36-.14-.81,.04-1.33,.18-.54,.41-1.02,.68-1.45,.28-.43,.58-.79,.91-1.08,.33-.29,.67-.49,1.02-.59,.35-.11,.69-.11,1.02,0,.32,.11,.55,.29,.69,.54,.13,.25,.14,.56,.01,.92-.2,.59-.58,.99-1.13,1.19-.55,.2-1.22,.17-2-.09l-.07-.02c-.14,.25-.26,.5-.34,.75-.12,.37-.15,.67-.07,.88,.08,.22,.25,.37,.52,.46,.18,.06,.35,.09,.52,.09,.17,0,.37-.02,.6-.06l-.22,.65c-.21,.05-.42,.07-.64,.05-.22-.02-.44-.07-.67-.15Zm.6-3.24h.03c.59,.21,1.06,.23,1.4,.09,.34-.15,.58-.42,.71-.81,.05-.15,.05-.29,.01-.4-.04-.11-.14-.2-.3-.25-.26-.09-.56,0-.9,.26-.34,.26-.66,.63-.96,1.11Z"/><path class="b" d="M466.62,54.94c-.23-.08-.44-.18-.62-.29-.18-.12-.31-.23-.4-.34l.27-.78c.09,.13,.21,.27,.38,.41,.17,.14,.34,.24,.52,.3,.26,.09,.5,.09,.7,0,.2-.09,.36-.29,.46-.57,.07-.19,.09-.37,.07-.54-.02-.17-.1-.41-.25-.72-.14-.29-.23-.57-.27-.81-.04-.25,0-.51,.09-.8,.15-.42,.41-.73,.78-.93,.37-.2,.79-.21,1.26-.05,.25,.09,.47,.2,.65,.33,.18,.13,.33,.28,.44,.44l-.55,.5c-.19-.3-.43-.5-.74-.61-.23-.08-.44-.08-.62,.01-.18,.09-.31,.25-.39,.47-.06,.18-.08,.35-.07,.51,.02,.16,.09,.38,.22,.65,.11,.25,.19,.46,.26,.63s.09,.36,.09,.53-.05,.37-.12,.59c-.17,.5-.45,.84-.83,1.05-.38,.2-.82,.21-1.32,.04Z"/><path class="b" d="M468.12,56.82c.17-.19,.37-.41,.59-.65,.22-.24,.43-.49,.64-.74,.21-.25,.39-.48,.54-.7l.8,.29v.11c-.3,.34-.62,.67-.96,1-.34,.32-.68,.63-1.02,.91l-.59-.21Z"/><path class="b" d="M473.13,57.17l4.14-6.45,2.54,.96-.42,.65-1.76-.67-1.35,2.11,1.64,.62-.43,.65-1.64-.62-1.54,2.39,1.76,.67-.42,.65-2.54-.96Z"/><path class="b" d="M476.95,58.62l4.48-6.82,.75,.29-4.48,6.82-.75-.29Z"/><path class="b" d="M480.22,60.02c-.32-.13-.52-.35-.59-.67-.07-.32-.02-.71,.17-1.18,.12-.29,.27-.59,.46-.92s.42-.65,.67-.96c.25-.31,.52-.58,.81-.81,.29-.23,.58-.39,.87-.48,.3-.09,.58-.08,.86,.04,.23,.09,.4,.23,.51,.42,.11,.19,.14,.41,.1,.65h.03c.09-.14,.19-.29,.28-.44s.19-.29,.27-.42l1.13-1.69,.75,.3-4.55,6.77-.6-.24,.35-.7h-.02c-.29,.18-.55,.31-.79,.38-.24,.07-.48,.06-.72-.04Zm.53-.55c.21,.08,.43,.07,.66-.03s.46-.27,.68-.49c.22-.22,.43-.47,.63-.75,.2-.28,.37-.55,.52-.81,.15-.26,.26-.49,.33-.67,.2-.5,.12-.82-.24-.97-.18-.07-.38-.06-.59,.03s-.42,.24-.64,.44c-.21,.2-.42,.43-.61,.69-.19,.26-.37,.52-.52,.79-.15,.27-.28,.51-.36,.74-.22,.56-.17,.9,.15,1.03Z"/><path class="b" d="M484.91,61.94c-.43-.18-.7-.46-.83-.83s-.08-.82,.13-1.33c.22-.52,.48-.99,.79-1.4s.63-.75,.98-1.01c.35-.26,.7-.44,1.06-.52,.36-.08,.7-.06,1.02,.08,.32,.13,.53,.33,.65,.59,.11,.26,.1,.57-.05,.92-.24,.57-.64,.94-1.21,1.1-.57,.16-1.23,.08-1.99-.23l-.07-.03c-.16,.24-.29,.48-.39,.72-.15,.36-.2,.65-.13,.88,.06,.22,.23,.39,.49,.5,.17,.07,.35,.12,.51,.13,.17,.01,.37,0,.6-.02l-.26,.63c-.21,.04-.43,.04-.64,0-.22-.04-.43-.1-.65-.19Zm.83-3.19h.03c.58,.25,1.04,.31,1.39,.19,.35-.12,.61-.37,.77-.75,.06-.15,.08-.28,.04-.4-.04-.12-.13-.21-.29-.27-.25-.11-.56-.04-.91,.19-.36,.23-.7,.58-1.04,1.04Z"/><path class="b" d="M487.24,62.8l3.32-4.7,.58,.25-.47,.8h.03c.56-.49,1.08-.64,1.55-.44,.12,.05,.23,.12,.34,.22l-.56,.69c-.08-.09-.18-.16-.32-.22-.23-.1-.46-.09-.7,.03-.24,.11-.47,.28-.7,.51-.22,.23-.42,.47-.6,.72l-1.73,2.45-.74-.32Z"/><path class="b" d="M491.04,64.57c-.22-.1-.42-.21-.59-.34-.17-.13-.29-.25-.37-.37l.34-.76c.08,.14,.19,.29,.35,.44,.16,.15,.32,.26,.49,.34,.25,.11,.49,.13,.7,.05,.21-.08,.38-.26,.5-.53,.08-.19,.12-.36,.11-.54,0-.17-.07-.42-.19-.74-.12-.31-.19-.58-.21-.83-.02-.25,.03-.51,.15-.79,.18-.41,.46-.7,.85-.86,.38-.17,.8-.15,1.26,.05,.24,.11,.45,.24,.62,.39s.3,.3,.4,.47l-.59,.45c-.16-.31-.39-.53-.69-.66-.22-.1-.43-.11-.62-.04-.19,.07-.33,.22-.42,.44-.08,.17-.11,.34-.11,.5,0,.16,.06,.38,.17,.66,.09,.25,.16,.47,.2,.65s.06,.36,.04,.54c-.02,.18-.08,.37-.17,.58-.21,.48-.52,.81-.91,.97-.39,.17-.83,.15-1.32-.07Z"/><path class="b" d="M492.36,66.56c.19-.18,.4-.38,.64-.6,.24-.22,.47-.45,.7-.69,.23-.23,.43-.45,.6-.65l.77,.35v.11c-.33,.31-.68,.62-1.04,.92-.36,.3-.73,.57-1.09,.82l-.57-.26Z"/><path class="b" d="M499.17,68.3c-1.01-.48-1.17-1.45-.48-2.9,.18-.38,.41-.77,.69-1.16,.28-.4,.6-.77,.95-1.12,.35-.35,.73-.64,1.13-.87,.4-.23,.8-.38,1.22-.44,.41-.06,.81,0,1.21,.19,.21,.1,.4,.22,.56,.37,.16,.14,.29,.31,.37,.5l-.69,.43c-.12-.27-.31-.47-.58-.6-.29-.14-.6-.16-.92-.08s-.64,.24-.96,.47c-.32,.23-.62,.5-.9,.81-.28,.31-.54,.63-.75,.95-.22,.32-.39,.61-.51,.87-.26,.54-.38,.97-.35,1.29,.02,.32,.19,.55,.51,.7,.14,.07,.29,.11,.47,.14,.17,.03,.35,.05,.54,.06l-.33,.69c-.21,0-.42-.04-.61-.09-.2-.05-.38-.12-.56-.2Z"/><path class="b" d="M502.32,69.81c-.29-.14-.48-.34-.55-.58-.07-.25-.03-.53,.13-.84,.06-.11,.13-.24,.23-.38,.1-.14,.19-.27,.28-.39l2.36-2.99,.72,.36-2.28,2.9c-.21,.25-.37,.5-.48,.72-.07,.14-.1,.27-.08,.39,.02,.12,.1,.21,.24,.28,.28,.14,.58,.1,.93-.12,.34-.22,.71-.58,1.11-1.08l1.91-2.43,.73,.36-3.55,4.53-.58-.29,.37-.61h-.03c-.54,.33-1.02,.4-1.45,.19Z"/><path class="b" d="M505.31,71.18l5.12-6.36,.72,.36-5.12,6.36-.72-.36Z"/><path class="b" d="M508.2,72.76c-.25-.13-.4-.3-.44-.51-.04-.21,0-.44,.14-.71,.09-.18,.24-.39,.43-.62l2.17-2.65-.45-.23,.29-.37,.63,.08,.99-.94,.52,.27-.83,1.01,.71,.37-.45,.55-.71-.37-2.2,2.69c-.07,.08-.13,.17-.19,.24-.06,.08-.11,.15-.14,.21-.11,.21-.07,.37,.12,.46,.06,.03,.12,.05,.21,.08,.08,.02,.16,.04,.25,.05l-.3,.59c-.13-.01-.26-.04-.4-.08s-.26-.08-.36-.14Z"/><path class="b" d="M510.81,74.12c-.29-.15-.47-.35-.53-.6-.06-.25-.01-.53,.15-.84,.06-.11,.14-.24,.24-.37,.1-.14,.2-.26,.29-.38l2.45-2.92,.71,.38-2.37,2.83c-.22,.25-.39,.48-.5,.71-.08,.14-.1,.27-.09,.39,.02,.12,.09,.21,.23,.28,.27,.14,.58,.11,.93-.09,.35-.2,.73-.55,1.14-1.05l1.98-2.37,.71,.38-3.68,4.42-.58-.3,.39-.6h-.03c-.55,.31-1.03,.37-1.45,.14Z"/><path class="b" d="M513.77,75.57l3.73-4.37,.55,.3-.54,.76,.03,.02c.6-.45,1.13-.55,1.59-.31,.11,.06,.22,.14,.32,.25l-.62,.64c-.07-.09-.17-.18-.3-.25-.21-.12-.45-.13-.7-.04-.25,.09-.5,.24-.74,.45-.24,.21-.47,.43-.67,.66l-1.95,2.29-.71-.39Z"/><path class="b" d="M517.58,77.78c-.31-.17-.48-.43-.52-.75-.03-.33,.07-.71,.32-1.15,.15-.27,.35-.56,.58-.87,.23-.3,.5-.59,.79-.87,.29-.27,.59-.51,.9-.69,.31-.19,.62-.31,.93-.35,.31-.05,.6,0,.87,.16,.43,.24,.57,.63,.42,1.17l.03,.02,.55-.51,.61,.34-3.79,4.33-.57-.32,.45-.67h-.02c-.3,.15-.57,.24-.83,.28-.26,.04-.49,0-.7-.12Zm.58-.5c.21,.12,.43,.13,.67,.05,.24-.08,.48-.22,.73-.42,.25-.2,.48-.41,.7-.64,.24-.25,.44-.48,.61-.7,.17-.21,.31-.42,.42-.63,.13-.23,.18-.44,.16-.61-.02-.18-.11-.31-.27-.4-.17-.09-.36-.11-.57-.05-.22,.06-.44,.17-.67,.33-.23,.16-.46,.36-.69,.59-.23,.23-.43,.47-.62,.72-.19,.25-.35,.48-.48,.71-.3,.53-.29,.88,.01,1.05Z"/><path class="b" d="M520.53,79.32l5.45-6.07,.7,.4-5.45,6.07-.7-.4Z"/><path class="b" d="M524.23,81.46l5.2-5.63,.97,.58c.48,.29,.77,.63,.87,1.04s.02,.82-.24,1.25c-.29,.48-.63,.86-1.02,1.14-.39,.28-.82,.43-1.27,.46-.45,.03-.9-.09-1.36-.37l-.41-.24-2.03,2.2-.72-.43Zm3.28-2.34l.26,.16c.46,.28,.91,.32,1.34,.14,.43-.19,.81-.54,1.12-1.07,.34-.57,.23-1.01-.33-1.35l-.27-.16-2.12,2.29Z"/><path class="b" d="M528.06,83.75l3.95-4.18,.54,.33-.58,.73,.03,.02c.63-.42,1.16-.5,1.6-.23,.11,.07,.21,.15,.31,.26l-.66,.61c-.06-.1-.16-.18-.28-.26-.21-.13-.44-.15-.69-.07-.25,.08-.51,.22-.76,.41-.25,.19-.49,.4-.7,.63l-2.06,2.18-.69-.42Z"/><path class="b" d="M531.77,86.16c-.3-.19-.46-.45-.48-.78-.02-.33,.11-.71,.38-1.13,.17-.27,.38-.54,.62-.83s.52-.57,.83-.82,.62-.48,.93-.65c.32-.17,.63-.27,.94-.31,.31-.03,.6,.04,.87,.2,.41,.26,.53,.66,.35,1.19l.03,.02,.58-.48,.59,.37-4.01,4.13-.55-.35,.48-.64h-.02c-.3,.13-.58,.21-.84,.24-.26,.03-.49-.02-.7-.15Zm.6-.46c.2,.13,.42,.15,.67,.08,.24-.07,.49-.2,.75-.38,.26-.19,.5-.39,.73-.61,.25-.24,.46-.46,.64-.66,.18-.2,.33-.41,.46-.61,.14-.22,.21-.43,.19-.6-.01-.18-.1-.31-.25-.41-.16-.1-.35-.13-.57-.08-.22,.05-.45,.15-.69,.3-.24,.15-.48,.34-.71,.55-.24,.22-.46,.45-.66,.68-.2,.24-.37,.46-.51,.68-.32,.52-.34,.87-.04,1.05Z"/><path class="b" d="M535.9,88.79c-.36-.23-.56-.54-.6-.9-.04-.37,.09-.78,.4-1.25,.18-.28,.4-.56,.65-.84,.26-.28,.53-.55,.83-.79,.3-.24,.61-.43,.93-.57,.32-.14,.64-.22,.96-.22,.32,0,.63,.09,.92,.28,.31,.2,.53,.44,.65,.71l-.64,.39c-.09-.21-.22-.38-.41-.5-.23-.15-.49-.19-.78-.11-.29,.08-.58,.22-.88,.44-.3,.22-.58,.47-.84,.75-.27,.29-.49,.57-.67,.84-.39,.6-.38,1.03,0,1.28,.2,.13,.49,.2,.87,.21l-.39,.6c-.16,0-.33-.03-.52-.08-.18-.05-.35-.13-.52-.24Z"/><path class="b" d="M538.45,90.46c-.24-.16-.37-.34-.38-.56-.01-.21,.06-.44,.22-.69,.11-.17,.28-.36,.49-.57l2.44-2.4-.42-.28,.33-.33,.62,.15,1.09-.83,.49,.32-.93,.92,.67,.44-.51,.5-.67-.44-2.48,2.44c-.07,.08-.15,.15-.22,.22-.07,.07-.12,.14-.16,.2-.13,.2-.11,.36,.07,.47,.05,.03,.12,.07,.2,.1,.08,.03,.16,.06,.24,.08l-.37,.55c-.13-.03-.25-.06-.39-.12-.13-.05-.25-.11-.34-.17Z"/><path class="b" d="M539.88,91.28l4.13-4,.67,.45-4.13,4-.67-.45Zm5.19-4.43c-.22-.15-.25-.34-.1-.56,.1-.15,.24-.27,.41-.34,.17-.08,.34-.06,.51,.05,.21,.15,.25,.32,.11,.54-.12,.18-.27,.3-.44,.37-.17,.07-.33,.05-.48-.05Z"/><path class="b" d="M542.58,93.24c-.24-.16-.36-.35-.37-.56-.01-.21,.06-.44,.23-.68,.12-.17,.28-.35,.5-.56l2.48-2.36-.42-.29,.34-.33,.62,.16,1.1-.81,.48,.33-.95,.9,.66,.45-.51,.49-.66-.45-2.52,2.4c-.08,.07-.15,.15-.22,.22-.07,.07-.12,.14-.16,.19-.13,.2-.11,.35,.06,.47,.05,.04,.12,.07,.2,.1,.08,.03,.16,.06,.24,.08l-.37,.55c-.13-.03-.25-.07-.39-.12-.13-.06-.24-.12-.34-.18Z"/><path class="b" d="M544.01,94.08l4.2-3.94,.66,.46-4.2,3.94-.66-.46Zm5.26-4.35c-.22-.15-.25-.34-.09-.56,.1-.15,.24-.26,.42-.34,.17-.08,.34-.06,.51,.06,.21,.15,.25,.33,.1,.54-.12,.18-.27,.3-.44,.36-.17,.06-.33,.04-.48-.06Z"/><path class="b" d="M547.12,96.4c-.35-.25-.53-.56-.56-.93-.02-.37,.13-.79,.45-1.24,.17-.23,.38-.48,.63-.75,.25-.26,.53-.51,.85-.75,.31-.23,.63-.42,.97-.57,.33-.15,.66-.22,.99-.22,.33,0,.64,.1,.93,.31,.34,.24,.52,.56,.54,.93,.02,.38-.13,.79-.45,1.24-.2,.28-.44,.56-.71,.83-.27,.27-.56,.52-.87,.74-.31,.22-.62,.39-.95,.52-.33,.12-.64,.18-.95,.17-.31-.01-.6-.11-.87-.3Zm.48-.53c.15,.11,.34,.15,.55,.12,.21-.03,.44-.12,.69-.25,.24-.14,.49-.3,.73-.5,.24-.2,.47-.41,.68-.64s.39-.45,.54-.66c.18-.26,.28-.49,.3-.69,.02-.2-.05-.36-.22-.48-.17-.12-.36-.16-.59-.12-.23,.04-.47,.13-.72,.28-.25,.15-.5,.32-.74,.53-.24,.21-.46,.42-.67,.64-.2,.22-.37,.42-.5,.6-.38,.53-.4,.91-.07,1.15Z"/><path class="b" d="M549.52,97.97l4.29-3.83,.53,.39-.53,.55,.03,.02c.59-.28,1.1-.27,1.51,.04,.23,.17,.38,.38,.43,.63,.06,.25-.03,.52-.24,.82-.09,.12-.2,.25-.34,.38-.14,.13-.27,.26-.41,.39l-2.75,2.46-.65-.48,2.66-2.39c.13-.12,.26-.24,.39-.36,.13-.13,.24-.24,.32-.36,.19-.27,.17-.49-.07-.67-.25-.19-.56-.2-.92-.05-.36,.15-.78,.44-1.27,.88l-2.3,2.06-.66-.48Z"/><path class="b" d="M554.51,101.79c-.37-.28-.57-.61-.6-1.01-.03-.39,.12-.81,.46-1.25,.34-.45,.71-.84,1.11-1.16,.4-.32,.8-.57,1.2-.74,.4-.17,.79-.25,1.15-.24,.37,0,.69,.12,.97,.33,.27,.21,.43,.45,.48,.73,.05,.28-.05,.58-.28,.88-.38,.5-.86,.75-1.45,.77-.59,.02-1.21-.22-1.87-.71l-.06-.04c-.21,.19-.4,.39-.56,.6-.24,.31-.35,.59-.35,.82s.12,.43,.35,.61c.15,.11,.31,.2,.47,.25,.16,.06,.36,.1,.58,.13l-.41,.55c-.22-.02-.43-.07-.62-.16-.2-.09-.4-.21-.58-.35Zm1.6-2.89l.03,.02c.5,.37,.93,.55,1.31,.52,.37-.03,.68-.21,.93-.54,.1-.13,.14-.25,.14-.37,0-.12-.08-.23-.21-.34-.22-.16-.53-.18-.93-.04-.4,.14-.82,.39-1.26,.75Z"/><path class="b" d="M556.58,103.22l4.38-3.73,.5,.38-.66,.66,.02,.02c.67-.35,1.21-.37,1.62-.05,.1,.08,.19,.18,.28,.29l-.72,.53c-.05-.1-.14-.2-.25-.29-.19-.15-.42-.2-.68-.15-.26,.05-.53,.16-.8,.32-.27,.17-.53,.35-.76,.55l-2.29,1.95-.64-.49Z"/><path class="b" d="M559.82,105.87c-.19-.15-.36-.31-.49-.48-.13-.17-.22-.32-.27-.45l.51-.65c.04,.16,.11,.32,.23,.51,.11,.18,.25,.33,.39,.45,.22,.17,.44,.25,.67,.22,.22-.02,.43-.15,.62-.39,.13-.16,.21-.32,.24-.49,.04-.17,.03-.42,0-.76-.04-.33-.04-.61,0-.86,.04-.25,.16-.49,.35-.72,.28-.35,.62-.56,1.04-.63s.81,.05,1.21,.36c.21,.17,.38,.34,.51,.53,.13,.19,.22,.37,.27,.56l-.68,.29c-.08-.34-.25-.61-.51-.82-.19-.15-.39-.21-.59-.19-.2,.03-.37,.13-.52,.32-.12,.15-.19,.3-.23,.46-.04,.16-.04,.38,0,.68,.02,.27,.03,.49,.04,.68,0,.19-.03,.37-.09,.53-.06,.16-.17,.34-.31,.52-.32,.41-.7,.65-1.12,.72-.42,.07-.84-.06-1.26-.39Z"/><path class="b" d="M564.39,109.53c-.28-.23-.4-.5-.38-.83,.02-.33,.2-.69,.52-1.08,.2-.24,.44-.49,.72-.75s.59-.49,.93-.71c.33-.22,.67-.39,1.01-.52,.34-.13,.66-.19,.97-.19,.31,0,.59,.11,.83,.31,.38,.31,.45,.72,.2,1.23l.02,.02,.63-.41,.54,.44-4.49,3.59-.5-.41,.55-.58h-.02c-.32,.09-.61,.14-.87,.13-.26,0-.48-.08-.67-.24Zm.66-.39c.18,.15,.4,.21,.65,.17,.25-.04,.51-.14,.79-.29,.28-.15,.54-.32,.8-.51,.28-.21,.52-.4,.72-.58,.2-.18,.38-.36,.53-.54,.17-.21,.26-.4,.27-.58,0-.18-.06-.32-.2-.44-.15-.12-.33-.17-.56-.15-.22,.02-.46,.09-.72,.21-.26,.12-.52,.27-.78,.46-.26,.19-.51,.39-.74,.6-.23,.21-.43,.41-.59,.61-.39,.47-.44,.82-.17,1.04Z"/><path class="b" d="M567.01,111.54l4.54-3.53,.51,.43-.57,.51,.02,.02c.61-.24,1.11-.19,1.5,.14,.22,.18,.35,.4,.39,.66,.04,.25-.06,.52-.3,.8-.09,.11-.22,.23-.36,.35-.15,.12-.29,.24-.44,.36l-2.92,2.27-.62-.52,2.82-2.2c.14-.1,.27-.22,.41-.33,.14-.12,.25-.23,.34-.33,.21-.25,.2-.47-.03-.67-.24-.2-.54-.24-.91-.11-.37,.13-.81,.39-1.33,.79l-2.44,1.9-.63-.53Z"/><path class="b" d="M571.43,115.44c-.26-.23-.37-.5-.34-.83s.22-.68,.55-1.06c.2-.23,.45-.47,.74-.72,.29-.25,.61-.48,.95-.69,.34-.21,.68-.38,1.03-.5,.34-.12,.67-.18,.98-.17,.31,.01,.58,.12,.8,.32,.18,.16,.3,.35,.34,.56,.04,.21,0,.43-.11,.65l.02,.02c.14-.11,.27-.23,.42-.33,.14-.11,.27-.21,.4-.31l1.62-1.23,.61,.53-6.51,4.91-.49-.43,.56-.54h-.02c-.33,.07-.62,.1-.87,.09-.25-.01-.47-.1-.67-.27Zm.68-.35c.17,.15,.38,.21,.63,.19s.52-.1,.8-.24c.28-.14,.56-.31,.84-.5s.53-.39,.75-.6c.23-.2,.4-.38,.53-.52,.35-.41,.38-.74,.09-1-.15-.13-.34-.18-.57-.17-.23,.02-.48,.09-.75,.21-.27,.12-.53,.27-.8,.45-.27,.18-.52,.37-.75,.58-.23,.21-.43,.4-.58,.58-.39,.46-.46,.8-.2,1.03Z"/><path class="b" d="M575.51,118.88l6.21-4.49,.62,.56-3.08,2.23,1.03-.27,3.37-.78,.68,.61-4.06,.96-2.09,3.59-.68-.61,1.8-2.99-.82,.05-2.35,1.7-.62-.56Z"/><path class="b" d="M578.81,121.87l4.7-3.32,.59,.55-4.7,3.32-.59-.55Zm5.81-3.58c-.2-.18-.2-.37-.01-.57,.12-.13,.28-.23,.46-.28,.18-.05,.35,0,.5,.13,.19,.18,.2,.36,.02,.55-.15,.16-.31,.26-.49,.3-.18,.04-.34,0-.47-.13Z"/><path class="b" d="M580.47,123.41l4.74-3.27,.48,.45-.6,.48,.02,.02c.62-.2,1.12-.12,1.49,.23,.21,.2,.33,.42,.35,.68,.02,.25-.09,.52-.35,.79-.1,.11-.23,.22-.38,.33-.15,.12-.3,.23-.46,.34l-3.04,2.1-.59-.56,2.94-2.04c.14-.1,.28-.2,.43-.31,.14-.11,.27-.21,.36-.31,.23-.24,.23-.46,.01-.67-.23-.22-.53-.27-.91-.16-.38,.11-.83,.34-1.37,.71l-2.54,1.76-.59-.56Z"/><path class="b" d="M584.46,127.35c-.18-.17-.32-.35-.43-.52-.12-.18-.19-.34-.22-.48l.58-.6c.02,.16,.08,.33,.17,.53,.1,.19,.21,.36,.35,.49,.2,.19,.41,.29,.64,.29,.23,0,.44-.11,.65-.33,.14-.15,.24-.3,.29-.46,.05-.17,.08-.42,.08-.76,0-.33,.03-.61,.09-.85,.07-.24,.21-.47,.42-.69,.31-.32,.68-.49,1.09-.52,.42-.02,.81,.14,1.16,.48,.19,.19,.34,.38,.45,.58,.11,.2,.18,.39,.21,.58l-.71,.22c-.05-.35-.19-.63-.42-.86-.18-.17-.36-.25-.56-.25-.2,0-.38,.09-.55,.27-.13,.14-.22,.28-.28,.43-.05,.15-.08,.38-.07,.68,0,.27-.02,.5-.03,.68s-.06,.36-.14,.52c-.08,.16-.2,.32-.36,.48-.36,.38-.76,.58-1.19,.6-.43,.02-.83-.15-1.21-.52Z"/><path class="b" d="M586.31,128.99l6.82-4.47,.57,.57-1.8,1.17c-.13,.08-.27,.17-.42,.26-.15,.09-.29,.17-.44,.25h.02c.6-.16,1.08-.06,1.45,.3,.21,.21,.32,.44,.31,.7,0,.25-.13,.5-.38,.75-.1,.1-.24,.22-.41,.34-.17,.12-.33,.24-.49,.34l-3.04,1.99-.57-.57,2.93-1.93c.16-.1,.31-.2,.47-.31,.15-.11,.28-.22,.39-.33,.23-.23,.24-.46,.02-.68-.2-.2-.48-.27-.84-.2-.35,.07-.81,.29-1.38,.65l-2.66,1.74-.57-.57Z"/><path class="b" d="M589.53,132.19l4.85-3.1,.57,.58-4.85,3.1-.57-.58Zm5.97-3.3c-.19-.19-.18-.38,.01-.57,.13-.13,.29-.21,.47-.26s.35,0,.49,.15c.18,.18,.18,.37,0,.55-.15,.15-.32,.24-.5,.28-.18,.03-.33-.02-.46-.15Z"/><path class="b" d="M589.01,135.14l6.99-4.38,.47,.48-.65,.49,.02,.02c.7-.15,1.22-.06,1.55,.29,.24,.25,.33,.53,.27,.84-.06,.32-.27,.66-.65,1.02-.23,.22-.51,.44-.82,.67-.31,.22-.65,.42-1.01,.6-.35,.18-.71,.31-1.06,.4-.35,.09-.68,.11-.99,.07-.3-.04-.56-.17-.78-.4-.17-.17-.25-.37-.26-.58-.01-.22,.05-.43,.18-.64l-.02-.02c-.15,.1-.29,.2-.44,.31s-.29,.19-.42,.27l-1.83,1.14-.55-.58Zm3.8-.46c.13,.14,.31,.21,.53,.21,.22,0,.47-.04,.75-.13,.27-.09,.55-.21,.83-.37,.28-.16,.55-.33,.81-.51,.26-.19,.48-.37,.67-.55,.44-.42,.53-.76,.29-1.02-.14-.15-.33-.22-.57-.22-.24,0-.5,.05-.79,.15-.29,.1-.58,.23-.87,.4-.29,.16-.56,.34-.81,.52-.25,.18-.46,.35-.63,.51-.41,.39-.48,.73-.2,1.01Z"/><path class="b" d="M595.71,138.59l6.58-3.93,.77,.83c.38,.41,.56,.82,.55,1.23,0,.41-.2,.79-.58,1.14-.3,.28-.63,.5-.98,.65-.35,.15-.69,.23-1.03,.23-.34,0-.64-.09-.91-.27l-1.97,2.74-.62-.67,1.92-2.55-.4-.43-2.75,1.65-.57-.62Zm3.96-1.4l.31,.34c.23,.25,.48,.38,.76,.41,.28,.03,.56-.02,.84-.14,.28-.12,.54-.29,.78-.51,.48-.45,.51-.91,.07-1.38l-.22-.24-2.54,1.52Z"/><path class="b" d="M599.9,143.31c-.31-.34-.44-.71-.39-1.1,.05-.39,.28-.77,.69-1.14,.42-.38,.86-.69,1.31-.93s.89-.41,1.32-.5c.43-.09,.82-.09,1.18-.02s.65,.25,.89,.51c.23,.25,.34,.52,.33,.81,0,.28-.15,.56-.44,.81-.46,.42-.99,.58-1.57,.48-.58-.1-1.15-.45-1.7-1.06l-.05-.05c-.25,.15-.47,.31-.66,.49-.29,.26-.46,.51-.5,.74-.04,.23,.04,.45,.23,.66,.13,.14,.26,.25,.41,.34,.15,.08,.33,.16,.55,.24l-.51,.46c-.21-.06-.4-.15-.58-.27-.18-.13-.35-.28-.51-.45Zm2.12-2.53l.02,.02c.42,.46,.81,.71,1.18,.76,.37,.04,.71-.08,1.02-.35,.12-.11,.19-.22,.21-.34,.02-.12-.03-.24-.14-.37-.18-.2-.49-.27-.91-.21-.42,.06-.88,.22-1.38,.5Z"/><path class="b" d="M601.66,145.13l7.11-4,.54,.61-7.11,4.01-.54-.61Z"/><path class="b" d="M603.96,147.9c-.23-.27-.31-.57-.23-.88,.08-.32,.31-.64,.69-.97,.24-.21,.52-.41,.84-.62,.32-.2,.67-.39,1.03-.55,.37-.16,.73-.27,1.08-.34,.35-.07,.69-.08,.99-.02,.3,.06,.56,.21,.77,.45,.32,.37,.32,.79,0,1.24l.02,.02,.69-.29,.45,.52-5.04,2.77-.43-.49,.65-.47v-.02c-.34,.05-.64,.04-.89,0-.26-.05-.46-.17-.62-.35Zm.71-.27c.16,.18,.36,.27,.61,.28,.25,0,.53-.05,.83-.15,.3-.1,.59-.22,.88-.37,.31-.16,.58-.31,.81-.45,.23-.14,.43-.29,.61-.45,.2-.17,.32-.35,.36-.52,.04-.17,0-.33-.12-.47-.12-.14-.3-.22-.52-.24-.23-.02-.47,0-.75,.08-.27,.07-.56,.18-.85,.32-.29,.14-.57,.29-.83,.46-.26,.17-.49,.34-.69,.5-.46,.4-.58,.73-.35,.99Z"/><path class="b" d="M606.81,151.23c-.19-.22-.26-.43-.21-.64,.04-.21,.18-.41,.4-.6,.15-.13,.37-.27,.63-.41l3.02-1.61-.33-.38,.41-.23,.55,.31,1.28-.49,.38,.45-1.16,.62,.51,.61-.62,.33-.51-.61-3.07,1.64c-.09,.05-.18,.1-.27,.15-.09,.05-.16,.1-.21,.14-.18,.15-.2,.31-.07,.47,.04,.05,.09,.1,.16,.15,.07,.05,.14,.1,.21,.14l-.5,.43c-.11-.06-.23-.13-.34-.22-.11-.09-.2-.18-.28-.26Z"/><path class="b" d="M607.95,152.42l5.09-2.68,.52,.62-5.09,2.68-.52-.62Zm6.23-2.79c-.17-.2-.15-.39,.06-.57,.14-.12,.3-.19,.49-.22,.19-.03,.34,.04,.47,.19,.17,.2,.15,.38-.05,.55-.17,.14-.34,.22-.53,.23-.18,.02-.33-.05-.45-.19Z"/><path class="b" d="M610.32,155.45c-.27-.33-.37-.68-.29-1.04,.08-.37,.33-.72,.76-1.07,.22-.18,.49-.37,.8-.55,.31-.19,.65-.35,1.01-.49,.36-.14,.72-.24,1.08-.29,.36-.05,.7-.04,1.02,.05,.32,.09,.59,.27,.82,.55,.26,.33,.36,.67,.27,1.04-.08,.37-.34,.73-.77,1.08-.27,.22-.57,.42-.9,.61-.34,.19-.68,.35-1.04,.48-.35,.13-.71,.21-1.05,.25-.35,.03-.67,0-.96-.09-.3-.09-.55-.27-.76-.52Zm.61-.38c.12,.15,.29,.23,.5,.26,.22,.03,.46,0,.73-.06,.27-.07,.55-.16,.84-.29,.29-.12,.56-.27,.83-.43,.27-.16,.5-.32,.7-.49,.24-.2,.4-.39,.47-.58,.07-.19,.04-.36-.08-.52-.13-.16-.31-.25-.54-.27-.23-.02-.48,0-.77,.08-.28,.08-.57,.18-.85,.32-.29,.13-.56,.28-.81,.44-.25,.16-.47,.31-.64,.45-.5,.41-.63,.77-.37,1.09Z"/><path class="b" d="M612.22,157.62l5.16-2.55,.41,.52-.66,.39,.02,.02c.65-.11,1.13,.04,1.44,.44,.18,.23,.26,.47,.25,.72-.01,.26-.16,.5-.46,.73-.12,.09-.26,.18-.43,.28-.17,.09-.33,.18-.5,.27l-3.31,1.64-.5-.63,3.2-1.59c.15-.08,.31-.16,.47-.24,.16-.09,.29-.17,.4-.26,.26-.2,.29-.42,.11-.66-.2-.25-.49-.34-.87-.29-.39,.05-.88,.22-1.46,.51l-2.77,1.37-.51-.64Z"/><path class="b" d="M615.6,162.1c-.15-.19-.27-.39-.36-.58-.09-.19-.14-.36-.15-.5l.66-.51c0,.16,.03,.34,.1,.55,.07,.21,.16,.38,.27,.53,.17,.22,.37,.35,.59,.38,.22,.03,.45-.04,.69-.23,.16-.12,.28-.26,.35-.42,.07-.16,.14-.4,.19-.74,.04-.32,.11-.6,.22-.83,.1-.23,.27-.44,.51-.62,.36-.27,.74-.39,1.16-.36,.42,.04,.78,.25,1.08,.65,.16,.21,.28,.42,.36,.63,.08,.21,.12,.41,.13,.6l-.73,.11c0-.35-.09-.65-.29-.91-.15-.19-.32-.3-.52-.33-.2-.02-.39,.04-.58,.18-.15,.12-.26,.25-.33,.39-.07,.15-.13,.37-.17,.66-.04,.26-.09,.49-.13,.67-.04,.18-.12,.35-.22,.49-.1,.14-.24,.29-.43,.43-.42,.32-.84,.46-1.26,.42-.43-.04-.8-.27-1.13-.69Z"/><path class="b" d="M617.21,164.02l7.4-3.44,.48,.65-1.95,.9c-.14,.06-.3,.13-.46,.2-.16,.07-.32,.13-.47,.18v.02c.63-.09,1.09,.08,1.4,.49,.18,.24,.25,.49,.21,.73-.04,.25-.2,.48-.48,.69-.12,.09-.27,.18-.46,.28-.19,.1-.36,.19-.53,.27l-3.29,1.53-.49-.65,3.18-1.48c.17-.08,.34-.16,.51-.24,.17-.09,.31-.18,.44-.27,.26-.2,.3-.42,.12-.67-.17-.23-.44-.34-.8-.32-.36,.02-.84,.17-1.45,.45l-2.88,1.34-.48-.65Z"/><path class="b" d="M619.93,167.65l5.24-2.37,.48,.65-5.24,2.37-.48-.65Zm6.38-2.41c-.16-.21-.13-.4,.09-.56,.15-.11,.31-.17,.5-.19,.19-.02,.34,.06,.46,.22,.15,.21,.13,.39-.08,.54-.18,.13-.35,.19-.54,.2-.18,0-.33-.07-.44-.21Z"/><path class="b" d="M618.99,170.48l7.55-3.33,.39,.54-.72,.39,.02,.03c.71-.05,1.21,.12,1.49,.51,.2,.28,.25,.57,.15,.88-.1,.3-.36,.61-.79,.92-.26,.19-.56,.37-.91,.54-.34,.17-.71,.32-1.08,.45-.38,.12-.75,.2-1.11,.24-.36,.04-.69,.01-.99-.07-.29-.08-.53-.25-.71-.5-.14-.19-.2-.4-.18-.62,.02-.22,.11-.42,.27-.6l-.02-.03c-.16,.08-.32,.16-.48,.24-.16,.08-.31,.15-.45,.21l-1.98,.87-.47-.65Zm3.83,.09c.11,.15,.28,.25,.5,.28s.47,.03,.75-.02c.28-.05,.58-.13,.88-.24,.3-.11,.59-.24,.88-.39,.28-.15,.53-.29,.74-.45,.49-.36,.64-.68,.43-.97-.12-.17-.3-.27-.53-.3-.24-.04-.5-.02-.8,.04-.3,.06-.6,.15-.91,.27-.31,.12-.6,.25-.88,.39-.28,.14-.51,.28-.7,.42-.46,.33-.58,.66-.35,.97Z"/><path class="b" d="M624.46,174.11c-.14-.2-.25-.4-.33-.6-.08-.2-.12-.37-.12-.51l.68-.48c0,.16,.02,.34,.07,.55,.06,.21,.14,.39,.25,.55,.16,.23,.35,.36,.57,.41,.22,.04,.46-.02,.7-.2,.17-.12,.29-.25,.37-.4,.08-.15,.15-.4,.22-.73,.06-.32,.14-.59,.25-.82,.11-.22,.29-.42,.54-.6,.37-.26,.76-.36,1.17-.3,.42,.06,.77,.29,1.05,.7,.15,.22,.26,.43,.33,.65,.07,.22,.1,.42,.1,.61l-.74,.08c.02-.35-.06-.66-.25-.93-.14-.2-.31-.32-.51-.35-.2-.03-.39,.02-.59,.16-.15,.11-.27,.23-.35,.38-.08,.14-.15,.36-.2,.65-.06,.26-.11,.48-.16,.66-.05,.18-.13,.34-.24,.48-.11,.14-.26,.28-.45,.41-.43,.3-.86,.42-1.28,.37-.43-.06-.79-.3-1.09-.74Z"/><path class="b" d="M624.18,176.42c.79,.06,1.58,.04,2.36-.07s1.55-.3,2.28-.57c.74-.27,1.42-.62,2.05-1.05,.25-.17,.5-.36,.75-.57s.49-.43,.71-.66c.22-.23,.4-.45,.54-.67l.39,.56c-.21,.36-.49,.72-.84,1.07-.35,.35-.72,.66-1.12,.93-.65,.45-1.36,.81-2.11,1.09-.75,.28-1.52,.46-2.31,.56-.79,.1-1.56,.09-2.31-.02l-.4-.58Z"/></g></svg>