<?xml version="1.0" encoding="UTF-8"?><svg id="a" xmlns="http://www.w3.org/2000/svg" viewBox="0 0 720 720"><defs><style>.b{fill:#008cbb;}.c{fill:#fff;}.d{fill:#1b639e;}</style></defs><g><path class="d" d="M399.16,320.84c-21.63-21.63-56.69-21.63-78.31,0l39.16,39.16,39.16-39.16Z"/><path class="b" d="M320.84,320.84c-21.63,21.63-21.63,56.69,0,78.31l39.16-39.16-39.16-39.16Z"/><path class="d" d="M320.84,399.16c21.63,21.63,56.69,21.63,78.31,0l-39.16-39.16-39.16,39.16Z"/><path class="b" d="M399.16,399.16c21.63-21.63,21.63-56.69,0-78.31l-39.16,39.16,39.16,39.16Z"/></g><g><g><path class="c" d="M325.67,378.6l-5.74,5.04,.02,.05c.39-.24,.76-.44,1.09-.62,.33-.18,.62-.33,.86-.45l4.62-2.28,.79,1.61-8.96,4.42-1.17-2.37,5.32-4.69-.02-.04-6.96,1.37-1.17-2.36,8.96-4.42,.81,1.64-4.63,2.29c-.28,.14-.58,.28-.91,.42-.33,.15-.69,.3-1.1,.47l.03,.05,7.48-1.48,.66,1.34Z"/><path class="c" d="M314.92,372.01c-.21-.83-.07-1.55,.42-2.15,.49-.6,1.25-1.03,2.27-1.29l.99-.25,.9,3.54c.65-.17,1.1-.42,1.35-.72,.25-.31,.31-.7,.2-1.17-.08-.31-.19-.59-.35-.86-.15-.26-.37-.53-.65-.8l1.47-.37c.49,.49,.83,1.13,1.03,1.91,.26,1.02,.11,1.85-.46,2.48-.56,.63-1.43,1.09-2.61,1.39-1.25,.32-2.27,.33-3.05,.05-.78-.28-1.29-.87-1.51-1.75Zm1.37-.39c.07,.29,.26,.49,.57,.6,.31,.11,.76,.09,1.36-.05l-.48-1.89c-.52,.13-.92,.32-1.18,.55-.26,.23-.35,.5-.28,.79Z"/><path class="c" d="M313.66,364.58c-.07-.74,.11-1.33,.53-1.76,.42-.43,1.08-.68,1.98-.76l5.05-.46,.12,1.33-.99,.38v.04c.42,.2,.73,.43,.94,.69,.22,.27,.34,.62,.38,1.07,.04,.43-.04,.78-.25,1.06s-.48,.49-.83,.64c-.35,.15-.73,.25-1.14,.29-.79,.07-1.41-.09-1.86-.49-.45-.4-.73-1.01-.84-1.82l-.13-.94-.31,.03c-.83,.08-1.22,.39-1.17,.95,.04,.45,.26,.95,.67,1.51l-1.31,.62c-.49-.66-.78-1.45-.86-2.38Zm4.18-.84l.08,.51c.11,.76,.53,1.1,1.29,1.04,.68-.06,1-.32,.96-.78-.03-.29-.19-.51-.48-.67-.3-.16-.68-.21-1.14-.17l-.7,.06Z"/><path class="c" d="M313.67,356.27c.05-.64,.32-1.12,.81-1.43,.49-.31,1.18-.44,2.06-.37l5.05,.38-.14,1.81-4.52-.34c-.54-.04-.95-.01-1.23,.08-.28,.09-.44,.29-.46,.58-.03,.38,.14,.66,.51,.85,.37,.18,1,.31,1.9,.37l3.67,.27-.14,1.81-7.64-.57,.11-1.44,.99-.12v-.11c-.71-.4-1.04-.99-.98-1.77Z"/><path class="c" d="M311.64,350.43c.13-.65,.54-.9,1.23-.76,.67,.14,.93,.53,.8,1.18-.13,.65-.53,.91-1.2,.77-.69-.14-.96-.54-.83-1.18Zm3.13-.29l7.5,1.54-.37,1.78-7.5-1.54,.37-1.78Z"/><path class="c" d="M316.28,344.5c.21-.61,.59-1,1.15-1.18s1.25-.12,2.09,.16l4.79,1.65-.59,1.72-4.29-1.47c-.51-.18-.92-.26-1.21-.24-.3,.02-.49,.17-.59,.45-.12,.36-.03,.68,.27,.95,.31,.27,.89,.55,1.75,.84l3.48,1.2-.59,1.72-7.24-2.49,.47-1.36,.99,.13,.04-.11c-.59-.57-.76-1.22-.51-1.97Z"/><path class="c" d="M318.97,338.42c.18-.32,.4-.55,.67-.69,.27-.14,.63-.2,1.09-.18l.05-.1-.78-.61,.76-1.37,6.36,3.51c1.05,.58,1.74,1.26,2.06,2.02,.32,.77,.2,1.65-.36,2.66-.38,.69-.87,1.22-1.47,1.57l-1.41-.78c.36-.23,.66-.47,.9-.71,.24-.25,.43-.51,.59-.79,.23-.42,.31-.8,.23-1.14-.08-.35-.36-.66-.86-.93l-.12-.07c-.14-.08-.29-.17-.47-.28s-.33-.22-.48-.32l-.03,.06c.25,.37,.4,.72,.43,1.04s-.04,.65-.22,.99c-.33,.6-.9,.91-1.69,.93s-1.73-.28-2.82-.88c-1.11-.61-1.88-1.27-2.3-1.96s-.46-1.35-.12-1.97Zm1.64,.3c-.31,.56,.26,1.23,1.7,2.02,.69,.38,1.25,.59,1.65,.63s.69-.09,.85-.37c.17-.31,.15-.63-.06-.95-.21-.32-.63-.65-1.25-.99l-.33-.18c-.71-.39-1.27-.6-1.67-.63-.4-.02-.7,.13-.88,.47Z"/></g><g><path class="c" d="M403.64,337.68c.45,.91,.55,1.71,.29,2.38s-.83,1.24-1.74,1.68c-.9,.45-1.74,.58-2.52,.4-.78-.18-1.4-.74-1.86-1.69l-.23-.48-3.18,1.57-.85-1.72,8.96-4.42,1.12,2.27Zm-1.53,.6l-.21-.43-2.85,1.41,.15,.3c.2,.41,.47,.66,.81,.75,.34,.09,.78,0,1.34-.27,.46-.23,.75-.48,.87-.77,.12-.29,.08-.62-.1-1Z"/><path class="c" d="M405.21,348.74l-7.34,2.17-.41-1.37,.88-.48-.03-.09c-.82-.13-1.33-.56-1.55-1.31-.19-.65-.1-1.21,.28-1.67,.38-.46,.99-.82,1.83-1.07l4.79-1.42,.52,1.75-4.27,1.26c-.55,.16-.94,.34-1.19,.53s-.33,.41-.26,.66c.13,.44,.4,.67,.82,.68s.98-.08,1.68-.28l3.73-1.1,.52,1.74Z"/><path class="c" d="M406.28,354.48c.03,.18,.02,.4,0,.64l-1.95,.11c.04-.17,.04-.39,0-.65-.06-.42-.28-.72-.66-.9-.38-.17-.86-.22-1.45-.13l-3.87,.55-.26-1.8,7.58-1.08,.2,1.39-1.21,.44v.08c.39,.1,.74,.26,1.06,.48,.32,.22,.5,.51,.56,.88Z"/><path class="c" d="M406.51,360.37c0,.72-.35,1.27-1.05,1.66-.7,.39-1.68,.58-2.95,.58-1.23,0-2.2-.2-2.9-.6-.7-.39-1.05-.93-1.04-1.61,0-.35,.09-.66,.28-.95,.19-.29,.48-.53,.87-.72v-.07c-.3,.02-.55,.03-.77,.04s-.39,.01-.53,.01h-3.06v-1.83l11.02,.03v1.47l-1.01,.26v.1c.45,.23,.75,.48,.91,.73,.16,.25,.24,.55,.23,.9Zm-1.54-.58c0-.37-.18-.64-.53-.81-.35-.17-.92-.25-1.71-.26h-.38c-.77,0-1.32,.08-1.67,.25-.35,.17-.53,.44-.53,.8,0,.65,.78,.98,2.35,.99,1.64,0,2.46-.32,2.47-.97Z"/><path class="c" d="M401.44,369.73c-.7-.12-1.33-.33-1.9-.62s-.99-.68-1.28-1.17c-.29-.48-.37-1.08-.25-1.78,.11-.65,.39-1.16,.82-1.52s.96-.59,1.6-.69c.63-.1,1.3-.09,2.01,.04,.76,.13,1.42,.35,1.97,.65,.55,.3,.95,.69,1.21,1.17,.26,.49,.33,1.06,.21,1.73-.15,.87-.6,1.51-1.36,1.91-.76,.4-1.76,.49-3.02,.27Zm.65-3.92c-.78-.13-1.39-.15-1.82-.06-.43,.1-.68,.33-.75,.7-.06,.37,.09,.67,.46,.9,.37,.23,.96,.41,1.77,.55,.79,.14,1.4,.16,1.82,.07s.67-.32,.73-.69c.06-.37-.09-.67-.45-.9s-.95-.42-1.77-.56Z"/><path class="c" d="M398.14,374.7c-.73-.24-1.23-.63-1.48-1.17-.25-.54-.25-1.17-.01-1.9,.24-.72,.58-1.31,1.04-1.76l1.67,.55c-.24,.18-.46,.4-.68,.67-.22,.27-.38,.56-.48,.87-.17,.51-.03,.83,.42,.98,.18,.06,.36,.05,.56-.03,.2-.08,.49-.31,.89-.7,.4-.37,.81-.62,1.25-.75,.44-.13,.92-.11,1.44,.06,.64,.21,1.07,.58,1.31,1.1,.23,.52,.24,1.13,0,1.82-.12,.35-.28,.67-.48,.95-.2,.28-.44,.54-.73,.79l-1.17-.92c.21-.16,.4-.34,.57-.53,.17-.2,.29-.42,.37-.66,.14-.43,.03-.71-.36-.84-.12-.04-.24-.05-.35-.03-.11,.02-.25,.09-.41,.21-.16,.11-.38,.29-.66,.53-.4,.36-.82,.62-1.25,.79-.43,.17-.92,.16-1.48-.03Z"/><path class="c" d="M401.52,380.58c-.38,.77-.96,1.22-1.72,1.35-.77,.13-1.62-.03-2.56-.51l-.91-.46,1.63-3.27c-.61-.29-1.1-.4-1.49-.33s-.69,.32-.91,.76c-.14,.28-.24,.58-.3,.88s-.06,.64-.03,1.03l-1.35-.68c-.05-.69,.1-1.4,.46-2.12,.47-.94,1.12-1.47,1.96-1.58,.84-.11,1.8,.11,2.88,.65,1.15,.57,1.93,1.23,2.34,1.95,.41,.73,.41,1.5,0,2.32Zm-1.3-.6c.13-.27,.12-.54-.04-.83-.16-.28-.51-.57-1.06-.85l-.87,1.74c.48,.24,.9,.36,1.25,.35,.35,0,.59-.15,.72-.41Z"/></g><g><path class="c" d="M336.87,389.93l2.16,1.5c1.69,1.17,2.07,2.43,1.13,3.78-.33,.48-.71,.82-1.13,1.01s-.83,.21-1.24,.06l-.04,.06c.35,.42,.52,.87,.5,1.32-.02,.46-.21,.95-.57,1.47-.5,.73-1.12,1.16-1.85,1.29-.73,.13-1.47-.06-2.23-.59l-2.42-1.67,5.69-8.22Zm-1.59,5.67l-1.6,2.31,.71,.5c.63,.43,1.22,.26,1.76-.53,.25-.36,.36-.7,.32-1.01-.04-.32-.22-.58-.54-.81l-.66-.45Zm.87-1.25l.59,.41c.63,.44,1.19,.29,1.69-.43,.44-.64,.34-1.18-.31-1.62l-.56-.39-1.41,2.04Z"/><path class="c" d="M343.82,396.71c.78,.36,1.25,.92,1.4,1.69,.15,.76,.01,1.62-.43,2.58l-.43,.93-3.31-1.54c-.28,.61-.37,1.11-.29,1.5,.08,.39,.34,.68,.78,.89,.29,.13,.58,.22,.88,.27,.3,.05,.64,.05,1.03,0l-.64,1.37c-.69,.07-1.4-.07-2.13-.4-.96-.45-1.5-1.08-1.63-1.92-.13-.83,.06-1.8,.57-2.9,.54-1.17,1.17-1.97,1.89-2.4,.71-.43,1.49-.45,2.32-.07Zm-.56,1.31c-.27-.12-.55-.1-.82,.07-.28,.17-.55,.53-.82,1.08l1.76,.82c.23-.49,.33-.91,.31-1.26-.02-.35-.16-.58-.43-.71Z"/><path class="c" d="M346.73,406.14l-1.73-.56,3.27-10.12,1.73,.56-3.28,10.12Z"/><path class="c" d="M355.25,404.1c-.13,.7-.35,1.33-.65,1.89-.3,.56-.7,.98-1.19,1.26-.49,.28-1.08,.36-1.78,.23-.65-.12-1.15-.4-1.51-.84-.35-.44-.58-.97-.67-1.61-.09-.63-.07-1.3,.07-2.01,.14-.76,.37-1.41,.68-1.96,.31-.54,.7-.94,1.19-1.19,.49-.25,1.07-.31,1.74-.18,.87,.16,1.5,.63,1.89,1.39,.39,.76,.46,1.77,.23,3.03Zm-3.91-.71c-.15,.78-.18,1.39-.09,1.82,.09,.44,.32,.69,.68,.76,.37,.07,.67-.08,.9-.45,.24-.37,.43-.96,.58-1.76,.15-.79,.18-1.4,.1-1.82-.09-.43-.31-.67-.68-.74-.37-.07-.67,.08-.91,.43-.24,.36-.44,.95-.59,1.76Z"/><path class="c" d="M360.6,400.38c.64,.01,1.14,.25,1.48,.73,.34,.47,.5,1.15,.49,2.04l-.09,5.07-1.82-.03,.08-4.54c0-.54-.04-.95-.15-1.23-.11-.28-.31-.42-.61-.42-.38,0-.65,.18-.81,.55-.16,.38-.25,1.01-.26,1.92l-.06,3.68-1.82-.03,.13-7.66,1.44,.02,.18,.98h.11c.36-.74,.93-1.1,1.71-1.09Z"/><path class="c" d="M366,400.01c.36-.06,.68-.02,.95,.11,.27,.13,.54,.38,.81,.75l.11-.02v-.99l1.55-.24,1.11,7.18c.18,1.19,.07,2.14-.34,2.86-.41,.72-1.19,1.17-2.32,1.34-.78,.12-1.5,.05-2.14-.21l-.25-1.59c.4,.15,.77,.24,1.11,.27,.34,.04,.67,.03,.98-.02,.47-.07,.82-.25,1.05-.52,.23-.27,.3-.69,.21-1.25l-.02-.14c-.02-.16-.04-.34-.06-.54s-.03-.4-.04-.57h-.07c-.14,.44-.33,.77-.56,.99-.23,.22-.54,.37-.92,.42-.68,.11-1.27-.15-1.76-.77-.49-.62-.83-1.54-1.02-2.77-.19-1.25-.15-2.26,.14-3.02,.29-.76,.78-1.19,1.48-1.3Zm.77,1.48c-.63,.1-.81,.96-.56,2.58,.12,.78,.29,1.35,.51,1.69,.22,.34,.49,.49,.81,.44,.35-.05,.59-.26,.71-.63,.12-.36,.13-.89,.02-1.6l-.06-.37c-.12-.8-.3-1.37-.53-1.7-.23-.33-.53-.47-.91-.41Z"/><path class="c" d="M370.93,396.04c.64-.19,1.05,.06,1.25,.73,.19,.65-.03,1.08-.67,1.26-.64,.18-1.05-.05-1.24-.7-.19-.67,.03-1.1,.66-1.29Zm1.71,2.64l2.14,7.36-1.75,.51-2.13-7.35,1.75-.51Z"/><path class="c" d="M377.21,396.76c.59-.26,1.14-.24,1.65,.04,.51,.29,.94,.84,1.29,1.65l2.03,4.64-1.67,.73-1.82-4.16c-.22-.5-.43-.85-.64-1.06-.21-.21-.46-.25-.73-.13-.35,.15-.52,.43-.51,.84,0,.41,.2,1.03,.56,1.86l1.47,3.37-1.67,.73-3.07-7.02,1.32-.58,.57,.82,.1-.04c.02-.82,.38-1.39,1.1-1.71Z"/><path class="c" d="M381.97,394.17c.3-.2,.61-.3,.91-.3s.65,.12,1.05,.34l.09-.06-.41-.9,1.31-.87,4.02,6.05c.67,1,.96,1.92,.89,2.75-.07,.83-.59,1.56-1.54,2.19-.66,.44-1.34,.67-2.03,.71l-.89-1.34c.42-.04,.8-.11,1.12-.22s.62-.25,.88-.43c.4-.26,.64-.57,.73-.91s-.02-.75-.33-1.22l-.08-.12c-.09-.13-.18-.29-.28-.47-.1-.18-.19-.35-.28-.51l-.06,.04c.05,.45,.02,.82-.1,1.12-.12,.3-.34,.56-.66,.77-.58,.38-1.22,.39-1.92,.04-.71-.36-1.4-1.05-2.09-2.08-.7-1.06-1.08-1.99-1.14-2.8s.21-1.41,.8-1.8Zm1.32,1.02c-.53,.35-.34,1.21,.57,2.58,.44,.66,.83,1.1,1.17,1.32,.34,.22,.65,.24,.92,.06,.29-.2,.42-.48,.38-.87s-.26-.87-.65-1.46l-.21-.31c-.45-.68-.85-1.12-1.19-1.33-.35-.21-.68-.21-1,0Z"/></g><g><path class="c" d="M353.99,321.65l-1.86,.47-1.07-4.24-2.4,.61,1.07,4.24-1.86,.47-2.44-9.69,1.86-.47,.97,3.84,2.4-.61-.97-3.84,1.86-.47,2.44,9.69Z"/><path class="c" d="M360.63,317.28c.05,.71,0,1.37-.16,1.99-.15,.62-.43,1.12-.83,1.52-.4,.4-.96,.62-1.67,.66-.66,.04-1.22-.1-1.67-.44s-.8-.8-1.05-1.39c-.24-.59-.39-1.25-.44-1.96-.05-.77,0-1.46,.17-2.07,.16-.6,.45-1.09,.86-1.45,.41-.36,.96-.57,1.64-.61,.88-.06,1.61,.23,2.18,.87,.57,.64,.89,1.6,.97,2.88Zm-3.97,.29c.05,.79,.17,1.39,.37,1.79,.19,.4,.48,.59,.85,.56,.37-.02,.63-.24,.76-.66,.14-.42,.18-1.03,.12-1.85-.05-.8-.17-1.4-.36-1.79-.19-.39-.47-.57-.84-.55-.37,.02-.63,.24-.77,.65-.14,.41-.19,1.02-.13,1.85Z"/><path class="c" d="M366.17,313.75c.71,.07,1.23,.48,1.55,1.21,.32,.73,.41,1.73,.28,2.99-.13,1.23-.42,2.17-.88,2.82-.46,.66-1.03,.95-1.71,.88-.34-.04-.65-.16-.92-.38-.27-.22-.48-.53-.63-.94h-.07c-.01,.29-.03,.55-.04,.76-.01,.21-.03,.39-.04,.53l-.31,3.05-1.81-.19,1.13-10.96,1.46,.15,.16,1.03h.1c.28-.41,.55-.69,.82-.82,.27-.13,.57-.18,.92-.15Zm-.73,1.47c-.37-.04-.66,.11-.86,.45s-.35,.89-.43,1.67l-.04,.38c-.08,.76-.05,1.32,.09,1.69s.38,.57,.75,.6c.65,.07,1.06-.68,1.22-2.24,.17-1.63-.07-2.48-.72-2.55Z"/><path class="c" d="M373.08,315.13c.83,.23,1.38,.7,1.66,1.43,.28,.73,.28,1.6,0,2.61l-.27,.99-3.52-.96c-.17,.65-.18,1.16-.03,1.53,.15,.37,.45,.62,.92,.75,.31,.08,.61,.12,.92,.12,.31,0,.64-.06,1.01-.17l-.4,1.46c-.67,.19-1.39,.17-2.17-.04-1.02-.28-1.66-.82-1.93-1.62-.27-.8-.25-1.78,.07-2.96,.34-1.24,.82-2.14,1.46-2.68,.63-.54,1.39-.69,2.27-.45Zm-.33,1.39c-.29-.08-.56-.01-.8,.2s-.46,.62-.63,1.21l1.88,.51c.14-.52,.18-.95,.1-1.29-.08-.34-.26-.55-.55-.63Z"/></g></g></svg>