<?xml version="1.0" encoding="UTF-8"?><svg id="a" xmlns="http://www.w3.org/2000/svg" viewBox="0 0 720 720"><defs><style>.b{fill:#fff;}.c{fill:#552216;}.d{opacity:.41;}</style></defs><g class="d"><path class="c" d="M146.34,626.45c-3.36,0-6.73-1.16-9.47-3.52-36.71-31.68-67.17-71.74-88.09-115.85-22.11-46.62-33.32-96.02-33.32-146.8s13.75-106.55,38.72-156.84c3.56-7.17,12.26-10.1,19.44-6.54,7.17,3.56,10.1,12.26,6.54,19.44-23.02,46.37-35.69,97.49-35.69,143.95s10.27,91.67,30.53,134.38c19.21,40.49,47.16,77.26,80.84,106.32,6.06,5.23,6.74,14.39,1.5,20.45-2.87,3.32-6.91,5.03-10.98,5.03Z"/></g><g class="d"><path class="c" d="M359.63,704.44c-68.82,0-135.24-20.25-192.09-58.55-6.64-4.47-8.4-13.49-3.92-20.13,4.48-6.64,13.49-8.4,20.13-3.92,52.04,35.07,112.86,53.6,175.89,53.6s122.27-18.74,174.58-52.75c6.71-4.37,15.69-2.46,20.06,4.25,4.37,6.71,2.46,15.7-4.25,20.06-56.96,37.04-124.58,57.44-190.39,57.44Z"/></g><g class="d"><path class="c" d="M573.36,625.93c-4.08,0-8.14-1.71-11-5.05-5.22-6.07-4.53-15.23,1.55-20.45,49.93-42.9,87.5-104.42,103.07-168.78,1.88-7.78,9.72-12.57,17.5-10.68,7.78,1.88,12.57,9.72,10.68,17.5-16.97,70.13-57.92,137.18-112.36,183.96-2.74,2.35-6.1,3.5-9.44,3.5Z"/></g><g class="d"><path class="c" d="M687.59,408.68c-.49,0-.99-.02-1.49-.08-7.97-.81-13.77-7.93-12.95-15.9,1.09-10.7,1.65-21.61,1.65-32.43,0-53.66-13.51-108.07-38.03-153.22-3.82-7.04-1.22-15.84,5.82-19.66,7.04-3.82,15.84-1.22,19.66,5.82,26.79,49.32,41.55,108.65,41.55,167.06,0,11.8-.6,23.71-1.8,35.38-.76,7.46-7.06,13.03-14.41,13.03Z"/></g><g><path class="b" d="M59.55,209.71l3.27-6.43,1.72,.87,1.89,3.71c.4,.8,.75,1.42,1.05,1.89,.3,.46,.58,.81,.84,1.04,.26,.24,.55,.43,.86,.59,.36,.19,.7,.25,1,.18,.3-.06,.54-.26,.71-.61,.15-.29,.21-.61,.17-.96s-.18-.8-.45-1.36l2.18-.36c.36,.8,.54,1.51,.54,2.14,0,.62-.17,1.26-.49,1.9-.31,.61-.72,1.08-1.22,1.42s-1.06,.52-1.67,.56c-.61,.04-1.23-.11-1.86-.43-.47-.24-.9-.53-1.28-.87-.38-.34-.75-.78-1.11-1.32-.35-.54-.71-1.23-1.08-2.07l-1.09-2.35-.08-.04-1.82,3.58-2.1-1.07Z"/><path class="b" d="M59.79,212.32c.94,.46,1.19,1.14,.74,2.06-.21,.43-.49,.7-.85,.82-.36,.11-.76,.06-1.21-.16s-.74-.51-.87-.86c-.13-.36-.09-.74,.12-1.16,.2-.42,.49-.7,.85-.83,.36-.13,.77-.09,1.23,.14Z"/><path class="b" d="M62.64,228.19c.28-.62,.13-1.26-.44-1.9-.58-.64-1.45-1.22-2.62-1.75-1.26-.56-2.29-.82-3.09-.76-.8,.05-1.35,.41-1.64,1.07-.16,.36-.25,.74-.27,1.14-.02,.4-.01,.81,.02,1.23l-2.23-1c-.09-.89,.08-1.81,.5-2.74,.61-1.36,1.6-2.17,2.96-2.43,1.37-.26,3.01,.04,4.94,.9,1.18,.53,2.15,1.17,2.91,1.92s1.25,1.55,1.48,2.43c.23,.87,.14,1.76-.26,2.65-.44,.99-1.11,1.79-2.01,2.42l-1.74-1.61c.34-.2,.64-.43,.89-.67,.26-.25,.46-.55,.62-.9Z"/><path class="b" d="M52.9,236.52c-.61-.25-1.17-.56-1.69-.93-.52-.37-.94-.78-1.28-1.24-.33-.46-.53-.98-.6-1.56-.07-.57,.04-1.19,.32-1.86,.34-.82,.84-1.4,1.51-1.74,.66-.34,1.41-.49,2.24-.44,.83,.05,1.66,.24,2.49,.59,.91,.38,1.67,.84,2.27,1.38,.6,.54,1,1.17,1.19,1.86,.19,.7,.11,1.47-.25,2.32-.45,1.08-1.22,1.77-2.31,2.08-1.09,.31-2.39,.15-3.9-.47Zm1.94-4.75c-1.79-.75-2.85-.74-3.17,.03-.17,.42-.07,.81,.31,1.17,.38,.36,1.03,.73,1.94,1.11,.91,.38,1.62,.57,2.13,.59,.51,.01,.86-.19,1.04-.61,.17-.4,.07-.78-.3-1.15-.37-.37-1.02-.74-1.95-1.13Z"/><path class="b" d="M53.75,248.6c-.61,1.61-2.03,1.99-4.28,1.14l-6.06-2.28,.92-2.44,5.31,2c1.3,.49,2.06,.46,2.26-.09,.16-.42,.04-.78-.34-1.1-.38-.32-1.03-.65-1.95-1l-4.57-1.72,.93-2.46,5.32,2c1.29,.49,2.04,.46,2.24-.08,.16-.42,.02-.79-.41-1.13-.43-.34-1.14-.7-2.14-1.08l-4.3-1.62,.92-2.44,9.27,3.49-.72,1.92-1.26-.17-.06,.15c.75,.7,.92,1.6,.51,2.69-.2,.54-.48,.92-.84,1.14-.36,.22-.75,.34-1.18,.34l-.06,.17c.34,.37,.55,.76,.64,1.18,.09,.42,.05,.88-.14,1.37Z"/><path class="b" d="M49.35,261.51c-.54,1.63-1.94,2.07-4.22,1.32l-6.16-2.03,.82-2.48,5.39,1.77c1.32,.44,2.08,.37,2.26-.19,.14-.42,.01-.78-.38-1.08-.39-.3-1.06-.6-1.99-.91l-4.63-1.53,.82-2.5,5.4,1.78c1.31,.43,2.06,.37,2.24-.17,.14-.42-.01-.79-.46-1.12-.44-.32-1.17-.65-2.19-.98l-4.36-1.44,.82-2.48,9.4,3.1-.64,1.95-1.27-.11-.05,.15c.78,.67,.98,1.56,.62,2.67-.18,.55-.45,.94-.8,1.18-.35,.24-.74,.37-1.16,.39l-.06,.17c.35,.35,.58,.74,.69,1.16,.11,.41,.08,.87-.08,1.37Z"/><path class="b" d="M45.82,272.69l-9.51-2.76,.57-1.95,1.28,.05,.04-.14c-.78-.7-1.03-1.54-.75-2.51,.24-.84,.74-1.39,1.47-1.65,.74-.26,1.65-.23,2.75,.09l6.21,1.8-.73,2.51-5.41-1.57c-.68-.2-1.21-.28-1.58-.25-.38,.03-.61,.19-.69,.49-.16,.54-.02,.95,.41,1.23s1.07,.54,1.91,.78l4.77,1.39-.73,2.51Z"/><path class="b" d="M44.3,279.14c-.21,.81-.67,1.37-1.39,1.67-.72,.3-1.63,.3-2.75,.01l-6.29-1.63,.66-2.53,5.52,1.43c.65,.17,1.16,.24,1.53,.2,.37-.03,.6-.23,.69-.59,.12-.44-.03-.8-.43-1.09-.4-.28-1.16-.57-2.28-.86l-4.49-1.17,.66-2.53,9.58,2.49-.52,1.99-1.28-.03-.04,.16c.81,.66,1.08,1.48,.82,2.48Z"/><path class="b" d="M42.41,286.13l-9.63-2.28,.6-2.54,9.63,2.28-.6,2.54Zm4.12-.36c-.22,.91-.79,1.26-1.71,1.04-.91-.22-1.26-.78-1.04-1.69,.22-.91,.78-1.26,1.69-1.04,.92,.22,1.27,.78,1.06,1.69Z"/><path class="b" d="M33.53,290.01c-.07,.32-.05,.72,.04,1.23l-2.02-.44c-.1-.33-.16-.66-.17-1-.01-.33,.02-.69,.1-1.06,.19-.89,.6-1.47,1.21-1.74,.61-.27,1.46-.29,2.54-.05l4.54,.99,.21-.97,1.37,.3,.39,1.32,1.94,1.05-.38,1.74-1.99-.43-.39,1.78-2.11-.46,.39-1.78-4.48-.98c-.69-.15-1.09,.02-1.2,.51Z"/><path class="b" d="M40.74,293.58l-.52,2.67-4.7,.2c-.32,.01-.64,.02-.97,.02-.32,0-.61-.01-.84-.04v.07c.21,.07,.45,.16,.72,.26,.27,.11,.58,.24,.93,.41l4.31,1.88-.52,2.65-9.94-4.96c-1.19-.6-2-1.21-2.41-1.83-.42-.62-.54-1.35-.38-2.18,.04-.21,.09-.41,.15-.59,.06-.18,.13-.37,.22-.54l2.24,.44c-.11,.21-.2,.44-.24,.69-.05,.24-.04,.44,.02,.6,.06,.17,.2,.32,.42,.48,.22,.15,.55,.35,1,.58l.37,.18,10.15-.98Z"/><path class="b" d="M33.9,314.09c-2.12-.33-3.68-1.03-4.68-2.12-1-1.08-1.37-2.46-1.11-4.13l.48-3.11,12.7,1.96-.51,3.31c-.25,1.61-.96,2.78-2.14,3.49-1.18,.71-2.76,.91-4.74,.61Zm.31-2.81c1.38,.21,2.4,.17,3.06-.12,.66-.29,1.05-.81,1.17-1.56l.09-.57-7.99-1.23-.06,.39c-.13,.84,.11,1.51,.72,2.01s1.61,.86,3.01,1.07Z"/><path class="b" d="M36.62,319.57c-.14,1.13-.64,1.96-1.51,2.48-.86,.52-2,.69-3.4,.52l-1.39-.17,.59-4.7c-.78-.08-1.36,0-1.75,.25s-.62,.67-.69,1.27c-.05,.43-.05,.84,.02,1.24,.07,.4,.2,.82,.41,1.29l-2.12-.27c-.19-.43-.31-.89-.36-1.37-.05-.48-.05-.99,.02-1.52,.17-1.38,.74-2.33,1.7-2.84,.96-.52,2.24-.67,3.83-.48,1.64,.21,2.87,.67,3.68,1.4,.81,.73,1.14,1.7,.99,2.92Zm-2.02-.2c.04-.34-.07-.64-.35-.9-.28-.25-.78-.43-1.5-.53l-.28,2.27c.67,.08,1.18,.05,1.54-.1,.36-.15,.56-.4,.6-.74Z"/><path class="b" d="M25.84,325.36l10.12-1.75-.26,2.69-5.12,.56c-.34,.05-.69,.09-1.03,.11-.35,.02-.71,.02-1.08,.01v.07c.28,.04,.59,.1,.92,.18,.33,.08,.68,.18,1.04,.3l4.99,1.63-.26,2.69-9.58-3.69,.28-2.79Z"/><path class="b" d="M35,336.06c-.08,1.14-.54,1.99-1.38,2.55-.83,.56-1.96,.79-3.37,.69l-1.4-.1,.34-4.72c-.78-.04-1.36,.07-1.73,.33s-.58,.7-.63,1.3c-.03,.43,0,.84,.08,1.23,.08,.39,.24,.81,.48,1.26l-2.14-.16c-.21-.42-.35-.87-.43-1.35-.08-.48-.1-.98-.06-1.52,.1-1.39,.62-2.36,1.55-2.93,.93-.56,2.2-.79,3.8-.67,1.65,.12,2.9,.53,3.75,1.21,.85,.69,1.22,1.64,1.14,2.86Zm-2.03-.09c.03-.35-.11-.64-.4-.88-.29-.24-.8-.39-1.53-.45l-.17,2.28c.67,.05,1.18-.01,1.53-.18,.35-.17,.54-.42,.56-.77Z"/><path class="b" d="M24.47,343.4l.14-2.61,13.66,.71-.14,2.61-13.66-.71Z"/><path class="b" d="M29.09,353.24c-.66-.02-1.3-.11-1.91-.27-.61-.16-1.16-.39-1.64-.71-.48-.31-.85-.73-1.11-1.24-.27-.51-.39-1.13-.37-1.85,.03-.89,.29-1.61,.79-2.16,.5-.55,1.14-.96,1.94-1.21,.79-.25,1.64-.36,2.54-.34,.98,.03,1.85,.19,2.61,.49,.76,.29,1.35,.73,1.78,1.32,.43,.58,.62,1.34,.6,2.26-.04,1.16-.51,2.08-1.42,2.76-.91,.68-2.18,1-3.81,.95Zm.12-5.13c-1.94-.06-2.93,.32-2.95,1.15-.01,.46,.22,.78,.71,.99,.49,.2,1.22,.32,2.21,.35,.98,.03,1.72-.04,2.2-.21,.49-.17,.74-.48,.75-.94,.01-.43-.22-.75-.69-.97s-1.21-.33-2.22-.37Z"/><path class="b" d="M34.17,359.69c0,.92-.46,1.64-1.37,2.15-.91,.51-2.18,.76-3.81,.75-1.58,0-2.83-.26-3.73-.78s-1.36-1.21-1.35-2.08c0-.44,.12-.85,.35-1.22,.23-.37,.61-.68,1.13-.93v-.09c-.41,.02-.76,.04-1.06,.05-.3,.01-.54,.02-.72,.02h-3.83v-2.62l14.23,.04v2.11l-1.3,.37v.14c.6,.3,.99,.62,1.18,.94,.19,.32,.29,.71,.28,1.15Zm-2.19-.85c0-.44-.21-.77-.64-.96-.43-.2-1.12-.3-2.08-.3h-.52c-.89,0-1.54,.09-1.95,.29-.41,.2-.62,.51-.62,.94,0,.76,.94,1.14,2.82,1.14,1.99,0,2.99-.36,2.99-1.11Z"/><path class="b" d="M34.45,373.47c.06,1.72-1.12,2.61-3.52,2.69l-6.48,.21-.08-2.61,5.67-.18c1.39-.05,2.08-.36,2.06-.95-.01-.44-.26-.74-.73-.88s-1.2-.21-2.19-.17l-4.88,.16-.09-2.63,5.69-.19c1.38-.04,2.06-.35,2.04-.93-.01-.44-.29-.74-.81-.89-.53-.15-1.33-.21-2.39-.17l-4.59,.15-.08-2.61,9.9-.32,.07,2.05-1.23,.33v.16c.96,.37,1.46,1.13,1.5,2.29,.02,.58-.1,1.04-.34,1.38-.25,.34-.57,.6-.96,.77v.18c.46,.21,.81,.5,1.05,.85,.25,.35,.38,.79,.39,1.32Z"/><path class="b" d="M34.87,381.22c.07,1.14-.26,2.04-1.01,2.72-.75,.67-1.83,1.06-3.24,1.15l-1.4,.09-.31-4.72c-.78,.06-1.33,.25-1.67,.57-.33,.32-.48,.77-.44,1.37,.03,.43,.11,.83,.25,1.21,.14,.38,.35,.77,.65,1.18l-2.14,.14c-.27-.39-.47-.82-.62-1.28-.15-.46-.23-.96-.27-1.5-.09-1.39,.28-2.43,1.13-3.11s2.07-1.08,3.67-1.19c1.65-.11,2.95,.12,3.88,.68,.93,.56,1.44,1.46,1.52,2.68Zm-2.03,.19c-.02-.35-.19-.62-.51-.81-.32-.2-.84-.28-1.58-.24l.15,2.28c.67-.04,1.17-.17,1.49-.39,.32-.21,.47-.49,.45-.84Z"/><path class="b" d="M35.69,391.04c.08,.84-.17,1.52-.74,2.04-.57,.52-1.43,.84-2.58,.95l-6.47,.61-.24-2.6,5.68-.53c.67-.06,1.17-.17,1.51-.33,.33-.16,.48-.42,.45-.79-.04-.45-.3-.75-.78-.88-.48-.13-1.29-.14-2.43-.03l-4.62,.43-.24-2.6,9.86-.93,.19,2.04-1.21,.4,.02,.16c.98,.34,1.52,1.03,1.62,2.05Z"/><path class="b" d="M28.64,400.11c.04,.32,.19,.7,.44,1.14l-2.06,.24c-.2-.28-.36-.57-.49-.88-.12-.31-.2-.66-.25-1.04-.11-.91,.09-1.59,.58-2.04,.49-.46,1.28-.75,2.38-.88l4.61-.54-.12-.98,1.39-.16,.8,1.12,2.18,.36,.21,1.77-2.02,.24,.21,1.81-2.15,.25-.21-1.81-4.56,.54c-.7,.08-1.03,.37-.97,.88Z"/><path class="b" d="M29.83,405.92l-.18,.12c-.96-.02-1.84-.07-2.65-.15-.8-.08-1.55-.22-2.24-.4l-.29-2.12c.48,.03,1.02,.05,1.63,.07,.61,.01,1.21,.02,1.82,0,.6,0,1.13-.03,1.57-.07l.35,2.55Z"/><path class="b" d="M36.06,419.87c-2.07,.36-3.74,.24-5.02-.34-1.27-.58-2.04-1.64-2.31-3.19-.26-1.54,.12-2.8,1.14-3.77,1.02-.98,2.56-1.64,4.62-2,2.12-.36,3.8-.24,5.04,.36,1.24,.6,1.99,1.66,2.25,3.18,.27,1.55-.1,2.81-1.11,3.78-1,.97-2.54,1.63-4.61,1.99Zm-1.11-6.49c-2.77,.47-4.05,1.33-3.84,2.56,.11,.63,.52,1.03,1.25,1.22,.73,.19,1.8,.16,3.22-.08,1.42-.24,2.45-.58,3.08-1,.63-.42,.9-.94,.79-1.56-.21-1.23-1.71-1.61-4.5-1.13Z"/><path class="b" d="M31.42,429.37l4.43-1.75c.4-.15,.83-.3,1.29-.45,.46-.16,.89-.3,1.28-.43v-.05c-.47,.03-.95,.07-1.44,.11-.49,.04-.92,.07-1.27,.08l-4.79,.13-.6-2.89,9.27-4.05,.53,2.54-3.28,1.31c-.46,.19-.98,.38-1.55,.57-.57,.19-1.13,.36-1.68,.51v.05c.47-.05,.96-.09,1.49-.13,.53-.04,1.11-.07,1.75-.08l3.71-.09,.61,2.94-3.5,1.39c-.54,.21-1.08,.41-1.6,.59-.52,.18-.99,.34-1.4,.48v.07c.5-.08,1.02-.14,1.57-.2,.55-.05,1.09-.09,1.62-.1l3.75-.08,.52,2.5-10.12-.02-.61-2.94Z"/><path class="b" d="M43.71,437.88c.2,.82,.05,1.52-.44,2.12-.49,.6-1.29,1.04-2.41,1.31l-6.31,1.54-.62-2.54,5.54-1.35c.65-.16,1.13-.34,1.44-.55,.31-.2,.42-.49,.33-.85-.11-.44-.41-.69-.9-.75-.49-.06-1.29,.05-2.41,.32l-4.51,1.1-.62-2.54,9.62-2.34,.49,1.99-1.14,.57,.04,.16c1.02,.2,1.66,.79,1.9,1.8Z"/><path class="b" d="M45.69,445.56c.3,1.1,.15,2.05-.45,2.87-.6,.81-1.58,1.4-2.95,1.77l-1.35,.37-1.24-4.57c-.75,.22-1.26,.51-1.52,.89-.26,.38-.32,.86-.16,1.43,.11,.42,.28,.8,.49,1.14,.21,.34,.5,.68,.87,1.03l-2.07,.56c-.34-.33-.62-.71-.86-1.13-.23-.42-.42-.89-.56-1.41-.37-1.34-.2-2.44,.49-3.28,.69-.84,1.81-1.47,3.36-1.9,1.6-.44,2.91-.47,3.94-.1,1.03,.37,1.7,1.14,2.02,2.32Zm-1.95,.59c-.09-.34-.31-.57-.67-.7-.35-.13-.88-.1-1.59,.08l.6,2.21c.65-.18,1.11-.4,1.38-.67,.27-.27,.37-.58,.27-.91Z"/><path class="b" d="M48.41,454.94c.06,.21,.1,.48,.11,.81l-2.74,.57c.02-.23-.02-.51-.12-.85-.16-.54-.47-.89-.94-1.04-.46-.15-1.04-.12-1.71,.08l-4.81,1.43-.74-2.5,9.49-2.82,.57,1.92-1.43,.82,.04,.12c.31,.03,.62,.11,.94,.22,.32,.11,.6,.27,.84,.47,.25,.2,.42,.46,.51,.77Z"/><path class="b" d="M43.96,464.44c-.98,.32-1.82,.28-2.5-.11-.69-.39-1.19-1.07-1.5-2.04-.15-.46-.25-.91-.31-1.37s-.05-.91,.02-1.36l2.37-.76c-.1,.39-.17,.8-.19,1.25-.02,.45,.04,.88,.17,1.31,.19,.58,.52,.8,1,.64,.13-.04,.24-.11,.34-.21,.1-.1,.19-.28,.27-.52,.08-.25,.16-.61,.25-1.09,.12-.68,.37-1.25,.74-1.71,.37-.46,.89-.8,1.57-1.01,.85-.27,1.59-.23,2.25,.14,.65,.36,1.13,1.02,1.43,1.95,.15,.47,.23,.93,.23,1.39,0,.46-.05,.95-.17,1.46l-2.11-.04c.1-.33,.16-.67,.19-1.03,.03-.35,0-.68-.1-.99-.16-.49-.44-.67-.84-.54-.14,.04-.24,.11-.32,.21-.08,.09-.15,.26-.23,.5-.07,.24-.17,.6-.28,1.07-.14,.67-.37,1.26-.7,1.77-.33,.5-.85,.87-1.57,1.1Z"/><path class="b" d="M55.47,465.01l-2.63,.92c-.35,.12-.71,.23-1.09,.33-.37,.1-.74,.17-1.09,.22l.05,.14c1.03,.06,1.71,.58,2.05,1.55,.28,.8,.2,1.53-.24,2.17-.44,.64-1.19,1.15-2.27,1.53l-6.14,2.14-.86-2.46,5.39-1.88c1.28-.45,1.83-.94,1.64-1.49-.17-.49-.52-.73-1.04-.72s-1.29,.18-2.3,.54l-4.39,1.53-.86-2.46,12.92-4.5,.86,2.46Z"/><path class="b" d="M55.07,475.03l-9.28,3.46-.91-2.45,9.28-3.46,.91,2.45Zm3.23-2.58c.33,.88,.05,1.48-.84,1.81-.88,.33-1.48,.05-1.81-.83-.33-.88-.05-1.48,.83-1.81,.89-.33,1.5-.06,1.82,.82Z"/><path class="b" d="M57.69,481.28c.34,.86,.18,1.69-.47,2.5-.65,.81-1.74,1.51-3.26,2.12-1.47,.58-2.72,.81-3.75,.67-1.03-.14-1.71-.62-2.03-1.43-.16-.41-.21-.83-.13-1.27,.08-.43,.31-.86,.7-1.29l-.03-.08c-.37,.17-.69,.32-.97,.44-.27,.12-.5,.21-.66,.28l-3.56,1.42-.96-2.43,13.22-5.25,.78,1.96-1.07,.83,.05,.13c.67,.06,1.15,.2,1.45,.43,.3,.23,.53,.55,.69,.96Zm-2.35,.02c-.16-.41-.48-.63-.95-.66-.47-.03-1.15,.14-2.04,.49l-.49,.19c-.83,.33-1.39,.66-1.71,1-.31,.34-.39,.71-.23,1.11,.28,.7,1.29,.71,3.04,.01,1.85-.74,2.64-1.45,2.36-2.14Z"/><path class="b" d="M62.19,491.94c.39,.89,.43,1.7,.1,2.43s-1.03,1.34-2.12,1.82l-5.96,2.63-.77-1.75,1.04-.91-.02-.05c-.59-.08-1.07-.24-1.44-.48-.38-.24-.68-.64-.93-1.19-.22-.5-.27-.97-.13-1.41,.14-.43,.4-.82,.78-1.16,.38-.34,.81-.61,1.3-.83,.96-.42,1.79-.48,2.49-.17,.71,.31,1.3,.95,1.77,1.9l.56,1.13,.3-.13c.88-.39,1.18-.89,.9-1.52-.23-.52-.73-1.05-1.49-1.6l1.49-1.43c.91,.63,1.62,1.53,2.14,2.7Zm-4.9,2.67l-.28-.54c-.42-.8-1.03-1.02-1.83-.67-.71,.32-.96,.72-.74,1.21,.14,.31,.39,.5,.76,.57,.37,.07,.8,0,1.27-.21l.82-.37Z"/><path class="b" d="M66.24,500.76c.36,.76,.36,1.48,0,2.17-.36,.69-1.06,1.28-2.1,1.77l-5.87,2.79-1.12-2.36,5.15-2.45c.61-.29,1.04-.56,1.3-.83,.26-.26,.31-.56,.15-.9-.2-.41-.54-.6-1.03-.56-.49,.04-1.26,.31-2.3,.8l-4.2,1.99-1.12-2.36,8.94-4.24,.88,1.85-1,.79,.07,.15c1.04-.02,1.78,.44,2.23,1.38Z"/><path class="b" d="M60.27,511.86c-.43-.84-.35-1.7,.23-2.57,.58-.87,1.59-1.67,3.02-2.4,1.42-.73,2.65-1.07,3.69-1.02,1.04,.04,1.76,.46,2.16,1.25,.21,.41,.29,.82,.24,1.25-.04,.43-.23,.87-.56,1.34l.04,.08c.36-.21,.67-.39,.92-.54,.25-.15,.46-.26,.63-.35l2.92-1.49,1.19,2.33-12.19,6.21-.95-1.86,.75-.79-.07-.14c-.51-.08-.92-.2-1.23-.38-.31-.18-.57-.48-.79-.91Zm2.31-.27c.2,.38,.53,.57,1,.56s1.13-.23,1.98-.66l.5-.25c.79-.4,1.33-.79,1.61-1.15,.28-.36,.32-.74,.12-1.14-.34-.66-1.35-.56-3.04,.3-1.77,.91-2.49,1.69-2.16,2.35Z"/><path class="b" d="M76.87,519.89c-.33-.6-.93-.86-1.78-.78-.86,.08-1.84,.43-2.97,1.06-1.2,.67-2.02,1.35-2.46,2.02-.43,.68-.47,1.33-.12,1.96,.19,.35,.44,.65,.75,.9,.31,.25,.64,.49,1,.72l-2.14,1.19c-.77-.46-1.4-1.14-1.9-2.03-.73-1.3-.79-2.57-.18-3.83,.61-1.25,1.83-2.39,3.67-3.42,1.13-.63,2.22-1.03,3.27-1.19,1.05-.16,1.99-.07,2.83,.26,.83,.34,1.49,.94,1.97,1.79,.53,.94,.77,1.96,.74,3.05l-2.33,.44c.04-.39,.04-.77,0-1.12-.05-.35-.16-.7-.35-1.03Z"/><path class="b" d="M80.28,526.96c.5,.83,.63,1.64,.39,2.41-.23,.77-.86,1.46-1.88,2.06l-5.6,3.33-.98-1.64,.92-1.03-.03-.05c-.59-.01-1.09-.11-1.49-.31-.4-.19-.76-.55-1.06-1.06-.28-.48-.38-.94-.3-1.38,.08-.45,.29-.86,.63-1.25,.34-.38,.73-.71,1.19-.98,.9-.53,1.72-.69,2.46-.46,.74,.22,1.4,.78,1.99,1.67l.69,1.06,.28-.17c.83-.49,1.06-1.03,.71-1.62-.29-.48-.85-.96-1.68-1.41l1.31-1.6c.98,.52,1.79,1.33,2.44,2.42Zm-4.54,3.25l-.34-.51c-.51-.74-1.14-.89-1.9-.44-.67,.4-.87,.83-.59,1.29,.17,.29,.45,.45,.83,.47,.38,.03,.79-.09,1.23-.36l.77-.46Z"/><path class="b" d="M85.38,535.24c.49,.78,.49,1.63,0,2.54-.49,.92-1.43,1.81-2.81,2.68-1.34,.85-2.53,1.3-3.57,1.35-1.04,.05-1.79-.29-2.26-1.03-.24-.38-.36-.78-.36-1.22,0-.44,.15-.9,.45-1.39l-.05-.08c-.33,.24-.62,.44-.87,.61-.25,.17-.45,.3-.6,.4l-3.24,2.05-1.4-2.21,12.02-7.6,1.13,1.78-.89,1.01,.08,.12c.67-.07,1.17-.02,1.5,.16,.34,.17,.62,.44,.86,.82Zm-2.31,.46c-.24-.38-.59-.53-1.06-.47-.47,.06-1.1,.35-1.92,.86l-.44,.28c-.75,.47-1.25,.91-1.49,1.29-.24,.39-.25,.76-.02,1.13,.4,.64,1.4,.46,2.99-.55,1.68-1.06,2.33-1.91,1.93-2.54Z"/><path class="b" d="M89.82,542.02c.54,.81,.72,1.6,.52,2.38-.19,.78-.78,1.5-1.77,2.16l-5.41,3.63-1.06-1.58,.86-1.08-.03-.04c-.59,.02-1.09-.05-1.51-.22-.41-.17-.78-.51-1.12-1-.31-.46-.43-.91-.37-1.36,.06-.45,.25-.88,.56-1.28s.69-.75,1.13-1.04c.87-.58,1.68-.78,2.43-.6,.75,.18,1.44,.7,2.08,1.56l.75,1.02,.27-.18c.8-.54,1-1.09,.62-1.65-.31-.47-.9-.91-1.75-1.32l1.22-1.67c1.01,.47,1.86,1.23,2.57,2.28Zm-4.36,3.49l-.37-.49c-.55-.71-1.19-.83-1.92-.34-.65,.43-.82,.88-.52,1.32,.19,.28,.47,.42,.85,.43,.38,0,.78-.14,1.21-.42l.75-.5Z"/><path class="b" d="M86.28,554.94c-.74-1.05-.96-2.07-.66-3.06,.3-.99,1.17-1.99,2.59-3,.8-.57,1.6-.97,2.39-1.2,.79-.23,1.54-.25,2.24-.04,.7,.2,1.31,.67,1.83,1.4,.3,.42,.52,.84,.66,1.24,.14,.41,.23,.83,.26,1.26l-2.11,.63c-.03-.67-.21-1.23-.53-1.68-.26-.36-.66-.5-1.21-.42-.55,.08-1.22,.4-2,.96-1.55,1.1-2.04,2.04-1.47,2.85,.41,.58,1.03,1,1.86,1.26l-1.81,1.28c-.42-.12-.8-.3-1.14-.56s-.64-.57-.9-.93Z"/><path class="b" d="M98.47,554.56l-7.97,5.87-1.55-2.1,7.97-5.87,1.55,2.1Zm2.39-3.37c.56,.75,.45,1.41-.31,1.97-.75,.55-1.41,.46-1.96-.3-.56-.75-.46-1.41,.3-1.96,.76-.56,1.42-.47,1.98,.29Z"/><path class="b" d="M95.67,563.81c.2,.26,.52,.51,.96,.76l-1.65,1.25c-.32-.14-.61-.31-.87-.51-.26-.21-.51-.46-.75-.77-.55-.72-.73-1.41-.55-2.05,.19-.64,.72-1.3,1.6-1.97l3.69-2.82-.6-.79,1.12-.85,1.26,.56,2.06-.8,1.08,1.42-1.62,1.23,1.1,1.45-1.72,1.31-1.1-1.45-3.65,2.78c-.56,.43-.69,.84-.39,1.25Z"/><path class="b" d="M103.07,560.64l1.7,2.12-2.88,3.72c-.2,.25-.4,.5-.61,.75-.21,.25-.4,.46-.58,.61l.04,.06c.19-.12,.42-.26,.68-.39,.26-.14,.56-.29,.91-.44l4.22-2.07,1.69,2.11-10.22,4.38c-1.23,.52-2.21,.74-2.95,.66-.74-.08-1.38-.46-1.91-1.12-.13-.17-.25-.34-.35-.5-.1-.17-.19-.34-.28-.52l1.78-1.43c.09,.22,.21,.43,.37,.63,.15,.19,.31,.31,.47,.37s.38,.06,.64-.01c.26-.07,.62-.2,1.09-.38l.38-.16,5.82-8.37Z"/><path class="b" d="M113.42,568.7l2.31,2.67c1.8,2.08,1.9,3.81,.29,5.2-.55,.48-1.12,.77-1.71,.87-.59,.1-1.11,0-1.56-.3l-.07,.06c.29,.63,.35,1.23,.18,1.79-.18,.56-.57,1.1-1.18,1.63-.87,.75-1.79,1.09-2.76,1-.97-.09-1.85-.6-2.65-1.52l-2.57-2.97,9.71-8.41Zm-3.71,6.83l-2.49,2.16,.64,.74c.6,.69,1.32,.67,2.16-.06,.4-.34,.62-.7,.66-1.08,.04-.37-.08-.73-.38-1.07l-.59-.68Zm1.63-1.41l.52,.6c.59,.68,1.27,.69,2.04,.02,.68-.59,.72-1.23,.11-1.93l-.5-.57-2.18,1.89Z"/><path class="b" d="M122.43,583.23l-7.29,6.7-1.38-1.5,.71-1.07-.1-.11c-1.01,.31-1.85,.09-2.53-.66-.59-.64-.81-1.35-.65-2.12,.16-.77,.66-1.53,1.5-2.31l4.76-4.37,1.77,1.92-4.15,3.81c-.52,.48-.87,.89-1.04,1.22-.17,.34-.15,.62,.06,.85,.38,.42,.8,.51,1.26,.28,.46-.23,1.01-.64,1.66-1.23l3.66-3.36,1.77,1.92Z"/><path class="b" d="M125.65,586.58l-7.14,6.85-1.81-1.88,7.14-6.85,1.81,1.88Zm1.93-3.65c.65,.68,.63,1.34-.05,2-.68,.65-1.34,.63-1.99-.04-.65-.68-.63-1.34,.04-1.99,.68-.66,1.35-.65,2,.03Z"/><path class="b" d="M121.94,596.94l-1.83-1.86,9.73-9.61,1.83,1.86-9.73,9.62Z"/><path class="b" d="M125.3,600.52c-.68-.66-.89-1.49-.62-2.5,.27-1.01,.96-2.09,2.08-3.25,1.11-1.15,2.16-1.87,3.16-2.16,1-.3,1.81-.13,2.45,.48,.33,.32,.54,.68,.63,1.1,.1,.42,.06,.9-.1,1.45l.06,.06c.27-.32,.51-.59,.69-.81,.19-.22,.35-.4,.48-.54l2.28-2.35,1.87,1.82-9.52,9.83-1.5-1.45,.46-.99-.12-.11c-.51,.09-.94,.1-1.29,.03-.35-.07-.7-.27-1.04-.61Zm2.1-1c.31,.3,.69,.37,1.13,.21,.44-.17,.99-.59,1.65-1.27l.39-.4c.62-.64,1-1.17,1.15-1.61,.15-.44,.06-.81-.26-1.12-.54-.52-1.46-.1-2.78,1.27-1.39,1.43-1.81,2.4-1.28,2.92Z"/><path class="b" d="M139.07,599.68l-6.73,7.26-1.91-1.77,6.73-7.26,1.91,1.78Zm1.72-3.76c.69,.64,.71,1.3,.06,2-.64,.69-1.3,.71-1.98,.07-.69-.64-.71-1.3-.07-1.98,.65-.7,1.31-.72,2-.09Z"/><path class="b" d="M144.21,604.07c.63,.56,.91,1.22,.85,2-.06,.77-.47,1.59-1.24,2.45l-4.32,4.86-1.95-1.73,3.79-4.27c.45-.5,.74-.92,.88-1.27,.14-.34,.07-.64-.21-.89-.34-.3-.73-.34-1.17-.11-.44,.23-1.04,.78-1.8,1.64l-3.08,3.47-1.95-1.73,6.58-7.4,1.53,1.36-.61,1.12,.12,.11c.95-.42,1.81-.29,2.59,.4Z"/><path class="b" d="M149.66,608.78c.36,.3,.59,.63,.7,1,.11,.36,.1,.84-.04,1.43l.11,.09,.97-.83,1.72,1.45-5.92,7.06c-1.03,1.23-2.09,1.96-3.18,2.17-1.09,.21-2.22-.17-3.4-1.16-.42-.36-.77-.72-1.04-1.1-.27-.38-.48-.8-.64-1.24l1.46-1.74c.21,.52,.44,.97,.71,1.34,.26,.38,.56,.71,.89,.98,.44,.37,.88,.56,1.31,.56,.43,0,.86-.26,1.29-.77l.09-.11c.12-.15,.28-.32,.47-.51,.19-.2,.36-.36,.5-.5l-.07-.06c-.53,.23-1,.32-1.41,.28-.41-.04-.8-.22-1.19-.54-.68-.57-.93-1.37-.74-2.38,.19-1.02,.79-2.13,1.8-3.33,1.05-1.25,2.07-2.06,3.06-2.43s1.84-.25,2.55,.34Zm-.84,2.23c-.56-.47-1.48,.06-2.76,1.58-1.19,1.42-1.49,2.37-.91,2.85,.32,.27,.69,.32,1.1,.14s.9-.6,1.46-1.26l.32-.39c.62-.75,1-1.35,1.13-1.81,.13-.46,.01-.83-.34-1.13Z"/></g><g><path class="b" d="M178.96,631.41c-.38,.56-.87,.95-1.48,1.17-.61,.23-1.28,.25-2.01,.07l-.03,.04c1.17,1.21,1.28,2.51,.33,3.92-.66,.97-1.49,1.53-2.5,1.68-1.01,.14-2.06-.16-3.15-.89-.48-.32-.88-.65-1.21-.98-.33-.33-.66-.75-.97-1.25l1.4-2.07c.23,.47,.49,.89,.79,1.26,.29,.37,.61,.66,.94,.88,.53,.36,.99,.5,1.39,.44,.4-.06,.75-.31,1.04-.75,.34-.5,.43-.96,.28-1.38-.15-.43-.56-.87-1.25-1.33l-.54-.36,1.26-1.86,.55,.37c1.23,.83,2.17,.78,2.81-.17,.48-.71,.34-1.31-.4-1.81-.55-.37-1.26-.51-2.14-.43l.26-2.21c.7-.05,1.33,0,1.89,.17,.56,.16,1.14,.45,1.74,.85,.88,.6,1.43,1.3,1.63,2.11,.2,.81,0,1.66-.61,2.55Z"/><path class="b" d="M176.01,639.5c.57-.88,1.28-1.03,2.14-.48,.4,.26,.64,.58,.71,.94s-.03,.76-.31,1.18c-.28,.42-.6,.67-.97,.76-.37,.08-.75,0-1.14-.26-.39-.26-.63-.57-.71-.95-.08-.38,.01-.78,.29-1.2Z"/><path class="b" d="M193.77,644.58c-1.56,2.58-3.23,3.89-5.03,3.94v4.13l-2.64-1.6,.16-3.29-.14-.08c-.84-.51-1.4-1.17-1.69-2-.28-.82-.31-1.75-.08-2.77,.23-1.03,.68-2.1,1.35-3.22,1.11-1.84,2.3-3.03,3.57-3.58,1.27-.54,2.56-.42,3.88,.37,1.31,.79,2.03,1.88,2.14,3.25s-.39,2.99-1.52,4.84Zm-5.64-3.41c-1.45,2.4-1.64,3.93-.57,4.57,.54,.33,1.12,.28,1.74-.15,.62-.43,1.3-1.26,2.04-2.49,.74-1.23,1.16-2.23,1.26-2.98,.09-.76-.13-1.3-.66-1.62-1.07-.65-2.33,.24-3.8,2.67Z"/><path class="b" d="M203.43,646.07l-4.86,8.63-1.77-1,.34-1.23-.12-.07c-.86,.6-1.73,.66-2.61,.16-.76-.43-1.19-1.03-1.27-1.81-.08-.78,.15-1.66,.71-2.66l3.17-5.63,2.27,1.28-2.76,4.91c-.35,.62-.55,1.11-.61,1.49s.05,.64,.32,.79c.49,.28,.92,.24,1.29-.12,.37-.36,.76-.92,1.2-1.68l2.44-4.33,2.28,1.28Z"/><path class="b" d="M208.43,648.53c.86,.45,1.39,1.07,1.59,1.85,.2,.78,.02,1.69-.53,2.74l-3.04,5.76-1.69-.89,.25-1.36-.05-.03c-.51,.3-.99,.47-1.43,.52-.44,.04-.93-.07-1.46-.35-.49-.26-.81-.6-.98-1.02-.16-.43-.2-.89-.11-1.39,.09-.5,.26-.99,.5-1.45,.49-.92,1.1-1.48,1.85-1.68,.75-.2,1.61-.07,2.57,.39l1.14,.54,.15-.29c.45-.85,.37-1.43-.24-1.75-.5-.26-1.22-.37-2.17-.33l.29-2.05c1.11-.07,2.22,.2,3.35,.79Zm-2.18,5.14l-.56-.25c-.82-.37-1.44-.16-1.85,.61-.36,.69-.31,1.16,.17,1.41,.3,.16,.61,.15,.95-.03,.34-.18,.63-.49,.87-.95l.42-.8Z"/><path class="b" d="M210.78,661.05l-2.33-1.17,6.13-12.23,2.33,1.17-6.13,12.23Z"/><path class="b" d="M219.47,654.27l-4.31,8.92-2.35-1.14,4.31-8.91,2.35,1.13Zm.54-4.1c.84,.41,1.06,1.04,.64,1.89-.41,.84-1.03,1.06-1.88,.65-.84-.41-1.06-1.03-.65-1.88,.41-.85,1.04-1.08,1.88-.67Z"/><path class="b" d="M221.32,663.76c.29,.14,.7,.21,1.21,.22l-.87,1.88c-.34,.03-.68,0-1.01-.05-.33-.06-.67-.17-1.02-.33-.83-.38-1.31-.9-1.44-1.56-.13-.66,.03-1.48,.5-2.49l1.95-4.21-.9-.42,.59-1.28,1.37-.1,1.45-1.67,1.62,.75-.85,1.85,1.65,.76-.91,1.96-1.65-.76-1.93,4.17c-.3,.64-.22,1.07,.24,1.28Z"/><path class="b" d="M226.4,657.51l2.49,1.08-.81,4.63c-.06,.32-.12,.63-.19,.95s-.14,.59-.23,.81l.07,.03c.11-.2,.25-.42,.42-.66,.16-.24,.37-.52,.6-.82l2.77-3.8,2.48,1.08-6.99,8.64c-.84,1.03-1.61,1.69-2.3,1.96-.7,.27-1.43,.24-2.21-.1-.2-.09-.38-.18-.55-.28-.17-.1-.33-.21-.49-.33l.91-2.1c.18,.16,.38,.29,.62,.38,.22,.1,.42,.13,.59,.11,.17-.02,.36-.12,.56-.31,.2-.18,.46-.47,.78-.85l.26-.32,1.24-10.12Z"/><path class="b" d="M242.75,663.48c-.64-.25-1.26-.07-1.87,.54s-1.15,1.51-1.62,2.7c-.5,1.29-.71,2.33-.61,3.12,.1,.8,.48,1.33,1.15,1.59,.37,.14,.75,.22,1.15,.22,.4,0,.81-.03,1.23-.08l-.89,2.28c-.89,.13-1.81,0-2.76-.36-1.39-.54-2.24-1.49-2.57-2.84-.33-1.35-.11-3.01,.66-4.98,.47-1.21,1.06-2.21,1.77-3,.71-.79,1.49-1.32,2.35-1.59s1.75-.23,2.66,.13c1,.39,1.84,1.02,2.51,1.89l-1.52,1.82c-.22-.33-.46-.62-.72-.86-.26-.24-.57-.43-.93-.57Z"/><path class="b" d="M249.88,666.77c.92,.33,1.53,.86,1.83,1.61s.26,1.67-.14,2.79l-2.21,6.13-1.79-.65,.06-1.38-.05-.02c-.46,.37-.91,.61-1.35,.71-.43,.1-.93,.06-1.5-.15-.52-.19-.89-.48-1.11-.88s-.32-.85-.3-1.36c.02-.51,.12-1.01,.3-1.51,.35-.98,.89-1.62,1.6-1.92,.71-.3,1.58-.29,2.6,.03l1.21,.38,.11-.31c.32-.9,.17-1.47-.48-1.7-.53-.19-1.26-.2-2.19-.02v-2.07c1.08-.22,2.23-.12,3.42,.32Zm-1.44,5.39l-.59-.17c-.87-.25-1.45,.04-1.75,.87-.26,.73-.14,1.19,.37,1.38,.32,.11,.63,.06,.94-.16,.31-.22,.55-.57,.72-1.06l.31-.85Z"/><path class="b" d="M258.98,669.89c.21,.07,.45,.19,.73,.38l-1.1,2.57c-.18-.15-.43-.28-.76-.39-.53-.18-1-.12-1.38,.17-.39,.29-.7,.78-.92,1.45l-1.59,4.76-2.48-.83,3.13-9.39,1.9,.63-.15,1.64,.12,.04c.21-.23,.44-.45,.72-.64,.27-.19,.56-.33,.87-.42,.31-.09,.62-.08,.92,.02Z"/><path class="b" d="M264.06,671.51c1.09,.33,1.82,.97,2.18,1.91,.36,.94,.34,2.09-.08,3.44l-.41,1.34-4.52-1.39c-.22,.75-.24,1.34-.06,1.76,.18,.42,.55,.73,1.12,.9,.41,.13,.82,.19,1.22,.2s.85-.06,1.34-.18l-.63,2.05c-.46,.11-.93,.15-1.41,.12-.48-.03-.98-.12-1.5-.28-1.33-.41-2.17-1.13-2.51-2.16-.34-1.04-.27-2.32,.2-3.86,.49-1.58,1.16-2.71,2.02-3.38s1.87-.83,3.04-.47Zm-.55,1.96c-.33-.1-.65-.04-.94,.19s-.56,.69-.78,1.39l2.18,.67c.2-.64,.25-1.15,.17-1.53-.08-.38-.29-.62-.63-.72Z"/><path class="b" d="M276.96,681.64c-.2,.75-.54,1.38-1.01,1.88-.47,.5-1.03,.84-1.68,1.02-.65,.18-1.36,.17-2.12-.04-.53-.14-1.02-.33-1.47-.56-.45-.23-.88-.55-1.31-.97l.72-2.7c.38,.44,.79,.81,1.25,1.11,.45,.3,.89,.51,1.32,.63,.41,.11,.74,.08,1-.08,.26-.16,.44-.41,.53-.74,.06-.22,.08-.43,.05-.64-.03-.21-.13-.44-.3-.71-.18-.26-.45-.6-.83-1-.41-.42-.75-.84-1.02-1.25-.27-.41-.44-.86-.51-1.35-.08-.49-.02-1.06,.15-1.72,.28-1.08,.83-1.86,1.64-2.35,.81-.48,1.8-.56,2.95-.24,1.02,.27,1.95,.82,2.78,1.64l-1.36,2.13c-.66-.73-1.32-1.17-1.97-1.35-.37-.1-.67-.07-.9,.08-.23,.15-.38,.37-.46,.66-.07,.27-.09,.5-.06,.7,.03,.2,.15,.43,.34,.68,.19,.25,.49,.58,.89,.98,.63,.67,1.07,1.32,1.32,1.97s.26,1.38,.04,2.2Z"/><path class="b" d="M279.14,675.94l2.64,.64v4.7c0,.32-.02,.64-.03,.97-.01,.33-.04,.61-.08,.84l.07,.02c.08-.22,.17-.46,.29-.73,.12-.27,.27-.57,.45-.91l2.08-4.22,2.62,.63-5.4,9.71c-.65,1.16-1.3,1.94-1.93,2.33-.64,.39-1.37,.48-2.2,.29-.21-.05-.41-.11-.59-.18s-.36-.15-.53-.24l.54-2.22c.2,.12,.43,.22,.67,.27,.23,.06,.43,.06,.6,0,.17-.05,.33-.19,.5-.4,.16-.21,.37-.54,.62-.97l.2-.36-.52-10.18Z"/><path class="b" d="M292.21,686.05c-.22,1.01-.67,1.71-1.35,2.11-.68,.4-1.52,.49-2.52,.28-.47-.1-.91-.24-1.34-.42-.42-.18-.81-.41-1.17-.69l.53-2.43c.28,.28,.61,.54,.99,.79s.78,.41,1.22,.5c.6,.13,.95-.05,1.06-.54,.03-.13,.02-.26-.02-.4-.04-.14-.14-.3-.32-.49-.17-.19-.45-.44-.82-.76-.53-.45-.9-.94-1.11-1.49-.21-.55-.24-1.17-.09-1.86,.19-.87,.6-1.49,1.24-1.88,.64-.38,1.44-.47,2.41-.26,.48,.1,.92,.27,1.32,.5,.4,.23,.79,.52,1.18,.87l-1.09,1.81c-.24-.25-.5-.47-.79-.68-.29-.2-.59-.34-.91-.41-.5-.11-.8,.04-.89,.45-.03,.14-.02,.27,.02,.38,.04,.11,.15,.26,.32,.45,.17,.18,.43,.44,.79,.78,.52,.46,.91,.95,1.18,1.49,.27,.54,.33,1.17,.17,1.91Z"/><path class="b" d="M297.38,687.96c.32,.06,.73,.04,1.22-.07l-.39,2.03c-.33,.11-.66,.17-.99,.19-.33,.02-.69,0-1.07-.08-.9-.17-1.49-.56-1.77-1.17-.29-.61-.32-1.45-.11-2.53l.89-4.56-.97-.19,.27-1.38,1.31-.42,1-1.97,1.75,.34-.39,2,1.78,.35-.41,2.12-1.78-.35-.88,4.51c-.13,.7,.04,1.09,.54,1.19Z"/><path class="b" d="M304.69,681.18c1.12,.19,1.93,.73,2.41,1.62,.48,.89,.6,2.03,.36,3.42l-.24,1.38-4.67-.8c-.12,.77-.06,1.36,.17,1.75s.64,.65,1.23,.75c.43,.07,.84,.08,1.23,.04,.4-.05,.83-.17,1.3-.35l-.36,2.11c-.44,.17-.9,.27-1.38,.3s-.99,0-1.52-.09c-1.37-.24-2.29-.84-2.76-1.83s-.57-2.26-.3-3.85c.28-1.63,.8-2.84,1.57-3.61,.77-.78,1.75-1.06,2.96-.85Zm-.29,2.01c-.34-.06-.65,.04-.91,.31-.26,.26-.46,.76-.6,1.48l2.25,.39c.11-.66,.1-1.18-.03-1.54-.13-.36-.37-.57-.71-.63Z"/><path class="b" d="M318.95,683.29c1.7,.23,2.39,1.54,2.06,3.91l-.88,6.42-2.58-.35,.76-5.62c.19-1.38-.01-2.11-.59-2.19-.44-.06-.77,.13-1,.57-.22,.44-.4,1.15-.54,2.12l-.66,4.83-2.6-.35,.77-5.64c.19-1.37,0-2.09-.58-2.17-.44-.06-.78,.16-1.02,.65-.24,.5-.43,1.27-.57,2.33l-.62,4.55-2.59-.35,1.34-9.81,2.03,.28,.12,1.27,.16,.02c.52-.89,1.36-1.25,2.51-1.09,.57,.08,1.01,.27,1.3,.57,.3,.3,.5,.66,.6,1.07l.18,.03c.29-.41,.62-.71,1.01-.89,.39-.18,.84-.24,1.37-.17Z"/><path class="b" d="M330.31,684.49c.97,.09,1.69,.45,2.18,1.09,.48,.64,.67,1.55,.56,2.74l-.59,6.49-1.9-.17-.29-1.35h-.05c-.36,.47-.73,.81-1.12,1.02-.39,.21-.89,.29-1.49,.24-.55-.05-.98-.24-1.29-.57-.31-.33-.53-.74-.64-1.24s-.14-1.01-.1-1.54c.09-1.04,.45-1.79,1.06-2.26,.61-.47,1.46-.68,2.52-.63l1.26,.06,.03-.32c.09-.96-.21-1.46-.89-1.53-.56-.05-1.27,.13-2.13,.53l-.52-2c1-.49,2.13-.67,3.39-.56Zm-.04,5.58l-.61-.02c-.9-.02-1.39,.4-1.47,1.28-.07,.78,.16,1.19,.7,1.24,.33,.03,.62-.1,.87-.39s.39-.69,.43-1.21l.08-.9Z"/><path class="b" d="M339.96,685.22c.84,.05,1.47,.4,1.9,1.05,.43,.65,.61,1.54,.53,2.7l-.41,6.48-2.6-.16,.36-5.7c.04-.67,.01-1.18-.09-1.54-.1-.36-.34-.54-.71-.57-.46-.03-.78,.18-.99,.63s-.34,1.25-.41,2.4l-.29,4.63-2.61-.17,.62-9.88,2.05,.13,.21,1.26h.16c.49-.91,1.25-1.34,2.28-1.27Z"/><path class="b" d="M346.81,695.83c-.95-.03-1.66-.51-2.14-1.44-.48-.93-.69-2.2-.63-3.8,.06-1.59,.35-2.84,.9-3.72s1.25-1.32,2.14-1.29c.46,.02,.86,.15,1.21,.39,.35,.25,.65,.62,.9,1.14h.09c0-.42-.02-.77-.03-1.06,0-.29,0-.53,0-.72l.11-3.27,2.61,.09-.47,13.67-2.09-.07-.32-1.04h-.16c-.31,.4-.62,.7-.93,.88-.31,.18-.7,.26-1.18,.25Zm.89-2.15c.43,.01,.76-.19,.97-.61,.22-.42,.34-1.1,.38-2.05l.02-.56c.03-.89-.04-1.54-.23-1.96s-.5-.64-.94-.65c-.75-.03-1.15,.91-1.21,2.8-.07,1.99,.27,3,1.01,3.03Z"/><path class="b" d="M361.87,685.2c-.68,0-1.2,.4-1.54,1.18-.35,.79-.52,1.82-.51,3.11,0,1.38,.2,2.42,.58,3.13,.38,.71,.93,1.06,1.65,1.06,.4,0,.78-.08,1.15-.22s.74-.32,1.11-.53v2.45c-.77,.45-1.67,.67-2.69,.68-1.49,0-2.63-.56-3.43-1.7-.8-1.14-1.21-2.76-1.21-4.87,0-1.3,.18-2.44,.55-3.44,.37-1,.9-1.78,1.6-2.35s1.54-.85,2.53-.86c1.08,0,2.09,.28,3.03,.84l-.75,2.25c-.32-.23-.65-.41-.98-.54s-.69-.2-1.07-.19Z"/><path class="b" d="M373.49,690.65c.02,.66-.03,1.3-.15,1.92-.12,.62-.32,1.18-.61,1.67-.29,.5-.68,.89-1.17,1.19-.5,.3-1.1,.46-1.82,.48-.89,.03-1.62-.19-2.21-.65-.58-.46-1.03-1.08-1.33-1.86-.3-.78-.46-1.62-.49-2.52-.03-.98,.08-1.86,.33-2.64,.25-.78,.65-1.39,1.2-1.86s1.29-.71,2.22-.73c1.16-.04,2.11,.38,2.85,1.25s1.13,2.11,1.18,3.75Zm-5.13,.19c.06,1.94,.5,2.9,1.33,2.88,.46-.01,.77-.27,.94-.77,.17-.5,.24-1.24,.21-2.22-.03-.98-.14-1.71-.34-2.19-.2-.47-.53-.7-.99-.69-.43,.01-.74,.26-.92,.75-.18,.49-.26,1.23-.23,2.24Z"/><path class="b" d="M384.16,684.89c1.71-.11,2.65,1.03,2.8,3.42l.42,6.47-2.6,.17-.37-5.66c-.09-1.39-.43-2.06-1.02-2.03-.44,.03-.73,.28-.86,.76-.13,.48-.17,1.21-.1,2.19l.32,4.87-2.62,.17-.37-5.68c-.09-1.38-.42-2.05-1-2.01-.44,.03-.73,.31-.86,.84-.13,.53-.17,1.33-.1,2.4l.3,4.58-2.6,.17-.64-9.88,2.05-.13,.37,1.22h.16c.33-.98,1.08-1.51,2.24-1.58,.57-.04,1.04,.06,1.39,.3,.35,.24,.62,.55,.8,.93h.18c.2-.47,.47-.83,.81-1.08,.34-.26,.78-.4,1.31-.44Z"/><path class="b" d="M393.23,684.06c.92-.09,1.68,.29,2.28,1.14s.98,2.09,1.14,3.71c.16,1.58,.03,2.84-.39,3.79-.42,.95-1.06,1.47-1.93,1.56-.44,.04-.86-.03-1.25-.23-.39-.2-.74-.54-1.04-1.03h-.09c.06,.41,.12,.76,.16,1.06,.04,.3,.07,.54,.09,.71l.38,3.82-2.6,.26-1.42-14.15,2.09-.21,.51,1.25h.14c.24-.64,.51-1.07,.81-1.29,.3-.22,.68-.36,1.12-.4Zm-.62,2.27c-.44,.04-.74,.29-.89,.73s-.18,1.14-.09,2.1l.05,.52c.09,.88,.25,1.52,.49,1.91,.24,.39,.57,.57,1,.52,.75-.08,1.03-1.05,.85-2.92-.2-1.98-.67-2.94-1.41-2.86Z"/><path class="b" d="M401.1,683.17c1.13-.15,2.06,.14,2.78,.84s1.17,1.76,1.35,3.17l.18,1.39-4.7,.6c.11,.77,.33,1.32,.67,1.63,.34,.31,.8,.43,1.4,.36,.43-.05,.83-.16,1.19-.32,.37-.16,.75-.4,1.14-.72l.27,2.12c-.38,.29-.79,.52-1.23,.69-.45,.17-.94,.29-1.48,.36-1.38,.18-2.44-.14-3.18-.94-.74-.8-1.21-2-1.41-3.6-.21-1.64-.06-2.95,.44-3.91,.51-.97,1.37-1.53,2.58-1.68Zm.31,2.01c-.35,.04-.61,.23-.78,.56s-.22,.86-.14,1.59l2.27-.29c-.09-.67-.24-1.15-.48-1.46-.23-.31-.52-.44-.87-.4Z"/><path class="b" d="M411.01,689.82c.32-.05,.7-.21,1.13-.48l.31,2.05c-.27,.21-.56,.38-.87,.51-.31,.13-.65,.22-1.03,.28-.9,.14-1.59-.03-2.06-.51-.47-.47-.79-1.26-.95-2.35l-.69-4.59-.98,.15-.21-1.39,1.09-.84,.29-2.19,1.76-.27,.3,2.01,1.8-.27,.32,2.14-1.8,.27,.68,4.54c.11,.7,.41,1.01,.91,.94Z"/><path class="b" d="M415.63,680.98c1.12-.2,2.06,.04,2.81,.72s1.25,1.71,1.49,3.1l.24,1.38-4.66,.81c.14,.77,.39,1.3,.74,1.6s.82,.4,1.41,.29c.43-.07,.82-.2,1.18-.38,.36-.18,.73-.43,1.11-.77l.37,2.11c-.36,.31-.76,.56-1.21,.75-.44,.19-.93,.33-1.46,.43-1.37,.24-2.44-.03-3.22-.79-.77-.77-1.29-1.94-1.57-3.53-.28-1.63-.19-2.94,.27-3.93,.46-.99,1.3-1.59,2.5-1.79Zm.4,1.99c-.34,.06-.6,.26-.76,.6-.16,.34-.18,.87-.07,1.59l2.25-.39c-.12-.66-.3-1.14-.54-1.44-.25-.3-.54-.42-.88-.36Z"/><path class="b" d="M425.3,679.13c.82-.17,1.53,0,2.11,.52,.58,.51,.99,1.33,1.21,2.46l1.29,6.37-2.56,.52-1.13-5.59c-.13-.66-.3-1.15-.49-1.46s-.47-.44-.84-.37c-.45,.09-.71,.38-.79,.87s0,1.3,.22,2.42l.92,4.55-2.56,.52-1.96-9.7,2.01-.41,.53,1.16,.16-.03c.24-1.02,.86-1.62,1.87-1.83Z"/><path class="b" d="M435.06,685.18c.32-.07,.68-.26,1.09-.56l.46,2.02c-.26,.23-.53,.42-.83,.58-.3,.15-.63,.27-1.01,.36-.89,.2-1.59,.08-2.09-.36s-.88-1.2-1.12-2.27l-1.03-4.53-.96,.22-.31-1.37,1.03-.92,.13-2.21,1.74-.39,.45,1.98,1.77-.4,.48,2.11-1.77,.4,1.01,4.48c.16,.69,.48,.98,.97,.87Z"/><path class="b" d="M447.02,680.4c.2,.75,.21,1.47,.05,2.13-.16,.67-.48,1.24-.96,1.72-.48,.48-1.1,.82-1.87,1.02-.53,.14-1.05,.22-1.56,.24s-1.04-.04-1.61-.19l-.7-2.7c.54,.19,1.09,.31,1.63,.35,.54,.04,1.03,0,1.46-.11,.41-.11,.68-.29,.83-.56,.15-.27,.18-.57,.09-.91-.06-.22-.15-.41-.27-.58-.12-.17-.33-.32-.61-.46-.29-.14-.69-.29-1.21-.46-.56-.16-1.06-.36-1.5-.59-.44-.23-.81-.53-1.11-.92s-.54-.91-.71-1.57c-.29-1.08-.21-2.03,.26-2.85,.47-.82,1.29-1.38,2.45-1.67,1.02-.27,2.1-.25,3.23,.05l-.12,2.53c-.93-.3-1.73-.37-2.38-.2-.37,.1-.62,.27-.74,.51-.12,.24-.15,.51-.07,.8,.07,.27,.17,.48,.3,.64,.13,.16,.34,.3,.63,.42,.29,.12,.71,.26,1.26,.42,.88,.27,1.58,.62,2.12,1.06s.91,1.07,1.12,1.89Z"/><path class="b" d="M450.19,673.02c1.1-.31,2.05-.18,2.87,.41,.82,.59,1.42,1.56,1.81,2.93l.39,1.35-4.55,1.31c.23,.75,.53,1.25,.91,1.51,.38,.26,.86,.31,1.44,.14,.42-.12,.79-.29,1.13-.5s.68-.51,1.02-.88l.59,2.06c-.33,.34-.7,.64-1.12,.87-.42,.24-.89,.43-1.41,.58-1.34,.38-2.43,.24-3.28-.44-.85-.68-1.5-1.79-1.94-3.34-.46-1.59-.51-2.9-.16-3.93,.35-1.03,1.12-1.72,2.29-2.06Zm.61,1.94c-.33,.1-.56,.32-.69,.67s-.09,.88,.1,1.59l2.2-.63c-.19-.65-.42-1.1-.7-1.37s-.58-.36-.92-.26Z"/><path class="b" d="M459.54,670.17c.21-.07,.48-.11,.81-.12l.61,2.73c-.23-.02-.51,.03-.84,.13-.54,.17-.88,.49-1.02,.95-.14,.47-.11,1.04,.1,1.71l1.5,4.79-2.49,.78-2.96-9.45,1.91-.6,.84,1.42,.12-.04c.03-.31,.1-.62,.21-.94s.26-.6,.46-.85c.2-.25,.45-.42,.76-.52Z"/><path class="b" d="M466.87,678.37l-5.78-8.49,2.56-.87,2.63,4.43c.19,.29,.36,.59,.52,.9,.16,.31,.31,.63,.46,.98l.07-.02c-.08-.28-.15-.58-.21-.92-.06-.33-.11-.69-.15-1.07l-.58-5.22,2.56-.87,.6,10.25-2.66,.9Z"/><path class="b" d="M469.95,662.65c.88-.32,1.48-.03,1.8,.86,.32,.88,.04,1.48-.84,1.8-.88,.32-1.48,.04-1.8-.84-.32-.89-.04-1.5,.84-1.82Zm2.56,3.25l3.38,9.31-2.45,.89-3.38-9.31,2.45-.89Z"/><path class="b" d="M481.28,673.36c-1.2,.46-2.24,.42-3.13-.12-.89-.54-1.64-1.62-2.27-3.24-.35-.92-.54-1.79-.57-2.62-.03-.83,.14-1.55,.51-2.18,.37-.63,.97-1.11,1.81-1.43,.48-.18,.94-.29,1.37-.33,.43-.04,.86-.02,1.29,.06l.09,2.2c-.66-.13-1.24-.1-1.76,.1-.41,.16-.65,.52-.71,1.07-.06,.55,.09,1.28,.43,2.18,.68,1.77,1.48,2.48,2.4,2.13,.66-.25,1.22-.75,1.68-1.5l.79,2.07c-.21,.38-.49,.7-.82,.97-.33,.27-.71,.48-1.12,.64Z"/><path class="b" d="M484.38,661.09c1.05-.43,2.02-.4,2.9,.09,.88,.5,1.59,1.4,2.13,2.71l.54,1.3-4.38,1.8c.31,.72,.67,1.18,1.07,1.4,.41,.22,.89,.21,1.44-.02,.4-.16,.75-.37,1.06-.62,.31-.25,.62-.58,.92-.99l.82,1.98c-.29,.38-.62,.71-1.01,.99-.39,.28-.83,.53-1.33,.73-1.29,.53-2.39,.5-3.31-.08-.92-.58-1.69-1.62-2.3-3.1-.63-1.53-.83-2.83-.59-3.89,.24-1.06,.92-1.83,2.05-2.3Zm.83,1.86c-.32,.13-.52,.38-.61,.75s0,.89,.28,1.57l2.11-.87c-.26-.62-.54-1.05-.84-1.29-.31-.24-.62-.29-.94-.16Z"/><path class="b" d="M501.43,657.27c.89,1.95,1.16,3.64,.81,5.07-.35,1.43-1.3,2.5-2.84,3.2l-2.86,1.31-5.36-11.68,3.04-1.4c1.48-.68,2.85-.72,4.09-.13,1.24,.59,2.28,1.8,3.12,3.62Zm-2.52,1.29c-.58-1.26-1.18-2.09-1.79-2.49s-1.26-.43-1.95-.12l-.52,.24,3.37,7.35,.36-.17c.77-.36,1.2-.92,1.29-1.71s-.17-1.82-.76-3.11Z"/><path class="b" d="M504.51,651.98c1.02-.5,1.99-.54,2.9-.11,.91,.43,1.68,1.29,2.31,2.56l.62,1.26-4.24,2.1c.36,.7,.74,1.13,1.17,1.32,.42,.19,.9,.15,1.44-.12,.39-.19,.73-.42,1.02-.7,.29-.27,.57-.62,.85-1.05l.95,1.92c-.26,.4-.57,.75-.94,1.06-.37,.31-.8,.58-1.28,.82-1.25,.62-2.35,.67-3.31,.15-.96-.52-1.79-1.5-2.51-2.94-.73-1.48-1.02-2.77-.85-3.84s.79-1.89,1.89-2.43Zm.95,1.8c-.31,.15-.5,.42-.56,.79-.06,.37,.07,.89,.38,1.55l2.05-1.01c-.3-.6-.61-1.01-.93-1.23-.32-.22-.64-.25-.95-.09Z"/><path class="b" d="M516.18,657.34l-2.32,1.2-6.31-12.14,2.32-1.2,6.31,12.14Z"/><path class="b" d="M512.8,643.47c.82-.44,1.46-.25,1.91,.59,.44,.82,.25,1.46-.57,1.9-.82,.45-1.46,.25-1.9-.57-.45-.83-.26-1.47,.56-1.92Zm3,2.84l4.69,8.72-2.3,1.24-4.69-8.72,2.3-1.24Z"/><path class="b" d="M524.12,653.03l-7.25-7.27,2.35-1.33,3.41,3.87c.24,.25,.46,.51,.68,.78s.42,.56,.63,.87l.06-.04c-.13-.26-.26-.54-.38-.86-.12-.32-.24-.66-.35-1.02l-1.54-5.02,2.35-1.33,2.49,9.96-2.45,1.38Z"/><path class="b" d="M527.59,639.39c.98-.59,1.94-.7,2.88-.34,.94,.36,1.78,1.15,2.5,2.36l.72,1.2-4.06,2.43c.41,.66,.83,1.07,1.27,1.22,.44,.15,.91,.08,1.42-.23,.37-.22,.69-.48,.96-.78,.27-.29,.52-.67,.76-1.11l1.1,1.84c-.23,.42-.51,.79-.86,1.13-.34,.34-.75,.65-1.21,.92-1.19,.72-2.29,.86-3.29,.42-1-.44-1.91-1.35-2.73-2.73-.85-1.42-1.24-2.67-1.16-3.76,.08-1.09,.64-1.95,1.69-2.57Zm1.09,1.72c-.3,.18-.46,.45-.49,.83s.14,.88,.51,1.51l1.96-1.17c-.34-.58-.69-.96-1.02-1.15-.34-.19-.65-.2-.95-.02Z"/><path class="b" d="M535.89,634.23c.18-.11,.43-.22,.75-.32l1.29,2.48c-.23,.04-.49,.16-.78,.35-.48,.3-.72,.69-.74,1.18-.02,.49,.16,1.03,.54,1.63l2.68,4.25-2.21,1.39-5.29-8.37,1.69-1.07,1.17,1.15,.11-.07c-.05-.31-.07-.63-.04-.96,.02-.33,.1-.65,.22-.94,.13-.29,.33-.53,.6-.7Z"/><path class="b" d="M537.31,633.55l2.26-1.51,3.45,3.2c.23,.22,.46,.44,.7,.67,.23,.23,.42,.44,.56,.63l.06-.04c-.11-.2-.22-.44-.33-.71s-.24-.59-.36-.95l-1.69-4.39,2.25-1.5,3.47,10.56c.41,1.27,.55,2.27,.4,3-.15,.73-.57,1.33-1.28,1.81-.18,.12-.36,.22-.53,.31-.17,.09-.35,.16-.54,.23l-1.27-1.9c.23-.07,.45-.17,.66-.31,.2-.13,.34-.28,.41-.44,.08-.16,.09-.37,.04-.63-.05-.27-.14-.64-.29-1.12l-.13-.39-7.83-6.53Z"/></g><g><path class="b" d="M578.49,611.83l-.99,.84,1.66,1.94-2,1.71-1.66-1.94-3.21,2.73-1.4-1.64-2.07-8.95,1.99-1.69,5.25,6.16,.99-.84,1.44,1.68Zm-4.44,.87l-1.55-1.82c-.05-.06-.13-.16-.25-.31-.12-.15-.25-.31-.39-.48-.14-.17-.26-.33-.37-.46-.11-.14-.17-.22-.2-.25l-.06,.05c.23,.47,.38,.92,.45,1.36l.82,3.23,1.55-1.32Z"/><path class="b" d="M580.35,611.77c-.69-.78-.65-1.51,.11-2.19,.36-.32,.73-.46,1.1-.43,.37,.03,.73,.24,1.06,.62,.33,.38,.49,.75,.47,1.13-.02,.38-.2,.72-.55,1.03-.35,.31-.72,.46-1.1,.44-.39-.02-.75-.22-1.08-.6Z"/><path class="b" d="M583.83,596.02c-.5,.47-.61,1.11-.32,1.92,.29,.81,.87,1.68,1.75,2.62,.95,1,1.8,1.64,2.56,1.89,.76,.26,1.4,.14,1.93-.36,.29-.27,.52-.59,.69-.95,.17-.36,.32-.74,.45-1.14l1.68,1.78c-.26,.86-.77,1.64-1.51,2.34-1.08,1.02-2.31,1.39-3.67,1.1-1.36-.28-2.77-1.2-4.21-2.73-.89-.94-1.54-1.91-1.95-2.89-.41-.98-.55-1.92-.43-2.81,.12-.89,.55-1.68,1.26-2.35,.79-.74,1.71-1.23,2.78-1.46l.99,2.16c-.39,.06-.75,.15-1.08,.28-.33,.13-.64,.33-.92,.59Z"/><path class="b" d="M596.03,592.08c.47,.47,.87,.97,1.2,1.51s.57,1.08,.7,1.64c.13,.56,.11,1.11-.04,1.67-.16,.56-.49,1.09-1.01,1.59-.63,.63-1.32,.97-2.06,1.03-.74,.06-1.49-.09-2.24-.45-.75-.36-1.44-.86-2.08-1.5-.69-.7-1.21-1.42-1.56-2.15-.35-.74-.48-1.46-.39-2.18,.09-.72,.46-1.4,1.12-2.05,.83-.82,1.8-1.16,2.93-1.03,1.13,.13,2.27,.78,3.42,1.93Zm-3.62,3.64c1.37,1.38,2.35,1.78,2.94,1.19,.32-.32,.38-.72,.16-1.2-.21-.48-.67-1.07-1.36-1.77-.69-.7-1.28-1.15-1.75-1.36-.47-.21-.87-.15-1.19,.17-.31,.3-.36,.7-.16,1.18,.2,.48,.65,1.08,1.36,1.79Z"/><path class="b" d="M602.65,592.36l-1.81,1.88-9.84-9.51,1.81-1.88,9.84,9.51Z"/><path class="b" d="M606,588.82l-1.79,1.9-9.97-9.36,1.79-1.9,9.97,9.36Z"/><path class="b" d="M602.49,577.72c.65-.72,1.38-1.08,2.18-1.09s1.65,.39,2.53,1.19l4.84,4.36-1.28,1.42-1.25-.57-.04,.04c.17,.57,.22,1.07,.15,1.52s-.3,.88-.7,1.33c-.37,.41-.78,.64-1.23,.7s-.91-.02-1.38-.23c-.47-.21-.89-.49-1.29-.84-.78-.7-1.17-1.43-1.17-2.21,0-.77,.33-1.57,1.01-2.4l.8-.97-.24-.22c-.71-.64-1.3-.71-1.76-.2-.38,.42-.66,1.09-.85,2.02l-1.92-.78c.21-1.09,.74-2.11,1.59-3.05Zm4.45,3.38l-.38,.48c-.56,.71-.51,1.36,.14,1.94,.58,.52,1.05,.58,1.41,.18,.22-.25,.29-.56,.21-.93-.09-.37-.32-.73-.71-1.07l-.67-.6Z"/><path class="b" d="M604.75,569.69l2.49,2.12c.15,.12,.33,.29,.54,.49,.22,.2,.47,.44,.77,.72l.06-.07c-.21-.53-.29-1-.23-1.42,.06-.42,.23-.8,.53-1.15,.58-.68,1.37-.92,2.38-.73,1.01,.19,2.13,.81,3.35,1.85,1.21,1.04,2.01,2.04,2.38,3.03,.37,.98,.25,1.83-.35,2.53-.29,.34-.6,.57-.93,.7s-.78,.16-1.34,.11l-.09,.11,.54,.95-1.37,1.6-10.41-8.87,1.69-1.99Zm5.26,2.85c-.3,.35-.34,.73-.13,1.15,.21,.42,.63,.91,1.27,1.45l.41,.35c.72,.62,1.31,.99,1.77,1.12s.83,.03,1.12-.31c.23-.27,.23-.64-.02-1.1-.25-.46-.76-1.02-1.53-1.68-1.43-1.22-2.4-1.55-2.89-.97Z"/><path class="b" d="M620.4,564.4c.51,.41,.97,.87,1.36,1.36,.39,.49,.69,1.01,.88,1.55,.19,.54,.24,1.09,.14,1.66-.1,.57-.37,1.14-.82,1.7-.56,.69-1.2,1.11-1.93,1.25-.73,.14-1.49,.08-2.27-.2-.79-.28-1.53-.7-2.23-1.26-.77-.62-1.36-1.27-1.79-1.96s-.64-1.4-.63-2.12,.31-1.44,.89-2.16c.73-.91,1.66-1.36,2.8-1.35s2.34,.52,3.61,1.54Zm-3.19,4.02c1.51,1.22,2.53,1.5,3.05,.86,.29-.35,.29-.76,.03-1.21-.27-.45-.78-.99-1.55-1.61-.77-.62-1.39-1-1.88-1.16-.49-.16-.88-.06-1.17,.3-.27,.34-.28,.73-.03,1.19,.25,.46,.77,1,1.55,1.63Z"/><path class="b" d="M620.18,556.27c.13-.17,.33-.36,.59-.57l2.07,1.88c-.2,.12-.4,.32-.61,.59-.34,.45-.44,.9-.29,1.37,.15,.46,.51,.91,1.07,1.34l3.99,3.05-1.59,2.07-7.86-6.02,1.21-1.59,1.5,.67,.08-.1c-.16-.27-.28-.57-.38-.89-.09-.32-.13-.64-.11-.96,.02-.32,.12-.61,.32-.87Z"/><path class="b" d="M623.44,551.87c.57-.79,1.26-1.22,2.06-1.31,.8-.09,1.68,.22,2.64,.92l5.26,3.84-1.12,1.54-1.31-.44-.03,.04c.22,.55,.32,1.05,.3,1.49-.02,.45-.21,.91-.56,1.4-.32,.45-.71,.72-1.15,.82-.44,.1-.91,.07-1.39-.09-.48-.16-.94-.4-1.37-.71-.84-.62-1.31-1.31-1.39-2.08-.08-.77,.17-1.6,.76-2.49l.7-1.05-.26-.19c-.78-.57-1.36-.57-1.77-.02-.33,.46-.54,1.15-.64,2.1l-1.99-.58c.09-1.1,.52-2.17,1.27-3.2Zm4.77,2.9l-.33,.52c-.48,.76-.37,1.4,.34,1.92,.63,.46,1.1,.47,1.42,.04,.2-.27,.24-.59,.11-.94s-.4-.69-.81-.99l-.73-.53Z"/><path class="b" d="M634.96,549.43c.19-.27,.33-.65,.43-1.15l1.7,1.18c-.03,.34-.11,.67-.22,.98-.12,.31-.28,.63-.5,.95-.52,.75-1.12,1.13-1.79,1.15-.67,.02-1.46-.29-2.36-.92l-3.81-2.65-.57,.81-1.15-.8,.14-1.37-1.39-1.71,1.02-1.46,1.67,1.16,1.04-1.49,1.77,1.23-1.04,1.49,3.77,2.62c.58,.4,1.02,.4,1.3-.01Z"/><path class="b" d="M627.53,539.49c.52-.78,1.18-.9,1.96-.37,.78,.52,.91,1.17,.38,1.95-.52,.78-1.17,.91-1.95,.38-.79-.53-.92-1.18-.4-1.96Zm3.98,1.11l8.22,5.51-1.46,2.17-8.22-5.51,1.45-2.17Z"/><path class="b" d="M640.79,535.33c.56,.36,1.06,.76,1.5,1.21,.45,.45,.79,.93,1.04,1.45,.25,.52,.35,1.06,.32,1.64-.03,.58-.25,1.17-.63,1.77-.48,.75-1.07,1.23-1.79,1.45-.71,.22-1.47,.24-2.28,.04s-1.6-.53-2.35-1.02c-.83-.53-1.49-1.12-1.99-1.76-.5-.64-.79-1.32-.85-2.04s.15-1.47,.65-2.25c.63-.98,1.51-1.53,2.64-1.65,1.13-.12,2.38,.26,3.76,1.14Zm-2.74,4.34c1.64,1.05,2.68,1.22,3.12,.53,.25-.38,.21-.79-.1-1.21s-.88-.9-1.71-1.43c-.83-.53-1.5-.85-2-.95-.51-.1-.88,.04-1.13,.42-.23,.37-.2,.76,.1,1.19s.87,.91,1.72,1.45Z"/><path class="b" d="M639.73,527.21c.43-.72,1.04-1.12,1.8-1.2,.77-.08,1.65,.17,2.64,.77l5.57,3.35-1.34,2.24-4.89-2.94c-.58-.35-1.04-.56-1.41-.63-.36-.07-.64,.05-.83,.37-.24,.39-.2,.78,.11,1.17,.31,.39,.95,.88,1.94,1.47l3.98,2.39-1.35,2.24-8.48-5.1,1.06-1.76,1.21,.39,.08-.14c-.59-.86-.62-1.73-.09-2.62Z"/><path class="b" d="M655.75,519.4l-4.52-1.53c-.4-.15-.83-.31-1.28-.49s-.87-.34-1.26-.5l-.03,.05c.37,.27,.76,.55,1.17,.84,.4,.29,.74,.54,1.02,.76l3.74,2.99-1.41,2.59-9.69-2.9,1.24-2.28,3.35,1.12c.48,.15,1,.34,1.55,.57s1.1,.46,1.61,.7l.03-.05c-.38-.26-.78-.54-1.22-.85-.43-.31-.89-.67-1.39-1.07l-2.89-2.33,1.43-2.64,3.57,1.2c.55,.19,1.08,.38,1.6,.58,.51,.2,.97,.38,1.38,.54l.04-.06c-.42-.26-.86-.54-1.32-.86-.46-.32-.89-.64-1.3-.97l-2.92-2.36,1.22-2.25,7.71,6.56-1.43,2.64Z"/><path class="b" d="M647.05,506.2c.42-.83,1.06-1.04,1.9-.61,.83,.42,1.04,1.05,.62,1.89-.42,.83-1.05,1.04-1.89,.62-.84-.43-1.05-1.06-.63-1.9Zm4.08,.62l8.83,4.48-1.18,2.33-8.83-4.49,1.18-2.33Z"/><path class="b" d="M660.66,505.16c.14-.29,.22-.69,.25-1.2l1.86,.91c.02,.34,0,.68-.07,1.01-.07,.33-.18,.67-.35,1.01-.4,.82-.93,1.29-1.59,1.41-.66,.12-1.48-.06-2.48-.55l-4.18-2.03-.43,.89-1.26-.62-.07-1.38-1.64-1.48,.78-1.6,1.83,.89,.8-1.63,1.94,.95-.8,1.63,4.13,2.01c.64,.31,1.07,.24,1.29-.21Z"/><path class="b" d="M652.42,495.45l2.54,1.16c.34,.16,.68,.33,1.01,.51,.34,.19,.65,.39,.94,.6l.06-.13c-.7-.75-.83-1.6-.4-2.54,.35-.77,.91-1.24,1.67-1.4,.76-.16,1.66,0,2.69,.47l5.91,2.7-1.09,2.37-5.19-2.38c-1.23-.56-1.97-.58-2.21-.06-.22,.47-.13,.88,.25,1.24,.38,.36,1.06,.76,2.03,1.21l4.22,1.93-1.09,2.37-12.44-5.69,1.09-2.37Z"/><path class="b" d="M658.62,483.3c.5-1.21,1.19-1.99,2.08-2.33,.89-.34,1.94-.26,3.14,.23,.8,.33,1.45,.75,1.95,1.28,.5,.52,.81,1.13,.92,1.83,.12,.7,0,1.47-.35,2.31l-.25,.6,4.09,1.69-1.04,2.53-11.88-4.89,1.34-3.25Zm2.06,1.1l-.21,.5,3.5,1.44,.14-.33c.19-.46,.2-.89,0-1.27-.19-.38-.62-.71-1.29-.99-1.06-.44-1.78-.22-2.14,.66Z"/><path class="b" d="M664.43,476.16c.35-.91,.89-1.51,1.64-1.8,.75-.29,1.68-.23,2.79,.2l6.09,2.32-.68,1.78-1.38-.08-.02,.05c.36,.47,.59,.92,.69,1.36,.1,.44,.04,.93-.17,1.49-.2,.52-.5,.88-.9,1.09-.4,.21-.86,.31-1.37,.28s-1.01-.13-1.5-.32c-.97-.37-1.61-.92-1.89-1.63s-.26-1.58,.08-2.6l.4-1.2-.3-.12c-.9-.34-1.47-.19-1.71,.45-.2,.53-.22,1.26-.06,2.19l-2.07-.04c-.2-1.09-.08-2.23,.38-3.42Zm5.36,1.54l-.18,.58c-.26,.86,.01,1.45,.83,1.76,.73,.28,1.19,.16,1.38-.34,.12-.31,.07-.63-.14-.94-.22-.31-.56-.56-1.05-.74l-.84-.32Z"/><path class="b" d="M667.72,467.12c.07-.2,.2-.44,.39-.72l2.55,1.15c-.15,.18-.29,.43-.4,.76-.19,.53-.14,.99,.15,1.39,.29,.39,.76,.71,1.43,.95l4.73,1.68-.87,2.46-9.33-3.31,.67-1.88,1.64,.18,.04-.12c-.23-.21-.44-.45-.63-.73-.19-.28-.32-.57-.4-.88-.08-.31-.07-.62,.04-.92Z"/><path class="b" d="M677.21,463.96c.1-.31,.13-.72,.08-1.22l1.96,.65c.07,.34,.09,.67,.06,1.01-.02,.33-.09,.68-.21,1.05-.29,.87-.75,1.4-1.39,1.61s-1.48,.14-2.53-.21l-4.41-1.46-.31,.94-1.33-.44-.25-1.35-1.82-1.25,.56-1.69,1.93,.64,.57-1.72,2.05,.68-.57,1.73,4.36,1.44c.67,.22,1.09,.1,1.25-.38Z"/><path class="b" d="M671.81,454.47c.24-.8,.73-1.34,1.46-1.61,.73-.27,1.64-.23,2.75,.1l6.21,1.9-.76,2.5-5.46-1.66c-.64-.2-1.15-.29-1.52-.27-.37,.02-.61,.21-.72,.56-.13,.44,0,.81,.39,1.11s1.14,.62,2.24,.96l4.44,1.36-.76,2.5-9.47-2.89,.6-1.96,1.27,.09,.05-.15c-.78-.69-1.02-1.53-.72-2.52Z"/><path class="b" d="M674.02,446.86c.3-1.1,.92-1.84,1.85-2.24,.93-.39,2.08-.4,3.44-.02l1.35,.37-1.26,4.56c.75,.2,1.34,.2,1.76,0s.71-.57,.87-1.15c.11-.42,.17-.82,.16-1.22,0-.4-.08-.84-.22-1.33l2.06,.57c.12,.46,.18,.93,.16,1.41-.01,.48-.09,.98-.24,1.5-.37,1.34-1.07,2.2-2.09,2.57-1.02,.37-2.31,.34-3.86-.08-1.6-.44-2.74-1.08-3.44-1.92-.7-.84-.88-1.85-.56-3.03Zm1.98,.49c-.09,.34-.02,.65,.22,.94,.24,.29,.71,.54,1.41,.74l.61-2.2c-.65-.18-1.16-.22-1.53-.12-.38,.1-.61,.31-.7,.65Z"/><path class="b" d="M676.47,437.39c.05-.21,.16-.46,.32-.76l2.65,.91c-.13,.19-.24,.45-.33,.79-.14,.55-.04,1,.28,1.37,.32,.37,.83,.63,1.51,.8l4.87,1.22-.63,2.53-9.6-2.41,.49-1.94,1.65,.02,.03-.12c-.25-.19-.48-.41-.7-.67-.21-.26-.38-.54-.49-.84-.11-.3-.13-.61-.05-.92Z"/><path class="b" d="M685.13,431.5c1.01,.23,1.71,.69,2.1,1.37,.39,.69,.47,1.53,.25,2.52-.11,.47-.25,.91-.43,1.33-.18,.42-.42,.81-.71,1.16l-2.42-.55c.29-.28,.55-.61,.8-.98s.42-.78,.52-1.21c.14-.6-.04-.95-.53-1.06-.13-.03-.26-.03-.4,0-.14,.04-.3,.14-.5,.31-.19,.17-.45,.44-.77,.81-.45,.52-.95,.89-1.51,1.1-.55,.21-1.17,.23-1.86,.07-.87-.2-1.49-.62-1.86-1.27-.38-.65-.45-1.45-.23-2.41,.11-.48,.28-.92,.51-1.31,.23-.4,.53-.79,.89-1.17l1.79,1.11c-.25,.24-.48,.5-.69,.79-.21,.29-.35,.58-.42,.9-.12,.5,.03,.8,.44,.89,.14,.03,.27,.03,.38-.01,.12-.04,.27-.15,.45-.31s.45-.43,.79-.78c.46-.51,.96-.9,1.5-1.16,.54-.26,1.18-.31,1.92-.14Z"/></g><g><path class="b" d="M685.67,396.09c.07-.61,.29-1.13,.68-1.56,.39-.43,.9-.74,1.54-.94,.64-.2,1.36-.25,2.15-.17,1.4,.15,2.44,.62,3.13,1.4,.69,.78,.96,1.88,.81,3.3-.12,1.09-.42,1.97-.92,2.65l-2.47-.27c.27-.37,.5-.77,.7-1.2s.32-.85,.36-1.25c.06-.56-.07-1-.39-1.32-.32-.32-.8-.51-1.43-.58-.6-.06-1.07,.03-1.43,.29s-.57,.68-.63,1.26c-.05,.44,0,.93,.15,1.46l-.7,.81-6.42-1.08,.62-5.76,2.36,.26-.38,3.51,2.29,.41c-.04-.27-.06-.5-.06-.7,0-.2,.01-.38,.03-.53Z"/><path class="b" d="M693.08,391.97c-1.04-.1-1.51-.65-1.42-1.67,.04-.48,.21-.83,.5-1.06,.29-.23,.69-.33,1.19-.28s.88,.21,1.12,.5c.25,.29,.35,.66,.3,1.13-.04,.47-.21,.83-.51,1.07-.29,.25-.69,.35-1.19,.31Z"/><path class="b" d="M695.55,377.36l-.37,5.95-12.83-.79,.37-5.95,2.32,.14-.2,3.22,2.69,.17,.18-2.98,2.34,.14-.18,2.98,3.13,.19,.2-3.22,2.35,.15Z"/><path class="b" d="M685.75,370.29c.03-.84,.36-1.48,1-1.93,.63-.45,1.53-.65,2.68-.61l6.49,.23-.09,2.61-5.7-.2c-.67-.02-1.18,.02-1.54,.14-.35,.11-.54,.36-.55,.73-.02,.46,.2,.78,.66,.97,.46,.19,1.26,.31,2.41,.35l4.64,.16-.09,2.61-9.89-.35,.07-2.05,1.25-.24v-.16c-.93-.46-1.38-1.21-1.34-2.25Z"/><path class="b" d="M682.3,363.08l2.79,.02c.37,0,.75,.02,1.13,.05,.38,.03,.75,.09,1.1,.16v-.14c-.94-.4-1.41-1.12-1.41-2.15,0-.85,.32-1.51,.95-1.96,.63-.46,1.51-.68,2.65-.67l6.5,.04-.02,2.61-5.71-.04c-1.36,0-2.04,.27-2.04,.85,0,.52,.24,.86,.74,1.03,.5,.17,1.28,.26,2.35,.27l4.64,.03-.02,2.61-13.68-.1,.02-2.61Z"/><path class="b" d="M685.84,352.85c-.02-.97,.26-1.73,.84-2.29,.58-.55,1.47-.84,2.66-.86l6.51-.13,.04,1.91-1.31,.44v.05c.51,.3,.89,.64,1.15,1,.25,.37,.39,.85,.4,1.45,.01,.55-.13,1-.42,1.35-.29,.35-.68,.6-1.16,.77-.48,.17-.99,.25-1.52,.27-1.04,.02-1.83-.25-2.37-.81-.53-.56-.83-1.37-.9-2.44l-.08-1.26h-.32c-.96,.03-1.43,.38-1.42,1.06,.01,.56,.27,1.25,.76,2.06l-1.93,.74c-.59-.94-.91-2.04-.93-3.31Zm5.55-.58l.05,.61c.08,.9,.56,1.34,1.43,1.32,.78-.02,1.16-.29,1.15-.83,0-.34-.17-.61-.49-.82-.32-.21-.73-.31-1.25-.3l-.9,.02Z"/><path class="b" d="M685.49,343.14c-.04-.84,.24-1.51,.83-2,.6-.5,1.47-.77,2.62-.83l6.49-.31,.12,2.61-5.7,.27c-.67,.03-1.18,.12-1.52,.26-.34,.14-.5,.4-.49,.77,.02,.46,.27,.76,.74,.91s1.28,.2,2.43,.14l4.64-.22,.12,2.61-9.89,.47-.1-2.05,1.23-.35v-.16c-.98-.39-1.48-1.09-1.53-2.12Z"/><path class="b" d="M695.21,334.36c.09,1.28-.25,2.27-1.02,2.96-.77,.7-2.03,1.11-3.76,1.23-.98,.07-1.87,0-2.67-.21-.8-.21-1.45-.58-1.94-1.12-.5-.54-.78-1.25-.85-2.15-.04-.51-.01-.98,.08-1.4,.09-.42,.23-.83,.43-1.21l2.13,.55c-.32,.59-.46,1.16-.42,1.71,.03,.44,.31,.77,.82,.99s1.25,.29,2.21,.22c1.89-.14,2.8-.7,2.73-1.68-.05-.71-.37-1.39-.95-2.04l2.21-.16c.3,.32,.53,.67,.69,1.07,.16,.4,.26,.82,.29,1.26Z"/><path class="b" d="M684.36,327.86c-.11-1.13,.2-2.05,.92-2.75,.73-.7,1.79-1.12,3.2-1.25l1.4-.14,.46,4.71c.78-.09,1.32-.29,1.65-.62,.32-.33,.46-.79,.4-1.39-.04-.43-.14-.83-.29-1.2-.15-.37-.38-.76-.68-1.16l2.13-.21c.28,.38,.5,.8,.66,1.26,.16,.46,.27,.95,.32,1.49,.14,1.38-.21,2.43-1.03,3.15-.82,.71-2.03,1.15-3.63,1.31-1.65,.16-2.95-.02-3.9-.56-.95-.53-1.49-1.41-1.61-2.63Zm2.02-.25c.03,.34,.21,.61,.54,.8s.85,.25,1.58,.19l-.22-2.28c-.67,.07-1.16,.21-1.48,.43-.32,.22-.46,.51-.42,.86Z"/><path class="b" d="M693.67,318.83c.12,.94-.24,1.72-1.08,2.34-.84,.62-2.06,1.03-3.65,1.23-1.58,.2-2.86,.1-3.82-.29-.96-.39-1.5-1.03-1.61-1.91-.06-.45,0-.87,.19-1.26,.19-.39,.51-.74,.98-1.07v-.09c-.43,.08-.77,.14-1.06,.19-.28,.05-.52,.09-.71,.12l-3.25,.41-.33-2.59,13.57-1.71,.26,2.07-.97,.49,.02,.16c.46,.25,.8,.5,1.02,.78,.23,.27,.37,.65,.43,1.12Zm-2.26-.53c-.05-.43-.3-.72-.75-.87-.45-.15-1.14-.17-2.08-.05l-.55,.07c-.88,.11-1.51,.29-1.9,.54-.39,.25-.55,.59-.5,1.03,.09,.74,1.08,.99,2.96,.75,1.98-.25,2.92-.74,2.82-1.48Z"/><path class="b" d="M691.59,305.66l.44,2.7-12.68,2.08-.96-5.84,2.29-.38,.52,3.14,3.13-.51-.48-2.93,2.29-.38,.48,2.93,4.97-.81Z"/><path class="b" d="M690.3,298.25l.47,2.57-13.46,2.47-.47-2.57,13.46-2.47Z"/><path class="b" d="M679.35,294.73c-.23-1.12-.02-2.06,.63-2.83,.65-.77,1.67-1.3,3.06-1.58l1.38-.28,.95,4.64c.76-.17,1.29-.43,1.57-.79,.29-.36,.37-.83,.25-1.42-.09-.42-.22-.81-.41-1.17s-.46-.71-.8-1.09l2.1-.43c.32,.35,.58,.75,.78,1.18s.36,.92,.47,1.45c.28,1.36,.05,2.44-.7,3.24s-1.9,1.35-3.48,1.68c-1.62,.33-2.93,.28-3.94-.15-1-.43-1.62-1.25-1.87-2.45Zm1.98-.46c.07,.34,.28,.59,.62,.74,.34,.15,.87,.16,1.59,.02l-.46-2.24c-.66,.13-1.13,.33-1.42,.58-.29,.26-.4,.55-.33,.9Z"/><path class="b" d="M682.86,287.22l-4.22,3.25-.64-2.75,2.48-1.67-2.95-.39-.63-2.74,5.23,1.04,4.39-3.38,.64,2.75-2.66,1.84,3.19,.45,.62,2.68-5.44-1.09Z"/><path class="b" d="M672.42,281.3c-.23-.91,.12-1.48,1.03-1.71,.91-.23,1.48,.11,1.7,1.02,.23,.91-.11,1.48-1.02,1.7-.92,.23-1.49-.1-1.72-1.01Zm3.49-2.22l9.6-2.43,.64,2.53-9.6,2.42-.64-2.53Z"/><path class="b" d="M671.07,275.58l3.16-.87c.19-.05,.42-.11,.71-.18,.29-.07,.63-.14,1.03-.23l-.02-.09c-.56-.12-.99-.32-1.31-.6-.31-.28-.53-.64-.65-1.08-.24-.86,0-1.65,.74-2.38,.73-.73,1.86-1.31,3.42-1.74,1.54-.42,2.82-.51,3.84-.27,1.02,.25,1.65,.82,1.9,1.71,.12,.43,.14,.82,.06,1.16-.08,.34-.3,.74-.67,1.17l.04,.14,1.09,.09,.56,2.03-13.19,3.64-.69-2.51Zm5.31-2.75c.12,.44,.41,.69,.88,.75,.47,.07,1.1-.01,1.91-.24l.52-.14c.91-.25,1.55-.53,1.92-.84,.36-.31,.49-.67,.37-1.1-.1-.35-.4-.55-.92-.6s-1.27,.05-2.25,.32c-1.82,.5-2.62,1.12-2.42,1.84Z"/><path class="b" d="M681.62,262.76l.75,2.5-13.11,3.92-.75-2.5,13.11-3.92Z"/><path class="b" d="M670.35,260.47c-.35-1.09-.24-2.05,.32-2.88s1.52-1.47,2.87-1.91l1.34-.43,1.45,4.5c.74-.25,1.23-.57,1.48-.96,.25-.39,.28-.87,.1-1.44-.13-.41-.31-.78-.54-1.11-.23-.33-.53-.66-.92-.99l2.04-.66c.35,.32,.66,.68,.91,1.09,.25,.41,.46,.87,.63,1.39,.43,1.33,.31,2.42-.34,3.3-.65,.87-1.74,1.55-3.27,2.04-1.58,.51-2.89,.6-3.93,.28-1.04-.32-1.75-1.06-2.13-2.23Zm1.92-.68c.11,.33,.34,.55,.7,.67,.36,.11,.89,.06,1.59-.15l-.7-2.18c-.64,.21-1.09,.45-1.35,.74-.26,.29-.34,.59-.23,.92Z"/><path class="b" d="M676.12,246.21l.93,2.57-12.09,4.37-2.01-5.57,2.18-.79,1.08,3,2.98-1.08-1.01-2.79,2.18-.79,1.01,2.79,4.74-1.71Z"/><path class="b" d="M662.59,238.48l9.22-3.6,.74,1.89-1.04,.74,.05,.13c1.05,.08,1.76,.59,2.12,1.53,.32,.82,.26,1.55-.16,2.21-.43,.66-1.17,1.19-2.23,1.61l-6.02,2.35-.95-2.43,5.25-2.05c.66-.26,1.13-.51,1.41-.76,.28-.25,.37-.52,.25-.81-.21-.53-.56-.76-1.07-.72-.51,.04-1.17,.23-1.99,.54l-4.63,1.8-.95-2.43Z"/><path class="b" d="M659.85,232.42c-.33-.77-.3-1.5,.09-2.17,.39-.67,1.11-1.23,2.17-1.68l5.98-2.53,1.02,2.4-5.25,2.22c-.62,.26-1.06,.52-1.34,.77-.27,.25-.33,.55-.19,.89,.18,.42,.51,.62,1.01,.6,.49-.02,1.27-.25,2.33-.7l4.28-1.81,1.02,2.4-9.12,3.86-.8-1.89,1.03-.75-.06-.15c-1.04-.03-1.76-.52-2.17-1.47Z"/><path class="b" d="M666.29,221.57c.39,.86,.28,1.71-.33,2.56-.62,.84-1.66,1.6-3.12,2.27-1.45,.66-2.7,.95-3.73,.86-1.04-.09-1.74-.53-2.11-1.34-.19-.42-.25-.83-.19-1.26,.06-.42,.27-.86,.62-1.31l-.04-.08c-.37,.2-.69,.36-.94,.5-.25,.14-.47,.25-.64,.32l-2.98,1.36-1.08-2.37,12.44-5.69,.87,1.9-.78,.75,.07,.15c.51,.1,.91,.24,1.21,.44,.3,.19,.55,.51,.75,.95Zm-2.32,.17c-.18-.39-.51-.59-.98-.6-.47,0-1.14,.18-2,.58l-.51,.23c-.81,.37-1.36,.73-1.65,1.08s-.35,.73-.17,1.13c.31,.68,1.33,.62,3.05-.17,1.81-.83,2.56-1.58,2.25-2.26Z"/><path class="b" d="M650.18,220.19c-.41-.84-.18-1.47,.67-1.88,.84-.41,1.47-.19,1.87,.65,.41,.84,.19,1.47-.65,1.88-.85,.41-1.48,.2-1.89-.65Zm2.97-2.88l8.91-4.31,1.14,2.35-8.91,4.31-1.14-2.35Z"/><path class="b" d="M649.96,211.36c-.38-.75-.4-1.47-.07-2.17,.34-.7,1.02-1.31,2.05-1.83l5.79-2.96,1.19,2.33-5.08,2.59c-.6,.3-1.02,.59-1.28,.86-.25,.27-.29,.57-.13,.9,.21,.41,.56,.58,1.05,.53s1.25-.34,2.27-.87l4.14-2.11,1.19,2.32-8.82,4.5-.93-1.83,.98-.82-.07-.15c-1.04,.05-1.8-.39-2.27-1.31Z"/><path class="b" d="M646.6,205c-.22-.41-.32-.81-.29-1.19,.03-.38,.22-.82,.56-1.32l-.07-.13-1.21,.42-1.08-1.97,8.09-4.42c1.41-.77,2.66-1.06,3.75-.86,1.09,.2,2.01,.97,2.74,2.32,.26,.48,.45,.95,.56,1.4,.11,.45,.16,.92,.14,1.39l-1.99,1.09c0-.56-.06-1.06-.17-1.51-.11-.45-.27-.86-.47-1.24-.28-.51-.62-.84-1.02-.99-.4-.16-.9-.07-1.48,.25l-.13,.07c-.17,.09-.38,.2-.62,.31-.25,.11-.46,.21-.65,.29l.04,.08c.58-.02,1.05,.07,1.42,.25s.67,.5,.91,.94c.43,.78,.37,1.61-.18,2.49-.54,.88-1.51,1.7-2.89,2.45-1.43,.78-2.68,1.17-3.73,1.15s-1.81-.43-2.25-1.24Zm1.59-1.77c.35,.64,1.4,.49,3.15-.47,1.62-.89,2.25-1.66,1.89-2.32-.2-.37-.53-.55-.98-.53-.45,.01-1.06,.23-1.81,.64l-.44,.24c-.85,.47-1.42,.89-1.71,1.27-.29,.38-.32,.77-.1,1.17Z"/></g></svg>