<?xml version="1.0" encoding="UTF-8"?><svg id="a" xmlns="http://www.w3.org/2000/svg" viewBox="0 0 720 720"><defs><style>.b{fill:#cc7f2e;}.c{fill:#231f20;}</style></defs><g><path class="b" d="M70.42,315.66c-.7,0-1.42-.07-2.14-.2-6.1-1.17-10.09-7.07-8.92-13.17,6.64-34.55,19.12-67.48,37.09-97.9,3.16-5.35,10.06-7.12,15.4-3.96,5.35,3.16,7.12,10.06,3.96,15.4-16.65,28.19-28.22,58.7-34.37,90.7-1.03,5.38-5.75,9.13-11.03,9.13Z"/><path class="b" d="M104.99,519.29c-3.88,0-7.65-2.01-9.74-5.6-16.79-28.93-28.67-60.38-35.32-93.47-5.63-28.04-7.33-56.58-5.07-84.82,.5-6.19,5.91-10.81,12.11-10.31,6.19,.5,10.81,5.92,10.31,12.11-2.1,26.16-.51,52.61,4.7,78.6,6.16,30.67,17.16,59.81,32.72,86.6,3.12,5.37,1.29,12.26-4.08,15.37-1.78,1.03-3.72,1.52-5.64,1.52Z"/><path class="b" d="M223.58,632.59c-1.76,0-3.54-.41-5.2-1.28-41.55-21.72-78.08-53.13-105.64-90.85-3.66-5.02-2.57-12.05,2.45-15.72,5.01-3.66,12.05-2.57,15.72,2.44,25.54,34.95,59.4,64.06,97.9,84.19,5.5,2.88,7.63,9.67,4.76,15.18-2.01,3.84-5.92,6.04-9.98,6.04Z"/><path class="b" d="M357.68,666.08h-.08c-37.97-.26-75.16-7.53-110.53-21.61-5.77-2.3-8.59-8.84-6.29-14.61,2.3-5.77,8.84-8.59,14.61-6.29,32.77,13.04,67.21,19.78,102.37,20.02,6.21,.04,11.21,5.11,11.17,11.32-.04,6.19-5.07,11.17-11.25,11.17Z"/><path class="b" d="M389.03,664.62c-5.71,0-10.6-4.33-11.18-10.13-.62-6.18,3.89-11.69,10.07-12.31,9.29-.93,18.67-2.34,27.88-4.19,59.58-11.96,112.65-41.93,153.48-86.67,4.19-4.59,11.3-4.91,15.89-.72,4.59,4.19,4.91,11.3,.72,15.89-44.08,48.3-101.37,80.65-165.67,93.56-9.93,1.99-20.04,3.51-30.06,4.52-.38,.04-.76,.06-1.14,.06Z"/><path class="b" d="M597.23,546.23c-2.32,0-4.66-.71-6.66-2.2-5-3.69-6.07-10.73-2.38-15.73,41.93-56.89,61.1-126.76,53.96-196.75-.63-6.18,3.87-11.7,10.05-12.33,6.18-.63,11.7,3.87,12.33,10.05,7.71,75.56-12.97,150.99-58.23,212.38-2.2,2.99-5.61,4.58-9.06,4.58Z"/><path class="b" d="M648.39,310.16c-5.2,0-9.87-3.63-10.99-8.92-4.21-19.91-10.54-39.33-18.81-57.73-2.55-5.67-.02-12.32,5.65-14.87,5.66-2.54,12.32-.02,14.87,5.65,8.92,19.86,15.75,40.82,20.29,62.29,1.29,6.08-2.6,12.05-8.68,13.33-.78,.17-1.57,.25-2.34,.25Z"/><path class="b" d="M613.97,221.37c-3.85,0-7.6-1.98-9.7-5.53-18.5-31.35-42.61-58.54-71.65-80.81-4.93-3.78-5.86-10.84-2.08-15.77,3.78-4.93,10.84-5.86,15.77-2.08,31.34,24.03,57.36,53.37,77.33,87.22,3.16,5.35,1.38,12.25-3.97,15.4-1.8,1.06-3.76,1.56-5.71,1.56Z"/><path class="b" d="M513.25,119.41c-1.99,0-4.01-.53-5.84-1.64-57.91-35.26-126.6-48.61-193.41-37.58-6.13,1.01-11.92-3.14-12.93-9.27-1.01-6.13,3.14-11.92,9.27-12.93,72.13-11.91,146.27,2.5,208.78,40.56,5.31,3.23,6.99,10.15,3.76,15.46-2.12,3.48-5.82,5.4-9.62,5.4Z"/><path class="b" d="M214.3,114.87c-3.91,0-7.72-2.05-9.79-5.69-3.07-5.4-1.18-12.27,4.22-15.34,21.98-12.49,45.54-22.22,70.04-28.94,5.99-1.64,12.18,1.88,13.82,7.87,1.64,5.99-1.88,12.18-7.87,13.82-22.7,6.22-44.52,15.24-64.87,26.81-1.75,1-3.66,1.47-5.55,1.47Z"/><path class="b" d="M123.65,195.02c-2.34,0-4.69-.73-6.71-2.23-4.98-3.71-6.01-10.76-2.3-15.74,18.81-25.25,41.26-47.34,66.72-65.66,5.04-3.63,12.07-2.48,15.7,2.56,3.63,5.04,2.48,12.07-2.56,15.7-23.59,16.97-44.39,37.44-61.82,60.84-2.21,2.96-5.6,4.53-9.03,4.53Z"/></g><g><g><path class="c" d="M332.04,73.52l-5.36,.58-1.47-13.49,5.36-.58,.15,1.42-3.78,.41,.47,4.32,3.55-.39,.15,1.42-3.55,.39,.53,4.89,3.78-.41,.16,1.44Z"/><path class="c" d="M337.15,62.65c1.65-.13,2.57,.96,2.76,3.27l.55,6.89-1.53,.12-.53-6.59c-.06-.8-.21-1.39-.45-1.78-.23-.39-.58-.56-1.03-.53-.66,.05-1.11,.38-1.35,.99-.24,.61-.31,1.57-.21,2.87l.42,5.28-1.53,.12-.81-10.17,1.23-.1,.28,1.37h.1c.17-.53,.45-.94,.83-1.25,.38-.3,.8-.47,1.28-.51Z"/><path class="c" d="M344.38,72.58l-3.09-10.06,1.57-.08,1.68,5.98c.11,.38,.21,.76,.31,1.14,.1,.39,.18,.79,.25,1.2h.08c.01-.22,.04-.5,.09-.85,.04-.34,.1-.73,.17-1.15l1.14-6.53,1.57-.08-2.07,10.32-1.71,.09Z"/><path class="c" d="M350.45,58.27c.58-.02,.89,.34,.91,1.07,.02,.72-.26,1.09-.84,1.11-.29,0-.52-.08-.68-.26-.16-.18-.25-.45-.26-.79-.02-.73,.27-1.11,.88-1.13Zm.87,3.81l.33,10.2-1.54,.05-.33-10.2,1.54-.05Z"/><path class="c" d="M357.6,61.76c.3,0,.6,.04,.88,.12l-.2,1.6c-.22-.09-.47-.13-.76-.12-.37,0-.69,.16-.96,.47-.27,.31-.48,.73-.63,1.25-.14,.53-.21,1.12-.2,1.78l.08,5.32-1.54,.02-.15-10.2,1.2-.02,.24,1.75h.1c.21-.6,.47-1.08,.81-1.43,.33-.35,.72-.53,1.16-.54Z"/><path class="c" d="M366.4,67.08c0,1.05-.14,1.98-.4,2.77-.25,.8-.64,1.41-1.15,1.85-.51,.44-1.17,.65-1.96,.65-.75,0-1.37-.24-1.88-.68-.5-.45-.88-1.07-1.12-1.86-.25-.79-.36-1.72-.35-2.79,.02-1.68,.31-2.98,.87-3.9,.57-.91,1.44-1.36,2.62-1.35,1.08,.01,1.91,.46,2.5,1.36,.59,.9,.88,2.21,.86,3.95Zm-5.28-.05c-.01,1.3,.13,2.29,.42,2.96,.29,.67,.76,1,1.41,1.01,1.24,.01,1.87-1.3,1.9-3.93,.02-2.62-.58-3.94-1.82-3.95-.66,0-1.14,.32-1.44,.98-.3,.66-.45,1.64-.46,2.94Z"/><path class="c" d="M372.64,62.01c1.66,.07,2.44,1.26,2.35,3.57l-.27,6.91-1.54-.06,.26-6.61c.03-.8-.05-1.4-.23-1.81-.19-.41-.51-.63-.96-.65-.66-.03-1.14,.25-1.46,.83-.31,.58-.5,1.52-.55,2.82l-.21,5.3-1.54-.06,.41-10.2,1.23,.05,.12,1.39h.09c.24-.49,.56-.87,.97-1.13,.41-.26,.85-.38,1.34-.36Z"/><path class="c" d="M386.1,62.87c1.59,.12,2.29,1.37,2.11,3.73l-.53,6.82-1.53-.12,.51-6.53c.07-.88,.01-1.52-.17-1.92-.19-.4-.49-.61-.92-.64-.61-.05-1.06,.21-1.36,.76-.3,.56-.49,1.39-.58,2.5l-.44,5.61-1.52-.12,.51-6.59c.07-.87,0-1.5-.18-1.88-.19-.38-.49-.59-.92-.62-.46-.04-.81,.09-1.08,.38s-.46,.71-.59,1.26c-.13,.55-.23,1.18-.28,1.9l-.41,5.32-1.53-.12,.79-10.17,1.23,.1,.06,1.4h.09c.49-1.01,1.25-1.48,2.3-1.4,.58,.05,1.03,.24,1.35,.57,.32,.34,.51,.74,.59,1.22h.11c.28-.53,.61-.92,.99-1.15,.38-.24,.84-.33,1.4-.29Z"/><path class="c" d="M394.2,63.73c.69,.08,1.24,.34,1.65,.79,.41,.45,.69,1.02,.83,1.72s.17,1.47,.08,2.31l-.12,1.06-4.81-.55c-.24,2.44,.37,3.75,1.82,3.92,.37,.04,.73,.03,1.1-.04,.37-.06,.76-.2,1.17-.41l-.16,1.36c-.75,.35-1.56,.47-2.43,.37-.87-.1-1.54-.41-2.01-.92-.47-.51-.78-1.18-.93-1.99-.15-.81-.17-1.71-.05-2.69,.2-1.72,.62-3.01,1.28-3.85,.65-.84,1.51-1.2,2.58-1.08Zm-.14,1.25c-.52-.06-.95,.15-1.29,.62-.35,.47-.61,1.22-.78,2.26l3.36,.39c.06-.55,.07-1.07,0-1.55-.06-.48-.2-.87-.41-1.18-.21-.31-.51-.49-.88-.53Z"/><path class="c" d="M403.36,64.91c1.64,.24,2.3,1.5,1.96,3.8l-.99,6.84-1.52-.22,.95-6.54c.11-.79,.1-1.4-.04-1.83-.14-.43-.44-.68-.89-.74-.65-.09-1.17,.13-1.54,.67-.37,.54-.65,1.46-.84,2.75l-.76,5.25-1.52-.22,1.46-10.1,1.22,.18-.03,1.4h.09c.29-.46,.65-.8,1.08-1.01,.43-.21,.89-.28,1.37-.21Z"/><path class="c" d="M409.5,75.23c.15,.03,.3,.03,.46,.02,.16-.01,.31-.03,.47-.05l-.21,1.24c-.22,.07-.44,.1-.68,.12-.24,0-.5,0-.77-.05-.66-.11-1.11-.42-1.35-.91-.24-.5-.28-1.19-.13-2.09l1.07-6.29-.94-.16,.14-.82,1.08-.24,.8-2.23,1.03,.18-.38,2.27,1.69,.29-.22,1.27-1.69-.29-1.04,6.11c-.09,.51-.09,.9,0,1.18,.08,.27,.3,.44,.67,.5Z"/><path class="c" d="M416.54,67.16c.95,.18,1.56,.61,1.84,1.29,.28,.68,.32,1.57,.1,2.66l-1.31,6.75-1.16-.22,.04-1.42h-.04c-.72,.94-1.59,1.31-2.6,1.12-.52-.1-.92-.32-1.2-.67-.28-.34-.45-.76-.51-1.24-.07-.48-.05-.99,.05-1.51,.19-.99,.63-1.71,1.31-2.15,.68-.44,1.55-.58,2.62-.42l1.15,.16,.13-.65c.15-.77,.15-1.36,.01-1.76-.14-.4-.45-.65-.92-.74-.55-.11-1.21-.02-2,.25l-.26-1.23c.88-.33,1.79-.41,2.75-.22Zm.1,5.46l-.91-.12c-1.36-.18-2.16,.38-2.42,1.68-.12,.62-.1,1.1,.05,1.42,.16,.33,.43,.53,.81,.6,.52,.1,.99-.07,1.39-.52,.4-.45,.69-1.14,.87-2.06l.2-1.01Z"/><path class="c" d="M421.19,78.73l-1.5-.32,3.04-14.12,1.5,.33-3.05,14.11Z"/><path class="c" d="M433.88,77.94c-.19,.74-.5,1.35-.93,1.85-.43,.5-.95,.85-1.54,1.04-.6,.2-1.25,.21-1.95,.03-1.07-.27-1.94-.69-2.6-1.26l.4-1.6c.36,.35,.76,.64,1.21,.88,.45,.24,.88,.41,1.3,.51,.61,.15,1.15,.06,1.6-.28,.45-.34,.75-.81,.91-1.42,.1-.42,.13-.79,.08-1.13-.05-.33-.2-.66-.43-.97-.23-.31-.57-.67-1.01-1.07-.44-.41-.82-.82-1.12-1.23-.3-.41-.5-.87-.59-1.37-.09-.51-.05-1.1,.13-1.79,.16-.69,.45-1.26,.87-1.71,.42-.45,.92-.75,1.5-.92,.58-.16,1.2-.16,1.85,0,.52,.13,.98,.32,1.41,.56,.42,.24,.78,.49,1.08,.75l-.85,1.29c-.63-.59-1.29-.97-1.97-1.14-.58-.14-1.07-.08-1.48,.2-.41,.28-.69,.71-.83,1.27-.11,.45-.15,.84-.1,1.16,.05,.32,.19,.63,.43,.94,.24,.31,.58,.66,1.03,1.06,.75,.67,1.25,1.35,1.52,2.03,.27,.68,.29,1.44,.08,2.29Z"/><path class="c" d="M437.69,81.63c.15,.04,.3,.06,.45,.07,.16,0,.32,0,.47,0l-.33,1.21c-.22,.04-.45,.06-.69,.05s-.49-.06-.76-.13c-.65-.18-1.06-.53-1.25-1.04-.19-.52-.16-1.22,.08-2.1l1.7-6.15-.92-.25,.22-.8,1.1-.13,1.02-2.14,1.01,.28-.61,2.22,1.65,.45-.34,1.25-1.65-.45-1.65,5.97c-.14,.5-.18,.89-.12,1.17,.05,.28,.26,.47,.61,.56Z"/><path class="c" d="M445.55,74.34c.67,.2,1.16,.56,1.48,1.07,.32,.51,.49,1.13,.52,1.84,.02,.71-.09,1.48-.33,2.29l-.31,1.02-4.64-1.39c-.67,2.37-.3,3.76,1.1,4.18,.35,.11,.72,.16,1.09,.16,.38,0,.78-.06,1.22-.2l-.39,1.31c-.8,.21-1.62,.19-2.46-.07-.84-.25-1.44-.67-1.81-1.26-.37-.59-.56-1.3-.56-2.12,0-.83,.14-1.71,.42-2.66,.5-1.66,1.14-2.85,1.93-3.57s1.7-.92,2.73-.61Zm-.36,1.2c-.5-.15-.96-.02-1.38,.38-.42,.4-.81,1.1-1.16,2.09l3.24,.97c.16-.53,.25-1.04,.28-1.52,.03-.48-.04-.89-.19-1.24-.15-.34-.41-.57-.78-.68Z"/><path class="c" d="M453.02,87.64l.86-6.23c.06-.37,.12-.74,.19-1.13,.07-.38,.14-.75,.2-1.1h-.04c-.17,.32-.34,.66-.53,1.01s-.36,.68-.53,.98l-3.16,5.45-1.67-.56,1.19-10.37,1.46,.49-.65,5.15c-.07,.53-.15,1.06-.24,1.61-.09,.55-.19,1.1-.29,1.64l.05,.02c.21-.41,.43-.86,.67-1.34s.52-.98,.83-1.5l2.66-4.56,1.62,.55-.67,5.25c-.04,.36-.11,.81-.2,1.34-.09,.53-.2,1.14-.32,1.82l.05,.02c.2-.47,.53-1.12,1-1.95l3.18-5.44,1.42,.48-5.39,8.95-1.69-.57Z"/><path class="c" d="M464.53,80.74c.9,.34,1.43,.87,1.6,1.58,.16,.72,.05,1.6-.34,2.64l-2.42,6.44-1.1-.41,.28-1.4h-.04c-.87,.8-1.79,1.02-2.75,.66-.5-.19-.85-.47-1.07-.86-.21-.39-.31-.82-.3-1.31,.01-.49,.11-.98,.3-1.48,.36-.95,.9-1.58,1.65-1.9,.74-.32,1.62-.31,2.65,.02l1.11,.35,.23-.62c.28-.73,.38-1.31,.3-1.73-.07-.42-.33-.71-.78-.88-.52-.2-1.19-.23-2.02-.09l-.05-1.26c.92-.18,1.84-.1,2.75,.24Zm-.81,5.4l-.87-.27c-1.31-.41-2.2,0-2.66,1.25-.22,.59-.28,1.06-.18,1.41,.1,.35,.33,.59,.7,.73,.5,.19,.98,.09,1.46-.29,.47-.38,.87-1,1.2-1.88l.36-.96Z"/><path class="c" d="M472.86,84.01c.28,.11,.54,.26,.76,.45l-.81,1.39c-.17-.16-.38-.3-.66-.41-.34-.14-.7-.12-1.07,.06-.37,.18-.73,.48-1.06,.91-.34,.43-.63,.95-.88,1.56l-1.99,4.93-1.43-.58,3.82-9.46,1.11,.45-.46,1.7,.09,.04c.42-.47,.85-.81,1.3-1,.44-.2,.87-.21,1.28-.05Z"/><path class="c" d="M473.23,95.65c-.9-.39-1.4-1.1-1.5-2.12-.11-1.03,.18-2.33,.86-3.91,.67-1.56,1.43-2.66,2.25-3.3,.83-.64,1.67-.78,2.54-.4,.43,.19,.78,.48,1.04,.87,.26,.4,.42,.87,.46,1.41l.07,.03c.19-.54,.36-.98,.51-1.31l1.64-3.8,1.41,.61-5.73,13.25-1.13-.49,.32-1.27-.09-.04c-.45,.33-.89,.54-1.32,.63-.43,.09-.88,.04-1.33-.16Zm.85-1.06c1.15,.5,2.19-.33,3.12-2.48l.23-.52c.52-1.21,.76-2.16,.72-2.84-.04-.69-.36-1.16-.97-1.42-.55-.24-1.08-.1-1.61,.41-.53,.51-1.04,1.35-1.54,2.51-1.05,2.43-1.04,3.88,.05,4.35Z"/><path class="c" d="M484.44,97.5c-.4,.85-.93,1.4-1.6,1.64-.67,.25-1.42,.18-2.25-.21-.42-.2-.79-.43-1.1-.69-.31-.26-.56-.53-.76-.8l.67-1.45c.16,.32,.39,.64,.69,.94,.31,.3,.65,.54,1.03,.72,.4,.19,.77,.22,1.11,.09,.34-.13,.61-.41,.81-.83,.17-.36,.2-.71,.11-1.06-.09-.35-.33-.8-.71-1.34-.41-.62-.7-1.22-.86-1.79-.17-.57-.08-1.22,.25-1.93,.34-.73,.85-1.21,1.54-1.43,.68-.22,1.41-.15,2.18,.21s1.38,.89,1.84,1.59l-1.04,.88c-.17-.27-.36-.52-.58-.74-.22-.22-.47-.4-.76-.53-.39-.18-.75-.21-1.07-.1-.33,.11-.57,.36-.74,.72-.17,.37-.2,.72-.09,1.05s.36,.79,.75,1.37c.41,.62,.7,1.22,.86,1.78s.08,1.2-.25,1.92Z"/><path class="c" d="M492.84,88.57l-1.82,3.66c-.25,.5-.51,.94-.78,1.31l.1,.05c.39-.36,.82-.57,1.3-.64,.48-.07,.93,0,1.35,.21,.78,.39,1.22,.94,1.31,1.65s-.11,1.57-.62,2.58l-3.08,6.19-1.38-.69,2.94-5.92c.38-.77,.57-1.36,.56-1.78s-.23-.73-.65-.94c-.59-.29-1.15-.24-1.67,.16-.53,.4-1.07,1.18-1.64,2.32l-2.36,4.75-1.38-.69,6.43-12.93,1.38,.69Z"/><path class="c" d="M498.99,96.46l-4.75,9.03-1.36-.72,4.75-9.03,1.36,.72Zm1.13-3.74c.52,.27,.6,.73,.26,1.38-.34,.64-.76,.82-1.28,.55-.26-.14-.41-.32-.46-.57-.05-.24,0-.51,.16-.82,.34-.65,.78-.83,1.32-.55Z"/><path class="c" d="M504.85,99.43c.85,.47,1.29,1.22,1.31,2.24,.02,1.02-.39,2.3-1.25,3.84-.82,1.47-1.67,2.49-2.55,3.06-.89,.57-1.74,.62-2.56,.17-.43-.24-.76-.58-.98-1.01-.22-.44-.32-.93-.29-1.48l-.07-.04c-.11,.25-.21,.47-.31,.68-.1,.21-.2,.39-.29,.56l-2.21,3.99-1.35-.75,7.16-12.91,1.1,.61-.51,1.31,.08,.04c.51-.35,.99-.55,1.44-.58,.45-.04,.87,.06,1.27,.28Zm-.94,1c-.55-.31-1.11-.28-1.67,.09-.56,.36-1.14,1.1-1.75,2.19l-.18,.33c-.65,1.17-.99,2.11-1.02,2.8s.24,1.2,.8,1.51c.51,.28,1.05,.22,1.61-.2s1.17-1.21,1.82-2.39c.64-1.15,1-2.09,1.08-2.8,.08-.71-.15-1.22-.7-1.53Z"/></g><g><path class="c" d="M549.13,138.35c-.49,.58-1.03,1.01-1.64,1.27-.61,.26-1.22,.35-1.84,.27-.62-.08-1.21-.36-1.77-.82-.85-.71-1.44-1.46-1.8-2.27l1.06-1.27c.17,.47,.4,.91,.71,1.32,.3,.41,.62,.75,.95,1.03,.49,.41,1.01,.55,1.56,.44,.56-.11,1.03-.41,1.43-.88,.28-.33,.46-.66,.56-.98,.1-.32,.11-.68,.03-1.06-.08-.38-.22-.85-.44-1.4-.22-.56-.38-1.1-.47-1.6-.09-.5-.07-1,.07-1.49,.14-.49,.44-1.01,.89-1.56,.44-.55,.95-.94,1.53-1.16,.57-.22,1.16-.28,1.75-.17,.59,.11,1.15,.38,1.67,.81,.41,.34,.75,.71,1.02,1.11,.28,.4,.49,.79,.65,1.15l-1.33,.79c-.32-.81-.74-1.44-1.28-1.88-.46-.38-.93-.53-1.42-.46-.49,.08-.92,.34-1.3,.78-.3,.36-.5,.69-.59,1-.09,.31-.1,.65-.02,1.03,.08,.38,.23,.85,.46,1.4,.38,.93,.54,1.76,.49,2.48-.06,.73-.36,1.43-.92,2.1Z"/><path class="c" d="M556.5,142.97c-.7,.79-1.4,1.4-2.12,1.83-.71,.43-1.41,.65-2.08,.65-.67,0-1.31-.27-1.91-.8-.56-.5-.88-1.08-.97-1.74-.09-.67,.04-1.38,.37-2.14,.33-.76,.85-1.54,1.56-2.34,1.12-1.26,2.19-2.05,3.21-2.37,1.03-.32,1.98-.09,2.86,.69,.81,.71,1.14,1.6,1,2.67-.14,1.07-.79,2.25-1.94,3.55Zm-3.96-3.5c-.86,.98-1.41,1.81-1.62,2.51-.22,.69-.08,1.26,.4,1.69,.93,.82,2.27,.25,4.01-1.73,1.74-1.96,2.14-3.36,1.21-4.18-.49-.44-1.07-.5-1.72-.2-.66,.3-1.41,.94-2.28,1.92Z"/><path class="c" d="M556.73,150.42c-1.65-1.54-1.29-3.58,1.09-6.13,1.14-1.22,2.24-1.99,3.3-2.3,1.06-.31,2.01-.07,2.86,.71,.29,.27,.52,.54,.7,.82,.18,.28,.32,.57,.41,.86l-1.22,.61c-.18-.51-.43-.92-.74-1.21-.95-.89-2.33-.37-4.14,1.57-1.77,1.9-2.18,3.3-1.21,4.2,.2,.19,.44,.35,.7,.49,.26,.13,.55,.24,.87,.33l-.88,.94c-.32-.05-.63-.16-.95-.34-.32-.17-.58-.36-.79-.56Z"/><path class="c" d="M567.78,146.61l-7.1,7.33-1.11-1.07,7.1-7.33,1.11,1.07Zm2.14-3.27c.42,.41,.37,.87-.14,1.4-.5,.52-.96,.58-1.38,.17-.21-.2-.3-.43-.29-.67s.15-.49,.38-.74c.51-.53,.99-.58,1.42-.16Z"/><path class="c" d="M571.91,150.44c.68,.68,.94,1.39,.79,2.11-.15,.72-.62,1.47-1.42,2.26l-4.89,4.84-.83-.84,.84-1.15-.03-.03c-1.13,.37-2.06,.19-2.78-.54-.37-.38-.58-.79-.61-1.23-.03-.44,.06-.88,.28-1.32s.51-.84,.89-1.22c.72-.71,1.48-1.06,2.29-1.04,.81,.02,1.61,.4,2.4,1.13l.86,.78,.47-.47c.56-.55,.89-1.04,1-1.45,.11-.41,0-.79-.34-1.13-.39-.4-.99-.7-1.8-.92l.48-1.17c.91,.22,1.71,.68,2.4,1.37Zm-2.99,4.57l-.68-.61c-1.02-.92-2-.91-2.94,.02-.45,.44-.7,.85-.76,1.21s.06,.68,.33,.96c.38,.38,.86,.49,1.44,.35,.59-.15,1.21-.55,1.88-1.21l.73-.72Z"/><path class="c" d="M569.21,162.6l-1.06-1.12,10.47-9.94,1.06,1.12-10.47,9.94Z"/><path class="c" d="M580.15,169.12c-.57,.5-1.17,.84-1.81,1.01-.64,.17-1.26,.16-1.86-.01-.6-.18-1.15-.53-1.62-1.07-.73-.82-1.21-1.66-1.44-2.51l1.24-1.1c.1,.49,.26,.96,.5,1.41,.24,.45,.5,.84,.79,1.16,.42,.47,.91,.7,1.48,.67,.57-.03,1.08-.25,1.55-.66,.32-.29,.56-.58,.7-.89,.14-.31,.21-.65,.19-1.05-.02-.39-.09-.87-.23-1.45-.13-.59-.21-1.14-.23-1.65-.02-.51,.08-1,.29-1.46,.21-.47,.58-.94,1.12-1.41,.52-.48,1.08-.79,1.68-.92,.6-.13,1.19-.1,1.76,.09,.57,.2,1.08,.54,1.53,1.05,.35,.4,.63,.82,.85,1.26,.21,.44,.37,.85,.47,1.23l-1.44,.59c-.19-.85-.52-1.53-.98-2.05-.39-.45-.84-.67-1.34-.67-.5,0-.97,.19-1.4,.58-.35,.31-.6,.61-.73,.91s-.2,.63-.18,1.02c.02,.39,.1,.87,.25,1.46,.24,.97,.27,1.82,.11,2.53-.16,.71-.57,1.36-1.23,1.94Z"/><path class="c" d="M588.47,168.66c.45,.53,.67,1.1,.65,1.71-.01,.6-.21,1.21-.58,1.82-.37,.61-.88,1.19-1.54,1.73l-.82,.68-3.11-3.71c-1.86,1.61-2.32,2.97-1.37,4.1,.24,.28,.51,.53,.83,.73,.31,.21,.69,.37,1.13,.5l-1.05,.88c-.79-.27-1.46-.73-2.02-1.4s-.84-1.35-.82-2.05,.24-1.39,.7-2.08c.45-.69,1.06-1.36,1.81-1.99,1.33-1.11,2.52-1.75,3.57-1.92s1.92,.17,2.62,.99Zm-.96,.81c-.33-.4-.79-.55-1.36-.44-.58,.1-1.28,.47-2.12,1.11l2.17,2.59c.43-.36,.78-.73,1.07-1.12,.29-.39,.46-.77,.52-1.14s-.03-.7-.28-1Z"/><path class="c" d="M594.14,175.6c.19,.24,.34,.49,.44,.77l-1.39,.82c-.06-.22-.19-.45-.37-.68-.23-.29-.55-.45-.96-.47-.41-.03-.87,.06-1.38,.27s-1.02,.52-1.53,.93l-4.16,3.32-.96-1.2,7.98-6.36,.75,.93-1.24,1.25,.06,.07c.6-.2,1.14-.28,1.62-.24,.48,.04,.86,.24,1.14,.59Z"/><path class="c" d="M588.35,185.08l6.56-8.22,.96,1.25-3.99,4.76c-.25,.3-.51,.6-.77,.9-.27,.3-.55,.59-.85,.89l.05,.06c.19-.11,.43-.24,.75-.4,.31-.16,.66-.33,1.04-.51l6.04-2.73,.96,1.26-9.7,4.11-1.04-1.36Z"/><path class="c" d="M600.95,184.92l-8.24,6.02-.91-1.24,8.24-6.02,.91,1.24Zm2.66-2.86c.34,.47,.22,.92-.38,1.36-.58,.43-1.05,.4-1.39-.07-.17-.23-.23-.47-.17-.71,.06-.24,.23-.46,.5-.66,.59-.43,1.07-.4,1.43,.09Z"/><path class="c" d="M595.78,195.57c-1.3-1.85-.52-3.77,2.33-5.77,1.37-.96,2.6-1.48,3.71-1.57,1.1-.08,1.98,.34,2.65,1.29,.23,.32,.4,.64,.52,.95,.12,.31,.19,.62,.22,.93l-1.32,.34c-.07-.54-.23-.98-.47-1.34-.75-1.07-2.21-.84-4.38,.68-2.12,1.49-2.81,2.78-2.05,3.86,.16,.23,.36,.44,.59,.62s.49,.35,.78,.51l-1.06,.74c-.3-.12-.58-.29-.86-.53-.27-.23-.49-.47-.66-.71Z"/><path class="c" d="M608.28,195.17c.39,.58,.54,1.17,.46,1.77-.08,.6-.34,1.18-.78,1.75-.44,.57-1.01,1.08-1.72,1.55l-.89,.59-2.68-4.04c-2.03,1.39-2.63,2.7-1.82,3.92,.2,.31,.45,.58,.74,.82,.29,.24,.65,.45,1.07,.63l-1.14,.76c-.75-.35-1.37-.89-1.85-1.62-.48-.73-.68-1.44-.59-2.13,.09-.69,.4-1.36,.92-1.99,.53-.64,1.2-1.23,2.02-1.78,1.45-.96,2.7-1.46,3.77-1.51,1.06-.04,1.89,.38,2.49,1.28Zm-1.04,.69c-.29-.43-.72-.63-1.31-.59-.58,.04-1.33,.33-2.23,.87l1.87,2.82c.46-.31,.86-.64,1.19-.99,.33-.35,.54-.71,.64-1.08,.1-.36,.05-.7-.16-1.02Z"/><path class="c" d="M607.24,207.71c-.79,.5-1.54,.67-2.24,.51-.7-.16-1.29-.63-1.77-1.4-.25-.4-.43-.79-.55-1.18-.12-.39-.18-.75-.2-1.09l1.35-.85c-.04,.36-.02,.75,.07,1.17,.09,.42,.25,.81,.47,1.16,.24,.38,.53,.6,.89,.68,.35,.08,.73,0,1.13-.26,.33-.21,.55-.49,.67-.83,.11-.35,.16-.85,.13-1.51,0-.75,.08-1.4,.25-1.97,.17-.57,.59-1.07,1.26-1.48,.69-.43,1.38-.55,2.07-.37,.69,.18,1.26,.64,1.72,1.36,.45,.72,.68,1.5,.68,2.33l-1.35,.17c0-.32-.02-.63-.08-.94-.06-.3-.18-.59-.35-.86-.23-.36-.51-.59-.85-.67-.33-.08-.67-.01-1.02,.2-.34,.22-.56,.49-.65,.83-.09,.34-.13,.86-.12,1.56,0,.75-.08,1.4-.25,1.96-.17,.56-.59,1.05-1.25,1.47Z"/></g><g><path class="c" d="M622.75,252.34c-.08-.21-.15-.42-.2-.63-.05-.21-.07-.4-.07-.6l1.32-.53c0,.16,.01,.34,.05,.51,.04,.18,.09,.36,.17,.55,.16,.39,.43,.61,.82,.65,.39,.05,.99-.09,1.79-.41l12.49-5,.59,1.48-12.61,5.05c-1.23,.5-2.19,.64-2.87,.42-.68-.21-1.18-.71-1.49-1.5Z"/><path class="c" d="M639.85,258.12l-9.56,3.58-.43-1.16,1.22-.64-.04-.11c-.55-.02-1.02-.17-1.4-.44-.38-.27-.66-.63-.83-1.08-.32-.87-.23-1.59,.27-2.18,.5-.59,1.29-1.08,2.36-1.48l6.23-2.33,.54,1.44-5.96,2.23c-.84,.31-1.43,.64-1.76,.98-.33,.34-.42,.71-.27,1.12,.25,.66,.69,1.03,1.34,1.08,.64,.06,1.54-.13,2.67-.55l5.09-1.9,.54,1.44Z"/><path class="c" d="M635.24,267.59c-.89,.31-1.65,.3-2.3-.01-.64-.31-1.11-.9-1.41-1.76-.15-.44-.24-.87-.27-1.27-.03-.41,0-.77,.05-1.1l1.51-.52c-.12,.34-.19,.72-.2,1.15,0,.43,.06,.84,.2,1.24,.14,.42,.38,.71,.71,.86,.33,.15,.71,.16,1.16,0,.37-.13,.65-.35,.84-.66s.34-.79,.47-1.44c.17-.73,.4-1.35,.7-1.87,.3-.52,.82-.9,1.56-1.16,.77-.26,1.47-.23,2.1,.11,.63,.34,1.09,.91,1.36,1.71,.28,.8,.32,1.61,.13,2.43l-1.35-.14c.08-.31,.12-.62,.13-.93,0-.31-.04-.62-.14-.91-.14-.41-.36-.69-.67-.84-.31-.16-.65-.17-1.04-.04-.38,.13-.66,.35-.82,.66-.16,.31-.32,.81-.47,1.49-.17,.73-.4,1.34-.69,1.85-.29,.51-.81,.89-1.55,1.15Z"/><path class="c" d="M635.14,272.36c.05,.15,.11,.28,.19,.42,.08,.13,.17,.26,.27,.39l-1.19,.38c-.16-.16-.3-.35-.42-.56s-.22-.44-.31-.71c-.21-.64-.14-1.18,.19-1.62,.33-.44,.93-.8,1.8-1.08l6.08-1.95-.29-.9,.8-.26,.71,.85,2.35-.32,.32,.99-2.19,.7,.52,1.63-1.23,.4-.52-1.63-5.9,1.9c-.49,.16-.84,.34-1.04,.53-.2,.2-.25,.47-.13,.82Z"/><path class="c" d="M644.99,273.66l-9.76,2.97-.45-1.47,9.76-2.97,.45,1.47Zm3.46-1.83c.17,.56-.1,.94-.8,1.16-.69,.21-1.12,.04-1.29-.52-.08-.28-.06-.52,.08-.73,.14-.21,.37-.36,.69-.46,.7-.21,1.14-.03,1.32,.55Z"/><path class="c" d="M636.6,282.03c-.62-2.17,.75-3.73,4.1-4.68,1.61-.46,2.95-.54,4.01-.26,1.07,.28,1.76,.98,2.07,2.09,.11,.38,.17,.73,.17,1.07,0,.33-.02,.65-.1,.95l-1.35-.11c.11-.53,.11-1.01,0-1.42-.36-1.25-1.81-1.52-4.35-.8-2.5,.71-3.57,1.7-3.21,2.96,.08,.27,.19,.53,.35,.78,.16,.25,.35,.5,.57,.74l-1.24,.35c-.24-.21-.45-.47-.63-.78-.18-.31-.31-.61-.39-.89Z"/><path class="c" d="M648.54,285.79c.17,.68,.12,1.28-.15,1.82-.27,.54-.71,1.01-1.31,1.4-.6,.39-1.31,.69-2.13,.9l-1.03,.26-1.2-4.69c-2.37,.65-3.38,1.68-3.01,3.1,.09,.36,.23,.69,.43,1.02,.19,.32,.46,.64,.8,.94l-1.33,.34c-.59-.58-1-1.29-1.21-2.14-.22-.85-.17-1.58,.14-2.2,.31-.62,.82-1.15,1.53-1.58,.71-.43,1.54-.77,2.5-1.01,1.68-.43,3.03-.49,4.05-.18,1.02,.31,1.66,.98,1.93,2.02Zm-1.21,.31c-.13-.5-.48-.83-1.04-.99-.56-.16-1.36-.13-2.39,.08l.84,3.28c.54-.14,1.02-.32,1.45-.55,.43-.23,.75-.5,.96-.8,.21-.31,.28-.65,.18-1.02Z"/></g><g><path class="c" d="M231.91,102.31l-1.42,.73-2.91-5.66-3.72,1.91,2.91,5.66-1.42,.73-6.2-12.07,1.42-.73,2.63,5.12,3.72-1.91-2.63-5.12,1.42-.73,6.2,12.07Z"/><path class="c" d="M237.95,93.76c.45,.95,.73,1.84,.85,2.67,.12,.83,.04,1.55-.23,2.17-.27,.62-.76,1.1-1.49,1.44-.68,.32-1.34,.39-1.98,.2-.65-.18-1.26-.58-1.82-1.19-.57-.61-1.08-1.39-1.53-2.35-.72-1.52-1.02-2.82-.91-3.89,.11-1.07,.7-1.85,1.76-2.36,.97-.46,1.92-.42,2.85,.13,.93,.55,1.76,1.61,2.5,3.18Zm-4.77,2.26c.56,1.18,1.11,2.01,1.67,2.48,.55,.47,1.12,.57,1.71,.3,1.12-.53,1.12-1.99,0-4.37-1.12-2.37-2.24-3.29-3.36-2.76-.6,.28-.88,.78-.87,1.5,.02,.72,.31,1.67,.86,2.85Z"/><path class="c" d="M243.68,85.68l4.08,9.35-1.13,.49-.7-1.19-.1,.05c0,.55-.12,1.02-.36,1.42-.25,.4-.59,.69-1.03,.89-.85,.37-1.58,.32-2.19-.15-.61-.47-1.15-1.23-1.6-2.27l-2.66-6.1,1.41-.61,2.54,5.83c.36,.82,.72,1.39,1.08,1.71,.36,.31,.73,.38,1.13,.21,.65-.28,.99-.75,1.01-1.39s-.21-1.53-.7-2.64l-2.17-4.98,1.41-.61Z"/><path class="c" d="M253.38,89.78c.35,.87,.39,1.64,.11,2.29-.28,.66-.84,1.16-1.69,1.5-.43,.18-.85,.29-1.26,.33-.4,.05-.77,.05-1.1,0l-.6-1.48c.34,.11,.73,.15,1.16,.14,.43-.02,.84-.1,1.23-.26,.41-.17,.69-.42,.82-.75,.14-.34,.12-.72-.06-1.15-.15-.37-.38-.63-.7-.8-.32-.17-.81-.3-1.46-.39-.73-.13-1.37-.32-1.9-.59-.53-.27-.95-.77-1.24-1.5-.3-.75-.3-1.45,0-2.1,.3-.65,.85-1.13,1.64-1.45s1.59-.4,2.42-.26l-.06,1.36c-.31-.06-.63-.09-.94-.08-.31,0-.61,.07-.91,.19-.4,.16-.67,.4-.81,.72-.14,.31-.13,.66,.02,1.04,.15,.38,.39,.64,.71,.78,.32,.14,.82,.28,1.51,.39,.73,.13,1.36,.32,1.89,.59,.52,.27,.93,.76,1.23,1.49Z"/><path class="c" d="M251.96,78.22c.54-.21,.95,.03,1.21,.72,.26,.68,.12,1.12-.43,1.32-.27,.11-.52,.1-.73-.02-.22-.12-.38-.34-.51-.66-.26-.69-.11-1.14,.46-1.36Zm2.06,3.32l3.65,9.53-1.44,.55-3.65-9.53,1.44-.55Z"/><path class="c" d="M260.1,79.1c1.56-.56,2.73,.25,3.51,2.44l2.33,6.51-1.45,.52-2.23-6.23c-.27-.75-.57-1.28-.89-1.6-.33-.31-.71-.39-1.13-.24-.62,.22-.97,.66-1.04,1.31-.08,.65,.11,1.59,.54,2.82l1.78,4.99-1.45,.52-3.43-9.61,1.16-.42,.63,1.25,.09-.03c.03-.55,.19-1.02,.48-1.41,.28-.39,.65-.67,1.11-.83Z"/><path class="c" d="M267.58,76.56c.46-.15,.9-.16,1.31-.04,.42,.12,.84,.4,1.27,.83l.09-.03-.25-1.34,1.23-.4,3.17,9.82c.44,1.35,.48,2.49,.14,3.41-.34,.92-1.16,1.59-2.45,2.01-.45,.14-.87,.23-1.26,.26s-.8,0-1.21-.08l-.45-1.39c.96,.17,1.78,.14,2.47-.08,.73-.24,1.23-.61,1.48-1.13,.25-.51,.23-1.24-.08-2.18l-.09-.29c-.07-.21-.13-.44-.21-.7-.07-.26-.14-.54-.21-.84l-.07,.02c-.19,1.19-.75,1.94-1.69,2.24-.89,.29-1.72,.09-2.47-.6-.75-.69-1.4-1.85-1.93-3.49-.54-1.69-.7-3.04-.47-4.05,.23-1.01,.79-1.66,1.67-1.95Zm.73,1.2c-.57,.18-.88,.64-.94,1.37-.06,.73,.11,1.72,.52,2.96,.42,1.29,.86,2.18,1.32,2.68,.47,.49,.99,.65,1.57,.46,1.18-.38,1.41-1.68,.7-3.9l-.15-.45c-.41-1.28-.86-2.17-1.35-2.67-.49-.5-1.05-.65-1.67-.45Z"/></g><g><path class="c" d="M136.96,178.3l-.99,1.25-4.98-3.96-2.6,3.27,4.98,3.96-.99,1.25-10.62-8.44,.99-1.25,4.51,3.58,2.6-3.27-4.51-3.58,.99-1.25,10.62,8.44Z"/><path class="c" d="M132.59,167.36c.45-.53,.98-.84,1.57-.93,.6-.09,1.23,0,1.9,.26,.66,.26,1.32,.67,1.97,1.22l.81,.69-3.13,3.7c1.9,1.56,3.32,1.78,4.27,.66,.24-.28,.43-.59,.58-.94,.15-.35,.25-.74,.31-1.2l1.04,.88c-.13,.82-.48,1.56-1.04,2.23s-1.19,1.05-1.88,1.16c-.69,.11-1.41,0-2.17-.33-.76-.33-1.52-.81-2.27-1.45-1.32-1.12-2.16-2.19-2.5-3.2s-.16-1.93,.53-2.75Zm.96,.81c-.34,.4-.4,.87-.21,1.42,.2,.55,.68,1.18,1.45,1.9l2.19-2.58c-.43-.36-.85-.65-1.29-.86-.43-.22-.84-.32-1.21-.32-.38,0-.69,.15-.93,.44Z"/><path class="c" d="M138.04,161.09c.64-.72,1.33-1.02,2.06-.91s1.51,.53,2.34,1.28l5.12,4.59-.79,.88-1.2-.77-.02,.03c.44,1.11,.31,2.04-.37,2.81-.35,.4-.75,.62-1.19,.68-.44,.06-.88,0-1.33-.2-.45-.19-.87-.46-1.27-.82-.75-.68-1.15-1.42-1.17-2.22-.03-.81,.3-1.63,.98-2.46l.73-.9-.5-.44c-.58-.52-1.09-.83-1.5-.91-.42-.08-.79,.05-1.11,.41-.37,.42-.64,1.03-.81,1.85l-1.19-.41c.16-.92,.57-1.75,1.22-2.48Zm4.74,2.71l-.57,.72c-.86,1.07-.79,2.05,.2,2.94,.47,.42,.89,.65,1.25,.69,.36,.03,.67-.1,.93-.39,.35-.4,.44-.88,.26-1.46s-.62-1.18-1.32-1.81l-.76-.68Z"/><path class="c" d="M150.35,163.04l-1.05,1.12-10.55-9.86,1.05-1.12,10.55,9.86Z"/><path class="c" d="M153.03,158.53c.11-.11,.2-.23,.28-.37,.08-.14,.15-.28,.22-.42l.9,.87c-.07,.22-.17,.43-.29,.63-.13,.2-.29,.41-.48,.61-.47,.48-.97,.68-1.51,.6-.54-.08-1.14-.44-1.8-1.08l-4.59-4.43-.66,.68-.6-.58,.41-1.03-1.39-1.92,.73-.75,1.65,1.6,1.19-1.23,.93,.9-1.19,1.23,4.46,4.3c.37,.36,.7,.58,.97,.67,.27,.08,.53,0,.79-.27Z"/><path class="c" d="M146.58,146.18l2.87,2.91c.39,.4,.72,.78,.99,1.16l.08-.08c-.21-.49-.27-.97-.18-1.44,.09-.47,.31-.88,.64-1.2,.62-.61,1.28-.85,1.99-.7,.7,.14,1.45,.62,2.24,1.42l4.86,4.93-1.1,1.08-4.64-4.71c-.6-.61-1.11-.98-1.5-1.11-.4-.12-.76-.02-1.1,.31-.47,.46-.6,1.01-.39,1.64,.21,.63,.76,1.4,1.66,2.31l3.72,3.77-1.1,1.08-10.14-10.28,1.1-1.08Z"/><path class="c" d="M159.46,136.88c-.52,.47-.76,1.04-.74,1.71,.03,.67,.25,1.39,.67,2.15,.42,.77,.96,1.51,1.61,2.23,1.16,1.28,2.27,2.09,3.34,2.45,1.07,.36,1.94,.22,2.63-.4,.28-.26,.51-.53,.7-.83,.18-.3,.34-.6,.46-.92l.97,1.07c-.22,.66-.65,1.29-1.3,1.87-.68,.62-1.46,.95-2.33,.99-.87,.04-1.79-.2-2.76-.73s-1.95-1.33-2.94-2.42c-.87-.96-1.53-1.93-2-2.94-.46-1-.66-1.96-.58-2.87,.08-.92,.49-1.72,1.25-2.41,.67-.6,1.44-1,2.33-1.19l.48,1.38c-.33,.06-.64,.15-.95,.28-.31,.13-.59,.32-.85,.56Z"/><path class="c" d="M166.31,133.45c.73-.63,1.45-.84,2.16-.63,.71,.2,1.42,.73,2.15,1.57l4.47,5.22-.89,.77-1.09-.92-.03,.02c.29,1.15,.04,2.06-.74,2.73-.4,.35-.83,.52-1.27,.52-.44,0-.87-.12-1.29-.37-.42-.25-.8-.57-1.15-.98-.66-.77-.95-1.56-.87-2.36,.08-.8,.51-1.57,1.3-2.31l.84-.8-.43-.5c-.51-.6-.97-.96-1.37-1.1-.4-.14-.79-.05-1.15,.26-.42,.36-.77,.94-1.05,1.72l-1.13-.56c.28-.89,.8-1.66,1.54-2.29Zm4.34,3.31l-.66,.64c-.99,.95-1.05,1.93-.19,2.94,.41,.48,.79,.76,1.15,.84,.35,.08,.68,0,.98-.26,.4-.35,.55-.82,.45-1.41-.1-.6-.46-1.25-1.07-1.96l-.67-.78Z"/><path class="c" d="M173.18,127.74c.24-.19,.49-.34,.76-.45l.83,1.38c-.22,.07-.45,.19-.67,.38-.28,.23-.44,.55-.46,.97s.07,.87,.29,1.37c.21,.5,.53,1.01,.95,1.52l3.36,4.12-1.19,.97-6.45-7.91,.93-.76,1.27,1.22,.07-.06c-.21-.6-.29-1.14-.25-1.62,.04-.48,.23-.86,.58-1.14Z"/><path class="c" d="M177.33,124.49c.55-.43,1.13-.62,1.73-.59,.6,.04,1.21,.25,1.8,.65,.6,.4,1.15,.93,1.68,1.6l.65,.84-3.82,2.97c1.54,1.92,2.89,2.42,4.05,1.52,.29-.23,.54-.49,.76-.8,.22-.31,.4-.68,.54-1.11l.84,1.08c-.3,.78-.79,1.43-1.48,1.97-.69,.54-1.38,.79-2.08,.75-.7-.04-1.38-.29-2.06-.77-.68-.48-1.32-1.11-1.92-1.89-1.07-1.37-1.66-2.58-1.79-3.64-.12-1.06,.24-1.92,1.09-2.58Zm.77,.99c-.41,.32-.57,.77-.49,1.35,.08,.58,.42,1.3,1.03,2.16l2.67-2.08c-.34-.44-.7-.81-1.08-1.11-.38-.3-.75-.49-1.12-.56-.37-.07-.71,0-1.01,.24Z"/></g><g><path class="c" d="M79.74,294.86l-1.16,5.27-13.25-2.91,1.16-5.27,1.39,.31-.82,3.71,4.25,.93,.77-3.49,1.39,.31-.77,3.49,4.81,1.06,.82-3.71,1.41,.31Z"/><path class="c" d="M72.17,282.28c.4-1.55,1.74-2.02,4.04-1.43l6.62,1.71-.38,1.49-6.35-1.64c-.86-.22-1.5-.27-1.92-.16-.42,.11-.69,.38-.79,.8-.15,.59,.02,1.08,.52,1.47,.49,.39,1.28,.72,2.36,1l5.45,1.41-.38,1.47-6.4-1.65c-.85-.22-1.47-.27-1.88-.15-.41,.12-.67,.38-.77,.8-.11,.44-.05,.82,.19,1.13,.24,.31,.62,.58,1.14,.8,.52,.23,1.13,.43,1.82,.61l5.17,1.33-.38,1.49-9.88-2.55,.31-1.2,1.39,.18,.02-.09c-.92-.65-1.24-1.49-.98-2.51,.15-.56,.41-.97,.8-1.23,.39-.25,.82-.38,1.3-.37l.03-.11c-.48-.37-.8-.76-.97-1.17-.17-.41-.18-.89-.04-1.42Z"/><path class="c" d="M74.67,273.56c.28-.93,.91-1.52,1.9-1.76,.99-.24,2.33-.11,4.02,.4,1.61,.48,2.79,1.1,3.53,1.84,.74,.75,.98,1.57,.71,2.46-.14,.47-.4,.86-.78,1.17-.38,.31-.84,.51-1.38,.6l-.02,.07c.26,.05,.5,.1,.73,.16,.22,.05,.42,.11,.61,.16l4.37,1.31-.44,1.47-14.14-4.23,.36-1.2,1.38,.22,.03-.09c-.45-.43-.75-.85-.88-1.28-.13-.43-.13-.86,0-1.3Zm1.17,.71c-.18,.61-.03,1.14,.44,1.61,.47,.47,1.31,.88,2.51,1.24l.37,.11c1.29,.38,2.27,.52,2.95,.4,.68-.12,1.12-.49,1.3-1.11,.17-.56-.01-1.07-.54-1.53-.53-.46-1.44-.89-2.72-1.27-1.26-.38-2.25-.53-2.97-.46-.71,.07-1.16,.41-1.35,1.02Z"/><path class="c" d="M86.63,270.17l-.47,1.46-13.74-4.45,.48-1.46,13.74,4.45Z"/><path class="c" d="M84.71,259.99c.99,.35,1.83,.77,2.5,1.26,.67,.5,1.13,1.06,1.38,1.68,.25,.62,.25,1.31-.02,2.07-.25,.71-.66,1.23-1.25,1.56-.59,.33-1.29,.49-2.12,.47-.83-.02-1.75-.21-2.75-.56-1.59-.55-2.73-1.25-3.41-2.08-.68-.83-.83-1.8-.44-2.91,.36-1.02,1.05-1.66,2.09-1.94,1.04-.27,2.38-.12,4.02,.45Zm-1.74,4.99c1.23,.43,2.21,.61,2.94,.55,.73-.06,1.2-.4,1.41-1.01,.41-1.17-.63-2.19-3.12-3.06-2.48-.86-3.92-.71-4.33,.46-.22,.62-.06,1.18,.46,1.67,.53,.49,1.41,.95,2.64,1.38Z"/><path class="c" d="M80.25,257.35l.57-1.49,5.89,.75c.37,.06,.75,.12,1.15,.18,.4,.06,.79,.14,1.17,.23l.03-.07c-.6-.32-1.26-.74-2.01-1.25l-4.92-3.31,.56-1.47,9.92,6.97c.88,.63,1.48,1.23,1.78,1.8,.3,.57,.33,1.18,.08,1.83-.05,.14-.12,.28-.2,.41s-.17,.27-.28,.42l-1.28-.48c.08-.1,.15-.21,.22-.32,.07-.11,.12-.22,.16-.32,.13-.34,.1-.66-.1-.95s-.6-.65-1.2-1.09l-1.09-.76-10.44-1.07Z"/><path class="c" d="M86.28,241.72c.62-1.47,2.02-1.75,4.2-.83l6.31,2.65-.6,1.42-6.04-2.54c-.82-.34-1.44-.49-1.88-.44s-.73,.28-.9,.67c-.24,.56-.14,1.07,.3,1.53,.43,.46,1.16,.9,2.19,1.33l5.19,2.18-.59,1.4-6.1-2.56c-.81-.34-1.42-.48-1.84-.42-.42,.06-.72,.28-.88,.68-.18,.42-.17,.8,.02,1.14,.19,.34,.53,.66,1.01,.96,.48,.3,1.05,.59,1.72,.87l4.92,2.07-.6,1.42-9.41-3.95,.48-1.14,1.35,.38,.04-.09c-.81-.78-1.02-1.66-.61-2.63,.23-.54,.55-.9,.97-1.1,.42-.19,.87-.25,1.34-.18l.04-.11c-.42-.44-.69-.87-.79-1.3s-.05-.9,.16-1.42Z"/><path class="c" d="M89.65,234.29c.29-.63,.72-1.07,1.27-1.32,.55-.25,1.19-.33,1.9-.25,.71,.08,1.45,.3,2.22,.65l.96,.45-2.04,4.39c2.25,1,3.68,.83,4.3-.5,.15-.33,.26-.69,.31-1.06,.06-.37,.05-.78-.02-1.24l1.24,.58c.09,.82-.05,1.63-.41,2.43-.37,.79-.87,1.33-1.51,1.62-.63,.28-1.36,.37-2.18,.25-.82-.12-1.68-.38-2.57-.8-1.57-.73-2.66-1.54-3.25-2.42s-.67-1.81-.21-2.79Zm1.14,.53c-.22,.47-.16,.95,.18,1.42,.34,.48,.97,.96,1.9,1.45l1.42-3.07c-.51-.23-1-.4-1.47-.49-.47-.09-.89-.09-1.25,.02-.36,.1-.62,.33-.78,.67Z"/><path class="c" d="M93.64,225.99c.74-1.48,2.15-1.71,4.22-.67l6.18,3.09-.69,1.38-5.91-2.96c-.71-.36-1.3-.54-1.75-.54-.46,0-.78,.2-.99,.61-.29,.59-.24,1.15,.15,1.67,.4,.52,1.18,1.08,2.35,1.66l4.74,2.37-.69,1.38-9.12-4.57,.55-1.1,1.32,.47,.04-.09c-.36-.42-.57-.87-.63-1.35-.07-.48,0-.93,.22-1.36Z"/><path class="c" d="M105.37,223.39c.07-.13,.12-.28,.16-.43,.04-.15,.07-.31,.1-.47l1.11,.59c0,.23-.04,.46-.11,.69-.07,.23-.16,.47-.29,.72-.32,.59-.75,.92-1.29,.99-.54,.07-1.22-.11-2.03-.54l-5.64-2.99-.44,.84-.74-.39,.11-1.1-1.87-1.46,.49-.92,2.03,1.08,.8-1.51,1.14,.6-.8,1.51,5.47,2.9c.46,.24,.83,.37,1.11,.38,.28,0,.51-.15,.68-.48Z"/></g><g><path class="c" d="M58.34,351.76l.21-5.39,13.56,.51-.2,5.39-1.42-.05,.14-3.8-4.35-.17-.14,3.57-1.42-.05,.13-3.57-4.92-.19-.14,3.8-1.44-.06Z"/><path class="c" d="M58.06,357.21c.03-2.25,1.79-3.36,5.27-3.31,1.67,.02,2.98,.32,3.92,.9,.94,.58,1.41,1.44,1.39,2.59,0,.39-.05,.75-.14,1.07-.09,.32-.21,.61-.36,.88l-1.27-.49c.26-.48,.39-.93,.4-1.36,.02-1.3-1.3-1.97-3.94-2.01-2.6-.03-3.9,.61-3.92,1.93,0,.28,.03,.56,.11,.85,.08,.29,.19,.58,.34,.87l-1.29-.02c-.17-.27-.3-.58-.39-.93-.08-.35-.12-.67-.12-.96Z"/><path class="c" d="M63.42,367.59c-1.05,.01-1.98-.1-2.78-.33-.8-.24-1.43-.6-1.88-1.11-.45-.5-.68-1.15-.69-1.95-.01-.75,.2-1.38,.64-1.89,.44-.51,1.05-.9,1.84-1.16,.79-.26,1.71-.4,2.78-.42,1.69-.02,2.99,.24,3.92,.78,.93,.55,1.4,1.41,1.41,2.58,.02,1.08-.42,1.92-1.31,2.54-.88,.61-2.2,.93-3.93,.96Zm-.07-5.28c-1.3,.02-2.29,.18-2.95,.49-.66,.31-.99,.78-.98,1.43,.02,1.24,1.34,1.84,3.98,1.81,2.62-.03,3.92-.67,3.91-1.91,0-.66-.35-1.13-1.01-1.41-.66-.28-1.65-.42-2.95-.4Z"/><path class="c" d="M68.93,373.41c.07,1.66-1.05,2.54-3.37,2.64l-6.91,.3-.07-1.54,6.61-.29c.8-.04,1.39-.16,1.79-.38,.4-.22,.58-.56,.56-1.01-.03-.66-.34-1.12-.94-1.38-.6-.27-1.55-.37-2.86-.31l-5.3,.23-.07-1.54,10.19-.44,.05,1.23-1.38,.23v.09c.52,.19,.92,.48,1.21,.87,.29,.39,.45,.82,.47,1.3Z"/><path class="c" d="M64.39,385.24c-1.05,.08-1.98,.02-2.79-.17-.81-.19-1.46-.52-1.94-.99-.48-.47-.75-1.11-.81-1.9-.05-.75,.12-1.39,.53-1.92s.99-.96,1.76-1.27c.77-.31,1.69-.5,2.75-.58,1.68-.12,3,.06,3.96,.55,.96,.49,1.48,1.32,1.56,2.5,.08,1.07-.3,1.94-1.15,2.61-.85,.67-2.13,1.06-3.87,1.19Zm-.39-5.27c-1.3,.1-2.27,.32-2.91,.66-.64,.35-.94,.84-.89,1.49,.09,1.24,1.45,1.76,4.08,1.57,2.61-.19,3.88-.91,3.79-2.15-.05-.66-.41-1.11-1.09-1.35-.68-.24-1.67-.32-2.97-.22Z"/><path class="c" d="M70.72,395.03c.18,1.59-.91,2.51-3.27,2.77l-6.8,.75-.17-1.53,6.51-.72c.88-.1,1.5-.27,1.85-.53,.35-.26,.51-.6,.46-1.03-.07-.6-.4-1-1-1.19-.6-.19-1.46-.22-2.56-.1l-5.59,.62-.17-1.51,6.57-.73c.87-.1,1.47-.27,1.81-.53,.34-.25,.49-.6,.44-1.02-.05-.45-.24-.78-.58-.99-.33-.21-.78-.32-1.35-.35-.56-.03-1.2,0-1.92,.08l-5.31,.59-.17-1.53,10.14-1.13,.14,1.23-1.36,.32v.09c1.1,.29,1.7,.95,1.82,2,.06,.58-.04,1.06-.31,1.43-.27,.37-.63,.64-1.09,.81v.11c.59,.18,1.04,.43,1.34,.75,.3,.32,.49,.76,.55,1.32Z"/><path class="c" d="M71.4,401.48l-10.1,1.43-.22-1.52,10.1-1.43,.22,1.52Zm3.7-1.27c.08,.58-.24,.92-.97,1.02-.72,.1-1.11-.14-1.2-.71-.04-.29,.02-.52,.19-.71,.17-.18,.42-.3,.76-.35,.73-.1,1.13,.15,1.22,.75Z"/><path class="c" d="M61.98,408.64c-.36-2.23,1.18-3.62,4.62-4.17,1.65-.27,2.99-.2,4.02,.21,1.03,.41,1.63,1.18,1.81,2.32,.06,.39,.08,.75,.05,1.08-.03,.33-.1,.64-.21,.93l-1.33-.27c.17-.52,.23-.99,.16-1.41-.21-1.29-1.62-1.72-4.23-1.3-2.56,.41-3.74,1.27-3.53,2.57,.04,.27,.13,.55,.26,.82,.13,.27,.29,.53,.48,.8l-1.28,.21c-.22-.23-.4-.52-.54-.85-.14-.33-.24-.64-.28-.93Z"/><path class="c" d="M71.85,422.45c-2.25,.46-4.02,.41-5.33-.15s-2.12-1.6-2.43-3.12l-.54-2.68,13.29-2.7,.57,2.79c.3,1.48-.02,2.72-.97,3.72-.95,1-2.48,1.71-4.58,2.14Zm-.41-1.62c3.44-.7,4.96-2.04,4.55-4.01l-.24-1.17-10.5,2.14,.22,1.06c.22,1.07,.83,1.75,1.83,2.06,1,.31,2.38,.28,4.14-.08Z"/><path class="c" d="M76.37,426.77c.16,.68,.1,1.28-.19,1.82-.28,.54-.73,.99-1.34,1.37-.61,.38-1.32,.66-2.15,.86l-1.03,.25-1.11-4.72c-2.38,.6-3.41,1.62-3.07,3.05,.08,.36,.22,.7,.41,1.03,.19,.33,.45,.65,.78,.96l-1.33,.31c-.58-.59-.97-1.31-1.17-2.16-.2-.85-.14-1.58,.18-2.2,.32-.62,.84-1.13,1.56-1.55,.72-.42,1.55-.74,2.52-.96,1.69-.4,3.04-.43,4.05-.11,1.01,.33,1.64,1.01,1.89,2.06Zm-1.22,.29c-.12-.5-.46-.84-1.02-1.01-.56-.17-1.36-.15-2.39,.04l.78,3.29c.54-.13,1.03-.3,1.46-.52,.43-.22,.76-.48,.98-.79,.22-.31,.29-.64,.2-1.01Z"/><path class="c" d="M67.87,435.61l9.21-5.08,.4,1.53-5.51,2.86c-.35,.18-.7,.36-1.06,.53-.36,.17-.74,.34-1.13,.49l.02,.07c.22-.03,.5-.06,.84-.08,.35-.03,.73-.05,1.16-.07l6.62-.21,.4,1.53-10.53,.08-.43-1.65Z"/><path class="c" d="M80.2,441.28c.2,.67,.17,1.28-.09,1.83-.26,.55-.68,1.03-1.26,1.44-.59,.41-1.29,.73-2.1,.97l-1.02,.3-1.35-4.65c-2.35,.72-3.32,1.79-2.91,3.2,.1,.35,.26,.69,.46,1,.2,.32,.48,.62,.83,.92l-1.31,.38c-.61-.56-1.04-1.26-1.28-2.1-.24-.84-.22-1.57,.07-2.21,.29-.63,.78-1.17,1.48-1.63,.69-.45,1.51-.82,2.46-1.09,1.67-.49,3.01-.59,4.04-.32,1.03,.27,1.7,.93,2,1.96Zm-1.2,.35c-.15-.5-.5-.82-1.07-.96-.57-.14-1.36-.08-2.39,.16l.95,3.25c.53-.15,1.01-.35,1.43-.59,.42-.24,.73-.52,.93-.84,.2-.32,.25-.66,.15-1.02Z"/><path class="c" d="M72.27,450.88l-.46-1.47,13.78-4.33,.46,1.47-13.78,4.33Z"/><path class="c" d="M80.03,458c-1,.34-1.91,.52-2.75,.54-.83,.02-1.54-.14-2.13-.47-.58-.34-1-.88-1.26-1.64-.24-.71-.23-1.37,.03-2,.26-.62,.72-1.18,1.39-1.67,.67-.49,1.51-.91,2.51-1.25,1.6-.54,2.92-.69,3.97-.46,1.05,.23,1.76,.91,2.14,2.02,.35,1.02,.19,1.96-.46,2.81-.65,.86-1.8,1.56-3.44,2.12Zm-1.69-5c-1.24,.42-2.12,.87-2.66,1.37s-.7,1.05-.49,1.66c.4,1.18,1.85,1.34,4.34,.5,2.48-.84,3.53-1.85,3.13-3.03-.21-.62-.67-.97-1.39-1.03-.72-.06-1.69,.11-2.93,.53Z"/><path class="c" d="M87.06,461.85c.34,.91,.19,1.76-.46,2.55-.65,.79-1.79,1.49-3.44,2.1-1.58,.59-2.89,.81-3.93,.66-1.04-.15-1.73-.66-2.05-1.54-.17-.46-.2-.93-.09-1.41,.11-.48,.36-.91,.74-1.31l-.03-.07c-.24,.12-.47,.22-.68,.31-.21,.09-.4,.17-.58,.24l-4.27,1.59-.54-1.44,13.83-5.15,.44,1.17-1.23,.66,.03,.09c.62,.07,1.11,.23,1.47,.5,.36,.26,.62,.61,.78,1.04Zm-1.37,.14c-.22-.59-.66-.93-1.32-1.02-.66-.09-1.58,.09-2.75,.53l-.36,.13c-1.26,.47-2.12,.96-2.6,1.46-.47,.51-.6,1.06-.37,1.67,.2,.54,.65,.84,1.36,.89,.7,.05,1.68-.16,2.94-.63,1.23-.46,2.12-.93,2.64-1.42s.68-1.03,.46-1.62Z"/><path class="c" d="M91.96,474.12c.61,1.47-.17,2.67-2.36,3.57l-6.32,2.62-.59-1.42,6.05-2.52c.82-.34,1.36-.68,1.63-1.03,.27-.34,.32-.72,.15-1.11-.23-.56-.66-.85-1.29-.86-.63-.01-1.46,.2-2.49,.62l-5.19,2.16-.58-1.4,6.11-2.54c.81-.33,1.34-.67,1.6-1.01,.26-.34,.3-.71,.14-1.11-.17-.42-.45-.68-.83-.79s-.84-.09-1.39,.04c-.55,.13-1.16,.34-1.82,.61l-4.93,2.05-.59-1.42,9.42-3.92,.47,1.14-1.21,.69,.04,.09c1.12-.03,1.89,.44,2.29,1.41,.22,.54,.26,1.02,.1,1.46-.16,.43-.43,.79-.82,1.08l.04,.11c.61,0,1.1,.12,1.48,.35,.38,.22,.68,.59,.89,1.11Z"/><path class="c" d="M95.12,481.24c.29,.63,.35,1.24,.18,1.82-.17,.58-.52,1.12-1.04,1.61-.52,.49-1.17,.91-1.94,1.27l-.97,.44-2.02-4.4c-2.22,1.06-3.02,2.26-2.41,3.59,.15,.33,.35,.64,.6,.93,.25,.28,.57,.54,.96,.78l-1.24,.57c-.69-.46-1.21-1.09-1.58-1.89-.36-.79-.45-1.53-.25-2.19,.2-.67,.6-1.28,1.22-1.82,.62-.55,1.38-1.03,2.28-1.44,1.58-.72,2.9-1.03,3.95-.91,1.06,.12,1.81,.67,2.26,1.65Zm-1.14,.52c-.22-.47-.62-.73-1.2-.79-.58-.05-1.36,.12-2.34,.51l1.41,3.07c.51-.23,.95-.5,1.33-.8,.38-.3,.65-.62,.8-.96,.15-.34,.15-.69,0-1.03Z"/><path class="c" d="M98.99,489.31c.73,1.49,.06,2.75-2.02,3.77l-6.2,3.06-.68-1.38,5.93-2.93c.71-.35,1.21-.71,1.48-1.07,.27-.36,.31-.75,.11-1.16-.29-.59-.77-.89-1.42-.89-.66,0-1.57,.29-2.74,.87l-4.75,2.35-.68-1.38,9.15-4.52,.55,1.11-1.17,.77,.04,.09c.55-.03,1.03,.07,1.46,.31,.42,.24,.74,.57,.95,1Z"/><path class="c" d="M94.28,500.32c.07,.14,.16,.26,.26,.38,.1,.12,.22,.23,.33,.34l-1.11,.58c-.18-.13-.35-.29-.51-.47-.15-.18-.29-.4-.42-.65-.31-.59-.34-1.14-.09-1.63,.25-.49,.78-.95,1.59-1.37l5.66-2.96-.44-.84,.74-.39,.85,.71,2.26-.71,.49,.93-2.04,1.07,.79,1.51-1.14,.6-.79-1.51-5.49,2.88c-.46,.24-.77,.48-.94,.71-.17,.23-.16,.51,0,.83Z"/></g><g><path class="c" d="M124.41,548.25l10.55-8.53,1,1.24-9.43,7.62,2.35,2.91-1.12,.91-3.36-4.15Z"/><path class="c" d="M138.75,549.29c.62,.73,.83,1.45,.63,2.16-.21,.71-.73,1.42-1.58,2.15l-5.23,4.46-.76-.9,.92-1.08-.02-.03c-1.15,.29-2.07,.04-2.73-.74-.35-.4-.52-.83-.52-1.27,0-.44,.12-.87,.37-1.29,.25-.42,.58-.8,.98-1.15,.77-.66,1.56-.95,2.36-.86,.8,.08,1.57,.52,2.31,1.3l.79,.84,.51-.43c.6-.51,.97-.96,1.11-1.37,.14-.4,.05-.79-.26-1.15-.36-.42-.94-.78-1.72-1.05l.56-1.13c.89,.29,1.66,.8,2.29,1.54Zm-3.32,4.33l-.64-.66c-.95-.99-1.92-1.06-2.94-.19-.48,.41-.76,.79-.85,1.15s0,.68,.26,.98c.34,.4,.81,.56,1.41,.46,.6-.1,1.25-.46,1.96-1.06l.78-.67Z"/><path class="c" d="M144.66,556c1.11,1.23,.81,2.62-.91,4.18l-5.13,4.64-1.03-1.14,4.9-4.43c.59-.54,.97-1.01,1.14-1.44,.16-.42,.09-.8-.21-1.14-.44-.49-.98-.64-1.61-.46-.63,.18-1.43,.71-2.4,1.58l-3.93,3.55-1.03-1.14,7.57-6.84,.83,.92-.91,1.06,.06,.07c.52-.18,1.02-.21,1.48-.1,.47,.11,.87,.35,1.19,.71Z"/><path class="c" d="M142.19,568.87c-.68-.7-.87-1.55-.57-2.54,.3-.99,1.07-2.08,2.31-3.27,1.22-1.18,2.34-1.9,3.36-2.17,1.01-.27,1.84-.07,2.49,.61,.32,.34,.53,.74,.62,1.21,.09,.47,.05,.96-.12,1.47l.05,.06c.39-.42,.71-.76,.98-1.02l2.99-2.87,1.07,1.11-10.41,10-.86-.89,.79-1.05-.07-.07c-.54,.13-1.03,.16-1.46,.07-.43-.08-.82-.31-1.16-.66Zm1.2-.65c.87,.91,2.15,.54,3.84-1.08l.41-.39c.95-.91,1.54-1.69,1.77-2.34,.23-.65,.11-1.21-.34-1.69-.41-.43-.96-.51-1.64-.24-.68,.27-1.48,.84-2.39,1.72-1.91,1.83-2.46,3.18-1.64,4.03Z"/><path class="c" d="M161.12,568.08c.53,.51,.77,1.08,.71,1.72-.06,.64-.4,1.28-1.02,1.93-.53,.56-1.1,.96-1.71,1.2-.61,.24-1.3,.36-2.08,.35l-.84,3.66c.68-.25,1.38-.74,2.13-1.46l1.14,1.09c-.47,.43-1.02,.84-1.66,1.22s-1.27,.65-1.88,.82l-.53,3.01-1.35-1.29,.37-1.57c-.65,.08-1.24,.05-1.77-.07-.53-.13-1.03-.42-1.51-.87-.47-.45-.75-.93-.83-1.45-.09-.52-.02-1.05,.21-1.58,.23-.53,.58-1.05,1.07-1.56,.56-.59,1.17-.99,1.85-1.21,.67-.22,1.47-.28,2.4-.18,.16-.74,.36-1.36,.6-1.86,.24-.5,.6-1,1.08-1.5,.59-.62,1.22-.97,1.87-1.04,.65-.07,1.24,.15,1.76,.64Zm-5.51,5.01c-.62-.01-1.14,.07-1.57,.25-.43,.18-.86,.49-1.29,.94-.49,.51-.77,1.01-.85,1.48-.08,.48,.05,.87,.38,1.19,.54,.52,1.34,.64,2.39,.36l.95-4.21Zm4.62-4.13c-.18-.17-.42-.22-.71-.13-.29,.09-.62,.32-.98,.7-.3,.31-.57,.69-.82,1.15-.25,.45-.41,.9-.49,1.33,.49,0,.95-.12,1.38-.34,.42-.22,.83-.54,1.21-.94,.72-.75,.86-1.34,.42-1.76Z"/><path class="c" d="M170.27,576.72c1.05,.92,1.61,1.83,1.69,2.74s-.3,1.85-1.14,2.81c-.59,.68-1.21,1.14-1.85,1.38-.64,.25-1.35,.25-2.12,.02l-1.94,6.38-1.33-1.16,1.92-5.87-1.02-.89-3.74,4.28-1.2-1.05,8.92-10.22,1.8,1.57Zm-.94,1.1l-.62-.54-3.36,3.85,.74,.65c.54,.47,1.11,.67,1.69,.59,.58-.08,1.17-.45,1.75-1.12,.57-.65,.83-1.25,.79-1.8-.04-.55-.37-1.09-.99-1.64Z"/><path class="c" d="M175.18,585.08c.54,.44,.86,.96,.95,1.56s.02,1.23-.23,1.9c-.25,.67-.65,1.33-1.19,1.99l-.68,.82-3.74-3.08c-1.53,1.92-1.73,3.35-.6,4.28,.28,.23,.6,.42,.94,.57,.35,.15,.75,.24,1.2,.29l-.87,1.06c-.82-.12-1.57-.46-2.24-1.01-.68-.55-1.07-1.18-1.19-1.86-.12-.69-.02-1.41,.3-2.17,.32-.76,.79-1.53,1.42-2.29,1.1-1.34,2.16-2.19,3.16-2.54s1.92-.19,2.75,.5Zm-.8,.97c-.4-.33-.88-.39-1.42-.19-.55,.21-1.17,.7-1.88,1.48l2.61,2.15c.35-.43,.64-.86,.85-1.3,.21-.43,.31-.84,.3-1.22s-.16-.69-.45-.93Z"/><path class="c" d="M178.15,597.21c-.58,.74-1.22,1.15-1.93,1.24-.71,.09-1.43-.15-2.14-.71-.37-.29-.68-.6-.92-.92-.24-.33-.43-.64-.56-.95l.98-1.26c.08,.35,.23,.71,.46,1.07,.23,.37,.51,.68,.84,.93,.35,.27,.7,.39,1.06,.34,.36-.05,.68-.26,.97-.63,.24-.31,.36-.65,.34-1.01-.01-.36-.14-.85-.39-1.46-.26-.7-.4-1.35-.44-1.94-.03-.6,.19-1.2,.68-1.82,.5-.64,1.11-.99,1.82-1.05,.71-.06,1.41,.17,2.07,.69,.67,.52,1.15,1.18,1.43,1.96l-1.21,.62c-.1-.3-.23-.59-.4-.85-.16-.26-.37-.49-.62-.69-.34-.26-.68-.38-1.02-.34s-.64,.22-.89,.54-.36,.65-.32,1c.03,.35,.17,.85,.41,1.51,.26,.7,.4,1.34,.43,1.93,.03,.59-.19,1.19-.68,1.81Z"/><path class="c" d="M186.46,600.45c-.62,.85-1.27,1.52-1.95,2.01-.67,.5-1.35,.77-2.02,.82-.67,.05-1.33-.16-1.97-.63-.6-.45-.97-1-1.12-1.65-.14-.66-.08-1.38,.18-2.17s.72-1.61,1.35-2.46c1-1.35,2-2.23,2.99-2.64,.99-.41,1.97-.26,2.91,.44,.87,.64,1.27,1.5,1.23,2.57-.05,1.08-.59,2.31-1.62,3.71Zm-4.25-3.14c-.78,1.05-1.24,1.93-1.4,2.64-.16,.71,.03,1.26,.54,1.64,1,.74,2.28,.05,3.85-2.07,1.56-2.11,1.84-3.53,.84-4.27-.53-.39-1.11-.41-1.73-.05s-1.33,1.06-2.1,2.11Z"/><path class="c" d="M196.32,601.13l-5.82,8.38-1.01-.71,.64-1.22-.09-.07c-.47,.29-.93,.44-1.4,.44-.47,0-.9-.14-1.3-.42-.76-.53-1.1-1.18-1.02-1.95,.08-.77,.44-1.62,1.1-2.56l3.79-5.46,1.26,.88-3.63,5.23c-.51,.74-.81,1.34-.89,1.81-.08,.47,.06,.83,.41,1.07,.58,.41,1.16,.45,1.72,.13,.56-.32,1.19-.98,1.88-1.98l3.1-4.46,1.26,.88Z"/><path class="c" d="M201.53,604.35c.25,.17,.47,.36,.66,.59l-1.07,1.21c-.13-.19-.32-.37-.56-.53-.31-.2-.66-.25-1.06-.15-.4,.1-.81,.33-1.22,.69-.42,.36-.8,.81-1.17,1.36l-2.92,4.45-1.29-.85,5.6-8.53,1,.66-.79,1.58,.08,.05c.51-.38,1-.62,1.47-.73,.47-.11,.89-.04,1.26,.21Z"/><path class="c" d="M200.21,616.05c-1.91-1.2-1.94-3.27-.09-6.22,.89-1.42,1.83-2.38,2.81-2.88,.98-.51,1.96-.45,2.94,.16,.33,.21,.61,.43,.84,.68s.42,.5,.56,.77l-1.08,.83c-.27-.47-.59-.82-.96-1.05-1.1-.69-2.36,.08-3.77,2.32-1.38,2.2-1.51,3.65-.4,4.35,.24,.15,.5,.26,.78,.34,.28,.08,.59,.14,.92,.16l-.69,1.09c-.32,0-.65-.04-.99-.15-.34-.11-.64-.24-.88-.4Z"/><path class="c" d="M211.47,610.53c.6,.35,.99,.82,1.18,1.4,.19,.58,.21,1.21,.06,1.91-.15,.7-.44,1.41-.87,2.14l-.54,.92-4.17-2.47c-1.22,2.13-1.2,3.57,.07,4.32,.32,.19,.66,.33,1.02,.42,.37,.09,.78,.12,1.23,.1l-.7,1.18c-.83,0-1.62-.21-2.37-.66-.75-.45-1.24-1-1.46-1.66-.22-.66-.23-1.39-.03-2.2,.2-.8,.55-1.63,1.05-2.48,.89-1.49,1.8-2.49,2.74-2.99,.94-.5,1.87-.48,2.8,.07Zm-.64,1.08c-.45-.26-.93-.25-1.44,.03s-1.05,.87-1.63,1.75l2.91,1.72c.28-.48,.5-.95,.64-1.41,.14-.46,.18-.88,.11-1.25-.07-.37-.26-.65-.59-.85Z"/><path class="c" d="M216.28,622.07c-.46,.82-1.03,1.32-1.72,1.52-.69,.2-1.43,.07-2.23-.38-.41-.23-.76-.49-1.05-.77-.29-.29-.52-.57-.7-.86l.78-1.39c.13,.33,.34,.67,.62,.99,.28,.32,.61,.59,.97,.79,.39,.22,.75,.27,1.1,.17,.35-.1,.64-.36,.86-.77,.19-.34,.25-.69,.19-1.05-.07-.36-.27-.82-.61-1.38-.36-.65-.6-1.27-.73-1.85-.12-.58,0-1.22,.39-1.91,.4-.71,.94-1.15,1.64-1.32,.7-.17,1.41-.05,2.16,.37,.74,.41,1.31,.99,1.72,1.72l-1.1,.8c-.15-.29-.32-.54-.52-.78-.2-.24-.44-.43-.72-.59-.38-.21-.73-.27-1.06-.18-.33,.09-.6,.31-.8,.67s-.25,.7-.17,1.04c.09,.34,.3,.81,.64,1.42,.36,.65,.6,1.27,.72,1.84,.12,.58-.01,1.21-.39,1.89Z"/></g><g><path class="c" d="M268.72,633.33l-3.08,8.79c-.51,1.46-1.18,2.42-2,2.88-.82,.46-1.8,.5-2.93,.1-1.14-.4-1.88-1.04-2.24-1.93-.36-.89-.29-2.05,.21-3.47l3.09-8.8,1.51,.53-3.09,8.82c-.34,.98-.42,1.75-.22,2.31,.19,.56,.61,.95,1.24,1.17,.65,.23,1.21,.18,1.68-.14,.47-.32,.89-.98,1.24-1.98l3.09-8.8,1.52,.53Z"/><path class="c" d="M273.49,638.2c.29,.09,.55,.22,.79,.39l-.7,1.45c-.18-.15-.41-.27-.68-.36-.35-.11-.7-.07-1.06,.14s-.69,.53-.99,.99c-.31,.46-.56,1-.76,1.62l-1.62,5.07-1.46-.47,3.11-9.72,1.14,.37-.33,1.73,.09,.03c.39-.5,.79-.87,1.22-1.1,.43-.23,.85-.28,1.27-.14Z"/><path class="c" d="M278.42,635.48l-1.16,3.96c-.06,.19-.12,.41-.21,.64-.08,.23-.17,.48-.26,.75l.07,.02c.81-.82,1.66-1.1,2.56-.84,.92,.27,1.51,.91,1.75,1.91,.24,1,.12,2.33-.36,3.98-.48,1.63-1.09,2.81-1.83,3.55-.74,.74-1.57,.98-2.47,.71-.46-.13-.84-.37-1.13-.71-.29-.34-.51-.79-.64-1.36l-.09-.03-.56,1.18-1.2-.35,4.05-13.86,1.48,.43Zm.3,5.73c-.49-.14-.91-.09-1.27,.14-.36,.24-.67,.62-.93,1.13-.26,.52-.49,1.12-.69,1.82l-.1,.35c-.7,2.4-.44,3.77,.79,4.13,.56,.16,1.07-.03,1.52-.57,.46-.54,.88-1.47,1.26-2.78,.36-1.24,.5-2.21,.42-2.92-.08-.7-.42-1.14-1-1.31Z"/><path class="c" d="M287.08,642.09c.93,.24,1.52,.71,1.75,1.41,.24,.7,.22,1.58-.07,2.66l-1.74,6.66-1.14-.3,.13-1.42h-.04c-.78,.89-1.67,1.2-2.66,.95-.52-.13-.9-.38-1.15-.74-.25-.36-.4-.78-.43-1.27s.01-.99,.15-1.5c.26-.98,.74-1.67,1.44-2.06,.7-.39,1.58-.48,2.64-.25l1.14,.24,.17-.64c.2-.76,.24-1.34,.12-1.75-.12-.41-.41-.68-.87-.8-.54-.14-1.21-.1-2.01,.12l-.19-1.25c.9-.28,1.82-.29,2.76-.05Zm-.24,5.46l-.9-.18c-1.34-.27-2.18,.24-2.52,1.52-.16,.61-.17,1.09-.04,1.42,.14,.34,.39,.55,.77,.65,.51,.13,.99,0,1.42-.44,.43-.42,.77-1.09,1-2l.26-.99Z"/><path class="c" d="M295.78,644.22c1.62,.37,2.17,1.69,1.65,3.95l-1.55,6.74-1.5-.34,1.48-6.44c.18-.78,.21-1.39,.11-1.83-.11-.44-.38-.71-.83-.81-.64-.15-1.17,.03-1.59,.54-.42,.51-.77,1.4-1.06,2.67l-1.19,5.17-1.5-.34,2.29-9.94,1.2,.28-.14,1.39,.09,.02c.32-.45,.71-.76,1.16-.93s.91-.21,1.38-.1Z"/><path class="c" d="M307.54,643.22c.72,.13,1.23,.48,1.54,1.05,.3,.56,.37,1.29,.21,2.17-.14,.76-.4,1.41-.77,1.94-.38,.54-.89,1.01-1.55,1.43l1.3,3.52c.43-.58,.76-1.37,.98-2.39l1.55,.29c-.15,.62-.39,1.26-.72,1.92-.33,.67-.71,1.24-1.13,1.71l1.2,2.81-1.83-.34-.55-1.51c-.5,.42-1.01,.72-1.52,.91-.51,.18-1.09,.21-1.74,.09-.64-.12-1.13-.37-1.49-.76-.36-.39-.59-.87-.69-1.44-.1-.57-.09-1.2,.04-1.89,.15-.8,.44-1.47,.88-2.02,.44-.55,1.08-1.04,1.9-1.46-.27-.71-.44-1.33-.51-1.88-.07-.55-.05-1.16,.08-1.85,.16-.85,.49-1.48,1-1.89,.51-.41,1.12-.56,1.83-.43Zm-1.87,7.21c-.52,.33-.92,.68-1.18,1.07s-.45,.88-.56,1.49c-.13,.7-.1,1.27,.1,1.71,.2,.44,.52,.7,.96,.79,.74,.14,1.47-.2,2.2-1l-1.51-4.05Zm1.61-5.98c-.25-.05-.47,.05-.67,.28-.2,.23-.34,.61-.44,1.12-.08,.42-.1,.89-.06,1.41,.04,.52,.14,.98,.31,1.38,.41-.27,.73-.62,.96-1.04,.23-.42,.4-.91,.5-1.45,.19-1.02-.02-1.59-.61-1.7Z"/><path class="c" d="M319.92,645.44c1.38,.19,2.35,.65,2.92,1.37,.56,.72,.76,1.71,.58,2.98-.12,.89-.39,1.62-.79,2.17-.4,.56-.99,.95-1.77,1.17l1.87,6.4-1.75-.24-1.61-5.96-1.34-.19-.78,5.63-1.58-.22,1.87-13.44,2.37,.33Zm-.18,1.43l-.81-.11-.71,5.06,.98,.14c.71,.1,1.29-.04,1.74-.43,.44-.39,.73-1.02,.85-1.9,.12-.85,.01-1.5-.32-1.93-.34-.44-.91-.71-1.73-.83Z"/><path class="c" d="M331.9,650.27l-1.1,10.14-1.23-.13-.02-1.38h-.11c-.27,.47-.61,.82-1.02,1.04-.41,.22-.86,.31-1.34,.26-.92-.1-1.53-.51-1.83-1.22-.3-.71-.39-1.64-.26-2.77l.72-6.61,1.53,.17-.69,6.33c-.1,.89-.07,1.57,.09,2.02,.15,.45,.45,.7,.87,.74,.7,.08,1.23-.16,1.57-.71,.34-.55,.57-1.43,.71-2.64l.59-5.4,1.53,.17Z"/><path class="c" d="M338,650.6c.3,.03,.59,.09,.86,.2l-.36,1.57c-.21-.11-.46-.17-.75-.2-.37-.03-.7,.1-1,.38-.3,.28-.55,.68-.75,1.19-.19,.51-.32,1.09-.37,1.75l-.44,5.3-1.53-.13,.84-10.17,1.19,.1,.06,1.76h.1c.26-.57,.58-1.02,.94-1.33,.36-.32,.77-.46,1.21-.42Z"/><path class="c" d="M342.98,650.93c.96,.06,1.63,.4,1.99,1.04,.37,.64,.52,1.51,.45,2.62l-.41,6.87-1.17-.07-.14-1.42h-.04c-.59,1.03-1.4,1.51-2.43,1.45-.53-.03-.96-.2-1.27-.5s-.54-.69-.67-1.16c-.13-.47-.18-.97-.15-1.5,.06-1.01,.4-1.78,1.01-2.3,.62-.52,1.46-.78,2.54-.76h1.16l.04-.65c.05-.78-.03-1.37-.22-1.74-.19-.38-.53-.58-1.01-.61-.56-.03-1.21,.14-1.95,.51l-.42-1.19c.83-.45,1.73-.64,2.7-.58Zm.82,5.4h-.91c-1.37,0-2.09,.66-2.17,1.99-.04,.63,.04,1.1,.24,1.4,.2,.3,.49,.47,.88,.49,.53,.03,.97-.2,1.31-.7,.34-.5,.54-1.22,.59-2.15l.06-1.02Z"/><path class="c" d="M349.36,661.64l-1.54-.06,.55-14.43,1.54,.06-.55,14.43Z"/></g><g><path class="c" d="M608.72,530.69l-3.1,4.42-11.11-7.78,3.09-4.42,1.17,.82-2.18,3.11,3.56,2.5,2.05-2.93,1.17,.82-2.05,2.93,4.03,2.82,2.18-3.11,1.18,.83Z"/><path class="c" d="M611.69,526.59c-.54,.82-1.32,1.19-2.35,1.11-1.03-.07-2.26-.58-3.7-1.53-1.42-.93-2.37-1.86-2.86-2.79-.49-.93-.47-1.78,.04-2.57,.26-.39,.6-.68,1.04-.87,.44-.19,.92-.26,1.47-.21l.04-.06c-.5-.28-.9-.52-1.21-.73l-3.46-2.28,.85-1.29,12.06,7.94-.68,1.03-1.19-.54-.05,.08c.25,.5,.38,.97,.39,1.41s-.12,.87-.39,1.28Zm-.9-1.02c.69-1.05,.06-2.22-1.9-3.5l-.48-.31c-1.1-.73-1.99-1.13-2.68-1.21-.68-.08-1.21,.16-1.57,.71-.33,.5-.29,1.05,.13,1.65,.41,.61,1.15,1.26,2.21,1.95,2.21,1.46,3.64,1.69,4.29,.71Z"/><path class="c" d="M609.73,510.27l8.69,5.35-.65,1.05-1.25-.57-.06,.1c.32,.45,.49,.91,.51,1.38,.02,.47-.09,.91-.34,1.32-.49,.79-1.11,1.16-1.89,1.12-.77-.04-1.64-.36-2.61-.95l-5.66-3.49,.81-1.31,5.42,3.34c.77,.47,1.38,.73,1.86,.79,.47,.05,.82-.1,1.05-.47,.37-.6,.38-1.18,.03-1.72-.35-.54-1.04-1.13-2.08-1.77l-4.63-2.85,.81-1.31Z"/><path class="c" d="M621.5,510.73c-1.13,1.95-3.2,2.05-6.22,.3-1.45-.84-2.44-1.74-2.98-2.71-.54-.96-.52-1.95,.06-2.94,.2-.34,.41-.63,.65-.87s.48-.43,.75-.59l.86,1.05c-.46,.29-.8,.62-1.02,.99-.65,1.13,.16,2.36,2.45,3.68,2.25,1.3,3.7,1.39,4.36,.25,.14-.24,.25-.5,.32-.79,.07-.29,.12-.6,.13-.92l1.12,.65c.02,.32-.02,.65-.12,1-.1,.35-.22,.65-.37,.9Z"/><path class="c" d="M615.57,499.67c.46-.84,1.06-1.3,1.79-1.36,.73-.06,1.59,.18,2.57,.71l6.03,3.3-.57,1.03-1.34-.47-.02,.03c.68,.98,.77,1.92,.28,2.82-.26,.47-.59,.78-1,.94-.41,.16-.86,.2-1.34,.11-.48-.08-.96-.25-1.42-.51-.89-.49-1.44-1.12-1.65-1.9-.21-.78-.08-1.65,.4-2.62l.51-1.04-.58-.32c-.69-.38-1.25-.56-1.67-.55s-.75,.23-.99,.65c-.27,.49-.39,1.15-.37,1.98l-1.25-.12c-.05-.94,.16-1.83,.63-2.69Zm5.23,1.56l-.39,.83c-.59,1.24-.3,2.17,.87,2.81,.56,.3,1.01,.43,1.37,.38,.36-.05,.63-.25,.82-.59,.25-.46,.23-.96-.08-1.48-.31-.52-.87-1.01-1.69-1.46l-.9-.49Z"/><path class="c" d="M627.38,497.07c.07-.14,.12-.28,.16-.43,.04-.15,.07-.31,.09-.47l1.11,.58c0,.23-.04,.46-.1,.69-.06,.23-.16,.47-.29,.72-.31,.6-.74,.93-1.28,1-.54,.07-1.22-.1-2.03-.52l-5.67-2.94-.44,.84-.74-.38,.1-1.1-1.88-1.45,.48-.93,2.04,1.06,.79-1.52,1.15,.59-.79,1.52,5.5,2.85c.46,.24,.83,.36,1.12,.36,.28,0,.51-.16,.68-.48Z"/><path class="c" d="M617.45,488.2c.26-.52,.72-.62,1.38-.29,.65,.32,.84,.74,.58,1.26-.13,.26-.31,.42-.56,.48-.24,.06-.51,0-.82-.14-.66-.33-.85-.76-.58-1.31Zm3.77,1.05l9.13,4.55-.69,1.38-9.13-4.55,.69-1.38Z"/><path class="c" d="M629.72,483.28c.95,.45,1.73,.96,2.35,1.52,.62,.56,1.02,1.17,1.2,1.82s.11,1.33-.23,2.05c-.32,.68-.79,1.15-1.4,1.42-.62,.27-1.34,.35-2.16,.24-.82-.11-1.72-.39-2.68-.84-1.52-.72-2.58-1.53-3.17-2.42-.59-.9-.64-1.88-.14-2.94,.46-.97,1.22-1.54,2.29-1.71s2.38,.12,3.95,.87Zm-2.25,4.78c1.18,.56,2.13,.84,2.86,.86,.73,.02,1.23-.27,1.51-.85,.53-1.12-.4-2.25-2.78-3.37-2.37-1.12-3.82-1.12-4.35,0-.28,.6-.19,1.17,.29,1.71s1.3,1.1,2.48,1.65Z"/><path class="c" d="M627.32,475.64c.66-1.52,2.06-1.82,4.18-.89l6.34,2.76-.62,1.41-6.06-2.64c-.73-.32-1.32-.47-1.78-.44-.45,.03-.77,.24-.95,.66-.26,.6-.18,1.16,.24,1.66,.42,.5,1.23,1.01,2.43,1.54l4.86,2.12-.62,1.41-9.35-4.08,.49-1.13,1.34,.4,.04-.09c-.38-.4-.61-.84-.7-1.31s-.04-.93,.15-1.37Z"/><path class="c" d="M628.52,463.87c.26-.68,.7-1.12,1.31-1.32,.61-.19,1.33-.13,2.17,.2,.72,.28,1.31,.65,1.77,1.12,.46,.47,.83,1.07,1.12,1.79l3.7-.63c-.49-.53-1.21-1-2.17-1.41l.57-1.47c.58,.26,1.16,.62,1.76,1.06,.6,.45,1.09,.92,1.48,1.42l2.98-.66-.67,1.74-1.59,.26c.32,.57,.53,1.13,.61,1.66,.08,.54,0,1.11-.23,1.73-.23,.6-.57,1.04-1.02,1.33-.45,.28-.96,.42-1.54,.41-.58,0-1.2-.14-1.85-.39-.76-.29-1.36-.71-1.82-1.24-.46-.54-.82-1.25-1.09-2.14-.74,.13-1.39,.19-1.94,.16-.55-.03-1.15-.17-1.8-.42-.8-.31-1.36-.75-1.68-1.33-.31-.58-.34-1.2-.08-1.88Zm1.16,.49c-.09,.24-.04,.47,.15,.71,.19,.24,.53,.45,1.02,.64,.4,.16,.86,.26,1.38,.32,.51,.06,.99,.04,1.42-.06-.19-.45-.47-.83-.84-1.14-.37-.31-.82-.56-1.34-.76-.97-.37-1.56-.28-1.78,.29Zm5.58,2.68c.23,.58,.5,1.03,.83,1.36,.33,.33,.78,.61,1.36,.83,.66,.26,1.23,.33,1.7,.22,.47-.11,.79-.38,.95-.8,.27-.7,.07-1.48-.58-2.34l-4.26,.74Z"/><path class="c" d="M645.07,458.73l-12.85-4.36,.51-1.51,11.48,3.9,1.2-3.54,1.37,.46-1.72,5.06Z"/><path class="c" d="M634.21,446.85c.18-.55,.62-.72,1.32-.5,.69,.22,.94,.61,.77,1.16-.09,.28-.25,.46-.48,.56-.23,.09-.51,.09-.83-.02-.7-.22-.96-.62-.77-1.2Zm3.88,.46l9.72,3.09-.47,1.47-9.72-3.09,.47-1.47Z"/><path class="c" d="M641.07,441.99l-.46,1.55,8.53,2.57-.44,1.47-8.53-2.57-.36,1.18-.78-.24-.15-1.34-.56-.17c-1.13-.34-1.95-.76-2.47-1.25-.52-.49-.65-1.17-.39-2.03,.08-.27,.18-.5,.29-.71s.26-.43,.43-.65l1.07,.74c-.1,.14-.18,.29-.27,.43s-.14,.28-.18,.41c-.11,.35-.02,.64,.26,.86,.28,.22,.83,.46,1.65,.72l.67,.2,.46-1.55,1.24,.37Z"/><path class="c" d="M640.89,437.24c.18-.67,.53-1.17,1.04-1.51,.51-.33,1.12-.52,1.83-.56,.71-.04,1.48,.05,2.3,.28l1.03,.28-1.29,4.67c2.38,.62,3.76,.22,4.16-1.2,.1-.35,.14-.72,.14-1.1s-.08-.78-.23-1.21l1.32,.36c.23,.8,.22,1.62-.01,2.46-.23,.84-.64,1.46-1.22,1.84-.58,.38-1.28,.59-2.11,.61-.83,.02-1.72-.1-2.67-.36-1.67-.46-2.88-1.08-3.61-1.85-.73-.77-.95-1.68-.67-2.72Zm1.21,.33c-.14,.5,0,.96,.41,1.38,.41,.42,1.12,.79,2.12,1.12l.9-3.26c-.54-.15-1.05-.23-1.53-.25-.48-.01-.89,.06-1.23,.22s-.56,.43-.66,.79Z"/><path class="c" d="M652.67,433.25l-.38,1.49-14-3.56,.38-1.49,14,3.56Z"/><path class="c" d="M649.82,423.13c1.02,.24,1.9,.57,2.62,.99,.72,.42,1.24,.93,1.56,1.52,.32,.59,.39,1.28,.21,2.06-.17,.73-.53,1.29-1.07,1.68-.55,.4-1.23,.62-2.06,.69-.83,.07-1.76-.02-2.8-.25-1.64-.38-2.85-.94-3.62-1.69-.77-.75-1.02-1.7-.76-2.85,.24-1.05,.87-1.77,1.87-2.15,1.01-.38,2.35-.38,4.04,0Zm-1.19,5.15c1.27,.29,2.26,.37,2.98,.23,.71-.14,1.15-.53,1.29-1.15,.28-1.21-.86-2.11-3.43-2.7-2.56-.59-3.97-.28-4.25,.93-.15,.64,.07,1.18,.64,1.61,.58,.43,1.5,.79,2.77,1.09Z"/><path class="c" d="M645.86,416.16c.33-1.63,1.62-2.21,3.9-1.76l6.78,1.35-.3,1.51-6.48-1.29c-.78-.16-1.39-.17-1.83-.06-.44,.12-.7,.4-.79,.85-.13,.65,.07,1.17,.59,1.57,.52,.4,1.42,.73,2.7,.98l5.2,1.04-.3,1.51-10.01-2,.24-1.21,1.39,.1,.02-.09c-.45-.31-.78-.69-.97-1.13-.19-.44-.24-.9-.14-1.37Z"/><path class="c" d="M647.23,408.68c.08-.47,.27-.87,.57-1.19,.3-.32,.74-.57,1.32-.75l.02-.09-1.3-.39,.21-1.27,10.17,1.71c1.4,.24,2.43,.72,3.09,1.44,.66,.73,.88,1.76,.66,3.1-.08,.46-.2,.88-.35,1.24-.16,.37-.37,.71-.63,1.04l-1.44-.24c.59-.77,.95-1.52,1.07-2.23,.13-.76,.02-1.37-.32-1.84-.34-.46-1-.77-1.97-.94l-.3-.05c-.21-.04-.45-.08-.72-.14-.27-.06-.55-.12-.84-.2v.08c.96,.72,1.36,1.56,1.2,2.54-.16,.92-.71,1.56-1.67,1.92-.96,.35-2.29,.39-3.99,.1-1.75-.29-3.02-.78-3.81-1.45-.79-.67-1.11-1.46-.96-2.38Zm1.4-.09c-.1,.59,.16,1.07,.79,1.46s1.58,.69,2.86,.9c1.34,.22,2.33,.24,2.99,.06,.65-.18,1.03-.58,1.13-1.18,.21-1.22-.84-2.03-3.14-2.42l-.47-.08c-1.32-.22-2.32-.23-2.99-.03-.67,.2-1.06,.63-1.17,1.28Z"/><path class="c" d="M659.08,399.92l-13.46-1.7,.2-1.58,12.03,1.52,.47-3.71,1.43,.18-.67,5.29Z"/><path class="c" d="M649.93,388.82c.07-.69,.33-1.25,.77-1.66s1.01-.7,1.71-.86c.7-.16,1.47-.2,2.31-.11l1.06,.11-.48,4.82c2.45,.21,3.75-.42,3.89-1.88,.04-.37,.02-.73-.05-1.1-.07-.37-.21-.76-.43-1.16l1.36,.14c.36,.75,.49,1.56,.41,2.43-.09,.87-.38,1.54-.89,2.02-.51,.48-1.16,.8-1.98,.96-.81,.16-1.71,.19-2.69,.09-1.73-.17-3.02-.58-3.87-1.22-.85-.64-1.23-1.49-1.12-2.57Zm1.25,.13c-.05,.52,.16,.94,.63,1.29,.48,.34,1.23,.59,2.27,.74l.34-3.37c-.55-.05-1.07-.05-1.55,.02-.48,.07-.87,.21-1.18,.43-.31,.22-.48,.51-.52,.89Z"/><path class="c" d="M650.59,380.82c.07-.96,.42-1.62,1.07-1.98,.64-.36,1.52-.5,2.63-.42l6.86,.49-.08,1.17-1.42,.13v.04c1.02,.61,1.49,1.42,1.42,2.45-.04,.53-.21,.95-.52,1.27-.31,.31-.7,.53-1.17,.66s-.97,.17-1.5,.13c-1.01-.07-1.77-.42-2.29-1.04-.51-.62-.76-1.47-.73-2.55l.03-1.16-.66-.05c-.78-.06-1.37,0-1.75,.2-.38,.19-.59,.52-.62,1-.04,.56,.12,1.21,.49,1.96l-1.19,.41c-.43-.83-.62-1.73-.55-2.71Zm5.41-.75v.91c-.03,1.37,.62,2.1,1.95,2.2,.63,.04,1.1-.03,1.41-.22,.31-.19,.47-.49,.5-.88,.04-.53-.19-.97-.69-1.32-.5-.35-1.21-.55-2.15-.62l-1.02-.07Z"/><path class="c" d="M651.09,372.12c.01-.3,.07-.59,.17-.87l1.58,.3c-.1,.21-.16,.46-.17,.75-.02,.37,.12,.7,.41,.99,.29,.29,.69,.53,1.21,.71,.52,.18,1.11,.28,1.76,.31l5.31,.25-.07,1.54-10.19-.49,.06-1.2,1.76-.12v-.09c-.58-.24-1.04-.54-1.37-.89-.33-.35-.49-.75-.47-1.19Z"/><path class="c" d="M651.28,365.95c.04-1.66,1.21-2.46,3.53-2.41l6.92,.15-.03,1.54-6.61-.15c-.8-.02-1.4,.07-1.81,.26-.41,.19-.62,.52-.63,.97-.01,.66,.27,1.14,.85,1.45,.58,.3,1.53,.47,2.83,.5l5.3,.12-.04,1.54-10.2-.23,.03-1.23,1.39-.14v-.09c-.5-.23-.88-.54-1.15-.95-.26-.4-.39-.85-.38-1.33Z"/><path class="c" d="M647.69,360.13c0-.58,.37-.87,1.1-.87,.72,0,1.08,.29,1.08,.87,0,.29-.1,.52-.29,.67s-.46,.24-.8,.24c-.73,0-1.1-.3-1.1-.91Zm3.84-.74h10.2v1.54h-10.2v-1.54Z"/><path class="c" d="M651.25,353.06c-.04-1.66,1.1-2.51,3.42-2.57l6.91-.15,.04,1.54-6.61,.15c-.8,.02-1.4,.13-1.8,.34-.4,.21-.59,.55-.58,1,.01,.66,.32,1.13,.91,1.41,.6,.28,1.55,.4,2.85,.37l5.3-.12,.03,1.54-10.2,.23-.03-1.23,1.38-.2v-.09c-.51-.2-.91-.5-1.19-.9-.28-.39-.43-.83-.44-1.31Z"/><path class="c" d="M650.96,345.48c-.03-.48,.07-.91,.29-1.28,.22-.37,.6-.71,1.13-1.02v-.1l-1.36-.1-.07-1.29,10.3-.54c1.42-.08,2.53,.17,3.33,.74,.8,.57,1.24,1.53,1.31,2.88,.02,.47,0,.9-.07,1.29-.08,.39-.2,.77-.39,1.15l-1.46,.08c.41-.88,.6-1.69,.56-2.41-.04-.77-.28-1.35-.71-1.72-.43-.38-1.14-.54-2.13-.49l-.3,.02c-.21,.01-.46,.02-.73,.02-.27,0-.56,0-.87-.01v.07c1.11,.49,1.69,1.22,1.74,2.21,.05,.94-.35,1.68-1.21,2.23-.86,.55-2.15,.87-3.87,.96-1.77,.09-3.12-.1-4.04-.59-.92-.48-1.4-1.19-1.45-2.11Zm1.35-.4c.03,.6,.39,1.01,1.08,1.26,.69,.24,1.69,.33,2.99,.26,1.35-.07,2.33-.27,2.93-.59,.6-.32,.88-.79,.85-1.4-.07-1.24-1.26-1.8-3.59-1.67l-.47,.02c-1.34,.07-2.32,.28-2.93,.62-.61,.34-.9,.84-.86,1.5Z"/></g><g><path class="c" d="M398.11,659.24l-1.81-13.45,1.58-.21,1.61,12.01,3.71-.5,.19,1.43-5.29,.71Z"/><path class="c" d="M406.48,647.53c.95-.15,1.67,.04,2.17,.58s.83,1.36,1.01,2.46l1.09,6.79-1.16,.19-.45-1.35h-.04c-.36,1.14-1.04,1.79-2.05,1.95-.53,.08-.98,.01-1.35-.21-.38-.23-.68-.56-.91-.99-.23-.43-.39-.91-.47-1.43-.16-1,0-1.82,.49-2.47,.49-.64,1.26-1.07,2.31-1.29l1.13-.24-.11-.66c-.12-.77-.32-1.33-.59-1.65-.27-.33-.64-.46-1.12-.38-.55,.09-1.15,.4-1.79,.92l-.67-1.07c.71-.61,1.54-1,2.51-1.15Zm1.97,5.09l-.89,.2c-1.34,.29-1.9,1.09-1.69,2.41,.1,.62,.28,1.06,.54,1.32,.26,.25,.58,.35,.97,.29,.53-.08,.9-.41,1.12-.97,.22-.56,.26-1.31,.11-2.23l-.16-1.01Z"/><path class="c" d="M415.29,645.97c1.63-.31,2.66,.67,3.1,2.95l1.29,6.79-1.51,.29-1.24-6.49c-.15-.78-.36-1.36-.64-1.72-.28-.36-.64-.5-1.09-.41-.65,.12-1.06,.5-1.23,1.13-.18,.63-.14,1.59,.1,2.87l.99,5.21-1.51,.29-1.91-10.02,1.21-.23,.43,1.33,.09-.02c.12-.54,.35-.98,.69-1.32,.34-.34,.75-.56,1.22-.65Z"/><path class="c" d="M422.7,644.45c.47-.1,.91-.08,1.31,.08,.4,.16,.8,.47,1.19,.94l.09-.02-.12-1.35,1.26-.28,2.23,10.07c.31,1.38,.25,2.52-.18,3.41-.43,.89-1.3,1.48-2.62,1.77-.46,.1-.88,.15-1.28,.14-.4,0-.8-.07-1.2-.19l-.32-1.43c.94,.26,1.76,.31,2.47,.15,.75-.17,1.28-.5,1.58-.98,.3-.49,.34-1.21,.13-2.18l-.07-.3c-.05-.21-.09-.45-.14-.72-.05-.27-.09-.55-.13-.86l-.08,.02c-.3,1.17-.93,1.86-1.89,2.08-.92,.2-1.72-.07-2.4-.83-.69-.75-1.22-1.97-1.59-3.66-.38-1.73-.41-3.09-.09-4.08s.94-1.58,1.84-1.78Zm.61,1.26c-.58,.13-.93,.55-1.06,1.28-.12,.72-.05,1.72,.24,2.99,.29,1.32,.65,2.25,1.07,2.79,.42,.54,.92,.74,1.52,.61,1.21-.27,1.57-1.54,1.06-3.82l-.1-.46c-.29-1.31-.66-2.24-1.09-2.78-.44-.54-.98-.75-1.62-.6Z"/><path class="c" d="M434.92,641.7l2.51,9.89-1.2,.3-.5-1.28-.11,.03c-.08,.54-.28,.99-.59,1.34s-.7,.59-1.16,.71c-.9,.23-1.61,.06-2.14-.51-.53-.56-.93-1.4-1.21-2.5l-1.63-6.45,1.49-.38,1.57,6.17c.22,.87,.48,1.49,.78,1.86,.3,.37,.66,.5,1.08,.39,.69-.17,1.1-.58,1.22-1.21,.13-.63,.04-1.54-.26-2.72l-1.33-5.27,1.49-.38Z"/><path class="c" d="M440.08,640.07c.93-.26,1.67-.15,2.22,.33,.56,.48,.99,1.26,1.29,2.33l1.88,6.62-1.13,.32-.6-1.29h-.04c-.22,1.18-.82,1.9-1.81,2.18-.51,.15-.97,.13-1.37-.06-.4-.18-.74-.47-1.02-.88-.28-.4-.49-.86-.64-1.37-.28-.97-.21-1.81,.2-2.5s1.12-1.22,2.15-1.56l1.1-.37-.18-.64c-.21-.76-.48-1.28-.78-1.58s-.69-.38-1.16-.24c-.54,.15-1.09,.53-1.67,1.13l-.79-.98c.63-.69,1.42-1.17,2.36-1.44Zm2.56,4.82l-.86,.3c-1.29,.45-1.76,1.31-1.4,2.59,.17,.61,.4,1.02,.69,1.25,.29,.22,.62,.28,1,.17,.51-.15,.85-.51,1-1.1,.16-.58,.11-1.33-.15-2.23l-.28-.99Z"/><path class="c" d="M447.54,637.84c.46-.15,.9-.16,1.31-.04,.42,.12,.84,.4,1.27,.83l.09-.03-.24-1.34,1.23-.39,3.11,9.84c.43,1.35,.47,2.49,.12,3.41-.35,.92-1.17,1.58-2.46,1.99-.45,.14-.87,.23-1.27,.25-.4,.03-.8,0-1.21-.09l-.44-1.39c.96,.17,1.78,.15,2.47-.06,.74-.23,1.23-.61,1.49-1.12,.26-.51,.24-1.24-.06-2.18l-.09-.29c-.06-.21-.13-.44-.2-.7-.07-.26-.14-.54-.21-.84l-.07,.02c-.2,1.19-.76,1.93-1.71,2.23-.89,.28-1.72,.08-2.47-.62-.75-.69-1.38-1.86-1.9-3.5-.53-1.69-.68-3.04-.44-4.05,.24-1.01,.8-1.66,1.68-1.93Zm.72,1.21c-.57,.18-.88,.63-.94,1.36-.06,.73,.1,1.72,.5,2.96,.41,1.29,.84,2.19,1.31,2.69,.46,.5,.98,.66,1.56,.47,1.18-.37,1.42-1.67,.72-3.89l-.14-.45c-.41-1.28-.85-2.17-1.33-2.68-.49-.5-1.04-.66-1.67-.46Z"/><path class="c" d="M456.27,634.96c.66-.23,1.27-.23,1.83,0,.56,.23,1.06,.62,1.5,1.19,.44,.57,.8,1.25,1.08,2.05l.35,1-4.58,1.59c.84,2.31,1.96,3.22,3.35,2.74,.35-.12,.67-.29,.98-.51,.31-.22,.6-.51,.87-.88l.45,1.29c-.53,.64-1.21,1.1-2.03,1.39s-1.56,.3-2.21,.04c-.65-.26-1.21-.72-1.7-1.39-.49-.67-.89-1.47-1.22-2.4-.57-1.64-.75-2.98-.53-4.02,.22-1.04,.84-1.74,1.86-2.09Zm.41,1.18c-.49,.17-.79,.54-.9,1.12-.11,.57-.01,1.37,.28,2.38l3.19-1.11c-.18-.53-.41-.99-.67-1.4-.26-.4-.56-.7-.88-.89-.33-.19-.67-.22-1.03-.09Z"/><path class="c" d="M465.87,640.22l.2,.15c.1,.81,.17,1.61,.21,2.39,.04,.78,.04,1.55,0,2.29l-1.1,.41c-.08-.8-.19-1.61-.34-2.44-.15-.83-.31-1.58-.49-2.24l1.53-.57Z"/><path class="c" d="M479.71,637l-1.47,.61-2.44-5.88-3.86,1.6,2.44,5.88-1.47,.61-5.21-12.53,1.47-.61,2.21,5.32,3.86-1.6-2.21-5.32,1.47-.61,5.21,12.53Z"/><path class="c" d="M480.81,625.15c.63-.29,1.24-.34,1.82-.17,.58,.18,1.11,.52,1.6,1.05,.49,.52,.91,1.17,1.26,1.94l.44,.97-4.41,2c1.05,2.22,2.24,3.03,3.58,2.43,.33-.15,.64-.35,.93-.6,.29-.25,.55-.56,.79-.95l.57,1.25c-.47,.69-1.1,1.21-1.9,1.57s-1.53,.44-2.19,.24c-.67-.2-1.27-.61-1.82-1.23-.55-.62-1.02-1.38-1.43-2.28-.72-1.58-1.01-2.9-.89-3.96,.13-1.06,.68-1.81,1.66-2.25Zm.52,1.14c-.47,.21-.74,.61-.79,1.19s.11,1.36,.5,2.34l3.08-1.4c-.23-.51-.49-.95-.79-1.33-.3-.38-.62-.65-.96-.81-.34-.16-.69-.16-1.03,0Z"/><path class="c" d="M488.69,621.42c.27-.13,.56-.22,.84-.26l.49,1.54c-.23,.01-.48,.08-.74,.21-.33,.16-.56,.44-.67,.83-.12,.39-.13,.86-.04,1.4,.09,.54,.28,1.11,.57,1.7l2.31,4.79-1.39,.67-4.43-9.19,1.08-.52,.95,1.48,.09-.04c-.06-.63-.02-1.17,.13-1.63,.15-.46,.43-.79,.83-.98Z"/><path class="c" d="M489.94,616.72c.52-.26,.95-.07,1.28,.59,.32,.64,.23,1.1-.29,1.36-.26,.13-.5,.15-.73,.05-.23-.1-.42-.3-.57-.61-.33-.66-.22-1.12,.32-1.4Zm2.39,3.09l4.59,9.11-1.38,.69-4.59-9.11,1.38-.69Z"/><path class="c" d="M501.08,625.44c.13-.07,.26-.16,.38-.26s.23-.21,.34-.33l.58,1.11c-.13,.18-.29,.35-.47,.51-.19,.15-.4,.3-.65,.42-.59,.31-1.14,.34-1.63,.09-.49-.25-.95-.78-1.37-1.59l-2.96-5.66-.84,.44-.39-.74,.71-.85-.71-2.26,.93-.49,1.07,2.04,1.51-.79,.6,1.14-1.51,.79,2.88,5.49c.24,.46,.48,.77,.7,.94,.23,.17,.51,.16,.83,0Z"/><path class="c" d="M501.53,614.72c.84-.47,1.59-.53,2.24-.19,.65,.34,1.25,1,1.79,1.98l3.33,6.02-1.03,.57-.88-1.12-.03,.02c.05,1.19-.38,2.03-1.27,2.53-.47,.26-.91,.34-1.35,.26-.43-.09-.83-.29-1.19-.62-.36-.33-.67-.72-.93-1.19-.49-.89-.62-1.71-.38-2.48s.82-1.44,1.74-2l.99-.61-.32-.58c-.38-.69-.75-1.14-1.12-1.36-.37-.22-.76-.21-1.18,.02-.49,.27-.95,.76-1.38,1.48l-.99-.78c.46-.82,1.12-1.46,1.97-1.94Zm3.58,4.12l-.77,.49c-1.16,.73-1.42,1.67-.77,2.84,.31,.55,.62,.91,.95,1.06,.33,.15,.67,.13,1.01-.06,.46-.26,.71-.69,.73-1.29,.02-.6-.2-1.32-.65-2.14l-.5-.9Z"/><path class="c" d="M508.25,610.89c.41-.25,.84-.36,1.27-.33,.43,.02,.91,.2,1.42,.53l.08-.05-.54-1.25,1.11-.66,5.25,8.88c.72,1.22,1.02,2.32,.89,3.29s-.78,1.81-1.94,2.5c-.4,.24-.79,.42-1.18,.53-.38,.11-.78,.18-1.2,.19l-.74-1.26c.97-.05,1.77-.25,2.39-.62,.66-.39,1.06-.87,1.2-1.43s-.05-1.26-.55-2.11l-.15-.26c-.11-.19-.23-.4-.35-.64-.13-.24-.26-.5-.39-.77l-.07,.04c.08,1.2-.31,2.06-1.16,2.56-.81,.48-1.65,.46-2.54-.04s-1.77-1.5-2.65-2.98c-.9-1.53-1.35-2.81-1.35-3.85s.4-1.79,1.2-2.27Zm.97,1.01c-.51,.3-.72,.82-.61,1.54,.1,.72,.49,1.65,1.15,2.77,.69,1.17,1.32,1.94,1.88,2.32s1.11,.42,1.63,.11c1.07-.63,1.01-1.95-.18-3.96l-.24-.41c-.68-1.16-1.32-1.92-1.91-2.31-.59-.38-1.16-.4-1.73-.07Z"/><path class="c" d="M516.12,606.1c.59-.37,1.18-.51,1.78-.42,.6,.09,1.18,.37,1.73,.82,.55,.45,1.06,1.04,1.51,1.75l.57,.9-4.1,2.59c1.34,2.06,2.64,2.69,3.88,1.91,.31-.2,.59-.44,.84-.72,.25-.28,.46-.63,.65-1.05l.73,1.16c-.37,.74-.92,1.35-1.66,1.82-.74,.47-1.45,.65-2.14,.54-.69-.1-1.34-.43-1.97-.97-.63-.54-1.2-1.23-1.73-2.06-.93-1.47-1.4-2.73-1.42-3.8-.02-1.07,.42-1.89,1.33-2.46Zm.67,1.06c-.44,.28-.65,.71-.62,1.29,.02,.58,.29,1.33,.81,2.25l2.86-1.81c-.3-.47-.62-.88-.97-1.21-.35-.33-.7-.56-1.06-.67-.36-.11-.7-.06-1.02,.14Z"/><path class="c" d="M523.85,596.94c.6-.42,1.21-.54,1.83-.35,.61,.18,1.17,.65,1.69,1.38,.44,.64,.72,1.28,.83,1.92,.12,.64,.09,1.35-.08,2.11l3.42,1.56c-.11-.71-.44-1.51-1-2.38l1.3-.9c.33,.54,.61,1.17,.86,1.87,.24,.7,.38,1.37,.42,2.01l2.84,1.13-1.53,1.06-1.46-.67c-.05,.65-.2,1.23-.43,1.72-.23,.49-.62,.92-1.16,1.3-.53,.37-1.06,.54-1.59,.52-.53-.02-1.03-.19-1.51-.53s-.91-.78-1.31-1.36c-.46-.67-.73-1.35-.81-2.05-.08-.7,.02-1.5,.3-2.38-.69-.31-1.26-.63-1.7-.96-.44-.33-.86-.79-1.25-1.36-.49-.71-.7-1.39-.64-2.04s.39-1.19,.99-1.6Zm.68,1.05c-.21,.14-.3,.37-.27,.67,.03,.31,.19,.67,.48,1.1,.24,.35,.56,.7,.96,1.03,.4,.34,.79,.59,1.2,.75,.1-.48,.08-.96-.06-1.42-.14-.46-.36-.92-.68-1.38-.59-.85-1.14-1.11-1.64-.76Zm3.11,5.36c-.14,.6-.16,1.13-.08,1.59,.08,.46,.3,.94,.66,1.45,.4,.58,.83,.96,1.28,1.13,.45,.17,.86,.13,1.24-.13,.61-.43,.89-1.18,.83-2.27l-3.94-1.78Z"/><path class="c" d="M536.3,589.65c-.56,.42-.85,.97-.88,1.63-.03,.67,.13,1.4,.48,2.2,.35,.8,.82,1.59,1.41,2.36,1.04,1.37,2.08,2.28,3.11,2.73,1.03,.45,1.92,.39,2.65-.17,.3-.23,.56-.48,.77-.76,.21-.28,.39-.57,.54-.88l.87,1.15c-.28,.64-.76,1.22-1.46,1.75-.74,.56-1.54,.82-2.41,.78s-1.77-.36-2.69-.96c-.92-.6-1.82-1.49-2.71-2.66-.78-1.03-1.36-2.06-1.73-3.1-.37-1.04-.48-2.01-.33-2.91,.16-.91,.64-1.67,1.46-2.29,.72-.54,1.52-.87,2.43-.98l.36,1.42c-.33,.03-.65,.09-.97,.2-.32,.11-.62,.27-.9,.48Z"/><path class="c" d="M545.8,584.83l6.41,7.94-.96,.78-.99-.96-.09,.07c.15,.53,.16,1.02,.03,1.47-.13,.45-.39,.83-.76,1.13-.72,.58-1.44,.73-2.15,.43-.72-.29-1.43-.88-2.15-1.77l-4.18-5.17,1.2-.97,4,4.95c.57,.7,1.06,1.15,1.49,1.36,.43,.21,.81,.18,1.15-.09,.55-.45,.75-.98,.6-1.61-.15-.63-.61-1.42-1.37-2.36l-3.42-4.23,1.2-.97Z"/><path class="c" d="M555.57,589.93l-1.17,.99-9.33-11.03,1.18-.99,9.32,11.03Z"/><path class="c" d="M558.78,585.59c.11-.1,.22-.21,.31-.34,.09-.13,.17-.26,.26-.4l.82,.94c-.08,.21-.2,.41-.34,.6-.14,.19-.32,.38-.53,.56-.51,.44-1.03,.6-1.56,.47-.53-.13-1.1-.54-1.7-1.23l-4.2-4.81-.72,.62-.55-.63,.5-.99-1.22-2.04,.79-.69,1.51,1.73,1.29-1.12,.85,.97-1.29,1.12,4.07,4.67c.34,.39,.64,.64,.91,.75,.26,.11,.53,.04,.81-.2Z"/><path class="c" d="M559.3,572.96l6.89,7.52-.91,.83-1.05-.89-.08,.08c.18,.52,.22,1.01,.12,1.46-.11,.46-.33,.85-.69,1.17-.68,.62-1.39,.81-2.12,.57-.73-.25-1.49-.79-2.25-1.63l-4.49-4.9,1.13-1.04,4.3,4.69c.61,.66,1.13,1.08,1.57,1.27,.44,.18,.82,.12,1.14-.17,.52-.48,.69-1.03,.5-1.65-.19-.62-.69-1.38-1.51-2.27l-3.67-4.01,1.14-1.04Z"/><path class="c" d="M563.57,568.59c.22-.21,.46-.38,.72-.51l.94,1.31c-.22,.09-.43,.23-.64,.43-.26,.25-.39,.59-.38,1,0,.41,.14,.86,.4,1.34,.25,.48,.61,.96,1.07,1.44l3.69,3.83-1.11,1.07-7.08-7.35,.86-.83,1.36,1.11,.07-.07c-.26-.58-.39-1.11-.39-1.59,0-.48,.16-.88,.48-1.19Z"/><path class="c" d="M567.16,565.05c.49-.5,1.04-.76,1.64-.81s1.23,.09,1.87,.41c.64,.31,1.26,.77,1.87,1.37l.76,.75-3.41,3.44c1.77,1.7,3.18,2.03,4.21,.99,.26-.26,.48-.56,.65-.89,.18-.33,.31-.72,.4-1.17l.97,.96c-.19,.81-.6,1.52-1.21,2.14-.61,.62-1.27,.96-1.96,1.01-.69,.05-1.41-.11-2.14-.5-.73-.39-1.45-.93-2.15-1.62-1.23-1.22-1.98-2.35-2.24-3.38-.26-1.03-.01-1.93,.75-2.7Zm.89,.88c-.37,.37-.47,.84-.32,1.4,.16,.56,.59,1.23,1.3,2.01l2.38-2.4c-.4-.39-.8-.71-1.21-.96-.41-.25-.81-.38-1.19-.41-.38-.03-.7,.1-.96,.37Z"/></g></g></svg>