<?xml version="1.0" encoding="UTF-8"?><svg id="a" xmlns="http://www.w3.org/2000/svg" viewBox="0 0 720 720"><defs><style>.b{fill:#93ab48;}.c{fill:#231f20;}</style></defs><g><path class="one b" d="M202.54,162.5c-3.38,0-6.72-1.53-8.92-4.44-3.72-4.92-2.75-11.93,2.17-15.65,45.08-34.08,98.87-53.05,155.55-54.85,5.84-.18,11.75-.19,17.57,0,6.17,.2,11.01,5.35,10.81,11.52-.2,6.17-5.36,10.99-11.52,10.81-5.35-.17-10.79-.17-16.15,0-52.03,1.65-101.41,19.06-142.78,50.34-2.02,1.52-4.38,2.26-6.73,2.26Z"/><path class="two b" d="M523.78,167.44c-2.46,0-4.93-.81-7-2.47-33.65-27.07-73.85-45.04-116.26-51.95-6.09-.99-10.22-6.73-9.23-12.82,.99-6.09,6.73-10.22,12.82-9.23,46.22,7.53,90.03,27.1,126.68,56.59,4.81,3.87,5.57,10.9,1.7,15.71-2.21,2.74-5.44,4.17-8.71,4.17Z"/><path class="three b" d="M619.25,337.66c-5.54,0-10.35-4.12-11.07-9.76-6.93-54.08-30.78-103.38-68.97-142.55-4.31-4.42-4.22-11.49,.2-15.8,4.42-4.31,11.49-4.22,15.8,.2,41.61,42.67,67.59,96.38,75.14,155.31,.78,6.12-3.54,11.72-9.66,12.5-.48,.06-.96,.09-1.43,.09Z"/><path class="four b" d="M556.78,543.24c-2.61,0-5.23-.91-7.35-2.76-4.64-4.06-5.12-11.12-1.05-15.77,39.35-44.98,61.31-102.61,61.85-162.28,.06-6.14,5.05-11.07,11.17-11.07,.03,0,.07,0,.1,0,6.17,.06,11.13,5.1,11.07,11.27-.59,65.01-24.51,127.79-67.38,176.79-2.21,2.53-5.3,3.82-8.41,3.82Z"/><path class="five b" d="M359.76,632.58c-34.26,0-67.67-6.32-99.45-18.82-5.74-2.26-8.57-8.74-6.31-14.49s8.74-8.57,14.49-6.31c31.68,12.46,65.15,18.22,99.47,17.14,58.87-1.87,115.39-24.54,159.14-63.83,4.59-4.12,11.66-3.75,15.78,.85,4.12,4.59,3.74,11.66-.85,15.78-47.66,42.8-109.23,67.5-173.36,69.54-2.98,.09-5.95,.14-8.91,.14Z"/><path class="six b" d="M235.33,600.98c-1.8,0-3.63-.44-5.33-1.36-41.07-22.33-75.95-55.05-100.85-94.62-25.66-40.78-40.04-87.92-41.58-136.34-.08-2.64-.13-5.32-.14-7.97-.02-6.17,4.97-11.19,11.14-11.21h.04c6.16,0,11.15,4.98,11.17,11.14,0,2.43,.05,4.89,.13,7.33,1.41,44.45,14.61,87.73,38.16,125.15,22.87,36.33,54.89,66.38,92.61,86.89,5.42,2.95,7.43,9.73,4.48,15.15-2.03,3.73-5.86,5.84-9.83,5.84Z"/><path class="seven b" d="M100.55,339.11c-.45,0-.91-.03-1.37-.08-6.12-.75-10.48-6.32-9.73-12.45,7.5-61.31,36.16-118.9,80.7-162.16,4.43-4.3,11.5-4.2,15.8,.23,4.3,4.43,4.2,11.5-.23,15.8-40.89,39.72-67.2,92.58-74.09,148.84-.69,5.66-5.51,9.82-11.08,9.82Z"/></g></svg>