<?xml version="1.0" encoding="UTF-8"?><svg id="a" xmlns="http://www.w3.org/2000/svg" viewBox="0 0 720 720"><defs><style>.b{fill:#93ab48;}.c{fill:#231f20;}</style></defs><g><path class="b" d="M202.54,162.5c-3.38,0-6.72-1.53-8.92-4.44-3.72-4.92-2.75-11.93,2.17-15.65,45.08-34.08,98.87-53.05,155.55-54.85,5.84-.18,11.75-.19,17.57,0,6.17,.2,11.01,5.35,10.81,11.52-.2,6.17-5.36,10.99-11.52,10.81-5.35-.17-10.79-.17-16.15,0-52.03,1.65-101.41,19.06-142.78,50.34-2.02,1.52-4.38,2.26-6.73,2.26Z"/><path class="b" d="M523.78,167.44c-2.46,0-4.93-.81-7-2.47-33.65-27.07-73.85-45.04-116.26-51.95-6.09-.99-10.22-6.73-9.23-12.82,.99-6.09,6.73-10.22,12.82-9.23,46.22,7.53,90.03,27.1,126.68,56.59,4.81,3.87,5.57,10.9,1.7,15.71-2.21,2.74-5.44,4.17-8.71,4.17Z"/><path class="b" d="M619.25,337.66c-5.54,0-10.35-4.12-11.07-9.76-6.93-54.08-30.78-103.38-68.97-142.55-4.31-4.42-4.22-11.49,.2-15.8,4.42-4.31,11.49-4.22,15.8,.2,41.61,42.67,67.59,96.38,75.14,155.31,.78,6.12-3.54,11.72-9.66,12.5-.48,.06-.96,.09-1.43,.09Z"/><path class="b" d="M556.78,543.24c-2.61,0-5.23-.91-7.35-2.76-4.64-4.06-5.12-11.12-1.05-15.77,39.35-44.98,61.31-102.61,61.85-162.28,.06-6.14,5.05-11.07,11.17-11.07,.03,0,.07,0,.1,0,6.17,.06,11.13,5.1,11.07,11.27-.59,65.01-24.51,127.79-67.38,176.79-2.21,2.53-5.3,3.82-8.41,3.82Z"/><path class="b" d="M359.76,632.58c-34.26,0-67.67-6.32-99.45-18.82-5.74-2.26-8.57-8.74-6.31-14.49s8.74-8.57,14.49-6.31c31.68,12.46,65.15,18.22,99.47,17.14,58.87-1.87,115.39-24.54,159.14-63.83,4.59-4.12,11.66-3.75,15.78,.85,4.12,4.59,3.74,11.66-.85,15.78-47.66,42.8-109.23,67.5-173.36,69.54-2.98,.09-5.95,.14-8.91,.14Z"/><path class="b" d="M235.33,600.98c-1.8,0-3.63-.44-5.33-1.36-41.07-22.33-75.95-55.05-100.85-94.62-25.66-40.78-40.04-87.92-41.58-136.34-.08-2.64-.13-5.32-.14-7.97-.02-6.17,4.97-11.19,11.14-11.21h.04c6.16,0,11.15,4.98,11.17,11.14,0,2.43,.05,4.89,.13,7.33,1.41,44.45,14.61,87.73,38.16,125.15,22.87,36.33,54.89,66.38,92.61,86.89,5.42,2.95,7.43,9.73,4.48,15.15-2.03,3.73-5.86,5.84-9.83,5.84Z"/><path class="b" d="M100.55,339.11c-.45,0-.91-.03-1.37-.08-6.12-.75-10.48-6.32-9.73-12.45,7.5-61.31,36.16-118.9,80.7-162.16,4.43-4.3,11.5-4.2,15.8,.23,4.3,4.43,4.2,11.5-.23,15.8-40.89,39.72-67.2,92.58-74.09,148.84-.69,5.66-5.51,9.82-11.08,9.82Z"/></g><g><g><path class="c" d="M241.63,121.58c-.59,.3-.96,.75-1.1,1.37-.15,.62-.12,1.33,.07,2.13,.19,.81,.49,1.62,.91,2.44,.73,1.46,1.54,2.48,2.43,3.08,.88,.6,1.72,.7,2.5,.3,.32-.16,.6-.35,.85-.58,.24-.22,.46-.46,.65-.72l.62,1.22c-.37,.55-.92,1.01-1.66,1.38-.78,.39-1.58,.5-2.38,.31-.81-.18-1.59-.64-2.34-1.36-.75-.72-1.44-1.7-2.07-2.95-.55-1.09-.91-2.15-1.08-3.19-.17-1.03-.1-1.95,.2-2.77,.3-.82,.88-1.44,1.75-1.88,.76-.38,1.57-.55,2.43-.5l.09,1.39c-.31-.03-.62-.02-.94,.02-.31,.04-.62,.14-.92,.29Z"/><path class="c" d="M253.97,123.29c.42,.9,.68,1.75,.79,2.53,.11,.78,.03,1.47-.23,2.05-.26,.58-.73,1.03-1.42,1.35-.64,.3-1.27,.36-1.88,.18-.61-.18-1.19-.56-1.72-1.14-.53-.58-1.01-1.33-1.44-2.24-.67-1.45-.95-2.68-.84-3.69,.11-1.01,.67-1.75,1.69-2.22,.92-.43,1.82-.38,2.7,.15,.87,.53,1.66,1.54,2.35,3.03Zm-4.54,2.11c.52,1.12,1.04,1.91,1.56,2.36s1.06,.55,1.61,.29c1.07-.5,1.07-1.87,.02-4.14-1.05-2.25-2.1-3.13-3.17-2.64-.57,.26-.84,.74-.83,1.42,.01,.68,.28,1.58,.8,2.7Z"/><path class="c" d="M261.17,114.79c1.4-.58,2.52,.17,3.39,2.24l2.48,5.98-1.35,.56-2.38-5.74c-.32-.78-.65-1.29-.97-1.54-.33-.25-.68-.3-1.05-.15-.53,.22-.8,.63-.82,1.23s.18,1.38,.59,2.36l2.04,4.92-1.33,.55-2.4-5.79c-.32-.76-.64-1.27-.96-1.51-.32-.24-.67-.29-1.05-.13-.4,.17-.65,.43-.75,.79-.1,.36-.08,.8,.04,1.32,.12,.52,.32,1.1,.58,1.73l1.94,4.67-1.35,.56-3.71-8.93,1.08-.45,.65,1.15,.08-.03c-.03-1.07,.42-1.79,1.34-2.17,.51-.21,.97-.24,1.38-.1,.41,.15,.75,.4,1.02,.77l.1-.04c0-.57,.12-1.04,.33-1.41,.21-.36,.56-.64,1.05-.84Z"/><path class="c" d="M273.14,110.3c1.42-.51,2.51,.29,3.27,2.4l2.19,6.1-1.37,.49-2.1-5.85c-.28-.79-.58-1.32-.9-1.59-.31-.27-.66-.34-1.05-.2-.54,.2-.83,.59-.88,1.18-.04,.6,.12,1.39,.47,2.38l1.8,5.01-1.35,.49-2.11-5.9c-.28-.78-.57-1.3-.88-1.56-.31-.26-.66-.32-1.04-.18-.41,.15-.67,.4-.78,.75-.12,.35-.12,.79-.02,1.32,.1,.52,.26,1.11,.5,1.75l1.71,4.76-1.37,.49-3.26-9.1,1.1-.39,.6,1.18,.08-.03c.02-1.07,.51-1.77,1.44-2.11,.52-.18,.98-.19,1.39-.03,.4,.17,.73,.44,.98,.82l.1-.04c.04-.57,.17-1.04,.4-1.39,.23-.35,.6-.62,1.09-.79Z"/><path class="c" d="M283.56,107.12l2.89,9.22-1.12,.35-.54-1.19-.1,.03c-.05,.52-.21,.95-.49,1.3-.27,.35-.63,.59-1.06,.73-.84,.26-1.52,.14-2.05-.37-.53-.51-.96-1.27-1.28-2.31l-1.88-6.01,1.39-.44,1.8,5.75c.25,.81,.53,1.39,.84,1.72,.31,.33,.65,.44,1.04,.32,.64-.2,1.01-.6,1.09-1.21,.09-.6-.04-1.46-.39-2.56l-1.54-4.91,1.39-.44Z"/><path class="c" d="M289.58,105.22c1.51-.42,2.57,.43,3.15,2.55l1.75,6.31-1.41,.39-1.67-6.04c-.2-.73-.45-1.25-.73-1.57-.29-.32-.64-.42-1.06-.31-.6,.17-.96,.56-1.08,1.17-.12,.61-.01,1.51,.32,2.7l1.34,4.84-1.41,.39-2.58-9.31,1.13-.31,.51,1.22,.09-.02c.07-.52,.25-.95,.55-1.3,.29-.35,.66-.59,1.1-.71Z"/><path class="c" d="M294.29,100.41c.54-.14,.89,.14,1.06,.81,.17,.66-.02,1.06-.55,1.2-.27,.07-.5,.03-.69-.11-.19-.14-.32-.36-.4-.68-.17-.67,.02-1.08,.58-1.22Zm1.57,3.36l2.35,9.38-1.41,.35-2.35-9.38,1.41-.35Z"/><path class="c" d="M302.69,110.92c.14-.03,.28-.08,.41-.15,.13-.07,.26-.14,.39-.22l.27,1.16c-.17,.14-.35,.25-.56,.35-.21,.1-.44,.18-.69,.24-.62,.14-1.12,.04-1.51-.31-.39-.35-.68-.94-.88-1.78l-1.37-5.89-.88,.2-.18-.77,.86-.61-.12-2.25,.96-.22,.49,2.12,1.58-.37,.28,1.19-1.58,.37,1.33,5.71c.11,.48,.25,.82,.42,1.03s.43,.27,.77,.19Z"/><path class="c" d="M303.25,98.32c.54-.12,.88,.17,1.03,.85,.14,.67-.05,1.06-.59,1.18-.27,.06-.5,.02-.68-.13-.18-.14-.31-.37-.38-.69-.15-.68,.06-1.08,.63-1.2Zm1.45,3.41l2.03,9.45-1.43,.31-2.03-9.45,1.43-.31Z"/><path class="c" d="M309.92,100.52c.65-.12,1.22-.04,1.72,.25,.5,.29,.91,.73,1.24,1.32,.33,.59,.57,1.28,.72,2.07l.19,.99-4.51,.86c.47,2.28,1.39,3.29,2.76,3.03,.34-.06,.67-.18,.99-.34,.32-.17,.63-.4,.94-.7l.24,1.27c-.58,.53-1.28,.87-2.1,1.02-.81,.16-1.5,.07-2.07-.26-.57-.33-1.04-.84-1.4-1.54-.36-.69-.63-1.5-.81-2.42-.31-1.61-.29-2.89,.06-3.84,.35-.95,1.03-1.51,2.03-1.71Zm.22,1.17c-.48,.09-.82,.4-1,.92-.18,.52-.2,1.28-.06,2.27l3.15-.6c-.1-.52-.24-.99-.43-1.4-.19-.42-.42-.74-.7-.96-.28-.22-.6-.3-.95-.23Z"/><path class="c" d="M320.49,106.03c.14,.88,.01,1.59-.38,2.14-.4,.55-1.02,.9-1.87,1.04-.44,.07-.85,.08-1.23,.04-.38-.04-.72-.12-1.02-.23l-.24-1.49c.29,.17,.64,.29,1.04,.37,.4,.08,.8,.08,1.19,.02,.41-.07,.72-.24,.92-.52,.2-.28,.26-.64,.19-1.08-.06-.37-.22-.66-.48-.89-.26-.22-.68-.45-1.27-.67-.65-.27-1.2-.59-1.63-.95-.44-.36-.71-.91-.83-1.64-.12-.76,.02-1.4,.44-1.94,.42-.54,1.02-.87,1.82-1,.79-.13,1.56-.04,2.29,.27l-.35,1.24c-.28-.13-.56-.22-.85-.27-.29-.06-.58-.06-.88-.01-.4,.06-.7,.23-.9,.49-.19,.26-.26,.58-.2,.96,.06,.38,.22,.67,.49,.87,.26,.2,.7,.43,1.31,.68,.65,.27,1.19,.58,1.62,.94,.43,.36,.7,.9,.82,1.64Z"/></g><g><path class="c" d="M458.32,124.53l-1.7-.69-.11-11.36-.07-.03c-.3,.94-.6,1.75-.88,2.44l-2.98,7.3-1.33-.54,4.85-11.9,1.7,.69,.17,11.21,.05,.02c.18-.5,.34-.95,.49-1.37s.29-.77,.41-1.08l2.91-7.13,1.33,.54-4.85,11.9Z"/><path class="c" d="M467.1,117.66c.83,.37,1.3,.9,1.42,1.59,.11,.69-.05,1.51-.48,2.48l-2.67,5.94-1.02-.46,.35-1.3-.03-.02c-.87,.71-1.75,.87-2.64,.47-.46-.21-.78-.5-.96-.88-.18-.38-.25-.79-.21-1.26,.04-.46,.17-.92,.38-1.38,.39-.88,.95-1.44,1.67-1.7,.72-.25,1.55-.2,2.5,.18l1.02,.4,.26-.58c.3-.68,.44-1.22,.39-1.62-.04-.4-.27-.69-.69-.88-.48-.22-1.12-.28-1.9-.2l.02-1.19c.88-.12,1.74,.01,2.59,.39Zm-1.09,5.06l-.81-.3c-1.21-.47-2.08-.12-2.59,1.03-.25,.55-.33,.99-.26,1.32,.07,.34,.28,.58,.62,.73,.46,.21,.92,.15,1.39-.18,.47-.33,.89-.9,1.25-1.71l.4-.89Z"/><path class="c" d="M470.16,128.72c.13,.06,.27,.11,.41,.14,.14,.03,.29,.05,.44,.07l-.51,1.07c-.21,0-.43-.02-.65-.07-.22-.05-.45-.14-.69-.25-.57-.28-.9-.67-.99-1.18-.09-.51,.06-1.16,.43-1.94l2.61-5.45-.81-.39,.34-.71,1.05,.06,1.31-1.83,.89,.43-.94,1.96,1.46,.7-.53,1.1-1.46-.7-2.54,5.29c-.21,.44-.32,.8-.31,1.07,0,.27,.16,.48,.48,.63Z"/><path class="c" d="M477.48,122.81l-4.33,8.64-1.3-.65,4.33-8.64,1.3,.65Zm1-3.57c.49,.25,.58,.68,.27,1.31-.31,.61-.71,.79-1.2,.55-.25-.12-.4-.3-.45-.53-.05-.23,0-.49,.14-.78,.31-.62,.73-.8,1.24-.55Z"/><path class="c" d="M482.99,131.13c-.47,.88-.98,1.6-1.54,2.16-.56,.56-1.15,.91-1.77,1.06-.62,.15-1.27,.04-1.93-.31-.63-.33-1.05-.8-1.28-1.39-.23-.6-.27-1.28-.13-2.06,.14-.77,.45-1.61,.92-2.5,.75-1.41,1.56-2.38,2.43-2.9,.87-.52,1.8-.52,2.79,0,.9,.48,1.41,1.22,1.51,2.24,.11,1.01-.22,2.25-1,3.7Zm-4.42-2.35c-.58,1.09-.89,1.98-.94,2.67-.05,.69,.2,1.18,.74,1.46,1.04,.55,2.14-.28,3.31-2.48,1.16-2.19,1.23-3.57,.19-4.12-.55-.29-1.1-.23-1.63,.19-.54,.42-1.09,1.18-1.67,2.27Z"/><path class="c" d="M490.45,129.6c1.36,.78,1.5,2.12,.41,4.03l-3.25,5.69-1.27-.72,3.11-5.44c.38-.66,.58-1.2,.6-1.63,.02-.43-.15-.75-.53-.97-.54-.31-1.07-.29-1.59,.06-.52,.35-1.08,1.06-1.7,2.13l-2.49,4.36-1.27-.73,4.8-8.39,1.02,.58-.51,1.22,.08,.04c.42-.32,.85-.49,1.31-.53,.46-.04,.88,.06,1.28,.29Z"/><path class="c" d="M494.72,140.6c-.46,.76-1.02,1.22-1.68,1.38-.66,.16-1.36,.01-2.1-.44-.38-.23-.7-.49-.96-.77-.26-.28-.47-.56-.63-.84l.79-1.29c.11,.32,.3,.64,.55,.96,.26,.32,.55,.58,.89,.79,.36,.22,.7,.29,1.04,.2,.33-.08,.62-.32,.85-.7,.19-.32,.26-.65,.21-.99s-.23-.78-.53-1.33c-.32-.63-.52-1.22-.62-1.78-.1-.56,.05-1.15,.44-1.79,.4-.66,.93-1.05,1.6-1.19s1.34,0,2.03,.43,1.21,.98,1.56,1.69l-1.07,.72c-.13-.27-.28-.53-.46-.76-.18-.23-.4-.42-.66-.58-.35-.21-.68-.28-1-.21-.32,.07-.58,.27-.78,.6-.2,.33-.27,.65-.2,.98,.07,.32,.25,.78,.55,1.37,.32,.63,.52,1.22,.62,1.77,.09,.55-.05,1.14-.44,1.78Z"/></g><g><path class="c" d="M577.32,203.29c.77,1.07,1.1,2.03,.97,2.89-.12,.86-.67,1.64-1.66,2.35-.69,.5-1.36,.79-2.01,.88-.65,.09-1.3-.06-1.96-.44l-3.16,5.47-.98-1.36,3.03-5-.75-1.04-4.37,3.14-.88-1.23,10.43-7.51,1.33,1.84Zm-1.1,.81l-.45-.63-3.93,2.83,.55,.76c.4,.55,.88,.86,1.43,.91,.55,.05,1.17-.17,1.85-.66,.66-.48,1.03-.97,1.11-1.49,.08-.51-.11-1.09-.56-1.72Z"/><path class="c" d="M580.01,212.42c.37,.55,.52,1.11,.44,1.67-.07,.57-.31,1.12-.73,1.66-.41,.54-.95,1.03-1.62,1.48l-.84,.56-2.56-3.81c-1.91,1.33-2.48,2.57-1.7,3.73,.19,.29,.43,.55,.71,.77,.28,.23,.61,.42,1.01,.59l-1.08,.72c-.71-.33-1.3-.84-1.76-1.52-.46-.69-.65-1.36-.57-2.01,.08-.65,.37-1.29,.86-1.89,.49-.61,1.13-1.17,1.91-1.69,1.36-.92,2.55-1.4,3.56-1.45,1.01-.05,1.8,.35,2.37,1.2Zm-.99,.66c-.27-.41-.69-.59-1.24-.55-.55,.04-1.25,.32-2.11,.83l1.79,2.66c.44-.3,.81-.61,1.12-.95,.31-.34,.51-.68,.6-1.02,.09-.35,.04-.67-.16-.97Z"/><path class="c" d="M584.19,218.8c.24,.39,.36,.78,.35,1.2-.01,.41-.16,.87-.46,1.36l.05,.08,1.17-.54,.65,1.04-8.27,5.21c-1.14,.72-2.17,1.03-3.09,.93-.93-.1-1.73-.69-2.42-1.77-.24-.38-.42-.74-.53-1.1-.12-.36-.19-.73-.21-1.13l1.17-.74c.07,.92,.29,1.67,.65,2.25,.39,.62,.85,.99,1.38,1.1,.53,.11,1.19-.08,1.99-.58l.24-.15c.17-.11,.37-.23,.6-.35,.22-.13,.46-.26,.72-.39l-.04-.06c-1.14,.11-1.96-.23-2.46-1.03-.47-.75-.48-1.55-.03-2.41,.46-.85,1.37-1.72,2.75-2.59,1.42-.9,2.62-1.36,3.61-1.38,.98-.02,1.71,.33,2.18,1.07Zm-.93,.95c-.3-.48-.79-.66-1.48-.54-.68,.12-1.55,.51-2.59,1.17-1.09,.68-1.8,1.3-2.15,1.84-.34,.54-.36,1.06-.06,1.55,.63,.99,1.87,.9,3.74-.27l.38-.24c1.08-.68,1.79-1.3,2.13-1.86,.35-.57,.35-1.11,.02-1.64Z"/><path class="c" d="M588.07,225.5l-8.31,4.94-.75-1.25,8.31-4.94,.75,1.25Zm2.77-2.46c.28,.47,.12,.89-.47,1.25-.59,.35-1.02,.29-1.31-.19-.14-.24-.17-.47-.09-.69,.08-.22,.26-.41,.54-.58,.6-.36,1.04-.29,1.34,.21Z"/><path class="c" d="M588.2,235.45c-.87,.49-1.69,.82-2.46,.98-.77,.17-1.46,.14-2.06-.07-.6-.21-1.09-.65-1.46-1.31-.35-.62-.46-1.24-.33-1.86,.13-.62,.46-1.22,1-1.8,.54-.58,1.24-1.11,2.12-1.61,1.39-.78,2.59-1.16,3.61-1.12,1.02,.03,1.8,.54,2.35,1.51,.5,.89,.52,1.79,.06,2.7-.46,.91-1.4,1.77-2.84,2.58Zm-2.46-4.36c-1.08,.61-1.82,1.19-2.23,1.74-.41,.55-.47,1.1-.17,1.63,.58,1.03,1.95,.93,4.13-.3,2.17-1.22,2.96-2.34,2.38-3.37-.31-.54-.8-.78-1.48-.72-.68,.07-1.56,.4-2.63,1.01Z"/><path class="c" d="M595.3,238.19c.73,1.39,.12,2.6-1.83,3.61l-5.81,3.03-.67-1.29,5.56-2.89c.67-.35,1.13-.7,1.38-1.05,.25-.35,.28-.71,.08-1.1-.29-.55-.74-.82-1.37-.81-.62,.01-1.48,.31-2.58,.88l-4.45,2.32-.67-1.29,8.57-4.46,.54,1.04-1.09,.75,.04,.08c.52-.04,.98,.05,1.38,.26s.71,.53,.92,.93Z"/><path class="c" d="M598.76,245.11c.4,.82,.42,1.53,.06,2.13-.36,.6-1.01,1.13-1.96,1.58l-5.87,2.82-.48-1,1.11-.77-.02-.03c-1.13-.02-1.9-.46-2.32-1.34-.22-.45-.27-.88-.17-1.29,.11-.4,.32-.77,.65-1.09,.33-.33,.72-.6,1.18-.82,.87-.41,1.65-.49,2.37-.22,.71,.27,1.32,.85,1.8,1.75l.53,.97,.57-.27c.67-.32,1.12-.65,1.34-.99,.22-.33,.24-.71,.04-1.12-.23-.48-.67-.94-1.32-1.38l.79-.9c.75,.48,1.32,1.13,1.72,1.97Zm-4.09,3.17l-.42-.76c-.63-1.14-1.51-1.43-2.64-.89-.54,.26-.89,.54-1.05,.84-.16,.3-.16,.62,0,.96,.22,.45,.61,.71,1.18,.76,.57,.05,1.26-.12,2.06-.5l.88-.42Z"/><path class="c" d="M592.58,255.17l-.6-1.33,12.46-5.65,.6,1.33-12.46,5.65Z"/><path class="c" d="M596.94,265.43l-1.94-4.73,11.89-4.88,1.94,4.73-1.25,.51-1.37-3.33-3.81,1.56,1.28,3.13-1.25,.51-1.28-3.13-4.31,1.77,1.37,3.33-1.26,.52Z"/><path class="c" d="M608.16,267.23c.55,1.47-.2,2.59-2.26,3.36l-6.14,2.3-.51-1.37,5.87-2.19c.71-.27,1.21-.56,1.5-.87s.36-.67,.21-1.08c-.22-.58-.64-.91-1.26-.97-.62-.06-1.51,.12-2.67,.56l-4.7,1.76-.51-1.36,9.05-3.39,.41,1.1-1.17,.61,.03,.08c.52,.02,.97,.17,1.34,.43,.37,.26,.64,.61,.8,1.04Z"/><path class="c" d="M602.38,277.04c.05,.14,.11,.27,.19,.39,.08,.12,.17,.25,.26,.37l-1.12,.39c-.15-.15-.29-.32-.41-.52-.12-.19-.22-.42-.31-.66-.21-.6-.16-1.11,.15-1.54,.3-.42,.87-.77,1.68-1.06l5.72-1.97-.29-.85,.75-.26,.69,.79,2.22-.35,.32,.94-2.06,.71,.53,1.53-1.16,.4-.53-1.53-5.55,1.91c-.46,.16-.79,.34-.98,.53-.19,.19-.23,.45-.11,.78Z"/><path class="c" d="M611.74,278.1l-9.19,2.99-.45-1.39,9.19-2.99,.45,1.39Zm3.24-1.79c.17,.52-.08,.89-.74,1.11-.65,.21-1.06,.05-1.23-.47-.09-.26-.07-.49,.06-.69,.12-.2,.34-.35,.65-.45,.66-.22,1.08-.05,1.26,.5Z"/><path class="c" d="M605.06,285.41c.04,.14,.1,.27,.18,.4,.08,.13,.16,.25,.25,.38l-1.14,.35c-.15-.16-.28-.33-.39-.53-.11-.2-.21-.42-.28-.68-.19-.61-.12-1.12,.2-1.53,.32-.41,.89-.74,1.72-1l5.78-1.77-.26-.86,.76-.23,.66,.81,2.23-.27,.29,.95-2.08,.64,.47,1.55-1.17,.36-.47-1.55-5.61,1.72c-.47,.14-.8,.31-1,.49-.19,.19-.24,.44-.14,.78Z"/><path class="c" d="M614.36,286.76l-9.29,2.67-.4-1.4,9.29-2.67,.4,1.4Zm3.3-1.68c.15,.53-.11,.89-.78,1.08-.66,.19-1.06,.02-1.21-.51-.08-.27-.05-.5,.08-.69,.13-.19,.35-.33,.66-.42,.67-.19,1.08-.01,1.24,.54Z"/><path class="c" d="M615.93,291.9c.17,.64,.12,1.21-.13,1.73-.26,.51-.67,.96-1.23,1.33-.57,.37-1.24,.66-2.02,.86l-.97,.26-1.17-4.44c-2.24,.63-3.19,1.61-2.83,2.96,.09,.34,.22,.66,.41,.96,.18,.31,.44,.6,.76,.89l-1.25,.33c-.57-.55-.95-1.22-1.16-2.02s-.17-1.5,.12-2.09c.29-.59,.77-1.09,1.44-1.5,.67-.41,1.45-.73,2.36-.97,1.59-.42,2.87-.48,3.84-.2,.97,.29,1.58,.92,1.84,1.91Zm-1.15,.3c-.12-.48-.46-.79-.99-.93-.54-.15-1.29-.11-2.27,.09l.81,3.1c.51-.13,.97-.31,1.37-.53,.4-.22,.7-.47,.91-.77s.26-.62,.17-.96Z"/><path class="c" d="M611.15,302.84c-.87,.2-1.59,.12-2.16-.24s-.96-.96-1.16-1.8c-.1-.43-.14-.84-.13-1.23,.01-.39,.07-.73,.16-1.04l1.47-.34c-.15,.31-.25,.66-.3,1.07-.05,.41-.03,.8,.06,1.19,.09,.41,.29,.7,.58,.88,.29,.18,.66,.22,1.09,.12,.36-.08,.65-.27,.85-.54,.21-.28,.4-.71,.58-1.31,.23-.67,.5-1.23,.83-1.69,.33-.46,.86-.77,1.58-.94,.75-.17,1.4-.07,1.97,.31,.56,.38,.94,.96,1.12,1.75,.18,.78,.15,1.55-.11,2.3l-1.26-.26c.11-.28,.18-.57,.21-.86s.02-.58-.05-.88c-.09-.4-.28-.69-.55-.86-.28-.18-.6-.22-.97-.13-.38,.09-.65,.27-.83,.55-.18,.28-.38,.73-.59,1.36-.23,.67-.5,1.23-.83,1.68-.33,.45-.85,.76-1.58,.93Z"/></g><g><path class="c" d="M99.28,298.8c.28-1.24,.79-2.09,1.54-2.54,.74-.45,1.74-.54,2.99-.25,1.28,.29,2.18,.82,2.72,1.58,.54,.76,.67,1.76,.39,2.99l-.18,.81,4.88,1.11-.33,1.47-12.53-2.85,.53-2.32Zm1.29,.35l-.18,.79,5.05,1.15,.15-.67c.19-.82,.12-1.45-.21-1.9-.33-.45-.96-.78-1.9-.99-.87-.2-1.53-.16-1.98,.1-.45,.27-.77,.77-.94,1.52Z"/><path class="c" d="M104.37,290.6c.07-.28,.18-.54,.33-.77l1.41,.58c-.13,.18-.23,.4-.3,.67-.09,.34-.02,.67,.19,1,.21,.33,.54,.62,.99,.89,.45,.26,.97,.47,1.58,.63l4.88,1.25-.36,1.41-9.36-2.4,.28-1.1,1.65,.22,.02-.09c-.5-.34-.86-.7-1.1-1.09-.24-.39-.31-.79-.2-1.2Z"/><path class="c" d="M101.89,286.57c.15-.53,.56-.71,1.23-.52,.66,.18,.92,.54,.77,1.07-.07,.27-.22,.45-.43,.54-.21,.1-.48,.1-.79,.02-.67-.19-.93-.56-.78-1.11Zm3.69,.29l9.32,2.58-.39,1.4-9.32-2.57,.39-1.41Z"/><path class="c" d="M115.94,285.79l-9.96-.44,.43-1.43,5.87,.41c.37,.02,.74,.05,1.12,.09s.76,.09,1.16,.16l.02-.07c-.19-.08-.43-.2-.72-.35-.29-.15-.62-.32-.97-.52l-5.46-3.1,.43-1.43,8.55,5.13-.46,1.55Z"/><path class="c" d="M109.01,274.99c.29-.87,.77-1.39,1.44-1.57,.67-.18,1.51-.11,2.51,.22l6.19,2.05-.35,1.06-1.33-.21v.03c.79,.79,1.03,1.65,.73,2.58-.16,.48-.42,.83-.77,1.04-.36,.22-.77,.33-1.23,.33-.46,0-.93-.07-1.41-.23-.91-.3-1.53-.8-1.86-1.49-.33-.69-.35-1.53-.08-2.51l.29-1.06-.6-.2c-.71-.23-1.26-.31-1.65-.22-.4,.08-.66,.34-.81,.78-.17,.5-.17,1.14,0,1.91l-1.19,.1c-.21-.86-.17-1.74,.12-2.61Zm5.14,.56l-.22,.84c-.34,1.25,.09,2.08,1.29,2.47,.57,.19,1.02,.23,1.34,.12,.33-.11,.55-.34,.66-.69,.16-.48,.05-.93-.32-1.37-.38-.43-.98-.79-1.83-1.07l-.92-.3Z"/><path class="c" d="M119.71,270.8c.05-.14,.08-.28,.09-.42,.01-.15,.02-.3,.03-.45l1.12,.4c.03,.21,.02,.43,0,.66-.03,.23-.09,.46-.18,.71-.21,.6-.57,.97-1.08,1.11-.5,.14-1.16,.06-1.97-.23l-5.69-2.04-.3,.85-.75-.27-.04-1.05-1.95-1.12,.33-.93,2.05,.73,.55-1.52,1.15,.41-.55,1.53,5.52,1.98c.46,.17,.83,.23,1.09,.2,.27-.03,.46-.21,.58-.54Z"/><path class="c" d="M113.38,262.87c.24-.62,.61-1.06,1.12-1.32,.51-.27,1.1-.39,1.78-.36,.68,.03,1.39,.19,2.14,.48l.94,.36-1.65,4.28c2.18,.81,3.53,.56,4.03-.74,.13-.32,.2-.67,.23-1.02,.03-.35,0-.74-.1-1.17l1.21,.47c.14,.77,.06,1.55-.24,2.32-.3,.77-.74,1.31-1.32,1.62-.58,.31-1.26,.44-2.05,.38-.78-.06-1.61-.25-2.48-.59-1.53-.59-2.61-1.29-3.23-2.09-.62-.8-.74-1.67-.38-2.62Zm1.11,.43c-.18,.46-.09,.9,.26,1.33,.35,.43,.98,.85,1.89,1.25l1.15-2.99c-.49-.19-.97-.31-1.42-.37-.45-.06-.85-.03-1.18,.09-.34,.12-.57,.35-.7,.69Z"/><path class="c" d="M127,255.61l-1.53,3.54-.79-.34,.18-1.19-9.65-4.17-.75,.95-.79-.34,1.53-3.54,.79,.34-.18,1.19,9.65,4.17,.75-.95,.79,.34Z"/><path class="c" d="M120.34,246.49c.66-1.43,1.99-1.68,3.98-.75l5.94,2.76-.61,1.32-5.68-2.64c-.69-.32-1.24-.47-1.67-.46-.43,.01-.73,.21-.92,.61-.26,.57-.2,1.09,.19,1.58,.39,.49,1.15,.99,2.27,1.51l4.55,2.11-.61,1.32-8.77-4.07,.49-1.06,1.26,.41,.04-.08c-.35-.39-.56-.81-.64-1.26-.08-.45-.02-.88,.18-1.3Z"/><path class="c" d="M132.55,244.28c-.42,.82-1.11,1.26-2.09,1.3-.98,.04-2.19-.3-3.65-1.04-1.44-.73-2.43-1.5-2.99-2.32-.56-.82-.64-1.63-.24-2.42,.2-.4,.5-.71,.89-.93,.39-.23,.84-.34,1.36-.35l.03-.06c-.5-.21-.9-.4-1.21-.55l-3.5-1.77,.66-1.3,12.21,6.17-.53,1.04-1.18-.37-.04,.08c.29,.44,.46,.87,.52,1.28,.06,.41-.02,.83-.23,1.25Zm-.95-.87c.53-1.06-.19-2.09-2.17-3.09l-.48-.24c-1.11-.56-2-.84-2.65-.84-.65,0-1.12,.28-1.4,.84-.25,.5-.15,1.02,.3,1.54,.45,.53,1.22,1.06,2.29,1.6,2.24,1.13,3.61,1.2,4.11,.2Z"/><path class="c" d="M129.47,229.08l8.48,4.64-.56,1.03-1.21-.48-.05,.09c.32,.41,.51,.83,.55,1.28s-.04,.86-.26,1.26c-.42,.77-1,1.15-1.73,1.16-.73,0-1.57-.26-2.52-.77l-5.53-3.02,.7-1.28,5.29,2.9c.75,.41,1.35,.63,1.8,.65,.45,.03,.77-.14,.97-.5,.32-.59,.31-1.13-.05-1.63-.36-.5-1.04-1.02-2.05-1.57l-4.52-2.47,.7-1.28Z"/><path class="c" d="M139.12,226.55c.77,.45,1.24,1,1.41,1.66s.04,1.36-.4,2.1c-.22,.38-.47,.71-.75,.98-.28,.27-.55,.48-.82,.64l-1.3-.76c.32-.12,.64-.31,.95-.57,.31-.26,.57-.56,.77-.91,.21-.36,.27-.71,.18-1.04s-.33-.61-.71-.83c-.32-.19-.65-.25-.99-.19-.34,.06-.78,.24-1.32,.55-.62,.33-1.21,.55-1.77,.65-.56,.11-1.15-.03-1.8-.4-.66-.39-1.07-.91-1.22-1.58-.15-.66-.02-1.34,.39-2.04,.41-.69,.96-1.23,1.66-1.59l.74,1.06c-.27,.13-.52,.29-.75,.48-.23,.19-.42,.41-.57,.67-.21,.35-.27,.69-.19,1s.28,.57,.61,.77c.33,.19,.66,.25,.98,.18,.32-.08,.78-.27,1.36-.58,.62-.33,1.21-.55,1.76-.65,.55-.1,1.14,.03,1.78,.41Z"/><path class="c" d="M142.61,223.67c.08-.12,.14-.25,.18-.4,.04-.14,.08-.29,.12-.43l1.01,.62c-.02,.21-.07,.43-.14,.64-.08,.21-.18,.43-.32,.66-.33,.54-.76,.83-1.28,.86-.52,.03-1.15-.18-1.88-.63l-5.15-3.17-.47,.77-.68-.41,.17-1.03-1.68-1.5,.52-.84,1.86,1.14,.85-1.38,1.04,.64-.85,1.38,5,3.07c.42,.26,.76,.4,1.03,.42s.49-.11,.67-.41Z"/><path class="c" d="M138.36,214.09c.16-.24,.34-.45,.55-.63l1.16,1c-.18,.13-.35,.31-.5,.54-.19,.29-.23,.63-.13,1.01,.1,.38,.32,.76,.66,1.15,.34,.39,.77,.75,1.3,1.09l4.24,2.73-.79,1.23-8.13-5.23,.61-.95,1.5,.73,.05-.08c-.36-.48-.6-.94-.7-1.38-.11-.45-.05-.85,.18-1.2Z"/><path class="c" d="M139.27,213.01l.85-1.25,5.27,1.98c.33,.14,.67,.28,1.02,.42,.35,.14,.7,.3,1.03,.47l.04-.06c-.48-.43-1-.96-1.58-1.59l-3.81-4.13,.84-1.24,7.61,8.6c.68,.78,1.09,1.46,1.24,2.05,.15,.59,.04,1.16-.33,1.7-.08,.12-.17,.23-.27,.34-.1,.11-.22,.21-.35,.33l-1.07-.73c.1-.08,.19-.16,.28-.25,.09-.09,.16-.17,.22-.26,.2-.29,.24-.59,.12-.9-.12-.31-.41-.73-.87-1.26l-.84-.94-9.39-3.28Z"/></g><g><path class="c" d="M96.15,405.27l-.29-1.81,9.65-5.99v-.07c-.97,.23-1.82,.4-2.55,.52l-7.79,1.25-.23-1.42,12.69-2.03,.29,1.81-9.49,5.97v.05c.53-.11,1-.2,1.43-.29,.43-.09,.81-.16,1.14-.21l7.61-1.22,.23,1.42-12.69,2.03Z"/><path class="c" d="M102.61,413.18c-.98,.19-1.86,.25-2.65,.16-.79-.08-1.43-.32-1.94-.71-.5-.39-.83-.96-.98-1.7-.14-.69-.05-1.32,.27-1.87,.32-.55,.82-1.02,1.51-1.4,.69-.38,1.53-.67,2.52-.86,1.57-.31,2.83-.29,3.78,.06,.96,.35,1.54,1.07,1.76,2.17,.2,1-.06,1.86-.79,2.58-.72,.72-1.89,1.24-3.5,1.56Zm-.97-4.91c-1.21,.24-2.1,.56-2.66,.96s-.79,.9-.67,1.5c.23,1.15,1.56,1.49,4.01,1.01,2.44-.48,3.54-1.3,3.31-2.45-.12-.61-.51-.99-1.18-1.14s-1.6-.11-2.82,.13Z"/><path class="c" d="M108.74,417.67c.35,1.53-.54,2.54-2.68,3.04l-6.38,1.47-.33-1.42,6.11-1.4c.74-.17,1.27-.39,1.6-.66,.33-.27,.45-.62,.35-1.04-.14-.61-.51-.98-1.12-1.13-.61-.14-1.51-.08-2.72,.2l-4.9,1.13-.33-1.42,9.42-2.16,.26,1.14-1.24,.45,.02,.09c.51,.09,.94,.29,1.27,.6,.34,.31,.55,.69,.66,1.13Z"/><path class="c" d="M104.14,423.06l1.41-.36,.98,3.83-1.41,.36-.98-3.84Z"/><path class="c" d="M109.38,432.24l.91,3.17-6.09,1.75c-.7-.92-1.21-1.94-1.54-3.06-.29-1.01-.25-1.92,.12-2.73,.37-.81,1-1.5,1.87-2.09,.87-.59,1.92-1.06,3.13-1.41,1.23-.35,2.37-.5,3.42-.43,1.04,.07,1.94,.37,2.68,.91,.74,.54,1.26,1.33,1.57,2.38,.3,1.03,.3,2.04,.02,3.05l-1.38-.17c.27-.9,.29-1.73,.07-2.48-.3-1.04-.96-1.7-1.97-2-1.02-.29-2.35-.2-4,.27-.96,.28-1.78,.62-2.48,1.04-.7,.42-1.2,.92-1.52,1.49-.32,.57-.37,1.21-.17,1.91,.19,.65,.44,1.19,.75,1.62l3.82-1.1-.5-1.75,1.3-.37Z"/><path class="c" d="M111.04,444.02c-.95,.31-1.82,.47-2.61,.48-.79,.01-1.46-.15-2.01-.47-.55-.33-.94-.85-1.17-1.57-.22-.67-.2-1.3,.05-1.89,.25-.59,.7-1.11,1.33-1.57s1.44-.85,2.4-1.16c1.52-.5,2.77-.63,3.76-.39,.99,.23,1.66,.88,2,1.94,.32,.97,.16,1.86-.47,2.66-.63,.8-1.72,1.46-3.29,1.97Zm-1.55-4.76c-1.18,.38-2.02,.81-2.53,1.27-.51,.46-.67,.99-.48,1.57,.37,1.12,1.73,1.29,4.11,.52,2.36-.77,3.36-1.71,3-2.83-.19-.59-.63-.92-1.31-.99-.68-.07-1.61,.09-2.78,.47Z"/><path class="c" d="M107.57,448.74l8.29-5.54,.5,1.41-4.97,3.15c-.31,.2-.63,.4-.96,.59-.33,.19-.67,.38-1.02,.56l.02,.07c.2-.05,.46-.1,.79-.15,.32-.05,.69-.11,1.09-.16l6.24-.74,.5,1.41-9.93,.93-.54-1.53Z"/><path class="c" d="M119.66,453.06c.24,.62,.26,1.19,.07,1.73-.2,.54-.55,1.03-1.07,1.46s-1.15,.8-1.9,1.09l-.94,.37-1.66-4.28c-2.16,.88-2.98,1.96-2.48,3.26,.13,.32,.3,.63,.52,.91,.22,.28,.51,.55,.86,.79l-1.21,.47c-.62-.48-1.09-1.1-1.39-1.88-.3-.77-.34-1.47-.12-2.09s.64-1.17,1.26-1.66c.62-.48,1.36-.9,2.23-1.23,1.53-.6,2.8-.81,3.79-.63,.99,.17,1.68,.73,2.05,1.69Zm-1.11,.43c-.18-.46-.54-.73-1.09-.81-.55-.08-1.29,.03-2.24,.35l1.16,2.99c.49-.19,.93-.42,1.3-.68,.38-.26,.65-.55,.81-.87,.17-.32,.19-.64,.05-.98Z"/><path class="c" d="M122.79,460.72c.11,.27,.18,.54,.2,.81l-1.48,.39c0-.22-.06-.46-.16-.71-.13-.32-.39-.55-.75-.68-.37-.13-.81-.17-1.32-.11-.52,.06-1.06,.21-1.64,.45l-4.65,1.95-.56-1.34,8.92-3.73,.44,1.05-1.45,.82,.04,.08c.6-.03,1.11,.04,1.54,.2,.43,.17,.72,.44,.88,.83Z"/><path class="c" d="M125.15,466.05c.65,1.43-.03,2.6-2.03,3.5l-5.97,2.69-.6-1.33,5.71-2.57c.69-.31,1.17-.63,1.44-.97,.27-.33,.32-.7,.14-1.09-.26-.57-.7-.87-1.32-.89s-1.5,.22-2.62,.73l-4.58,2.06-.6-1.33,8.81-3.97,.48,1.07-1.13,.69,.04,.08c.52-.01,.98,.1,1.37,.34,.39,.24,.68,.57,.87,.98Z"/><path class="c" d="M130.55,477.28c.68,1.35,.01,2.53-2,3.53l-5.8,2.9-.65-1.3,5.56-2.78c.75-.38,1.24-.74,1.47-1.08,.23-.34,.26-.7,.07-1.06-.26-.52-.68-.76-1.28-.73-.6,.03-1.37,.28-2.31,.75l-4.77,2.38-.64-1.29,5.6-2.8c.74-.37,1.22-.73,1.44-1.06,.22-.34,.24-.69,.06-1.05-.19-.39-.47-.62-.84-.69-.37-.07-.8-.03-1.31,.13-.51,.16-1.07,.39-1.68,.7l-4.52,2.26-.65-1.3,8.65-4.32,.52,1.05-1.1,.73,.04,.08c1.06-.1,1.82,.29,2.26,1.18,.25,.49,.31,.95,.19,1.37-.12,.42-.35,.78-.7,1.07l.05,.1c.57-.03,1.05,.05,1.42,.23,.38,.19,.68,.52,.92,.99Z"/><path class="c" d="M134,483.77c.32,.58,.41,1.15,.29,1.71-.12,.56-.42,1.09-.87,1.59-.46,.5-1.04,.94-1.75,1.33l-.88,.49-2.21-4.02c-2.02,1.15-2.7,2.34-2.03,3.56,.17,.31,.38,.58,.63,.83s.57,.48,.96,.68l-1.14,.62c-.68-.39-1.22-.95-1.62-1.68-.4-.73-.53-1.41-.39-2.05s.48-1.25,1.03-1.81c.55-.56,1.23-1.07,2.05-1.52,1.44-.79,2.67-1.17,3.67-1.12,1.01,.04,1.76,.51,2.25,1.41Zm-1.04,.57c-.24-.43-.63-.65-1.19-.66-.55-.01-1.28,.2-2.17,.64l1.54,2.81c.46-.25,.86-.54,1.2-.84,.34-.31,.57-.63,.69-.96,.12-.33,.1-.66-.07-.98Z"/><path class="c" d="M138.22,491.13c.8,1.35,.25,2.59-1.64,3.7l-5.64,3.33-.74-1.26,5.4-3.18c.65-.38,1.09-.75,1.33-1.12,.23-.36,.24-.73,.02-1.1-.32-.54-.79-.78-1.41-.74-.62,.04-1.46,.38-2.53,1.01l-4.33,2.55-.74-1.26,8.33-4.91,.59,1.01-1.05,.81,.05,.08c.52-.07,.98,0,1.4,.19,.41,.2,.74,.49,.97,.88Z"/><path class="c" d="M134.54,501.85c.08,.12,.17,.23,.27,.34,.11,.1,.22,.2,.34,.3l-1.01,.63c-.18-.11-.35-.25-.51-.41-.16-.16-.31-.36-.45-.58-.34-.54-.4-1.05-.2-1.53,.2-.48,.67-.95,1.4-1.41l5.13-3.2-.48-.76,.67-.42,.85,.61,2.09-.84,.52,.84-1.85,1.15,.86,1.37-1.04,.65-.86-1.38-4.98,3.11c-.42,.26-.7,.51-.84,.73-.14,.23-.12,.49,.07,.79Z"/><path class="c" d="M144.68,501.47c.5,.76,.61,1.46,.34,2.1-.28,.64-.85,1.25-1.74,1.83l-5.44,3.58-.61-.93,.99-.91-.02-.03c-1.12,.13-1.95-.21-2.48-1.02-.28-.42-.39-.84-.34-1.25,.05-.41,.22-.8,.5-1.17,.28-.37,.64-.69,1.06-.96,.8-.53,1.58-.71,2.32-.53,.74,.17,1.42,.67,2.02,1.5l.65,.89,.53-.35c.62-.41,1.02-.79,1.2-1.16,.18-.36,.14-.73-.11-1.11-.29-.44-.79-.84-1.5-1.19l.66-.99c.81,.37,1.46,.95,1.97,1.72Zm-3.63,3.68l-.52-.69c-.77-1.04-1.69-1.22-2.74-.53-.5,.33-.81,.66-.93,.98-.12,.32-.08,.64,.13,.95,.28,.42,.7,.62,1.27,.59,.57-.03,1.23-.28,1.97-.77l.81-.53Z"/><path class="c" d="M140.15,512.35l-.83-1.2,11.26-7.77,.83,1.2-11.26,7.77Z"/><path class="c" d="M153.66,519.93c-.99,.74-1.96,1.31-2.93,1.69s-1.86,.52-2.69,.4c-.83-.12-1.53-.57-2.12-1.35-.45-.59-.69-1.2-.72-1.82-.03-.62,.1-1.24,.39-1.87s.71-1.23,1.27-1.83c.56-.6,1.2-1.17,1.93-1.72,3.5-2.63,6.07-2.86,7.7-.69,.58,.78,.82,1.58,.71,2.41-.11,.83-.49,1.65-1.12,2.46-.63,.81-1.44,1.59-2.42,2.32Zm-3.93-5.24c-1.38,1.04-2.3,1.99-2.75,2.86-.45,.87-.43,1.63,.05,2.27,.99,1.31,2.88,.92,5.67-1.17,2.78-2.09,3.68-3.79,2.7-5.09-.5-.67-1.23-.91-2.19-.71-.95,.2-2.12,.81-3.49,1.84Z"/><path class="c" d="M159.8,522.16c.18,.22,.32,.47,.42,.73l-1.32,.77c-.06-.21-.18-.42-.35-.64-.22-.27-.52-.42-.91-.45-.39-.03-.82,.06-1.3,.26s-.96,.49-1.45,.88l-3.94,3.15-.91-1.14,7.55-6.03,.71,.89-1.17,1.19,.06,.07c.57-.19,1.08-.27,1.54-.22,.46,.04,.81,.23,1.08,.56Z"/><path class="c" d="M162.72,525.69c.29,.35,.46,.73,.51,1.14,.05,.41-.04,.88-.27,1.41l.06,.07,1.08-.7,.79,.94-7.47,6.3c-1.03,.87-2.01,1.31-2.94,1.35-.93,.03-1.81-.44-2.64-1.42-.29-.34-.51-.68-.68-1.02-.17-.34-.29-.7-.37-1.09l1.06-.89c.2,.9,.51,1.61,.96,2.14,.47,.56,.98,.86,1.52,.9,.54,.04,1.17-.25,1.89-.85l.22-.19c.16-.13,.34-.28,.54-.43,.2-.16,.42-.32,.66-.49l-.05-.06c-1.11,.26-1.97,.04-2.57-.68-.57-.68-.69-1.47-.36-2.38,.33-.91,1.12-1.89,2.37-2.94,1.28-1.08,2.41-1.7,3.38-1.86,.97-.16,1.74,.09,2.3,.76Zm-.79,1.07c-.36-.43-.88-.54-1.54-.33-.66,.21-1.46,.72-2.41,1.51-.98,.83-1.61,1.53-1.87,2.12-.27,.59-.22,1.1,.16,1.54,.76,.9,1.98,.64,3.67-.79l.34-.29c.97-.82,1.59-1.53,1.86-2.14,.26-.61,.2-1.15-.21-1.63Z"/><path class="c" d="M168.42,532.25c.61,.68,.83,1.36,.65,2.03-.18,.67-.66,1.36-1.44,2.07l-4.85,4.35-.74-.83,.85-1.05-.02-.03c-1.09,.3-1.95,.08-2.6-.64-.34-.38-.51-.77-.52-1.19-.01-.42,.1-.83,.32-1.23,.23-.4,.53-.77,.9-1.11,.71-.64,1.45-.93,2.21-.87,.76,.06,1.5,.45,2.22,1.18l.77,.78,.47-.42c.55-.5,.89-.94,1.02-1.32,.12-.38,.03-.75-.27-1.09-.35-.39-.9-.71-1.66-.96l.5-1.08c.85,.25,1.59,.72,2.21,1.41Zm-3.04,4.18l-.62-.61c-.92-.92-1.85-.95-2.79-.11-.45,.4-.7,.77-.77,1.1-.07,.34,.02,.64,.27,.92,.34,.38,.79,.51,1.35,.4,.56-.11,1.17-.46,1.83-1.06l.72-.65Z"/><path class="c" d="M174.18,538.47c1.09,1.14,.83,2.46-.75,3.98l-4.74,4.52-1.01-1.05,4.53-4.32c.55-.52,.89-.99,1.04-1.39,.15-.4,.07-.76-.23-1.07-.43-.45-.94-.58-1.54-.4-.59,.19-1.34,.71-2.23,1.56l-3.63,3.47-1.01-1.06,6.99-6.67,.81,.85-.84,1.02,.06,.07c.49-.18,.96-.23,1.4-.13,.45,.1,.83,.31,1.14,.64Z"/><path class="c" d="M178.43,543.05l-6.83,6.83-1.03-1.03,6.83-6.84,1.03,1.03Zm2.07-3.07c.39,.39,.34,.83-.15,1.33-.48,.48-.92,.53-1.31,.14-.2-.2-.28-.41-.26-.64,.02-.23,.15-.46,.38-.69,.49-.49,.94-.53,1.35-.13Z"/><path class="c" d="M176.29,554.46l-3.33-3.21,.69-.71,7.25-3.34-1.96-1.89,.86-.89,3.11,3-.74,.76-7.18,3.3,2.16,2.09-.86,.89Z"/><path class="c" d="M186.3,550.31c.67,.62,.95,1.27,.84,1.96-.11,.69-.52,1.42-1.24,2.2l-4.4,4.8-.82-.75,.74-1.13-.03-.02c-1.05,.4-1.94,.28-2.65-.38-.37-.34-.58-.72-.64-1.13-.05-.41,.01-.83,.2-1.26,.19-.42,.45-.82,.79-1.19,.65-.71,1.35-1.07,2.12-1.09,.76-.02,1.54,.3,2.32,.96l.85,.7,.43-.46c.5-.55,.8-1.02,.88-1.41s-.04-.75-.38-1.05c-.39-.36-.97-.62-1.74-.79l.4-1.13c.87,.17,1.65,.56,2.33,1.18Zm-2.62,4.46l-.67-.54c-1-.82-1.93-.77-2.78,.16-.41,.44-.63,.84-.66,1.18-.04,.34,.08,.64,.36,.89,.37,.34,.83,.43,1.38,.27s1.12-.57,1.72-1.23l.66-.72Z"/><path class="c" d="M186.04,561.77c.11,.09,.23,.18,.36,.24,.13,.07,.27,.13,.41,.19l-.78,.89c-.21-.05-.41-.14-.61-.25-.2-.11-.4-.25-.6-.42-.48-.42-.69-.89-.64-1.41,.05-.52,.37-1.1,.93-1.75l3.98-4.55-.68-.59,.52-.6,.99,.34,1.75-1.41,.75,.65-1.43,1.64,1.22,1.07-.81,.92-1.22-1.07-3.86,4.42c-.32,.37-.52,.69-.59,.94-.07,.26,.03,.5,.29,.73Z"/><path class="c" d="M194.62,557.85l-6.23,7.38-1.11-.94,6.23-7.39,1.11,.94Zm1.81-3.23c.42,.36,.41,.8-.04,1.33-.44,.52-.87,.61-1.29,.25-.21-.18-.32-.39-.31-.62,0-.23,.11-.48,.32-.72,.45-.53,.89-.61,1.33-.24Z"/><path class="c" d="M198.23,567.01c-.62,.78-1.27,1.38-1.92,1.83-.66,.44-1.3,.68-1.94,.7-.64,.03-1.25-.2-1.84-.67-.55-.44-.88-.98-.99-1.61-.11-.63-.02-1.31,.26-2.04,.28-.73,.74-1.49,1.37-2.28,1-1.24,1.98-2.04,2.94-2.38,.96-.35,1.87-.17,2.74,.53,.79,.64,1.15,1.47,1.06,2.48-.09,1.02-.65,2.17-1.68,3.45Zm-3.9-3.14c-.78,.96-1.25,1.78-1.43,2.45-.18,.67-.02,1.19,.45,1.58,.92,.74,2.16,.13,3.72-1.81,1.56-1.93,1.88-3.27,.96-4.01-.49-.39-1.03-.43-1.64-.12-.61,.31-1.3,.95-2.07,1.91Z"/><path class="c" d="M205.82,566.51c1.26,.95,1.22,2.3-.1,4.05l-3.94,5.23-1.16-.88,3.77-5c.46-.6,.72-1.12,.8-1.54,.08-.42-.06-.76-.4-1.02-.5-.38-1.03-.42-1.58-.14-.56,.28-1.21,.91-1.95,1.9l-3.02,4.01-1.16-.88,5.82-7.72,.93,.7-.66,1.15,.07,.05c.45-.26,.91-.38,1.36-.36,.46,.02,.87,.17,1.23,.44Z"/><path class="c" d="M209,577.77c-.52,.72-1.11,1.14-1.78,1.26-.67,.11-1.36-.08-2.06-.58-.36-.26-.66-.54-.91-.83-.24-.3-.43-.59-.57-.88l.88-1.23c.09,.33,.25,.66,.48,1,.23,.33,.51,.62,.83,.85,.34,.24,.68,.33,1.02,.27,.34-.06,.64-.27,.89-.63,.22-.3,.31-.63,.28-.97-.03-.34-.17-.8-.43-1.37-.27-.65-.44-1.26-.49-1.82-.06-.56,.13-1.15,.56-1.75,.44-.63,1-.98,1.68-1.07,.67-.09,1.34,.1,1.99,.57,.66,.47,1.14,1.06,1.44,1.8l-1.12,.64c-.11-.28-.25-.55-.41-.79-.17-.24-.37-.45-.62-.63-.33-.24-.66-.33-.98-.28-.32,.05-.6,.23-.82,.54-.22,.31-.31,.63-.26,.96,.05,.33,.2,.8,.46,1.41,.27,.65,.44,1.25,.49,1.81,.05,.55-.13,1.14-.56,1.74Z"/></g><g><path class="c" d="M296.79,606.37c1.23,.31,2.07,.84,2.51,1.59,.44,.75,.5,1.75,.19,3-.32,1.27-.86,2.17-1.64,2.69-.77,.52-1.77,.63-2.99,.33l-.8-.2-1.22,4.85-1.47-.37,3.12-12.47,2.3,.58Zm-.38,1.28l-.79-.2-1.26,5.03,.66,.17c.81,.21,1.45,.15,1.91-.17,.46-.32,.8-.94,1.04-1.88,.22-.86,.2-1.52-.06-1.98-.26-.46-.76-.78-1.5-.97Z"/><path class="c" d="M304.68,611.3c.28,.06,.54,.16,.78,.3l-.54,1.43c-.18-.13-.41-.22-.68-.28-.34-.08-.67,0-.99,.22-.32,.22-.6,.56-.85,1.02-.25,.46-.44,.99-.58,1.6l-1.09,4.92-1.42-.32,2.1-9.43,1.11,.25-.17,1.66,.09,.02c.32-.51,.67-.89,1.06-1.14,.38-.25,.78-.33,1.19-.24Z"/><path class="c" d="M311.69,617.81c-.19,.98-.47,1.81-.85,2.51-.37,.7-.84,1.21-1.39,1.53-.55,.32-1.2,.41-1.94,.26-.7-.14-1.24-.46-1.63-.96-.39-.5-.63-1.15-.72-1.93-.09-.78-.04-1.67,.15-2.66,.31-1.57,.8-2.72,1.49-3.48,.69-.75,1.58-1.02,2.67-.81,1,.2,1.7,.76,2.1,1.7,.4,.94,.44,2.22,.12,3.83Zm-4.91-.96c-.24,1.21-.28,2.16-.12,2.83,.16,.67,.53,1.07,1.13,1.18,1.15,.23,1.97-.89,2.45-3.34,.48-2.44,.14-3.77-1.02-4-.61-.12-1.11,.1-1.5,.66s-.7,1.45-.94,2.66Z"/><path class="c" d="M314.14,623.14l-.81-9.93,1.47,.25,.34,5.88c.02,.37,.04,.74,.05,1.12,0,.38,0,.77-.01,1.17h.07c.06-.19,.14-.44,.25-.75,.11-.31,.24-.65,.39-1.03l2.39-5.81,1.47,.24-4.02,9.13-1.6-.27Z"/><path class="c" d="M322.58,614.68l-1.39,9.57-1.44-.21,1.39-9.57,1.44,.21Zm-.17-3.7c.55,.08,.77,.46,.67,1.15-.1,.68-.42,.98-.97,.9-.27-.04-.47-.16-.59-.36-.12-.2-.16-.46-.11-.78,.1-.69,.43-.99,1-.91Z"/><path class="c" d="M328.57,615.28c1.56,.19,2.21,1.37,1.95,3.55l-.79,6.5-1.45-.17,.75-6.22c.09-.75,.06-1.33-.08-1.73-.15-.4-.43-.63-.86-.69-.62-.07-1.1,.15-1.44,.67-.34,.52-.58,1.4-.73,2.62l-.6,4.99-1.45-.17,1.16-9.6,1.16,.14v1.32h.09c.26-.44,.59-.77,1-.98,.41-.21,.84-.29,1.29-.23Z"/><path class="c" d="M335.21,626.05c-2.13-.2-3.04-1.94-2.74-5.22,.15-1.58,.53-2.79,1.14-3.64,.61-.85,1.46-1.22,2.55-1.12,.37,.03,.71,.11,1,.21s.57,.24,.8,.41l-.56,1.16c-.43-.28-.85-.44-1.26-.48-1.23-.11-1.96,1.08-2.19,3.58-.23,2.45,.28,3.73,1.52,3.85,.26,.02,.53,.01,.81-.04,.28-.05,.56-.14,.85-.26l-.11,1.22c-.27,.14-.57,.24-.9,.3-.34,.05-.64,.07-.92,.04Z"/><path class="c" d="M341.11,616.64l-.7,9.64-1.45-.11,.7-9.64,1.45,.11Zm-.44-3.68c.55,.04,.8,.41,.75,1.1-.05,.68-.35,1-.9,.96-.28-.02-.48-.13-.62-.32-.14-.19-.19-.45-.17-.77,.05-.69,.36-1.02,.94-.98Z"/><path class="c" d="M346.27,616.76c.91,.04,1.54,.37,1.9,.97,.35,.6,.51,1.43,.45,2.48l-.32,6.51-1.11-.06-.15-1.34h-.04c-.55,.98-1.32,1.45-2.29,1.4-.5-.02-.91-.18-1.21-.46-.3-.29-.52-.65-.65-1.1-.13-.44-.18-.92-.15-1.42,.05-.96,.36-1.69,.94-2.19,.58-.5,1.38-.75,2.4-.75h1.1l.03-.63c.04-.74-.04-1.29-.22-1.65-.19-.36-.51-.55-.96-.57-.53-.03-1.14,.14-1.85,.5l-.41-1.12c.78-.43,1.63-.62,2.55-.57Zm.83,5.1h-.87c-1.3,.02-1.98,.65-2.04,1.91-.03,.6,.05,1.04,.24,1.33,.19,.29,.47,.44,.84,.46,.5,.03,.91-.2,1.23-.68,.32-.48,.5-1.16,.54-2.04l.05-.97Z"/><path class="c" d="M352.38,626.84l-1.46-.04,.38-13.67,1.46,.04-.38,13.67Z"/><path class="c" d="M361.09,613.89c.7,0,1.24,.23,1.62,.7,.38,.47,.58,1.13,.59,1.98,0,.73-.12,1.38-.37,1.95-.25,.57-.65,1.11-1.18,1.62l1.85,3.04c.29-.62,.46-1.42,.48-2.4h1.49c-.03,.59-.14,1.23-.32,1.91-.19,.68-.43,1.28-.74,1.8l1.63,2.4-1.76,.02-.79-1.31c-.39,.49-.81,.86-1.25,1.12-.44,.26-.97,.4-1.6,.4-.61,0-1.12-.14-1.52-.44-.41-.3-.71-.7-.9-1.21-.2-.51-.3-1.1-.3-1.76,0-.77,.15-1.45,.46-2.04,.31-.59,.81-1.16,1.5-1.71-.38-.61-.65-1.16-.82-1.66-.17-.5-.25-1.08-.26-1.73,0-.82,.19-1.46,.58-1.94,.4-.48,.94-.72,1.62-.73Zm-.44,7.04c-.43,.4-.73,.8-.91,1.21-.18,.4-.26,.9-.26,1.49,0,.67,.14,1.2,.4,1.57,.26,.38,.61,.56,1.04,.56,.71,0,1.33-.45,1.86-1.33l-2.14-3.49Zm.41-5.86c-.24,0-.43,.13-.57,.38-.14,.25-.21,.63-.21,1.12,0,.41,.07,.85,.2,1.32,.13,.47,.31,.88,.54,1.23,.33-.33,.57-.71,.71-1.14,.14-.43,.21-.91,.2-1.44,0-.98-.3-1.47-.88-1.47Z"/><path class="c" d="M374.29,626.51l-1.51,.08-.6-11.47-2.48,.13-.07-1.37,6.47-.34,.07,1.37-2.48,.13,.6,11.47Z"/><path class="c" d="M379.67,616.3c.66-.05,1.22,.1,1.68,.44,.46,.34,.82,.83,1.09,1.45,.27,.62,.43,1.34,.49,2.14l.08,1.01-4.58,.35c.21,2.32,1.02,3.42,2.41,3.32,.35-.03,.69-.1,1.02-.23,.33-.13,.67-.33,1.01-.59l.1,1.29c-.64,.46-1.37,.72-2.2,.78-.83,.06-1.5-.1-2.03-.49-.53-.39-.94-.95-1.22-1.68-.29-.73-.46-1.56-.54-2.49-.13-1.64,.04-2.91,.49-3.81,.45-.9,1.19-1.39,2.21-1.47Zm.09,1.18c-.49,.04-.85,.31-1.09,.81-.24,.5-.34,1.25-.31,2.25l3.19-.25c-.04-.53-.13-1.01-.27-1.44-.14-.43-.34-.78-.59-1.03-.25-.25-.56-.36-.92-.34Z"/><path class="c" d="M387.91,615.51c.29-.03,.57-.01,.84,.04l-.06,1.53c-.21-.06-.45-.08-.73-.05-.35,.04-.64,.21-.87,.52-.23,.31-.4,.72-.49,1.23-.09,.51-.11,1.08-.04,1.7l.52,5.01-1.45,.15-.99-9.61,1.13-.12,.37,1.63h.09c.14-.59,.36-1.06,.64-1.43,.28-.36,.63-.56,1.05-.61Z"/><path class="c" d="M393.47,614.84c.29-.04,.56-.03,.84,.02l-.03,1.53c-.21-.06-.46-.07-.73-.04-.35,.04-.63,.22-.86,.54-.23,.32-.38,.73-.46,1.25-.08,.51-.08,1.08,0,1.7l.63,5-1.45,.18-1.2-9.59,1.13-.14,.4,1.62h.09c.13-.6,.34-1.07,.61-1.44,.27-.37,.62-.58,1.04-.63Z"/><path class="c" d="M396.01,611c.55-.08,.87,.23,.97,.92,.1,.68-.13,1.05-.67,1.13-.27,.04-.5-.02-.67-.18-.17-.16-.28-.4-.33-.72-.1-.69,.14-1.07,.71-1.16Zm1.21,3.5l1.38,9.57-1.44,.21-1.38-9.57,1.44-.21Z"/><path class="c" d="M403.38,622.19c.14-.02,.28-.06,.42-.12,.14-.06,.27-.12,.41-.19l.19,1.17c-.17,.12-.37,.23-.58,.31s-.45,.15-.71,.19c-.63,.1-1.12-.03-1.49-.41-.36-.37-.61-.99-.75-1.84l-.96-5.97-.89,.14-.12-.78,.9-.54,.04-2.25,.98-.16,.35,2.15,1.6-.26,.19,1.21-1.6,.26,.93,5.79c.08,.49,.2,.84,.35,1.06,.16,.22,.41,.3,.75,.24Z"/><path class="c" d="M411.27,616.98c.18,.98,.23,1.86,.14,2.65-.09,.79-.33,1.43-.73,1.93-.39,.5-.96,.82-1.71,.96-.7,.13-1.32,.03-1.87-.29-.55-.33-1.01-.83-1.38-1.53-.37-.69-.65-1.54-.84-2.53-.29-1.57-.26-2.83,.1-3.78,.36-.95,1.09-1.53,2.18-1.74,1-.19,1.86,.08,2.58,.81,.71,.73,1.22,1.9,1.53,3.51Zm-4.92,.92c.23,1.21,.54,2.11,.93,2.67,.39,.57,.89,.79,1.49,.68,1.16-.22,1.5-1.55,1.05-4-.46-2.44-1.26-3.55-2.42-3.34-.61,.11-1,.5-1.15,1.17-.16,.66-.12,1.6,.1,2.82Z"/><path class="c" d="M415.59,610.94c.28-.06,.56-.08,.83-.05l.11,1.52c-.22-.04-.46-.03-.73,.03-.34,.07-.61,.28-.81,.62-.2,.34-.32,.76-.35,1.28-.04,.52,.01,1.08,.14,1.69l1.06,4.93-1.43,.31-2.03-9.45,1.11-.24,.54,1.58,.09-.02c.08-.59,.24-1.09,.48-1.48,.24-.39,.57-.63,.98-.72Z"/><path class="c" d="M417.78,606.89c.54-.12,.89,.15,1.04,.83,.16,.67-.04,1.06-.57,1.19-.27,.06-.5,.02-.68-.12-.19-.14-.32-.37-.39-.69-.16-.68,.04-1.08,.6-1.21Zm1.51,3.38l2.2,9.41-1.42,.33-2.2-9.41,1.42-.33Z"/><path class="c" d="M424.23,608.86c.88-.23,1.58-.11,2.1,.36,.52,.47,.91,1.21,1.17,2.24l1.63,6.31-1.08,.28-.54-1.24h-.04c-.24,1.11-.82,1.78-1.77,2.03-.49,.13-.92,.1-1.29-.08-.38-.18-.69-.46-.94-.85-.25-.39-.45-.83-.57-1.31-.24-.93-.16-1.72,.24-2.37,.4-.65,1.09-1.12,2.07-1.43l1.05-.33-.16-.61c-.19-.72-.42-1.22-.71-1.51-.29-.29-.65-.37-1.09-.26-.51,.13-1.05,.47-1.61,1.03l-.73-.95c.61-.64,1.37-1.08,2.26-1.31Zm2.31,4.63l-.82,.27c-1.24,.39-1.7,1.2-1.38,2.42,.15,.58,.36,.98,.62,1.2,.27,.22,.58,.28,.94,.18,.49-.13,.81-.46,.97-1.01,.16-.55,.13-1.25-.09-2.12l-.24-.94Z"/><path class="c" d="M433.08,616.66l-1.4,.4-3.71-13.17,1.4-.4,3.71,13.17Z"/><path class="c" d="M441.2,607.08l3.13-1.02,1.96,6.02c-.9,.74-1.9,1.28-3,1.64-1,.33-1.92,.32-2.74-.03-.82-.35-1.54-.94-2.16-1.8-.62-.85-1.12-1.88-1.51-3.08-.4-1.22-.58-2.35-.55-3.4,.03-1.04,.3-1.95,.81-2.71,.51-.76,1.28-1.31,2.32-1.65,1.02-.33,2.03-.37,3.05-.12l-.12,1.38c-.91-.23-1.73-.23-2.48,.01-1.03,.33-1.67,1.01-1.93,2.04-.26,1.02-.12,2.35,.41,3.98,.31,.95,.69,1.76,1.13,2.44,.44,.68,.96,1.17,1.54,1.47,.58,.3,1.22,.33,1.92,.1,.64-.21,1.17-.47,1.59-.8l-1.23-3.78-1.73,.56-.42-1.28Z"/><path class="c" d="M452.92,605.01c.34,.94,.53,1.8,.57,2.59,.04,.79-.09,1.47-.4,2.03-.31,.56-.82,.97-1.52,1.23-.67,.24-1.3,.25-1.89,.02-.59-.23-1.13-.66-1.62-1.28-.48-.62-.9-1.41-1.24-2.35-.55-1.5-.72-2.75-.53-3.75,.2-1,.82-1.69,1.87-2.07,.96-.35,1.85-.23,2.68,.37,.83,.6,1.52,1.67,2.08,3.21Zm-4.7,1.72c.42,1.16,.88,1.99,1.36,2.48,.48,.5,1.01,.64,1.58,.43,1.1-.4,1.23-1.78,.37-4.12-.85-2.33-1.83-3.3-2.93-2.89-.59,.21-.9,.66-.95,1.34-.04,.68,.14,1.6,.57,2.76Z"/><path class="c" d="M457.78,608.3l-5.83-8.08,1.39-.55,3.33,4.86c.21,.3,.42,.62,.62,.93,.2,.32,.4,.65,.59,1l.07-.03c-.05-.2-.11-.46-.17-.78-.06-.32-.13-.68-.2-1.08l-.96-6.21,1.39-.55,1.28,9.89-1.51,.6Z"/><path class="c" d="M461.7,596.06c.61-.26,1.18-.3,1.73-.13,.55,.18,1.05,.52,1.5,1.02,.45,.5,.84,1.13,1.16,1.87l.4,.93-4.22,1.81c.95,2.12,2.07,2.91,3.35,2.36,.32-.14,.62-.32,.89-.55,.27-.23,.53-.53,.76-.89l.51,1.19c-.46,.64-1.06,1.12-1.83,1.45s-1.46,.39-2.08,.19c-.63-.2-1.2-.6-1.7-1.2-.51-.6-.94-1.33-1.31-2.19-.65-1.51-.91-2.76-.77-3.76,.14-1,.67-1.7,1.61-2.1Zm.47,1.09c-.45,.2-.71,.57-.77,1.12s.08,1.29,.43,2.23l2.94-1.27c-.21-.49-.45-.91-.73-1.28-.27-.36-.57-.62-.89-.78-.32-.16-.65-.16-.98-.02Z"/><path class="c" d="M469.21,592.66c.26-.12,.53-.2,.8-.23l.44,1.46c-.22,0-.46,.07-.71,.19-.32,.15-.53,.41-.65,.78-.12,.37-.14,.81-.06,1.33,.08,.51,.25,1.05,.51,1.62l2.11,4.58-1.32,.61-4.05-8.78,1.03-.47,.87,1.42,.08-.04c-.05-.6,0-1.11,.15-1.55,.15-.43,.42-.74,.8-.91Z"/><path class="c" d="M474.45,590.12c1.41-.7,2.6-.06,3.57,1.91l2.9,5.87-1.31,.65-2.78-5.61c-.34-.68-.67-1.15-1.02-1.41-.34-.26-.71-.29-1.09-.1-.56,.28-.84,.73-.84,1.35s.27,1.49,.82,2.6l2.23,4.5-1.31,.65-4.29-8.66,1.05-.52,.73,1.11,.08-.04c-.03-.52,.07-.98,.29-1.38,.22-.4,.54-.7,.95-.9Z"/><path class="c" d="M485.47,584.32c1.33-.72,2.53-.1,3.6,1.87l3.1,5.69-1.28,.7-2.97-5.45c-.4-.74-.78-1.22-1.13-1.43-.35-.22-.71-.23-1.07-.03-.5,.28-.73,.71-.68,1.3s.33,1.36,.83,2.28l2.55,4.68-1.26,.69-3-5.5c-.4-.73-.77-1.19-1.11-1.4-.35-.21-.7-.21-1.06-.02-.38,.21-.6,.49-.66,.86-.06,.37,0,.8,.18,1.31,.18,.5,.43,1.06,.76,1.66l2.42,4.44-1.28,.7-4.63-8.49,1.03-.56,.77,1.08,.08-.04c-.14-1.06,.23-1.83,1.1-2.3,.48-.26,.94-.34,1.36-.24,.43,.1,.79,.32,1.1,.66l.09-.05c-.05-.57,0-1.05,.18-1.43,.17-.38,.49-.7,.96-.95Z"/><path class="c" d="M491.86,580.62c.57-.34,1.13-.46,1.7-.35,.56,.1,1.1,.38,1.62,.82s.98,1.01,1.39,1.7l.52,.87-3.94,2.35c1.22,1.98,2.43,2.61,3.63,1.9,.3-.18,.57-.4,.81-.66,.24-.26,.46-.59,.64-.98l.66,1.11c-.37,.7-.91,1.25-1.62,1.68-.71,.42-1.39,.58-2.04,.46-.65-.12-1.26-.44-1.84-.96-.58-.53-1.11-1.19-1.59-2-.84-1.41-1.26-2.62-1.26-3.63s.45-1.78,1.32-2.3Zm.61,1.02c-.42,.25-.63,.65-.62,1.21,0,.55,.25,1.27,.72,2.15l2.75-1.64c-.27-.45-.57-.84-.89-1.17s-.65-.54-.99-.66c-.34-.11-.66-.08-.97,.11Z"/><path class="c" d="M499,576.18c1.33-.85,2.58-.34,3.76,1.5l3.53,5.52-1.23,.79-3.38-5.28c-.41-.64-.79-1.06-1.16-1.28-.37-.22-.74-.21-1.1,.02-.53,.33-.75,.81-.69,1.43,.07,.62,.43,1.45,1.1,2.49l2.71,4.23-1.23,.79-5.21-8.14,.99-.63,.84,1.02,.08-.05c-.09-.51-.04-.98,.14-1.4s.46-.75,.84-1Z"/><path class="c" d="M509.87,579.45c.12-.08,.23-.18,.33-.29,.1-.11,.19-.23,.29-.35l.67,.98c-.11,.19-.24,.36-.39,.53-.16,.16-.35,.32-.56,.47-.53,.36-1.03,.44-1.52,.26-.49-.19-.97-.64-1.46-1.35l-3.39-5.01-.75,.5-.44-.66,.58-.87-.91-2.06,.82-.55,1.22,1.8,1.34-.91,.69,1.01-1.34,.91,3.29,4.86c.27,.41,.53,.68,.76,.81,.23,.13,.49,.1,.78-.09Z"/></g><g><path class="c" d="M581.08,511.04l-.86,1.25-10.6-7.27,2.89-4.22,1.11,.76-2.04,2.97,3.83,2.63,1.92-2.79,1.13,.77-1.91,2.79,4.53,3.11Z"/><path class="c" d="M577.41,498.83c.36-.55,.81-.91,1.37-1.07,.55-.16,1.16-.15,1.81,.01s1.32,.47,2,.9l.85,.55-2.49,3.86c1.98,1.23,3.34,1.26,4.1,.09,.19-.29,.33-.61,.43-.95,.1-.34,.15-.73,.14-1.16l1.09,.7c-.02,.79-.26,1.53-.71,2.22-.45,.69-.99,1.13-1.62,1.32-.63,.18-1.33,.17-2.08-.05-.75-.22-1.52-.58-2.31-1.08-1.38-.89-2.29-1.79-2.74-2.7-.44-.91-.39-1.79,.17-2.65Zm1,.64c-.27,.41-.27,.87-.02,1.36,.25,.49,.79,1.03,1.6,1.61l1.74-2.69c-.44-.29-.88-.5-1.31-.66-.43-.15-.82-.2-1.18-.15-.35,.05-.63,.23-.82,.53Z"/><path class="c" d="M589.89,497.75c-.48,.79-1.2,1.17-2.18,1.14-.98-.03-2.17-.46-3.56-1.31-1.38-.83-2.32-1.68-2.81-2.54-.5-.86-.52-1.67-.06-2.43,.23-.38,.55-.67,.95-.87,.41-.2,.87-.28,1.38-.25l.04-.06c-.48-.25-.87-.46-1.17-.64l-3.36-2.02,.75-1.25,11.72,7.06-.6,1-1.15-.46-.05,.08c.25,.46,.4,.9,.42,1.32,.03,.42-.08,.83-.32,1.23Zm-.89-.93c.61-1.02-.03-2.1-1.93-3.25l-.46-.28c-1.07-.64-1.93-.99-2.58-1.04-.65-.05-1.14,.2-1.46,.73-.29,.48-.23,1,.18,1.56,.41,.56,1.13,1.15,2.16,1.77,2.15,1.29,3.51,1.46,4.09,.51Z"/><path class="c" d="M585.7,485.07c.32-.57,.75-.96,1.3-1.15,.54-.19,1.14-.23,1.81-.1,.67,.12,1.35,.38,2.05,.78l.88,.49-2.25,4c2.05,1.11,3.41,1.06,4.09-.16,.17-.3,.29-.63,.37-.98,.08-.35,.1-.74,.07-1.17l1.13,.63c.03,.79-.16,1.54-.57,2.26-.41,.72-.92,1.19-1.54,1.42-.62,.22-1.31,.25-2.08,.08s-1.56-.48-2.37-.94c-1.43-.8-2.4-1.65-2.9-2.52s-.5-1.76,0-2.65Zm1.04,.58c-.24,.43-.22,.88,.06,1.36,.28,.48,.85,.98,1.69,1.51l1.57-2.79c-.46-.26-.91-.45-1.35-.57-.44-.12-.83-.15-1.18-.08-.35,.07-.61,.26-.79,.58Z"/><path class="c" d="M589.59,477.83c.13-.25,.3-.48,.5-.67l1.24,.9c-.17,.14-.32,.33-.45,.58-.16,.31-.18,.64-.05,1.01,.13,.37,.38,.73,.76,1.09,.37,.36,.84,.68,1.39,.98l4.46,2.35-.68,1.29-8.55-4.52,.53-1,1.56,.6,.04-.08c-.4-.44-.68-.88-.82-1.32-.14-.43-.12-.84,.08-1.21Z"/><path class="c" d="M591.74,473.6c.41-.82,.96-1.27,1.65-1.35,.69-.08,1.51,.11,2.46,.58l5.83,2.9-.5,1-1.29-.4-.02,.03c.68,.9,.8,1.79,.37,2.66-.22,.45-.53,.76-.91,.92-.38,.17-.8,.22-1.26,.16-.46-.06-.92-.2-1.37-.43-.86-.43-1.4-1-1.63-1.73-.23-.73-.14-1.56,.28-2.5l.44-1.01-.56-.28c-.67-.33-1.2-.48-1.6-.46-.4,.03-.71,.25-.91,.66-.24,.47-.33,1.1-.28,1.89l-1.19-.07c-.08-.89,.08-1.74,.49-2.57Zm5.01,1.29l-.34,.8c-.51,1.19-.21,2.07,.92,2.63,.54,.27,.98,.37,1.31,.31s.59-.26,.75-.59c.22-.45,.18-.92-.13-1.4-.31-.48-.86-.92-1.66-1.32l-.87-.43Z"/><path class="c" d="M603.42,472.03l-.62,1.32-12.38-5.82,.62-1.32,12.38,5.82Z"/><path class="c" d="M601.5,459.6l1.28-3.04,5.84,2.46c-.03,1.16-.27,2.27-.73,3.35-.41,.97-1.01,1.66-1.81,2.05-.8,.39-1.72,.54-2.77,.46-1.05-.09-2.15-.38-3.32-.87-1.18-.5-2.16-1.1-2.93-1.81-.77-.71-1.27-1.5-1.51-2.39-.24-.88-.15-1.83,.28-2.83,.42-.98,1.05-1.78,1.9-2.38l.97,.99c-.77,.53-1.31,1.16-1.61,1.88-.42,1-.33,1.93,.28,2.79,.61,.87,1.7,1.63,3.28,2.3,.92,.39,1.78,.64,2.59,.75,.81,.11,1.51,.04,2.12-.2,.61-.25,1.05-.71,1.33-1.38,.26-.62,.41-1.2,.44-1.73l-3.67-1.54-.71,1.68-1.25-.52Z"/><path class="c" d="M607.62,449.38c.93,.35,1.71,.77,2.33,1.26,.62,.49,1.05,1.03,1.27,1.63,.22,.6,.2,1.25-.07,1.96-.25,.66-.66,1.14-1.22,1.44-.56,.3-1.24,.43-2.02,.39-.79-.04-1.65-.24-2.59-.6-1.49-.57-2.55-1.25-3.17-2.06-.62-.8-.74-1.73-.34-2.77,.36-.95,1.04-1.55,2.03-1.78,.99-.23,2.26-.06,3.8,.53Zm-1.78,4.68c1.16,.44,2.08,.64,2.77,.6,.69-.04,1.14-.34,1.36-.92,.42-1.1-.54-2.09-2.87-2.98-2.32-.88-3.69-.78-4.11,.32-.22,.58-.09,1.11,.39,1.59,.49,.48,1.3,.94,2.46,1.38Z"/><path class="c" d="M613.28,447.88l-9.93-.89,.49-1.41,5.85,.67c.37,.04,.74,.09,1.11,.14,.38,.05,.76,.12,1.15,.21l.02-.07c-.18-.09-.42-.22-.71-.38-.29-.16-.6-.35-.95-.56l-5.32-3.34,.49-1.41,8.31,5.51-.53,1.53Z"/><path class="c" d="M606.59,436.91c.2-.63,.55-1.09,1.04-1.39,.49-.3,1.08-.45,1.75-.46,.68-.01,1.4,.1,2.17,.35l.96,.3-1.39,4.37c2.23,.67,3.55,.34,3.98-.98,.11-.33,.16-.68,.17-1.03,0-.36-.05-.74-.17-1.16l1.23,.39c.19,.76,.15,1.54-.1,2.33-.25,.79-.66,1.36-1.22,1.7-.56,.34-1.24,.51-2.02,.5-.78,0-1.62-.16-2.51-.44-1.57-.5-2.68-1.13-3.35-1.89-.67-.76-.84-1.63-.54-2.6Zm1.13,.36c-.15,.47-.04,.91,.34,1.31,.37,.41,1.03,.79,1.96,1.14l.97-3.05c-.5-.16-.98-.25-1.44-.29-.46-.03-.85,.02-1.18,.17-.33,.14-.55,.38-.66,.73Z"/><path class="c" d="M608.95,428.99c.08-.28,.2-.53,.35-.76l1.39,.63c-.14,.17-.24,.39-.32,.66-.1,.33-.04,.67,.16,1,.2,.33,.52,.64,.96,.92,.44,.28,.96,.5,1.56,.68l4.84,1.4-.41,1.4-9.28-2.69,.32-1.09,1.65,.27,.03-.09c-.48-.35-.84-.73-1.07-1.12-.23-.4-.28-.8-.17-1.2Z"/><path class="c" d="M610.46,423.38c.4-1.52,1.66-2,3.78-1.45l6.34,1.65-.37,1.41-6.06-1.58c-.73-.19-1.31-.24-1.73-.15-.42,.09-.68,.34-.79,.76-.16,.6,0,1.11,.47,1.52s1.3,.77,2.5,1.08l4.86,1.27-.37,1.41-9.35-2.44,.29-1.13,1.31,.17,.02-.09c-.41-.32-.7-.69-.85-1.12-.15-.43-.17-.87-.06-1.31Z"/><path class="c" d="M613.29,411.29c.32-1.48,1.58-1.98,3.77-1.5l6.33,1.38-.31,1.43-6.07-1.33c-.82-.18-1.43-.21-1.82-.09-.4,.12-.64,.38-.72,.78-.12,.56,.06,1.02,.54,1.37,.48,.35,1.24,.64,2.27,.87l5.21,1.14-.31,1.41-6.12-1.34c-.81-.18-1.41-.2-1.79-.08-.38,.13-.62,.39-.71,.79-.09,.42-.02,.78,.22,1.06,.24,.29,.61,.53,1.11,.72,.5,.19,1.08,.36,1.75,.51l4.94,1.08-.31,1.42-9.44-2.06,.25-1.14,1.32,.12,.02-.09c-.89-.59-1.23-1.37-1.02-2.34,.12-.54,.35-.93,.71-1.19,.36-.25,.76-.39,1.22-.4l.02-.11c-.47-.33-.79-.69-.96-1.08-.17-.38-.21-.83-.09-1.35Z"/><path class="c" d="M614.68,404.07c.12-.65,.4-1.15,.85-1.51,.45-.36,1.01-.59,1.68-.69,.67-.1,1.4-.08,2.19,.06l.99,.18-.8,4.52c2.3,.37,3.57-.13,3.81-1.5,.06-.34,.07-.69,.03-1.05-.04-.36-.15-.73-.32-1.13l1.28,.23c.28,.73,.35,1.51,.21,2.32-.14,.82-.47,1.43-.99,1.84s-1.16,.67-1.94,.76c-.78,.09-1.63,.06-2.55-.11-1.62-.29-2.81-.76-3.57-1.43-.76-.67-1.05-1.5-.87-2.5Zm1.17,.21c-.09,.49,.08,.91,.51,1.26,.42,.36,1.12,.65,2.09,.87l.56-3.15c-.52-.09-1.01-.12-1.46-.1-.46,.03-.84,.13-1.14,.32-.31,.18-.49,.45-.56,.81Z"/><path class="c" d="M616.01,395.69c.23-1.56,1.43-2.17,3.6-1.86l6.48,.95-.21,1.44-6.2-.91c-.75-.11-1.33-.1-1.73,.04-.41,.13-.64,.42-.71,.84-.09,.62,.12,1.1,.63,1.46,.51,.35,1.38,.62,2.6,.8l4.97,.73-.21,1.44-9.57-1.4,.17-1.16,1.32,.03v-.09c-.43-.27-.75-.61-.96-1.02-.2-.41-.27-.84-.2-1.29Z"/><path class="c" d="M625.6,389.63c.02-.14,.02-.29,0-.44-.02-.15-.04-.29-.07-.45l1.18,.14c.07,.2,.12,.42,.14,.64,.02,.23,.02,.47-.01,.73-.08,.63-.34,1.07-.8,1.32-.46,.25-1.12,.32-1.97,.21l-6-.72-.11,.89-.79-.09-.28-1.01-2.15-.66,.12-.98,2.16,.26,.19-1.61,1.21,.15-.19,1.61,5.83,.7c.49,.06,.86,.04,1.11-.05,.25-.09,.4-.31,.44-.65Z"/></g></g></svg>