<?xml version="1.0" encoding="UTF-8"?><svg id="a" xmlns="http://www.w3.org/2000/svg" viewBox="0 0 720 720"><defs><style>.b{fill:#98c4cf;}.c{fill:#231f20;}</style></defs><g><path class="b" d="M350.87,598.76c-55.35-2.12-108.56-23.55-149.82-60.36-4.56-4.07-4.96-11.07-.89-15.63,4.07-4.56,11.07-4.96,15.63-.89,37.44,33.39,85.71,52.84,135.93,54.76,55.15,2.11,108.49-16.62,150.19-52.73,4.62-4,11.61-3.5,15.62,1.12,4,4.62,3.5,11.61-1.12,15.62-45.96,39.81-104.74,60.45-165.53,58.12Z"/><path class="b" d="M530.81,521.41c-2.45-.09-4.89-1-6.88-2.75-4.59-4.04-5.04-11.03-1-15.62,32.74-37.24,51.81-85.1,53.71-134.75,.47-12.19-.09-24.46-1.64-36.45-.79-6.06,3.49-11.62,9.55-12.4,6.07-.78,11.62,3.49,12.4,9.55,1.71,13.22,2.32,26.72,1.81,40.15-2.09,54.72-23.12,107.47-59.21,148.52-2.29,2.6-5.53,3.88-8.74,3.75Z"/><path class="b" d="M579.15,309.93c-4.68-.18-8.92-3.34-10.24-8.1-8.21-29.5-22.33-56.47-41.98-80.16-3.9-4.71-3.25-11.68,1.45-15.59,4.71-3.9,11.68-3.25,15.59,1.45,21.66,26.11,37.22,55.84,46.27,88.36,1.64,5.89-1.81,11.99-7.7,13.63-1.13,.32-2.28,.44-3.39,.4Z"/><path class="b" d="M186.45,519.22c-2.98-.11-5.9-1.42-7.99-3.86-39.21-45.79-59.53-104.21-57.23-164.49,.16-4.28,.44-8.61,.83-12.86,.56-6.09,5.95-10.57,12.03-10.02,6.09,.56,10.57,5.94,10.02,12.03-.35,3.87-.61,7.8-.76,11.69-2.09,54.69,16.35,107.7,51.92,149.24,3.98,4.64,3.43,11.63-1.21,15.61-2.2,1.89-4.93,2.76-7.62,2.65Z"/><path class="b" d="M137.62,319.38c-.69-.03-1.39-.12-2.09-.28-5.96-1.38-9.67-7.33-8.29-13.28,17.8-76.85,72.43-139.86,146.14-168.56,5.7-2.22,12.11,.6,14.33,6.3,2.22,5.7-.6,12.11-6.3,14.33-66.88,26.04-116.45,83.21-132.6,152.93-1.22,5.26-6,8.76-11.2,8.57Z"/><path class="b" d="M307.1,149.26c-4.85-.19-9.18-3.57-10.34-8.52-1.4-5.95,2.28-11.91,8.23-13.32,20.9-4.93,42.49-7.01,64.14-6.19,16.21,.62,32.36,2.88,47.99,6.71,5.94,1.46,9.57,7.45,8.12,13.39-1.45,5.94-7.46,9.57-13.39,8.12-14.18-3.48-28.84-5.52-43.57-6.09-19.67-.75-39.25,1.13-58.21,5.61-1,.23-1.99,.33-2.97,.29Z"/><path class="b" d="M513.82,203.34c-2.54-.1-5.06-1.06-7.07-2.92-19.91-18.32-42.71-32.59-67.78-42.39-5.69-2.23-8.51-8.65-6.28-14.34,2.22-5.69,8.65-8.51,14.34-6.28,27.64,10.81,52.78,26.52,74.71,46.72,4.5,4.14,4.79,11.14,.65,15.64-2.29,2.48-5.45,3.68-8.57,3.56Z"/></g><g><g><path class="c" d="M140.55,277.67c.45-1.19,1.07-1.96,1.86-2.31,.8-.35,1.8-.3,3,.15,1.22,.46,2.05,1.1,2.49,1.93,.43,.83,.43,1.83-.01,3.01l-.29,.78,4.69,1.75-.53,1.42-12.04-4.5,.83-2.23Zm1.23,.52l-.28,.76,4.85,1.82,.24-.64c.29-.79,.31-1.42,.04-1.92-.27-.49-.85-.9-1.75-1.24-.83-.31-1.49-.36-1.98-.16-.49,.2-.86,.66-1.13,1.38Z"/><path class="c" d="M146.52,270.76c.25-.61,.64-1.04,1.15-1.29,.52-.25,1.11-.36,1.79-.31,.68,.05,1.38,.22,2.13,.53l.93,.39-1.76,4.24c2.16,.86,3.51,.65,4.05-.64,.13-.32,.22-.66,.26-1.01,.04-.36,.01-.75-.07-1.17l1.2,.5c.12,.78,.02,1.55-.3,2.31-.32,.77-.77,1.3-1.36,1.59-.59,.29-1.28,.4-2.06,.33-.78-.08-1.6-.3-2.47-.65-1.52-.63-2.58-1.35-3.17-2.17-.6-.81-.7-1.69-.31-2.63Zm1.1,.46c-.19,.45-.11,.9,.22,1.34,.34,.44,.96,.87,1.86,1.3l1.23-2.96c-.49-.2-.96-.34-1.41-.41s-.85-.05-1.19,.06c-.34,.11-.58,.34-.72,.67Z"/><path class="c" d="M149.92,262.94c.12-.26,.27-.5,.45-.7l1.29,.82c-.16,.15-.3,.35-.41,.6-.14,.32-.14,.66,.02,1.01,.15,.36,.43,.71,.82,1.04,.4,.34,.88,.63,1.45,.89l4.59,2.07-.6,1.33-8.81-3.97,.47-1.03,1.59,.5,.04-.08c-.43-.42-.73-.84-.9-1.27-.17-.42-.17-.83,0-1.21Z"/><path class="c" d="M153.61,258.44l-.66,1.38,7.61,3.65-.63,1.31-7.61-3.65-.51,1.05-.7-.33,.05-1.27-.5-.24c-1.01-.48-1.72-.99-2.13-1.53-.41-.54-.44-1.19-.07-1.96,.11-.24,.24-.45,.38-.63,.14-.18,.31-.36,.5-.55l.89,.85c-.11,.12-.21,.24-.31,.36-.1,.12-.17,.24-.23,.36-.15,.31-.11,.59,.12,.84,.23,.25,.71,.55,1.44,.92l.6,.29,.66-1.38,1.1,.53Z"/><path class="c" d="M160.35,253.13c.89,.46,1.61,.96,2.18,1.52,.56,.55,.92,1.14,1.08,1.76,.15,.62,.06,1.26-.29,1.94-.32,.63-.78,1.06-1.38,1.29-.59,.23-1.28,.29-2.05,.16-.78-.13-1.61-.43-2.51-.89-1.42-.73-2.39-1.53-2.93-2.4-.53-.87-.54-1.8-.03-2.79,.47-.91,1.21-1.42,2.22-1.54,1.01-.12,2.25,.2,3.71,.95Zm-2.29,4.45c1.1,.57,1.99,.87,2.68,.91,.69,.04,1.17-.22,1.45-.76,.54-1.05-.3-2.14-2.52-3.28-2.21-1.14-3.58-1.18-4.12-.14-.29,.55-.21,1.1,.21,1.63,.43,.53,1.19,1.08,2.29,1.64Z"/><path class="c" d="M158.62,245.92c.14-.25,.31-.47,.51-.66l1.22,.92c-.17,.14-.33,.33-.46,.57-.17,.3-.19,.64-.07,1.01,.12,.37,.37,.74,.73,1.11,.37,.37,.82,.7,1.37,1l4.41,2.44-.71,1.28-8.45-4.69,.55-.99,1.54,.63,.04-.08c-.39-.45-.66-.9-.79-1.33-.13-.44-.1-.84,.1-1.21Z"/><path class="c" d="M163.9,237.02c.79-1.29,2.14-1.36,4.05-.19l5.53,3.37-.76,1.24-5.3-3.23c-.72-.44-1.28-.66-1.7-.67-.41-.01-.73,.15-.94,.5-.3,.49-.28,.98,.06,1.47,.34,.49,.96,1.01,1.87,1.56l4.55,2.77-.75,1.23-5.35-3.26c-.71-.43-1.26-.65-1.67-.66-.4,0-.71,.16-.92,.51-.23,.37-.27,.73-.14,1.08,.13,.35,.4,.69,.81,1.04,.41,.35,.9,.7,1.49,1.05l4.32,2.63-.76,1.24-8.26-5.03,.61-1,1.21,.54,.05-.08c-.65-.85-.72-1.69-.2-2.54,.29-.47,.64-.77,1.06-.89s.85-.12,1.28,.02l.06-.09c-.33-.47-.52-.91-.56-1.33-.04-.42,.08-.85,.35-1.3Z"/><path class="c" d="M168.1,230.57c.51-.76,1.11-1.13,1.81-1.13,.7,0,1.48,.3,2.36,.89l5.41,3.63-.62,.93-1.23-.56-.02,.03c.56,.98,.56,1.88,.02,2.68-.28,.42-.62,.68-1.02,.8-.4,.11-.83,.11-1.27,0s-.88-.32-1.3-.6c-.8-.54-1.26-1.18-1.39-1.93-.13-.75,.07-1.57,.6-2.44l.57-.94-.52-.35c-.62-.42-1.13-.63-1.53-.66-.4-.02-.73,.15-.98,.53-.29,.44-.47,1.05-.52,1.84l-1.17-.22c.03-.89,.31-1.72,.82-2.48Zm4.8,1.92l-.44,.75c-.66,1.12-.47,2.03,.58,2.73,.5,.33,.92,.49,1.26,.48,.34-.02,.62-.18,.83-.49,.28-.42,.3-.89,.05-1.41-.24-.52-.74-1.02-1.47-1.52l-.81-.54Z"/><path class="c" d="M173.14,223.36c.92-1.27,2.27-1.27,4.05,.02l5.31,3.84-.86,1.18-5.07-3.68c-.61-.44-1.13-.7-1.55-.77s-.76,.07-1.02,.42c-.37,.5-.4,1.03-.11,1.58s.94,1.19,1.94,1.91l4.07,2.95-.86,1.18-7.83-5.67,.69-.95,1.16,.64,.05-.07c-.27-.45-.4-.9-.38-1.36,.01-.46,.15-.87,.42-1.24Z"/><path class="c" d="M185.82,223.21c-1.31,1.69-3.27,1.52-5.88-.5-1.25-.97-2.07-1.94-2.45-2.92s-.24-1.89,.43-2.75c.23-.29,.47-.54,.72-.73,.25-.19,.51-.35,.78-.46l.68,1.09c-.47,.21-.83,.48-1.08,.8-.76,.98-.15,2.23,1.84,3.77,1.94,1.51,3.3,1.77,4.06,.78,.16-.21,.3-.44,.4-.71,.1-.26,.18-.54,.24-.85l.97,.75c-.02,.3-.1,.61-.24,.92-.14,.31-.29,.58-.46,.79Z"/><path class="c" d="M182.01,211.99c.42-.51,.91-.81,1.48-.9,.57-.09,1.17-.02,1.8,.23,.63,.24,1.26,.62,1.88,1.13l.78,.64-2.93,3.54c1.82,1.46,3.17,1.65,4.06,.58,.22-.27,.4-.57,.54-.89,.14-.33,.23-.71,.28-1.14l1,.83c-.11,.78-.43,1.49-.96,2.12-.53,.64-1.12,1.01-1.77,1.12s-1.34,.01-2.06-.29-1.44-.75-2.17-1.35c-1.27-1.05-2.07-2.05-2.4-3-.33-.95-.17-1.82,.48-2.61Zm.92,.76c-.31,.38-.37,.83-.18,1.35,.19,.52,.66,1.11,1.4,1.79l2.04-2.47c-.41-.34-.81-.61-1.23-.8-.41-.2-.8-.3-1.15-.29-.36,0-.65,.15-.88,.43Z"/><path class="c" d="M198.12,208.53l-9.96-5.14-.05,.05c.93,.78,1.58,1.33,1.93,1.66l6.02,5.64-.98,1.05-9.38-8.79,1.46-1.56,9.7,5,.04-.04-5.61-9.36,1.48-1.58,9.38,8.79-1.01,1.08-5.99-5.61c-.19-.18-.44-.42-.74-.73-.3-.31-.66-.67-1.07-1.09l-.05,.05,5.77,9.61-.92,.99Z"/><path class="c" d="M198.99,193.6c.47-.46,1-.71,1.57-.74s1.16,.11,1.76,.42c.6,.31,1.18,.75,1.74,1.33l.7,.72-3.29,3.2c1.65,1.64,2.97,1.98,3.97,1.01,.25-.24,.46-.52,.64-.83,.17-.31,.31-.68,.4-1.1l.9,.93c-.2,.76-.59,1.43-1.19,2.01-.59,.58-1.22,.89-1.88,.92-.66,.04-1.33-.13-2.02-.51-.69-.38-1.36-.9-2.01-1.57-1.15-1.18-1.83-2.26-2.06-3.24-.23-.98,.02-1.83,.75-2.54Zm.83,.85c-.35,.34-.46,.78-.32,1.32s.54,1.18,1.2,1.93l2.3-2.24c-.37-.38-.75-.69-1.13-.93-.39-.24-.76-.38-1.11-.41-.36-.03-.66,.08-.92,.33Z"/><path class="c" d="M204.73,188.18c.67-.61,1.35-.83,2.03-.66,.68,.17,1.37,.65,2.08,1.43l4.38,4.82-.83,.75-1.06-.84-.03,.02c.31,1.08,.1,1.96-.62,2.61-.37,.34-.77,.52-1.18,.53-.42,.01-.83-.09-1.23-.31-.41-.22-.78-.52-1.12-.89-.65-.71-.94-1.45-.89-2.21,.05-.76,.44-1.5,1.16-2.23l.78-.78-.42-.47c-.5-.55-.94-.88-1.33-1.01-.38-.12-.75-.03-1.08,.28-.39,.36-.71,.91-.95,1.66l-1.08-.5c.25-.85,.71-1.59,1.39-2.21Zm4.2,3.01l-.6,.62c-.91,.93-.94,1.85-.09,2.79,.4,.44,.77,.7,1.11,.77,.34,.07,.64-.02,.92-.28,.37-.34,.5-.79,.39-1.35-.11-.56-.47-1.17-1.07-1.83l-.65-.72Z"/><path class="c" d="M216.66,187.39c.58,.67,.84,1.35,.79,2.03s-.41,1.3-1.07,1.86c-.34,.29-.68,.52-1.03,.68-.35,.16-.68,.28-.99,.34l-.98-1.15c.34,0,.7-.08,1.08-.23,.38-.14,.72-.34,1.02-.6,.32-.27,.49-.58,.51-.92s-.11-.68-.4-1.02c-.24-.28-.53-.45-.87-.51-.34-.06-.82-.03-1.43,.09-.7,.11-1.33,.12-1.89,.04-.56-.08-1.08-.41-1.56-.97-.5-.58-.71-1.21-.63-1.89,.08-.67,.42-1.27,1.03-1.8,.61-.52,1.31-.84,2.09-.96l.35,1.24c-.3,.04-.59,.11-.87,.21-.28,.1-.53,.25-.76,.44-.31,.27-.48,.56-.51,.88-.03,.33,.08,.63,.33,.93,.25,.29,.54,.46,.87,.49,.33,.04,.82,0,1.48-.1,.7-.11,1.32-.12,1.87-.04,.55,.08,1.07,.41,1.55,.97Z"/><path class="c" d="M218.28,176.98l6.04,7.55-.91,.73-.94-.91-.08,.07c.14,.5,.15,.97,.02,1.39-.13,.42-.37,.78-.73,1.07-.68,.55-1.37,.68-2.04,.4-.68-.28-1.35-.84-2.03-1.69l-3.93-4.92,1.14-.91,3.77,4.71c.53,.67,1,1.1,1.41,1.3,.4,.2,.77,.17,1.08-.08,.52-.42,.72-.93,.58-1.52-.14-.59-.57-1.34-1.29-2.24l-3.21-4.02,1.14-.91Z"/><path class="c" d="M223,173.19c.23-.17,.48-.31,.74-.4l.73,1.34c-.21,.05-.43,.17-.65,.33-.28,.21-.44,.51-.48,.9-.04,.39,.03,.83,.22,1.31s.46,.98,.84,1.48l3.02,4.03-1.17,.87-5.8-7.74,.91-.68,1.15,1.21,.07-.05c-.17-.57-.23-1.09-.18-1.54,.06-.46,.25-.81,.59-1.06Z"/><path class="c" d="M227.1,170.27c.54-.38,1.09-.54,1.67-.48,.57,.06,1.13,.29,1.68,.69,.55,.4,1.05,.93,1.52,1.59l.58,.82-3.75,2.64c1.37,1.88,2.63,2.42,3.76,1.62,.28-.2,.54-.44,.76-.72,.22-.28,.41-.62,.56-1.03l.75,1.06c-.31,.72-.81,1.32-1.49,1.8-.68,.48-1.34,.68-2,.62-.66-.07-1.29-.34-1.91-.82-.62-.48-1.2-1.11-1.74-1.87-.95-1.34-1.46-2.52-1.53-3.52-.07-1.01,.31-1.8,1.14-2.39Zm.68,.97c-.4,.28-.58,.7-.53,1.25,.05,.55,.34,1.25,.88,2.09l2.62-1.85c-.31-.43-.63-.8-.97-1.1-.34-.3-.69-.49-1.04-.58-.35-.09-.67-.03-.96,.18Z"/><path class="c" d="M237.9,163.06c1.27-.81,2.51-.28,3.72,1.61l3.49,5.46-1.23,.79-3.35-5.23c-.45-.71-.86-1.16-1.23-1.35-.37-.19-.72-.18-1.06,.04-.49,.31-.68,.76-.59,1.35,.09,.59,.42,1.33,.99,2.22l2.87,4.49-1.21,.78-3.38-5.27c-.45-.7-.85-1.14-1.21-1.32-.36-.18-.71-.17-1.05,.05-.36,.23-.56,.54-.6,.9-.03,.37,.06,.8,.27,1.29,.21,.49,.5,1.02,.87,1.6l2.73,4.26-1.23,.79-5.21-8.14,.98-.63,.84,1.02,.08-.05c-.21-1.05,.1-1.84,.94-2.38,.47-.3,.91-.41,1.35-.34,.43,.07,.81,.27,1.14,.58l.09-.06c-.09-.57-.07-1.05,.08-1.44,.15-.39,.44-.73,.89-1.02Z"/><path class="c" d="M244.59,159.09c.57-.33,1.14-.44,1.7-.33,.56,.11,1.1,.39,1.61,.84,.51,.45,.96,1.02,1.37,1.71l.5,.87-3.97,2.3c1.2,2,2.4,2.65,3.6,1.95,.3-.17,.57-.39,.82-.65,.25-.26,.46-.58,.65-.97l.65,1.12c-.38,.69-.92,1.24-1.64,1.66-.72,.42-1.4,.56-2.05,.44-.65-.12-1.26-.46-1.83-.99-.57-.54-1.09-1.21-1.56-2.02-.82-1.42-1.23-2.64-1.21-3.65,.02-1.01,.47-1.77,1.35-2.28Zm.59,1.03c-.43,.25-.64,.65-.64,1.2,0,.55,.23,1.27,.69,2.16l2.77-1.6c-.26-.46-.55-.85-.87-1.18-.32-.33-.64-.55-.98-.67-.34-.12-.66-.08-.97,.1Z"/><path class="c" d="M252.28,154.82c1.39-.74,2.6-.14,3.63,1.8l3.07,5.79-1.29,.68-2.94-5.53c-.35-.67-.71-1.13-1.06-1.38s-.72-.27-1.1-.07c-.55,.29-.82,.75-.8,1.37,.02,.62,.32,1.48,.9,2.57l2.36,4.43-1.29,.68-4.53-8.54,1.03-.55,.76,1.08,.08-.04c-.05-.52,.04-.98,.25-1.39,.21-.41,.52-.71,.92-.93Z"/><path class="c" d="M262.76,159.29c.13-.06,.25-.14,.36-.24,.11-.1,.22-.2,.33-.3l.53,1.06c-.13,.17-.28,.33-.46,.47-.18,.14-.39,.27-.62,.39-.57,.28-1.08,.3-1.54,.05-.46-.25-.88-.76-1.26-1.54l-2.68-5.42-.81,.4-.35-.71,.7-.79-.63-2.16,.89-.44,.96,1.95,1.45-.72,.54,1.1-1.45,.72,2.6,5.26c.22,.44,.43,.74,.65,.91,.21,.16,.48,.17,.79,.01Z"/></g><g><path class="c" d="M330.66,133.15l3.27-.43,.83,6.28c-1.02,.56-2.1,.91-3.26,1.06-1.05,.14-1.94-.04-2.68-.53-.74-.49-1.34-1.21-1.79-2.16-.45-.95-.76-2.05-.92-3.3-.17-1.27-.14-2.42,.08-3.44,.22-1.02,.65-1.86,1.29-2.51,.64-.65,1.5-1.05,2.58-1.19,1.06-.14,2.06,0,3.02,.44l-.37,1.34c-.85-.4-1.66-.54-2.44-.44-1.07,.14-1.83,.69-2.27,1.65-.44,.96-.55,2.29-.33,3.99,.13,.99,.35,1.86,.66,2.61s.73,1.33,1.24,1.72c.52,.4,1.14,.55,1.87,.45,.67-.09,1.24-.25,1.71-.5l-.52-3.94-1.8,.24-.18-1.34Z"/><path class="c" d="M342.62,133.86c.09,.99,.05,1.87-.11,2.65-.17,.77-.47,1.39-.91,1.85-.44,.46-1.04,.73-1.79,.79-.71,.06-1.32-.09-1.83-.47-.52-.38-.93-.92-1.23-1.65-.31-.73-.5-1.59-.6-2.59-.14-1.59,0-2.84,.46-3.75,.45-.91,1.23-1.42,2.34-1.52,1.02-.09,1.85,.26,2.49,1.05,.64,.79,1.04,2,1.19,3.64Zm-4.98,.45c.11,1.23,.34,2.15,.67,2.75,.34,.6,.81,.88,1.42,.82,1.17-.11,1.64-1.4,1.42-3.89-.22-2.47-.92-3.66-2.09-3.55-.62,.06-1.04,.41-1.26,1.05-.22,.65-.27,1.58-.16,2.82Z"/><path class="c" d="M346.17,138.49l-2.98-9.51,1.49-.09,1.63,5.66c.1,.35,.2,.71,.3,1.08,.09,.37,.18,.75,.25,1.14h.07c.01-.21,.04-.48,.08-.8s.09-.69,.15-1.09l1.05-6.19,1.49-.09-1.9,9.79-1.62,.09Z"/><path class="c" d="M354.01,128.31c.66-.02,1.21,.16,1.65,.52,.44,.37,.78,.87,1.01,1.5,.23,.64,.36,1.36,.38,2.16l.03,1.01-4.59,.12c.1,2.33,.84,3.47,2.23,3.43,.35,0,.69-.07,1.03-.18,.34-.11,.69-.29,1.04-.54l.03,1.29c-.66,.43-1.41,.65-2.23,.67s-1.5-.18-2.01-.6c-.51-.42-.89-1-1.13-1.74s-.38-1.58-.41-2.52c-.04-1.64,.19-2.9,.69-3.78,.5-.88,1.26-1.33,2.28-1.35Zm.03,1.19c-.49,.01-.87,.26-1.13,.75-.26,.49-.41,1.23-.43,2.23l3.2-.08c-.01-.53-.08-1.01-.2-1.45-.12-.44-.3-.79-.54-1.06-.24-.26-.54-.39-.9-.38Z"/><path class="c" d="M362.55,128.23c.29,0,.56,.04,.83,.13l-.22,1.51c-.2-.08-.44-.13-.72-.13-.35,0-.65,.14-.92,.43-.26,.29-.47,.68-.62,1.18-.15,.5-.22,1.06-.22,1.68l-.02,5.04h-1.46l.03-9.67h1.13l.19,1.66h.09c.21-.56,.47-1.01,.79-1.34,.32-.33,.69-.49,1.11-.49Z"/><path class="c" d="M368.64,128.38c1.57,.05,2.32,1.18,2.24,3.37l-.22,6.55-1.46-.05,.21-6.26c.03-.76-.05-1.33-.23-1.72-.18-.39-.48-.59-.92-.61-.62-.02-1.08,.24-1.38,.79-.29,.55-.46,1.44-.51,2.68l-.17,5.02-1.46-.05,.33-9.66,1.17,.04,.12,1.32h.09c.22-.47,.52-.83,.91-1.07,.39-.24,.81-.36,1.26-.34Z"/><path class="c" d="M376.38,128.79c.91,.06,1.54,.4,1.88,1.01,.34,.61,.48,1.44,.4,2.49l-.45,6.5-1.11-.08-.12-1.34h-.04c-.57,.97-1.34,1.42-2.31,1.35-.5-.04-.9-.2-1.2-.49s-.51-.66-.63-1.11c-.12-.45-.16-.92-.13-1.43,.07-.96,.39-1.68,.98-2.17,.59-.49,1.39-.72,2.41-.7l1.1,.02,.04-.63c.05-.74-.01-1.29-.19-1.66-.18-.36-.5-.56-.95-.59-.53-.04-1.15,.12-1.85,.47l-.39-1.13c.79-.41,1.64-.59,2.56-.53Zm.73,5.12h-.87c-1.3-.02-1.99,.59-2.08,1.85-.04,.6,.03,1.04,.21,1.33,.18,.29,.46,.45,.83,.47,.5,.04,.92-.18,1.24-.65s.52-1.15,.58-2.03l.07-.97Z"/><path class="c" d="M385.14,129.57c1.56,.17,2.23,1.34,2,3.52l-.69,6.52-1.45-.15,.66-6.23c.08-.75,.04-1.33-.11-1.73-.15-.4-.44-.63-.87-.67-.62-.07-1.1,.17-1.43,.69s-.56,1.4-.69,2.63l-.53,4.99-1.45-.15,1.01-9.61,1.16,.12,.02,1.32h.09c.25-.45,.58-.78,.98-1,.4-.22,.83-.3,1.29-.25Z"/><path class="c" d="M391.57,140.48c-2.12-.29-2.95-2.07-2.49-5.34,.22-1.57,.65-2.76,1.3-3.58,.65-.82,1.52-1.15,2.6-1,.37,.05,.7,.14,.99,.26,.29,.12,.55,.27,.78,.45l-.61,1.13c-.42-.3-.83-.48-1.23-.54-1.22-.17-2.01,.99-2.35,3.47-.34,2.44,.11,3.74,1.35,3.91,.26,.04,.53,.04,.81,0s.56-.11,.86-.22l-.17,1.21c-.27,.13-.58,.22-.92,.25-.34,.04-.64,.04-.92,0Z"/><path class="c" d="M399.4,131.58c.65,.11,1.16,.39,1.52,.84,.36,.45,.59,1,.7,1.67,.1,.67,.09,1.4-.05,2.19l-.17,.99-4.52-.77c-.36,2.3,.15,3.57,1.52,3.8,.34,.06,.69,.07,1.05,.02,.35-.04,.73-.15,1.12-.33l-.22,1.28c-.73,.29-1.5,.36-2.32,.22-.82-.14-1.43-.46-1.85-.97-.42-.51-.68-1.15-.78-1.93-.1-.78-.07-1.63,.09-2.55,.28-1.62,.75-2.81,1.41-3.58s1.49-1.06,2.5-.89Zm-.2,1.17c-.49-.08-.9,.09-1.26,.52-.35,.43-.64,1.13-.85,2.1l3.16,.54c.09-.52,.12-1.01,.09-1.46-.03-.46-.14-.84-.33-1.14-.19-.31-.46-.49-.81-.55Z"/></g><g><path class="c" d="M461.84,148.29c1.19,.58,1.93,1.27,2.23,2.08,.3,.81,.18,1.76-.34,2.85-.37,.77-.82,1.34-1.35,1.73s-1.17,.57-1.93,.54l-.18,6.31-1.51-.73,.29-5.84-1.15-.56-2.35,4.84-1.36-.66,5.61-11.56,2.04,.99Zm-.58,1.24l-.7-.34-2.11,4.36,.84,.41c.62,.3,1.18,.34,1.69,.12,.51-.22,.95-.71,1.32-1.46,.36-.73,.45-1.35,.27-1.84-.17-.49-.61-.91-1.31-1.25Z"/><path class="c" d="M468.56,155.08c.58,.31,.98,.73,1.18,1.27,.21,.54,.25,1.14,.14,1.81-.11,.67-.35,1.36-.73,2.07l-.47,.89-4.05-2.15c-1.06,2.07-.97,3.44,.26,4.09,.31,.16,.64,.28,.99,.35,.35,.07,.74,.08,1.17,.04l-.61,1.14c-.79,.05-1.54-.13-2.27-.51-.73-.39-1.22-.89-1.45-1.5-.24-.62-.28-1.31-.13-2.08,.15-.77,.44-1.57,.88-2.39,.77-1.45,1.59-2.44,2.46-2.96,.87-.52,1.75-.54,2.65-.06Zm-.56,1.05c-.43-.23-.89-.2-1.35,.1-.47,.29-.96,.87-1.47,1.73l2.83,1.5c.25-.47,.43-.92,.54-1.36,.11-.44,.13-.84,.05-1.19-.08-.35-.28-.61-.6-.78Z"/><path class="c" d="M473.36,166.03c-.44,.77-.99,1.25-1.64,1.42-.66,.18-1.36,.05-2.11-.38-.39-.22-.71-.47-.99-.74s-.49-.55-.65-.82l.75-1.31c.12,.32,.32,.63,.58,.94,.27,.31,.57,.56,.91,.76,.36,.21,.71,.26,1.04,.17,.33-.09,.6-.33,.83-.72,.18-.32,.25-.65,.19-.99-.06-.34-.25-.78-.56-1.32-.34-.62-.56-1.21-.67-1.76-.11-.55,.02-1.15,.39-1.8,.38-.67,.9-1.08,1.57-1.23,.66-.15,1.34-.03,2.04,.37,.7,.4,1.23,.95,1.61,1.65l-1.05,.75c-.13-.27-.3-.52-.49-.74s-.41-.41-.67-.56c-.36-.2-.69-.26-1.01-.18-.31,.08-.57,.29-.76,.62-.19,.33-.25,.66-.17,.98,.08,.32,.28,.77,.59,1.36,.33,.62,.56,1.2,.67,1.75,.11,.55-.02,1.14-.39,1.79Z"/><path class="c" d="M481.1,162.26c.56,.34,.93,.79,1.1,1.34,.17,.55,.18,1.15,.03,1.81-.15,.66-.44,1.33-.86,2.02l-.53,.86-3.91-2.4c-1.19,2-1.19,3.37,0,4.1,.29,.18,.62,.32,.96,.41,.35,.09,.73,.13,1.17,.11l-.68,1.1c-.79,0-1.53-.22-2.24-.66-.71-.43-1.16-.96-1.36-1.59-.2-.63-.2-1.32,0-2.08,.2-.76,.54-1.54,1.03-2.33,.86-1.4,1.74-2.33,2.64-2.8,.9-.46,1.78-.43,2.65,.11Zm-.62,1.01c-.42-.26-.87-.25-1.36,.01-.49,.27-1.01,.81-1.57,1.63l2.73,1.68c.28-.45,.48-.89,.63-1.33,.14-.44,.18-.83,.12-1.18-.06-.35-.24-.62-.55-.81Z"/><path class="c" d="M487.76,166.49c.76,.5,1.14,1.1,1.14,1.8s-.29,1.49-.88,2.37l-3.6,5.43-.93-.62,.55-1.23-.03-.02c-.98,.56-1.87,.57-2.68,.04-.42-.28-.69-.62-.8-1.02-.12-.4-.12-.82,0-1.27,.12-.45,.31-.88,.59-1.3,.53-.8,1.17-1.27,1.92-1.4,.75-.13,1.57,.06,2.44,.58l.95,.56,.35-.53c.41-.62,.63-1.13,.65-1.53,.02-.4-.16-.73-.54-.98-.44-.29-1.05-.46-1.84-.51l.22-1.17c.89,.03,1.72,.3,2.49,.81Zm-1.89,4.81l-.75-.43c-1.12-.66-2.03-.46-2.72,.59-.33,.5-.49,.92-.47,1.26,.02,.34,.18,.62,.49,.82,.42,.28,.89,.29,1.41,.04,.52-.25,1.02-.74,1.51-1.48l.54-.81Z"/><path class="c" d="M494.77,171.31c.24,.17,.44,.36,.6,.58l-1.05,1.11c-.12-.19-.29-.36-.52-.52-.28-.2-.62-.26-1-.18-.38,.08-.78,.29-1.18,.61-.41,.32-.79,.74-1.15,1.25l-2.91,4.12-1.19-.84,5.57-7.9,.93,.65-.79,1.47,.07,.05c.49-.34,.96-.56,1.41-.64,.45-.09,.85,0,1.19,.23Z"/><path class="c" d="M492.9,182.38c-1.71-1.28-1.58-3.24,.39-5.88,.95-1.27,1.9-2.11,2.87-2.51,.96-.4,1.89-.28,2.76,.38,.3,.22,.55,.46,.74,.7,.2,.25,.36,.5,.47,.77l-1.08,.7c-.22-.46-.5-.82-.83-1.06-.99-.74-2.24-.1-3.73,1.91-1.47,1.97-1.71,3.33-.7,4.08,.21,.16,.45,.29,.71,.38,.26,.1,.55,.17,.86,.22l-.73,.98c-.3-.02-.61-.09-.93-.22-.32-.13-.58-.28-.8-.44Z"/><path class="c" d="M505.48,174.57l-2.41,3.03c-.33,.41-.66,.77-.98,1.06l.08,.07c.43-.25,.88-.36,1.33-.33,.46,.03,.86,.19,1.21,.47,.65,.52,.94,1.11,.89,1.79-.06,.68-.42,1.43-1.08,2.27l-4.09,5.12-1.14-.91,3.91-4.9c.51-.64,.8-1.15,.87-1.54,.07-.39-.07-.72-.41-1-.49-.39-1.01-.45-1.58-.18-.57,.27-1.23,.88-1.99,1.82l-3.13,3.93-1.14-.91,8.53-10.7,1.14,.91Z"/></g><g><path class="c" d="M542.99,234.44l-2.94-4.18,10.51-7.4,2.94,4.18-1.1,.78-2.07-2.94-3.37,2.37,1.95,2.77-1.1,.78-1.95-2.77-3.81,2.68,2.07,2.94-1.12,.79Z"/><path class="c" d="M545.31,238.25c-.5-.77-.53-1.6-.08-2.46s1.36-1.75,2.73-2.64c1.35-.88,2.51-1.35,3.51-1.43,.99-.07,1.73,.26,2.21,1.01,.24,.37,.36,.78,.36,1.23,0,.45-.12,.9-.38,1.35l.04,.06c.43-.33,.79-.58,1.09-.77l3.29-2.14,.8,1.22-11.46,7.47-.64-.98,.92-.83-.05-.07c-.53,.03-.98-.04-1.37-.19-.39-.16-.71-.43-.96-.82Zm1.23-.39c.65,.99,1.9,.89,3.76-.33l.45-.29c1.05-.68,1.73-1.3,2.06-1.87,.33-.56,.32-1.11-.02-1.63-.31-.47-.8-.64-1.48-.51s-1.53,.52-2.53,1.18c-2.1,1.37-2.85,2.52-2.24,3.46Z"/><path class="c" d="M559.99,243.25l-8.29,4.97-.6-1,1.03-.8-.06-.09c-.52,.07-.98,.01-1.38-.17-.4-.18-.72-.47-.96-.86-.45-.75-.49-1.44-.12-2.08,.37-.63,1.02-1.23,1.94-1.78l5.4-3.24,.75,1.25-5.17,3.1c-.73,.44-1.22,.84-1.47,1.22s-.27,.74-.06,1.09c.35,.58,.82,.84,1.43,.78s1.41-.38,2.4-.97l4.42-2.65,.75,1.25Z"/><path class="c" d="M554.11,252.88c-1.04-1.87-.11-3.6,2.77-5.2,1.38-.77,2.6-1.14,3.65-1.11,1.04,.03,1.83,.52,2.36,1.48,.18,.33,.31,.64,.39,.95,.08,.3,.12,.6,.12,.89l-1.27,.19c-.01-.52-.12-.95-.31-1.31-.6-1.08-2-1.01-4.19,.21-2.15,1.19-2.92,2.34-2.32,3.43,.13,.23,.29,.45,.49,.64,.2,.2,.43,.38,.69,.55l-1.07,.59c-.27-.14-.52-.33-.75-.58-.23-.25-.42-.49-.55-.73Z"/><path class="c" d="M565.93,253.75c.42,.81,.46,1.52,.11,2.13-.34,.61-.98,1.15-1.92,1.64l-5.79,2.98-.51-.99,1.09-.8-.02-.03c-1.13,.01-1.91-.41-2.36-1.28-.23-.45-.3-.88-.21-1.28s.3-.78,.62-1.11c.32-.33,.71-.62,1.15-.85,.85-.44,1.64-.54,2.36-.29,.72,.25,1.34,.82,1.85,1.7l.55,.95,.56-.29c.66-.34,1.1-.68,1.32-1.02,.21-.34,.22-.71,.01-1.12-.24-.47-.7-.92-1.36-1.34l.76-.92c.76,.46,1.35,1.1,1.78,1.92Zm-4,3.28l-.44-.74c-.66-1.12-1.55-1.39-2.67-.81-.53,.28-.88,.57-1.03,.87-.15,.31-.14,.63,.03,.96,.23,.45,.63,.69,1.2,.73,.57,.04,1.25-.15,2.04-.56l.87-.45Z"/><path class="c" d="M561.41,264.29c.06,.13,.14,.25,.24,.37,.1,.11,.19,.23,.3,.33l-1.07,.51c-.17-.13-.33-.29-.46-.47-.14-.18-.27-.39-.38-.63-.28-.57-.29-1.09-.03-1.54,.25-.45,.77-.87,1.55-1.24l5.45-2.62-.39-.81,.71-.34,.78,.71,2.17-.6,.43,.89-1.96,.94,.7,1.46-1.1,.53-.7-1.46-5.29,2.54c-.44,.21-.75,.42-.91,.64-.17,.21-.17,.47-.02,.79Z"/><path class="c" d="M570.82,264.28l-8.79,4.01-.6-1.33,8.79-4.01,.61,1.33Zm3.02-2.15c.23,.5,.03,.9-.61,1.19-.62,.28-1.05,.17-1.28-.33-.12-.25-.12-.48-.02-.69,.1-.21,.3-.38,.59-.52,.63-.29,1.07-.17,1.31,.35Z"/><path class="c" d="M569.86,274.22c-.92,.39-1.77,.62-2.56,.7-.79,.08-1.47-.02-2.04-.3-.57-.28-1.01-.77-1.3-1.46-.28-.65-.31-1.28-.12-1.89,.2-.61,.6-1.17,1.19-1.68,.6-.51,1.36-.97,2.29-1.36,1.47-.62,2.71-.86,3.71-.71,1.01,.15,1.73,.73,2.17,1.76,.4,.94,.32,1.84-.24,2.69-.56,.85-1.59,1.6-3.1,2.25Zm-1.95-4.61c-1.14,.48-1.94,.98-2.41,1.48-.47,.51-.58,1.04-.35,1.6,.46,1.08,1.84,1.14,4.14,.16,2.29-.97,3.2-2,2.74-3.08-.24-.57-.71-.87-1.39-.88-.68,0-1.59,.23-2.73,.71Z"/><path class="c" d="M576.61,277.78c.56,1.47-.19,2.59-2.24,3.38l-6.12,2.33-.52-1.36,5.85-2.23c.71-.27,1.21-.56,1.5-.88,.29-.32,.36-.68,.21-1.08-.22-.58-.64-.9-1.26-.96-.62-.06-1.51,.13-2.66,.57l-4.69,1.79-.52-1.36,9.03-3.44,.42,1.09-1.17,.62,.03,.08c.52,.02,.97,.16,1.34,.42,.38,.26,.64,.6,.81,1.03Z"/></g><g><path class="c" d="M129.42,372.49c-.72,.03-1.36-.08-1.93-.34-.57-.26-1.03-.63-1.37-1.12-.34-.49-.53-1.08-.56-1.76-.05-1.04,.1-1.94,.44-2.7l1.56-.07c-.22,.42-.38,.86-.47,1.34-.09,.47-.13,.91-.11,1.32,.03,.6,.26,1.06,.69,1.38,.43,.32,.94,.46,1.53,.43,.41-.02,.76-.1,1.04-.24s.54-.36,.76-.66c.22-.3,.45-.7,.69-1.2,.25-.52,.52-.97,.81-1.35,.29-.38,.65-.69,1.09-.9,.43-.22,.99-.34,1.66-.37,.67-.04,1.27,.07,1.79,.33s.94,.63,1.24,1.12c.3,.49,.47,1.04,.5,1.68,.02,.5-.02,.98-.12,1.43-.11,.45-.23,.84-.39,1.19l-1.41-.42c.36-.74,.53-1.43,.5-2.09-.02-.56-.22-.99-.59-1.29-.37-.3-.83-.43-1.38-.41-.44,.02-.8,.1-1.08,.23-.28,.13-.52,.35-.74,.65-.21,.3-.44,.71-.68,1.22-.41,.86-.88,1.5-1.43,1.93-.55,.43-1.23,.66-2.06,.7Z"/><path class="c" d="M136.05,376.84c.05,.66-.09,1.22-.44,1.68-.34,.46-.83,.82-1.45,1.09-.62,.27-1.34,.43-2.14,.49l-1,.08-.36-4.58c-2.32,.22-3.42,1.02-3.31,2.41,.03,.35,.11,.69,.23,1.02,.13,.33,.33,.67,.59,1.01l-1.29,.1c-.46-.64-.72-1.37-.79-2.2-.06-.83,.1-1.5,.49-2.03,.39-.53,.95-.94,1.68-1.23,.73-.29,1.56-.46,2.49-.54,1.64-.13,2.91,.03,3.81,.49,.9,.45,1.39,1.19,1.47,2.2Zm-1.18,.09c-.04-.49-.31-.85-.81-1.09-.5-.24-1.25-.34-2.25-.31l.25,3.19c.53-.04,1.01-.13,1.44-.28,.43-.14,.78-.34,1.03-.59s.36-.56,.33-.92Z"/><path class="c" d="M126.87,384.25l-.15-1.45,13.61-1.42,.15,1.45-13.61,1.42Z"/><path class="c" d="M135.93,388.96l-.19-1.52-8.38,1.03-.18-1.45,8.38-1.03-.14-1.16,.77-.09,.64,1.1,.55-.07c1.11-.14,1.98-.09,2.62,.14,.64,.23,1.01,.77,1.11,1.61,.03,.26,.04,.51,.02,.73-.02,.23-.06,.47-.13,.73l-1.21-.23c.03-.16,.05-.32,.07-.47,.02-.15,.02-.3,0-.43-.04-.35-.23-.56-.55-.65-.33-.09-.89-.09-1.7,0l-.66,.08,.19,1.52-1.21,.15Z"/><path class="c" d="M131.78,390.48l1.44-.21,.57,3.92-1.44,.21-.57-3.92Z"/><path class="c" d="M136.33,402.99c-2.14,.38-3.82,.29-5.05-.26-1.23-.56-1.97-1.56-2.23-3.01l-.45-2.55,12.65-2.25,.47,2.66c.25,1.41-.09,2.57-1.01,3.5-.92,.93-2.39,1.57-4.39,1.92Zm-.35-1.55c3.27-.58,4.74-1.81,4.41-3.69l-.2-1.12-10,1.77,.18,1.01c.18,1.02,.74,1.68,1.68,2,.94,.31,2.25,.32,3.93,.03Z"/><path class="c" d="M140.52,407.17c.14,.64,.07,1.22-.21,1.72s-.71,.93-1.29,1.27c-.58,.35-1.27,.61-2.05,.77l-.99,.21-.97-4.49c-2.27,.53-3.25,1.47-2.96,2.83,.07,.34,.2,.67,.37,.98,.17,.31,.41,.62,.72,.92l-1.27,.27c-.54-.57-.9-1.26-1.07-2.07-.18-.81-.1-1.5,.21-2.08,.32-.58,.82-1.06,1.5-1.44,.69-.38,1.48-.67,2.4-.87,1.61-.35,2.89-.36,3.84-.03,.95,.33,1.54,.99,1.76,1.99Zm-1.16,.25c-.1-.48-.42-.81-.95-.97s-1.28-.17-2.27,0l.68,3.13c.52-.11,.98-.27,1.39-.46,.41-.2,.73-.44,.94-.73,.21-.29,.28-.6,.21-.96Z"/><path class="c" d="M133.72,416.38c.03,.14,.09,.27,.16,.41,.07,.13,.14,.26,.23,.39l-1.15,.28c-.14-.16-.26-.35-.36-.55-.1-.21-.18-.44-.24-.69-.15-.62-.06-1.12,.29-1.52,.34-.39,.93-.69,1.77-.9l5.87-1.44-.21-.87,.77-.19,.62,.85,2.24-.14,.24,.96-2.12,.52,.39,1.57-1.19,.29-.39-1.57-5.7,1.4c-.48,.12-.82,.26-1.02,.44-.21,.17-.27,.43-.18,.77Z"/><path class="c" d="M143.49,419.25c.18,.64,.14,1.21-.11,1.73-.25,.52-.66,.96-1.22,1.34s-1.23,.67-2.01,.89l-.97,.27-1.21-4.43c-2.24,.65-3.17,1.65-2.8,2.99,.09,.34,.23,.65,.42,.96,.19,.3,.45,.6,.77,.88l-1.25,.34c-.57-.54-.97-1.21-1.19-2.01-.22-.8-.19-1.5,.1-2.09,.29-.59,.76-1.1,1.42-1.52,.66-.42,1.45-.75,2.35-1,1.58-.43,2.86-.51,3.83-.24,.97,.27,1.59,.9,1.86,1.89Zm-1.15,.31c-.13-.47-.46-.78-1-.92-.54-.14-1.29-.1-2.26,.12l.85,3.09c.51-.14,.96-.32,1.36-.54,.4-.22,.7-.48,.9-.78,.2-.3,.25-.62,.15-.97Z"/><path class="c" d="M145.83,427.14c.08,.27,.12,.55,.12,.83l-1.51,.24c.02-.22,0-.46-.09-.73-.1-.33-.33-.58-.68-.75s-.79-.25-1.31-.24c-.52,0-1.08,.1-1.67,.29l-4.82,1.48-.43-1.39,9.24-2.83,.33,1.08-1.53,.67,.03,.08c.6,.03,1.1,.15,1.51,.36,.41,.21,.67,.51,.8,.91Z"/><path class="c" d="M149.02,436.58c.5,1.43-.31,2.51-2.43,3.25l-6.12,2.14-.48-1.38,5.86-2.05c.79-.28,1.33-.57,1.6-.88,.27-.31,.34-.66,.21-1.05-.19-.54-.58-.84-1.18-.88-.6-.05-1.39,.1-2.39,.46l-5.03,1.76-.48-1.36,5.91-2.07c.78-.27,1.3-.57,1.56-.87,.26-.31,.32-.65,.19-1.04-.14-.41-.39-.67-.74-.79-.35-.12-.79-.13-1.32-.04-.53,.1-1.11,.26-1.76,.48l-4.77,1.67-.48-1.38,9.12-3.2,.39,1.1-1.19,.59,.03,.08c1.07,.03,1.77,.52,2.1,1.46,.18,.52,.19,.98,.02,1.39-.17,.4-.45,.73-.83,.98l.04,.1c.57,.04,1.03,.18,1.38,.41,.35,.23,.61,.6,.79,1.1Z"/><path class="c" d="M151.04,442.36l-9,3.53-.53-1.36,9-3.53,.53,1.36Zm3.13-1.98c.2,.51-.02,.9-.67,1.15-.64,.25-1.06,.12-1.26-.4-.1-.26-.09-.49,.02-.69,.11-.21,.32-.37,.62-.48,.65-.25,1.08-.11,1.29,.42Z"/><path class="c" d="M153.5,447.87c.61,1.45-.09,2.6-2.11,3.46l-6.03,2.56-.57-1.34,5.77-2.45c.7-.29,1.18-.61,1.46-.93,.28-.33,.33-.69,.17-1.09-.24-.57-.68-.88-1.3-.92-.62-.04-1.5,.19-2.64,.67l-4.62,1.96-.57-1.34,8.9-3.77,.46,1.08-1.15,.66,.03,.08c.52,0,.98,.12,1.36,.37,.39,.25,.67,.58,.85,1Z"/><path class="c" d="M156.52,454.63c.39,.83,.4,1.54,.03,2.13-.37,.59-1.03,1.12-1.98,1.56l-5.9,2.75-.47-1.01,1.12-.76-.02-.03c-1.13-.03-1.9-.49-2.31-1.37-.21-.46-.26-.89-.15-1.29,.11-.4,.33-.76,.67-1.08s.73-.59,1.19-.8c.87-.41,1.66-.47,2.37-.19,.71,.28,1.31,.87,1.78,1.77l.51,.97,.57-.27c.67-.31,1.12-.64,1.35-.97,.23-.33,.25-.7,.05-1.12-.22-.48-.66-.94-1.31-1.4l.8-.89c.74,.49,1.31,1.15,1.7,1.99Zm-4.13,3.12l-.41-.76c-.61-1.14-1.49-1.45-2.63-.92-.54,.25-.9,.53-1.06,.83-.16,.3-.17,.62-.01,.96,.21,.46,.6,.71,1.18,.77s1.26-.1,2.06-.48l.88-.41Z"/><path class="c" d="M151.92,465.11c.06,.13,.15,.25,.24,.36,.1,.11,.2,.22,.31,.33l-1.06,.53c-.17-.13-.33-.28-.47-.46-.14-.18-.27-.38-.39-.62-.29-.57-.3-1.08-.06-1.54,.25-.46,.76-.88,1.53-1.27l5.41-2.71-.4-.81,.71-.35,.79,.69,2.16-.64,.44,.88-1.95,.98,.73,1.45-1.09,.55-.73-1.45-5.25,2.63c-.44,.22-.74,.44-.9,.65-.16,.21-.16,.48,0,.79Z"/><path class="c" d="M161.35,464.73l-8.56,4.5-.68-1.29,8.56-4.5,.68,1.29Zm2.89-2.31c.26,.49,.08,.9-.54,1.22-.61,.32-1.04,.23-1.29-.26-.13-.25-.15-.48-.06-.69,.09-.22,.28-.4,.56-.55,.62-.32,1.06-.23,1.33,.28Z"/><path class="c" d="M161.28,474.59c-.87,.49-1.69,.81-2.46,.98-.77,.17-1.46,.14-2.06-.07-.6-.21-1.09-.65-1.46-1.31-.35-.62-.45-1.24-.32-1.86,.13-.62,.47-1.22,1-1.8,.54-.58,1.25-1.11,2.12-1.6,1.39-.78,2.6-1.16,3.61-1.12s1.8,.54,2.35,1.51c.5,.89,.52,1.79,.06,2.7-.46,.91-1.41,1.77-2.84,2.57Zm-2.45-4.37c-1.08,.61-1.82,1.18-2.23,1.74-.41,.55-.47,1.1-.17,1.63,.58,1.03,1.95,.93,4.13-.29,2.17-1.21,2.96-2.34,2.39-3.36-.31-.54-.8-.78-1.48-.72-.68,.06-1.56,.4-2.64,1Z"/><path class="c" d="M168.51,476.9c.82,1.34,.29,2.58-1.58,3.73l-5.59,3.41-.76-1.24,5.35-3.26c.65-.39,1.08-.77,1.31-1.14,.23-.36,.23-.73,0-1.1-.33-.53-.8-.77-1.42-.72-.62,.06-1.46,.4-2.51,1.05l-4.29,2.62-.76-1.24,8.25-5.03,.61,1-1.04,.82,.05,.08c.52-.08,.98-.02,1.4,.17,.42,.19,.74,.48,.98,.87Z"/></g><g><path class="c" d="M238.96,546.45c-.55-.36-1.13-.45-1.74-.27-.61,.18-1.21,.56-1.81,1.13s-1.15,1.24-1.66,2.01c-.89,1.37-1.38,2.58-1.45,3.64-.07,1.06,.26,1.84,.99,2.32,.3,.2,.61,.35,.93,.44,.32,.1,.63,.17,.95,.2l-.75,1.14c-.66-.04-1.33-.29-2.03-.75-.73-.48-1.22-1.12-1.46-1.9-.24-.79-.24-1.69,0-2.71,.25-1.01,.75-2.1,1.52-3.27,.67-1.03,1.41-1.87,2.21-2.53,.81-.66,1.64-1.07,2.5-1.22,.86-.15,1.69,.04,2.51,.58,.71,.47,1.26,1.08,1.65,1.85l-1.15,.77c-.13-.28-.29-.55-.49-.8s-.43-.47-.71-.65Z"/><path class="c" d="M244.6,547.64l-2,3.31c-.27,.45-.55,.84-.84,1.18l.09,.05c.4-.31,.82-.47,1.28-.5,.46-.03,.88,.08,1.25,.31,.71,.43,1.08,.98,1.11,1.66,.03,.68-.23,1.47-.78,2.39l-3.39,5.61-1.25-.75,3.24-5.36c.42-.7,.64-1.25,.66-1.64,.02-.39-.16-.71-.54-.94-.54-.32-1.07-.31-1.59,.03-.53,.34-1.1,1.03-1.73,2.07l-2.6,4.3-1.25-.75,7.07-11.71,1.25,.75Z"/><path class="c" d="M250.8,555.7c.8,.44,1.22,1.01,1.27,1.71,.05,.7-.18,1.5-.69,2.43l-3.17,5.69-.98-.54,.46-1.27-.03-.02c-.93,.64-1.82,.72-2.67,.24-.44-.25-.73-.56-.88-.95-.15-.39-.18-.81-.1-1.27,.08-.46,.25-.9,.49-1.34,.47-.84,1.07-1.35,1.81-1.55,.74-.19,1.57-.06,2.48,.39l.98,.49,.31-.55c.36-.65,.54-1.18,.53-1.58s-.21-.72-.61-.94c-.46-.26-1.09-.38-1.88-.37l.12-1.19c.89-.04,1.74,.16,2.54,.61Zm-1.52,4.94l-.78-.37c-1.17-.57-2.06-.3-2.67,.8-.29,.52-.42,.96-.37,1.3,.04,.34,.23,.6,.55,.78,.44,.24,.91,.22,1.4-.06,.5-.29,.96-.82,1.39-1.59l.47-.85Z"/><path class="c" d="M258.27,559.67c1.4,.72,1.6,2.05,.6,4.01l-2.99,5.83-1.3-.67,2.85-5.58c.34-.67,.52-1.22,.52-1.65,0-.43-.19-.74-.57-.94-.56-.29-1.08-.24-1.58,.13-.5,.37-1.03,1.11-1.59,2.21l-2.29,4.47-1.3-.66,4.4-8.6,1.04,.53-.46,1.24,.08,.04c.4-.33,.83-.53,1.28-.59,.45-.06,.88,.02,1.29,.23Z"/><path class="c" d="M264.7,562.82c.41,.19,.73,.46,.94,.82,.21,.35,.33,.82,.35,1.4l.08,.04,.69-1.09,1.11,.52-4.13,8.86c-.57,1.22-1.27,2.04-2.1,2.46-.83,.42-1.83,.36-2.99-.18-.4-.19-.75-.4-1.04-.64-.29-.24-.56-.52-.79-.84l.59-1.25c.56,.74,1.15,1.25,1.77,1.54,.66,.31,1.25,.37,1.76,.17,.51-.19,.96-.71,1.35-1.56l.12-.26c.09-.18,.19-.39,.31-.62,.12-.23,.25-.47,.4-.72l-.06-.03c-.9,.71-1.77,.86-2.62,.47-.8-.38-1.25-1.05-1.33-2.01-.08-.96,.22-2.18,.91-3.67,.71-1.52,1.47-2.56,2.29-3.11,.81-.55,1.62-.65,2.41-.28Zm-.27,1.3c-.51-.24-1.02-.12-1.53,.35-.51,.47-1.03,1.27-1.55,2.38-.54,1.16-.81,2.07-.81,2.71,0,.64,.27,1.09,.79,1.33,1.07,.5,2.06-.26,3-2.26l.19-.41c.54-1.15,.8-2.06,.78-2.72-.02-.66-.31-1.13-.87-1.39Z"/><path class="c" d="M272.66,566.38c.61,.26,1.04,.64,1.29,1.16,.25,.52,.35,1.11,.3,1.79-.05,.68-.23,1.38-.55,2.12l-.39,.93-4.23-1.79c-.88,2.16-.67,3.51,.61,4.05,.32,.14,.66,.22,1.01,.26,.35,.04,.75,.02,1.17-.06l-.51,1.19c-.78,.11-1.55,0-2.31-.31-.76-.32-1.29-.78-1.58-1.37-.29-.59-.39-1.28-.31-2.06,.08-.78,.31-1.6,.67-2.46,.64-1.51,1.37-2.57,2.19-3.16,.82-.59,1.7-.69,2.63-.29Zm-.46,1.09c-.45-.19-.9-.12-1.34,.21-.44,.33-.88,.95-1.31,1.85l2.95,1.25c.21-.49,.35-.96,.42-1.41,.07-.45,.06-.85-.05-1.19s-.33-.58-.66-.72Z"/><path class="c" d="M281.47,580.36l.71-11.19-.07-.02c-.34,1.17-.58,1.98-.74,2.43l-2.75,7.77-1.36-.48,4.28-12.12,2.02,.71-.68,10.89,.05,.02,6.31-8.9,2.04,.72-4.28,12.12-1.39-.49,2.73-7.74c.09-.25,.21-.58,.37-.98s.35-.88,.57-1.42l-.07-.03-6.48,9.15-1.27-.45Z"/><path class="c" d="M295.24,574.53c.87,.26,1.41,.73,1.61,1.4,.2,.67,.15,1.51-.16,2.52l-1.89,6.24-1.07-.32,.18-1.34h-.03c-.78,.81-1.63,1.08-2.56,.8-.48-.15-.84-.39-1.06-.75-.23-.35-.35-.76-.36-1.22-.02-.46,.05-.93,.19-1.42,.28-.92,.76-1.55,1.44-1.9,.68-.35,1.52-.39,2.51-.14l1.07,.27,.18-.6c.22-.71,.28-1.26,.18-1.66-.1-.39-.36-.65-.8-.79-.51-.15-1.14-.14-1.91,.04l-.13-1.19c.86-.23,1.73-.21,2.62,.06Zm-.43,5.15l-.84-.2c-1.26-.31-2.07,.14-2.44,1.35-.17,.57-.2,1.02-.09,1.35,.11,.32,.35,.54,.71,.65,.48,.15,.94,.03,1.36-.36,.42-.39,.76-1,1.02-1.85l.28-.93Z"/><path class="c" d="M303.41,576.83c1.52,.4,2,1.66,1.44,3.79l-1.67,6.33-1.41-.37,1.6-6.06c.19-.73,.25-1.31,.16-1.73-.09-.42-.34-.69-.76-.8-.6-.16-1.11,0-1.52,.46-.41,.47-.77,1.3-1.09,2.5l-1.28,4.86-1.41-.37,2.47-9.34,1.13,.3-.18,1.31,.09,.02c.32-.41,.7-.69,1.13-.85,.43-.15,.87-.17,1.31-.05Z"/><path class="c" d="M310.62,578.59c.89,.2,1.46,.63,1.7,1.28,.25,.65,.25,1.49,.02,2.52l-1.44,6.35-1.09-.25,.08-1.35h-.04c-.71,.86-1.55,1.19-2.49,.98-.49-.11-.86-.33-1.11-.67-.25-.33-.4-.73-.45-1.19-.05-.46-.02-.94,.09-1.43,.21-.94,.65-1.6,1.3-1.99,.65-.39,1.49-.5,2.49-.32l1.08,.19,.14-.62c.16-.73,.19-1.28,.06-1.67-.12-.38-.41-.63-.85-.73-.52-.12-1.15-.06-1.91,.18l-.21-1.17c.84-.29,1.71-.33,2.61-.13Zm-.07,5.17l-.85-.14c-1.28-.22-2.06,.29-2.34,1.52-.13,.59-.13,1.04,0,1.35s.39,.51,.75,.59c.49,.11,.94-.04,1.33-.46,.4-.41,.69-1.05,.89-1.92l.21-.95Z"/><path class="c" d="M317.79,580.09c.45,.08,.82,.27,1.11,.56,.29,.29,.52,.71,.69,1.26l.09,.02,.4-1.22,1.2,.23-1.82,9.6c-.25,1.32-.73,2.29-1.43,2.9-.7,.61-1.68,.8-2.95,.56-.44-.08-.83-.2-1.17-.36-.34-.16-.67-.36-.97-.61l.26-1.36c.72,.58,1.42,.93,2.09,1.06,.72,.14,1.3,.05,1.75-.26,.44-.31,.75-.93,.93-1.85l.05-.28c.04-.2,.09-.43,.15-.68,.06-.25,.13-.52,.21-.79h-.07c-.7,.89-1.5,1.26-2.42,1.08-.87-.17-1.47-.71-1.78-1.62-.31-.92-.32-2.17-.02-3.78,.31-1.65,.79-2.84,1.45-3.58,.65-.74,1.41-1.03,2.27-.86Zm.06,1.33c-.55-.11-1.02,.13-1.4,.71-.38,.58-.68,1.48-.91,2.69-.24,1.26-.28,2.2-.11,2.83,.16,.62,.53,.99,1.09,1.1,1.16,.22,1.94-.76,2.35-2.93l.08-.44c.24-1.25,.27-2.19,.09-2.83-.18-.64-.57-1.02-1.19-1.13Z"/><path class="c" d="M326.38,581.58c.65,.1,1.16,.37,1.53,.81,.37,.44,.61,.99,.73,1.66,.12,.67,.11,1.4,0,2.19l-.15,1-4.54-.69c-.32,2.31,.21,3.56,1.59,3.77,.34,.05,.69,.05,1.05,0,.35-.05,.73-.17,1.12-.35l-.2,1.28c-.73,.3-1.5,.39-2.32,.27-.82-.12-1.44-.44-1.87-.94-.43-.5-.7-1.14-.81-1.92-.11-.78-.1-1.63,.04-2.55,.25-1.62,.69-2.83,1.34-3.6s1.47-1.09,2.48-.93Zm-.18,1.17c-.49-.07-.9,.11-1.25,.54-.35,.43-.62,1.14-.81,2.12l3.17,.48c.08-.52,.1-1.01,.06-1.47-.04-.46-.16-.83-.35-1.14-.19-.3-.46-.48-.82-.54Z"/><path class="c" d="M338.87,583.12c1.5,.16,2.14,1.36,1.9,3.59l-.69,6.44-1.45-.16,.66-6.17c.09-.83,.05-1.44-.11-1.82-.17-.38-.45-.59-.86-.64-.57-.06-1.01,.17-1.3,.68s-.5,1.3-.61,2.35l-.57,5.3-1.43-.15,.67-6.23c.09-.82,.05-1.42-.12-1.79-.17-.37-.45-.57-.86-.62-.43-.05-.77,.06-1.03,.33-.26,.27-.46,.66-.6,1.18-.14,.52-.25,1.11-.32,1.79l-.54,5.03-1.45-.16,1.03-9.61,1.16,.12,.02,1.32h.09c.49-.94,1.23-1.36,2.22-1.25,.55,.06,.97,.25,1.26,.58,.29,.33,.47,.72,.53,1.17h.11c.28-.49,.6-.85,.97-1.06,.36-.21,.8-.29,1.33-.24Z"/><path class="c" d="M346.2,583.7c.66,.04,1.19,.26,1.6,.67,.41,.4,.7,.93,.88,1.59,.18,.65,.24,1.38,.19,2.18l-.06,1.01-4.58-.28c-.11,2.33,.53,3.53,1.92,3.62,.35,.02,.69,0,1.04-.09,.35-.08,.71-.23,1.08-.45l-.08,1.29c-.7,.37-1.46,.52-2.28,.47-.83-.05-1.47-.31-1.94-.77-.47-.46-.8-1.08-.98-1.84-.18-.76-.24-1.61-.18-2.55,.1-1.64,.44-2.88,1.01-3.71,.57-.83,1.37-1.21,2.39-1.15Zm-.07,1.19c-.49-.03-.89,.19-1.19,.65-.31,.46-.51,1.19-.62,2.18l3.2,.2c.03-.53,0-1.02-.07-1.47-.08-.45-.23-.82-.45-1.1-.22-.28-.5-.44-.86-.46Z"/><path class="c" d="M354.68,584.04c1.57,.04,2.33,1.16,2.27,3.35l-.17,6.55-1.46-.04,.16-6.26c.02-.76-.06-1.33-.24-1.72-.18-.39-.49-.59-.92-.6-.62-.02-1.08,.25-1.37,.8-.29,.55-.45,1.44-.48,2.68l-.13,5.02-1.46-.04,.25-9.66,1.17,.03,.13,1.32h.09c.22-.47,.52-.83,.9-1.08,.38-.25,.8-.37,1.26-.35Z"/><path class="c" d="M361.84,592.82c.14,0,.29-.02,.43-.05,.14-.04,.29-.08,.43-.13v1.19c-.19,.1-.39,.17-.62,.22-.22,.05-.46,.07-.73,.07-.64,0-1.1-.21-1.41-.63-.3-.42-.45-1.07-.46-1.93l-.02-6.05h-.9v-.79l.97-.4,.39-2.22h.99v2.17h1.63v1.22h-1.62l.02,5.88c0,.49,.06,.86,.18,1.1s.36,.36,.7,.36Z"/><path class="c" d="M370.07,580.68c.7-.03,1.24,.18,1.64,.63,.4,.46,.62,1.11,.66,1.96,.04,.73-.06,1.38-.29,1.96-.23,.58-.6,1.13-1.12,1.66l1.97,2.97c.27-.62,.4-1.43,.39-2.42l1.49-.07c0,.6-.09,1.25-.25,1.93-.16,.69-.38,1.29-.67,1.83l1.72,2.33-1.76,.09-.84-1.27c-.37,.5-.77,.89-1.2,1.17-.43,.28-.96,.43-1.58,.46-.61,.03-1.13-.09-1.54-.38s-.73-.67-.95-1.18c-.22-.51-.34-1.09-.37-1.75-.04-.77,.09-1.45,.38-2.05,.29-.6,.77-1.19,1.44-1.76-.4-.59-.7-1.14-.88-1.62-.19-.49-.3-1.06-.33-1.72-.04-.81,.13-1.47,.51-1.96,.38-.49,.91-.76,1.59-.79Zm-.16,7.05c-.41,.42-.7,.83-.86,1.24-.16,.41-.23,.91-.2,1.5,.03,.67,.19,1.19,.46,1.55,.28,.37,.63,.54,1.06,.52,.71-.03,1.31-.5,1.81-1.4l-2.28-3.4Zm.18-5.87c-.24,.01-.43,.15-.56,.41-.13,.26-.19,.63-.16,1.12,.02,.41,.1,.85,.25,1.31,.15,.47,.35,.87,.59,1.21,.32-.34,.54-.73,.66-1.17,.12-.44,.17-.92,.15-1.45-.05-.98-.36-1.46-.94-1.43Z"/><path class="c" d="M381.93,579.98c1.31-.14,2.31,.06,2.99,.59,.68,.53,1.09,1.4,1.21,2.61,.09,.85,0,1.57-.24,2.18-.25,.6-.7,1.1-1.36,1.48l3.17,5.46-1.67,.17-2.83-5.12-1.27,.13,.55,5.35-1.5,.16-1.32-12.78,2.26-.23Zm.16,1.36l-.77,.08,.5,4.82,.93-.1c.68-.07,1.18-.33,1.5-.79,.32-.46,.44-1.1,.35-1.94-.08-.81-.33-1.38-.74-1.71-.41-.33-1-.45-1.78-.37Z"/><path class="c" d="M388.49,578.77c.55-.07,.87,.24,.96,.93,.09,.68-.14,1.05-.69,1.12-.27,.04-.5-.03-.67-.18-.17-.16-.28-.4-.32-.72-.09-.69,.15-1.07,.72-1.15Zm1.17,3.51l1.25,9.58-1.45,.19-1.26-9.58,1.45-.19Z"/><path class="c" d="M397.5,588.27c.13,.88,0,1.59-.4,2.14-.4,.55-1.03,.89-1.88,1.02-.44,.07-.85,.08-1.23,.03-.38-.04-.72-.12-1.02-.23l-.23-1.49c.29,.17,.64,.3,1.04,.38,.4,.08,.8,.09,1.19,.03,.42-.06,.72-.24,.92-.52s.27-.64,.2-1.08c-.06-.37-.21-.67-.47-.89s-.68-.45-1.26-.68c-.65-.28-1.19-.6-1.62-.96-.43-.36-.71-.91-.82-1.65-.12-.76,.04-1.4,.46-1.94,.42-.53,1.03-.86,1.83-.98,.79-.12,1.56-.03,2.28,.29l-.36,1.24c-.27-.13-.56-.22-.84-.28s-.58-.06-.88-.02c-.4,.06-.7,.22-.9,.48-.2,.26-.26,.58-.21,.96,.06,.38,.22,.67,.48,.87,.26,.2,.7,.43,1.31,.69,.65,.28,1.19,.59,1.61,.95,.42,.36,.69,.91,.81,1.64Z"/><path class="c" d="M398.95,576.76l1.23,6.67c.06,.33,.11,.65,.15,.97,.04,.32,.08,.63,.11,.94h.07c.06-.22,.12-.43,.19-.63s.14-.4,.21-.59l1.47-3.91,1.54-.29-1.62,4.09,3.54,5.39-1.54,.28-2.76-4.34-.76,1.35,.65,3.52-1.43,.26-2.49-13.45,1.43-.26Z"/><path class="c" d="M415.6,587.21l-5.56-9.73-.07,.02c.36,1.16,.6,1.97,.71,2.44l1.98,8-1.4,.35-3.09-12.48,2.08-.51,5.42,9.47h.05l.38-10.92,2.1-.52,3.09,12.48-1.43,.36-1.97-7.97c-.06-.25-.14-.6-.23-1.02-.09-.42-.19-.92-.31-1.5l-.07,.02-.38,11.2-1.31,.32Z"/><path class="c" d="M423.92,574.76c.88-.26,1.58-.16,2.11,.29,.53,.45,.95,1.18,1.25,2.19l1.85,6.25-1.07,.32-.58-1.21h-.03c-.2,1.12-.76,1.81-1.69,2.09-.48,.14-.92,.13-1.3-.04-.38-.17-.71-.44-.97-.82-.27-.38-.47-.81-.62-1.29-.27-.92-.22-1.71,.16-2.38,.38-.66,1.05-1.16,2.02-1.5l1.04-.36-.18-.6c-.21-.71-.46-1.21-.76-1.48-.29-.28-.66-.35-1.1-.22-.51,.15-1.03,.51-1.58,1.08l-.76-.92c.59-.66,1.33-1.12,2.22-1.39Zm2.47,4.54l-.81,.3c-1.22,.44-1.66,1.26-1.3,2.47,.17,.58,.39,.97,.67,1.17s.59,.26,.95,.15c.48-.14,.8-.49,.94-1.05,.14-.55,.09-1.26-.16-2.11l-.28-.93Z"/><path class="c" d="M431.99,572.21c1.49-.5,2.58,.3,3.28,2.38l2.08,6.21-1.38,.46-1.98-5.94c-.24-.72-.51-1.23-.81-1.53s-.66-.39-1.07-.25c-.59,.2-.93,.6-1.01,1.22s.07,1.51,.46,2.68l1.59,4.76-1.38,.46-3.06-9.17,1.11-.37,.57,1.19,.08-.03c.04-.52,.2-.96,.48-1.33,.28-.36,.63-.62,1.06-.76Z"/><path class="c" d="M438.97,569.73c.85-.32,1.56-.27,2.13,.14s1.03,1.11,1.4,2.1l2.28,6.1-1.05,.39-.67-1.17h-.03c-.12,1.13-.63,1.86-1.55,2.2-.47,.18-.9,.19-1.3,.05-.39-.14-.74-.39-1.03-.75-.29-.36-.53-.77-.71-1.25-.33-.9-.34-1.69,0-2.38,.33-.69,.97-1.23,1.91-1.63l1.01-.43-.22-.59c-.26-.7-.55-1.17-.86-1.43-.31-.25-.68-.3-1.11-.14-.5,.19-.99,.58-1.5,1.19l-.82-.87c.54-.7,1.25-1.22,2.12-1.54Zm2.78,4.36l-.79,.35c-1.19,.52-1.56,1.37-1.12,2.55,.21,.56,.46,.94,.75,1.12,.29,.19,.61,.21,.95,.08,.47-.18,.76-.55,.86-1.11,.1-.56,0-1.26-.31-2.09l-.34-.91Z"/><path class="c" d="M445.82,567.04c.42-.17,.83-.22,1.24-.14,.4,.08,.83,.31,1.27,.68l.08-.04-.34-1.24,1.13-.47,3.74,9.03c.51,1.24,.65,2.31,.39,3.21-.25,.9-.97,1.59-2.16,2.08-.41,.17-.8,.28-1.17,.34-.37,.06-.76,.06-1.15,.02l-.53-1.28c.92,.09,1.69,0,2.33-.26,.67-.28,1.11-.67,1.31-1.18s.12-1.19-.24-2.05l-.11-.27c-.08-.19-.16-.4-.25-.65-.09-.24-.18-.5-.26-.78l-.07,.03c-.09,1.14-.56,1.89-1.43,2.25-.82,.34-1.61,.21-2.38-.38-.77-.59-1.46-1.64-2.09-3.15-.64-1.55-.89-2.81-.75-3.79,.14-.97,.62-1.63,1.43-1.96Zm.78,1.08c-.52,.22-.78,.67-.78,1.37,0,.69,.24,1.61,.71,2.75,.49,1.19,.98,2,1.46,2.43,.48,.43,.98,.54,1.51,.32,1.09-.45,1.21-1.69,.36-3.73l-.17-.42c-.49-1.17-.98-1.98-1.48-2.42-.5-.43-1.04-.53-1.61-.29Z"/><path class="c" d="M453.8,563.59c.6-.27,1.18-.33,1.73-.17,.55,.16,1.06,.49,1.52,.99,.46,.49,.86,1.11,1.2,1.84l.42,.92-4.17,1.91c1,2.1,2.13,2.86,3.4,2.29,.32-.15,.61-.33,.88-.57s.52-.54,.74-.9l.54,1.18c-.44,.65-1.04,1.15-1.79,1.49-.75,.34-1.45,.42-2.08,.24-.63-.19-1.21-.57-1.73-1.16-.52-.59-.97-1.31-1.36-2.16-.68-1.5-.97-2.74-.85-3.75,.12-1,.64-1.72,1.56-2.14Zm.49,1.08c-.45,.2-.7,.58-.75,1.13-.05,.55,.11,1.29,.48,2.21l2.91-1.33c-.22-.48-.47-.9-.75-1.26-.28-.36-.59-.61-.91-.76-.33-.15-.65-.15-.98,0Z"/><path class="c" d="M465.12,558.02c1.34-.69,2.53-.04,3.55,1.96l2.96,5.77-1.3,.67-2.83-5.53c-.38-.75-.75-1.24-1.09-1.46-.35-.23-.7-.25-1.06-.06-.51,.26-.75,.69-.72,1.29,.04,.6,.29,1.36,.78,2.3l2.43,4.74-1.28,.66-2.86-5.58c-.38-.74-.74-1.21-1.08-1.43-.34-.22-.69-.23-1.05-.05-.38,.2-.61,.48-.68,.84-.07,.37-.02,.8,.15,1.31s.4,1.07,.72,1.67l2.31,4.5-1.3,.67-4.41-8.6,1.04-.53,.74,1.1,.08-.04c-.11-1.06,.27-1.82,1.16-2.27,.49-.25,.95-.32,1.37-.21,.42,.12,.78,.34,1.08,.69l.1-.05c-.04-.57,.04-1.05,.22-1.43,.18-.38,.51-.69,.98-.93Z"/><path class="c" d="M471.52,554.5c.57-.33,1.14-.43,1.7-.32s1.1,.4,1.6,.85c.51,.45,.96,1.03,1.36,1.72l.5,.87-3.99,2.27c1.18,2,2.38,2.66,3.59,1.97,.3-.17,.58-.39,.82-.65s.47-.58,.66-.97l.64,1.13c-.38,.69-.93,1.24-1.65,1.65-.72,.41-1.4,.55-2.05,.42-.65-.13-1.25-.46-1.83-1-.57-.54-1.08-1.21-1.55-2.03-.81-1.43-1.21-2.65-1.18-3.66,.03-1.01,.48-1.77,1.37-2.27Zm.59,1.03c-.43,.24-.64,.64-.64,1.2,0,.55,.22,1.28,.67,2.16l2.78-1.59c-.26-.46-.55-.85-.86-1.19-.31-.33-.64-.56-.98-.68-.34-.12-.66-.09-.97,.09Z"/><path class="c" d="M478.76,550.17c1.34-.83,2.58-.31,3.74,1.56l3.44,5.57-1.24,.77-3.29-5.33c-.4-.64-.78-1.08-1.14-1.3-.36-.22-.73-.22-1.1,0-.53,.33-.77,.8-.71,1.42,.06,.62,.41,1.46,1.06,2.51l2.64,4.27-1.24,.77-5.08-8.22,1-.61,.83,1.03,.08-.05c-.08-.51-.03-.98,.16-1.4s.47-.75,.86-.99Z"/><path class="c" d="M489.6,553.57c.12-.08,.23-.17,.33-.28,.1-.11,.2-.22,.29-.34l.65,.99c-.11,.18-.24,.36-.4,.52-.16,.16-.35,.32-.57,.46-.53,.35-1.04,.43-1.52,.24-.48-.19-.97-.65-1.44-1.37l-3.33-5.05-.75,.5-.44-.66,.59-.87-.89-2.07,.83-.55,1.2,1.82,1.35-.89,.67,1.02-1.35,.89,3.23,4.9c.27,.41,.52,.68,.75,.82,.23,.13,.49,.11,.78-.09Z"/></g><g><path class="c" d="M548.08,477.03l9.24,9.31-1,1.5-7.73-3.17c-.2-.09-.49-.23-.88-.41-.39-.19-.86-.42-1.41-.7,.29,.25,.61,.52,.94,.81,.33,.29,.65,.58,.94,.88l5.94,5.9-.98,1.47-12.17-4.9,.85-1.27,7.42,3.08c.6,.25,1.15,.5,1.67,.73,.52,.24,.95,.45,1.29,.63-.39-.35-.79-.71-1.21-1.1-.42-.39-.8-.75-1.15-1.1l-5.71-5.72,.79-1.18,7.45,3.07c.44,.19,.9,.39,1.38,.6,.48,.21,1.01,.46,1.57,.75-.45-.39-.88-.77-1.29-1.15-.41-.38-.78-.73-1.11-1.05l-5.69-5.69,.85-1.27Z"/><path class="c" d="M558.5,475.12c.85,.51,1.54,1.07,2.07,1.66s.85,1.2,.96,1.83c.11,.63-.03,1.27-.42,1.91-.36,.61-.85,1.01-1.46,1.2-.61,.2-1.29,.2-2.06,.02-.77-.18-1.58-.53-2.45-1.05-1.37-.82-2.29-1.68-2.76-2.59-.47-.9-.42-1.83,.15-2.79,.53-.87,1.3-1.34,2.32-1.39,1.02-.05,2.23,.34,3.64,1.19Zm-2.58,4.29c1.06,.64,1.93,1,2.62,1.08,.69,.08,1.19-.14,1.5-.66,.61-1.01-.16-2.15-2.3-3.44-2.13-1.28-3.5-1.42-4.1-.41-.32,.53-.29,1.08,.11,1.64,.39,.56,1.12,1.16,2.18,1.79Z"/><path class="c" d="M556.84,467.87c.14-.25,.31-.47,.51-.66l1.21,.93c-.17,.14-.33,.33-.46,.57-.17,.3-.19,.64-.07,1.01,.12,.37,.37,.74,.73,1.11s.82,.71,1.36,1.01l4.4,2.47-.71,1.27-8.43-4.73,.55-.99,1.54,.64,.04-.08c-.39-.45-.65-.9-.79-1.34-.13-.44-.1-.84,.11-1.21Z"/><path class="c" d="M555.22,462.8l6.01,3.15c.3,.16,.58,.32,.86,.48,.27,.16,.54,.33,.81,.49l.03-.06c-.12-.17-.25-.35-.37-.53s-.23-.36-.33-.53l-2.17-3.58,.73-1.39,2.21,3.8,6.42,.54-.73,1.39-5.12-.51,.59,1.43,3.17,1.66-.68,1.29-12.12-6.35,.68-1.29Z"/><path class="c" d="M563.92,457.19l-.67,1.37,7.58,3.72-.64,1.31-7.58-3.72-.52,1.05-.69-.34,.06-1.27-.5-.25c-1-.49-1.71-1.01-2.12-1.55s-.43-1.2-.05-1.96c.12-.24,.25-.44,.39-.62,.14-.18,.31-.36,.51-.54l.88,.85c-.11,.12-.22,.24-.32,.36s-.18,.24-.23,.36c-.15,.31-.12,.59,.11,.85,.23,.25,.7,.56,1.43,.93l.6,.29,.67-1.37,1.1,.54Z"/><path class="c" d="M570.4,451.74c.91,.41,1.66,.88,2.25,1.41,.59,.53,.98,1.1,1.16,1.71,.18,.61,.12,1.26-.2,1.95-.29,.64-.73,1.1-1.31,1.36-.58,.26-1.26,.35-2.04,.25-.78-.09-1.63-.35-2.55-.77-1.45-.66-2.46-1.41-3.04-2.25-.57-.84-.63-1.77-.16-2.79,.42-.93,1.14-1.48,2.14-1.64,1.01-.17,2.26,.09,3.75,.77Zm-2.08,4.55c1.12,.51,2.03,.77,2.72,.78s1.16-.27,1.42-.83c.49-1.07-.4-2.12-2.67-3.16-2.26-1.03-3.63-1.01-4.12,.06-.26,.57-.16,1.11,.29,1.62,.45,.51,1.24,1.02,2.37,1.54Z"/><path class="c" d="M567.93,444.72c.11-.27,.26-.5,.44-.72l1.31,.78c-.16,.16-.29,.36-.39,.62-.13,.32-.12,.66,.04,1.01,.16,.36,.45,.69,.85,1.02,.4,.33,.89,.61,1.47,.85l4.65,1.95-.56,1.35-8.91-3.74,.44-1.05,1.6,.46,.04-.08c-.44-.41-.75-.82-.93-1.24-.18-.42-.19-.82-.03-1.21Z"/><path class="c" d="M579.06,443.85c-.78,1.99-2.7,2.39-5.78,1.19-1.48-.58-2.54-1.28-3.18-2.1s-.77-1.75-.37-2.76c.14-.35,.29-.65,.48-.9,.18-.26,.39-.48,.61-.66l.96,.86c-.39,.34-.66,.7-.81,1.08-.45,1.15,.49,2.18,2.83,3.1,2.29,.89,3.66,.76,4.12-.4,.1-.25,.16-.51,.18-.79,.03-.28,.02-.57-.01-.88l1.14,.45c.07,.3,.08,.61,.04,.95-.04,.34-.11,.63-.21,.89Z"/><path class="c" d="M571.91,434.33c.22-.62,.58-1.07,1.08-1.35,.5-.28,1.09-.42,1.77-.4s1.39,.15,2.15,.42l.95,.34-1.54,4.33c2.21,.75,3.54,.46,4.01-.85,.12-.33,.18-.67,.2-1.03,.02-.36-.03-.74-.13-1.16l1.22,.43c.16,.77,.1,1.54-.18,2.32-.28,.78-.7,1.33-1.28,1.66-.57,.32-1.25,.47-2.04,.43-.78-.04-1.62-.21-2.5-.52-1.55-.55-2.64-1.21-3.28-2-.64-.78-.79-1.65-.45-2.61Zm1.12,.4c-.16,.46-.07,.91,.29,1.33,.36,.42,1,.82,1.92,1.2l1.07-3.02c-.5-.18-.97-.29-1.43-.33-.45-.05-.85,0-1.18,.12-.33,.13-.56,.37-.68,.7Z"/><path class="c" d="M579.76,420.35c2.08,.62,3.55,1.45,4.4,2.49,.85,1.05,1.06,2.28,.64,3.69l-.74,2.48-12.32-3.65,.77-2.59c.41-1.37,1.23-2.26,2.46-2.68,1.24-.42,2.83-.33,4.79,.25Zm-.38,1.54c-3.19-.94-5.05-.5-5.59,1.33l-.32,1.09,9.74,2.88,.29-.99c.29-.99,.09-1.83-.61-2.54-.7-.7-1.87-1.29-3.5-1.78Z"/><path class="c" d="M577.86,414.75c.16-.64,.48-1.12,.95-1.45s1.05-.51,1.72-.56c.67-.05,1.4,.02,2.18,.22l.98,.25-1.13,4.45c2.26,.54,3.57,.14,3.91-1.21,.09-.34,.12-.69,.11-1.04s-.09-.74-.24-1.15l1.26,.32c.23,.75,.24,1.53,.04,2.33-.2,.8-.58,1.39-1.12,1.77-.54,.38-1.2,.58-1.99,.62-.78,.04-1.63-.06-2.54-.29-1.59-.41-2.74-.97-3.45-1.69-.71-.72-.94-1.57-.68-2.56Zm1.15,.29c-.12,.48,.02,.91,.41,1.29,.4,.39,1.07,.73,2.03,1.02l.79-3.1c-.51-.13-1-.2-1.45-.2-.46,0-.84,.07-1.16,.23-.32,.16-.52,.41-.61,.76Z"/><path class="c" d="M588.87,411l-9.96,.28,.32-1.46,5.89-.02c.37,0,.74,0,1.12,.01,.38,0,.77,.03,1.16,.07l.02-.07c-.19-.07-.44-.17-.75-.29-.3-.13-.64-.28-1.01-.44l-5.67-2.7,.32-1.46,8.9,4.5-.35,1.58Z"/><path class="c" d="M580.92,400.9c.12-.65,.41-1.15,.86-1.5,.45-.35,1.01-.58,1.68-.67,.67-.09,1.4-.07,2.19,.08l.99,.19-.85,4.51c2.29,.4,3.57-.09,3.83-1.46,.06-.34,.08-.69,.04-1.04-.04-.36-.14-.73-.31-1.13l1.27,.24c.28,.74,.34,1.51,.18,2.33-.15,.81-.49,1.42-1,1.83-.52,.41-1.17,.66-1.95,.74-.78,.08-1.63,.04-2.55-.13-1.62-.3-2.8-.79-3.55-1.47-.75-.67-1.03-1.51-.85-2.51Zm1.17,.22c-.09,.48,.07,.91,.49,1.26,.42,.36,1.12,.66,2.08,.89l.59-3.15c-.52-.1-1.01-.13-1.46-.11s-.84,.12-1.15,.3c-.31,.18-.5,.45-.56,.8Z"/><path class="c" d="M591.72,396.16l-.23,1.44-13.5-2.19,.23-1.44,13.5,2.19Z"/><path class="c" d="M588.16,386.81c.99,.13,1.84,.37,2.56,.7,.72,.33,1.25,.76,1.61,1.3,.35,.53,.48,1.17,.38,1.92-.09,.7-.38,1.26-.86,1.68-.48,.42-1.11,.7-1.88,.84-.77,.14-1.66,.14-2.66,0-1.58-.21-2.77-.64-3.56-1.28-.79-.64-1.11-1.51-.96-2.62,.14-1.01,.66-1.74,1.58-2.19,.91-.45,2.19-.57,3.82-.35Zm-.67,4.96c1.22,.16,2.17,.15,2.83-.05s1.03-.6,1.12-1.2c.16-1.17-1-1.91-3.48-2.25-2.46-.33-3.77,.09-3.93,1.25-.08,.62,.17,1.11,.75,1.46s1.48,.62,2.71,.78Z"/><path class="c" d="M583.77,380.6c.09-.92,.57-1.58,1.45-1.98,.88-.4,2.15-.52,3.81-.36,1.59,.16,2.8,.51,3.62,1.07,.83,.56,1.2,1.28,1.11,2.16-.04,.47-.21,.88-.51,1.23-.29,.36-.68,.63-1.17,.81v.07c.25,0,.48,0,.7,.01,.22,0,.41,.02,.59,.04l4.3,.42-.14,1.45-13.92-1.35,.11-1.18,1.33-.05v-.09c-.49-.31-.84-.66-1.04-1.03-.2-.38-.28-.78-.24-1.21Zm1.22,.44c-.06,.6,.18,1.07,.7,1.42,.53,.35,1.38,.58,2.56,.69l.36,.03c1.27,.12,2.21,.07,2.82-.17,.61-.23,.95-.66,1.01-1.27,.05-.55-.21-.99-.79-1.32-.58-.33-1.5-.56-2.76-.68-1.24-.12-2.19-.08-2.84,.11-.65,.2-1.01,.59-1.07,1.19Z"/><path class="c" d="M584.61,368.1c.08-1.51,1.23-2.21,3.48-2.1l6.47,.32-.07,1.46-6.2-.31c-.84-.04-1.44,.03-1.81,.22-.37,.19-.56,.48-.58,.89-.03,.57,.22,1,.76,1.26,.53,.27,1.33,.43,2.38,.48l5.32,.27-.07,1.44-6.26-.31c-.83-.04-1.42,.03-1.78,.22-.36,.19-.55,.48-.57,.89-.02,.43,.11,.77,.39,1.01,.28,.24,.69,.42,1.21,.53,.52,.11,1.13,.18,1.81,.22l5.05,.25-.07,1.46-9.65-.48,.06-1.17,1.32-.09v-.09c-.97-.43-1.43-1.15-1.38-2.14,.03-.55,.2-.98,.51-1.29,.31-.31,.69-.51,1.14-.59v-.11c-.51-.25-.89-.56-1.12-.9-.24-.35-.34-.79-.31-1.31Z"/><path class="c" d="M584.77,360.74c0-.66,.19-1.2,.57-1.63,.38-.43,.89-.75,1.54-.96,.64-.21,1.37-.32,2.17-.31h1.01l-.02,4.59c2.33-.03,3.5-.73,3.5-2.13,0-.35-.05-.69-.15-1.03-.1-.34-.27-.7-.51-1.06h1.3c.4,.68,.61,1.43,.6,2.26,0,.83-.22,1.49-.66,1.99-.43,.5-1.03,.86-1.78,1.08-.75,.23-1.59,.33-2.53,.33-1.64,0-2.9-.27-3.76-.8-.86-.53-1.29-1.3-1.29-2.32Zm1.19,0c0,.49,.24,.88,.71,1.15,.48,.28,1.22,.44,2.21,.5v-3.2c-.51,0-1,.05-1.44,.15-.44,.11-.8,.28-1.07,.51-.27,.23-.41,.53-.41,.89Z"/><path class="c" d="M584.63,352.28c-.05-1.57,1.03-2.39,3.22-2.46l6.55-.2,.04,1.46-6.26,.19c-.76,.02-1.32,.14-1.7,.34-.38,.2-.56,.52-.55,.95,.02,.62,.31,1.07,.88,1.32,.57,.26,1.47,.37,2.7,.33l5.02-.15,.04,1.46-9.66,.29-.04-1.17,1.31-.2v-.09c-.49-.19-.87-.47-1.14-.84-.27-.37-.41-.78-.42-1.24Z"/><path class="c" d="M593,344.62c0-.14-.04-.29-.08-.43-.04-.14-.1-.28-.15-.42l1.19-.07c.11,.19,.19,.39,.25,.61,.06,.22,.1,.46,.12,.72,.04,.64-.15,1.12-.55,1.44-.41,.32-1.04,.51-1.9,.57l-6.04,.36,.05,.9-.79,.05-.45-.95-2.23-.26-.06-.99,2.17-.13-.1-1.62,1.22-.07,.1,1.62,5.86-.35c.49-.03,.85-.11,1.08-.25s.34-.38,.32-.72Z"/></g></g></svg>