<?xml version="1.0" encoding="UTF-8"?><svg id="a" xmlns="http://www.w3.org/2000/svg" viewBox="0 0 720 720"><defs><style>.b{fill:#fff;}.c{fill:#314075;}</style></defs><g><path class="c" d="M159.09,380.24c-2.64-1.7-4.46-4.6-4.66-7.97-2.81-46.55,9.81-91.43,36.48-129.81,21.01-30.23,49.71-54.29,82.99-69.57,32.3-14.83,68.09-21.1,103.5-18.13,5.62,.47,9.8,5.41,9.33,11.04-.47,5.62-5.41,9.8-11.04,9.33-65.92-5.53-130.29,24.74-168,79-24.02,34.56-35.39,74.99-32.86,116.91,.34,5.63-3.95,10.48-9.59,10.82-2.26,.14-4.39-.47-6.15-1.61Z"/><path class="c" d="M212.38,503.25c-.67-.43-1.3-.95-1.87-1.55-26.88-28.3-45.07-63.62-52.61-102.12-1.08-5.54,2.53-10.91,8.07-11.99,5.54-1.08,10.91,2.53,11.99,8.07,6.79,34.69,23.17,66.49,47.37,91.97,3.89,4.09,3.72,10.56-.37,14.45-3.49,3.31-8.71,3.68-12.58,1.18Z"/><path class="c" d="M248.3,533.02c-.56-.36-1.11-.72-1.67-1.09-5.16-3.4-10.22-7.07-15.05-10.91-4.42-3.51-5.15-9.94-1.63-14.36,3.52-4.42,9.94-5.13,14.36-1.63,4.35,3.46,8.92,6.77,13.57,9.84,.5,.33,1,.66,1.5,.98,31.43,20.3,67.69,30.54,104.99,29.62,5.64-.14,10.33,4.33,10.47,9.97,.14,5.64-4.32,10.33-9.97,10.47-41.42,1.01-81.69-10.35-116.57-32.88Z"/><path class="c" d="M386.24,561.71c-2.34-1.51-4.05-3.96-4.54-6.92-.92-5.57,2.85-10.83,8.42-11.75,9.94-1.64,19.83-4.11,29.38-7.34,5.35-1.81,11.15,1.07,12.95,6.41,1.81,5.35-1.06,11.15-6.41,12.95-10.59,3.58-21.56,6.32-32.59,8.14-2.61,.43-5.15-.17-7.21-1.5Z"/><path class="c" d="M440.8,544.25c-1.51-.97-2.78-2.35-3.62-4.08-2.48-5.07-.39-11.19,4.68-13.68,32.4-15.89,59.29-40.78,77.76-71.98,10.15-17.14,17.44-35.61,21.65-54.88,1.21-5.51,6.65-9.01,12.17-7.8,5.51,1.21,9.01,6.65,7.8,12.17-4.68,21.41-12.77,41.9-24.03,60.93-20.51,34.63-50.37,62.27-86.35,79.91-3.34,1.64-7.14,1.29-10.05-.59Z"/><path class="c" d="M549.63,383.8c-3.05-1.97-4.95-5.5-4.65-9.38,1.91-24.76-1.1-49.3-8.96-72.95-1.78-5.36,1.12-11.14,6.48-12.92,5.36-1.78,11.14,1.12,12.92,6.48,8.71,26.24,12.06,53.48,9.94,80.96-.43,5.63-5.35,9.84-10.98,9.4-1.76-.14-3.37-.71-4.75-1.6Z"/><path class="c" d="M530.31,282.65c-1.51-.98-2.79-2.37-3.63-4.1-15.75-32.32-40.45-59.21-71.46-77.74-17.07-10.21-35.46-17.57-54.68-21.87-5.51-1.23-8.97-6.7-7.74-12.21,1.23-5.51,6.7-8.97,12.21-7.74,21.34,4.78,41.76,12.95,60.7,24.28,34.41,20.58,61.85,50.44,79.35,86.33,2.47,5.07,.37,11.19-4.71,13.66-3.34,1.63-7.13,1.27-10.03-.61Z"/></g><g><g><path class="b" d="M551.62,303.55c-.14-.46-.43-.79-.86-.97-.43-.18-.95-.26-1.56-.22-.61,.04-1.24,.15-1.89,.35-1.15,.35-2,.81-2.54,1.37-.54,.57-.72,1.16-.53,1.77,.08,.25,.18,.48,.31,.69,.13,.21,.28,.39,.44,.57l-.96,.29c-.35-.34-.62-.79-.79-1.38-.19-.62-.16-1.21,.07-1.77,.24-.56,.66-1.07,1.28-1.52,.62-.46,1.42-.83,2.4-1.13,.86-.26,1.68-.39,2.45-.38,.77,0,1.43,.17,1.98,.49,.55,.32,.94,.82,1.14,1.51,.18,.6,.2,1.21,.05,1.82l-1.02-.11c.06-.22,.1-.45,.11-.68,0-.23-.02-.47-.1-.71Z"/><path class="b" d="M551.86,309.33c.06,.2,.08,.41,.07,.61l-1.12,.14c.02-.16,0-.34-.05-.54-.07-.25-.23-.44-.49-.57s-.58-.2-.96-.2c-.38,0-.79,.05-1.24,.17l-3.58,.98-.28-1.03,6.86-1.89,.22,.8-1.14,.46,.02,.06c.44,.04,.81,.13,1.1,.29,.3,.16,.49,.39,.57,.69Z"/><path class="b" d="M552.46,312.18l-6.9,1.75-.26-1.04,6.9-1.75,.26,1.04Zm2.47-1.16c.1,.39-.1,.65-.59,.78-.49,.12-.78-.01-.88-.41-.05-.2-.02-.37,.08-.5,.1-.14,.27-.24,.5-.3,.5-.13,.8,.02,.9,.43Z"/><path class="b" d="M548.6,318.38c-.64,.15-1.17,.09-1.59-.17-.43-.26-.71-.7-.86-1.32-.08-.32-.11-.62-.1-.9,.01-.28,.05-.54,.11-.76l1.08-.25c-.11,.23-.18,.49-.22,.79-.03,.3-.02,.59,.05,.87,.07,.3,.21,.52,.43,.65,.22,.13,.48,.16,.8,.08,.27-.06,.47-.2,.63-.4,.15-.2,.29-.52,.43-.96,.16-.49,.37-.91,.61-1.25,.24-.34,.63-.57,1.16-.7,.55-.13,1.03-.05,1.45,.22,.42,.28,.69,.71,.83,1.28s.11,1.14-.08,1.69l-.93-.19c.08-.21,.13-.42,.16-.64,.03-.21,.01-.43-.04-.64-.07-.29-.2-.5-.41-.63-.2-.13-.44-.16-.72-.1-.27,.06-.48,.2-.61,.4-.13,.2-.28,.54-.43,1-.17,.49-.37,.91-.61,1.24-.24,.33-.63,.56-1.16,.69Z"/><path class="b" d="M554.21,319.73l-6.96,1.49-.23-1.05,6.96-1.49,.22,1.05Zm2.51-1.07c.08,.4-.12,.65-.62,.76-.49,.11-.78-.04-.87-.44-.04-.2-.01-.37,.1-.5,.11-.14,.28-.23,.51-.28,.5-.11,.79,.05,.88,.46Z"/><path class="b" d="M550.11,325.76c-.64,.12-1.17,.05-1.58-.23-.41-.28-.68-.73-.8-1.36-.06-.32-.08-.62-.06-.91,.02-.28,.07-.54,.14-.76l1.09-.21c-.12,.22-.2,.48-.25,.78-.05,.3-.04,.59,.01,.88,.06,.3,.19,.52,.41,.66,.21,.14,.48,.18,.8,.11,.27-.05,.48-.18,.64-.37,.16-.2,.31-.51,.46-.95,.18-.49,.4-.89,.66-1.22,.26-.33,.65-.55,1.19-.65,.55-.11,1.03-.01,1.44,.28,.4,.29,.66,.73,.78,1.31,.11,.58,.06,1.14-.14,1.69l-.92-.23c.09-.21,.15-.42,.18-.63s.03-.43-.01-.64c-.06-.3-.18-.51-.38-.65-.2-.14-.43-.18-.71-.12s-.49,.18-.63,.38c-.14,.2-.3,.53-.47,.98-.18,.49-.4,.89-.66,1.21-.25,.32-.65,.54-1.18,.64Z"/><path class="b" d="M558.53,330.3c.15,.96,.04,1.7-.33,2.22-.37,.52-.99,.85-1.87,.98-.62,.1-1.16,.06-1.61-.1-.45-.16-.83-.47-1.14-.95l-3.9,2.53-.19-1.22,3.66-2.26-.14-.93-3.92,.6-.17-1.1,9.35-1.42,.25,1.65Zm-.99,.16l-.09-.56-3.52,.54,.1,.68c.08,.5,.29,.86,.63,1.08,.35,.22,.82,.28,1.44,.19,.59-.09,1-.29,1.23-.6,.23-.31,.29-.75,.21-1.32Z"/><path class="b" d="M557.23,337.19c.06,.48-.03,.9-.27,1.25-.24,.35-.58,.63-1.03,.84-.45,.22-.97,.36-1.56,.43l-.74,.09-.4-3.35c-1.7,.23-2.49,.86-2.36,1.87,.03,.25,.1,.5,.2,.74,.11,.24,.26,.48,.47,.72l-.95,.11c-.36-.45-.57-.98-.65-1.59-.07-.61,.03-1.11,.3-1.51,.27-.4,.67-.72,1.2-.95,.53-.23,1.13-.39,1.82-.47,1.2-.15,2.14-.07,2.82,.24,.68,.3,1.06,.83,1.15,1.58Zm-.87,.11c-.04-.36-.25-.62-.63-.78-.38-.16-.93-.21-1.66-.16l.28,2.34c.39-.05,.74-.13,1.05-.25,.32-.12,.56-.27,.74-.47,.18-.2,.25-.42,.22-.69Z"/><path class="b" d="M552.65,344.66c-.65,.06-1.17-.07-1.55-.39-.38-.32-.61-.79-.67-1.43-.03-.33-.02-.63,.03-.91,.05-.28,.12-.53,.22-.74l1.11-.1c-.14,.21-.25,.46-.32,.75-.08,.29-.1,.58-.07,.87,.03,.31,.14,.54,.34,.7,.2,.16,.46,.22,.78,.19,.27-.03,.5-.13,.68-.31s.36-.48,.55-.9c.23-.46,.49-.85,.78-1.15,.29-.3,.7-.48,1.25-.53,.56-.05,1.03,.09,1.4,.42s.59,.79,.64,1.38c.05,.59-.05,1.14-.31,1.67l-.89-.31c.11-.2,.19-.4,.24-.61,.05-.21,.07-.42,.05-.64-.03-.3-.13-.53-.32-.68-.18-.16-.42-.22-.7-.19-.28,.03-.5,.13-.66,.32s-.35,.49-.56,.93c-.23,.47-.49,.85-.77,1.14-.28,.3-.7,.47-1.24,.52Z"/><path class="b" d="M558.27,348.34c.04,.68-.23,1.22-.82,1.61-.59,.4-1.5,.64-2.72,.72-1.17,.08-2.09-.04-2.76-.34s-1.02-.78-1.06-1.44c-.02-.34,.05-.66,.22-.96,.17-.29,.42-.54,.76-.73v-.05c-.19,.03-.36,.05-.52,.07-.16,.02-.3,.03-.44,.04l-3.17,.21-.07-1.07,10.27-.68,.06,.87-.96,.2v.07c.4,.17,.7,.38,.89,.62,.19,.25,.29,.53,.31,.85Zm-.94-.18c-.03-.44-.26-.76-.68-.94-.42-.19-1.07-.25-1.95-.2l-.26,.02c-.93,.06-1.61,.21-2.03,.46-.42,.25-.61,.59-.58,1.04,.03,.41,.27,.69,.73,.87s1.16,.23,2.09,.17c.92-.06,1.6-.2,2.05-.42,.45-.22,.66-.55,.63-.99Z"/><path class="b" d="M554.96,356.74c-.73,.02-1.38-.04-1.94-.19s-1-.4-1.33-.74c-.32-.34-.49-.79-.51-1.35-.02-.52,.12-.96,.42-1.33,.3-.36,.72-.64,1.26-.84,.54-.19,1.19-.3,1.93-.33,1.17-.04,2.09,.12,2.74,.49,.65,.37,.99,.96,1.02,1.78,.03,.75-.27,1.35-.87,1.79-.61,.44-1.52,.68-2.73,.72Zm-.13-3.68c-.91,.03-1.59,.16-2.05,.38-.46,.22-.68,.56-.66,1.01,.03,.87,.96,1.27,2.8,1.2,1.83-.06,2.73-.53,2.7-1.39-.01-.46-.26-.78-.72-.97s-1.15-.27-2.06-.23Z"/><path class="b" d="M558.67,360.92c0,1.16-.8,1.74-2.42,1.74h-4.82v-1.06h4.61c.56-.01,.98-.09,1.26-.23,.28-.14,.42-.37,.42-.69,0-.46-.21-.79-.62-.99s-1.07-.3-1.98-.3h-3.7v-1.06l7.11-.02v.86l-.96,.12v.07c.35,.15,.62,.36,.82,.64s.29,.58,.29,.92Z"/><path class="b" d="M553.22,367.71c-.65-.02-1.15-.21-1.5-.57-.34-.36-.51-.86-.49-1.5,0-.33,.05-.63,.13-.9s.18-.51,.3-.71l1.11,.03c-.16,.19-.3,.42-.41,.71-.11,.28-.17,.57-.17,.86,0,.31,.08,.55,.25,.74,.18,.18,.43,.28,.76,.28,.27,0,.51-.07,.71-.23,.2-.16,.42-.43,.66-.82,.29-.44,.59-.79,.91-1.05,.32-.27,.75-.39,1.3-.38,.56,.01,1.01,.21,1.34,.58s.49,.86,.47,1.45c-.02,.59-.18,1.13-.51,1.62l-.85-.42c.13-.18,.23-.37,.31-.58s.12-.41,.13-.63c0-.3-.07-.54-.23-.71-.16-.18-.39-.27-.67-.28-.28,0-.51,.07-.7,.23s-.41,.45-.67,.86c-.29,.43-.59,.78-.9,1.04-.32,.26-.75,.39-1.3,.37Z"/><path class="b" d="M558.39,371.36c-.03,.49-.19,.88-.48,1.18-.29,.3-.68,.52-1.16,.66-.48,.13-1.01,.19-1.61,.16l-.74-.04,.17-3.37c-1.71-.06-2.6,.42-2.65,1.44-.01,.26,.01,.51,.07,.77,.06,.25,.17,.52,.34,.79l-.95-.05c-.27-.51-.39-1.07-.36-1.68,.03-.61,.21-1.09,.55-1.44,.34-.35,.79-.59,1.35-.73,.56-.14,1.18-.19,1.87-.16,1.21,.06,2.12,.3,2.74,.72,.62,.42,.9,1,.87,1.75Zm-.87-.04c.02-.36-.14-.65-.49-.87-.34-.22-.88-.37-1.61-.44l-.12,2.35c.39,.02,.75,0,1.08-.06,.33-.06,.6-.17,.81-.34,.21-.16,.32-.38,.33-.64Z"/></g><g><path class="b" d="M168.34,366.93l.05,1.11-4.43,.2,.13,2.91,4.43-.2,.05,1.11-9.45,.43-.05-1.11,4.01-.18-.13-2.91-4.01,.18-.05-1.11,9.45-.43Z"/><path class="b" d="M161.04,363.15c0-.49,.13-.89,.4-1.21,.27-.32,.65-.56,1.12-.73,.47-.16,1-.25,1.59-.26h.74l.04,3.37c1.71-.05,2.56-.59,2.55-1.61,0-.26-.04-.51-.12-.76-.08-.25-.21-.51-.39-.77h.95c.31,.48,.46,1.03,.47,1.64,0,.61-.14,1.1-.46,1.47-.31,.37-.74,.64-1.29,.82-.55,.18-1.17,.27-1.86,.28-1.21,.01-2.14-.17-2.78-.54-.64-.38-.97-.94-.98-1.69Zm.87-.01c0,.36,.19,.64,.54,.84,.36,.2,.9,.31,1.63,.34l-.03-2.36c-.39,0-.75,.05-1.07,.13-.33,.08-.59,.21-.78,.39-.2,.17-.29,.4-.29,.66Z"/><path class="b" d="M161.04,357.37c.01-.67,.23-1.14,.67-1.42,.43-.28,1.04-.41,1.82-.39l4.8,.08v.82l-1,.14v.03c.73,.38,1.1,.93,1.08,1.65,0,.37-.11,.67-.31,.9-.2,.23-.47,.4-.79,.5-.32,.11-.67,.15-1.04,.15-.71-.01-1.25-.22-1.63-.64-.38-.41-.58-.99-.61-1.75l-.03-.81h-.46c-.55-.02-.95,.05-1.21,.2-.26,.15-.39,.39-.4,.72,0,.39,.13,.84,.42,1.35l-.81,.33c-.33-.56-.5-1.18-.49-1.86Zm3.74-.73l.03,.64c.04,.95,.52,1.44,1.45,1.45,.44,0,.77-.06,.97-.21,.21-.15,.31-.36,.31-.63,0-.37-.17-.67-.53-.89-.36-.22-.86-.34-1.52-.35h-.72Z"/><path class="b" d="M168.42,352.79l-.04,1.07-10.06-.38,.04-1.07,10.06,.38Z"/><path class="b" d="M167.78,349.18c0-.11,0-.21-.02-.32s-.05-.21-.08-.32l.87,.05c.06,.15,.11,.3,.13,.47,.03,.16,.03,.34,.02,.54-.03,.47-.2,.8-.53,1.01-.33,.2-.81,.29-1.44,.25l-4.45-.25-.04,.66-.58-.03-.25-.73-1.61-.38,.04-.73,1.6,.09,.07-1.19,.9,.05-.07,1.19,4.31,.24c.36,.02,.63,0,.81-.09,.18-.08,.28-.25,.29-.5Z"/><path class="b" d="M158.75,345.61l2.84,.23c.39,.03,.74,.09,1.05,.16v-.08c-.33-.16-.58-.39-.74-.68-.17-.29-.24-.6-.21-.93,.05-.61,.29-1.03,.73-1.28,.44-.24,1.05-.33,1.83-.27l4.81,.39-.09,1.07-4.6-.37c-.6-.05-1.03-.01-1.3,.1-.27,.12-.41,.34-.44,.66-.04,.46,.14,.81,.54,1.04,.4,.24,1.04,.39,1.93,.46l3.69,.29-.09,1.07-10.04-.81,.09-1.07Z"/><path class="b" d="M160.33,335.84c.12-.93,.43-1.59,.94-1.97,.51-.38,1.23-.52,2.17-.4,.95,.12,1.66,.44,2.11,.96,.45,.52,.62,1.24,.5,2.16l-.08,.6,3.66,.46-.14,1.1-9.39-1.18,.22-1.74Zm.97,.16l-.07,.59,3.79,.48,.06-.5c.08-.61-.02-1.07-.29-1.38-.27-.31-.76-.5-1.46-.59-.65-.08-1.13,0-1.44,.22s-.5,.62-.58,1.18Z"/><path class="b" d="M163.47,329.45c.03-.21,.09-.41,.18-.59l1.08,.33c-.08,.14-.14,.31-.17,.51-.04,.25,.03,.49,.21,.71,.18,.22,.44,.42,.79,.58,.35,.16,.75,.28,1.2,.34l3.67,.56-.16,1.06-7.04-1.07,.13-.83,1.23,.04v-.07c-.38-.21-.67-.45-.88-.72-.2-.27-.28-.55-.24-.86Z"/><path class="b" d="M168.15,324.02c.72,.13,1.34,.33,1.86,.59s.9,.6,1.14,1c.24,.4,.31,.88,.22,1.43-.09,.51-.32,.92-.69,1.21-.37,.29-.84,.48-1.41,.56-.57,.08-1.23,.05-1.96-.08-1.16-.21-2.02-.56-2.58-1.05-.56-.5-.77-1.15-.63-1.96,.13-.74,.54-1.26,1.23-1.56,.69-.3,1.63-.35,2.82-.14Zm-.65,3.63c.9,.16,1.59,.18,2.08,.06s.78-.41,.86-.85c.15-.85-.68-1.44-2.48-1.76-1.8-.32-2.78-.06-2.93,.8-.08,.45,.09,.82,.5,1.1s1.07,.5,1.97,.66Z"/><path class="b" d="M166.06,316.12c.24-1.09,1.16-1.45,2.78-1.1l4.66,1.02-.23,1.05-4.47-.98c-.6-.13-1.05-.15-1.34-.06-.29,.09-.47,.28-.53,.58-.09,.41,.04,.75,.4,1.01,.35,.26,.91,.47,1.67,.64l3.83,.84-.23,1.04-4.5-.99c-.6-.13-1.03-.15-1.32-.06-.28,.09-.46,.28-.52,.58-.07,.31-.01,.57,.16,.78,.18,.21,.45,.39,.81,.53s.79,.27,1.29,.38l3.64,.8-.23,1.05-6.95-1.53,.19-.84,.97,.09v-.06c-.64-.43-.89-1.01-.73-1.72,.09-.4,.26-.69,.52-.88,.26-.19,.56-.28,.9-.29l.02-.08c-.34-.25-.58-.51-.71-.79-.13-.28-.15-.61-.07-.99Z"/><path class="b" d="M171.62,309.11c.71,.19,1.31,.43,1.81,.74,.5,.31,.85,.67,1.06,1.09,.21,.42,.24,.9,.1,1.44-.13,.5-.39,.89-.78,1.15-.39,.26-.87,.41-1.45,.44-.58,.03-1.23-.05-1.94-.24-1.14-.3-1.97-.71-2.49-1.25s-.68-1.21-.47-2c.19-.73,.64-1.21,1.35-1.46,.71-.25,1.65-.22,2.82,.09Zm-.93,3.56c.88,.23,1.57,.3,2.07,.22,.5-.08,.81-.34,.92-.78,.22-.84-.56-1.49-2.34-1.95-1.77-.46-2.76-.28-2.98,.56-.12,.45,.02,.82,.42,1.14,.39,.31,1.03,.58,1.91,.81Z"/><path class="b" d="M175.17,306.68c.03-.1,.05-.21,.05-.32,0-.11,0-.22,0-.33l.84,.24c.03,.16,.04,.32,.03,.48-.01,.17-.04,.34-.1,.53-.13,.45-.38,.74-.74,.86-.36,.12-.85,.1-1.46-.08l-4.28-1.23-.18,.64-.56-.16-.08-.77-1.48-.73,.2-.7,1.54,.44,.33-1.14,.87,.25-.33,1.15,4.15,1.2c.35,.1,.62,.13,.81,.1,.19-.04,.33-.18,.4-.42Z"/><path class="b" d="M167.27,301.81c.12-.39,.42-.51,.91-.36,.48,.15,.66,.42,.54,.8-.06,.19-.17,.32-.33,.39-.16,.07-.35,.07-.58,0-.49-.15-.67-.43-.55-.83Zm2.71,.29l6.8,2.09-.31,1.03-6.8-2.09,.31-1.03Z"/><path class="b" d="M175.35,297.06c.7,.23,1.28,.52,1.75,.86,.47,.34,.8,.72,.98,1.16,.18,.43,.19,.91,0,1.44-.16,.5-.45,.86-.85,1.1-.4,.24-.9,.35-1.48,.35s-1.22-.13-1.93-.36c-1.11-.37-1.92-.84-2.4-1.41-.49-.57-.6-1.25-.34-2.03,.24-.71,.72-1.17,1.44-1.37,.72-.2,1.66-.11,2.81,.27Zm-1.16,3.5c.86,.29,1.55,.4,2.05,.35,.51-.05,.83-.29,.97-.72,.27-.82-.46-1.52-2.21-2.1-1.73-.58-2.74-.45-3.01,.37-.15,.44-.03,.82,.34,1.16,.37,.34,.99,.65,1.85,.94Z"/><path class="b" d="M173.32,291.86c.4-1.09,1.36-1.35,2.88-.79l4.53,1.67-.37,1.01-4.33-1.59c-.52-.19-.94-.27-1.25-.24-.31,.04-.53,.2-.64,.5-.16,.43-.08,.81,.24,1.14,.31,.33,.9,.66,1.75,.97l3.47,1.28-.37,1.01-6.68-2.46,.3-.81,.95,.22,.02-.06c-.28-.26-.46-.56-.54-.88-.08-.33-.06-.65,.05-.96Z"/><path class="b" d="M180.47,289.25l.17-.03c.47,.33,.92,.66,1.34,1.01,.42,.34,.82,.7,1.19,1.07l-.3,.76c-.45-.33-.92-.65-1.42-.96-.5-.31-.96-.58-1.39-.79l.42-1.06Z"/><path class="b" d="M175.58,280.36c.38-.86,.87-1.4,1.46-1.62,.6-.22,1.33-.15,2.2,.23,.88,.39,1.47,.89,1.75,1.52,.28,.63,.24,1.36-.13,2.21l-.25,.56,3.37,1.48-.45,1.02-8.66-3.8,.7-1.6Zm.88,.43l-.24,.55,3.49,1.54,.2-.46c.25-.57,.29-1.04,.11-1.41-.18-.37-.59-.7-1.23-.98-.6-.26-1.08-.33-1.45-.2-.37,.13-.66,.45-.89,.97Z"/><path class="b" d="M180.4,275.14c.09-.19,.21-.36,.34-.51l.94,.62c-.12,.11-.22,.26-.31,.44-.11,.23-.11,.48,0,.75,.11,.27,.31,.53,.59,.78s.64,.48,1.05,.67l3.36,1.58-.46,.97-6.44-3.03,.36-.76,1.16,.39,.03-.06c-.31-.31-.53-.63-.65-.94-.12-.31-.11-.61,.02-.89Z"/><path class="b" d="M182.03,271.85c.22-.43,.52-.73,.91-.89,.39-.16,.83-.21,1.33-.13,.49,.07,1.01,.24,1.53,.5l.66,.33-1.51,3.02c1.54,.74,2.54,.66,3-.26,.11-.23,.2-.47,.24-.73,.05-.26,.05-.55,.01-.86l.85,.43c.05,.58-.07,1.14-.34,1.68-.27,.55-.63,.91-1.08,1.1-.45,.19-.96,.23-1.53,.13-.57-.1-1.16-.3-1.78-.61-1.08-.54-1.82-1.13-2.22-1.76-.4-.63-.43-1.28-.09-1.95Zm.78,.39c-.16,.32-.13,.66,.09,1,.22,.34,.66,.69,1.3,1.05l1.06-2.11c-.35-.17-.68-.3-1.01-.37-.33-.08-.62-.08-.87-.02-.26,.06-.44,.22-.56,.45Z"/><path class="b" d="M190.54,271.14l-7.12-1.78,.52-.97,4.18,1.15c.26,.07,.53,.15,.79,.23,.27,.08,.54,.18,.81,.28l.03-.05c-.12-.09-.28-.21-.47-.36-.19-.15-.4-.32-.63-.52l-3.48-3.04,.52-.97,5.42,4.96-.56,1.05Z"/><path class="b" d="M187.15,262.32c.24-.42,.56-.7,.96-.84,.4-.14,.84-.16,1.33-.06,.49,.1,.99,.29,1.5,.59l.64,.37-1.68,2.93c1.5,.83,2.51,.8,3.01-.09,.13-.22,.22-.46,.28-.72s.08-.54,.06-.86l.83,.47c.02,.58-.13,1.13-.43,1.66-.3,.53-.68,.87-1.14,1.03-.46,.16-.97,.18-1.53,.05-.56-.13-1.14-.36-1.74-.71-1.05-.6-1.76-1.22-2.12-1.88-.36-.65-.36-1.3,.02-1.95Zm.76,.43c-.18,.32-.17,.65,.04,1,.21,.35,.62,.72,1.24,1.12l1.17-2.05c-.34-.19-.67-.33-.99-.43-.32-.09-.61-.11-.87-.06-.26,.05-.45,.19-.58,.42Z"/><path class="b" d="M190.43,256.77c.6-.99,1.6-1.06,2.97-.21l4.11,2.52-.56,.92-3.93-2.41c-.47-.29-.87-.45-1.18-.48-.32-.03-.56,.09-.72,.37-.24,.39-.24,.78,0,1.17,.24,.39,.75,.82,1.53,1.29l3.15,1.93-.56,.92-6.07-3.71,.45-.73,.89,.4,.03-.06c-.22-.31-.34-.64-.36-.97-.02-.34,.06-.65,.24-.93Z"/><path class="b" d="M198.74,255.66c.06-.09,.1-.19,.14-.29,.04-.1,.07-.21,.1-.32l.73,.48c-.02,.16-.06,.31-.12,.47-.06,.16-.14,.32-.25,.48-.25,.39-.57,.6-.96,.61s-.84-.15-1.38-.5l-3.74-2.42-.36,.56-.49-.32,.14-.76-1.21-1.13,.4-.61,1.35,.87,.65-1,.76,.49-.65,1,3.63,2.35c.3,.2,.55,.31,.75,.33,.2,.02,.36-.08,.5-.29Z"/><path class="b" d="M192.58,248.71c.23-.34,.55-.36,.98-.08,.42,.28,.51,.59,.29,.93-.11,.17-.26,.26-.43,.28-.17,.02-.36-.04-.55-.17-.42-.29-.52-.6-.28-.96Zm2.51,1.06l5.91,3.96-.6,.89-5.91-3.96,.6-.89Z"/><path class="b" d="M201.67,246.53c.6,.42,1.08,.86,1.43,1.32s.56,.93,.61,1.39c.05,.47-.09,.93-.41,1.38-.3,.43-.68,.7-1.13,.81-.46,.11-.96,.08-1.51-.09-.55-.17-1.13-.47-1.74-.9-.96-.68-1.59-1.36-1.89-2.04-.3-.69-.21-1.37,.26-2.04,.43-.61,1.02-.91,1.77-.9,.75,.02,1.62,.37,2.61,1.07Zm-2.12,3.01c.74,.52,1.37,.83,1.86,.93,.5,.1,.88-.04,1.14-.41,.5-.71,0-1.59-1.51-2.65-1.49-1.05-2.49-1.22-2.99-.52-.26,.38-.27,.78,0,1.21,.26,.43,.76,.91,1.5,1.43Z"/><path class="b" d="M201.24,240.94c.7-.93,1.69-.9,2.98,.07l3.86,2.9-.64,.86-3.69-2.77c-.45-.33-.82-.53-1.13-.59-.31-.06-.56,.04-.75,.3-.28,.37-.31,.75-.1,1.16,.21,.41,.67,.89,1.4,1.43l2.96,2.22-.64,.86-5.69-4.27,.52-.69,.85,.48,.04-.05c-.19-.33-.28-.67-.27-1,.02-.34,.12-.64,.33-.91Z"/><path class="b" d="M208.83,240.5l.17,.02c.35,.45,.69,.9,.99,1.35,.31,.45,.58,.91,.83,1.37l-.51,.64c-.34-.44-.7-.89-1.09-1.33s-.76-.83-1.1-1.16l.71-.89Z"/><path class="b" d="M208.11,230.25c-.31,.37-.43,.78-.35,1.25,.08,.46,.3,.94,.66,1.43,.36,.49,.8,.96,1.32,1.4,.92,.78,1.76,1.24,2.53,1.39,.77,.15,1.37-.02,1.78-.51,.17-.2,.31-.41,.41-.63,.1-.22,.18-.45,.24-.68l.77,.65c-.09,.48-.34,.95-.73,1.41-.42,.49-.93,.79-1.53,.89-.6,.11-1.26,.02-1.98-.25-.72-.27-1.47-.74-2.25-1.41-.69-.58-1.23-1.2-1.64-1.85s-.63-1.29-.66-1.93c-.03-.64,.19-1.23,.65-1.78,.41-.48,.91-.82,1.51-1.03l.46,.91c-.22,.07-.43,.16-.63,.28-.2,.12-.38,.27-.54,.46Z"/><path class="b" d="M216.96,227.87c.54,.49,.96,.99,1.26,1.49,.3,.5,.44,.99,.43,1.46s-.2,.91-.57,1.32c-.35,.39-.76,.61-1.22,.66-.47,.05-.96-.04-1.49-.28-.53-.24-1.07-.61-1.62-1.11-.87-.79-1.41-1.54-1.63-2.26-.21-.72-.05-1.38,.51-1.99,.5-.56,1.13-.78,1.87-.67,.74,.11,1.56,.57,2.46,1.38Zm-2.47,2.73c.67,.61,1.25,1,1.74,1.15s.88,.07,1.18-.26c.58-.64,.19-1.58-1.17-2.81-1.36-1.23-2.32-1.52-2.9-.88-.31,.34-.36,.74-.16,1.2,.2,.46,.64,.99,1.32,1.6Z"/><path class="b" d="M219.38,220.06c.78-.79,1.76-.61,2.94,.54l3.41,3.34-.75,.77-3.27-3.2c-.44-.43-.81-.69-1.1-.77-.29-.08-.55,0-.76,.21-.3,.3-.36,.66-.2,1.07,.16,.41,.52,.88,1.08,1.43l2.8,2.75-.74,.76-3.29-3.23c-.44-.43-.8-.68-1.09-.75-.29-.07-.54,0-.75,.21-.22,.23-.32,.48-.28,.75,.04,.27,.17,.57,.41,.88s.53,.65,.89,1l2.66,2.61-.75,.77-5.08-4.98,.6-.62,.77,.59,.05-.05c-.33-.71-.23-1.33,.28-1.86,.28-.29,.59-.45,.91-.46,.32-.02,.63,.06,.92,.23l.06-.06c-.16-.39-.22-.74-.18-1.05,.04-.31,.2-.6,.47-.88Z"/><path class="b" d="M226.19,213.56c.82-.76,1.79-.53,2.91,.68l3.25,3.5-.79,.73-3.11-3.35c-.42-.45-.78-.73-1.07-.82-.29-.09-.55-.04-.77,.17-.31,.29-.39,.64-.25,1.06,.14,.42,.48,.91,1.01,1.48l2.67,2.87-.78,.72-3.14-3.38c-.41-.45-.76-.71-1.05-.8-.28-.09-.54-.03-.76,.18-.23,.21-.34,.46-.31,.73,.02,.27,.15,.57,.37,.9,.22,.33,.5,.67,.84,1.04l2.53,2.73-.79,.73-4.84-5.21,.63-.59,.75,.63,.05-.05c-.29-.73-.17-1.34,.37-1.84,.3-.28,.61-.42,.93-.42,.32,0,.62,.09,.9,.27l.06-.05c-.14-.4-.19-.75-.13-1.05,.06-.3,.23-.59,.51-.85Z"/><path class="b" d="M232.31,208.39l4.63,5.4-.65,.56-.71-.65-.06,.05c.12,.37,.13,.71,.05,1.02-.08,.32-.25,.58-.51,.8-.49,.42-.99,.54-1.49,.35-.51-.19-1.02-.59-1.53-1.19l-3.02-3.52,.81-.7,2.89,3.37c.41,.48,.76,.78,1.07,.92,.3,.14,.57,.11,.8-.09,.38-.32,.51-.7,.39-1.14-.12-.43-.45-.97-1-1.62l-2.46-2.88,.81-.7Z"/><path class="b" d="M235.81,205.38c.9-.72,1.86-.46,2.87,.8l3.02,3.76-.84,.67-2.89-3.6c-.35-.44-.67-.72-.95-.85-.29-.13-.55-.1-.8,.1-.36,.29-.49,.66-.39,1.1,.1,.45,.43,1.03,1,1.74l2.31,2.88-.84,.67-4.45-5.55,.67-.54,.7,.68,.05-.04c-.1-.37-.11-.72,0-1.04s.28-.59,.54-.8Z"/><path class="b" d="M237.61,200.74c.32-.25,.64-.17,.95,.24,.31,.4,.3,.72-.03,.97-.16,.12-.33,.17-.49,.13-.17-.04-.32-.15-.47-.34-.31-.41-.3-.74,.04-1Zm2.04,1.81l4.32,5.65-.85,.65-4.32-5.65,.85-.65Z"/><path class="b" d="M246.35,205.41c.08-.06,.16-.14,.23-.22,.07-.08,.14-.17,.2-.26l.52,.7c-.07,.14-.16,.27-.27,.4-.11,.12-.24,.25-.4,.36-.38,.28-.75,.36-1.11,.24-.36-.12-.73-.44-1.11-.95l-2.64-3.58-.53,.39-.35-.47,.4-.66-.73-1.48,.59-.43,.95,1.29,.96-.71,.53,.72-.96,.71,2.56,3.48c.21,.29,.41,.48,.59,.57,.18,.09,.37,.06,.57-.09Z"/><path class="b" d="M243.5,199.68l.91-.64,3.11,2.74c.19,.18,.39,.36,.59,.55,.2,.19,.4,.39,.59,.59l.04-.03c-.22-.42-.44-.92-.67-1.5l-1.55-3.84,.9-.63,3,7.9c.26,.71,.37,1.29,.32,1.73-.05,.44-.27,.81-.67,1.09-.09,.06-.18,.12-.28,.16-.1,.05-.21,.09-.33,.13l-.55-.78c.09-.03,.17-.06,.25-.1,.08-.04,.16-.08,.22-.12,.21-.15,.31-.34,.32-.59,0-.24-.09-.61-.27-1.1l-.34-.87-5.61-4.7Z"/><path class="b" d="M256.33,193.82c.86,1.35,1.27,2.52,1.24,3.51-.03,.99-.51,1.78-1.42,2.36l-1.61,1.03-5.09-7.97,1.67-1.07c.89-.56,1.77-.67,2.66-.3,.89,.37,1.74,1.18,2.55,2.45Zm-.95,.67c-1.32-2.06-2.57-2.71-3.75-1.96l-.7,.45,4.02,6.3,.64-.41c.64-.41,.93-.98,.88-1.7-.05-.73-.41-1.62-1.09-2.68Z"/><path class="b" d="M258.29,189.86c.42-.25,.83-.33,1.25-.26,.42,.08,.81,.28,1.19,.6s.72,.74,1.02,1.25l.38,.64-2.91,1.72c.9,1.46,1.79,1.93,2.67,1.41,.22-.13,.42-.29,.6-.49,.18-.19,.34-.43,.47-.72l.49,.82c-.27,.51-.67,.92-1.19,1.23-.52,.31-1.02,.42-1.5,.34-.48-.09-.93-.32-1.36-.71-.43-.39-.82-.88-1.17-1.47-.62-1.04-.92-1.93-.92-2.68,0-.74,.33-1.31,.98-1.69Zm.45,.75c-.31,.19-.46,.48-.46,.89,0,.41,.18,.93,.52,1.58l2.03-1.2c-.2-.33-.42-.62-.65-.86-.24-.24-.48-.4-.73-.49-.25-.08-.49-.06-.72,.08Z"/><path class="b" d="M265.85,193.85l-5.03-5.34,.96-.54,2.89,3.23c.18,.2,.36,.41,.54,.62,.18,.21,.36,.44,.53,.67l.05-.03c-.06-.14-.12-.32-.2-.55-.08-.23-.16-.49-.25-.77l-1.29-4.44,.96-.54,1.88,7.1-1.04,.58Z"/><path class="b" d="M267.76,184.59c.43-.23,.85-.29,1.26-.19,.41,.1,.8,.32,1.15,.67,.36,.34,.68,.78,.95,1.3l.34,.66-2.99,1.56c.82,1.51,1.68,2.02,2.59,1.55,.23-.12,.43-.27,.62-.45,.19-.18,.36-.41,.51-.69l.44,.85c-.3,.49-.72,.88-1.26,1.17-.54,.28-1.05,.37-1.52,.25-.47-.11-.91-.37-1.31-.79-.4-.41-.77-.92-1.08-1.53-.56-1.07-.82-1.98-.77-2.72s.4-1.29,1.07-1.63Zm.4,.77c-.32,.17-.49,.46-.51,.86-.02,.41,.13,.94,.44,1.61l2.09-1.09c-.18-.34-.38-.64-.6-.9-.22-.25-.45-.43-.7-.52-.24-.1-.48-.08-.72,.04Z"/><path class="b" d="M275.3,188.88l-.96,.48-4.46-9.03,.96-.48,4.46,9.03Z"/><path class="b" d="M279.48,182.96c.31,.67,.5,1.29,.58,1.86,.08,.58,.02,1.08-.17,1.51-.19,.43-.54,.76-1.04,1-.47,.22-.93,.26-1.39,.13-.45-.13-.87-.41-1.27-.84s-.75-.97-1.06-1.65c-.5-1.06-.7-1.97-.62-2.71,.08-.74,.5-1.29,1.24-1.64,.68-.32,1.34-.28,1.99,.1,.64,.39,1.22,1.13,1.73,2.23Zm-3.34,1.55c.38,.83,.77,1.4,1.15,1.74,.38,.33,.78,.4,1.19,.21,.78-.37,.79-1.38,.01-3.05-.77-1.66-1.55-2.3-2.33-1.94-.42,.19-.62,.54-.61,1.04,0,.5,.21,1.17,.59,1.99Z"/><path class="b" d="M281.87,177.9c.62-.27,1.22-.19,1.79,.23,.57,.42,1.1,1.2,1.58,2.33,.46,1.08,.66,1.98,.59,2.71-.07,.73-.4,1.22-1,1.48-.32,.14-.64,.17-.98,.11-.34-.06-.65-.22-.94-.47l-.05,.02c.09,.16,.17,.32,.24,.46,.07,.14,.13,.27,.18,.4l1.25,2.92-.99,.42-4.05-9.47,.8-.34,.5,.84,.06-.03c.03-.43,.13-.78,.3-1.04,.17-.26,.4-.45,.7-.58Zm.15,.95c-.41,.17-.63,.49-.67,.96s.12,1.1,.46,1.9l.1,.24c.37,.86,.74,1.45,1.11,1.76s.76,.38,1.18,.2c.37-.16,.57-.48,.58-.97s-.17-1.17-.54-2.03c-.36-.85-.72-1.44-1.08-1.79s-.74-.44-1.15-.27Z"/><path class="b" d="M290.71,174.38c1.04-.4,1.85,.18,2.44,1.72l1.7,4.46-1,.38-1.63-4.27c-.22-.58-.45-.96-.68-1.16-.23-.19-.49-.24-.77-.13-.4,.15-.6,.45-.63,.88-.02,.44,.1,1.02,.38,1.75l1.4,3.67-.99,.38-1.64-4.31c-.22-.57-.44-.95-.67-1.13-.23-.19-.49-.23-.77-.12-.3,.11-.49,.3-.56,.56-.08,.26-.08,.59,0,.97,.08,.39,.21,.81,.39,1.28l1.33,3.48-1,.38-2.54-6.65,.8-.31,.46,.86,.06-.02c0-.79,.35-1.31,1.03-1.57,.38-.14,.72-.16,1.02-.04s.55,.31,.74,.59l.07-.03c.02-.42,.11-.76,.28-1.03,.16-.26,.43-.46,.79-.6Z"/><path class="b" d="M296.06,172.52c.46-.16,.89-.15,1.28,0,.39,.16,.74,.44,1.04,.84,.3,.4,.55,.88,.74,1.44l.24,.7-3.2,1.08c.57,1.61,1.35,2.26,2.32,1.93,.24-.08,.47-.2,.69-.35,.21-.15,.42-.35,.61-.61l.31,.9c-.37,.44-.85,.76-1.42,.96-.58,.2-1.09,.2-1.54,.02-.45-.18-.84-.51-1.18-.98-.34-.47-.61-1.03-.84-1.68-.39-1.15-.5-2.08-.34-2.81,.16-.73,.6-1.21,1.31-1.45Zm.28,.83c-.34,.12-.55,.37-.63,.77-.08,.4-.02,.95,.18,1.66l2.23-.76c-.12-.37-.28-.69-.46-.98-.18-.28-.38-.49-.61-.63-.23-.13-.47-.16-.72-.07Z"/><path class="b" d="M302.22,170.53c1.11-.34,1.9,.27,2.37,1.81l1.41,4.62-1.03,.31-1.34-4.41c-.16-.53-.35-.91-.57-1.14-.22-.23-.48-.3-.78-.2-.44,.13-.7,.43-.77,.88-.07,.45,.02,1.11,.29,1.98l1.08,3.54-1.03,.31-2.07-6.81,.82-.25,.4,.89,.06-.02c.04-.38,.17-.7,.38-.97,.21-.26,.48-.44,.8-.54Z"/><path class="b" d="M309.14,175.22c.1-.03,.2-.07,.3-.12,.09-.05,.19-.11,.28-.17l.23,.84c-.12,.11-.25,.2-.4,.28-.15,.08-.32,.14-.5,.2-.45,.12-.82,.07-1.12-.18-.3-.24-.53-.67-.7-1.28l-1.19-4.29-.64,.18-.16-.56,.61-.47-.16-1.65,.7-.2,.43,1.54,1.15-.32,.24,.87-1.15,.32,1.16,4.16c.1,.35,.21,.6,.34,.74,.13,.15,.32,.19,.57,.12Z"/><path class="b" d="M313.78,167.41c.65-.15,1.17-.06,1.54,.29,.37,.35,.65,.9,.83,1.66l1.11,4.67-.8,.19-.38-.92h-.03c-.19,.81-.63,1.3-1.33,1.47-.36,.09-.68,.06-.95-.08-.27-.14-.5-.35-.68-.64-.18-.29-.32-.61-.4-.97-.16-.69-.09-1.27,.21-1.74,.31-.47,.82-.81,1.54-1.02l.78-.23-.11-.45c-.13-.53-.29-.91-.5-1.12-.21-.21-.47-.28-.8-.21-.38,.09-.78,.34-1.2,.74l-.52-.71c.46-.46,1.02-.78,1.68-.93Zm1.64,3.44l-.61,.19c-.92,.27-1.27,.86-1.05,1.76,.1,.43,.25,.73,.44,.89,.19,.16,.42,.21,.69,.15,.36-.08,.6-.33,.73-.73,.13-.4,.11-.92-.04-1.56l-.17-.7Z"/><path class="b" d="M320.07,166.02c1.13-.23,1.86,.44,2.19,2.02l.98,4.72-1.05,.22-.93-4.52c-.11-.54-.27-.94-.46-1.19-.19-.25-.45-.34-.76-.28-.45,.09-.73,.36-.85,.8-.12,.44-.08,1.11,.1,2l.75,3.62-1.05,.22-1.44-6.97,.84-.17,.31,.92h.06c.08-.39,.23-.7,.46-.94,.23-.24,.52-.4,.84-.46Z"/><path class="b" d="M326.75,172.27c-.67,.12-1.23-.1-1.69-.66-.46-.56-.79-1.43-.99-2.61-.2-1.17-.19-2.09,.05-2.79s.68-1.09,1.32-1.21c.32-.06,.63-.02,.94,.11,.31,.13,.57,.35,.81,.65h.05c-.09-.4-.16-.72-.21-.97l-.49-2.85,1.06-.18,1.72,9.92-.85,.15-.3-.86h-.06c-.13,.38-.31,.67-.53,.88-.22,.22-.5,.36-.84,.41Zm.09-.95c.86-.15,1.15-1.03,.87-2.64l-.07-.39c-.16-.91-.38-1.55-.67-1.93-.29-.39-.66-.54-1.11-.46-.41,.07-.67,.36-.78,.86-.11,.5-.09,1.18,.06,2.05,.31,1.82,.88,2.66,1.69,2.52Z"/><path class="b" d="M337.44,170.55l-3.73,.48-1.21-9.38,3.73-.48,.13,.99-2.63,.34,.39,3.01,2.47-.32,.13,.99-2.47,.32,.44,3.4,2.63-.34,.13,1Z"/><path class="b" d="M340.73,170.33c-.68,.07-1.22-.19-1.63-.78-.41-.59-.68-1.48-.8-2.68-.12-1.18-.03-2.1,.26-2.77s.76-1.04,1.41-1.1c.33-.03,.64,.03,.93,.18,.29,.15,.55,.39,.76,.71h.05c-.07-.4-.11-.72-.14-.98l-.28-2.88,1.07-.11,.99,10.02-.86,.08-.23-.88h-.07c-.16,.36-.36,.64-.59,.84-.23,.2-.52,.32-.86,.35Zm.16-.93c.87-.09,1.23-.94,1.06-2.57l-.04-.4c-.09-.91-.26-1.57-.52-1.98-.26-.41-.62-.59-1.07-.54-.41,.04-.69,.31-.84,.79-.15,.49-.18,1.17-.09,2.05,.18,1.84,.68,2.72,1.5,2.64Z"/><path class="b" d="M348.94,162.41l.47,7.1-.86,.06-.18-.94h-.08c-.13,.37-.32,.65-.58,.85-.26,.2-.55,.32-.89,.34-.64,.04-1.11-.16-1.4-.62-.29-.45-.46-1.08-.52-1.87l-.31-4.63,1.07-.07,.29,4.43c.04,.63,.14,1.08,.3,1.37,.16,.29,.39,.43,.69,.41,.49-.03,.82-.26,.99-.68,.17-.42,.22-1.05,.17-1.9l-.25-3.78,1.07-.07Z"/><path class="b" d="M353.27,169.48c-1.57,.06-2.4-1.12-2.5-3.55-.04-1.17,.12-2.09,.48-2.76s.95-1.03,1.76-1.06c.27-.01,.52,0,.75,.06,.23,.05,.44,.12,.62,.22l-.3,.9c-.34-.16-.66-.24-.96-.23-.91,.03-1.33,.97-1.26,2.82,.07,1.81,.56,2.7,1.48,2.66,.19,0,.39-.04,.58-.11,.2-.07,.39-.15,.59-.27l.03,.9c-.18,.13-.39,.23-.63,.3-.24,.07-.46,.11-.67,.12Z"/><path class="b" d="M357.74,162c.67,0,1.15,.2,1.44,.63,.29,.42,.44,1.03,.44,1.8l.06,4.8h-.82l-.17-.97h-.03c-.36,.75-.9,1.12-1.62,1.13-.37,0-.67-.09-.91-.29-.24-.2-.41-.45-.53-.78-.11-.32-.17-.67-.18-1.04,0-.71,.19-1.26,.59-1.65,.4-.39,.98-.61,1.73-.66l.81-.05v-.46c-.01-.55-.09-.95-.25-1.2-.15-.25-.4-.38-.73-.38-.39,0-.83,.16-1.33,.45l-.35-.8c.55-.35,1.17-.53,1.85-.54Zm.84,3.71l-.64,.05c-.95,.06-1.43,.56-1.41,1.49,0,.44,.08,.76,.24,.96,.15,.2,.37,.3,.64,.3,.37,0,.66-.19,.87-.55,.21-.36,.31-.87,.31-1.53v-.71Z"/><path class="b" d="M363.22,168.43c.11,0,.21,0,.32-.04,.11-.03,.21-.05,.32-.09v.87c-.15,.07-.31,.12-.47,.15-.16,.03-.34,.05-.54,.05-.47,0-.81-.17-1.03-.48-.22-.32-.32-.79-.31-1.43l.05-4.45h-.66v-.59l.73-.28,.31-1.63h.73l-.02,1.61h1.19v.92h-1.2l-.05,4.3c0,.36,.04,.63,.12,.81,.09,.18,.26,.27,.51,.27Z"/><path class="b" d="M366.27,162.21l-.2,7.11-1.07-.03,.2-7.11,1.07,.03Zm-.44-2.69c.41,.01,.6,.27,.59,.79-.01,.5-.22,.75-.63,.74-.2,0-.36-.08-.46-.21-.11-.14-.16-.32-.15-.56,.01-.51,.23-.76,.66-.75Z"/><path class="b" d="M372.52,166.05c-.04,.73-.16,1.37-.36,1.92-.2,.55-.49,.97-.85,1.26-.37,.29-.83,.42-1.39,.39-.52-.03-.95-.2-1.29-.53-.34-.33-.58-.77-.73-1.33-.15-.56-.2-1.21-.17-1.95,.06-1.17,.3-2.07,.72-2.69,.42-.62,1.04-.91,1.86-.87,.75,.04,1.32,.38,1.71,1.02,.39,.64,.55,1.57,.49,2.78Zm-3.68-.19c-.05,.91,.02,1.6,.2,2.07,.18,.47,.5,.72,.95,.75,.86,.04,1.34-.85,1.44-2.69,.09-1.83-.29-2.76-1.16-2.81-.46-.02-.8,.19-1.03,.64-.23,.45-.36,1.13-.41,2.04Z"/><path class="b" d="M377.04,162.71c1.15,.1,1.66,.95,1.52,2.56l-.41,4.8-1.07-.09,.39-4.59c.05-.55,.01-.98-.1-1.27-.12-.29-.33-.45-.65-.48-.46-.04-.8,.14-1.04,.53-.24,.39-.39,1.04-.47,1.95l-.32,3.68-1.07-.09,.61-7.09,.86,.07,.04,.97h.07c.18-.33,.42-.59,.71-.75,.29-.17,.61-.23,.94-.21Z"/></g><g><path class="b" d="M167.6,407.48c-.52,.12-1,.12-1.45,.01-.45-.11-.83-.32-1.14-.63s-.52-.71-.64-1.2c-.17-.75-.19-1.42-.04-2.02l1.12-.26c-.1,.33-.16,.68-.16,1.03,0,.35,.03,.68,.09,.97,.1,.43,.33,.73,.68,.9,.36,.17,.75,.21,1.17,.11,.29-.07,.53-.17,.72-.31,.19-.14,.34-.33,.47-.58,.12-.25,.23-.57,.34-.96,.11-.41,.25-.77,.41-1.09s.38-.58,.67-.8c.29-.21,.67-.38,1.15-.49,.48-.12,.93-.12,1.34,0,.41,.12,.76,.33,1.04,.64s.48,.69,.58,1.15c.08,.36,.12,.71,.1,1.05s-.06,.64-.12,.91l-1.07-.12c.17-.58,.19-1.11,.08-1.58-.09-.4-.29-.69-.6-.86-.31-.17-.66-.2-1.05-.11-.32,.07-.57,.18-.75,.31-.18,.13-.33,.32-.45,.57-.12,.24-.23,.57-.33,.97-.18,.68-.44,1.2-.78,1.59-.34,.38-.8,.64-1.4,.78Z"/><path class="b" d="M173.44,412.06l-6.88,1.8-.22-.83,.89-.36-.02-.08c-.38-.06-.69-.19-.94-.4-.25-.21-.41-.48-.5-.81-.16-.62-.05-1.12,.34-1.49,.39-.37,.97-.66,1.74-.86l4.49-1.18,.27,1.04-4.29,1.12c-.61,.16-1.04,.34-1.29,.56s-.34,.46-.27,.76c.12,.48,.41,.76,.85,.84s1.07,.02,1.89-.19l3.67-.96,.27,1.04Z"/><path class="b" d="M174.8,416.29c.19,.65,.05,1.24-.44,1.75-.49,.52-1.32,.95-2.5,1.3-1.13,.33-2.05,.42-2.77,.27-.72-.15-1.17-.54-1.35-1.17-.1-.33-.1-.66,0-.98,.1-.33,.29-.62,.58-.88v-.05c-.19,.07-.35,.13-.5,.18s-.29,.1-.42,.14l-3.05,.9-.3-1.03,9.87-2.92,.25,.84-.89,.4,.02,.06c.43,.08,.76,.21,1,.42,.24,.2,.4,.45,.49,.76Zm-.96,.03c-.13-.42-.42-.68-.87-.77-.46-.09-1.1-.01-1.94,.24l-.25,.07c-.9,.27-1.52,.56-1.88,.89-.35,.33-.47,.71-.34,1.14,.12,.39,.42,.62,.9,.69,.49,.07,1.18-.03,2.07-.3,.88-.26,1.52-.55,1.91-.86,.39-.31,.52-.68,.4-1.11Z"/><path class="b" d="M176.67,422.19c.21,.65,.09,1.24-.38,1.77-.47,.53-1.29,.99-2.45,1.38-1.12,.37-2.03,.49-2.76,.36-.72-.13-1.19-.5-1.39-1.12-.11-.33-.12-.65-.03-.98s.27-.63,.55-.89l-.02-.05c-.17,.07-.33,.14-.48,.2-.15,.06-.29,.11-.41,.15l-3.02,1-.34-1.02,9.77-3.24,.27,.83-.88,.43,.02,.06c.43,.06,.77,.19,1.01,.38,.25,.19,.42,.44,.52,.74Zm-.96,.07c-.14-.42-.44-.67-.9-.74-.46-.08-1.1,.02-1.93,.3l-.25,.08c-.89,.29-1.5,.61-1.85,.95-.34,.34-.44,.73-.3,1.15,.13,.39,.44,.61,.92,.66,.49,.05,1.17-.07,2.06-.36,.87-.29,1.5-.6,1.88-.92,.38-.33,.5-.7,.36-1.12Z"/><path class="b" d="M175.91,431.07c-.69,.25-1.32,.39-1.91,.42-.58,.03-1.08-.07-1.49-.29-.41-.23-.71-.6-.9-1.12-.18-.49-.18-.95-.02-1.39,.17-.44,.48-.84,.94-1.19,.46-.36,1.04-.66,1.73-.92,1.1-.41,2.02-.54,2.76-.39s1.24,.6,1.53,1.37c.26,.7,.17,1.36-.27,1.97-.44,.61-1.23,1.12-2.36,1.54Zm-1.27-3.46c-.85,.31-1.46,.65-1.83,1-.36,.36-.47,.74-.31,1.17,.3,.81,1.31,.9,3.03,.27,1.72-.63,2.43-1.35,2.13-2.16-.16-.43-.49-.66-.99-.7-.5-.03-1.18,.11-2.03,.42Z"/><path class="b" d="M180.82,433.46c.08,.2,.12,.4,.14,.6l-1.09,.26c0-.16-.04-.34-.11-.53-.1-.24-.28-.41-.54-.51-.27-.1-.59-.14-.97-.1-.38,.04-.78,.14-1.21,.31l-3.45,1.37-.4-1,6.61-2.62,.31,.78-1.08,.58,.02,.06c.44-.01,.82,.04,1.13,.17s.52,.33,.64,.62Z"/><path class="b" d="M176.22,439.13c.04,.1,.09,.19,.16,.28,.07,.09,.14,.17,.21,.26l-.81,.34c-.12-.1-.23-.22-.32-.36-.1-.14-.18-.29-.26-.47-.18-.43-.17-.81,.03-1.13,.2-.33,.6-.61,1.19-.86l4.1-1.72-.26-.61,.54-.23,.55,.55,1.62-.36,.28,.67-1.48,.62,.46,1.1-.83,.35-.46-1.1-3.98,1.67c-.33,.14-.56,.29-.69,.44-.13,.15-.14,.34-.04,.58Z"/><path class="b" d="M184.68,442.35c.28,.61,.29,1.13,.02,1.57-.27,.44-.76,.82-1.46,1.15l-4.35,2.02-.35-.74,.82-.56v-.03c-.84-.02-1.41-.36-1.71-1.01-.16-.34-.19-.65-.11-.95,.08-.3,.25-.56,.49-.8,.25-.24,.54-.43,.87-.59,.64-.3,1.22-.34,1.75-.14,.52,.2,.96,.64,1.31,1.31l.38,.72,.42-.19c.5-.23,.83-.47,1-.71,.17-.24,.18-.52,.04-.82-.16-.35-.48-.7-.96-1.03l.59-.65c.55,.36,.96,.85,1.25,1.46Zm-3.04,2.29l-.3-.56c-.45-.84-1.09-1.07-1.94-.68-.4,.19-.66,.39-.78,.61-.12,.22-.12,.46,0,.71,.16,.34,.44,.53,.86,.57,.42,.04,.93-.07,1.52-.35l.65-.3Z"/><path class="b" d="M187.4,447.98c.52,1.04,.06,1.91-1.39,2.64l-4.31,2.16-.48-.96,4.12-2.07c.5-.25,.84-.5,1.03-.75,.19-.25,.21-.52,.07-.81-.21-.41-.54-.62-1-.61-.46,0-1.09,.21-1.91,.61l-3.3,1.66-.48-.96,6.36-3.19,.39,.77-.81,.54,.03,.06c.38-.02,.72,.04,1.02,.21,.29,.16,.52,.4,.67,.7Z"/><path class="b" d="M183.36,456.18c-.32-.6-.29-1.2,.09-1.81,.38-.61,1.1-1.2,2.16-1.77,1.04-.56,1.93-.84,2.66-.84,.73,0,1.25,.29,1.56,.87,.15,.29,.22,.6,.19,.93-.03,.33-.15,.65-.36,.97l.02,.04c.34-.21,.62-.38,.84-.5l2.54-1.38,.51,.94-8.85,4.8-.41-.76,.72-.56-.03-.06c-.39-.01-.72-.08-.99-.22-.27-.14-.49-.36-.66-.66Zm.92-.21c.42,.77,1.34,.76,2.78-.01l.35-.19c.81-.44,1.35-.85,1.62-1.25,.27-.39,.3-.79,.08-1.2-.2-.36-.55-.52-1.06-.46-.51,.05-1.15,.29-1.93,.71-1.62,.88-2.24,1.68-1.85,2.4Z"/><path class="b" d="M189.07,465.86l2.18-2.11-1.14-1.9-2.89,.93-.61-1.02,9.29-2.91,.69,1.15-6.9,6.88-.61-1.01Zm2.95-2.83l2.29-2.2c.19-.16,.37-.32,.55-.48,.18-.15,.34-.29,.51-.42-.39,.18-.81,.35-1.27,.5l-3.02,1.03,.94,1.57Z"/><path class="b" d="M196.78,466.43l-.6-.95-5.24,3.33-.58-.91,5.24-3.33-.46-.73,.48-.31,.77,.53,.35-.22c.69-.44,1.29-.69,1.79-.73,.5-.05,.91,.19,1.25,.72,.1,.16,.19,.33,.24,.48,.06,.16,.11,.33,.15,.53l-.88,.23c-.03-.12-.07-.23-.1-.33-.04-.11-.08-.2-.13-.28-.14-.22-.33-.3-.57-.26-.24,.05-.62,.23-1.13,.54l-.41,.26,.6,.95-.76,.48Z"/><path class="b" d="M193.89,471.84c.06,.09,.13,.17,.21,.24,.08,.07,.16,.15,.25,.21l-.73,.48c-.14-.08-.27-.18-.39-.29-.12-.12-.23-.26-.34-.42-.26-.39-.32-.77-.18-1.12,.14-.36,.48-.71,1-1.06l3.71-2.46-.36-.55,.49-.32,.64,.44,1.52-.66,.4,.61-1.34,.88,.66,.99-.75,.5-.66-.99-3.6,2.38c-.3,.2-.5,.38-.6,.56-.1,.17-.08,.36,.06,.58Z"/><path class="b" d="M201.36,471.41c.28,.4,.39,.81,.35,1.23-.05,.42-.22,.83-.52,1.23-.3,.4-.69,.77-1.17,1.11l-.61,.42-1.93-2.77c-1.39,1-1.79,1.92-1.21,2.76,.15,.21,.32,.4,.53,.56,.21,.16,.46,.3,.75,.42l-.78,.54c-.53-.23-.97-.6-1.32-1.1-.35-.5-.5-.99-.45-1.47s.26-.95,.61-1.4,.82-.88,1.38-1.27c.99-.69,1.86-1.06,2.6-1.11,.74-.05,1.33,.24,1.76,.85Zm-.72,.5c-.21-.3-.51-.43-.92-.39-.41,.04-.92,.25-1.54,.64l1.35,1.93c.32-.22,.59-.46,.81-.71,.22-.25,.37-.5,.43-.76,.06-.25,.02-.49-.13-.71Z"/><path class="b" d="M204.92,476.33c.13,.17,.22,.35,.29,.55l-.99,.53c-.04-.16-.12-.32-.24-.48-.15-.21-.37-.32-.66-.36-.29-.03-.61,.02-.97,.15-.36,.13-.72,.33-1.09,.61l-2.99,2.2-.64-.87,5.73-4.21,.49,.67-.9,.84,.04,.05c.42-.12,.8-.16,1.14-.12,.33,.04,.59,.19,.78,.44Z"/><path class="b" d="M201.25,483.7c-.96-1.25-.48-2.61,1.45-4.09,.92-.71,1.77-1.11,2.53-1.21,.76-.09,1.39,.18,1.88,.82,.17,.22,.3,.43,.39,.64,.09,.21,.15,.43,.18,.64l-.91,.28c-.06-.37-.19-.68-.37-.92-.56-.72-1.56-.52-3.03,.61-1.43,1.11-1.87,2.02-1.31,2.75,.12,.15,.26,.29,.43,.41,.17,.12,.35,.23,.56,.33l-.71,.55c-.21-.07-.42-.18-.61-.34-.2-.16-.36-.31-.48-.47Z"/><path class="b" d="M209.95,482.78c.42,.52,.56,1.03,.41,1.52-.15,.49-.53,.98-1.14,1.47l-3.72,3.03-.52-.64,.66-.74-.02-.02c-.81,.18-1.44,0-1.89-.56-.23-.29-.35-.59-.34-.89,0-.31,.1-.61,.28-.89,.18-.29,.41-.55,.7-.79,.55-.45,1.1-.63,1.66-.56,.56,.07,1.09,.38,1.59,.95l.54,.6,.36-.29c.42-.35,.69-.66,.79-.94,.1-.28,.05-.55-.16-.81-.25-.3-.64-.55-1.18-.76l.41-.78c.62,.21,1.14,.58,1.57,1.11Zm-2.39,2.97l-.43-.47c-.64-.71-1.32-.77-2.04-.18-.34,.28-.54,.54-.61,.79-.06,.25,0,.47,.16,.69,.23,.29,.56,.4,.98,.34s.88-.3,1.39-.71l.56-.45Z"/><path class="b" d="M213.84,487.41c.14,.16,.25,.33,.33,.52l-.95,.6c-.05-.15-.14-.31-.27-.46-.17-.19-.39-.3-.68-.31-.29-.01-.6,.06-.95,.22-.35,.16-.7,.39-1.04,.69l-2.82,2.41-.7-.82,5.4-4.63,.54,.63-.83,.9,.04,.05c.41-.16,.79-.22,1.12-.21,.34,.02,.61,.15,.81,.38Z"/><path class="b" d="M216.16,490.04c.33,.36,.49,.75,.5,1.17,0,.42-.11,.85-.36,1.29-.25,.43-.59,.85-1.03,1.25l-.55,.5-2.26-2.51c-1.26,1.17-1.54,2.13-.86,2.89,.17,.19,.37,.35,.59,.49,.22,.14,.49,.24,.8,.32l-.71,.64c-.55-.17-1.03-.48-1.44-.93-.41-.45-.62-.92-.62-1.41,0-.49,.14-.98,.43-1.47,.3-.49,.7-.97,1.22-1.43,.9-.81,1.71-1.28,2.44-1.42,.73-.14,1.35,.07,1.85,.63Zm-.65,.58c-.24-.27-.56-.36-.96-.28-.4,.08-.88,.36-1.45,.82l1.58,1.75c.29-.26,.53-.53,.72-.81,.19-.28,.3-.55,.33-.81,.03-.26-.04-.49-.22-.69Z"/></g><g><path class="b" d="M447.64,531.33c-.43,.22-.7,.56-.81,1.01-.11,.46-.09,.98,.05,1.57,.14,.59,.37,1.19,.68,1.8,.54,1.07,1.14,1.82,1.8,2.26,.65,.44,1.27,.51,1.84,.22,.24-.12,.44-.26,.62-.43,.18-.17,.34-.34,.48-.53l.46,.9c-.27,.4-.68,.75-1.22,1.02-.57,.29-1.16,.37-1.75,.24s-1.17-.47-1.73-1c-.56-.53-1.07-1.25-1.53-2.16-.41-.8-.68-1.58-.8-2.34-.13-.76-.08-1.44,.14-2.04,.22-.6,.65-1.07,1.29-1.39,.56-.28,1.16-.41,1.79-.37l.07,1.02c-.23-.02-.46-.02-.69,.02-.23,.03-.46,.11-.68,.22Z"/><path class="b" d="M456.61,532.23c.35,.64,.59,1.25,.7,1.82,.12,.57,.09,1.08-.07,1.52-.16,.44-.49,.8-.97,1.06-.46,.25-.92,.33-1.37,.22-.46-.1-.9-.35-1.32-.75-.42-.4-.81-.92-1.17-1.58-.56-1.03-.83-1.92-.8-2.67s.41-1.32,1.13-1.72c.66-.36,1.32-.37,1.99-.02,.67,.34,1.29,1.05,1.87,2.11Zm-3.23,1.77c.44,.8,.86,1.35,1.26,1.66,.4,.31,.8,.35,1.2,.14,.76-.42,.7-1.43-.19-3.04-.88-1.6-1.7-2.2-2.46-1.78-.4,.22-.58,.58-.54,1.08,.04,.5,.28,1.15,.72,1.95Z"/><path class="b" d="M461.85,529.17c.37,.63,.62,1.23,.76,1.8,.13,.57,.13,1.07-.02,1.52-.15,.45-.46,.81-.94,1.09-.45,.26-.9,.35-1.36,.27-.46-.09-.91-.32-1.34-.71-.43-.39-.84-.9-1.21-1.54-.6-1.01-.89-1.89-.88-2.64,0-.75,.37-1.33,1.08-1.75,.65-.38,1.31-.41,1.99-.08,.68,.32,1.32,1.01,1.94,2.05Zm-3.17,1.87c.46,.78,.9,1.32,1.31,1.62,.41,.29,.82,.33,1.2,.1,.75-.44,.65-1.45-.28-3.03-.93-1.58-1.76-2.14-2.51-1.71-.4,.23-.56,.6-.51,1.1,.06,.5,.32,1.14,.78,1.92Z"/><path class="b" d="M463.34,523.9c.18-.11,.37-.19,.57-.24l.45,1.03c-.16,.03-.33,.09-.5,.2-.22,.13-.35,.34-.41,.63-.05,.28-.03,.61,.08,.97,.1,.37,.28,.75,.52,1.14l1.96,3.15-.91,.57-3.77-6.04,.71-.44,.77,.96,.06-.04c-.09-.43-.1-.81-.03-1.14,.07-.33,.24-.58,.5-.74Z"/><path class="b" d="M470.17,528.27c-.57,.38-1.17,.4-1.81,.07-.64-.33-1.29-.99-1.95-2-.65-.99-1.01-1.85-1.07-2.58-.06-.73,.19-1.27,.73-1.63,.27-.18,.58-.27,.91-.27,.33,0,.67,.09,1,.27l.04-.03c-.24-.32-.43-.58-.57-.8l-1.59-2.41,.9-.59,5.55,8.4-.72,.47-.62-.67-.06,.04c.02,.39-.02,.72-.13,1.01s-.31,.52-.6,.71Zm-.29-.9c.73-.48,.64-1.41-.26-2.77l-.22-.33c-.51-.77-.97-1.27-1.38-1.51-.42-.24-.82-.23-1.2,.02-.35,.23-.47,.59-.37,1.1,.1,.5,.39,1.12,.88,1.86,1.02,1.54,1.87,2.08,2.56,1.63Z"/><path class="b" d="M468.79,517.22c.33-.23,.65-.14,.94,.28,.29,.41,.26,.74-.07,.97-.17,.12-.33,.15-.5,.1-.17-.04-.32-.17-.45-.36-.29-.42-.26-.75,.08-.99Zm1.95,1.9l4.06,5.84-.88,.61-4.06-5.84,.88-.61Z"/><path class="b" d="M474.26,516.44c.93-.68,1.88-.37,2.83,.93l2.84,3.9-.87,.63-2.72-3.72c-.33-.45-.63-.75-.91-.89s-.55-.12-.81,.07c-.37,.27-.52,.63-.44,1.08,.08,.45,.39,1.04,.92,1.78l2.18,2.99-.87,.63-4.2-5.75,.7-.51,.67,.71,.05-.04c-.09-.37-.07-.72,.04-1.04,.11-.32,.3-.57,.58-.77Z"/><path class="b" d="M478.63,513.14c.53-.41,1.04-.54,1.52-.37,.49,.17,.97,.55,1.45,1.17l2.95,3.79-.65,.5-.73-.68-.02,.02c.16,.81-.04,1.44-.6,1.88-.29,.23-.59,.34-.9,.32-.31-.01-.6-.11-.89-.3s-.54-.43-.77-.72c-.43-.56-.61-1.11-.53-1.67s.41-1.08,.98-1.57l.61-.53-.29-.37c-.34-.43-.64-.7-.92-.81-.28-.11-.55-.06-.81,.15-.31,.24-.57,.63-.79,1.17l-.77-.43c.23-.61,.61-1.13,1.15-1.55Zm2.91,2.45l-.48,.42c-.72,.63-.8,1.31-.23,2.04,.27,.35,.53,.56,.77,.62,.24,.07,.47,.02,.69-.15,.29-.23,.41-.55,.36-.97-.05-.42-.28-.89-.68-1.4l-.44-.56Z"/><path class="b" d="M486.91,514.74c.08-.07,.16-.14,.22-.23,.07-.09,.13-.18,.19-.27l.55,.68c-.06,.14-.15,.28-.25,.41-.1,.13-.23,.26-.38,.38-.36,.3-.73,.39-1.1,.29-.37-.1-.76-.4-1.16-.89l-2.82-3.45-.51,.42-.37-.45,.37-.68-.81-1.45,.56-.46,1.01,1.24,.92-.75,.57,.7-.92,.75,2.73,3.35c.23,.28,.43,.46,.61,.54,.18,.08,.37,.04,.57-.12Z"/><path class="b" d="M483,506.32c.31-.26,.63-.2,.96,.19,.32,.39,.33,.71,.02,.97-.15,.13-.32,.18-.49,.15s-.33-.13-.49-.32c-.33-.39-.33-.72-.01-1Zm2.12,1.71l4.59,5.43-.82,.69-4.59-5.43,.82-.69Z"/><path class="b" d="M492.21,506.54c.49,.55,.85,1.09,1.09,1.62,.24,.53,.33,1.03,.27,1.5-.06,.47-.3,.88-.71,1.25-.39,.35-.82,.52-1.29,.52-.47,0-.95-.14-1.45-.44-.5-.3-.99-.72-1.49-1.28-.78-.88-1.23-1.69-1.37-2.43-.13-.74,.11-1.38,.72-1.92,.56-.5,1.21-.65,1.93-.47,.73,.19,1.49,.74,2.29,1.64Zm-2.76,2.44c.6,.68,1.14,1.13,1.6,1.34,.46,.21,.86,.16,1.2-.13,.65-.57,.36-1.55-.86-2.92-1.21-1.37-2.14-1.77-2.79-1.19-.34,.3-.44,.7-.29,1.17s.53,1.06,1.13,1.74Z"/><path class="b" d="M492.76,500.99c.84-.79,1.82-.6,2.93,.57l3.31,3.51-.78,.74-3.16-3.35c-.38-.41-.72-.66-1.02-.77s-.56-.05-.79,.17c-.33,.31-.43,.69-.3,1.13,.13,.44,.51,.99,1.14,1.65l2.54,2.69-.78,.74-4.88-5.18,.63-.59,.75,.62,.05-.05c-.13-.36-.16-.7-.09-1.03s.23-.61,.47-.84Z"/><path class="b" d="M502.88,496.1c.53,.51,.93,1.02,1.21,1.53s.41,1,.38,1.47c-.02,.47-.23,.9-.62,1.3-.36,.37-.78,.58-1.25,.62-.47,.04-.96-.07-1.48-.33-.52-.26-1.04-.64-1.58-1.16-.84-.82-1.36-1.59-1.55-2.31s0-1.38,.57-1.97c.52-.54,1.15-.74,1.89-.61,.74,.13,1.54,.62,2.41,1.46Zm-2.56,2.64c.65,.63,1.22,1.04,1.7,1.21,.48,.17,.87,.1,1.19-.22,.6-.62,.25-1.57-1.07-2.85-1.31-1.27-2.27-1.6-2.87-.98-.32,.33-.38,.73-.2,1.19,.19,.47,.61,1.02,1.26,1.65Z"/><path class="b" d="M503.59,491.42l-.76,.83,4.57,4.21-.73,.79-4.57-4.21-.58,.63-.42-.39,.31-.88-.3-.28c-.6-.56-.99-1.07-1.17-1.54s-.05-.93,.38-1.39c.13-.14,.27-.26,.4-.36,.14-.1,.29-.19,.47-.28l.45,.79c-.1,.06-.2,.12-.3,.19-.09,.06-.17,.13-.24,.2-.17,.19-.21,.39-.1,.62,.11,.22,.38,.54,.81,.96l.36,.33,.76-.83,.66,.61Z"/><path class="b" d="M506.22,484.8c-.32,.37-.43,.78-.36,1.24,.08,.46,.29,.94,.65,1.43,.36,.49,.79,.96,1.31,1.4,.91,.78,1.75,1.25,2.53,1.4,.77,.15,1.36-.02,1.78-.51,.17-.2,.31-.41,.41-.63s.18-.45,.24-.68l.77,.65c-.09,.48-.34,.95-.73,1.41-.42,.49-.93,.79-1.53,.89s-1.26,.02-1.98-.26c-.72-.28-1.46-.75-2.24-1.41-.69-.59-1.23-1.2-1.64-1.86-.41-.65-.63-1.29-.66-1.94s.19-1.23,.66-1.78c.41-.48,.91-.82,1.51-1.03l.46,.91c-.22,.07-.43,.16-.63,.28-.2,.12-.38,.27-.54,.46Z"/><path class="b" d="M510.38,481.86c.42-.52,.89-.76,1.4-.71,.51,.05,1.07,.31,1.68,.8l3.74,3-.51,.64-.86-.49-.02,.02c.35,.75,.29,1.41-.15,1.97-.23,.29-.5,.46-.8,.52-.3,.06-.61,.03-.93-.09-.32-.12-.62-.29-.91-.52-.55-.44-.85-.94-.9-1.5-.05-.56,.15-1.14,.59-1.75l.48-.65-.36-.29c-.43-.34-.79-.54-1.08-.58-.29-.04-.54,.07-.76,.33-.24,.3-.41,.74-.5,1.32l-.85-.24c.08-.65,.33-1.24,.76-1.77Zm3.4,1.71l-.37,.52c-.56,.78-.47,1.46,.25,2.04,.34,.28,.64,.42,.9,.43,.25,0,.46-.09,.64-.3,.23-.29,.28-.63,.13-1.03-.15-.39-.47-.8-.98-1.21l-.56-.45Z"/><path class="b" d="M514.12,477.07c.13-.17,.28-.31,.44-.43l.79,.8c-.14,.08-.27,.2-.4,.37-.16,.2-.21,.45-.16,.73s.19,.58,.42,.88c.23,.31,.52,.6,.89,.88l2.95,2.25-.65,.85-5.66-4.32,.51-.66,1.06,.62,.04-.05c-.24-.37-.38-.72-.44-1.06-.05-.33,.02-.62,.2-.87Z"/><path class="b" d="M516.21,474.25c.29-.39,.63-.64,1.04-.73,.41-.09,.86-.07,1.33,.08,.48,.15,.95,.4,1.43,.74l.6,.44-1.98,2.74c1.4,.98,2.41,1.06,3.01,.23,.15-.21,.27-.43,.36-.68,.09-.25,.14-.53,.15-.85l.77,.56c-.05,.58-.25,1.11-.61,1.61s-.77,.8-1.25,.91c-.47,.11-.98,.07-1.53-.12-.55-.19-1.1-.48-1.66-.89-.98-.71-1.62-1.41-1.9-2.09-.29-.69-.21-1.33,.23-1.94Zm.71,.51c-.21,.29-.23,.63-.07,1,.17,.37,.54,.79,1.11,1.25l1.38-1.91c-.31-.23-.63-.41-.94-.53-.31-.13-.6-.18-.86-.16s-.47,.14-.63,.36Z"/><path class="b" d="M520.02,464.69l6.03,8.17-.56,.85-6.02-8.18,.56-.84Z"/><path class="b" d="M524.27,459.55c-.25,.42-.3,.84-.15,1.29,.15,.44,.44,.88,.88,1.3,.43,.43,.94,.82,1.52,1.17,1.03,.62,1.93,.95,2.72,.97,.78,.03,1.34-.24,1.68-.79,.14-.23,.24-.46,.3-.69,.06-.23,.11-.47,.12-.71l.86,.52c-.02,.49-.18,.99-.5,1.51-.33,.55-.79,.93-1.36,1.13-.58,.2-1.24,.22-1.99,.07-.75-.16-1.57-.5-2.44-1.03-.77-.47-1.41-.99-1.92-1.56s-.83-1.18-.96-1.8c-.13-.63-.01-1.25,.36-1.86,.32-.54,.76-.96,1.32-1.26l.6,.83c-.21,.1-.4,.23-.58,.38-.18,.15-.33,.33-.46,.54Z"/><path class="b" d="M527.91,455.97c.33-.58,.75-.89,1.26-.93,.51-.03,1.11,.14,1.78,.52l4.18,2.36-.4,.72-.93-.34v.02c.45,.69,.51,1.34,.16,1.97-.18,.32-.42,.54-.71,.64s-.6,.13-.93,.07c-.33-.06-.66-.19-.99-.37-.62-.35-.99-.79-1.13-1.34-.14-.55-.04-1.15,.3-1.83l.36-.72-.4-.23c-.48-.27-.86-.4-1.16-.4-.3,0-.53,.15-.69,.45-.19,.34-.28,.8-.28,1.38l-.87-.1c-.03-.65,.13-1.28,.46-1.87Zm3.63,1.14l-.28,.57c-.42,.86-.23,1.51,.58,1.97,.38,.22,.7,.31,.95,.28,.25-.03,.44-.17,.58-.4,.18-.32,.17-.67-.04-1.04-.21-.37-.6-.71-1.17-1.03l-.62-.35Z"/><path class="b" d="M530.82,450.63c.1-.19,.22-.35,.37-.49l.91,.66c-.12,.11-.24,.25-.33,.43-.12,.23-.13,.47-.04,.75,.1,.27,.28,.54,.55,.8s.61,.51,1.02,.72l3.28,1.74-.5,.95-6.28-3.34,.39-.74,1.15,.44,.03-.06c-.3-.33-.5-.65-.6-.97-.1-.32-.08-.62,.06-.89Z"/><path class="b" d="M532.43,447.51c.22-.43,.52-.73,.91-.89s.83-.2,1.33-.13c.49,.07,1.01,.24,1.54,.5l.66,.33-1.51,3.02c1.54,.75,2.54,.66,3-.26,.12-.23,.2-.47,.24-.73s.05-.55,0-.86l.85,.43c.05,.58-.07,1.14-.34,1.68-.27,.54-.63,.91-1.08,1.09-.45,.18-.96,.23-1.53,.13-.57-.1-1.16-.3-1.78-.61-1.08-.54-1.82-1.13-2.22-1.76s-.43-1.28-.09-1.95Zm.78,.39c-.16,.32-.13,.66,.09,1,.23,.34,.66,.69,1.3,1.05l1.06-2.11c-.35-.17-.68-.3-1.01-.38-.33-.07-.62-.08-.87-.01-.25,.07-.44,.22-.56,.45Z"/><path class="b" d="M533.85,439.34c.38-.85,.88-1.39,1.48-1.61,.6-.22,1.33-.13,2.2,.25,.88,.4,1.46,.91,1.74,1.54,.28,.63,.23,1.37-.15,2.21l-.25,.56,3.36,1.51-.46,1.02-8.63-3.88,.72-1.6Zm.88,.44l-.24,.54,3.48,1.56,.21-.46c.25-.56,.29-1.03,.12-1.4-.17-.37-.58-.7-1.22-.99-.6-.27-1.08-.34-1.44-.21-.37,.13-.67,.45-.9,.96Z"/><path class="b" d="M544.61,438.32l-.42,.99-9.28-3.92,.42-.99,9.28,3.92Z"/><path class="b" d="M539.36,432.01c.25-.62,.62-.99,1.12-1.09,.5-.11,1.12-.01,1.84,.27l4.46,1.77-.3,.76-.97-.21v.02c.54,.62,.69,1.26,.42,1.93-.14,.34-.34,.59-.61,.73-.27,.14-.58,.21-.92,.19-.34-.02-.68-.09-1.03-.23-.66-.26-1.09-.65-1.3-1.17s-.19-1.14,.05-1.85l.26-.77-.43-.17c-.51-.2-.91-.28-1.2-.24-.29,.04-.5,.22-.63,.54-.14,.36-.17,.83-.09,1.4l-.88,.02c-.12-.64-.05-1.28,.21-1.92Zm3.75,.64l-.2,.6c-.3,.91-.02,1.53,.84,1.87,.41,.16,.74,.21,.98,.15,.24-.06,.42-.22,.52-.48,.14-.34,.08-.68-.18-1.02-.26-.33-.69-.62-1.3-.87l-.67-.26Z"/><path class="b" d="M541.57,426.15c.39-1.09,1.35-1.36,2.87-.8l4.53,1.65-.37,1.01-4.33-1.57c-.52-.19-.94-.27-1.26-.23-.31,.04-.52,.2-.63,.5-.16,.43-.08,.81,.24,1.14,.32,.33,.9,.65,1.76,.96l3.47,1.26-.37,1.01-6.69-2.43,.29-.81,.95,.22,.02-.06c-.28-.26-.46-.56-.55-.88-.08-.33-.07-.65,.05-.96Z"/><path class="b" d="M543.56,420.37c.36-1.1,1.31-1.4,2.84-.89l4.58,1.5-.33,1.02-4.38-1.44c-.53-.17-.95-.24-1.26-.19-.31,.05-.52,.22-.62,.52-.14,.44-.05,.82,.28,1.14,.33,.32,.92,.62,1.79,.91l3.51,1.15-.33,1.02-6.76-2.22,.27-.82,.96,.19,.02-.06c-.29-.25-.48-.54-.57-.86s-.09-.64,.02-.96Z"/><path class="b" d="M542.34,415.74c.12-.39,.42-.51,.91-.36,.48,.14,.67,.41,.55,.8-.06,.2-.17,.33-.33,.39s-.35,.07-.58,0c-.49-.15-.67-.43-.55-.83Zm2.71,.28l6.81,2.06-.31,1.03-6.81-2.06,.31-1.03Z"/><path class="b" d="M546.15,411.71c.31-1.12,1.24-1.46,2.8-1.03l4.65,1.29-.29,1.03-4.44-1.23c-.54-.15-.96-.19-1.27-.13s-.51,.25-.59,.55c-.12,.44-.01,.82,.33,1.12s.95,.58,1.83,.82l3.56,.99-.29,1.03-6.86-1.9,.23-.83,.96,.14,.02-.07c-.3-.24-.5-.52-.61-.84-.11-.32-.12-.64-.03-.96Z"/><path class="b" d="M547.48,406.61c.08-.33,.23-.59,.45-.8,.22-.21,.54-.36,.96-.46l.02-.06-.89-.34,.21-.88,6.99,1.7c.96,.23,1.65,.62,2.08,1.16,.42,.54,.52,1.27,.3,2.19-.08,.32-.18,.6-.31,.85s-.29,.48-.49,.69l-.99-.24c.45-.51,.74-1.01,.86-1.5,.13-.52,.08-.96-.13-1.29-.21-.34-.66-.59-1.32-.75l-.21-.05c-.15-.04-.31-.08-.49-.13-.18-.05-.38-.11-.58-.18v.05c.63,.55,.87,1.16,.7,1.82-.15,.64-.57,1.05-1.26,1.25-.68,.2-1.61,.15-2.78-.13-1.2-.29-2.06-.69-2.58-1.2-.52-.51-.7-1.08-.55-1.7Zm.98,0c-.1,.4,.06,.75,.47,1.06s1.06,.56,1.95,.77c.92,.22,1.61,.29,2.07,.19,.46-.1,.75-.35,.85-.76,.2-.84-.48-1.45-2.06-1.84l-.32-.08c-.91-.22-1.6-.28-2.08-.17-.48,.11-.77,.38-.88,.83Z"/></g><g><path class="b" d="M238.35,520.23l-.88-.68,5.14-6.71-1.45-1.11,.61-.8,3.79,2.9-.61,.8-1.45-1.11-5.14,6.71Z"/><path class="b" d="M246.74,517.43c.17,.13,.32,.27,.44,.44l-.79,.8c-.08-.14-.21-.27-.37-.39-.21-.15-.45-.2-.73-.14-.28,.06-.57,.2-.88,.43-.3,.23-.59,.54-.86,.91l-2.19,3-.87-.63,4.2-5.74,.67,.49-.6,1.07,.05,.04c.37-.25,.72-.4,1.05-.46,.33-.06,.62,0,.87,.19Z"/><path class="b" d="M249.58,519.44c.55,.38,.82,.83,.81,1.34-.01,.51-.24,1.09-.68,1.73l-2.74,3.94-.67-.47,.43-.9h-.02c-.73,.38-1.39,.38-1.97-.03-.3-.21-.5-.47-.58-.76-.08-.3-.07-.61,.02-.94,.09-.33,.25-.64,.46-.95,.4-.58,.88-.91,1.44-1,.56-.09,1.15,.07,1.79,.47l.69,.43,.26-.38c.31-.45,.48-.82,.5-1.12,.02-.3-.1-.54-.38-.73-.32-.22-.77-.36-1.35-.4l.18-.86c.65,.04,1.26,.25,1.82,.63Zm-1.47,3.51l-.54-.33c-.81-.5-1.49-.37-2.02,.39-.25,.36-.37,.67-.37,.92,0,.25,.12,.46,.35,.61,.31,.21,.65,.23,1.03,.06,.38-.17,.76-.53,1.14-1.07l.41-.59Z"/><path class="b" d="M256.14,523.96l-3.89,5.96-.72-.47,.42-.86-.07-.04c-.32,.21-.64,.33-.97,.33-.33,0-.63-.08-.91-.26-.54-.35-.79-.8-.75-1.34,.04-.54,.28-1.14,.71-1.81l2.53-3.88,.9,.59-2.42,3.72c-.34,.53-.54,.95-.58,1.28-.05,.33,.06,.58,.31,.74,.41,.27,.81,.29,1.2,.05,.38-.23,.81-.71,1.27-1.42l2.07-3.17,.9,.59Z"/><path class="b" d="M262.56,527.73c.95,.57,1.01,1.57,.16,2.98l-2.45,4.09-.92-.55,2.35-3.92c.32-.53,.48-.95,.49-1.25,0-.3-.12-.53-.38-.69-.36-.22-.72-.2-1.08,.05-.36,.25-.74,.72-1.14,1.38l-2.01,3.37-.91-.54,2.37-3.96c.31-.52,.47-.93,.47-1.23,0-.3-.13-.52-.38-.68-.27-.16-.54-.2-.79-.1-.25,.1-.51,.3-.76,.6-.25,.3-.51,.67-.77,1.1l-1.91,3.2-.92-.55,3.65-6.11,.74,.44-.39,.89,.06,.03c.62-.48,1.24-.54,1.87-.16,.35,.21,.57,.47,.66,.77,.09,.31,.09,.62,0,.94l.07,.04c.34-.25,.67-.39,.98-.42,.31-.03,.63,.05,.96,.25Z"/><path class="b" d="M267.27,530.38c.59,.32,.9,.74,.95,1.25,.04,.51-.12,1.11-.5,1.79l-2.3,4.21-.72-.39,.33-.94h-.02c-.68,.46-1.34,.53-1.96,.18-.33-.18-.54-.41-.65-.7-.11-.29-.14-.6-.08-.93,.06-.34,.18-.67,.35-.99,.34-.62,.78-1,1.32-1.15s1.15-.05,1.83,.28l.73,.35,.22-.41c.26-.48,.39-.87,.38-1.17,0-.3-.16-.53-.46-.69-.34-.19-.8-.27-1.38-.26l.09-.88c.65-.03,1.28,.11,1.88,.44Zm-1.09,3.65l-.58-.27c-.86-.41-1.52-.21-1.96,.6-.21,.39-.3,.71-.27,.96,.03,.25,.17,.44,.41,.57,.33,.18,.67,.16,1.03-.05,.36-.21,.7-.61,1.02-1.18l.34-.63Z"/><path class="b" d="M268.1,535.61l.49-.95,2.59,1.34-.49,.95-2.59-1.34Z"/><path class="b" d="M274.71,534.39l-3.16,6.38-.96-.48,3.16-6.38,.96,.48Zm.73-2.63c.36,.18,.43,.5,.21,.96-.22,.45-.52,.59-.88,.41-.18-.09-.29-.22-.33-.39-.04-.17,0-.36,.1-.57,.23-.46,.53-.59,.91-.41Z"/><path class="b" d="M278.76,536.18c1.05,.49,1.23,1.47,.55,2.93l-2.04,4.37-.97-.45,1.95-4.18c.24-.5,.35-.91,.34-1.23,0-.32-.16-.54-.45-.68-.42-.19-.8-.15-1.16,.14-.36,.29-.73,.84-1.11,1.67l-1.56,3.35-.97-.45,3.01-6.45,.78,.37-.3,.93,.06,.03c.29-.26,.59-.41,.93-.47,.33-.05,.65-.01,.96,.13Z"/><path class="b" d="M283.68,539.51l-1.03-.45-2.49,5.7-.98-.43,2.49-5.69-.79-.35,.23-.52h.94l.16-.37c.33-.75,.69-1.29,1.07-1.61,.39-.32,.86-.35,1.44-.1,.18,.08,.33,.17,.47,.26,.14,.1,.27,.22,.42,.35l-.6,.68c-.09-.08-.18-.15-.27-.22-.09-.07-.18-.12-.27-.16-.24-.1-.44-.07-.62,.11-.18,.17-.39,.53-.64,1.08l-.2,.45,1.03,.45-.36,.83Z"/><path class="b" d="M287.88,544.11c-.28,.68-.6,1.24-.97,1.69-.37,.45-.78,.75-1.22,.91s-.92,.12-1.44-.09c-.48-.2-.83-.5-1.04-.92-.21-.42-.29-.92-.25-1.5,.05-.58,.21-1.21,.49-1.9,.44-1.09,.97-1.85,1.57-2.3s1.28-.51,2.04-.2c.7,.28,1.12,.79,1.27,1.53,.15,.74,0,1.66-.46,2.78Zm-3.41-1.39c-.34,.84-.51,1.52-.49,2.03s.23,.85,.65,1.02c.8,.33,1.55-.36,2.24-2.06,.69-1.69,.64-2.7-.17-3.03-.42-.17-.82-.09-1.18,.26-.36,.35-.71,.94-1.06,1.79Z"/><path class="b" d="M292.98,542.1c.2,.08,.38,.18,.54,.3l-.54,.98c-.12-.11-.27-.2-.46-.27-.24-.09-.49-.07-.74,.06-.26,.13-.5,.35-.73,.65-.23,.3-.42,.67-.59,1.1l-1.31,3.47-1-.38,2.51-6.66,.78,.29-.29,1.19,.06,.02c.29-.33,.58-.57,.89-.72,.3-.14,.6-.16,.89-.05Z"/><path class="b" d="M299.89,544.52c1.05,.36,1.32,1.32,.79,2.88l-1.53,4.52-1.02-.34,1.47-4.33c.2-.59,.27-1.03,.21-1.33-.06-.3-.23-.5-.51-.59-.4-.14-.75-.04-1.05,.28-.3,.32-.57,.85-.82,1.59l-1.26,3.71-1-.34,1.48-4.37c.2-.58,.26-1.01,.2-1.3-.06-.29-.23-.49-.52-.58-.3-.1-.57-.08-.79,.07-.23,.15-.43,.4-.62,.75-.18,.35-.36,.76-.52,1.24l-1.19,3.53-1.02-.34,2.28-6.74,.82,.28-.2,.95,.06,.02c.5-.6,1.1-.79,1.8-.55,.38,.13,.66,.34,.81,.62,.16,.28,.22,.59,.19,.92l.08,.03c.28-.31,.57-.52,.87-.62,.29-.1,.62-.08,.99,.04Z"/><path class="b" d="M305.05,546.12c.47,.14,.81,.39,1.04,.74,.23,.36,.35,.79,.37,1.28,.02,.5-.06,1.03-.23,1.6l-.21,.71-3.24-.96c-.46,1.65-.2,2.62,.78,2.91,.25,.07,.5,.11,.76,.11,.26,0,.55-.05,.85-.14l-.27,.91c-.56,.15-1.13,.13-1.72-.04-.58-.17-1.01-.46-1.27-.87-.26-.41-.39-.9-.4-1.48,0-.58,.09-1.2,.29-1.86,.34-1.16,.79-1.99,1.34-2.49,.55-.5,1.18-.64,1.9-.43Zm-.25,.84c-.35-.1-.67-.01-.96,.27-.3,.28-.56,.77-.81,1.46l2.26,.67c.11-.37,.17-.73,.19-1.06,.02-.33-.03-.62-.14-.86-.11-.24-.29-.4-.54-.47Z"/><path class="b" d="M308.36,554.71c-.66-.17-1.08-.61-1.26-1.3-.18-.7-.12-1.62,.19-2.79,.3-1.14,.7-1.98,1.21-2.51,.5-.53,1.07-.71,1.7-.54,.32,.08,.59,.25,.81,.49,.22,.25,.38,.55,.46,.92h.05c.08-.38,.15-.7,.21-.94l.74-2.79,1.04,.27-2.56,9.74-.83-.22,.09-.91-.06-.02c-.27,.28-.55,.47-.84,.57-.29,.11-.6,.12-.93,.03Zm.48-.82c.84,.22,1.48-.46,1.89-2.04l.1-.38c.23-.89,.3-1.57,.2-2.04-.1-.47-.37-.76-.82-.88-.4-.11-.76,.04-1.06,.45-.31,.41-.57,1.04-.8,1.89-.47,1.79-.31,2.78,.49,2.99Z"/><path class="b" d="M317.67,556.81l-1.09-.24,1.8-8.26-1.79-.39,.21-.98,4.66,1.02-.21,.98-1.79-.39-1.8,8.26Z"/><path class="b" d="M324.07,550.71c.21,.04,.4,.11,.58,.21l-.37,1.06c-.14-.09-.3-.15-.5-.19-.25-.05-.49,.01-.72,.18-.23,.17-.44,.43-.61,.77-.17,.34-.31,.73-.39,1.19l-.71,3.64-1.05-.21,1.36-6.98,.82,.16-.09,1.22h.06c.23-.37,.48-.65,.75-.84,.28-.19,.57-.26,.87-.2Z"/><path class="b" d="M327.52,551.33c.48,.08,.85,.28,1.12,.61,.27,.33,.44,.74,.52,1.23,.08,.49,.07,1.03-.03,1.62l-.12,.73-3.33-.56c-.26,1.69,.11,2.63,1.12,2.8,.25,.04,.51,.05,.77,.02,.26-.03,.54-.11,.83-.24l-.16,.94c-.54,.21-1.11,.27-1.71,.17-.6-.1-1.06-.34-1.36-.72-.31-.38-.5-.85-.57-1.42s-.05-1.2,.06-1.88c.2-1.19,.55-2.07,1.03-2.63,.49-.56,1.1-.78,1.84-.66Zm-.15,.86c-.36-.06-.67,.07-.92,.38s-.47,.83-.62,1.55l2.33,.39c.06-.38,.08-.74,.06-1.08-.02-.34-.1-.62-.24-.84-.14-.23-.34-.36-.6-.4Z"/><path class="b" d="M333.05,552.17c.67,.09,1.11,.37,1.33,.83,.22,.46,.28,1.08,.17,1.85l-.66,4.75-.81-.11-.02-.99h-.03c-.47,.68-1.06,.97-1.77,.87-.37-.05-.65-.19-.86-.42-.21-.23-.34-.51-.4-.85-.07-.33-.07-.69-.02-1.05,.1-.7,.38-1.21,.83-1.54,.46-.33,1.06-.46,1.81-.39l.81,.07,.06-.46c.08-.54,.06-.95-.06-1.23-.11-.28-.34-.44-.67-.48-.39-.05-.85,.03-1.39,.25l-.23-.85c.6-.26,1.23-.35,1.91-.25Zm.27,3.8l-.64-.05c-.95-.08-1.49,.34-1.62,1.26-.06,.44-.03,.77,.09,.99,.12,.22,.32,.35,.59,.39,.37,.05,.68-.09,.95-.42,.27-.33,.44-.82,.53-1.46l.1-.71Z"/><path class="b" d="M337.67,559.23c.11,.01,.21,.01,.32,0,.11-.01,.22-.03,.33-.06l-.1,.87c-.15,.05-.31,.09-.47,.11-.17,.02-.35,.01-.54,0-.46-.05-.79-.25-.97-.59s-.24-.82-.17-1.45l.51-4.42-.66-.08,.07-.58,.74-.21,.48-1.59,.72,.08-.18,1.59,1.19,.14-.1,.89-1.19-.14-.5,4.29c-.04,.36-.03,.63,.04,.82,.07,.19,.23,.29,.48,.32Z"/><path class="b" d="M345.82,553.53c1.11,.09,1.6,.96,1.46,2.61l-.39,4.75-1.07-.09,.37-4.56c.05-.62,.01-1.06-.12-1.34-.13-.28-.34-.43-.64-.45-.42-.04-.74,.14-.95,.53-.21,.39-.35,.97-.41,1.74l-.32,3.91-1.06-.09,.38-4.6c.05-.61,.01-1.04-.12-1.31-.13-.27-.34-.41-.64-.44-.32-.03-.57,.06-.75,.26-.19,.2-.32,.49-.42,.88-.09,.38-.16,.82-.2,1.33l-.31,3.71-1.07-.09,.58-7.09,.86,.07,.04,.97h.07c.34-.7,.88-1.03,1.61-.97,.4,.03,.72,.17,.94,.4,.22,.24,.36,.52,.41,.85h.08c.2-.37,.43-.64,.69-.8,.26-.16,.59-.23,.97-.2Z"/><path class="b" d="M351.23,553.85c.49,.02,.88,.18,1.19,.47,.31,.29,.53,.68,.67,1.16,.14,.48,.19,1.01,.17,1.61l-.03,.74-3.37-.15c-.05,1.71,.44,2.59,1.46,2.64,.26,.01,.51-.01,.77-.08,.26-.07,.52-.18,.79-.34l-.04,.95c-.51,.28-1.06,.4-1.67,.38-.61-.03-1.09-.21-1.44-.54-.35-.33-.6-.78-.74-1.34-.14-.56-.2-1.18-.17-1.87,.05-1.21,.29-2.12,.7-2.74,.41-.62,.99-.91,1.74-.88Zm-.04,.87c-.36-.02-.65,.15-.87,.49-.22,.34-.36,.88-.43,1.61l2.36,.1c.02-.39,0-.75-.07-1.08-.07-.33-.18-.6-.34-.8s-.38-.32-.64-.33Z"/><path class="b" d="M357.46,554c1.16,.02,1.72,.83,1.7,2.45l-.07,4.82-1.07-.02,.06-4.61c0-.56-.06-.98-.2-1.26-.14-.28-.37-.43-.68-.43-.46,0-.79,.19-1,.6-.21,.41-.32,1.07-.33,1.98l-.05,3.7h-1.07l.1-7.13h.86l.11,.98h.07c.15-.35,.37-.62,.65-.81,.28-.19,.59-.28,.92-.27Z"/><path class="b" d="M362.81,560.42c.11,0,.21-.02,.32-.04,.11-.03,.21-.06,.32-.1v.88c-.13,.07-.28,.13-.45,.16-.16,.04-.34,.06-.54,.06-.47,0-.81-.15-1.04-.46-.23-.31-.34-.78-.35-1.42l-.05-4.45h-.66v-.58l.71-.3,.27-1.63h.73l.02,1.6h1.19v.89h-1.18l.05,4.33c0,.36,.05,.63,.14,.81,.09,.18,.26,.26,.52,.26Z"/></g><g><path class="b" d="M407.18,175.18l-3.66-.89,2.24-9.19,3.66,.89-.24,.97-2.57-.63-.72,2.95,2.42,.59-.24,.96-2.42-.59-.81,3.33,2.57,.63-.24,.98Z"/><path class="b" d="M412.45,169.09c.65,.18,1.05,.51,1.21,1,.16,.49,.14,1.11-.07,1.86l-1.27,4.62-.79-.22,.11-.99h-.03c-.55,.61-1.18,.82-1.87,.63-.36-.1-.62-.28-.79-.53-.17-.25-.27-.55-.29-.89-.02-.34,.02-.69,.12-1.05,.19-.68,.53-1.16,1.02-1.42,.49-.27,1.11-.32,1.84-.15l.79,.17,.12-.45c.14-.53,.18-.94,.1-1.22-.08-.29-.28-.47-.6-.56-.37-.1-.84-.08-1.41,.07l-.12-.87c.63-.18,1.27-.19,1.93,0Zm-.22,3.8l-.62-.13c-.93-.2-1.52,.14-1.77,1.04-.12,.43-.13,.76-.04,.99,.09,.24,.27,.39,.53,.46,.36,.1,.69,0,.99-.29,.3-.29,.54-.75,.72-1.38l.19-.69Z"/><path class="b" d="M418.44,170.83c.2,.06,.39,.15,.56,.27l-.47,1.02c-.13-.1-.29-.18-.48-.24-.24-.07-.49-.04-.74,.11-.25,.15-.47,.38-.68,.7-.21,.32-.38,.7-.51,1.14l-1.07,3.55-1.03-.31,2.06-6.81,.8,.24-.21,1.21,.06,.02c.26-.35,.54-.61,.84-.78,.29-.16,.59-.2,.88-.11Z"/><path class="b" d="M418.99,178.61l-1.02-.33,3.09-9.58,1.02,.33-3.09,9.58Z"/><path class="b" d="M422.26,172.18l1.05,.36-.4,4.12c-.03,.26-.07,.53-.1,.81s-.08,.55-.14,.82l.05,.02c.21-.42,.49-.9,.83-1.42l2.2-3.5,1.04,.36-4.65,7.06c-.42,.63-.83,1.05-1.22,1.28-.39,.22-.81,.25-1.27,.09-.1-.03-.2-.08-.29-.13-.09-.05-.19-.11-.3-.19l.31-.9c.08,.05,.15,.1,.23,.15,.08,.04,.15,.08,.23,.11,.24,.08,.46,.05,.66-.09s.44-.43,.73-.86l.51-.78,.53-7.3Z"/><path class="b" d="M430.05,182.59l-2.64-1.02,.23-.59,.88,.1,2.79-7.22-.72-.52,.23-.59,2.64,1.02-.23,.59-.88-.1-2.79,7.22,.72,.52-.23,.59Z"/><path class="b" d="M432.94,183.91c-.63-.26-.98-.75-1.07-1.46-.08-.71,.11-1.63,.57-2.74,.46-1.09,.97-1.87,1.54-2.32,.57-.46,1.16-.56,1.76-.3,.3,.13,.54,.33,.73,.6,.19,.28,.3,.6,.33,.98l.05,.02c.13-.38,.24-.68,.34-.92l1.11-2.67,.99,.41-3.88,9.29-.79-.33,.21-.89-.06-.03c-.31,.24-.61,.39-.91,.45-.3,.07-.61,.03-.93-.1Zm.58-.75c.81,.34,1.53-.25,2.16-1.76l.15-.37c.35-.85,.51-1.51,.48-1.99-.03-.48-.26-.81-.69-.98-.38-.16-.76-.06-1.12,.3s-.71,.95-1.05,1.76c-.71,1.7-.69,2.71,.07,3.03Z"/><path class="b" d="M441.83,179.75c.44,.2,.75,.49,.92,.88,.18,.38,.24,.82,.19,1.32-.05,.5-.2,1.01-.44,1.55l-.31,.68-3.08-1.4c-.68,1.57-.56,2.57,.37,2.99,.23,.11,.48,.18,.74,.21,.26,.04,.55,.03,.86-.02l-.39,.87c-.57,.07-1.14-.02-1.69-.28-.55-.25-.93-.6-1.14-1.04-.2-.44-.27-.95-.19-1.52,.08-.57,.25-1.17,.54-1.8,.5-1.1,1.06-1.86,1.67-2.28,.61-.42,1.26-.48,1.94-.17Zm-.36,.8c-.33-.15-.66-.11-.99,.13-.33,.24-.66,.68-1,1.34l2.15,.97c.16-.35,.27-.7,.33-1.03s.06-.62-.02-.88c-.07-.25-.23-.43-.47-.54Z"/><path class="b" d="M447.67,182.5c1.04,.51,1.2,1.49,.49,2.94l-2.13,4.33-.96-.47,2.03-4.14c.25-.5,.37-.91,.36-1.22,0-.32-.15-.54-.43-.68-.41-.2-.8-.16-1.16,.12s-.75,.83-1.15,1.64l-1.63,3.32-.96-.47,3.14-6.39,.77,.38-.32,.92,.06,.03c.29-.25,.6-.4,.94-.45,.33-.05,.65,0,.95,.15Z"/><path class="b" d="M449.54,190.67c.09,.05,.19,.09,.3,.11,.11,.03,.21,.05,.32,.06l-.4,.78c-.16,0-.32-.03-.48-.07s-.33-.11-.5-.2c-.42-.22-.65-.52-.7-.9s.07-.85,.37-1.42l2.06-3.95-.59-.31,.27-.52,.77,.07,1.01-1.31,.65,.34-.74,1.42,1.06,.55-.42,.8-1.06-.55-2,3.83c-.17,.32-.25,.58-.26,.78,0,.2,.11,.36,.34,.47Z"/><path class="b" d="M455.07,186.5l-3.4,6.25-.94-.51,3.4-6.25,.94,.51Zm.83-2.6c.36,.19,.41,.52,.17,.97-.24,.44-.54,.57-.9,.37-.18-.1-.29-.23-.32-.4-.03-.17,0-.36,.12-.57,.24-.45,.55-.57,.93-.37Z"/><path class="b" d="M458.34,189.36l-.98-.55-3.06,5.41-.94-.53,3.06-5.41-.75-.42,.28-.5,.93,.1,.2-.36c.4-.72,.81-1.21,1.23-1.49,.42-.28,.9-.26,1.44,.05,.17,.09,.31,.2,.44,.31,.12,.11,.25,.24,.38,.4l-.67,.61c-.08-.09-.17-.17-.25-.25-.08-.08-.17-.14-.25-.19-.22-.13-.43-.11-.62,.04-.19,.15-.44,.49-.75,1.01l-.24,.43,.98,.55-.44,.78Z"/><path class="b" d="M460.79,189.75l-3.6,6.14-.93-.54,3.6-6.14,.92,.54Zm.91-2.57c.35,.21,.39,.53,.14,.97-.26,.43-.56,.55-.91,.34-.18-.1-.28-.24-.3-.41-.03-.17,.02-.36,.14-.56,.26-.44,.57-.56,.94-.34Z"/><path class="b" d="M460.44,198c-1.34-.82-1.38-2.27-.11-4.34,.61-.99,1.26-1.67,1.94-2.03,.68-.36,1.36-.33,2.05,.09,.23,.14,.43,.3,.59,.46,.16,.17,.29,.34,.4,.53l-.75,.58c-.19-.33-.42-.57-.67-.72-.77-.48-1.65,.07-2.61,1.65-.95,1.54-1.03,2.55-.24,3.04,.16,.1,.35,.18,.55,.23,.2,.05,.41,.09,.64,.11l-.47,.77c-.22,0-.45-.03-.69-.1-.24-.08-.45-.16-.62-.27Z"/><path class="b" d="M468.31,194.26c.56,.37,.85,.81,.85,1.32,0,.51-.21,1.1-.63,1.75l-2.61,4.02-.69-.45,.4-.91h-.02c-.72,.41-1.37,.42-1.97,.03-.31-.2-.51-.45-.6-.74-.09-.29-.09-.61,0-.94,.08-.33,.23-.65,.43-.96,.38-.59,.85-.94,1.41-1.05,.55-.1,1.15,.03,1.8,.41l.7,.41,.25-.39c.3-.46,.45-.84,.47-1.13,.01-.3-.12-.54-.4-.72-.33-.21-.78-.33-1.36-.36l.15-.87c.66,.01,1.27,.21,1.84,.58Zm-1.36,3.56l-.56-.31c-.83-.47-1.49-.32-2,.45-.24,.37-.35,.68-.34,.93,.01,.25,.14,.45,.37,.6,.31,.2,.66,.21,1.04,.02,.38-.19,.75-.55,1.1-1.1l.39-.6Z"/><path class="b" d="M469.29,202.65c.09,.06,.18,.11,.28,.15s.21,.07,.32,.1l-.49,.72c-.16-.02-.31-.06-.47-.13-.15-.06-.31-.15-.47-.26-.39-.26-.58-.59-.59-.97s.17-.84,.53-1.36l2.51-3.68-.55-.37,.33-.48,.75,.16,1.16-1.18,.6,.41-.9,1.32,.98,.67-.51,.74-.98-.67-2.44,3.57c-.21,.3-.32,.55-.35,.74-.03,.2,.07,.37,.28,.51Z"/><path class="b" d="M475.28,199.16l-4.11,5.81-.88-.62,4.11-5.81,.88,.62Zm1.13-2.48c.33,.23,.35,.56,.05,.98-.29,.41-.6,.5-.93,.26-.17-.12-.26-.26-.27-.43-.01-.17,.05-.36,.19-.55,.3-.42,.62-.5,.96-.26Z"/><path class="b" d="M478.35,205.82c-.44,.59-.89,1.05-1.36,1.4-.47,.34-.94,.54-1.41,.57-.47,.04-.92-.11-1.37-.44-.42-.31-.68-.7-.78-1.16-.1-.46-.05-.96,.13-1.51,.19-.55,.5-1.12,.94-1.72,.7-.94,1.4-1.55,2.09-1.84,.69-.28,1.37-.18,2.03,.31,.6,.45,.89,1.05,.85,1.8-.04,.75-.41,1.61-1.13,2.58Zm-2.96-2.2c-.54,.73-.87,1.34-.98,1.84-.11,.5,.02,.88,.38,1.15,.69,.52,1.59,.04,2.69-1.44,1.09-1.47,1.29-2.46,.59-2.97-.37-.27-.77-.29-1.21-.04-.44,.25-.93,.74-1.47,1.47Z"/><path class="b" d="M483.95,205.53c.91,.72,.86,1.71-.15,2.98l-3,3.78-.84-.67,2.87-3.61c.35-.44,.55-.81,.62-1.12,.06-.31-.03-.56-.28-.76-.36-.29-.75-.33-1.16-.13-.41,.2-.9,.65-1.47,1.36l-2.3,2.9-.84-.67,4.42-5.57,.67,.54-.51,.83,.05,.04c.34-.18,.67-.26,1.01-.24,.34,.02,.63,.14,.9,.35Z"/><path class="b" d="M490.36,210.86c.51,.44,.73,.91,.66,1.42-.07,.51-.36,1.06-.87,1.64l-3.14,3.62-.62-.54,.52-.85-.02-.02c-.77,.32-1.42,.24-1.96-.23-.28-.24-.44-.52-.49-.82-.05-.3,0-.61,.12-.93,.13-.32,.31-.61,.56-.89,.46-.54,.97-.81,1.54-.84,.56-.03,1.14,.19,1.73,.66l.64,.5,.3-.35c.36-.41,.57-.77,.62-1.06,.05-.29-.05-.55-.3-.77-.29-.25-.73-.44-1.3-.55l.27-.83c.65,.1,1.23,.38,1.74,.82Zm-1.84,3.33l-.51-.39c-.76-.58-1.44-.53-2.04,.17-.29,.33-.44,.63-.46,.88-.02,.25,.07,.47,.28,.65,.28,.24,.62,.3,1.02,.17,.4-.13,.82-.44,1.24-.94l.47-.54Z"/><path class="b" d="M495.16,215.17c.85,.78,.73,1.77-.37,2.96l-3.27,3.54-.79-.73,3.13-3.39c.38-.41,.61-.76,.7-1.07s.02-.56-.22-.78c-.34-.31-.72-.39-1.15-.22s-.95,.58-1.57,1.25l-2.51,2.72-.79-.73,4.83-5.23,.63,.58-.57,.79,.05,.04c.35-.16,.69-.21,1.02-.16,.33,.05,.62,.19,.87,.42Z"/><path class="b" d="M493.96,224.23c-.48-.48-.63-1.06-.44-1.76,.19-.7,.7-1.47,1.55-2.33,.83-.84,1.6-1.37,2.3-1.58,.7-.21,1.28-.08,1.75,.38,.23,.23,.38,.51,.46,.83,.07,.32,.05,.67-.06,1.03l.04,.04c.26-.3,.48-.54,.66-.73l2.03-2.06,.76,.75-7.06,7.18-.61-.6,.53-.74-.05-.05c-.38,.1-.71,.13-1.02,.08-.3-.05-.58-.2-.82-.44Zm.82-.47c.62,.61,1.51,.34,2.66-.83l.28-.28c.64-.66,1.04-1.21,1.19-1.67,.15-.46,.06-.85-.27-1.17-.3-.29-.68-.34-1.15-.13-.47,.2-1.01,.62-1.63,1.24-1.3,1.32-1.65,2.26-1.07,2.84Z"/><path class="b" d="M500.62,230.88l-1.94-2.07,.46-.44,.75,.47,5.64-5.29-.42-.78,.46-.44,1.94,2.07-.46,.43-.75-.47-5.64,5.29,.42,.78-.46,.44Z"/><path class="b" d="M508.7,229.02c.77,.86,.55,1.83-.66,2.91l-3.6,3.21-.71-.8,3.44-3.07c.42-.37,.68-.7,.8-1s.07-.56-.14-.8c-.31-.34-.68-.45-1.12-.33s-1,.48-1.68,1.09l-2.76,2.46-.71-.8,5.31-4.73,.57,.64-.64,.73,.04,.05c.36-.12,.71-.14,1.04-.06,.33,.08,.6,.25,.83,.5Z"/><path class="b" d="M507.36,237.3c.07,.08,.15,.15,.24,.22,.09,.06,.18,.12,.28,.18l-.67,.57c-.15-.06-.28-.14-.42-.25-.13-.1-.26-.23-.39-.38-.3-.36-.41-.72-.31-1.09s.39-.76,.87-1.17l3.4-2.88-.43-.51,.45-.38,.69,.36,1.43-.83,.47,.56-1.22,1.04,.77,.91-.69,.58-.77-.91-3.3,2.79c-.28,.23-.45,.44-.53,.62-.08,.18-.03,.37,.13,.57Z"/><path class="b" d="M514.75,236.2c.3,.38,.45,.78,.43,1.2-.02,.42-.16,.84-.43,1.26-.27,.42-.63,.82-1.09,1.19l-.58,.47-2.12-2.63c-1.32,1.1-1.65,2.04-1.01,2.84,.16,.2,.35,.37,.57,.52,.22,.15,.48,.27,.78,.37l-.74,.6c-.54-.2-1.01-.53-1.39-1.01-.38-.47-.57-.95-.55-1.44,.02-.48,.19-.97,.51-1.44,.32-.48,.76-.93,1.29-1.36,.94-.76,1.78-1.19,2.52-1.29,.74-.1,1.34,.14,1.81,.73Zm-.68,.55c-.23-.28-.54-.39-.94-.33-.4,.06-.9,.31-1.49,.74l1.48,1.84c.3-.24,.56-.5,.76-.77,.21-.27,.33-.53,.38-.79s-.01-.49-.18-.7Z"/><path class="b" d="M518.6,241.12c.13,.17,.23,.35,.3,.54l-.98,.55c-.04-.16-.12-.32-.25-.48-.16-.2-.38-.32-.66-.34-.29-.03-.61,.03-.96,.17-.36,.14-.72,.35-1.08,.63l-2.95,2.25-.65-.85,5.65-4.32,.51,.66-.88,.86,.04,.05c.42-.13,.8-.18,1.13-.14,.33,.04,.6,.18,.78,.43Z"/><path class="b" d="M514.41,247.64l4.7-5.63,.65,.89-2.86,3.26c-.18,.21-.36,.41-.55,.61-.19,.21-.39,.41-.61,.61l.03,.04c.13-.07,.31-.16,.53-.27,.22-.11,.46-.22,.74-.34l4.25-1.81,.65,.89-6.82,2.71-.7-.96Z"/><path class="b" d="M523.84,248.44c.27,.4,.39,.81,.34,1.23-.05,.42-.22,.83-.52,1.23-.3,.4-.69,.76-1.18,1.1l-.61,.42-1.91-2.79c-1.4,.99-1.81,1.91-1.23,2.75,.15,.21,.32,.4,.52,.56,.2,.17,.45,.31,.75,.43l-.79,.54c-.53-.24-.96-.61-1.31-1.11s-.49-1-.43-1.48c.05-.48,.26-.95,.62-1.4,.36-.45,.83-.87,1.39-1.26,1-.68,1.87-1.05,2.61-1.09s1.32,.25,1.75,.87Zm-.72,.5c-.2-.3-.51-.43-.92-.4s-.92,.24-1.55,.63l1.33,1.95c.32-.22,.59-.46,.82-.71,.23-.25,.37-.5,.44-.76s.03-.49-.12-.71Z"/><path class="b" d="M527.4,253.81c.62,.97,.26,1.9-1.11,2.77l-4.06,2.6-.58-.9,3.88-2.49c.47-.3,.78-.59,.95-.86,.16-.27,.16-.54-.01-.81-.25-.39-.6-.55-1.06-.5-.46,.05-1.07,.32-1.83,.81l-3.11,2-.58-.9,5.99-3.84,.46,.72-.75,.62,.04,.06c.38-.06,.72-.03,1.03,.1,.31,.13,.55,.34,.74,.62Z"/><path class="b" d="M524.77,261.77c.05,.09,.12,.17,.2,.25,.08,.08,.16,.15,.25,.22l-.75,.45c-.13-.08-.26-.19-.37-.31-.12-.12-.22-.27-.32-.43-.24-.4-.29-.78-.13-1.13s.5-.69,1.05-1.02l3.81-2.31-.34-.57,.5-.3,.62,.46,1.54-.6,.38,.62-1.37,.83,.62,1.02-.77,.47-.62-1.02-3.69,2.24c-.31,.19-.52,.37-.62,.53-.11,.17-.09,.36,.04,.58Z"/><path class="b" d="M531.66,261.06l-6.15,3.59-.54-.93,6.15-3.58,.54,.93Zm2.05-1.79c.21,.35,.09,.66-.36,.91-.44,.25-.75,.21-.96-.15-.1-.18-.12-.34-.07-.51s.19-.3,.4-.42c.44-.26,.77-.2,.98,.16Z"/><path class="b" d="M531.7,268.4c-.64,.35-1.25,.59-1.82,.71s-1.08,.1-1.52-.06c-.44-.16-.8-.48-1.07-.97-.25-.46-.33-.91-.23-1.37,.1-.46,.35-.9,.75-1.32,.4-.42,.92-.81,1.57-1.17,1.03-.57,1.92-.84,2.67-.81,.75,.03,1.32,.41,1.72,1.12,.36,.66,.37,1.32,.03,1.99-.34,.67-1.04,1.29-2.1,1.88Zm-1.78-3.23c-.8,.44-1.35,.86-1.65,1.27-.31,.41-.35,.81-.13,1.2,.42,.76,1.43,.69,3.04-.2,1.6-.88,2.19-1.71,1.77-2.46-.22-.4-.58-.58-1.08-.54-.5,.04-1.15,.29-1.95,.72Z"/><path class="b" d="M536.93,270.46c.53,1.03,.07,1.91-1.37,2.65l-4.29,2.2-.49-.96,4.1-2.1c.5-.25,.84-.51,1.02-.76s.21-.52,.06-.81c-.21-.41-.54-.61-1-.6-.46,0-1.09,.22-1.9,.63l-3.29,1.69-.49-.96,6.33-3.24,.39,.77-.8,.55,.03,.06c.38-.03,.72,.04,1.02,.2,.3,.16,.52,.39,.67,.69Z"/></g><g><path class="b" d="M400.95,551.96c.31,1.57,.28,2.81-.12,3.72s-1.12,1.47-2.18,1.69l-1.87,.37-1.85-9.28,1.95-.39c1.03-.21,1.89,.02,2.59,.69,.7,.66,1.19,1.73,1.48,3.21Zm-1.13,.28c-.48-2.4-1.41-3.46-2.78-3.19l-.82,.16,1.46,7.33,.74-.15c.75-.15,1.23-.57,1.44-1.27s.2-1.66-.04-2.89Z"/><path class="b" d="M403.97,548.82c.47-.11,.9-.07,1.27,.13,.37,.2,.69,.51,.95,.93,.26,.42,.46,.92,.59,1.5l.17,.72-3.29,.77c.42,1.66,1.12,2.38,2.12,2.15,.25-.06,.49-.15,.72-.28,.23-.13,.45-.31,.67-.54l.22,.93c-.41,.4-.92,.68-1.51,.81s-1.11,.09-1.53-.13c-.43-.22-.79-.59-1.08-1.09-.29-.5-.51-1.09-.67-1.76-.28-1.18-.3-2.12-.07-2.83,.23-.71,.71-1.14,1.44-1.32Zm.2,.85c-.35,.08-.59,.32-.71,.71-.12,.39-.11,.95,.02,1.67l2.3-.54c-.09-.38-.21-.72-.36-1.02s-.33-.53-.55-.68-.45-.2-.71-.14Z"/><path class="b" d="M410.8,553.74c.1-.03,.2-.07,.3-.12,.1-.05,.19-.11,.29-.17l.22,.85c-.12,.1-.25,.19-.4,.27-.15,.08-.32,.14-.51,.19-.45,.12-.83,.05-1.12-.2-.29-.25-.52-.68-.68-1.3l-1.11-4.31-.64,.17-.15-.56,.62-.46-.13-1.65,.71-.18,.4,1.55,1.16-.3,.22,.87-1.15,.3,1.08,4.18c.09,.35,.2,.6,.33,.75,.13,.15,.32,.19,.57,.13Z"/><path class="b" d="M416.24,549.38c.2,.71,.29,1.35,.28,1.93-.01,.58-.15,1.07-.4,1.46-.26,.39-.65,.67-1.19,.82-.5,.14-.96,.11-1.39-.09-.42-.2-.8-.54-1.12-1.03-.32-.48-.58-1.08-.79-1.79-.32-1.13-.38-2.06-.18-2.78,.2-.72,.69-1.2,1.48-1.42,.72-.21,1.37-.07,1.94,.42,.57,.48,1.03,1.31,1.36,2.47Zm-3.54,1.01c.25,.87,.54,1.51,.86,1.9,.33,.39,.71,.52,1.14,.4,.83-.24,1-1.24,.49-3.01-.5-1.76-1.17-2.52-2-2.28-.44,.12-.7,.44-.77,.93-.07,.5,.02,1.18,.27,2.06Z"/><path class="b" d="M418.54,548.55l-2.54-2.81,1.1-.35,1.77,2.14,.25-2.77,1.09-.34-.47,3.81,2.67,2.95-1.09,.34-1.94-2.27-.28,2.96-1.07,.34,.5-4.01Z"/></g></g></svg>