<?xml version="1.0" encoding="UTF-8"?><svg id="a" xmlns="http://www.w3.org/2000/svg" viewBox="0 0 720 720"><defs><style>.b{fill:#fff;}.c{fill:#658f7c;}</style></defs><g><path class="c" d="M359.39,226.26c-16.74,.08-33.43,3.33-48.92,9.48l15.63,36.97c10.57-4.12,21.72-6.24,33.29-6.31v-40.14Z"/><path class="c" d="M349.11,493.29l3.09-40.05c-15.06-1.25-29.11-6.06-41.31-13.61l-22.11,33.51c17.74,11.21,38.29,18.36,60.33,20.14Z"/><path class="c" d="M397.62,231.65c-11.04-3.24-22.67-5.1-34.69-5.36v40.18c8.03,.25,15.81,1.51,23.22,3.67l11.47-38.49Z"/><path class="c" d="M435.77,249.86c-10.59-7.31-22.28-13.13-34.77-17.16l-11.47,38.5c8.35,2.79,16.19,6.71,23.32,11.6l22.92-32.94Z"/><path class="c" d="M485.52,313.81l-37.44,14.54c3.56,9.89,5.52,20.54,5.52,31.65,0,10.45-1.75,20.5-4.92,29.89l37.79,13.63c4.71-13.65,7.28-28.29,7.28-43.53,0-16.22-2.91-31.78-8.22-46.18Z"/><path class="c" d="M415.74,284.86c13.73,10.21,24.56,24.1,31.06,40.19l37.44-14.54c-9.42-23.57-25.36-43.84-45.58-58.6l-22.92,32.95Z"/><path class="c" d="M460.1,448.58c10.76-12.15,19.35-26.26,25.16-41.72l-37.78-13.63c-3.97,10.42-9.75,19.94-16.96,28.2l29.58,27.15Z"/><path class="c" d="M279.49,312.13c7.46-12.54,17.9-23.35,30.78-31.45,2.37-1.49,4.84-2.89,7.33-4.16,1.73-.88,3.47-1.7,5.23-2.46l-15.62-36.96c-2.65,1.13-5.26,2.35-7.82,3.65-3.56,1.81-7.09,3.81-10.48,5.95-18.65,11.73-33.72,27.46-44.41,45.71l34.99,19.72Z"/><path class="c" d="M307.91,437.72c-12.43-8.36-22.76-19.62-30-32.81l-35.72,18.33c10.42,19.33,25.46,35.82,43.63,47.98l22.1-33.5Z"/><path class="c" d="M428.15,424.06c-10.56,11.22-23.84,19.84-38.78,24.79l11.45,38.51c21.98-7.06,41.5-19.66,56.9-36.16l-29.57-27.14Z"/><path class="c" d="M385.98,449.9c-8.26,2.39-16.97,3.7-25.99,3.7-1.43,0-2.85-.04-4.26-.11l-3.09,40.04c2.44,.13,4.89,.21,7.36,.21,12.99,0,25.55-1.87,37.43-5.34l-11.45-38.5Z"/><path class="c" d="M226.31,356.73l40.13,.51c.43-14.98,4.38-29.31,11.3-42.02l-35-19.73c-10.17,18.48-15.91,39.38-16.43,61.25Z"/><path class="c" d="M240.55,420.1l35.73-18.33c-6.19-12.36-9.73-26.27-9.85-40.99l-40.16-.51c.04,21.5,5.19,41.82,14.28,59.83Z"/></g><g><g><path class="b" d="M324.16,250.05l-2.17,.75-.18-.53,.55-.4-1.84-5.31-.68,.02-.18-.53,2.17-.75,.18,.53-.56,.41,1.84,5.31,.69-.03,.18,.53Z"/><path class="b" d="M325.55,243.83c.86-.27,1.47,.2,1.84,1.39l1.07,3.47-.92,.28-1.01-3.26c-.12-.39-.26-.67-.41-.84-.16-.17-.34-.22-.57-.15-.31,.1-.49,.31-.54,.63-.05,.33,.03,.81,.23,1.46l.81,2.62-.92,.28-1.6-5.16,.74-.23,.31,.66,.06-.02c.03-.29,.12-.53,.28-.73,.16-.2,.36-.33,.61-.41Z"/><path class="b" d="M330.41,243.38l-.82,.22,1.21,4.44-.93,.25-1.21-4.44-.62,.17-.13-.49,.54-.47-.07-.26c-.17-.62-.21-1.11-.12-1.48,.09-.37,.37-.62,.84-.75,.28-.08,.58-.1,.9-.06l-.02,.78c-.1,0-.19,0-.27,0-.08,0-.16,.01-.24,.03-.17,.05-.27,.15-.3,.32-.02,.17,.02,.45,.13,.85l.09,.33,.82-.22,.21,.77Z"/><path class="b" d="M332.72,241.88c.5-.12,.9-.05,1.2,.21,.3,.26,.52,.69,.67,1.27l.85,3.52-.7,.17-.32-.68h-.02c-.08,.31-.21,.56-.37,.74-.16,.18-.38,.31-.66,.38-.28,.07-.52,.05-.73-.06-.21-.11-.39-.27-.52-.49-.14-.22-.24-.47-.31-.75-.13-.53-.08-.98,.16-1.33,.23-.36,.62-.62,1.17-.77l.61-.18-.07-.3c-.09-.36-.2-.62-.35-.77-.15-.15-.34-.2-.57-.15-.29,.07-.6,.26-.94,.59l-.45-.63c.37-.37,.83-.62,1.37-.75Zm1.18,2.68l-.43,.13c-.64,.19-.88,.61-.73,1.24,.14,.58,.4,.82,.79,.73,.25-.06,.42-.23,.51-.51,.09-.28,.08-.64-.02-1.08l-.12-.51Z"/><path class="b" d="M337.73,240.79c.88-.18,1.45,.35,1.69,1.57l.71,3.56-.94,.19-.66-3.35c-.08-.4-.19-.69-.32-.88-.14-.19-.32-.26-.55-.21-.32,.06-.52,.25-.6,.57-.08,.32-.05,.81,.08,1.48l.53,2.69-.94,.19-1.05-5.3,.75-.15,.24,.69h.06c.06-.29,.18-.53,.36-.7,.18-.18,.4-.29,.65-.34Z"/><path class="b" d="M342.75,244.74c.09-.01,.17-.04,.25-.08,.08-.04,.16-.08,.24-.13l.13,.76c-.1,.08-.22,.14-.35,.2-.13,.06-.28,.1-.44,.12-.38,.06-.68-.02-.9-.24-.22-.22-.37-.58-.45-1.08l-.51-3.14-.5,.08-.08-.51,.52-.34,.05-1.25,.64-.1,.19,1.17,.91-.15,.13,.79-.91,.15,.5,3.06c.04,.25,.1,.43,.19,.55,.08,.11,.22,.16,.4,.13Z"/><path class="b" d="M346.8,243.41c.07,.51-.02,.92-.26,1.23-.24,.31-.61,.49-1.11,.56-.25,.03-.49,.04-.71,.01-.22-.02-.42-.07-.6-.14l-.13-.96c.17,.1,.36,.17,.59,.22,.23,.05,.45,.06,.68,.03,.22-.03,.38-.11,.49-.25,.11-.13,.14-.31,.11-.54-.03-.18-.1-.34-.24-.46-.13-.12-.37-.25-.7-.38-.36-.15-.65-.34-.88-.56-.23-.22-.37-.53-.43-.93-.06-.44,.03-.8,.28-1.1,.24-.3,.6-.48,1.07-.54,.24-.03,.47-.03,.69,0,.22,.03,.43,.1,.64,.19l-.21,.79c-.16-.08-.32-.14-.49-.18-.17-.04-.33-.05-.5-.02-.21,.03-.37,.11-.46,.23-.1,.13-.13,.28-.11,.47,.03,.19,.1,.34,.24,.45,.13,.11,.37,.23,.71,.38,.36,.16,.66,.35,.89,.56,.24,.21,.38,.52,.44,.92Z"/><path class="b" d="M350.81,237.23c.42-.03,.76,.07,1.01,.33,.25,.25,.4,.62,.43,1.1,.03,.39-.02,.75-.14,1.07-.12,.32-.33,.63-.62,.93l1.07,1.47c.13-.34,.19-.78,.18-1.31l.99-.08c0,.35-.04,.73-.13,1.12-.08,.4-.21,.75-.36,1.06l1.04,1.29-1.17,.09-.46-.64c-.21,.26-.43,.47-.68,.63-.24,.15-.54,.24-.89,.27-.54,.04-.95-.11-1.25-.45-.29-.34-.46-.8-.5-1.35-.03-.43,.03-.81,.18-1.15,.15-.34,.41-.67,.78-.98-.23-.3-.41-.59-.52-.85-.11-.27-.19-.58-.21-.94-.04-.46,.06-.83,.28-1.13,.22-.29,.54-.45,.95-.49Zm0,3.99c-.2,.22-.34,.43-.42,.65-.07,.22-.1,.47-.07,.77,.03,.33,.12,.59,.27,.79,.15,.19,.34,.28,.58,.26,.36-.03,.67-.27,.92-.73l-1.28-1.74Zm.05-3.24c-.13,0-.22,.08-.29,.22-.07,.14-.09,.33-.07,.59,.02,.21,.07,.43,.15,.66,.09,.23,.2,.44,.34,.62,.17-.19,.28-.39,.34-.62,.06-.23,.08-.48,.06-.74-.04-.5-.21-.75-.52-.72Z"/></g><g><path class="b" d="M368.09,245.7l1.24-3.15,1.03,.06-1.85,4.26-.17,2.77-1-.06,.17-2.74-1.3-4.48,1.04,.06,.85,3.28Z"/><path class="b" d="M374.13,247.44c-.05,.54-.17,1.01-.34,1.42-.18,.41-.41,.72-.71,.93-.3,.21-.67,.3-1.12,.25-.42-.04-.75-.2-1-.46-.25-.27-.42-.62-.52-1.05-.09-.43-.11-.92-.06-1.47,.09-.86,.31-1.53,.66-1.99,.35-.46,.85-.66,1.5-.6,.59,.06,1.02,.34,1.31,.84,.28,.5,.38,1.21,.28,2.12Zm-2.78-.27c-.07,.65-.04,1.15,.07,1.49,.11,.34,.33,.53,.64,.56s.56-.11,.74-.42c.18-.31,.3-.8,.37-1.46,.06-.65,.04-1.15-.07-1.48-.11-.34-.33-.53-.64-.56-.32-.03-.57,.11-.74,.42-.18,.31-.3,.79-.36,1.45Z"/><path class="b" d="M379.15,245.42l-.77,5.34-.75-.11v-.72h-.07c-.32,.49-.75,.7-1.28,.63-.48-.07-.8-.29-.95-.67-.16-.38-.19-.87-.1-1.48l.5-3.48,.94,.14-.47,3.27c-.13,.89,.01,1.36,.42,1.42,.35,.05,.61-.06,.79-.34s.3-.71,.39-1.31l.41-2.81,.95,.14Z"/><path class="b" d="M381.3,250.53c.08,.02,.17,.02,.26,.01,.09,0,.18-.02,.27-.04l-.14,.76c-.12,.04-.25,.06-.39,.07-.14,0-.29,0-.46-.03-.38-.07-.64-.24-.77-.52s-.15-.67-.06-1.17l.56-3.13-.5-.09,.09-.51,.61-.15,.46-1.16,.64,.11-.21,1.17,.9,.16-.14,.79-.91-.16-.55,3.05c-.04,.25-.05,.44,0,.58,.04,.14,.15,.22,.34,.25Z"/><path class="b" d="M385.12,244.29l-.43,1.96c-.03,.16-.07,.31-.11,.46-.04,.15-.09,.28-.15,.41h.06c.16-.22,.35-.38,.58-.47,.23-.09,.47-.11,.72-.06,.46,.1,.76,.33,.91,.69s.16,.84,.03,1.43l-.77,3.55-.94-.2,.72-3.33c.09-.42,.11-.74,.06-.95s-.19-.34-.41-.39c-.33-.07-.59,.03-.79,.3-.2,.27-.37,.72-.51,1.36l-.58,2.68-.94-.2,1.6-7.43,.94,.2Z"/></g><g><path class="b" d="M401.34,257.06l.29-2.12-1.54-.58-1.17,1.78-1-.38,4.14-6.07,1.15,.43-.88,7.3-.98-.37Zm.44-3.02l.32-2.24c.03-.2,.07-.39,.11-.58,.04-.19,.08-.36,.11-.51-.07,.14-.15,.3-.25,.47-.09,.17-.2,.33-.31,.49l-1.22,1.91,1.24,.47Z"/><path class="b" d="M404.26,258.36c-.48-.2-.75-.58-.8-1.13-.06-.55,.09-1.24,.45-2.07,.35-.82,.75-1.4,1.19-1.74,.44-.34,.89-.41,1.34-.22,.23,.1,.41,.25,.55,.45,.14,.21,.22,.45,.24,.75l.04,.02c.11-.31,.21-.55,.28-.74l.83-1.93,.88,.38-3,6.98-.71-.3,.14-.66-.06-.02c-.23,.18-.46,.28-.68,.33-.22,.04-.45,.01-.69-.09Zm.55-.65c.56,.24,1.08-.18,1.54-1.26l.12-.28c.25-.59,.37-1.06,.35-1.4-.02-.34-.18-.57-.48-.7-.27-.12-.53-.05-.79,.21s-.51,.68-.76,1.26c-.52,1.22-.52,1.94,0,2.17Z"/><path class="b" d="M412.89,256.28l-2.34,4.87-.68-.33,.21-.69-.05-.03c-.46,.38-.93,.45-1.41,.22-.44-.21-.67-.52-.71-.93-.03-.41,.08-.89,.35-1.44l1.53-3.17,.86,.41-1.43,2.97c-.39,.81-.4,1.3-.02,1.48,.32,.15,.6,.13,.85-.08,.25-.21,.5-.59,.77-1.13l1.23-2.56,.87,.42Z"/><path class="b" d="M412.58,262.2l-.85-.44,3.51-6.74,.85,.44-3.51,6.74Z"/><path class="b" d="M415.45,262.92c.08,.04,.16,.07,.25,.1,.09,.02,.18,.04,.27,.05l-.37,.67c-.13,0-.26-.02-.4-.06-.14-.04-.28-.1-.42-.18-.34-.19-.53-.43-.56-.74-.03-.31,.07-.68,.31-1.13l1.54-2.78-.45-.25,.25-.46,.62,.06,.81-.95,.57,.31-.58,1.04,.8,.44-.39,.7-.81-.45-1.5,2.71c-.12,.22-.19,.4-.19,.54,0,.14,.07,.26,.24,.35Z"/><path class="b" d="M419.44,264.38c-.26,.44-.58,.71-.96,.8-.38,.09-.79,.01-1.21-.24-.22-.13-.41-.27-.57-.43-.16-.16-.29-.32-.38-.48l.49-.83c.07,.18,.18,.36,.32,.54,.15,.18,.32,.33,.51,.44,.19,.11,.37,.15,.54,.11,.17-.04,.31-.16,.42-.35,.1-.16,.13-.33,.1-.51-.03-.18-.14-.42-.32-.73-.18-.34-.3-.67-.35-.98-.05-.31,.04-.65,.24-1,.23-.38,.52-.61,.9-.69s.77,0,1.17,.24c.21,.12,.38,.27,.54,.43s.28,.35,.38,.55l-.66,.5c-.07-.16-.17-.31-.27-.44-.11-.13-.23-.24-.38-.33-.18-.11-.35-.14-.51-.1-.15,.04-.28,.14-.38,.3-.1,.17-.13,.33-.09,.5,.04,.17,.14,.41,.32,.74,.18,.35,.3,.68,.35,.99,.05,.31-.02,.64-.23,.99Z"/></g><g><path class="b" d="M264.22,286.74l-1.38,1.84-.45-.34,.23-.64-4.49-3.38-.55,.4-.45-.34,1.38-1.84,.45,.34-.24,.65,4.49,3.38,.56-.41,.45,.34Z"/><path class="b" d="M261.9,280.8c.56-.7,1.33-.66,2.3,.12l2.83,2.27-.6,.75-2.66-2.13c-.32-.25-.59-.41-.81-.47-.23-.06-.41,0-.56,.19-.21,.25-.24,.53-.09,.82,.14,.29,.48,.66,1.01,1.08l2.14,1.71-.6,.75-4.21-3.38,.48-.6,.62,.37,.04-.05c-.14-.25-.19-.51-.17-.76,.02-.25,.12-.48,.28-.68Z"/><path class="b" d="M268.86,281.2c-.34,.39-.78,.53-1.32,.42-.54-.11-1.15-.47-1.83-1.06-.67-.59-1.11-1.14-1.3-1.66-.19-.52-.12-.97,.2-1.34,.16-.19,.36-.31,.6-.38,.24-.07,.5-.07,.78,0l.03-.03c-.26-.2-.46-.36-.61-.5l-1.58-1.38,.63-.72,5.73,4.99-.51,.58-.58-.33-.04,.04c.09,.28,.13,.53,.1,.75-.03,.22-.12,.43-.3,.63Zm-.45-.72c.4-.46,.16-1.08-.73-1.86l-.23-.2c-.49-.42-.9-.68-1.22-.77-.33-.09-.6,0-.81,.24-.19,.22-.21,.49-.04,.81,.17,.32,.49,.69,.97,1.11,1,.87,1.69,1.09,2.07,.66Z"/><path class="b" d="M265.93,273.13c.25-.26,.52-.25,.83,.03,.3,.28,.33,.55,.09,.82-.25,.26-.52,.26-.82-.02-.31-.29-.34-.56-.1-.82Zm1.83,1.05l3.97,3.66-.65,.7-3.97-3.67,.64-.7Z"/><path class="b" d="M273.29,276.21l-4.84-2.78,.68-.7,2.7,1.67c.18,.11,.35,.22,.52,.33,.17,.12,.34,.24,.51,.37l.03-.03c-.09-.09-.18-.21-.29-.36-.1-.15-.22-.32-.35-.5l-1.82-2.82,.68-.7,2.89,4.77-.73,.75Z"/><path class="b" d="M270.78,268.16c.26-.25,.53-.23,.83,.08,.29,.3,.3,.57,.04,.82-.26,.25-.53,.23-.82-.07-.29-.3-.31-.58-.05-.83Zm1.77,1.15l3.76,3.88-.68,.66-3.76-3.88,.68-.66Z"/><path class="b" d="M278.36,271.4c-.38,.35-.84,.44-1.36,.26s-1.09-.59-1.7-1.26c-.6-.66-.97-1.26-1.1-1.8-.13-.54-.01-.98,.35-1.31,.18-.17,.4-.27,.64-.31,.24-.04,.5-.01,.78,.09l.03-.03c-.24-.23-.42-.42-.56-.56l-1.42-1.55,.71-.65,5.13,5.61-.57,.52-.54-.4-.04,.04c.06,.29,.07,.54,.02,.76s-.17,.42-.37,.59Zm-.36-.77c.45-.41,.28-1.06-.52-1.93l-.2-.22c-.44-.48-.81-.78-1.13-.9-.32-.12-.59-.07-.83,.15-.22,.2-.26,.47-.13,.8,.13,.34,.41,.74,.83,1.21,.9,.98,1.55,1.27,1.98,.89Z"/><path class="b" d="M280,262.67l3.48,4.13-.58,.49-.54-.47-.05,.04c.16,.57,.03,1.03-.38,1.38-.37,.31-.75,.4-1.14,.27-.39-.14-.78-.44-1.17-.91l-2.27-2.69,.73-.61,2.13,2.52c.58,.68,1.02,.89,1.34,.62,.27-.23,.36-.5,.27-.81-.09-.31-.33-.7-.72-1.17l-1.83-2.17,.73-.62Z"/><path class="b" d="M282.39,260.65c.41-.32,.8-.42,1.18-.31,.38,.11,.76,.41,1.13,.88l2.23,2.85-.57,.44-.57-.49h-.02c.05,.33,.04,.6-.03,.83-.07,.23-.22,.44-.45,.62-.23,.18-.46,.26-.69,.25-.24-.01-.46-.09-.68-.23-.22-.14-.41-.33-.59-.55-.34-.43-.47-.86-.41-1.28,.06-.42,.31-.82,.74-1.19l.48-.41-.19-.24c-.23-.29-.44-.48-.64-.56-.2-.08-.39-.04-.58,.1-.23,.18-.44,.49-.61,.92l-.67-.39c.18-.49,.5-.91,.94-1.25Zm2.18,1.95l-.34,.29c-.5,.44-.55,.92-.15,1.44,.36,.47,.71,.58,1.02,.33,.21-.16,.29-.39,.25-.68-.03-.29-.19-.62-.47-.97l-.32-.41Z"/><path class="b" d="M288.76,262.73l-.77,.57-4.51-6.12,.77-.57,4.51,6.12Z"/><path class="b" d="M291.16,259.2c.29,.42,.4,.82,.33,1.21-.07,.38-.32,.72-.72,1.01-.21,.15-.42,.26-.62,.34-.21,.08-.41,.13-.6,.15l-.56-.79c.19,.01,.4-.01,.63-.07,.22-.06,.43-.15,.61-.28,.18-.13,.29-.27,.32-.44,.03-.17-.02-.35-.15-.53-.11-.15-.25-.25-.42-.3-.17-.04-.44-.05-.8-.01-.39,.03-.73,0-1.04-.09-.3-.09-.57-.3-.81-.63-.25-.36-.34-.73-.26-1.11,.08-.38,.31-.7,.7-.97,.2-.14,.4-.24,.61-.31,.21-.07,.43-.11,.66-.12l.18,.8c-.18,0-.35,.02-.52,.07-.17,.04-.32,.11-.45,.21-.17,.12-.28,.26-.3,.42-.03,.16,.01,.31,.12,.47,.11,.16,.25,.25,.42,.29,.17,.03,.44,.04,.81,.01,.39-.02,.74,0,1.05,.08,.31,.08,.58,.28,.81,.62Z"/><path class="b" d="M290.82,252.28c.3-.19,.57-.11,.79,.24,.22,.35,.18,.62-.12,.81-.3,.19-.57,.12-.79-.23-.23-.35-.19-.63,.11-.82Zm1.51,1.48l2.92,4.54-.8,.51-2.92-4.55,.8-.51Z"/><path class="b" d="M295.36,251.77c.77-.46,1.48-.16,2.12,.91l1.87,3.11-.82,.49-1.76-2.92c-.21-.35-.41-.59-.6-.72-.19-.13-.39-.13-.59-.02-.28,.17-.4,.42-.37,.74,.03,.33,.22,.78,.57,1.36l1.41,2.35-.82,.49-2.78-4.63,.66-.4,.46,.57,.05-.03c-.04-.29,0-.54,.1-.77,.11-.23,.27-.41,.5-.54Z"/></g><g><path class="b" d="M430.2,274.29l2.39-5.51-.03-.03c-.19,.28-.36,.51-.51,.71-.15,.2-.27,.36-.37,.47l-2.72,3.35-.74-.6,4.5-5.54,1.09,.88-2.29,5.29,.02,.02,4.71-3.33,1.09,.88-4.5,5.54-.74-.61,2.71-3.34c.11-.13,.24-.29,.4-.47,.16-.18,.35-.39,.56-.64l-.03-.03-4.89,3.46-.65-.53Z"/><path class="b" d="M438.77,274.39c.28,.26,.45,.55,.49,.87,.05,.33,0,.66-.15,1.02s-.38,.7-.68,1.04l-.41,.45-1.91-1.73c-.4,.45-.63,.85-.68,1.19-.06,.34,.06,.64,.34,.9,.15,.14,.32,.25,.5,.33,.18,.08,.4,.15,.64,.19l-.56,.61c-.44-.08-.84-.29-1.21-.63-.35-.31-.55-.65-.6-1.02-.06-.37,0-.75,.19-1.15,.18-.4,.45-.79,.81-1.19,.61-.68,1.2-1.09,1.75-1.25s1.05-.04,1.49,.36Zm-.52,.57c-.19-.17-.42-.21-.69-.13-.27,.08-.59,.31-.95,.68l1.24,1.12c.29-.32,.48-.63,.57-.93,.09-.31,.04-.55-.16-.74Z"/><path class="b" d="M442.51,277.93c.64,.63,.52,1.39-.35,2.28l-2.55,2.59-.68-.67,2.39-2.43c.29-.29,.47-.54,.55-.76,.08-.22,.03-.41-.13-.57-.23-.23-.5-.29-.81-.17-.31,.11-.7,.41-1.18,.9l-1.92,1.95-.68-.67,3.79-3.85,.55,.54-.43,.58,.04,.04c.27-.11,.52-.14,.77-.09,.25,.05,.46,.16,.65,.35Z"/><path class="b" d="M442.19,283.76l-.03,.13c-.39,.24-.77,.46-1.14,.65-.38,.19-.75,.35-1.12,.48l-.52-.54c.36-.2,.73-.43,1.12-.69,.39-.26,.73-.5,1.02-.73l.67,.71Z"/><path class="b" d="M444.14,287.71l-.66-.76,5.4-4.68,1.93,2.23-.66,.57-1.28-1.47-1.81,1.57,1.2,1.38-.67,.58-1.2-1.38-2.26,1.96Z"/><path class="b" d="M451.27,287.67c.32,.4,.43,.79,.32,1.18-.11,.38-.4,.77-.87,1.15l-2.82,2.27-.45-.56,.48-.58v-.02c-.33,.06-.6,.05-.83-.02-.23-.07-.44-.21-.62-.44-.18-.22-.27-.45-.26-.69s.08-.46,.22-.68c.14-.22,.32-.42,.55-.6,.43-.34,.85-.48,1.27-.43,.42,.06,.82,.3,1.2,.72l.42,.47,.24-.19c.29-.23,.48-.45,.55-.65,.08-.2,.04-.39-.11-.58-.18-.23-.49-.43-.93-.6l.38-.68c.49,.18,.91,.48,1.26,.92Zm-1.92,2.21l-.3-.34c-.45-.5-.93-.54-1.44-.13-.46,.37-.57,.71-.32,1.03,.16,.2,.39,.28,.68,.25s.61-.2,.96-.48l.41-.33Z"/><path class="b" d="M450.17,294.03c.05,.07,.11,.13,.18,.19,.07,.06,.15,.11,.22,.16l-.62,.46c-.12-.05-.23-.13-.34-.22-.11-.09-.21-.2-.31-.33-.23-.31-.3-.61-.21-.91,.09-.3,.34-.6,.75-.9l2.54-1.91-.31-.41,.42-.31,.54,.31,1.13-.53,.39,.52-.95,.71,.55,.74-.64,.48-.55-.74-2.48,1.86c-.2,.15-.34,.29-.4,.42-.06,.13-.04,.26,.07,.41Z"/><path class="b" d="M457.22,292.07l-1.65,1.15c-.13,.09-.26,.18-.39,.26-.13,.08-.26,.15-.38,.2l.03,.05c.27-.06,.53-.05,.76,.04,.23,.09,.42,.24,.57,.45,.27,.38,.33,.76,.19,1.12s-.45,.72-.95,1.07l-2.98,2.08-.55-.79,2.8-1.95c.36-.25,.58-.47,.69-.66,.1-.19,.09-.38-.04-.56-.19-.27-.45-.38-.78-.32s-.77,.28-1.3,.65l-2.25,1.57-.55-.79,6.24-4.34,.55,.79Z"/><path class="b" d="M458.63,297.96c.2,.32,.29,.64,.25,.97-.04,.33-.18,.64-.42,.94-.24,.3-.55,.57-.94,.82l-.51,.33-1.38-2.17c-.5,.33-.83,.65-.97,.96-.15,.31-.12,.64,.09,.96,.11,.17,.24,.33,.4,.45,.15,.13,.34,.25,.57,.35l-.7,.45c-.4-.2-.74-.5-1-.93-.25-.39-.35-.78-.31-1.15,.04-.37,.21-.73,.49-1.06,.28-.34,.65-.65,1.09-.93,.77-.49,1.44-.74,2.02-.74,.57,0,1.02,.24,1.34,.74Zm-.65,.41c-.14-.21-.35-.32-.63-.31-.28,0-.65,.14-1.1,.4l.9,1.41c.36-.23,.62-.48,.79-.75,.17-.27,.18-.52,.04-.75Z"/><path class="b" d="M461.22,302.21c.08,.13,.13,.27,.17,.43l-.92,.4c-.02-.12-.07-.25-.15-.4-.15-.25-.41-.37-.77-.36-.37,.01-.76,.14-1.18,.4l-2.41,1.42-.48-.82,4.65-2.74,.38,.64-.72,.57,.02,.04c.31-.05,.59-.05,.85,.01,.25,.06,.44,.19,.57,.4Z"/><path class="b" d="M459.73,307.79c-.45,.25-.86,.31-1.24,.2-.38-.11-.68-.39-.92-.83-.12-.22-.21-.44-.27-.66-.06-.22-.08-.42-.08-.61l.85-.46c-.03,.19-.03,.4,0,.63,.03,.23,.11,.44,.21,.64,.11,.19,.24,.31,.4,.37,.17,.05,.35,.02,.54-.09,.17-.09,.28-.22,.34-.39,.06-.17,.1-.43,.1-.79,.02-.39,.08-.73,.21-1.02,.12-.29,.36-.54,.72-.73,.39-.21,.76-.26,1.13-.14,.37,.12,.66,.39,.89,.8,.12,.21,.2,.42,.24,.64,.05,.22,.06,.44,.05,.67l-.82,.09c.02-.18,.01-.35,0-.52-.02-.17-.08-.33-.16-.47-.1-.19-.23-.3-.38-.35-.15-.04-.31-.02-.48,.07-.17,.09-.28,.22-.33,.38-.05,.16-.09,.43-.1,.8-.02,.39-.09,.74-.2,1.03s-.34,.54-.7,.74Z"/><path class="b" d="M466.94,309.33c.18,.39,.2,.74,.06,1.06-.14,.32-.44,.59-.88,.8-.36,.17-.71,.25-1.05,.25-.34,0-.71-.09-1.09-.25l-.99,1.52c.37,0,.79-.11,1.29-.3l.42,.89c-.33,.13-.7,.22-1.1,.28-.4,.06-.77,.07-1.12,.04l-.83,1.44-.5-1.06,.43-.66c-.32-.1-.59-.23-.83-.41-.23-.17-.42-.42-.57-.73-.23-.49-.24-.93-.02-1.32s.58-.71,1.09-.95c.38-.18,.76-.26,1.14-.24,.37,.02,.77,.15,1.2,.38,.2-.32,.4-.59,.61-.79,.21-.2,.47-.38,.8-.54,.42-.2,.8-.24,1.15-.14,.35,.11,.62,.34,.8,.72Zm-3.73,1.42c-.27-.11-.53-.17-.75-.16-.23,0-.48,.08-.75,.21-.3,.14-.51,.32-.64,.53s-.14,.42-.04,.63c.16,.33,.5,.53,1.01,.6l1.17-1.82Zm3.05-1.11c-.05-.11-.16-.18-.31-.19-.16-.02-.35,.03-.58,.14-.19,.09-.37,.21-.56,.38-.19,.16-.34,.34-.45,.54,.23,.09,.47,.12,.7,.09,.24-.03,.47-.1,.71-.21,.46-.22,.62-.47,.49-.74Z"/></g><g><path class="b" d="M446.78,270.45l.53-.54,1.2,1.16-.53,.54-1.2-1.16Z"/><path class="b" d="M452.37,274.33l1,1.06-1.86,1.75c-.45-.21-.84-.5-1.17-.85-.28-.3-.44-.62-.46-.97-.03-.35,.05-.7,.24-1.07,.19-.36,.47-.72,.84-1.07,.37-.35,.75-.6,1.13-.76,.38-.16,.75-.2,1.11-.13,.36,.07,.68,.26,.98,.58,.16,.17,.29,.35,.39,.53,.1,.18,.17,.37,.21,.56l-.68,.28c-.07-.35-.21-.64-.42-.86-.26-.28-.58-.38-.95-.31-.37,.07-.77,.32-1.21,.73-.26,.25-.47,.5-.63,.74-.15,.24-.23,.47-.24,.69,0,.22,.07,.42,.24,.59,.14,.15,.29,.27,.45,.36l.95-.9-.45-.48,.51-.48Z"/><path class="b" d="M453.77,279.98l-1.42-1.61,3.75-3.3,1.42,1.61-.53,.47-.88-1-1,.88,.82,.94-.53,.47-.82-.94-1.15,1.01,.88,1-.54,.48Z"/><path class="b" d="M456.8,283.62l-.62-.75,1.88-3.55-.02-.02c-.16,.16-.32,.3-.46,.42-.14,.12-.26,.23-.38,.32l-2.01,1.65-.49-.6,3.86-3.17,.62,.75-1.83,3.5,.02,.02c.17-.15,.31-.29,.45-.41,.13-.12,.25-.23,.36-.31l1.97-1.62,.49,.6-3.86,3.17Z"/><path class="b" d="M461.65,285.71c-.67,.5-1.27,.76-1.82,.77-.55,0-1.01-.24-1.38-.73l-.67-.89,3.98-3.02,.71,.94c.36,.47,.47,.96,.33,1.46-.14,.5-.52,.99-1.15,1.47Zm-.54-.65c.47-.36,.77-.69,.89-1,.12-.31,.08-.6-.12-.86l-.2-.27-2.84,2.15,.17,.23c.22,.29,.5,.41,.85,.37,.34-.04,.76-.25,1.25-.62Z"/><path class="b" d="M461.68,290.19l-1.24-1.75,4.08-2.89,1.24,1.75-.58,.41-.77-1.09-1.09,.77,.72,1.02-.58,.41-.72-1.02-1.25,.88,.77,1.08-.59,.42Z"/><path class="b" d="M467.25,289.5c.3,.45,.42,.85,.37,1.2-.06,.35-.28,.65-.69,.92-.26,.17-.52,.27-.77,.3-.25,.03-.5-.03-.76-.16l-1.28,2.07-.5-.76,1.21-1.81-.21-.31-1.67,1.11-.45-.68,4.17-2.76,.58,.88Zm-.59,.39l-.13-.2-1.36,.9,.15,.23c.27,.4,.64,.44,1.11,.13,.22-.15,.35-.31,.38-.48,.04-.17-.02-.36-.16-.58Z"/><path class="b" d="M466.92,295.49l.65-.39,.86,1.43-.65,.39-.86-1.43Z"/></g><g><path class="b" d="M425.6,280.49l1.51,1.22-2.25,2.79c-.63-.2-1.21-.51-1.74-.94-.46-.37-.73-.79-.83-1.28-.1-.49-.04-1,.16-1.55,.2-.55,.53-1.1,.98-1.66,.45-.56,.93-.99,1.44-1.29,.51-.3,1.01-.44,1.53-.42s1.01,.22,1.48,.6c.24,.2,.45,.41,.62,.65,.17,.24,.3,.49,.39,.75l-.78,.44c-.17-.48-.42-.86-.76-1.14-.45-.36-.94-.45-1.47-.26s-1.09,.63-1.66,1.34c-.34,.42-.59,.82-.77,1.21-.18,.39-.25,.76-.21,1.09,.03,.33,.2,.62,.49,.86,.13,.1,.26,.2,.4,.27,.13,.08,.26,.14,.39,.18l1.28-1.59-.75-.61,.55-.68Z"/><path class="b" d="M430.81,282.76c.11,.1,.21,.22,.3,.36l-.75,.67c-.05-.11-.14-.22-.27-.33-.22-.19-.5-.23-.85-.11s-.68,.37-1,.75l-1.86,2.1-.71-.63,3.58-4.04,.55,.49-.51,.77,.04,.03c.28-.14,.55-.23,.81-.25,.26-.02,.48,.04,.66,.2Z"/><path class="b" d="M433.06,284.86c.37,.36,.53,.73,.48,1.12-.06,.39-.29,.81-.71,1.25l-2.5,2.62-.52-.5,.4-.64h-.01c-.3,.08-.58,.11-.82,.08-.24-.04-.47-.16-.67-.35-.21-.2-.32-.41-.35-.65s.02-.47,.13-.71c.11-.24,.26-.46,.46-.66,.38-.39,.78-.59,1.21-.59,.43,0,.85,.19,1.28,.56l.47,.41,.21-.22c.26-.27,.41-.51,.46-.71,.05-.21-.01-.39-.19-.56-.21-.2-.54-.36-1-.47l.29-.72c.51,.11,.97,.36,1.37,.75Zm-1.61,2.44l-.34-.3c-.51-.43-.99-.41-1.44,.06-.41,.43-.47,.78-.18,1.06,.19,.18,.42,.23,.71,.15,.29-.08,.58-.28,.89-.6l.36-.38Z"/><path class="b" d="M436.69,288.51c.62,.65,.48,1.41-.42,2.27l-2.63,2.5-.66-.7,2.47-2.35c.29-.28,.48-.53,.57-.74,.08-.21,.05-.41-.11-.58-.23-.24-.49-.3-.81-.2-.31,.1-.71,.39-1.21,.86l-1.98,1.89-.66-.7,3.91-3.73,.53,.56-.45,.57,.04,.04c.27-.1,.53-.12,.78-.07,.25,.06,.46,.18,.64,.37Z"/><path class="b" d="M435.34,295.36c-.34-.39-.42-.85-.23-1.37,.19-.52,.62-1.07,1.31-1.66,.67-.58,1.29-.93,1.83-1.05,.54-.11,.98,.02,1.3,.39,.16,.19,.26,.4,.3,.65,.04,.25,0,.5-.11,.78l.03,.03c.23-.23,.43-.41,.58-.54l1.59-1.37,.63,.73-5.75,4.97-.5-.58,.42-.53-.04-.05c-.29,.05-.54,.05-.76,0-.22-.06-.41-.19-.58-.38Zm.78-.34c.4,.46,1.05,.31,1.94-.46l.23-.2c.49-.42,.8-.79,.93-1.1,.13-.31,.09-.59-.12-.84-.19-.22-.46-.27-.8-.15-.34,.12-.75,.39-1.23,.8-1,.87-1.32,1.52-.94,1.95Z"/><path class="b" d="M442.49,296.64l-.53-.67-3.6,2.87-.6-.75,3.6-2.87-.4-.5,.4-.32,.64,.31,.21-.17c.5-.4,.94-.63,1.31-.7s.71,.09,1.02,.47c.18,.23,.32,.5,.41,.8l-.73,.29c-.04-.09-.07-.17-.11-.25-.03-.07-.08-.14-.13-.21-.11-.14-.25-.19-.41-.15-.16,.04-.4,.19-.73,.45l-.27,.21,.53,.66-.63,.5Z"/><path class="b" d="M444.78,298.19c.31,.41,.4,.81,.28,1.19-.12,.38-.42,.75-.91,1.11l-2.91,2.15-.43-.58,.5-.56v-.02c-.33,.04-.6,.03-.83-.05-.23-.08-.43-.23-.6-.46-.17-.23-.25-.46-.23-.7,.02-.24,.1-.46,.25-.68,.15-.21,.34-.41,.57-.58,.44-.33,.87-.45,1.29-.38,.42,.08,.81,.33,1.17,.77l.4,.49,.25-.18c.3-.22,.49-.43,.58-.63,.08-.19,.05-.39-.09-.58-.17-.24-.48-.45-.91-.64l.41-.66c.49,.2,.89,.52,1.23,.97Zm-2,2.13l-.28-.35c-.43-.51-.91-.57-1.43-.19-.48,.35-.6,.69-.36,1.01,.16,.21,.38,.3,.67,.27,.29-.03,.62-.17,.98-.44l.42-.31Z"/><path class="b" d="M443.43,304.51c.05,.07,.11,.14,.18,.19,.07,.06,.14,.11,.22,.17l-.64,.43c-.11-.06-.22-.14-.33-.23-.1-.09-.2-.21-.3-.35-.22-.32-.27-.62-.17-.92,.11-.29,.37-.58,.79-.87l2.62-1.8-.29-.42,.43-.29,.53,.33,1.15-.48,.37,.54-.98,.67,.52,.76-.66,.45-.52-.76-2.56,1.75c-.21,.14-.35,.28-.42,.4-.07,.12-.05,.26,.06,.42Z"/><path class="b" d="M450.56,302.87l-1.7,1.07c-.14,.08-.27,.16-.41,.24s-.27,.13-.39,.18l.03,.05c.28-.05,.53-.02,.76,.08,.23,.1,.41,.26,.54,.47,.25,.39,.3,.77,.14,1.13-.15,.36-.49,.7-1,1.02l-3.07,1.93-.51-.81,2.89-1.81c.37-.23,.61-.44,.72-.62,.11-.19,.11-.37-.01-.56-.18-.28-.43-.4-.77-.36-.33,.04-.78,.24-1.33,.59l-2.32,1.46-.51-.81,6.43-4.05,.51,.81Z"/><path class="b" d="M451.67,308.83c.19,.33,.25,.66,.19,.98-.06,.32-.21,.63-.46,.92s-.58,.54-.98,.77l-.53,.3-1.27-2.24c-.52,.3-.86,.6-1.02,.91-.16,.31-.15,.63,.04,.96,.1,.18,.23,.34,.37,.47,.15,.14,.33,.26,.55,.38l-.72,.41c-.39-.22-.71-.54-.96-.98-.23-.41-.31-.79-.25-1.16,.06-.37,.24-.71,.54-1.04s.68-.61,1.14-.88c.79-.45,1.48-.66,2.05-.64,.57,.02,1,.29,1.3,.81Zm-.67,.38c-.12-.22-.33-.33-.61-.34-.29,0-.66,.11-1.12,.35l.82,1.45c.37-.21,.65-.45,.83-.71,.18-.26,.21-.51,.08-.75Z"/><path class="b" d="M454.06,313.26c.07,.13,.12,.28,.15,.44l-.94,.35c-.01-.12-.05-.26-.13-.41-.13-.26-.38-.4-.75-.41-.37-.01-.76,.1-1.2,.33l-2.49,1.28-.44-.84,4.8-2.48,.34,.66-.75,.53,.02,.04c.31-.03,.59-.01,.85,.06,.25,.07,.43,.22,.54,.43Z"/><path class="b" d="M452.25,318.75c-.46,.22-.88,.26-1.25,.12-.37-.14-.66-.43-.87-.88-.11-.23-.18-.45-.23-.67-.04-.22-.06-.42-.05-.61l.88-.41c-.04,.19-.05,.4-.03,.63,.02,.23,.08,.45,.17,.65,.09,.2,.22,.33,.38,.39s.34,.04,.55-.05c.17-.08,.29-.2,.36-.36,.07-.16,.12-.42,.15-.78,.04-.39,.13-.72,.26-1.01,.14-.29,.39-.52,.76-.69,.4-.19,.78-.21,1.13-.07,.36,.14,.64,.43,.84,.85,.1,.22,.17,.44,.2,.66,.03,.22,.04,.44,.01,.67l-.82,.04c.03-.17,.04-.35,.02-.52-.01-.17-.06-.33-.13-.48-.09-.19-.21-.32-.36-.37-.15-.05-.31-.04-.48,.04-.17,.08-.29,.2-.36,.36s-.11,.42-.15,.79c-.05,.39-.13,.73-.26,1.02-.13,.29-.38,.52-.75,.69Z"/></g><g><path class="b" d="M475.19,332.6l-7.26,.54-.32-1.13,3.83-1.94c.14-.07,.33-.15,.56-.26,.23-.1,.51-.22,.83-.34-.23,.03-.47,.07-.73,.11-.26,.04-.52,.07-.76,.09l-4.29,.34-.31-1.11,6.48-3.33,.27,.96-3.78,1.88c-.3,.15-.61,.29-.91,.43s-.56,.25-.79,.34c.31-.04,.62-.08,.94-.12,.32-.04,.62-.07,.89-.09l4.24-.31,.24,.86-3.79,1.91c-.24,.11-.5,.24-.78,.37-.29,.13-.59,.26-.9,.39,.32-.05,.63-.1,.95-.13s.62-.07,.89-.09l4.21-.34,.27,.97Z"/><path class="b" d="M471.83,338.02c-.53,.12-1.01,.16-1.45,.12-.44-.04-.81-.17-1.11-.38-.3-.22-.49-.54-.59-.98-.09-.41-.05-.78,.12-1.1,.17-.32,.45-.6,.84-.82,.38-.23,.84-.4,1.38-.52,.85-.19,1.54-.19,2.1,0,.55,.19,.9,.6,1.04,1.23,.13,.58,0,1.08-.39,1.51-.39,.42-1.03,.74-1.92,.93Zm-.62-2.72c-.64,.14-1.1,.32-1.39,.54-.29,.21-.4,.48-.33,.78,.07,.31,.28,.49,.63,.57,.35,.07,.85,.04,1.5-.11,.64-.14,1.1-.32,1.39-.53s.4-.48,.33-.78c-.07-.31-.28-.5-.63-.57-.35-.07-.85-.03-1.49,.11Z"/><path class="b" d="M475.59,343.21c.14,.86-.41,1.39-1.66,1.6l-3.55,.59-.16-.95,3.33-.56c.45-.08,.76-.18,.94-.31,.18-.13,.25-.31,.21-.52-.05-.3-.23-.49-.55-.56-.31-.07-.75-.06-1.32,.03l-2.86,.48-.16-.94,3.36-.56c.43-.07,.74-.18,.91-.31,.17-.13,.24-.31,.21-.52-.05-.33-.26-.52-.62-.57-.36-.05-.82-.03-1.39,.06l-2.71,.45-.16-.95,5.33-.89,.13,.76-.69,.22v.06c.58,.12,.92,.46,1.01,1.03,.05,.31,.01,.57-.11,.77-.12,.2-.3,.36-.54,.46v.07c.31,.08,.55,.2,.72,.36,.17,.16,.27,.39,.32,.68Z"/><path class="b" d="M476.16,347.65c.04,.38-.03,.7-.21,.98-.18,.28-.44,.5-.79,.66-.34,.17-.74,.28-1.2,.33l-.61,.07-.29-2.55c-.6,.07-1.03,.22-1.3,.44-.27,.22-.38,.52-.34,.9,.02,.2,.08,.4,.16,.58,.08,.18,.2,.37,.36,.57l-.83,.09c-.27-.35-.44-.78-.5-1.27-.05-.46,.02-.85,.22-1.17,.2-.31,.5-.56,.9-.74,.4-.18,.86-.3,1.39-.36,.91-.1,1.62-.03,2.14,.21,.52,.25,.81,.66,.88,1.25Zm-.77,.09c-.03-.25-.17-.44-.43-.55-.26-.12-.65-.16-1.17-.12l.19,1.66c.42-.05,.77-.16,1.04-.33,.27-.17,.39-.39,.36-.66Z"/><path class="b" d="M476.63,352.79c.06,.9-.53,1.39-1.77,1.48l-3.62,.26-.07-.96,3.4-.24c.41-.03,.71-.1,.91-.21,.2-.11,.3-.28,.28-.52-.02-.33-.19-.55-.49-.67-.31-.12-.8-.15-1.48-.1l-2.73,.19-.07-.96,5.39-.38,.05,.77-.71,.15v.06c.28,.09,.49,.24,.65,.44,.15,.2,.24,.43,.26,.69Z"/><path class="b" d="M472.54,356.94l-.11,.07c-.45-.08-.88-.17-1.29-.27-.41-.1-.79-.23-1.16-.38l-.03-.75c.4,.08,.84,.16,1.3,.22,.46,.06,.88,.1,1.25,.12l.04,.98Z"/><path class="b" d="M471.38,362.69l5.82-1.49v-.04c-.33,.02-.62,.03-.87,.04-.25,0-.45,0-.6,0l-4.31-.1,.02-.95,7.14,.16-.03,1.4-5.58,1.43v.03l5.51,1.69-.03,1.4-7.14-.16,.02-.96,4.3,.1c.17,0,.38,.01,.62,.03,.24,.01,.52,.03,.85,.05v-.04l-5.73-1.75,.02-.84Z"/><path class="b" d="M473.62,371.29c-.54-.04-1.01-.15-1.42-.31-.41-.17-.73-.4-.95-.69s-.31-.67-.28-1.11c.03-.42,.18-.76,.44-1.01,.26-.26,.61-.44,1.04-.54,.43-.1,.92-.13,1.47-.09,.86,.07,1.53,.27,2,.62,.47,.34,.68,.84,.63,1.48-.04,.59-.32,1.03-.82,1.33-.5,.29-1.2,.4-2.11,.33Zm.21-2.78c-.65-.05-1.15-.02-1.49,.1-.34,.12-.52,.34-.55,.65-.02,.31,.12,.55,.44,.73,.31,.17,.8,.28,1.47,.34,.65,.05,1.15,.02,1.48-.11,.34-.12,.52-.34,.54-.65,.02-.32-.12-.56-.43-.73s-.8-.28-1.46-.33Z"/><path class="b" d="M471.36,373.71c0,.09,0,.17,0,.26s.03,.18,.06,.27l-.77-.08c-.05-.12-.08-.25-.1-.39-.02-.14-.02-.29,0-.46,.04-.39,.2-.65,.47-.8,.27-.15,.66-.2,1.16-.14l3.16,.36,.06-.51,.52,.06,.19,.59,1.18,.38-.07,.65-1.18-.13-.1,.91-.8-.09,.1-.91-3.08-.35c-.25-.03-.44-.02-.58,.03-.13,.05-.21,.17-.23,.35Z"/><path class="b" d="M477.84,377.12l-1.99-.29c-.16-.02-.31-.05-.46-.08-.15-.03-.29-.07-.42-.12v.06c.23,.14,.41,.33,.52,.55,.11,.22,.14,.46,.11,.71-.07,.46-.28,.78-.63,.95-.35,.17-.82,.21-1.42,.12l-3.59-.53,.14-.95,3.37,.5c.43,.06,.75,.06,.95,0,.21-.07,.32-.21,.36-.44,.05-.33-.07-.59-.35-.77-.28-.18-.75-.32-1.39-.42l-2.71-.4,.14-.95,7.52,1.11-.14,.95Z"/><path class="b" d="M474.83,382.36c-.07,.37-.23,.67-.49,.88-.25,.21-.57,.34-.95,.4-.38,.06-.79,.04-1.24-.04l-.6-.11,.48-2.52c-.59-.11-1.05-.09-1.37,.03-.32,.13-.52,.38-.59,.76-.04,.2-.05,.4-.02,.6s.08,.42,.17,.65l-.82-.15c-.16-.42-.19-.87-.1-1.36,.09-.46,.27-.81,.56-1.05,.29-.24,.65-.39,1.08-.44,.43-.05,.91-.03,1.44,.07,.9,.17,1.56,.45,1.98,.84,.42,.39,.58,.88,.47,1.46Zm-.76-.14c.05-.25-.04-.47-.25-.66-.21-.19-.57-.34-1.08-.46l-.31,1.64c.42,.08,.78,.08,1.09,0s.49-.25,.54-.52Z"/><path class="b" d="M473.8,387.25c-.03,.14-.09,.29-.17,.43l-.95-.34c.07-.1,.12-.23,.16-.39,.06-.29-.04-.55-.31-.79-.27-.24-.65-.42-1.13-.52l-2.73-.62,.21-.93,5.27,1.19-.16,.72-.92-.07v.05c.25,.17,.45,.37,.6,.59,.14,.22,.19,.44,.14,.68Z"/><path class="b" d="M468.89,390.28c-.5-.13-.84-.36-1.04-.7-.19-.34-.23-.75-.1-1.24,.06-.25,.15-.47,.26-.66s.23-.36,.36-.5l.94,.25c-.15,.12-.3,.27-.43,.46-.13,.19-.23,.39-.28,.61-.06,.21-.04,.39,.04,.54,.08,.15,.24,.25,.46,.31,.18,.05,.35,.03,.51-.05,.16-.08,.37-.25,.61-.51,.28-.27,.56-.47,.85-.61s.63-.15,1.02-.04c.43,.11,.73,.33,.92,.67,.18,.34,.22,.74,.1,1.19-.06,.23-.15,.44-.26,.63-.12,.19-.26,.36-.42,.52l-.66-.49c.13-.12,.25-.24,.35-.38,.1-.14,.17-.29,.21-.45,.05-.21,.04-.38-.04-.52-.08-.14-.21-.23-.39-.28-.19-.05-.36-.03-.5,.05-.15,.08-.36,.25-.62,.51-.28,.27-.57,.48-.85,.62s-.62,.16-1.02,.06Z"/></g><g><path class="b" d="M483.78,341.69l.75-.11,.24,1.65-.75,.11-.24-1.65Z"/><path class="b" d="M485.86,348.17l.15,1.45-2.54,.26c-.22-.44-.36-.9-.41-1.39-.04-.41,.03-.76,.22-1.05,.19-.29,.47-.52,.84-.7,.37-.17,.81-.29,1.32-.34,.51-.05,.96-.02,1.36,.09,.4,.11,.72,.3,.96,.57,.24,.27,.38,.63,.43,1.06,.02,.23,.02,.45-.02,.66-.04,.21-.09,.4-.17,.57l-.71-.19c.16-.32,.22-.63,.19-.94-.04-.38-.23-.65-.57-.82-.34-.16-.81-.22-1.41-.16-.36,.04-.68,.1-.95,.2-.27,.1-.47,.23-.61,.4s-.19,.38-.17,.62c.02,.21,.07,.39,.14,.56l1.3-.13-.07-.66,.7-.07Z"/><path class="b" d="M483.53,353.51l-.14-2.14,4.99-.34,.14,2.14-.71,.05-.09-1.33-1.33,.09,.08,1.24-.71,.05-.08-1.24-1.52,.1,.09,1.33-.72,.05Z"/><path class="b" d="M483.72,358.24l-.03-.97,3.66-1.67v-.03c-.23,.03-.43,.05-.62,.06-.18,.01-.35,.02-.49,.03l-2.6,.08-.03-.77,5-.16,.03,.97-3.58,1.66v.03c.22-.02,.43-.04,.6-.06,.18-.01,.34-.02,.48-.03l2.55-.08,.03,.78-5,.16Z"/><path class="b" d="M486.29,362.85c-.83,0-1.47-.17-1.91-.5-.44-.33-.66-.8-.65-1.42v-1.11l5,.03v1.18c0,.59-.22,1.04-.63,1.36-.42,.32-1.02,.47-1.81,.47Zm-.03-.85c.59,0,1.03-.08,1.32-.25,.29-.17,.43-.42,.43-.75v-.34l-3.56-.02v.29c0,.36,.15,.63,.45,.81,.3,.17,.76,.26,1.37,.27Z"/><path class="b" d="M483.59,366.42l.08-2.15,4.99,.19-.08,2.15-.71-.03,.05-1.33-1.34-.05-.05,1.24-.71-.03,.05-1.25-1.52-.06-.05,1.33-.72-.03Z"/><path class="b" d="M488.43,369.26c-.04,.54-.18,.93-.44,1.17-.25,.24-.62,.35-1.1,.31-.31-.02-.58-.1-.79-.23s-.38-.33-.51-.59l-2.28,.87,.06-.91,2.06-.7,.03-.37-2-.14,.06-.82,4.99,.35-.07,1.05Zm-.71-.05l.02-.24-1.62-.11-.02,.27c-.03,.48,.23,.74,.8,.78,.27,.02,.46-.03,.6-.14,.13-.11,.21-.3,.22-.56Z"/><path class="b" d="M484.53,373.82l.75,.09-.19,1.65-.75-.08,.19-1.66Z"/></g><g><path class="b" d="M462.56,329.2c.12,.41,.09,.76-.1,1.06-.19,.3-.52,.52-.98,.66-.38,.12-.73,.15-1.07,.1-.34-.05-.69-.19-1.04-.41l-1.2,1.36c.36,.05,.8,.01,1.32-.11l.29,.95c-.35,.08-.72,.12-1.12,.12-.4,0-.78-.04-1.12-.12l-1.03,1.3-.34-1.12,.52-.59c-.3-.14-.55-.32-.76-.53-.2-.21-.36-.47-.46-.81-.16-.52-.1-.95,.17-1.31,.27-.36,.68-.62,1.21-.79,.41-.12,.79-.15,1.16-.07,.36,.08,.74,.26,1.13,.55,.25-.29,.48-.52,.72-.69,.23-.17,.52-.31,.87-.41,.44-.13,.83-.12,1.16,.03,.33,.16,.56,.43,.68,.83Zm-3.9,.86c-.26-.15-.5-.24-.72-.26-.23-.02-.48,0-.77,.1-.32,.1-.56,.24-.71,.43-.16,.19-.2,.4-.13,.62,.11,.35,.41,.6,.91,.75l1.42-1.63Zm3.18-.65c-.04-.12-.13-.2-.28-.24s-.35-.02-.59,.05c-.2,.06-.4,.16-.61,.29-.21,.13-.38,.29-.53,.46,.22,.12,.45,.19,.68,.19,.24,0,.48-.03,.74-.11,.48-.15,.68-.37,.59-.66Z"/><path class="b" d="M461.42,338.05l.43,1.89-3.49,.8c-.37-.54-.63-1.15-.78-1.81-.13-.57-.08-1.08,.14-1.52,.22-.44,.58-.81,1.08-1.12,.5-.31,1.1-.54,1.8-.7,.7-.16,1.34-.2,1.93-.12,.58,.08,1.07,.28,1.46,.61,.39,.33,.65,.8,.79,1.39,.07,.31,.1,.6,.08,.89s-.07,.57-.16,.84l-.88-.14c.17-.48,.21-.94,.11-1.37-.13-.56-.46-.93-1-1.12-.53-.19-1.24-.18-2.13,.02-.52,.12-.97,.28-1.35,.48-.38,.2-.66,.44-.84,.73-.18,.28-.23,.61-.14,.98,.04,.16,.08,.31,.14,.46,.06,.14,.12,.27,.2,.39l1.99-.46-.22-.95,.85-.19Z"/><path class="b" d="M464.11,343.05c.03,.14,.03,.3,.01,.46l-1,.06c.03-.12,.02-.26,0-.43-.05-.29-.25-.49-.6-.61-.35-.12-.76-.13-1.25-.03l-2.75,.5-.17-.94,5.31-.96,.13,.73-.87,.29v.05c.32,.06,.58,.16,.8,.3,.22,.14,.35,.33,.39,.57Z"/><path class="b" d="M464.58,346.1c.07,.51-.04,.9-.32,1.18-.29,.28-.73,.46-1.33,.54l-3.58,.51-.1-.71,.71-.25v-.02c-.3-.11-.54-.26-.7-.44-.17-.18-.27-.41-.31-.69-.04-.28,0-.52,.13-.73,.12-.2,.3-.36,.54-.48s.49-.2,.77-.24c.54-.08,.98,.02,1.31,.28,.33,.27,.55,.68,.66,1.23l.12,.62,.31-.04c.37-.05,.64-.14,.8-.28,.17-.13,.23-.32,.2-.55-.04-.29-.21-.62-.49-.99l.67-.39c.33,.4,.54,.88,.62,1.44Zm-2.78,.92l-.08-.44c-.13-.65-.52-.94-1.17-.84-.59,.08-.85,.32-.8,.72,.04,.26,.19,.44,.46,.56,.27,.12,.63,.14,1.07,.08l.51-.07Z"/><path class="b" d="M465.16,351.19c.08,.9-.49,1.4-1.73,1.52l-3.61,.34-.09-.96,3.4-.32c.4-.04,.71-.12,.91-.23,.2-.12,.29-.29,.27-.52-.03-.33-.2-.54-.51-.65-.31-.11-.8-.14-1.48-.07l-2.73,.26-.09-.95,5.38-.51,.07,.77-.71,.17v.06c.28,.09,.5,.23,.66,.43,.16,.2,.25,.42,.28,.68Z"/><path class="b" d="M459.87,355.74c-.02-.52,.2-.92,.67-1.22,.47-.29,1.16-.46,2.06-.5,.89-.04,1.59,.06,2.09,.31,.5,.25,.76,.62,.78,1.11,.01,.25-.04,.48-.17,.69-.12,.21-.31,.4-.57,.54v.04c.33-.03,.59-.06,.79-.07l2.1-.1,.04,.96-7.59,.35-.04-.77,.65-.16v-.06c-.26-.13-.46-.29-.6-.47-.13-.18-.21-.4-.22-.66Zm.82,.21c.03,.61,.63,.89,1.81,.84h.3c.65-.04,1.12-.14,1.41-.3,.3-.16,.44-.41,.42-.74-.01-.29-.19-.5-.53-.62-.34-.12-.83-.16-1.46-.13-1.33,.06-1.97,.38-1.95,.95Z"/><path class="b" d="M465.55,363.72c-.01,.87-.65,1.29-1.92,1.27l-3.6-.05v-.96l3.39,.05c.45,0,.78-.04,.98-.14,.2-.1,.3-.26,.3-.47,0-.31-.14-.52-.44-.65-.29-.13-.73-.2-1.3-.2l-2.9-.04v-.95l3.42,.05c.44,0,.76-.04,.95-.14,.19-.1,.29-.26,.3-.47,0-.33-.17-.56-.51-.67-.34-.11-.8-.18-1.38-.18l-2.75-.04v-.96l5.41,.08v.77l-.73,.09v.06c.54,.22,.81,.62,.8,1.19,0,.31-.09,.56-.25,.74-.16,.18-.36,.3-.61,.36v.07c.28,.13,.49,.29,.63,.48,.13,.19,.2,.44,.19,.73Z"/><path class="b" d="M462.38,369.97c-.54-.04-1.01-.14-1.43-.31-.41-.16-.73-.39-.95-.69-.22-.29-.32-.66-.28-1.11,.03-.42,.18-.76,.44-1.02,.26-.26,.61-.44,1.04-.54,.43-.11,.92-.14,1.47-.1,.86,.06,1.53,.27,2.01,.61,.47,.34,.69,.84,.64,1.48-.04,.59-.31,1.04-.81,1.33-.5,.29-1.2,.41-2.11,.34Zm.2-2.78c-.65-.05-1.15-.01-1.49,.11-.34,.12-.52,.34-.54,.65-.02,.31,.12,.55,.44,.72,.31,.17,.8,.28,1.47,.33,.65,.05,1.15,0,1.48-.11,.34-.12,.52-.34,.54-.65,.02-.32-.12-.56-.44-.73-.32-.17-.8-.28-1.46-.32Z"/><path class="b" d="M460.13,372.41c0,.09,0,.17,0,.26,.01,.09,.03,.18,.06,.27l-.77-.08c-.05-.12-.08-.25-.1-.39-.02-.14-.02-.29,0-.46,.04-.38,.2-.65,.47-.8,.27-.15,.66-.2,1.16-.14l3.16,.35,.06-.51,.52,.06,.18,.59,1.18,.38-.07,.65-1.18-.13-.1,.91-.79-.09,.1-.91-3.08-.34c-.25-.03-.44-.02-.58,.03s-.21,.17-.23,.35Z"/><path class="b" d="M466.6,375.83l-1.99-.3c-.16-.02-.31-.05-.46-.08-.15-.03-.29-.07-.42-.12v.06c.23,.14,.41,.33,.51,.55,.11,.22,.14,.46,.1,.71-.07,.46-.28,.78-.63,.95-.35,.17-.82,.21-1.42,.12l-3.59-.54,.14-.95,3.37,.51c.43,.07,.75,.06,.95,0,.21-.07,.33-.21,.36-.44,.05-.33-.07-.59-.35-.77-.28-.18-.75-.32-1.39-.42l-2.71-.41,.14-.95,7.51,1.14-.14,.95Z"/><path class="b" d="M463.56,381.07c-.08,.37-.24,.66-.49,.87-.26,.21-.57,.34-.95,.39-.38,.05-.79,.04-1.24-.05l-.6-.12,.5-2.52c-.59-.11-1.05-.1-1.37,.02-.32,.12-.52,.38-.6,.76-.04,.2-.05,.4-.03,.6,.02,.2,.08,.42,.17,.65l-.81-.16c-.16-.42-.18-.87-.09-1.36,.09-.46,.28-.81,.57-1.04,.29-.24,.65-.38,1.08-.43,.43-.05,.91-.02,1.44,.08,.9,.18,1.55,.46,1.97,.85,.42,.39,.57,.88,.45,1.46Zm-.76-.15c.05-.25-.03-.47-.24-.66-.21-.19-.57-.35-1.07-.47l-.33,1.64c.42,.08,.78,.08,1.09,0,.31-.08,.49-.25,.55-.52Z"/><path class="b" d="M462.47,385.99c-.03,.14-.09,.29-.18,.43l-.94-.35c.07-.1,.13-.23,.17-.39,.07-.29-.03-.55-.3-.8-.27-.25-.65-.42-1.13-.53l-2.72-.65,.22-.92,5.25,1.25-.17,.72-.92-.08v.05c.25,.18,.45,.38,.59,.6,.14,.22,.19,.45,.13,.68Z"/><path class="b" d="M457.52,388.95c-.49-.14-.84-.38-1.02-.72-.19-.34-.22-.75-.08-1.24,.07-.25,.16-.46,.27-.66s.23-.36,.37-.5l.93,.26c-.16,.12-.3,.27-.44,.45-.13,.19-.23,.39-.29,.61-.06,.21-.05,.39,.04,.54,.08,.15,.23,.26,.45,.32,.18,.05,.35,.04,.51-.04,.16-.08,.37-.24,.62-.5,.28-.27,.57-.46,.86-.59,.29-.13,.63-.14,1.03-.03,.42,.12,.72,.35,.9,.69,.18,.34,.21,.74,.08,1.19-.06,.23-.15,.44-.27,.63s-.26,.36-.43,.52l-.65-.5c.14-.11,.25-.24,.35-.38,.1-.14,.17-.29,.22-.45,.06-.21,.05-.38-.03-.52s-.21-.23-.39-.28c-.19-.05-.36-.04-.5,.04-.15,.08-.36,.25-.63,.5-.29,.27-.58,.47-.86,.6-.29,.14-.62,.15-1.02,.04Z"/></g><g><path class="b" d="M267.23,300.65l-.53,.84-5.28-3.34-.73,1.16-.75-.48,1.99-3.15,.75,.48-.73,1.15,5.28,3.34Z"/><path class="b" d="M264.78,294.38c.08-.12,.19-.24,.31-.34l.76,.66c-.1,.07-.2,.17-.29,.31-.16,.24-.16,.53,0,.85,.17,.33,.46,.62,.87,.89l2.32,1.56-.53,.79-4.48-3.02,.41-.61,.83,.4,.03-.04c-.18-.26-.3-.51-.36-.77-.06-.25-.02-.48,.12-.68Z"/><path class="b" d="M266.57,291.86c.3-.42,.65-.62,1.05-.62,.4,0,.84,.18,1.33,.54l2.93,2.13-.42,.58-.69-.31v.02c.12,.29,.19,.56,.19,.8,0,.24-.09,.48-.26,.71-.17,.23-.37,.38-.6,.43-.23,.06-.47,.04-.72-.03-.25-.08-.49-.2-.72-.37-.44-.32-.69-.69-.75-1.12-.06-.42,.07-.87,.38-1.35l.35-.53-.25-.18c-.3-.22-.56-.34-.77-.36-.21-.02-.39,.06-.53,.26-.17,.24-.28,.59-.33,1.06l-.75-.19c.04-.52,.23-1.01,.56-1.46Zm2.63,1.27l-.25,.38c-.36,.56-.27,1.04,.25,1.42,.48,.35,.84,.36,1.07,.04,.15-.21,.17-.45,.06-.73-.12-.27-.35-.54-.72-.8l-.42-.31Z"/><path class="b" d="M269.67,287.78c.56-.71,1.33-.67,2.3,.1l2.84,2.26-.6,.75-2.67-2.12c-.32-.25-.59-.41-.81-.46-.23-.05-.41,0-.55,.19-.2,.26-.23,.53-.09,.82,.15,.29,.48,.65,1.02,1.08l2.15,1.7-.6,.75-4.23-3.35,.48-.6,.63,.37,.04-.05c-.14-.25-.2-.51-.18-.76,.02-.25,.11-.48,.27-.68Z"/><path class="b" d="M276.24,286.17c.39,.33,.6,.7,.62,1.09,.03,.39-.13,.78-.45,1.16-.17,.19-.34,.35-.52,.48-.18,.13-.36,.23-.54,.29l-.74-.63c.19-.04,.39-.11,.59-.23,.2-.11,.38-.25,.52-.43,.14-.17,.21-.34,.2-.51-.01-.17-.1-.33-.27-.48-.14-.12-.3-.18-.48-.18-.18,0-.44,.06-.77,.19-.37,.12-.71,.18-1.03,.17-.32,0-.63-.14-.94-.41-.33-.29-.51-.62-.53-1.01-.02-.38,.13-.76,.44-1.11,.16-.18,.33-.33,.51-.45,.19-.12,.39-.22,.61-.28l.38,.73c-.17,.05-.33,.11-.48,.19-.15,.08-.28,.19-.39,.31-.14,.16-.2,.32-.19,.48,.01,.16,.09,.3,.23,.42,.15,.13,.3,.18,.47,.18,.17,0,.43-.07,.79-.19,.38-.12,.72-.18,1.04-.18,.32,0,.63,.13,.94,.4Z"/><path class="b" d="M272.85,281.02c.24-.27,.52-.26,.83,.02,.31,.28,.34,.55,.1,.82-.24,.27-.51,.26-.82-.02-.31-.28-.35-.56-.1-.82Zm1.84,1.03l4,3.62-.64,.7-4-3.62,.64-.71Z"/><path class="b" d="M280.12,283.08c.06-.06,.11-.13,.15-.21s.08-.16,.12-.25l.56,.53c-.03,.12-.09,.25-.16,.37-.07,.12-.16,.24-.28,.36-.27,.28-.55,.4-.86,.35-.31-.04-.64-.24-1.01-.59l-2.3-2.19-.35,.37-.38-.36,.21-.59-.71-1.02,.45-.47,.86,.82,.63-.67,.58,.55-.63,.67,2.25,2.14c.18,.17,.34,.28,.48,.32,.14,.04,.27,0,.4-.14Z"/><path class="b" d="M276.74,276.94c.25-.25,.53-.23,.83,.06,.29,.29,.31,.57,.06,.82s-.53,.24-.82-.06c-.3-.3-.32-.57-.06-.83Zm1.79,1.12l3.83,3.81-.67,.67-3.82-3.81,.67-.67Z"/><path class="b" d="M284.03,276.51c.37,.39,.65,.79,.84,1.19,.19,.4,.27,.78,.24,1.15-.03,.37-.21,.7-.54,1.01-.31,.29-.64,.44-1.01,.45-.37,.01-.74-.08-1.13-.3s-.77-.52-1.15-.92c-.59-.63-.95-1.23-1.07-1.8-.12-.57,.06-1.08,.53-1.52,.43-.41,.93-.55,1.5-.43,.56,.12,1.16,.51,1.79,1.18Zm-2.02,1.92c.45,.48,.84,.78,1.17,.92,.33,.14,.61,.1,.84-.11,.23-.21,.28-.49,.17-.83-.12-.34-.4-.75-.86-1.24-.45-.48-.84-.78-1.17-.92-.33-.14-.61-.1-.84,.12-.23,.22-.29,.5-.17,.83,.12,.34,.41,.74,.86,1.22Z"/><path class="b" d="M284.72,272.2c.68-.59,1.43-.41,2.24,.53l2.37,2.75-.73,.63-2.23-2.58c-.27-.31-.5-.51-.71-.61-.21-.1-.4-.07-.58,.09-.25,.21-.33,.48-.24,.79,.09,.32,.35,.73,.8,1.25l1.79,2.07-.73,.63-3.53-4.09,.58-.5,.55,.48,.05-.04c-.09-.28-.1-.54-.03-.78,.07-.24,.2-.45,.4-.62Z"/><path class="b" d="M288.62,266.8c.34-.26,.68-.35,1.03-.27,.35,.08,.67,.31,.96,.69,.24,.31,.39,.64,.46,.98,.07,.34,.06,.71-.02,1.12l1.7,.66c-.08-.36-.27-.76-.56-1.2l.79-.6c.19,.3,.36,.63,.5,1.01,.14,.38,.23,.74,.27,1.09l1.58,.52-.93,.71-.73-.28c-.03,.33-.11,.63-.23,.89-.12,.26-.32,.5-.6,.71-.43,.33-.86,.42-1.29,.29-.43-.13-.82-.42-1.16-.87-.26-.34-.42-.69-.47-1.06-.06-.37-.01-.79,.13-1.25-.36-.13-.66-.27-.9-.44-.24-.16-.47-.38-.69-.67-.28-.37-.4-.73-.37-1.1,.03-.37,.21-.68,.54-.93Zm.45,.6c-.1,.08-.14,.19-.13,.35,.02,.15,.1,.33,.26,.53,.12,.16,.29,.32,.48,.47,.2,.15,.4,.26,.62,.33,.04-.25,.02-.48-.05-.71s-.19-.44-.35-.66c-.31-.4-.58-.51-.83-.33Zm1.71,2.76c-.05,.29-.05,.55,0,.77,.06,.22,.17,.45,.36,.69,.2,.27,.42,.44,.65,.52,.23,.08,.44,.05,.63-.09,.29-.22,.42-.59,.39-1.11l-2.02-.77Z"/><path class="b" d="M299.95,267.65l-1.55-1.46-1.37,.92,.76,1.99-.89,.59-2.52-6.9,1.02-.68,5.43,4.96-.87,.58Zm-2.19-2.12l-1.63-1.57c-.15-.14-.28-.29-.41-.42-.13-.14-.25-.27-.35-.39,.08,.14,.16,.3,.24,.47,.08,.17,.15,.35,.22,.53l.84,2.11,1.1-.73Z"/><path class="b" d="M304.27,264.98l-2.09-2.37c-.13-.15-.27-.32-.41-.5s-.27-.34-.39-.49h-.03c.08,.22,.17,.42,.25,.62,.09,.2,.16,.39,.23,.56l1.06,2.99-.94,.56-3.75-4.05,.82-.49,1.71,1.9c.18,.21,.37,.43,.56,.66,.2,.23,.38,.46,.56,.7l.03-.02c-.1-.22-.21-.47-.32-.73-.11-.26-.22-.55-.33-.86l-.86-2.46,.92-.55,1.76,1.95c.31,.33,.67,.77,1.08,1.31l.03-.02c-.16-.3-.33-.7-.51-1.19l-1-2.87,.8-.48,1.75,5.24-.94,.56Z"/><path class="b" d="M305.78,257.84c.45-.24,.86-.27,1.22-.1,.36,.18,.68,.53,.96,1.07l1.7,3.19-.64,.34-.48-.58h-.02c0,.33-.06,.6-.17,.81-.11,.22-.29,.39-.55,.53-.25,.13-.5,.18-.73,.13-.23-.05-.44-.17-.63-.34-.19-.18-.35-.39-.49-.65-.26-.48-.32-.93-.18-1.33,.14-.4,.45-.75,.93-1.04l.54-.32-.14-.27c-.18-.33-.35-.55-.53-.66-.18-.11-.38-.11-.59,0-.26,.14-.51,.41-.76,.8l-.59-.5c.27-.45,.65-.81,1.14-1.07Zm1.81,2.3l-.39,.23c-.57,.35-.7,.81-.39,1.39,.28,.52,.59,.69,.95,.5,.23-.12,.35-.33,.37-.63,.02-.3-.08-.64-.29-1.04l-.24-.46Z"/><path class="b" d="M307.9,256.84l.89-.43,1.91,2.33c.12,.15,.24,.31,.36,.46s.24,.32,.35,.48l.04-.02c-.05-.16-.1-.34-.15-.53-.05-.19-.1-.4-.15-.62l-.67-2.93,.88-.43,1.25,6.21c.1,.6,.11,1.07,0,1.41-.1,.34-.33,.6-.67,.77-.14,.07-.31,.12-.51,.16l-.37-.76c.07-.01,.14-.02,.2-.04,.07-.02,.13-.04,.18-.07,.17-.08,.28-.21,.31-.38,.03-.17,.01-.45-.06-.85l-.13-.58-3.65-4.18Z"/></g><g><path class="b" d="M275.71,299.68l-.49,.7,3.77,2.63-.55,.79-3.77-2.63-.37,.52-.42-.29,.11-.7-.22-.15c-.53-.37-.87-.72-1.04-1.06-.17-.34-.11-.71,.17-1.11,.17-.24,.38-.45,.65-.62l.48,.62c-.07,.06-.14,.12-.2,.17-.06,.05-.12,.11-.16,.18-.1,.15-.11,.29-.02,.44,.09,.14,.3,.33,.64,.57l.28,.19,.49-.7,.66,.46Z"/><path class="b" d="M276.79,296.7c.09-.12,.2-.23,.33-.33l.73,.69c-.1,.06-.21,.16-.31,.29-.17,.24-.19,.52-.04,.85,.15,.33,.43,.64,.83,.93l2.25,1.67-.57,.76-4.33-3.22,.44-.59,.81,.44,.03-.04c-.17-.27-.27-.53-.32-.79-.04-.26,0-.48,.15-.68Z"/><path class="b" d="M282.1,294.49c.42,.34,.75,.69,1,1.06,.25,.37,.38,.74,.39,1.11,.02,.37-.12,.73-.4,1.07-.26,.33-.58,.52-.94,.59-.36,.06-.75,.02-1.16-.14-.42-.16-.83-.41-1.26-.76-.67-.54-1.11-1.09-1.3-1.64s-.09-1.08,.32-1.58c.37-.46,.85-.67,1.42-.63,.58,.04,1.22,.35,1.93,.92Zm-1.75,2.18c.51,.41,.94,.66,1.29,.76,.35,.09,.62,.02,.82-.22,.2-.24,.21-.53,.05-.84-.16-.32-.5-.69-1.02-1.11-.51-.41-.93-.66-1.28-.75-.35-.09-.62-.02-.81,.23-.2,.25-.22,.53-.06,.85,.16,.32,.5,.68,1.02,1.1Z"/><path class="b" d="M283.84,288.35c.58-.64,1.34-.53,2.28,.32l2.66,2.43-.65,.71-2.5-2.28c-.33-.31-.61-.49-.83-.54-.21-.06-.39,0-.54,.15-.21,.23-.24,.49-.1,.78,.14,.29,.42,.63,.84,1.02l2.14,1.95-.64,.7-2.52-2.3c-.32-.3-.59-.47-.81-.53-.21-.05-.39,0-.53,.16-.22,.25-.25,.53-.06,.84,.18,.31,.48,.67,.91,1.05l2.03,1.85-.65,.71-3.99-3.64,.52-.57,.6,.41,.04-.04c-.26-.53-.2-1,.19-1.42,.21-.23,.43-.36,.67-.39,.24-.03,.47,.02,.7,.13l.05-.05c-.13-.29-.18-.55-.15-.78,.03-.23,.14-.46,.34-.67Z"/><path class="b" d="M287.19,282.7c.54-.51,1.06-.76,1.56-.76,.5,0,.97,.25,1.43,.74,.31,.33,.52,.68,.61,1.03,.1,.35,.07,.72-.07,1.11l3.23,1.33-.8,.75-2.91-1.29-.45,.42,2,2.14-.73,.68-4.88-5.21,1.01-.94Zm.61,.64l-.28,.27,1.72,1.83,.34-.31c.26-.24,.38-.51,.37-.8-.01-.29-.17-.59-.46-.91-.29-.31-.57-.46-.83-.47-.27,0-.55,.12-.84,.4Z"/><path class="b" d="M292.17,280.44c.29-.25,.6-.37,.93-.38,.33,0,.66,.09,.99,.28,.33,.19,.64,.46,.94,.81l.4,.46-1.95,1.67c.39,.45,.76,.73,1.09,.83,.33,.1,.65,.03,.94-.22,.16-.13,.29-.29,.39-.45,.11-.17,.2-.37,.27-.61l.54,.63c-.14,.42-.4,.8-.78,1.12-.35,.3-.72,.46-1.09,.47-.37,0-.75-.1-1.12-.33-.37-.23-.73-.55-1.08-.95-.59-.69-.93-1.32-1.02-1.89-.08-.57,.1-1.04,.55-1.43Zm.5,.59c-.19,.16-.27,.39-.22,.67,.05,.28,.23,.62,.55,1.03l1.27-1.08c-.28-.32-.56-.55-.85-.68-.29-.13-.54-.11-.75,.07Z"/><path class="b" d="M299.04,280.03c.32,.4,.45,.8,.4,1.19-.05,.39-.27,.74-.66,1.05-.2,.16-.4,.28-.6,.37-.2,.09-.4,.15-.59,.18l-.6-.76c.19,0,.4-.04,.62-.11,.22-.07,.42-.18,.6-.32,.17-.14,.27-.29,.29-.46,.02-.17-.04-.34-.18-.52-.11-.15-.26-.24-.44-.27-.18-.03-.44-.02-.79,.03-.38,.05-.73,.04-1.04-.03-.31-.07-.59-.26-.84-.58-.27-.34-.38-.71-.32-1.09,.06-.38,.27-.72,.64-1.01,.19-.15,.39-.26,.59-.35,.21-.08,.42-.14,.65-.16l.23,.79c-.18,.01-.35,.04-.51,.1-.16,.05-.31,.13-.44,.23-.17,.13-.26,.28-.28,.44-.02,.16,.03,.31,.15,.46,.12,.15,.26,.24,.43,.26,.17,.02,.44,.01,.81-.03,.39-.04,.74-.04,1.05,.02s.59,.25,.85,.57Z"/><path class="b" d="M298.88,275.19c.31-.22,.63-.32,.96-.3,.33,.02,.65,.14,.96,.36,.31,.22,.6,.51,.87,.89l.36,.49-2.08,1.5c.36,.48,.7,.79,1.02,.92,.32,.13,.64,.08,.96-.15,.17-.12,.31-.26,.43-.42,.12-.16,.23-.36,.32-.59l.49,.67c-.17,.41-.46,.76-.86,1.06-.38,.27-.76,.4-1.13,.38-.37-.02-.74-.16-1.09-.42-.35-.26-.68-.61-1-1.04-.53-.74-.82-1.4-.86-1.97-.04-.57,.18-1.03,.66-1.38Zm.45,.62c-.21,.15-.3,.36-.27,.65,.02,.28,.18,.64,.47,1.08l1.35-.98c-.25-.35-.51-.6-.79-.75-.28-.16-.53-.15-.75,0Z"/><path class="b" d="M303.02,272.33c.12-.08,.26-.15,.42-.2l.45,.9c-.12,.02-.25,.08-.39,.17-.25,.16-.35,.43-.32,.79s.18,.75,.46,1.16l1.55,2.33-.79,.53-2.99-4.5,.62-.41,.61,.69,.04-.03c-.07-.31-.08-.59-.03-.85s.17-.45,.37-.59Z"/><path class="b" d="M308.09,275.64l-3.99-3.89,.84-.51,2.2,2.29c.14,.15,.28,.3,.42,.45,.14,.15,.27,.32,.41,.48l.03-.02c-.06-.11-.12-.25-.19-.42-.07-.17-.13-.36-.21-.58l-1.06-3.18,.84-.51,1.61,5.34-.9,.55Z"/><path class="b" d="M309.56,268.43c.33-.18,.66-.25,.98-.18,.32,.06,.63,.22,.91,.47,.28,.25,.54,.58,.76,.98l.29,.53-2.25,1.24c.3,.52,.6,.87,.9,1.03,.31,.17,.63,.16,.97-.03,.18-.1,.34-.22,.48-.37s.27-.33,.39-.55l.4,.73c-.22,.39-.55,.7-.99,.94-.41,.23-.8,.3-1.17,.24-.37-.07-.71-.25-1.03-.55-.32-.3-.61-.68-.86-1.15-.44-.8-.65-1.49-.62-2.06,.03-.57,.31-1,.82-1.29Zm.37,.67c-.22,.12-.34,.33-.35,.61-.01,.28,.1,.66,.34,1.12l1.46-.81c-.21-.37-.44-.65-.7-.84-.26-.19-.51-.22-.75-.08Z"/></g><g><path class="b" d="M238.04,367.64c-.02-.34-.16-.61-.43-.81-.27-.2-.62-.34-1.04-.42-.43-.08-.9-.11-1.4-.08-.86,.04-1.54,.21-2.01,.51-.48,.29-.7,.68-.68,1.15,0,.21,.05,.4,.11,.57,.06,.18,.15,.35,.24,.52l-.9,.05c-.21-.34-.33-.75-.35-1.22-.04-.75,.25-1.36,.88-1.82,.62-.46,1.51-.72,2.66-.78,.69-.04,1.31,.02,1.88,.17,.57,.15,1.02,.4,1.36,.75,.35,.35,.53,.79,.56,1.33,.02,.5-.08,.97-.32,1.43l-.85-.29c.09-.16,.16-.32,.22-.5,.05-.17,.07-.36,.06-.55Z"/><path class="b" d="M234.86,373.75c-.54,.05-1.02,.02-1.46-.07-.43-.1-.78-.27-1.05-.52-.27-.25-.42-.6-.46-1.05-.04-.42,.05-.78,.27-1.07,.21-.3,.53-.53,.94-.71,.41-.17,.89-.28,1.43-.33,.86-.08,1.56,.02,2.08,.28,.52,.26,.81,.71,.87,1.36,.05,.59-.14,1.07-.58,1.44-.44,.37-1.12,.6-2.03,.68Zm-.26-2.78c-.65,.06-1.13,.17-1.45,.35-.32,.17-.46,.42-.43,.73,.03,.31,.21,.53,.55,.64,.34,.12,.84,.15,1.5,.09,.65-.06,1.13-.17,1.45-.35,.31-.18,.45-.42,.43-.73-.03-.32-.21-.54-.55-.65-.34-.12-.84-.14-1.49-.08Z"/><path class="b" d="M238.36,379.1c.12,.86-.45,1.38-1.71,1.55l-3.57,.49-.13-.95,3.35-.46c.45-.06,.76-.16,.94-.29,.18-.13,.26-.3,.23-.51-.04-.3-.22-.5-.53-.58-.31-.08-.75-.08-1.32,0l-2.87,.4-.13-.94,3.38-.47c.44-.06,.74-.15,.92-.28,.18-.13,.25-.3,.22-.51-.05-.33-.25-.53-.61-.59-.36-.06-.82-.05-1.39,.02l-2.72,.38-.13-.95,5.35-.74,.1,.76-.7,.2v.06c.58,.14,.9,.49,.98,1.06,.04,.31,0,.57-.13,.76-.13,.2-.31,.35-.55,.45v.07c.31,.09,.54,.21,.7,.38,.16,.17,.26,.4,.3,.69Z"/><path class="b" d="M239.63,386.11c.17,.85-.37,1.4-1.61,1.64l-3.53,.7-.19-.94,3.32-.65c.44-.09,.75-.2,.93-.34,.17-.14,.24-.31,.2-.52-.06-.3-.25-.48-.56-.55-.31-.06-.75-.04-1.32,.07l-2.85,.56-.18-.93,3.35-.66c.43-.09,.73-.2,.9-.34,.17-.14,.23-.31,.19-.52-.06-.33-.28-.51-.64-.55-.36-.04-.82,0-1.39,.11l-2.7,.53-.19-.94,5.3-1.05,.15,.76-.69,.24v.06c.59,.1,.93,.44,1.04,1,.06,.31,.03,.57-.09,.77-.12,.21-.29,.37-.52,.48v.07c.32,.07,.56,.18,.73,.34s.28,.38,.34,.67Z"/><path class="b" d="M240.92,392.01l-5.24,1.3-.18-.74,.66-.28v-.06c-.6-.11-.95-.42-1.08-.95-.12-.47-.03-.85,.26-1.14,.29-.29,.74-.5,1.33-.65l3.42-.85,.23,.92-3.2,.79c-.87,.22-1.25,.52-1.15,.93,.08,.34,.29,.54,.61,.6s.77,.01,1.36-.13l2.76-.69,.23,.93Z"/><path class="b" d="M241.97,395.34c.25,.87-.22,1.47-1.42,1.82l-3.49,1.01-.27-.92,3.27-.95c.39-.11,.67-.25,.85-.4s.23-.34,.16-.56c-.09-.31-.3-.5-.62-.55-.32-.05-.81,.02-1.47,.21l-2.63,.76-.27-.92,5.19-1.51,.21,.74-.66,.3,.02,.06c.29,.03,.53,.13,.72,.29,.19,.16,.33,.37,.4,.62Z"/><path class="b" d="M242.94,398.83l-5.14,1.66-.29-.9,5.14-1.66,.29,.9Zm1.82-1.08c.11,.34-.03,.58-.43,.71-.39,.13-.65,.02-.76-.32-.11-.34,.03-.58,.42-.7,.4-.13,.65-.02,.77,.32Z"/><path class="b" d="M239.48,403.11c.03,.08,.07,.16,.12,.23,.05,.07,.1,.15,.17,.22l-.73,.25c-.09-.09-.18-.19-.25-.31s-.14-.26-.2-.41c-.13-.36-.1-.67,.08-.93,.18-.25,.51-.46,.99-.63l3-1.04-.17-.48,.49-.17,.42,.46,1.23-.16,.21,.61-1.12,.39,.3,.87-.76,.26-.3-.87-2.93,1.02c-.24,.08-.41,.17-.51,.28-.1,.1-.12,.24-.06,.42Z"/><path class="b" d="M244.7,403.85l-5.06,1.88-.33-.89,5.06-1.88,.33,.89Zm1.77-1.16c.13,.34,0,.58-.4,.73-.39,.14-.64,.05-.77-.29-.12-.34,0-.58,.39-.72,.39-.15,.65-.05,.78,.29Z"/><path class="b" d="M245.88,406.6c.14,.35,.16,.68,.06,1-.1,.31-.29,.6-.58,.85-.29,.25-.64,.46-1.07,.64l-.57,.23-.96-2.38c-.55,.23-.93,.49-1.13,.77-.2,.28-.23,.6-.09,.96,.08,.19,.18,.36,.31,.52,.13,.15,.29,.3,.5,.45l-.77,.31c-.36-.26-.63-.63-.82-1.09-.17-.43-.21-.83-.09-1.18,.11-.36,.33-.68,.67-.96,.34-.28,.75-.52,1.25-.72,.85-.34,1.55-.46,2.12-.36,.56,.1,.96,.42,1.18,.97Zm-.71,.29c-.09-.24-.28-.38-.56-.42-.28-.04-.67,.02-1.16,.2l.62,1.55c.4-.16,.7-.36,.92-.59,.22-.24,.28-.48,.17-.73Z"/><path class="b" d="M244.37,413.25c-.47,.21-.89,.24-1.25,.09-.36-.15-.65-.45-.85-.9-.1-.23-.17-.46-.21-.68-.04-.22-.05-.42-.03-.62l.89-.39c-.05,.19-.06,.4-.05,.63,.01,.23,.07,.45,.16,.66,.09,.2,.21,.33,.37,.4,.16,.06,.34,.05,.55-.04,.17-.08,.29-.19,.37-.36,.08-.16,.13-.42,.16-.78,.05-.38,.14-.72,.29-1,.14-.28,.4-.51,.77-.67,.4-.18,.78-.19,1.13-.04,.35,.15,.63,.44,.82,.88,.1,.22,.16,.44,.19,.66,.03,.22,.03,.44,0,.67l-.82,.02c.03-.17,.04-.35,.03-.52,0-.17-.05-.33-.12-.48-.09-.2-.2-.32-.35-.38-.15-.06-.31-.05-.48,.03-.18,.08-.3,.2-.36,.35s-.12,.42-.17,.79c-.05,.39-.15,.73-.28,1.01-.14,.29-.39,.51-.76,.68Z"/></g><g><path class="b" d="M243.59,374.22l-.24-2.29,.56-.06,.27,.62,5.59-.59,.13-.67,.56-.06,.24,2.29-.56,.06-.27-.63-5.59,.59-.13,.68-.56,.06Z"/><path class="b" d="M245.59,377.94c-.51,.07-.92-.02-1.23-.26-.31-.24-.5-.61-.56-1.1-.04-.25-.04-.49-.02-.71,.02-.22,.07-.42,.14-.6l.96-.13c-.1,.17-.17,.37-.22,.59-.05,.22-.06,.45-.03,.67,.03,.22,.11,.38,.25,.49,.14,.11,.32,.14,.54,.11,.18-.03,.34-.11,.46-.24,.12-.13,.24-.37,.37-.7,.15-.36,.34-.65,.56-.88,.22-.23,.53-.38,.93-.43,.44-.06,.8,.03,1.1,.27,.3,.24,.48,.6,.54,1.07,.03,.24,.03,.47,0,.69s-.1,.43-.19,.64l-.79-.21c.08-.16,.14-.32,.18-.49,.04-.17,.04-.33,.02-.5-.03-.21-.11-.37-.23-.46s-.28-.13-.47-.11c-.19,.03-.34,.11-.45,.24-.11,.13-.23,.37-.38,.71-.16,.36-.34,.66-.55,.89-.21,.24-.52,.38-.92,.44Z"/><path class="b" d="M247.59,382.45c-.53,.09-1.02,.11-1.46,.05-.44-.06-.8-.2-1.09-.43-.29-.23-.47-.57-.55-1.01-.07-.41-.01-.78,.17-1.09s.48-.57,.87-.78c.39-.21,.86-.36,1.4-.45,.85-.15,1.55-.12,2.09,.1,.54,.22,.87,.64,.98,1.28,.1,.58-.05,1.08-.46,1.49-.41,.41-1.06,.69-1.96,.85Zm-.49-2.75c-.64,.11-1.12,.27-1.41,.47-.3,.2-.42,.46-.37,.77,.05,.31,.25,.51,.6,.59s.85,.08,1.51-.04c.64-.11,1.11-.27,1.41-.47,.3-.2,.42-.46,.36-.76-.06-.32-.26-.51-.6-.6-.35-.08-.85-.07-1.5,.04Z"/><path class="b" d="M245.39,385.16l-.2-.94,7.44-1.55,.2,.94-7.44,1.55Z"/><path class="b" d="M251.43,386.93c.12,.5,.05,.9-.21,1.2-.26,.3-.68,.52-1.27,.67l-3.52,.85-.17-.7,.68-.32v-.02c-.31-.08-.56-.21-.74-.37-.18-.16-.31-.38-.38-.66s-.05-.52,.06-.73c.11-.21,.27-.39,.49-.53,.22-.14,.47-.24,.75-.31,.53-.13,.98-.07,1.33,.16,.36,.23,.62,.62,.77,1.17l.18,.61,.3-.07c.36-.09,.62-.2,.77-.35,.15-.15,.2-.34,.15-.57-.07-.29-.26-.6-.59-.94l.63-.45c.37,.37,.62,.83,.75,1.37Zm-2.68,1.18l-.12-.43c-.19-.64-.61-.88-1.25-.73-.58,.14-.82,.4-.72,.79,.06,.25,.23,.42,.51,.51,.28,.09,.64,.08,1.07-.02l.51-.12Z"/><path class="b" d="M247.93,392.35c.02,.08,.06,.16,.1,.24,.04,.08,.1,.15,.15,.23l-.74,.21c-.09-.09-.17-.2-.24-.32-.07-.12-.12-.26-.17-.42-.1-.37-.06-.68,.14-.92,.2-.24,.54-.43,1.03-.56l3.07-.84-.14-.49,.5-.14,.39,.48,1.24-.08,.17,.63-1.15,.32,.24,.89-.77,.21-.24-.89-2.99,.82c-.24,.07-.42,.15-.52,.24s-.13,.23-.08,.41Z"/><path class="b" d="M253.37,393.98c.11,.36,.11,.7-.02,1-.12,.3-.34,.57-.65,.8-.31,.23-.68,.41-1.12,.55l-.58,.18-.76-2.45c-.57,.18-.97,.41-1.19,.68-.23,.26-.28,.58-.16,.95,.06,.2,.15,.38,.26,.54,.11,.16,.27,.33,.46,.49l-.79,.25c-.34-.29-.58-.68-.73-1.16-.14-.45-.14-.84,0-1.19,.14-.35,.39-.65,.75-.9,.36-.25,.79-.46,1.3-.62,.87-.27,1.59-.33,2.14-.19,.55,.14,.92,.5,1.1,1.07Zm-.73,.23c-.08-.24-.25-.4-.53-.46-.28-.07-.67-.03-1.17,.1l.5,1.59c.41-.13,.73-.3,.97-.52,.24-.22,.31-.46,.23-.72Z"/><path class="b" d="M249.44,399.87c-.18-.49-.08-.94,.28-1.36,.36-.42,.97-.78,1.82-1.08,.84-.3,1.54-.41,2.09-.32,.55,.09,.91,.37,1.07,.83,.08,.23,.1,.47,.04,.71-.06,.24-.18,.47-.38,.68v.04c.31-.13,.56-.23,.75-.29l1.98-.71,.32,.9-7.15,2.56-.26-.73,.58-.34-.02-.06c-.29-.05-.52-.15-.7-.28-.18-.13-.32-.32-.4-.57Zm.85-.04c.21,.58,.87,.67,1.98,.27l.28-.1c.61-.22,1.03-.45,1.27-.69,.23-.24,.3-.52,.19-.83-.1-.28-.33-.42-.69-.43-.36-.01-.84,.09-1.44,.3-1.25,.45-1.78,.94-1.58,1.48Z"/></g><g><path class="b" d="M325.41,254.53c-.32,.11-.54,.32-.66,.63-.12,.31-.16,.69-.12,1.12,.04,.43,.14,.89,.3,1.37,.28,.82,.63,1.42,1.04,1.79,.42,.38,.85,.49,1.29,.33,.2-.07,.37-.16,.52-.27,.15-.11,.3-.24,.43-.37l.29,.85c-.27,.3-.63,.52-1.08,.68-.71,.24-1.38,.13-1.99-.34-.62-.47-1.11-1.25-1.48-2.35-.22-.65-.34-1.27-.35-1.85,0-.58,.1-1.09,.34-1.52,.24-.43,.61-.73,1.12-.9,.47-.16,.96-.19,1.46-.09l-.04,.89c-.18-.04-.36-.07-.54-.07-.18,0-.36,.03-.54,.09Z"/><path class="b" d="M328.49,252.25l.56,1.93c.04,.15,.08,.3,.12,.46,.03,.15,.06,.29,.07,.43l.06-.02c.03-.28,.12-.52,.28-.71,.16-.19,.36-.32,.6-.39,.45-.13,.82-.07,1.12,.17,.3,.25,.54,.66,.71,1.24l1.02,3.48-.92,.27-.96-3.27c-.12-.42-.25-.7-.4-.86-.15-.16-.33-.21-.55-.14-.32,.09-.5,.31-.55,.64-.05,.33,.02,.81,.2,1.44l.77,2.63-.92,.27-2.13-7.29,.92-.27Z"/><path class="b" d="M332.92,251.17c.35-.09,.58,.07,.68,.48,.1,.4-.02,.65-.37,.73-.35,.09-.57-.07-.68-.47-.1-.41,.02-.66,.37-.74Zm.97,1.88l1.34,5.23-.92,.24-1.34-5.23,.92-.24Z"/><path class="b" d="M337.47,257.74l-.94,.22-1.72-7.4,.94-.22,1.72,7.4Z"/><path class="b" d="M340.15,257.27c-.51,.1-.94-.06-1.3-.48-.36-.42-.62-1.07-.8-1.96-.17-.88-.17-1.58,0-2.11,.17-.53,.5-.84,.98-.94,.24-.05,.48-.03,.71,.06,.23,.09,.44,.25,.62,.48h.04c-.08-.32-.14-.58-.18-.78l-.41-2.06,.94-.19,1.46,7.46-.75,.15-.26-.62h-.06c-.09,.29-.22,.51-.38,.67-.16,.16-.37,.27-.62,.32Zm.09-.84c.6-.12,.79-.76,.56-1.91l-.06-.29c-.12-.63-.29-1.09-.49-1.35-.21-.27-.47-.37-.79-.31-.29,.06-.46,.26-.53,.62-.07,.36-.04,.84,.08,1.47,.26,1.3,.67,1.9,1.23,1.79Z"/><path class="b" d="M344.65,250.81c.14-.02,.3-.02,.46,0l.04,1.01c-.12-.03-.26-.03-.43,0-.29,.05-.5,.24-.62,.58-.12,.34-.15,.76-.06,1.24l.43,2.77-.94,.15-.83-5.33,.73-.11,.27,.88h.05c.07-.31,.17-.58,.32-.79,.15-.22,.34-.34,.58-.38Z"/><path class="b" d="M347.69,250.42c.38-.04,.7,.02,.98,.2,.28,.18,.5,.44,.67,.78,.17,.34,.28,.74,.33,1.2l.07,.61-2.55,.3c.08,.59,.23,1.03,.45,1.3,.22,.27,.52,.38,.91,.34,.21-.02,.4-.08,.58-.16,.18-.08,.37-.2,.57-.36l.1,.82c-.35,.28-.77,.44-1.27,.5-.46,.06-.85-.02-1.17-.22-.32-.2-.56-.5-.75-.9-.18-.4-.3-.86-.37-1.39-.11-.91-.04-1.62,.2-2.14,.24-.52,.66-.81,1.25-.88Zm.09,.76c-.25,.03-.44,.17-.55,.43-.12,.26-.15,.65-.11,1.17l1.66-.2c-.05-.42-.16-.77-.33-1.04-.17-.27-.39-.39-.66-.36Z"/><path class="b" d="M352.83,249.92c.9-.07,1.39,.52,1.49,1.76l.27,3.62-.96,.07-.25-3.4c-.03-.41-.1-.71-.21-.91-.11-.2-.28-.29-.52-.28-.33,.02-.55,.19-.67,.5-.12,.31-.15,.8-.1,1.48l.2,2.73-.96,.07-.4-5.38,.77-.06,.15,.71h.06c.09-.28,.24-.49,.44-.65,.2-.16,.43-.24,.69-.26Z"/></g><g><path class="b" d="M261.46,367.82c.06,.75-.07,1.31-.38,1.69-.31,.38-.8,.6-1.48,.65-.46,.03-.85-.02-1.19-.17-.33-.14-.6-.4-.82-.75l-3.06,1.68-.08-1.1,2.83-1.46-.05-.62-2.92,.22-.07-1,7.12-.53,.1,1.38Zm-.88,.08l-.03-.39-2.5,.19,.03,.46c.03,.35,.16,.61,.39,.79,.23,.17,.57,.24,1,.21,.42-.03,.72-.15,.89-.35,.18-.2,.25-.5,.22-.9Z"/><path class="b" d="M260.29,372.9c.05,.38-.02,.71-.2,.98-.18,.28-.44,.5-.78,.67-.34,.17-.74,.28-1.2,.34l-.61,.07-.31-2.55c-.6,.08-1.03,.23-1.3,.45-.27,.22-.38,.52-.33,.91,.02,.21,.08,.4,.16,.58s.2,.37,.36,.57l-.82,.1c-.28-.35-.45-.77-.51-1.27-.06-.46,.02-.85,.22-1.17,.2-.32,.5-.57,.9-.75,.4-.18,.86-.31,1.39-.37,.91-.11,1.62-.04,2.14,.2,.52,.24,.81,.66,.89,1.25Zm-.76,.09c-.03-.25-.18-.43-.43-.55-.26-.12-.65-.15-1.17-.11l.2,1.66c.42-.05,.77-.16,1.04-.33,.27-.17,.39-.39,.36-.66Z"/><path class="b" d="M261.44,380.12c.15,.85-.39,1.39-1.64,1.62l-3.54,.64-.17-.94,3.33-.6c.45-.08,.76-.19,.93-.33,.17-.14,.24-.31,.21-.52-.05-.3-.24-.49-.55-.55-.31-.07-.75-.05-1.32,.05l-2.85,.51-.17-.93,3.36-.61c.43-.08,.74-.18,.91-.32,.17-.14,.24-.31,.2-.52-.06-.33-.27-.51-.63-.56-.36-.05-.82-.02-1.39,.08l-2.71,.49-.17-.95,5.31-.96,.14,.76-.69,.23v.06c.59,.11,.93,.45,1.03,1.02,.06,.31,.02,.56-.1,.77-.12,.21-.3,.36-.53,.47v.07c.32,.07,.55,.19,.72,.35,.17,.16,.28,.39,.33,.68Z"/><path class="b" d="M260.1,386.8c-.52,.13-1.01,.18-1.45,.15-.44-.03-.82-.15-1.12-.36-.3-.21-.5-.53-.61-.97-.1-.41-.06-.77,.1-1.1,.17-.33,.44-.6,.82-.84,.38-.23,.83-.41,1.37-.54,.84-.2,1.54-.21,2.1-.03,.55,.18,.91,.59,1.06,1.21,.14,.58,.02,1.08-.36,1.51s-1.02,.75-1.91,.97Zm-.66-2.71c-.64,.15-1.1,.34-1.38,.56-.29,.22-.39,.48-.32,.79,.07,.3,.29,.49,.64,.55,.35,.07,.85,.02,1.5-.14,.64-.15,1.09-.34,1.38-.56,.28-.22,.39-.48,.31-.79-.08-.31-.29-.5-.64-.56-.35-.06-.85-.02-1.49,.14Z"/><path class="b" d="M258.94,389.96c.02,.08,.06,.16,.1,.24,.05,.08,.1,.15,.15,.23l-.74,.21c-.09-.09-.17-.2-.24-.32-.07-.12-.13-.26-.17-.42-.1-.37-.06-.68,.14-.92,.19-.24,.54-.43,1.02-.57l3.06-.86-.14-.49,.5-.14,.4,.48,1.24-.09,.18,.63-1.15,.32,.25,.89-.77,.22-.25-.89-2.98,.84c-.24,.07-.42,.15-.52,.25-.1,.1-.13,.23-.08,.41Z"/><path class="b" d="M264.4,391.55c.12,.36,.11,.69,0,1-.12,.3-.34,.57-.64,.8-.3,.23-.68,.42-1.11,.56l-.58,.19-.79-2.45c-.57,.19-.96,.42-1.19,.69-.22,.27-.27,.58-.16,.95,.06,.2,.15,.38,.27,.54,.12,.16,.27,.33,.46,.49l-.79,.25c-.34-.29-.58-.67-.74-1.15-.14-.44-.15-.84,0-1.19s.38-.65,.74-.91c.35-.25,.79-.46,1.29-.63,.87-.28,1.58-.35,2.14-.21,.56,.14,.93,.49,1.11,1.06Zm-.73,.24c-.08-.24-.25-.39-.53-.46-.28-.07-.67-.03-1.17,.11l.51,1.59c.41-.13,.73-.31,.96-.52,.23-.22,.31-.46,.23-.72Z"/><path class="b" d="M268.13,396.79c.16,.4,.15,.75-.01,1.06-.17,.31-.48,.56-.93,.74-.37,.15-.72,.21-1.06,.18-.34-.02-.7-.13-1.07-.32l-1.09,1.46c.37,.02,.8-.05,1.3-.22l.37,.92c-.34,.11-.71,.18-1.11,.21-.4,.03-.78,.02-1.12-.03l-.93,1.38-.43-1.09,.47-.63c-.31-.12-.58-.27-.8-.46-.22-.19-.39-.45-.52-.77-.2-.5-.18-.94,.07-1.32,.24-.38,.62-.67,1.14-.88,.4-.16,.78-.21,1.15-.17,.37,.05,.76,.2,1.17,.46,.22-.31,.44-.56,.66-.75,.22-.19,.5-.35,.83-.48,.43-.17,.81-.19,1.16-.06,.35,.13,.59,.38,.75,.77Zm-3.82,1.17c-.27-.13-.51-.2-.74-.21-.23,0-.48,.05-.76,.16-.31,.12-.53,.29-.67,.49-.14,.2-.16,.41-.08,.63,.14,.34,.46,.56,.97,.67l1.29-1.74Zm3.12-.91c-.05-.12-.15-.19-.3-.21-.15-.02-.35,0-.58,.1-.19,.08-.39,.19-.58,.34-.2,.15-.36,.32-.49,.51,.23,.1,.46,.15,.69,.14,.24-.01,.48-.07,.73-.16,.47-.19,.65-.42,.54-.71Z"/></g><g><path class="b" d="M254.78,310.6c.15-.3,.15-.61,.01-.91-.14-.3-.38-.59-.72-.87s-.74-.53-1.2-.75c-.79-.38-1.46-.56-2.02-.53-.56,.02-.95,.25-1.15,.67-.09,.18-.15,.37-.17,.56-.03,.19-.04,.37-.04,.57l-.82-.4c-.02-.4,.07-.81,.28-1.23,.33-.67,.88-1.06,1.65-1.16,.77-.1,1.68,.1,2.73,.61,.62,.3,1.15,.66,1.57,1.06,.43,.41,.71,.84,.85,1.31,.14,.47,.09,.94-.14,1.42-.22,.45-.54,.81-.97,1.09l-.61-.66c.16-.09,.3-.2,.43-.33,.13-.12,.23-.27,.32-.45Z"/><path class="b" d="M249.05,314.36c-.5-.22-.92-.47-1.25-.77-.34-.29-.56-.61-.68-.96s-.08-.73,.1-1.13c.17-.38,.42-.65,.75-.8,.33-.15,.72-.21,1.17-.16,.45,.05,.92,.18,1.43,.4,.8,.35,1.37,.76,1.71,1.24,.34,.48,.38,1.01,.12,1.6-.24,.54-.64,.86-1.21,.97-.57,.11-1.28-.02-2.12-.39Zm1.1-2.54c-.6-.26-1.09-.4-1.45-.4s-.61,.14-.73,.43c-.12,.28-.07,.56,.18,.82,.24,.27,.67,.53,1.29,.8,.6,.26,1.08,.4,1.45,.4,.36,0,.6-.15,.73-.43,.13-.29,.07-.57-.18-.83-.25-.26-.67-.53-1.28-.79Z"/><path class="b" d="M249.6,320.68c-.3,.8-1.05,.98-2.25,.53l-3.4-1.28,.34-.89,3.19,1.2c.43,.16,.75,.23,.97,.2,.22-.03,.37-.14,.44-.34,.11-.28,.04-.54-.19-.76-.24-.22-.63-.43-1.17-.64l-2.74-1.03,.33-.88,3.22,1.21c.42,.16,.73,.22,.95,.19,.22-.03,.37-.14,.44-.34,.12-.31,.03-.58-.26-.8-.29-.23-.7-.44-1.24-.64l-2.59-.98,.34-.89,5.09,1.92-.27,.71-.71-.16-.02,.06c.44,.39,.56,.85,.36,1.39-.11,.29-.27,.49-.48,.6-.21,.11-.44,.15-.7,.13l-.02,.07c.23,.22,.37,.44,.43,.67,.06,.23,.04,.47-.06,.75Z"/><path class="b" d="M247.39,327.39c-.26,.82-.99,1.04-2.21,.66l-3.46-1.08,.28-.91,3.25,1.02c.44,.14,.76,.19,.98,.15,.22-.04,.36-.16,.42-.36,.09-.29,.01-.54-.24-.75-.25-.21-.65-.39-1.2-.57l-2.79-.87,.28-.9,3.28,1.03c.42,.13,.74,.18,.96,.14s.36-.16,.42-.36c.1-.31,0-.58-.3-.79-.3-.21-.73-.4-1.28-.57l-2.65-.83,.28-.91,5.2,1.63-.23,.73-.72-.12-.02,.06c.46,.37,.61,.82,.44,1.36-.09,.3-.24,.51-.44,.63-.2,.12-.43,.18-.69,.17l-.02,.07c.24,.21,.4,.42,.47,.64,.08,.22,.07,.47-.02,.75Z"/><path class="b" d="M245.73,333.17l-5.27-1.37,.19-.73,.72,.07v-.06c-.45-.37-.62-.82-.49-1.34,.12-.47,.38-.76,.77-.87,.4-.11,.89-.09,1.49,.07l3.44,.89-.23,.91-3.22-.83c-.87-.23-1.36-.14-1.46,.26-.09,.34,0,.61,.26,.81,.26,.2,.68,.38,1.27,.53l2.77,.72-.24,.92Z"/><path class="b" d="M245.09,336.58c-.18,.87-.89,1.18-2.12,.91l-3.58-.77,.2-.93,3.36,.73c.4,.09,.71,.1,.94,.06,.23-.05,.36-.19,.41-.41,.07-.32-.03-.58-.3-.77s-.73-.37-1.4-.52l-2.7-.58,.2-.93,5.32,1.15-.16,.75-.73-.06v.06c.23,.17,.39,.37,.49,.6,.09,.23,.12,.48,.06,.73Z"/><path class="b" d="M244.31,340.11l-5.35-.99,.17-.93,5.35,.99-.17,.93Zm2.12-.08c-.06,.35-.3,.49-.72,.41-.41-.08-.58-.29-.52-.64,.06-.35,.3-.49,.71-.41,.42,.08,.59,.29,.53,.64Z"/><path class="b" d="M239.22,342.17c-.01,.09-.02,.17,0,.26,0,.09,.02,.18,.04,.27l-.77-.12c-.04-.12-.07-.25-.08-.39-.01-.14,0-.29,.02-.45,.06-.38,.23-.64,.51-.77,.28-.14,.67-.16,1.17-.08l3.16,.51,.08-.5,.52,.08,.16,.6,1.17,.44-.1,.64-1.18-.19-.14,.9-.79-.13,.14-.9-3.08-.5c-.25-.04-.45-.04-.58,0-.14,.04-.22,.15-.25,.34Z"/><path class="b" d="M243.52,345.32l-5.39-.75,.12-.93,5.39,.75-.12,.94Zm2.12-.18c-.05,.35-.28,.5-.7,.44-.41-.06-.6-.26-.55-.62,.05-.35,.28-.5,.69-.45,.42,.06,.61,.26,.56,.62Z"/><path class="b" d="M243.28,348.24c-.04,.38-.18,.68-.41,.9-.24,.23-.54,.38-.91,.47-.37,.09-.79,.1-1.25,.05l-.61-.07,.26-2.54c-.6-.06-1.06-.01-1.37,.14-.31,.15-.49,.42-.53,.8-.02,.2-.01,.4,.03,.6,.04,.19,.12,.4,.23,.63l-.83-.09c-.2-.4-.27-.85-.22-1.34,.05-.46,.2-.82,.47-1.08,.27-.26,.61-.43,1.05-.52,.43-.09,.91-.1,1.45-.04,.91,.1,1.6,.33,2.06,.68,.46,.35,.65,.82,.59,1.41Zm-.77-.08c.03-.25-.08-.46-.3-.63-.23-.17-.6-.3-1.12-.37l-.17,1.65c.43,.05,.79,.02,1.1-.08,.3-.1,.47-.29,.5-.56Z"/><path class="b" d="M238.83,353.36c-.52-.04-.9-.21-1.16-.51s-.37-.69-.33-1.19c.02-.25,.06-.48,.13-.69,.07-.21,.15-.4,.26-.55l.97,.07c-.13,.14-.24,.32-.34,.53-.09,.21-.15,.43-.16,.65-.02,.22,.03,.39,.15,.52,.11,.13,.28,.21,.51,.22,.19,.01,.35-.03,.5-.14,.14-.11,.31-.31,.51-.6,.22-.31,.46-.56,.73-.74,.26-.18,.6-.25,1-.22,.44,.03,.79,.2,1.03,.5,.25,.3,.35,.68,.32,1.15-.02,.24-.06,.46-.14,.67-.08,.21-.18,.4-.32,.58l-.74-.36c.11-.14,.2-.28,.27-.44,.07-.16,.11-.31,.12-.48,.01-.21-.03-.38-.14-.5-.11-.12-.25-.19-.44-.2-.19-.01-.36,.03-.49,.14-.13,.11-.31,.31-.52,.61-.23,.31-.47,.56-.73,.75-.25,.19-.59,.27-.99,.23Z"/></g><g><path class="b" d="M255.52,319.32l.46-1.09,6.08,.04,.02-.04c-.28-.09-.54-.18-.78-.27-.24-.09-.46-.18-.65-.26l-3.77-1.58,.37-.87,6.64,2.79-.46,1.09h-5.99v.03c.28,.11,.54,.21,.78,.3,.24,.09,.45,.17,.62,.24l3.7,1.55-.36,.86-6.64-2.79Z"/><path class="b" d="M256.27,325.16c-.51-.19-.95-.41-1.3-.68-.36-.27-.6-.58-.74-.92-.14-.34-.13-.72,.02-1.14,.14-.39,.37-.67,.69-.85,.32-.18,.71-.25,1.15-.24,.45,.02,.93,.12,1.45,.31,.82,.3,1.42,.68,1.78,1.13,.37,.46,.44,.99,.22,1.59-.2,.55-.58,.9-1.14,1.05-.56,.15-1.27,.06-2.14-.25Zm.93-2.6c-.62-.22-1.11-.33-1.47-.3-.36,.02-.6,.18-.7,.47-.11,.29-.03,.56,.23,.81,.26,.25,.71,.49,1.34,.72,.62,.23,1.11,.33,1.47,.3,.36-.02,.59-.18,.7-.48,.11-.3,.03-.57-.23-.82-.26-.25-.7-.48-1.33-.71Z"/><path class="b" d="M257.96,329.1c-.04,.14-.11,.28-.21,.41l-.92-.42c.08-.09,.14-.22,.19-.38,.09-.28,0-.55-.25-.81-.25-.27-.62-.47-1.09-.62l-2.69-.87,.29-.9,5.18,1.67-.22,.7-.91-.16-.02,.05c.25,.2,.43,.41,.56,.64,.13,.23,.16,.46,.08,.68Z"/><path class="b" d="M252.5,330.67c-.02,.08-.04,.17-.04,.26,0,.09,0,.18,.01,.27l-.75-.22c-.03-.12-.04-.26-.03-.4s.03-.29,.08-.45c.11-.37,.31-.6,.6-.71,.29-.1,.69-.08,1.18,.06l3.08,.89,.14-.49,.5,.14,.09,.61,1.11,.58-.18,.62-1.15-.33-.25,.88-.77-.22,.25-.88-3-.87c-.25-.07-.44-.09-.58-.07-.14,.02-.24,.13-.29,.3Z"/><path class="b" d="M258.54,334.85l-1.97-.49c-.16-.04-.31-.08-.46-.13-.15-.05-.28-.1-.41-.16v.06c.21,.17,.37,.37,.46,.6,.09,.23,.1,.47,.04,.72-.11,.45-.35,.74-.71,.88-.36,.13-.84,.13-1.44-.02l-3.55-.89,.23-.92,3.33,.83c.42,.11,.74,.14,.95,.09,.21-.05,.34-.18,.4-.4,.08-.32-.02-.59-.28-.8s-.72-.4-1.36-.55l-2.68-.67,.23-.92,7.43,1.86-.23,.92Z"/><path class="b" d="M255.29,339.58c-.07,.37-.24,.66-.5,.86-.26,.2-.58,.33-.96,.38-.38,.05-.8,.03-1.25-.06l-.6-.12,.5-2.5c-.59-.12-1.05-.11-1.38,.01-.33,.12-.53,.37-.6,.75-.04,.2-.05,.4-.03,.6,.02,.2,.08,.41,.17,.65l-.82-.17c-.16-.42-.19-.87-.09-1.36,.09-.45,.28-.8,.57-1.03,.29-.23,.65-.37,1.09-.42,.44-.05,.92-.01,1.45,.09,.9,.18,1.56,.47,1.98,.87,.42,.39,.57,.88,.46,1.46Zm-.76-.16c.05-.25-.03-.47-.24-.66-.21-.19-.57-.35-1.08-.48l-.33,1.62c.42,.09,.79,.09,1.1,.02,.31-.07,.5-.24,.55-.51Z"/><path class="b" d="M254.47,344.32c-.02,.14-.07,.29-.14,.44l-.97-.28c.06-.1,.11-.24,.14-.4,.05-.29-.07-.54-.37-.77-.29-.23-.68-.38-1.17-.45l-2.78-.47,.15-.93,5.36,.9-.12,.72-.92-.02v.05c.27,.16,.48,.34,.64,.55,.16,.21,.22,.43,.18,.67Z"/><path class="b" d="M254.01,347.75c-.11,.89-.78,1.25-2.03,1.09l-3.63-.47,.11-.95,3.41,.44c.41,.05,.72,.04,.94-.02s.35-.22,.37-.45c.04-.32-.08-.57-.36-.75-.28-.18-.76-.31-1.44-.4l-2.74-.35,.12-.95,5.39,.7-.09,.76h-.73v.06c.25,.15,.43,.33,.54,.56,.11,.22,.16,.47,.12,.72Z"/></g><g><path class="b" d="M260.75,421.73c-.17-.29-.42-.46-.76-.51-.33-.05-.7,0-1.12,.12-.42,.13-.85,.33-1.28,.59-.75,.45-1.27,.92-1.55,1.4s-.31,.93-.07,1.33c.1,.18,.23,.33,.37,.45,.14,.12,.29,.24,.46,.34l-.78,.47c-.35-.2-.64-.5-.88-.91-.38-.64-.4-1.31-.06-2.02,.34-.7,1.01-1.35,2.01-1.95,.59-.36,1.18-.6,1.75-.74,.57-.14,1.09-.13,1.56,0s.84,.44,1.11,.9c.25,.43,.38,.89,.38,1.4l-.89,.15c0-.18,0-.36-.04-.54s-.1-.35-.2-.51Z"/><path class="b" d="M260.77,428.61c-.46,.3-.9,.51-1.33,.63-.43,.12-.82,.14-1.18,.04-.36-.1-.66-.33-.9-.7-.23-.35-.32-.7-.26-1.07,.05-.36,.22-.72,.5-1.06,.28-.35,.66-.67,1.12-.97,.73-.48,1.39-.73,1.97-.75,.58-.02,1.05,.24,1.4,.78,.32,.49,.37,1.01,.15,1.54-.22,.54-.72,1.06-1.49,1.56Zm-1.52-2.31c-.55,.36-.93,.69-1.12,1-.2,.3-.21,.59-.04,.85,.17,.26,.43,.36,.79,.3,.36-.06,.81-.27,1.38-.64,.55-.36,.92-.69,1.12-1,.2-.3,.21-.58,.04-.84-.17-.27-.44-.37-.79-.31-.35,.06-.81,.27-1.36,.64Z"/><path class="b" d="M266.37,431.6c.51,.69,.25,1.42-.78,2.17l-2.93,2.14-.56-.77,2.75-2.01c.37-.27,.6-.5,.7-.7,.1-.2,.09-.39-.04-.56-.18-.25-.43-.33-.74-.25-.31,.08-.7,.29-1.17,.63l-2.36,1.73-.56-.76,2.78-2.03c.36-.26,.59-.49,.68-.69,.1-.2,.08-.38-.04-.55-.2-.27-.47-.34-.81-.22-.35,.12-.75,.35-1.22,.69l-2.24,1.64-.56-.77,4.39-3.21,.45,.62-.53,.51,.04,.05c.57-.15,1.02,0,1.36,.46,.18,.25,.26,.5,.24,.73-.02,.24-.11,.46-.27,.66l.04,.06c.31-.07,.57-.07,.79,0,.22,.07,.42,.22,.59,.46Z"/><path class="b" d="M270.77,437.12c.55,.66,.33,1.4-.66,2.21l-2.8,2.31-.61-.73,2.63-2.17c.35-.29,.57-.54,.66-.74,.09-.21,.06-.39-.07-.55-.19-.23-.45-.3-.75-.21-.31,.1-.69,.33-1.13,.69l-2.26,1.86-.6-.73,2.65-2.19c.34-.28,.56-.52,.64-.73,.09-.2,.06-.39-.08-.55-.21-.25-.49-.31-.82-.17-.34,.14-.73,.39-1.18,.76l-2.14,1.76-.61-.73,4.2-3.46,.49,.59-.5,.54,.04,.05c.56-.19,1.02-.06,1.38,.38,.2,.24,.29,.48,.29,.72,0,.24-.09,.46-.24,.67l.04,.05c.3-.09,.57-.1,.79-.04,.23,.06,.43,.2,.62,.42Z"/><path class="b" d="M274.71,441.67l-4.02,3.67-.51-.56,.46-.56-.04-.04c-.57,.19-1.03,.08-1.39-.31-.33-.36-.43-.73-.3-1.12,.12-.39,.41-.79,.87-1.21l2.62-2.39,.64,.69-2.46,2.24c-.67,.61-.86,1.06-.58,1.36,.24,.26,.51,.34,.82,.23,.31-.1,.69-.36,1.14-.77l2.12-1.93,.64,.7Z"/><path class="b" d="M277.19,444.05c.63,.63,.5,1.39-.4,2.27l-2.6,2.57-.67-.67,2.45-2.41c.29-.29,.48-.54,.56-.76,.08-.22,.04-.41-.12-.57-.23-.23-.5-.29-.81-.18-.31,.11-.71,.41-1.2,.89l-1.96,1.94-.67-.67,3.87-3.82,.54,.54-.45,.58,.04,.04c.27-.11,.53-.14,.78-.09,.25,.05,.46,.17,.65,.35Z"/><path class="b" d="M279.74,446.65l-3.76,3.94-.69-.65,3.76-3.94,.69,.65Zm1.09-1.82c.26,.25,.24,.52-.05,.83-.29,.3-.56,.33-.82,.08-.26-.25-.25-.52,.04-.82,.29-.31,.57-.34,.83-.09Z"/><path class="b" d="M278.68,452.04c.06,.06,.13,.11,.21,.15,.08,.04,.16,.08,.25,.11l-.52,.57c-.12-.03-.25-.08-.37-.14-.12-.07-.25-.15-.37-.26-.29-.26-.41-.54-.37-.85,.04-.31,.23-.65,.58-1.03l2.16-2.37-.38-.34,.35-.39,.59,.19,1.01-.74,.48,.43-.81,.89,.68,.61-.54,.6-.68-.61-2.1,2.31c-.17,.19-.28,.35-.32,.49-.04,.14,0,.27,.15,.39Z"/><path class="b" d="M283.67,450.16l-3.58,4.1-.71-.61,3.58-4.1,.71,.61Zm1.01-1.87c.27,.23,.27,.51-.01,.83-.27,.31-.55,.35-.82,.12-.27-.23-.27-.51,0-.82,.28-.32,.55-.36,.82-.13Z"/><path class="b" d="M285.98,451.96c.29,.24,.47,.52,.53,.84,.06,.32,.03,.66-.11,1.02-.13,.36-.35,.72-.64,1.08l-.39,.47-1.98-1.61c-.38,.47-.59,.88-.63,1.22-.04,.34,.08,.64,.38,.88,.16,.13,.33,.23,.52,.3s.4,.12,.65,.15l-.53,.64c-.44-.06-.86-.24-1.24-.55-.36-.29-.58-.62-.65-.99-.07-.37-.03-.75,.14-1.16s.42-.82,.76-1.23c.59-.71,1.15-1.16,1.7-1.35,.54-.19,1.05-.1,1.5,.27Zm-.49,.6c-.2-.16-.43-.19-.7-.09-.27,.1-.58,.34-.93,.73l1.29,1.04c.27-.33,.45-.65,.53-.96,.08-.31,.01-.55-.2-.72Z"/><path class="b" d="M287.84,458.49c-.31,.41-.67,.64-1.06,.69-.39,.05-.78-.07-1.18-.37-.2-.15-.37-.31-.51-.49-.14-.17-.25-.34-.32-.52l.59-.78c.05,.19,.13,.38,.26,.57,.12,.19,.27,.36,.45,.49,.17,.13,.35,.19,.52,.16,.17-.02,.33-.12,.47-.31,.11-.15,.17-.31,.16-.49,0-.18-.08-.43-.23-.76-.14-.36-.22-.7-.22-1.01,0-.32,.11-.64,.36-.96,.27-.35,.6-.55,.98-.59,.38-.04,.76,.08,1.14,.36,.19,.14,.35,.3,.48,.48,.13,.18,.24,.37,.32,.58l-.71,.42c-.06-.17-.13-.32-.22-.47-.09-.14-.2-.27-.33-.36-.17-.13-.33-.18-.49-.16-.16,.02-.3,.11-.41,.26-.12,.15-.17,.32-.15,.48,.02,.17,.09,.43,.23,.77,.14,.36,.21,.7,.23,1.02,.02,.31-.1,.63-.35,.96Z"/></g><g><path class="b" d="M268.46,425.86l-.66-.98,3.35-5.07-.02-.03c-.23,.19-.45,.36-.65,.51-.21,.15-.4,.29-.57,.4l-3.39,2.29-.53-.78,5.96-4.03,.66,.98-3.28,5.02,.02,.02c.25-.18,.48-.35,.68-.5,.21-.15,.39-.28,.54-.39l3.32-2.25,.52,.77-5.96,4.03Z"/><path class="b" d="M273.77,428.42c-.43,.33-.86,.57-1.28,.72-.42,.15-.81,.19-1.17,.12-.36-.07-.68-.29-.94-.64-.25-.33-.36-.68-.33-1.05,.03-.37,.17-.73,.43-1.09s.61-.71,1.05-1.04c.7-.53,1.34-.82,1.92-.87,.58-.06,1.07,.17,1.45,.68,.35,.47,.44,.98,.25,1.53-.19,.55-.65,1.1-1.38,1.65Zm-1.67-2.21c-.53,.39-.88,.75-1.06,1.07s-.17,.6,.01,.85c.19,.25,.45,.33,.81,.25,.35-.08,.79-.32,1.33-.73,.53-.4,.88-.75,1.05-1.06,.18-.31,.17-.6-.02-.84-.19-.25-.46-.34-.81-.25-.35,.08-.79,.33-1.32,.73Z"/><path class="b" d="M277.99,429.16c.09,.11,.17,.25,.23,.4l-.86,.54c-.03-.12-.1-.24-.21-.37-.18-.23-.46-.31-.82-.24-.36,.07-.73,.26-1.12,.58l-2.2,1.78-.59-.73,4.23-3.42,.46,.57-.63,.68,.03,.04c.3-.1,.58-.14,.84-.12,.26,.02,.47,.12,.62,.3Z"/><path class="b" d="M276.32,434.59c.06,.06,.12,.12,.19,.17,.07,.05,.15,.1,.23,.14l-.59,.51c-.12-.04-.24-.11-.35-.19-.11-.08-.23-.18-.33-.31-.25-.29-.34-.59-.26-.89,.08-.3,.31-.62,.69-.95l2.43-2.09-.33-.38,.4-.34,.56,.26,1.09-.62,.42,.49-.91,.78,.6,.69-.61,.53-.6-.69-2.37,2.04c-.19,.17-.32,.32-.37,.45-.05,.13-.02,.27,.1,.41Z"/><path class="b" d="M283.12,431.82l-1.49,1.38c-.12,.11-.24,.21-.36,.31-.12,.1-.24,.18-.35,.25l.04,.04c.27-.1,.52-.12,.76-.07,.24,.05,.45,.17,.62,.36,.32,.34,.43,.7,.34,1.08s-.36,.78-.8,1.19l-2.68,2.49-.65-.7,2.52-2.34c.32-.3,.52-.55,.6-.75,.08-.2,.04-.39-.11-.55-.23-.24-.5-.31-.82-.2-.32,.11-.72,.39-1.21,.83l-2.03,1.88-.65-.7,5.62-5.21,.65,.7Z"/><path class="b" d="M285.31,437.13c.27,.26,.42,.56,.45,.89,.03,.33-.04,.66-.2,1.01-.17,.35-.41,.68-.74,1.01l-.43,.44-1.82-1.79c-.42,.43-.67,.82-.75,1.16-.08,.34,.02,.64,.3,.91,.15,.14,.31,.26,.49,.35,.18,.09,.39,.16,.63,.21l-.59,.59c-.44-.1-.83-.32-1.18-.67-.33-.32-.51-.67-.55-1.04-.04-.37,.04-.75,.25-1.14,.2-.39,.49-.78,.87-1.16,.65-.65,1.25-1.05,1.81-1.19,.56-.14,1.05,0,1.47,.41Zm-.55,.55c-.18-.18-.41-.23-.68-.16-.28,.07-.61,.29-.99,.65l1.18,1.16c.3-.31,.51-.61,.62-.91,.11-.3,.07-.55-.13-.74Z"/><path class="b" d="M288.82,440.41c.11,.1,.2,.22,.29,.36l-.77,.66c-.05-.11-.14-.22-.26-.33-.22-.2-.5-.24-.85-.12-.35,.12-.69,.36-1.02,.73l-1.91,2.07-.7-.63,3.69-4,.54,.49-.53,.76,.04,.03c.28-.14,.56-.22,.82-.24,.26-.02,.48,.05,.66,.21Z"/><path class="b" d="M291.44,442.67c.68,.58,.62,1.34-.2,2.29l-2.37,2.78-.73-.61,2.23-2.61c.27-.31,.43-.58,.5-.8,.06-.22,0-.41-.17-.56-.25-.21-.52-.25-.82-.11-.3,.14-.67,.47-1.12,.99l-1.79,2.1-.73-.61,3.53-4.13,.59,.49-.4,.62,.05,.04c.26-.13,.52-.18,.77-.16,.25,.03,.48,.12,.67,.29Z"/></g><g><path class="b" d="M414.48,462.73l1.82,7.11-1.05,.5-2.58-3.47c-.09-.13-.21-.3-.35-.51-.14-.22-.3-.47-.48-.77,.08,.22,.15,.45,.24,.71,.08,.25,.16,.5,.22,.74l1.09,4.19-1.03,.49-4.41-5.87,.89-.43,2.51,3.44c.2,.28,.39,.55,.58,.83s.34,.52,.47,.72c-.1-.29-.19-.6-.28-.91-.09-.31-.17-.6-.25-.86l-1.05-4.16,.8-.38,2.54,3.43c.16,.22,.32,.46,.5,.72,.18,.26,.36,.54,.55,.83-.11-.3-.21-.61-.3-.92-.09-.31-.17-.6-.25-.87l-1.08-4.12,.9-.43Z"/><path class="b" d="M420.18,464.67c.26,.48,.43,.94,.52,1.38,.09,.44,.07,.83-.06,1.18-.12,.35-.38,.62-.77,.84-.37,.2-.73,.26-1.08,.18-.36-.08-.7-.28-1.02-.59s-.61-.71-.88-1.19c-.42-.77-.61-1.44-.58-2.03,.03-.59,.33-1.03,.89-1.34,.52-.28,1.03-.29,1.55-.03,.52,.26,.99,.8,1.43,1.61Zm-2.43,1.33c.31,.58,.61,.98,.9,1.2,.29,.22,.57,.26,.84,.11,.27-.15,.39-.4,.37-.76-.03-.36-.2-.83-.52-1.42-.31-.58-.61-.98-.9-1.2-.28-.22-.56-.26-.84-.11-.28,.15-.4,.41-.37,.76s.21,.83,.52,1.41Z"/><path class="b" d="M421.54,460.61c.13-.07,.27-.13,.43-.17l.41,.93c-.12,.02-.25,.07-.39,.15-.25,.15-.37,.41-.36,.77,.01,.37,.15,.76,.4,1.19l1.43,2.44-.81,.48-2.75-4.7,.63-.37,.58,.73,.04-.03c-.05-.31-.05-.6,0-.85,.06-.26,.19-.45,.39-.57Z"/><path class="b" d="M422.4,457.59l1.95,3.09c.11,.17,.21,.34,.3,.51,.09,.17,.19,.33,.27,.5l.03-.02c-.04-.25-.06-.5-.06-.74l-.07-2.26,.85-.54,.03,2.52,2.95,2.04-.87,.55-2.22-1.61-.12,.81,1.03,1.64-.8,.51-4.09-6.48,.8-.51Z"/><path class="b" d="M427.58,456.71c.31-.21,.63-.31,.95-.27,.33,.03,.64,.16,.95,.39,.31,.23,.59,.53,.85,.92l.35,.51-2.1,1.45c.35,.49,.68,.81,1,.95,.32,.14,.64,.1,.95-.12,.17-.12,.31-.25,.43-.41,.12-.16,.23-.35,.33-.58l.47,.69c-.18,.41-.47,.75-.88,1.03-.38,.26-.76,.38-1.13,.34-.37-.03-.73-.19-1.08-.46s-.67-.63-.97-1.07c-.52-.76-.79-1.43-.82-2-.03-.58,.2-1.03,.68-1.37Zm.44,.64c-.21,.14-.3,.36-.28,.64,.02,.28,.17,.65,.45,1.09l1.36-.94c-.24-.35-.5-.61-.78-.78-.28-.17-.53-.17-.75-.02Z"/><path class="b" d="M431.49,453.88c.12-.09,.25-.16,.41-.21l.5,.88c-.12,.03-.24,.09-.38,.19-.23,.17-.33,.44-.28,.81,.05,.36,.22,.75,.52,1.14l1.67,2.28-.76,.56-3.21-4.39,.59-.44,.64,.66,.04-.03c-.08-.31-.11-.59-.08-.85,.03-.26,.14-.46,.33-.6Z"/><path class="b" d="M437.11,454.62c.32,.41,.45,.81,.4,1.2-.05,.39-.27,.74-.66,1.05-.2,.16-.4,.28-.6,.37-.2,.09-.4,.15-.58,.18l-.6-.77c.19,0,.4-.03,.62-.1,.22-.07,.42-.17,.59-.31,.17-.14,.27-.29,.29-.46,.02-.17-.04-.35-.18-.53-.12-.15-.26-.24-.44-.28-.18-.04-.44-.03-.79,.03-.38,.05-.73,.03-1.04-.04-.31-.07-.59-.27-.84-.59-.27-.35-.38-.71-.33-1.1,.05-.38,.27-.72,.63-1.01,.19-.15,.38-.26,.59-.34,.21-.08,.42-.13,.65-.16l.23,.8c-.18,0-.34,.04-.51,.09-.16,.05-.31,.13-.44,.23-.17,.13-.26,.28-.28,.44-.02,.16,.03,.31,.15,.46,.12,.15,.26,.24,.43,.27s.43,.02,.8-.03c.39-.04,.74-.03,1.05,.03,.31,.06,.59,.26,.84,.58Z"/></g><g><path class="b" d="M400.15,458.4c-.31,.12-.52,.34-.63,.66-.1,.32-.13,.69-.07,1.13,.06,.44,.18,.89,.37,1.37,.32,.81,.69,1.4,1.12,1.77,.43,.36,.86,.46,1.3,.29,.19-.07,.36-.17,.5-.29,.15-.12,.28-.25,.41-.39l.33,.85c-.26,.31-.6,.55-1.04,.72-.7,.27-1.36,.18-2-.28s-1.16-1.22-1.58-2.31c-.25-.64-.4-1.26-.43-1.85-.04-.59,.05-1.1,.27-1.54,.22-.44,.58-.75,1.08-.94,.46-.18,.94-.22,1.45-.14v.9c-.18-.04-.36-.06-.54-.05-.18,0-.36,.04-.54,.11Z"/><path class="b" d="M406.93,459.53c.22,.5,.35,.97,.4,1.41,.05,.44,0,.83-.15,1.17-.15,.33-.43,.59-.84,.77-.38,.17-.75,.2-1.1,.08s-.67-.34-.97-.67c-.3-.33-.55-.76-.78-1.26-.35-.8-.49-1.49-.41-2.07,.08-.58,.41-1,1-1.26,.54-.24,1.05-.2,1.55,.1,.49,.31,.92,.88,1.29,1.72Zm-2.53,1.12c.26,.6,.53,1.03,.8,1.27,.27,.25,.54,.31,.83,.18,.28-.12,.43-.37,.43-.73,0-.36-.13-.85-.4-1.46-.26-.6-.53-1.03-.8-1.27-.27-.24-.54-.3-.83-.18-.29,.13-.44,.37-.43,.73,0,.36,.14,.84,.4,1.45Z"/><path class="b" d="M410.82,454.48c.77-.39,1.44-.01,2.01,1.13l1.64,3.24-.85,.43-1.54-3.04c-.21-.41-.4-.68-.58-.81-.18-.13-.37-.15-.55-.05-.27,.14-.39,.37-.37,.69,.03,.32,.17,.74,.43,1.26l1.32,2.61-.84,.42-1.55-3.07c-.2-.4-.39-.66-.57-.79-.18-.13-.36-.14-.55-.05-.3,.15-.41,.4-.35,.77,.06,.36,.22,.8,.48,1.32l1.25,2.47-.85,.43-2.46-4.86,.68-.34,.42,.6,.05-.03c-.06-.59,.16-1.01,.67-1.27,.28-.14,.53-.18,.76-.12,.23,.06,.43,.19,.6,.38l.06-.03c-.02-.32,.03-.58,.13-.78,.11-.21,.29-.38,.55-.51Z"/><path class="b" d="M416.93,450.99c.74-.44,1.43-.11,2.08,.99l1.85,3.12-.82,.49-1.73-2.93c-.23-.39-.44-.65-.63-.77s-.38-.12-.56-.01c-.26,.15-.37,.39-.32,.71,.05,.32,.22,.73,.51,1.23l1.49,2.52-.81,.48-1.75-2.96c-.23-.38-.43-.63-.62-.75-.19-.12-.37-.12-.55-.01-.28,.17-.38,.43-.3,.79,.08,.36,.27,.78,.57,1.28l1.41,2.39-.82,.49-2.77-4.69,.66-.39,.45,.57,.05-.03c-.1-.58,.1-1.02,.59-1.31,.27-.16,.52-.21,.75-.17,.23,.04,.44,.16,.63,.34l.06-.03c-.04-.31-.01-.58,.08-.79s.26-.4,.51-.55Z"/><path class="b" d="M422.01,447.79l3.02,4.53-.62,.42-.49-.53-.05,.03c.1,.59-.07,1.03-.52,1.33-.4,.27-.78,.31-1.15,.13-.37-.18-.72-.53-1.07-1.04l-1.97-2.95,.78-.53,1.84,2.77c.5,.75,.92,1.01,1.26,.78,.29-.2,.41-.46,.35-.78-.06-.32-.25-.74-.59-1.25l-1.59-2.38,.79-.53Z"/><path class="b" d="M424.73,445.68c.72-.53,1.45-.29,2.19,.72l2.16,2.95-.77,.57-2.03-2.77c-.24-.33-.46-.55-.67-.67-.2-.11-.4-.1-.58,.04-.26,.19-.36,.45-.29,.78,.07,.33,.3,.76,.71,1.32l1.63,2.23-.76,.57-3.22-4.39,.61-.46,.51,.53,.05-.04c-.07-.28-.06-.54,.02-.78s.23-.43,.44-.59Z"/><path class="b" d="M426.02,442.2c.28-.22,.55-.17,.81,.17,.26,.33,.25,.6-.03,.83-.28,.22-.55,.17-.81-.16-.26-.33-.25-.61,.03-.83Zm1.65,1.34l3.36,4.28-.74,.59-3.36-4.28,.74-.59Z"/><path class="b" d="M432.86,445.34c.07-.06,.12-.12,.17-.19,.05-.07,.1-.15,.14-.23l.49,.6c-.05,.12-.11,.24-.2,.35-.08,.11-.19,.22-.31,.33-.29,.25-.59,.33-.89,.25-.3-.08-.61-.32-.94-.71l-2.04-2.47-.39,.33-.33-.4,.27-.56-.59-1.11,.5-.41,.76,.92,.7-.59,.51,.62-.7,.59,1.99,2.41c.16,.2,.31,.33,.44,.38,.13,.06,.26,.03,.41-.09Z"/><path class="b" d="M430.74,440.99l.73-.66,2.47,1.74c.15,.11,.31,.23,.47,.35,.16,.12,.32,.25,.46,.38l.03-.03c-.09-.14-.19-.3-.29-.47-.1-.17-.21-.36-.31-.56l-1.45-2.66,.72-.65,2.92,5.68c.27,.55,.4,1.01,.4,1.37,0,.36-.14,.67-.43,.92-.12,.11-.27,.2-.44,.29l-.57-.64c.06-.03,.12-.06,.18-.1,.06-.03,.11-.07,.15-.11,.14-.13,.21-.28,.19-.45-.02-.17-.12-.44-.29-.8l-.28-.53-4.65-3.07Z"/></g><g><path class="b" d="M311.68,471.86c.65,.29,1.07,.66,1.23,1.12,.17,.46,.11,1.02-.18,1.68-.29,.67-.68,1.11-1.16,1.34-.48,.23-1.05,.2-1.7-.09l-.4-.18-1.09,2.48-.92-.4,2.86-6.54,1.35,.59Zm-.39,.78l-.38-.17-1.08,2.47,.31,.14c.39,.17,.72,.19,.98,.07,.26-.13,.49-.42,.7-.88,.18-.42,.23-.75,.14-1.01-.09-.26-.31-.46-.66-.62Z"/><path class="b" d="M315.35,475.17c.35,.14,.61,.35,.77,.64s.23,.62,.22,1c-.01,.38-.11,.79-.27,1.21l-.22,.57-2.39-.94c-.21,.56-.29,1.01-.22,1.35,.07,.34,.28,.58,.64,.72,.19,.08,.39,.12,.59,.13,.2,.01,.42,0,.67-.05l-.3,.77c-.44,.08-.89,.02-1.36-.16-.43-.17-.74-.42-.93-.75s-.26-.71-.23-1.14c.03-.44,.14-.9,.34-1.4,.33-.85,.73-1.45,1.19-1.79,.46-.34,.97-.4,1.52-.19Zm-.28,.72c-.24-.09-.47-.05-.69,.12-.23,.17-.44,.5-.65,.97l1.55,.61c.16-.4,.22-.76,.2-1.08-.02-.32-.16-.53-.41-.63Z"/><path class="b" d="M320.46,480c-.18,.51-.4,.94-.67,1.3-.27,.36-.57,.6-.91,.74-.34,.14-.72,.13-1.14-.02-.4-.14-.69-.37-.87-.69-.18-.32-.27-.7-.25-1.14,.01-.45,.11-.93,.29-1.44,.29-.82,.66-1.41,1.11-1.78,.45-.37,.99-.44,1.6-.23,.56,.2,.92,.57,1.07,1.13,.15,.56,.08,1.26-.22,2.12Zm-2.64-.92c-.22,.62-.31,1.1-.28,1.46,.03,.36,.19,.59,.49,.7,.3,.1,.57,.03,.81-.23,.25-.26,.48-.7,.7-1.33,.22-.62,.31-1.1,.28-1.46-.03-.36-.19-.59-.49-.69-.3-.11-.57-.03-.82,.23-.24,.26-.47,.7-.69,1.33Z"/><path class="b" d="M324.53,478.36c.49,.15,.8,.49,.92,1.03,.12,.53,.05,1.24-.22,2.12-.26,.85-.59,1.47-.99,1.85-.4,.39-.83,.51-1.31,.37-.25-.08-.45-.21-.61-.41-.16-.19-.26-.44-.31-.73h-.04c-.03,.14-.07,.29-.1,.41-.03,.13-.06,.24-.09,.33l-.69,2.24-.92-.28,2.29-7.46,.75,.23-.09,.74h.05c.23-.23,.46-.38,.68-.45,.23-.06,.45-.06,.68,.01Zm-.48,.71c-.3-.09-.56-.02-.79,.22-.23,.24-.44,.65-.62,1.25l-.06,.21c-.19,.63-.27,1.12-.21,1.45,.05,.34,.23,.55,.54,.65,.27,.08,.52,0,.75-.27,.23-.27,.44-.72,.64-1.35,.2-.64,.28-1.13,.25-1.49-.03-.35-.19-.58-.49-.67Z"/><path class="b" d="M326.64,484.69l-.93-.25,2.02-7.33,.93,.25-2.02,7.33Z"/><path class="b" d="M330.99,480.14c.37,.09,.65,.27,.85,.53,.2,.26,.31,.59,.35,.97s0,.79-.11,1.24l-.15,.59-2.5-.61c-.14,.58-.15,1.04-.04,1.37s.35,.54,.73,.63c.2,.05,.4,.07,.6,.05,.2-.01,.42-.06,.66-.14l-.2,.81c-.42,.14-.88,.14-1.37,.03-.45-.11-.79-.32-1.02-.62-.23-.3-.35-.67-.38-1.1-.03-.44,.02-.91,.15-1.43,.22-.89,.53-1.53,.94-1.93,.41-.4,.9-.53,1.48-.39Zm-.18,.75c-.25-.06-.47,0-.67,.21-.2,.2-.37,.55-.52,1.05l1.62,.4c.1-.41,.12-.78,.06-1.09-.06-.31-.23-.5-.49-.57Z"/></g><g><path class="b" d="M312.39,459.98c.38,.18,.62,.45,.71,.79,.09,.34,.03,.73-.18,1.17-.17,.35-.39,.64-.66,.85-.27,.21-.6,.38-1.01,.49l.18,1.81c.28-.23,.55-.58,.81-1.04l.89,.43c-.18,.31-.4,.61-.67,.91-.27,.3-.56,.54-.85,.74l.25,1.64-1.05-.51-.08-.78c-.31,.12-.61,.19-.9,.2-.29,0-.59-.06-.9-.21-.49-.23-.77-.57-.85-1.02-.08-.44,0-.92,.25-1.42,.18-.38,.43-.68,.73-.9,.3-.22,.69-.37,1.17-.46-.05-.38-.05-.71-.02-1,.03-.29,.13-.59,.29-.92,.2-.42,.47-.69,.81-.83,.34-.14,.7-.12,1.07,.06Zm-2.01,3.45c-.28,.08-.51,.2-.69,.35-.17,.15-.32,.36-.45,.63-.14,.3-.2,.57-.16,.81,.03,.24,.16,.42,.37,.52,.33,.16,.72,.11,1.17-.16l-.23-2.15Zm1.68-2.78c-.11-.05-.24-.04-.37,.05-.13,.09-.25,.24-.36,.47-.09,.19-.16,.4-.2,.65-.04,.25-.05,.48-.02,.7,.24-.08,.44-.2,.61-.37,.17-.17,.31-.37,.42-.61,.22-.46,.19-.75-.08-.88Z"/><path class="b" d="M314.6,468.94l2.72-6.6,.92,.38-2.38,5.78,1.8,.74-.34,.82-2.73-1.12Z"/><path class="b" d="M321.9,467.67l1.82,.66-1.22,3.36c-.66,.02-1.31-.09-1.95-.33-.55-.2-.95-.51-1.2-.94-.25-.43-.37-.93-.35-1.52s.14-1.21,.39-1.89c.25-.68,.56-1.24,.94-1.68s.82-.74,1.31-.89c.49-.15,1.02-.12,1.6,.09,.29,.11,.56,.25,.8,.42,.24,.17,.44,.37,.62,.59l-.59,.67c-.31-.41-.68-.68-1.09-.83-.54-.2-1.03-.12-1.48,.23-.45,.35-.82,.95-1.13,1.8-.18,.5-.29,.97-.33,1.39-.04,.43,.01,.8,.15,1.1,.14,.31,.39,.52,.75,.65,.16,.06,.31,.1,.46,.13s.3,.04,.43,.04l.7-1.92-.91-.33,.3-.82Z"/><path class="b" d="M326.1,465.64l1.59,.49c1.28,.4,1.75,1.15,1.41,2.25-.13,.43-.32,.75-.57,.96-.25,.22-.54,.31-.88,.29v.04c.33,.21,.56,.48,.65,.8,.1,.32,.07,.7-.06,1.15-.19,.6-.49,1.03-.92,1.29-.43,.26-.93,.3-1.51,.12l-1.82-.57,2.11-6.82Zm-.18,3.96l-.73,2.35,.78,.24c.62,.19,1.05-.12,1.3-.93,.11-.37,.11-.68,0-.93-.12-.25-.34-.42-.65-.52l-.7-.22Zm.24-.78l.64,.2c.33,.1,.6,.08,.81-.06,.21-.14,.37-.39,.49-.76,.2-.64-.03-1.05-.67-1.25l-.63-.2-.64,2.07Z"/><path class="b" d="M330.88,474.47l-.96-.25,1.6-6.04-1.32-.35,.23-.86,3.6,.95-.23,.86-1.31-.35-1.59,6.04Z"/><path class="b" d="M338.43,472.54c-.19,.87-.46,1.57-.8,2.09-.34,.52-.74,.85-1.2,.99l.7,2.05-1.14-.25-.52-1.77c-.06,0-.11,0-.17-.02-.4-.08-.72-.25-.95-.5s-.41-.56-.51-.93c-.1-.37-.15-.78-.14-1.23,0-.45,.07-.93,.18-1.42,.52-2.38,1.54-3.4,3.06-3.07,.74,.16,1.23,.58,1.5,1.27,.26,.68,.26,1.62,0,2.8Zm-3.56-.77c-.39,1.81-.17,2.81,.68,2.99,.85,.18,1.47-.63,1.86-2.44,.39-1.81,.17-2.81-.67-2.99-.42-.09-.79,.07-1.11,.48-.31,.41-.57,1.07-.76,1.96Z"/></g><g><path class="b" d="M363.01,476.19c0,.41-.08,.78-.23,1.1-.16,.32-.38,.56-.68,.74-.29,.18-.63,.27-1.03,.27-.29,0-.57-.02-.82-.07-.25-.05-.49-.13-.72-.25v-1.03c.23,.14,.48,.24,.75,.32,.27,.07,.52,.11,.75,.1,.31,0,.55-.11,.72-.32,.17-.21,.25-.46,.25-.76,0-.21-.03-.38-.1-.53s-.17-.29-.33-.41-.37-.26-.64-.41c-.28-.16-.53-.32-.73-.5-.21-.17-.37-.38-.48-.63-.11-.25-.17-.56-.17-.93,0-.38,.07-.71,.22-1.01s.38-.52,.66-.68c.28-.16,.61-.24,.99-.25,.29,0,.56,.03,.81,.11,.25,.07,.49,.16,.7,.26l-.29,.9c-.21-.12-.42-.2-.62-.26-.2-.06-.39-.08-.57-.08-.29,0-.51,.09-.66,.27s-.23,.4-.23,.68c0,.22,.03,.4,.1,.55,.06,.15,.17,.28,.33,.4,.16,.12,.37,.25,.65,.41,.46,.24,.8,.52,1.03,.84,.23,.32,.34,.7,.35,1.16Z"/><path class="b" d="M365.76,472.59c.38-.02,.7,.07,.96,.27,.26,.2,.47,.47,.61,.83,.14,.35,.22,.76,.25,1.22l.03,.61-2.57,.12c.04,.6,.15,1.04,.35,1.32,.2,.29,.49,.42,.88,.4,.21,0,.4-.05,.59-.12,.19-.07,.38-.17,.59-.32l.04,.83c-.37,.25-.8,.39-1.3,.41-.47,.02-.85-.08-1.15-.3-.3-.22-.53-.54-.68-.95s-.24-.88-.27-1.42c-.04-.91,.08-1.62,.36-2.12s.72-.76,1.31-.79Zm.04,.77c-.25,.01-.45,.14-.58,.39-.14,.25-.2,.63-.2,1.16l1.67-.08c-.02-.43-.1-.78-.25-1.07-.15-.28-.36-.42-.63-.41Z"/><path class="b" d="M370.68,472.24c.9-.08,1.4,.5,1.51,1.74l.32,3.62-.96,.08-.3-3.4c-.04-.41-.11-.71-.22-.91-.12-.2-.29-.29-.52-.27-.33,.03-.54,.2-.66,.5-.11,.31-.14,.8-.08,1.48l.24,2.73-.96,.08-.47-5.38,.77-.07,.16,.71h.06c.09-.28,.23-.5,.43-.66,.2-.16,.42-.25,.68-.27Z"/><path class="b" d="M373.61,469.96c.36-.04,.56,.14,.61,.56,.05,.41-.1,.64-.46,.68s-.56-.14-.61-.55c-.05-.42,.1-.65,.46-.69Zm.71,1.99l.64,5.36-.94,.11-.64-5.36,.94-.11Z"/><path class="b" d="M379.6,473.91c.08,.53,.09,1.02,.02,1.46-.07,.44-.22,.8-.46,1.08-.24,.28-.58,.46-1.02,.52-.42,.06-.78,0-1.09-.2-.31-.2-.56-.49-.76-.89-.2-.4-.34-.87-.42-1.41-.13-.86-.08-1.55,.15-2.09,.23-.54,.66-.86,1.3-.95,.59-.09,1.08,.07,1.48,.49,.4,.42,.67,1.08,.8,1.98Zm-2.76,.43c.1,.65,.25,1.12,.44,1.42,.19,.3,.45,.43,.76,.39,.31-.05,.51-.24,.61-.59,.1-.34,.09-.85,0-1.51-.1-.65-.25-1.12-.44-1.42-.19-.3-.45-.43-.76-.38-.32,.05-.52,.24-.61,.59-.09,.34-.09,.84,0,1.5Z"/><path class="b" d="M382.27,470.57c.14-.03,.3-.03,.46-.02l.07,1.01c-.12-.02-.26-.02-.43,0-.29,.06-.49,.26-.6,.6s-.12,.76-.02,1.25l.52,2.75-.93,.18-1-5.31,.73-.14,.3,.87h.05c.06-.32,.16-.58,.3-.8,.14-.22,.33-.35,.57-.4Z"/><path class="b" d="M387.08,473.63c.11,.5,.06,.92-.15,1.24-.21,.33-.56,.55-1.05,.66-.25,.06-.48,.08-.71,.08-.22,0-.43-.03-.61-.09l-.21-.95c.18,.08,.38,.14,.61,.17,.23,.03,.45,.02,.68-.03,.21-.05,.37-.14,.46-.29,.09-.14,.12-.33,.07-.55-.04-.18-.13-.33-.28-.43-.14-.11-.39-.21-.73-.31-.37-.12-.68-.28-.93-.48s-.42-.49-.51-.89c-.1-.43-.04-.8,.18-1.12,.22-.32,.55-.53,1.02-.63,.23-.05,.46-.07,.68-.06,.22,.01,.44,.06,.66,.13l-.14,.81c-.17-.06-.33-.11-.5-.13-.17-.02-.34-.02-.5,.02-.21,.05-.36,.14-.44,.27s-.11,.29-.07,.48c.04,.19,.13,.33,.27,.43s.39,.2,.74,.32c.37,.13,.68,.29,.94,.48s.42,.48,.51,.88Z"/></g><g><path class="b" d="M309.88,454.2l-.87-.48,3-5.48-1.2-.66,.43-.78,3.26,1.79-.43,.78-1.19-.65-3,5.48Z"/><path class="b" d="M314.77,456.69l.83-3.04c.06-.19,.12-.4,.19-.61,.07-.21,.14-.41,.2-.6h-.03c-.12,.16-.25,.35-.37,.53-.12,.19-.24,.35-.35,.5l-1.92,2.53-.98-.48,1.32-5.36,.86,.42-.66,2.47c-.08,.27-.16,.54-.25,.84-.09,.29-.18,.58-.28,.86h.03c.13-.2,.28-.42,.44-.65,.16-.24,.34-.48,.54-.75l1.59-2.08,.96,.47-.67,2.54c-.11,.43-.28,.98-.5,1.62l.04,.02c.17-.3,.4-.66,.71-1.08l1.85-2.41,.84,.41-3.42,4.34-.99-.48Z"/><path class="b" d="M322.15,456.97c-.21,.5-.46,.92-.74,1.26-.29,.34-.6,.57-.95,.68-.35,.12-.73,.09-1.14-.08-.39-.16-.66-.41-.82-.74s-.22-.71-.19-1.16c.04-.44,.16-.92,.37-1.42,.34-.8,.74-1.37,1.22-1.71,.47-.34,1.01-.38,1.61-.13,.55,.23,.88,.63,1,1.19,.12,.56,0,1.27-.35,2.11Zm-2.58-1.07c-.25,.6-.38,1.08-.37,1.44,0,.36,.16,.6,.45,.72,.29,.12,.56,.06,.83-.18s.52-.67,.78-1.29c.25-.6,.38-1.08,.37-1.44,0-.36-.16-.6-.45-.72-.3-.12-.57-.06-.83,.18-.26,.25-.52,.67-.77,1.28Z"/><path class="b" d="M323.08,457.85l.33-.88,2.15,.8-.33,.88-2.15-.8Z"/><path class="b" d="M329.24,460.24c-.13,.39-.32,.71-.57,.96-.25,.25-.54,.41-.88,.49-.33,.07-.69,.05-1.06-.07-.28-.09-.53-.2-.75-.33s-.43-.29-.6-.46l.32-.98c.18,.21,.38,.39,.62,.54,.23,.16,.46,.27,.67,.34,.3,.1,.56,.07,.79-.07s.39-.36,.48-.64c.06-.2,.09-.38,.08-.54-.01-.16-.07-.33-.18-.5-.11-.17-.27-.37-.47-.59-.22-.24-.39-.48-.54-.71-.14-.23-.23-.48-.25-.75-.03-.27,.02-.58,.14-.93,.11-.36,.29-.66,.53-.88,.24-.22,.52-.37,.84-.43,.32-.06,.65-.04,1.01,.08,.27,.09,.52,.21,.73,.36,.22,.15,.41,.31,.58,.48l-.57,.76c-.17-.18-.33-.33-.5-.45-.17-.12-.34-.2-.51-.26-.27-.09-.51-.08-.71,.04-.21,.12-.35,.31-.44,.57-.07,.21-.1,.39-.08,.55,.01,.16,.08,.32,.19,.48,.11,.16,.27,.36,.48,.59,.35,.38,.59,.75,.7,1.12,.12,.37,.1,.78-.04,1.21Z"/><path class="b" d="M333.43,457.81c.49,.14,.81,.47,.94,1,.13,.53,.08,1.24-.17,2.12-.24,.85-.56,1.48-.95,1.88-.39,.4-.82,.53-1.3,.4-.25-.07-.46-.2-.62-.39-.16-.19-.27-.43-.33-.73h-.04c-.03,.15-.06,.29-.09,.42-.03,.13-.06,.24-.08,.34l-.64,2.25-.92-.26,2.12-7.51,.75,.21-.07,.74h.05c.22-.24,.45-.39,.67-.46,.22-.07,.45-.07,.68,0Zm-.46,.72c-.3-.08-.56,0-.79,.24-.22,.24-.42,.66-.59,1.27l-.06,.21c-.18,.63-.24,1.12-.18,1.46,.06,.34,.25,.55,.55,.63,.28,.08,.52-.02,.75-.29s.42-.73,.6-1.37c.18-.64,.25-1.14,.21-1.49-.04-.35-.21-.57-.5-.66Z"/><path class="b" d="M336.96,458.83l-1.28,5.25-.92-.23,1.28-5.25,.92,.23Zm.03-2.11c.35,.09,.48,.33,.38,.74-.1,.4-.32,.56-.67,.48s-.48-.33-.38-.73c.1-.41,.32-.57,.67-.49Z"/><path class="b" d="M340.3,459.47c.14,.03,.29,.09,.44,.16l-.33,.95c-.1-.07-.23-.12-.4-.16-.29-.06-.55,.05-.79,.32-.24,.28-.41,.66-.5,1.14l-.58,2.74-.93-.2,1.13-5.28,.72,.16-.06,.92h.05c.17-.25,.37-.46,.58-.61,.22-.15,.44-.2,.68-.15Z"/><path class="b" d="M342.56,460l-.97,5.31-.93-.17,.97-5.31,.93,.17Zm-.09-2.11c.35,.07,.49,.3,.42,.72-.08,.41-.29,.58-.64,.51s-.49-.3-.42-.71c.08-.41,.29-.59,.64-.52Z"/><path class="b" d="M344.68,465.07c.09,.01,.17,.02,.26,0,.09,0,.18-.02,.27-.04l-.12,.76c-.12,.04-.25,.07-.39,.08-.14,.01-.29,0-.46-.02-.38-.06-.64-.23-.78-.51-.14-.28-.17-.67-.09-1.17l.49-3.14-.5-.08,.08-.51,.6-.16,.44-1.17,.64,.1-.18,1.18,.91,.14-.12,.79-.91-.14-.48,3.06c-.04,.25-.04,.44,0,.58,.04,.13,.16,.22,.34,.25Z"/></g><g><path class="b" d="M455.85,435.53c.44-.56,.91-.86,1.4-.91,.49-.05,1.02,.15,1.58,.59,.57,.45,.91,.93,1,1.46,.1,.52-.07,1.06-.51,1.62l-.27,.35,2.13,1.68-.62,.79-5.61-4.41,.91-1.16Zm.65,.58l-.26,.33,2.12,1.67,.21-.27c.26-.33,.37-.65,.31-.93-.06-.29-.28-.58-.68-.9-.36-.28-.67-.41-.94-.39s-.53,.18-.76,.49Z"/><path class="b" d="M460.23,432.44c.09-.12,.2-.23,.33-.33l.74,.69c-.1,.06-.21,.16-.3,.3-.17,.24-.18,.52-.03,.85,.15,.33,.43,.64,.83,.93l2.26,1.66-.56,.77-4.35-3.2,.44-.6,.81,.43,.03-.04c-.17-.26-.28-.53-.32-.78-.05-.26,0-.48,.14-.68Z"/><path class="b" d="M465.29,430.05c.44,.31,.8,.63,1.08,.98,.27,.35,.43,.71,.48,1.07,.04,.37-.06,.73-.31,1.1-.24,.35-.53,.57-.89,.66-.35,.09-.74,.08-1.17-.05-.43-.13-.86-.34-1.32-.65-.72-.49-1.19-1-1.43-1.54s-.17-1.07,.19-1.6c.33-.49,.79-.74,1.37-.74,.58,0,1.24,.25,2,.77Zm-1.57,2.31c.54,.37,.99,.59,1.34,.65,.35,.07,.62-.03,.8-.29,.18-.26,.17-.54-.02-.85s-.55-.65-1.1-1.02c-.54-.37-.98-.59-1.34-.65-.35-.06-.62,.03-.79,.29-.18,.26-.18,.55,.01,.85,.19,.3,.56,.64,1.1,1.01Z"/><path class="b" d="M468.69,429.78l-5.3-1.72,.53-.83,2.99,1.08c.19,.07,.39,.14,.58,.22s.38,.16,.58,.25l.02-.03c-.1-.07-.22-.17-.36-.3-.13-.12-.28-.27-.44-.42l-2.36-2.38,.52-.83,3.81,4.07-.56,.89Z"/><path class="b" d="M464.36,422.6c.18-.31,.46-.36,.82-.14,.36,.21,.44,.47,.26,.78-.18,.31-.45,.36-.81,.15-.36-.21-.45-.48-.26-.79Zm2.01,.65l4.64,2.77-.49,.82-4.64-2.77,.49-.82Z"/><path class="b" d="M472.56,423.52c-.25,.45-.66,.68-1.21,.68-.55,0-1.22-.22-2.01-.66-.78-.43-1.32-.89-1.61-1.36-.29-.47-.32-.92-.08-1.36,.12-.21,.29-.38,.51-.5,.22-.12,.47-.17,.77-.16l.02-.04c-.29-.14-.53-.26-.7-.36l-1.83-1.02,.47-.84,6.64,3.7-.38,.67-.64-.21-.03,.05c.15,.25,.23,.49,.25,.71,.02,.22-.03,.45-.16,.68Zm-.59-.61c.3-.54-.07-1.09-1.1-1.67l-.26-.15c-.57-.31-1.02-.48-1.36-.5s-.59,.12-.75,.4c-.14,.26-.1,.52,.13,.8,.23,.28,.62,.58,1.17,.88,1.16,.65,1.88,.72,2.16,.22Z"/><path class="b" d="M470.08,416.31c.17-.34,.41-.57,.71-.7,.3-.13,.64-.17,1.02-.12,.38,.05,.77,.18,1.18,.39l.54,.28-1.17,2.29c.54,.27,.98,.38,1.33,.35,.35-.03,.61-.22,.78-.57,.09-.18,.16-.37,.19-.57,.03-.2,.04-.42,.02-.67l.74,.38c.04,.45-.06,.89-.29,1.34-.21,.42-.49,.7-.83,.85-.34,.15-.73,.19-1.16,.12-.43-.07-.89-.23-1.36-.47-.81-.41-1.37-.87-1.67-1.36-.3-.49-.31-1-.04-1.53Zm.69,.35c-.12,.23-.1,.46,.05,.7,.15,.24,.45,.49,.91,.74l.76-1.49c-.38-.19-.73-.29-1.05-.3s-.54,.11-.67,.35Z"/><path class="b" d="M472.18,411.95c.06-.13,.15-.26,.26-.39l.86,.53c-.09,.08-.17,.2-.24,.35-.13,.27-.08,.55,.13,.84s.55,.54,1,.75l2.53,1.19-.4,.86-4.89-2.29,.31-.67,.88,.27,.02-.05c-.22-.23-.37-.46-.47-.71-.09-.24-.09-.47,0-.69Z"/><path class="b" d="M477.49,409.83c.47,.2,.78,.49,.92,.85,.14,.37,.11,.78-.09,1.24-.1,.23-.22,.44-.35,.61-.13,.18-.28,.33-.43,.44l-.89-.38c.17-.09,.33-.22,.5-.39,.16-.17,.28-.35,.37-.56,.09-.2,.1-.38,.04-.54s-.2-.29-.4-.38c-.17-.07-.34-.08-.52-.03-.17,.05-.4,.19-.68,.41-.32,.23-.63,.38-.93,.47-.3,.09-.64,.05-1.02-.11-.4-.17-.67-.44-.8-.8-.13-.36-.1-.76,.09-1.19,.1-.22,.21-.42,.36-.59,.14-.17,.31-.32,.5-.45l.57,.59c-.15,.09-.29,.2-.4,.33-.12,.12-.21,.26-.28,.41-.08,.2-.1,.37-.04,.52s.17,.26,.35,.33c.18,.08,.35,.09,.51,.03,.16-.06,.39-.2,.7-.41,.32-.22,.63-.38,.94-.48,.3-.09,.64-.06,1.01,.1Z"/></g><g><path class="b" d="M452.87,422.62c-.19,.28-.24,.58-.15,.9,.09,.32,.28,.64,.58,.97,.29,.32,.65,.63,1.07,.91,.72,.49,1.35,.76,1.91,.81s.97-.12,1.23-.51c.12-.17,.2-.35,.26-.53,.05-.18,.09-.37,.12-.56l.75,.51c-.04,.4-.19,.8-.46,1.19-.42,.62-1.02,.93-1.8,.92-.78,0-1.64-.34-2.6-.99-.57-.39-1.03-.81-1.39-1.27-.36-.46-.57-.93-.64-1.42-.07-.48,.05-.95,.36-1.4,.28-.41,.65-.73,1.12-.95l.5,.74c-.17,.07-.33,.16-.47,.27-.15,.11-.27,.24-.38,.4Z"/><path class="b" d="M455.77,419.72c.27-.44,.6-.67,1-.7,.4-.03,.86,.12,1.37,.44l3.07,1.91-.38,.61-.71-.26v.02c.15,.28,.23,.54,.25,.78,.01,.24-.06,.49-.21,.73-.15,.24-.34,.4-.56,.47-.23,.07-.46,.08-.72,.02-.25-.06-.5-.17-.75-.32-.46-.29-.74-.64-.83-1.06-.09-.42,0-.88,.29-1.37l.31-.55-.26-.16c-.32-.2-.58-.3-.79-.3-.21,0-.38,.09-.51,.3-.15,.25-.24,.61-.26,1.08l-.77-.13c0-.52,.15-1.02,.45-1.5Zm2.72,1.08l-.22,.39c-.32,.59-.2,1.05,.36,1.4,.5,.31,.86,.3,1.07-.04,.14-.22,.14-.46,0-.73-.13-.26-.39-.51-.77-.75l-.44-.27Z"/><path class="b" d="M458.22,415.58c.07-.13,.17-.25,.29-.36l.81,.6c-.1,.08-.19,.18-.27,.33-.15,.25-.12,.54,.07,.85,.19,.31,.5,.59,.93,.83l2.43,1.39-.47,.82-4.68-2.69,.37-.64,.85,.34,.03-.04c-.2-.24-.33-.49-.41-.74-.08-.25-.05-.48,.07-.69Z"/><path class="b" d="M459.6,413.04c.18-.34,.42-.57,.72-.69,.31-.13,.65-.16,1.02-.1s.77,.19,1.18,.41l.54,.29-1.2,2.27c.53,.28,.97,.4,1.32,.37,.35-.03,.61-.21,.79-.55,.1-.18,.16-.37,.2-.57,.04-.2,.04-.42,.03-.67l.73,.39c.03,.45-.07,.89-.31,1.33-.22,.41-.5,.69-.84,.84s-.73,.18-1.16,.1c-.43-.08-.88-.24-1.35-.49-.81-.43-1.35-.89-1.64-1.38-.29-.5-.29-1.01-.02-1.53Zm.68,.36c-.12,.22-.1,.46,.04,.7,.15,.24,.44,.5,.9,.76l.78-1.48c-.38-.2-.73-.31-1.05-.32-.32-.01-.54,.1-.67,.34Z"/></g><g><path class="b" d="M447.12,422.38l-.6,.8-2.63-1.96-1.23,1.66,2.63,1.96-.6,.8-5.73-4.26,.6-.8,2.38,1.77,1.23-1.66-2.38-1.77,.59-.8,5.73,4.26Z"/><path class="b" d="M444.42,416.58c.21-.32,.47-.52,.79-.61,.32-.09,.66-.09,1.03,0,.37,.1,.75,.27,1.13,.53l.51,.34-1.43,2.14c.5,.33,.93,.5,1.28,.5,.35,0,.63-.15,.84-.47,.12-.17,.2-.35,.25-.54s.09-.41,.1-.67l.69,.46c-.02,.45-.16,.88-.44,1.29-.26,.39-.57,.64-.93,.75s-.75,.1-1.17-.02-.85-.33-1.3-.62c-.76-.51-1.26-1.02-1.49-1.54-.24-.52-.19-1.03,.14-1.52Zm.64,.43c-.14,.21-.15,.44-.03,.7,.12,.26,.39,.54,.81,.84l.93-1.39c-.36-.24-.69-.38-1.01-.43-.32-.05-.55,.04-.7,.27Z"/><path class="b" d="M446.8,412.83c.27-.44,.6-.67,.99-.71,.4-.03,.86,.11,1.38,.42l3.09,1.88-.37,.62-.71-.25v.02c.15,.28,.24,.54,.25,.78s-.05,.49-.2,.73c-.15,.25-.33,.41-.56,.48-.22,.07-.46,.08-.72,.03-.25-.06-.5-.16-.75-.31-.47-.28-.75-.63-.84-1.05-.09-.42,0-.88,.27-1.37l.3-.55-.26-.16c-.32-.19-.58-.29-.8-.29-.21,0-.38,.1-.5,.3-.15,.25-.23,.61-.25,1.08l-.77-.12c0-.52,.14-1.03,.43-1.5Zm2.73,1.05l-.22,.4c-.31,.59-.19,1.06,.37,1.39,.51,.31,.86,.29,1.07-.05,.14-.22,.13-.47,0-.73-.14-.26-.4-.51-.78-.74l-.45-.27Z"/><path class="b" d="M453.49,412.25l-.47,.84-6.63-3.72,.47-.84,6.63,3.72Z"/><path class="b" d="M454.27,409.23c.04-.08,.07-.16,.09-.25,.02-.09,.04-.18,.05-.27l.68,.36c0,.13-.02,.26-.05,.4-.03,.14-.09,.28-.17,.43-.18,.34-.42,.53-.73,.58-.31,.04-.68-.06-1.13-.29l-2.81-1.48-.24,.45-.46-.24,.04-.62-.96-.79,.3-.58,1.05,.55,.43-.81,.71,.37-.43,.81,2.74,1.44c.22,.12,.41,.18,.55,.18,.14,0,.26-.08,.34-.24Z"/><path class="b" d="M449.25,403.95l1.81,.87c.14,.07,.28,.14,.42,.22,.13,.08,.26,.15,.36,.23l.03-.05c-.19-.21-.3-.44-.34-.68-.04-.25,0-.48,.11-.71,.2-.42,.49-.66,.88-.72,.38-.06,.85,.04,1.4,.3l3.28,1.56-.41,.87-3.08-1.47c-.39-.19-.69-.28-.91-.27-.22,0-.37,.11-.47,.31-.14,.3-.11,.58,.11,.84,.22,.26,.62,.53,1.21,.81l2.47,1.18-.41,.87-6.86-3.27,.41-.87Z"/></g></g></svg>