<?xml version="1.0" encoding="UTF-8"?><svg id="a" xmlns="http://www.w3.org/2000/svg" viewBox="0 0 720 720"><defs><style>.b{fill:#fff;}.c{fill:#543b63;}</style></defs><path class="c" d="M359.96,443.04c-16.47,0-32.94-4.83-47-14.49-3.94-2.71-4.94-8.1-2.23-12.04,2.71-3.94,8.1-4.94,12.04-2.23,22.24,15.28,52.12,15.29,74.36,.01,3.94-2.71,9.33-1.71,12.04,2.23,2.71,3.94,1.71,9.33-2.23,12.04-14.05,9.65-30.51,14.48-46.97,14.48Z"/><path class="c" d="M299.34,411.86c-2.7,0-5.36-1.26-7.05-3.63-18.44-25.83-20.44-60.49-5.1-88.3,2.31-4.19,7.57-5.71,11.76-3.4,4.19,2.31,5.71,7.57,3.4,11.76-12.14,22.01-10.56,49.44,4.03,69.88,2.78,3.89,1.87,9.3-2.02,12.08-1.52,1.09-3.28,1.61-5.02,1.61Z"/><path class="c" d="M411.22,314.74c-2.14,0-4.29-.79-5.97-2.38-11.89-11.3-27.47-17.72-43.89-18.07-16.38-.36-32.16,5.35-44.48,16.05-3.61,3.14-9.08,2.75-12.21-.86-3.14-3.61-2.75-9.08,.86-12.21,15.56-13.52,35.5-20.72,56.2-20.29,20.74,.44,40.43,8.55,55.45,22.83,3.46,3.29,3.6,8.77,.31,12.24-1.7,1.79-3.99,2.69-6.27,2.69Z"/><path class="c" d="M420.58,411.86c-1.74,0-3.5-.52-5.02-1.61-3.89-2.78-4.79-8.18-2.02-12.08,13.99-19.6,16.12-45.26,5.55-66.95-2.09-4.3-.31-9.48,3.99-11.57,4.3-2.09,9.48-.31,11.57,3.99,13.35,27.4,10.66,59.82-7.02,84.59-1.69,2.37-4.35,3.63-7.05,3.63Z"/><g><path class="b" d="M317.74,298.97c.3,.46,.67,.8,1.09,.99s.87,.27,1.33,.22c.46-.05,.9-.21,1.31-.47,.54-.35,.92-.75,1.16-1.19,.23-.44,.39-.88,.46-1.31l1.31,2c-.15,.43-.37,.83-.64,1.21-.27,.38-.69,.75-1.25,1.11-.81,.53-1.64,.84-2.49,.92-.85,.08-1.65-.06-2.4-.43-.75-.37-1.38-.94-1.9-1.73-.52-.79-.79-1.6-.83-2.43-.04-.83,.15-1.62,.56-2.37,.41-.75,1.02-1.39,1.84-1.92,.56-.37,1.06-.6,1.52-.7,.45-.1,.91-.13,1.36-.1l1.31,2c-.43-.11-.89-.15-1.39-.11-.5,.04-1.01,.24-1.55,.59-.41,.27-.73,.6-.96,1.01-.23,.41-.34,.84-.33,1.31,.01,.47,.17,.94,.47,1.4Z"/><path class="b" d="M324.69,294.57c-.29-.64-.44-1.27-.46-1.91-.02-.63,.09-1.23,.32-1.8,.23-.57,.56-1.08,1.01-1.54s.98-.82,1.62-1.11c.64-.29,1.28-.45,1.92-.49,.64-.04,1.25,.04,1.83,.25,.58,.2,1.1,.52,1.56,.95s.84,.96,1.13,1.6c.29,.64,.45,1.28,.47,1.91,.02,.64-.08,1.24-.3,1.82-.22,.58-.55,1.1-1,1.56-.45,.46-1,.84-1.65,1.14-.65,.29-1.29,.46-1.94,.49-.64,.03-1.25-.06-1.83-.28s-1.1-.54-1.56-.98c-.46-.44-.84-.98-1.13-1.62Zm2.12-.96c.22,.49,.51,.88,.88,1.17,.36,.29,.77,.46,1.21,.51s.9-.03,1.37-.24c.47-.21,.83-.5,1.08-.87s.4-.79,.43-1.25-.07-.94-.29-1.43c-.22-.49-.51-.88-.87-1.17-.36-.29-.76-.46-1.21-.51-.45-.05-.91,.03-1.39,.25-.47,.21-.83,.5-1.08,.87s-.4,.78-.42,1.25c-.02,.46,.08,.94,.3,1.43Z"/><path class="b" d="M338.72,288.92l.62,4.56-2.24,.58-.98-9.62,5.16,4.4,2.36-6.35,3.83,8.88-2.27,.59-1.67-4.26-1.46,4.2-3.35-2.97Z"/><path class="b" d="M351.73,286.3l-.2,4.59-2.31,.18,.73-9.63,4.3,5.23,3.44-5.83,2.21,9.41-2.33,.18-.89-4.48-2.18,3.87-2.77-3.51Z"/><path class="b" d="M362.84,281.32l2.2,.18-.49,5.93c-.04,.46,.05,.84,.27,1.14,.22,.31,.57,.48,1.05,.52,.48,.04,.86-.07,1.13-.34,.27-.27,.42-.63,.46-1.08l.49-5.93,2.19,.18-.5,6.09c-.06,.76-.28,1.38-.64,1.85-.36,.47-.83,.8-1.41,1s-1.2,.27-1.88,.21c-.68-.06-1.29-.23-1.82-.52-.53-.29-.94-.69-1.22-1.22-.28-.52-.39-1.17-.33-1.92l.5-6.09Z"/><path class="b" d="M380.41,284l2.06,.49-2.22,9.3-4.84-6.78-1.17,4.88-2.06-.49,2.22-9.3,4.84,6.78,1.17-4.88Z"/><path class="b" d="M386.25,285.82l2.1,.77-3.14,8.54-2.1-.77,3.14-8.54Z"/><path class="b" d="M390.2,289.39l.86-1.78,6.49,3.13-.86,1.78-2.25-1.08-3.09,6.42-1.99-.96,3.09-6.42-2.25-1.08Z"/><path class="b" d="M404.95,295.35l2.13,1.4-5.65,2.75-2.03,3.08-1.87-1.23,2.03-3.08,.31-6.27,2.13,1.4-.41,3.83,3.36-1.88Z"/></g><g><path class="b" d="M432.04,342.49c-.54,.12-.98,.34-1.32,.67-.34,.33-.57,.72-.69,1.17-.12,.45-.13,.92-.02,1.39,.14,.63,.37,1.13,.7,1.51s.68,.67,1.06,.89l-2.34,.51c-.35-.3-.65-.64-.9-1.03s-.45-.91-.59-1.56c-.21-.95-.19-1.83,.04-2.66s.65-1.52,1.26-2.08c.61-.57,1.38-.95,2.3-1.15,.92-.2,1.78-.17,2.57,.09,.79,.26,1.46,.72,2.01,1.37s.93,1.45,1.13,2.4c.14,.65,.18,1.21,.11,1.67-.07,.46-.2,.9-.39,1.31l-2.34,.51c.26-.36,.46-.78,.6-1.25,.14-.48,.14-1.03,0-1.66-.1-.47-.3-.89-.6-1.25-.3-.36-.67-.62-1.11-.78s-.93-.18-1.48-.06Z"/><path class="b" d="M438.14,350.76l.19,2.19-7.18,.62,.31,3.64-1.89,.16-.5-5.83,9.07-.78Z"/><path class="b" d="M431.28,362.27l-1.71-.95,.13-2.49,9.42,5.29-9.9,4.29,.12-2.49,1.8-.77,.15-2.88Zm1.65,.53l-.1,2.01,2.36-.88-2.26-1.13Z"/><path class="b" d="M436.55,378.28l-.43,2.07-9.35-1.95,6.64-5.03-4.91-1.03,.43-2.07,9.35,1.95-6.64,5.03,4.91,1.03Z"/></g><g><path class="b" d="M285.81,386.53l-.92-2.42,5.3,1.93,3.14-5.35,.95,2.49-2.57,4.4,3.7-1.41,.81,2.14-8.5,3.24-.81-2.14,3.34-1.27-4.44-1.61Z"/><path class="b" d="M284.09,381.03l-.56-2.17,8.81-2.29,.56,2.17-8.81,2.29Z"/><path class="b" d="M281.73,368.78l-.29-2.1,9.47-1.3-4.57,6.96,4.97-.68,.29,2.1-9.47,1.3,4.57-6.96-4.97,.68Z"/><path class="b" d="M287.1,361.61c.55-.31,.96-.63,1.24-.97,.28-.34,.42-.75,.42-1.23,0-.74-.29-1.11-.88-1.11-.26,0-.47,.08-.63,.25s-.3,.39-.41,.67c-.12,.28-.25,.59-.39,.94-.09,.22-.21,.48-.35,.76-.15,.28-.33,.55-.54,.81-.22,.26-.49,.47-.81,.64-.32,.17-.7,.25-1.15,.25-.51,0-.96-.14-1.34-.42s-.67-.66-.88-1.14c-.21-.49-.31-1.04-.31-1.67,0-.65,.11-1.2,.32-1.65,.21-.45,.47-.81,.77-1.08s.62-.47,.93-.58l.94,1.66c-.34,.19-.61,.41-.8,.66s-.29,.56-.29,.91c0,.32,.06,.57,.2,.76,.13,.19,.32,.28,.55,.28,.21,0,.39-.09,.54-.29,.15-.19,.28-.45,.41-.77,.12-.32,.25-.66,.38-1.01,.15-.42,.35-.81,.59-1.16s.55-.63,.92-.83c.37-.21,.81-.31,1.33-.3,.92,0,1.62,.32,2.1,.95s.72,1.47,.71,2.54c0,.55-.11,1.08-.32,1.56s-.5,.92-.87,1.29c-.37,.37-.81,.65-1.31,.84l-1.07-1.55Z"/><path class="b" d="M281.56,352.23l.33-2.17,3.28,.5,.59-3.87-3.28-.5,.33-2.17,8.99,1.37-.33,2.17-3.76-.57-.59,3.87,3.76,.57-.33,2.17-8.99-1.37Z"/><path class="b" d="M283.8,340.13l.59-2.16,8.78,2.4-.59,2.16-8.78-2.4Z"/><path class="b" d="M291.86,334.36l2.93,1.14-.79,2.05-8.48-3.29,.5-1.28,.3-.76,.35-.9c.42-1.08,.98-1.81,1.69-2.17s1.5-.38,2.36-.05c.86,.33,1.42,.87,1.71,1.62,.28,.75,.21,1.67-.21,2.75l-.35,.9Zm-1.7-.66l.35-.9c.16-.41,.19-.77,.1-1.08-.09-.31-.32-.53-.66-.66-.36-.14-.67-.12-.94,.04-.27,.16-.49,.45-.65,.86l-.35,.9,2.16,.84Z"/></g><g><path class="b" d="M335.1,430.86l-.67,1.97,3.73,1.27-.59,1.72-3.73-1.27-.63-.21-1.38-.47,2.93-8.62,1.38,.47,.63,.21,3.73,1.27-.59,1.72-3.73-1.27-.52,1.53,3.48,1.18-.57,1.67-3.48-1.18Z"/><path class="b" d="M343.06,427.87l2.15,.46-1.5,7.04,3.57,.76-.39,1.86-5.72-1.21,1.89-8.9Z"/><path class="b" d="M351.27,438.55l-1.45-.12,.74-9.07,1.45,.12,.8,.06,.98,.08c.99,.08,1.84,.33,2.53,.76,.7,.43,1.22,.99,1.56,1.71,.35,.71,.48,1.53,.41,2.46-.08,.93-.34,1.72-.8,2.37-.46,.64-1.06,1.12-1.82,1.43-.76,.31-1.63,.42-2.62,.34l-.98-.08-.8-.06Zm.96-1.88l.91,.07c.47,.04,.91,0,1.33-.14s.77-.37,1.05-.73c.28-.36,.45-.86,.5-1.5s-.03-1.17-.25-1.57c-.22-.4-.53-.7-.92-.89-.39-.19-.82-.31-1.29-.35l-.91-.07-.42,5.18Z"/><path class="b" d="M363.27,435.02l.11,2.08,3.93-.22,.1,1.82-3.93,.22-.66,.04-1.45,.08-.5-9.09,1.45-.08,.66-.04,3.93-.22,.1,1.82-3.93,.22,.09,1.61,3.67-.2,.1,1.77-3.67,.2Z"/><path class="b" d="M372.76,434.77l.57,3.09-2.16,.4-1.66-8.95,1.36-.25,.81-.15,1.11-.21c1.14-.21,2.06-.1,2.75,.33s1.11,1.08,1.27,1.95c.12,.62,.06,1.19-.15,1.71-.22,.52-.6,.94-1.15,1.27l2.95,2.95-2.54,.47-2.49-2.74-.67,.12Zm-.31-1.69l.95-.17c.43-.08,.76-.25,.97-.5,.21-.25,.28-.56,.21-.92-.07-.38-.25-.64-.53-.79s-.64-.19-1.08-.11l-.95,.17,.43,2.33Z"/><path class="b" d="M381.15,432.73c.46,.42,.9,.71,1.31,.87,.41,.16,.84,.16,1.29,.01,.7-.23,.96-.62,.78-1.18-.08-.25-.22-.42-.43-.52-.21-.1-.46-.16-.77-.18-.3-.03-.64-.05-1.01-.08-.24-.01-.52-.04-.83-.09-.31-.05-.62-.14-.94-.26-.31-.13-.6-.32-.86-.57-.26-.25-.46-.59-.59-1.01-.16-.49-.16-.95-.02-1.4,.14-.45,.41-.84,.81-1.2,.4-.35,.89-.62,1.49-.81,.62-.2,1.17-.27,1.67-.21s.91,.19,1.27,.4c.35,.21,.64,.44,.85,.7l-1.28,1.41c-.29-.26-.58-.45-.88-.55-.3-.1-.62-.1-.96,0-.31,.1-.53,.24-.66,.42-.14,.18-.17,.39-.1,.61,.06,.2,.21,.34,.44,.42,.23,.08,.52,.13,.86,.15,.34,.02,.7,.03,1.08,.05,.45,0,.88,.08,1.29,.2,.41,.12,.77,.33,1.08,.61,.31,.28,.54,.67,.7,1.17,.28,.87,.2,1.64-.25,2.29s-1.18,1.14-2.19,1.47c-.53,.17-1.06,.23-1.58,.19-.53-.04-1.03-.18-1.49-.42s-.87-.56-1.2-.99l1.14-1.5Z"/></g></svg>